<?xml version="1.0" encoding="utf-8"?>
<!-- Generator: Adobe Illustrator 16.0.0, SVG Export Plug-In . SVG Version: 6.00 Build 0)  -->
<!DOCTYPE svg PUBLIC "-//W3C//DTD SVG 1.1//EN" "http://www.w3.org/Graphics/SVG/1.1/DTD/svg11.dtd">
<svg version="1.1" id="Layer_1" xmlns="http://www.w3.org/2000/svg" xmlns:xlink="http://www.w3.org/1999/xlink" x="0px" y="0px"
	 width="216px" height="216px" viewBox="-93 -93 216 216" enable-background="new -93 -93 216 216" xml:space="preserve">
<path id="Shape_2_" fill="#FF8D17" stroke="#FFDF80" stroke-width="3" enable-background="new    " d="M3.558-76.945l-0.94-0.945
	c-0.405-0.403-0.958-0.621-1.524-0.605l-30.752,0.884c-0.529,0.016-1.032,0.232-1.406,0.606l-48.651,48.651
	c-0.808,0.81-0.808,2.121,0,2.93l43.939,43.939c0.81,0.809,2.121,0.809,2.931,0l48.651-48.652c0.374-0.374,0.593-0.878,0.605-1.406
	l0.885-30.75c0.017-0.567-0.2-1.121-0.605-1.524l-1.407-1.405L2.831-53.264c0.293,3.308-0.849,6.593-3.235,8.982
	c-4.46,4.46-11.767,4.353-16.314-0.197c-4.552-4.549-4.66-11.855-0.2-16.315c1.908-1.908,4.399-3.029,7.039-3.242L3.558-76.945z
	 M-7.953-52.965l30.211-29.008c0.41-0.396,0.428-1.054,0.026-1.465c-0.393-0.415-1.045-0.427-1.463-0.031l-30.208,29.01
	c-0.41,0.396-0.426,1.051-0.026,1.465C-9.019-52.583-8.366-52.569-7.953-52.965z"/>
<path fill="none" d="M-67.925-28.106l32.669-32.668l32.67,32.668l-32.67,32.669L-67.925-28.106z"/>
<path d="M-45.414-24.184c1.312-1.312,2.466-1.469,3.501-0.914c0.519,0.276,1.165,0.129,1.581-0.287l0.056-0.056
	c0.647-0.647,0.471-1.784-0.361-2.152c-1.469-0.658-3.224-0.621-4.972,0.442l-0.638-0.638c-0.767-0.767-2.005-0.767-2.772,0
	c-0.767,0.767-0.767,2.005,0,2.773l0.61,0.609c-0.286,0.435-0.499,0.888-0.684,1.35h2.791
	C-46.079-23.426-45.784-23.814-45.414-24.184z M-54.665-19.147c0,0.721,0.582,1.303,1.304,1.303l5.055,0.009
	c1.922,1.922,4.417,1.534,7.227-0.001l6.487,0.001c0.138,0.767-0.128,1.812-1.395,3.077c-1.525,1.525-2.856,1.765-3.938,1.294
	c-0.499-0.222-1.072-0.166-1.451,0.212l-0.157,0.158c-0.665,0.665-0.46,1.829,0.406,2.163c1.775,0.683,3.706,0.213,5.36-0.851
	l0.619,0.62c0.766,0.767,2.006,0.767,2.773,0c0.767-0.768,0.767-2.005,0-2.772l-0.601-0.6c0.721-1.055,1.183-2.201,1.238-3.309
	h2.791c0.721,0,1.303-0.583,1.303-1.303c0-0.722-0.582-1.304-1.303-1.303h-24.415C-54.083-20.45-54.665-19.869-54.665-19.147z"/>
<path d="M-31.904-39.101c1.312-1.312,2.468-1.469,3.502-0.914c0.519,0.277,1.166,0.129,1.581-0.287l0.056-0.056
	c0.647-0.646,0.471-1.783-0.361-2.152c-1.469-0.657-3.223-0.621-4.972,0.443l-0.637-0.639c-0.767-0.767-2.005-0.767-2.771,0
	c-0.768,0.768-0.768,2.006,0,2.773l0.609,0.609c-0.285,0.435-0.498,0.887-0.684,1.349h2.79
	C-32.569-38.342-32.273-38.73-31.904-39.101z M-41.154-34.063c0,0.722,0.582,1.303,1.304,1.303l5.054,0.008
	c1.923,1.923,4.417,1.534,7.226,0h6.488c0.139,0.766-0.128,1.812-1.394,3.078c-1.526,1.524-2.857,1.765-3.938,1.293
	c-0.5-0.221-1.073-0.165-1.452,0.212l-0.157,0.158c-0.665,0.665-0.46,1.83,0.406,2.162c1.776,0.684,3.707,0.213,5.361-0.851
	l0.619,0.619c0.767,0.768,2.005,0.768,2.773,0c0.767-0.766,0.767-2.005,0-2.771l-0.602-0.601c0.721-1.055,1.183-2.2,1.238-3.309
	h2.791c0.722-0.002,1.304-0.583,1.304-1.303c0-0.722-0.582-1.304-1.304-1.303H-39.85C-40.572-35.367-41.154-34.785-41.154-34.063z"
	/>
<path id="Shape_1_" fill="#F74F9E" stroke="#FFDF80" stroke-width="3" enable-background="new    " d="M104.629-8.895l-0.586-0.593
	c-0.251-0.252-0.596-0.389-0.948-0.379L83.972-9.313c-0.328,0.01-0.642,0.145-0.874,0.381L52.843,21.611
	c-0.504,0.508-0.504,1.331,0,1.839l27.324,27.585c0.503,0.508,1.318,0.508,1.822,0l30.255-30.543
	c0.232-0.235,0.368-0.551,0.376-0.883l0.55-19.304c0.011-0.358-0.124-0.705-0.376-0.958l-0.874-0.881l-7.744,7.506
	c0.183,2.076-0.528,4.14-2.013,5.64c-2.772,2.801-7.317,2.731-10.146-0.124c-2.829-2.856-2.896-7.442-0.125-10.243
	c1.188-1.196,2.736-1.9,4.378-2.036L104.629-8.895z M97.47,6.16l18.788-18.211c0.255-0.249,0.266-0.662,0.017-0.92
	c-0.245-0.26-0.65-0.268-0.91-0.019L96.579,5.222c-0.255,0.249-0.266,0.66-0.017,0.92C96.806,6.4,97.212,6.408,97.47,6.16z"/>
<path fill="none" d="M60.176,21.767L80.491,1.258l20.316,20.508L80.491,42.275L60.176,21.767z"/>
<path d="M77.55,17.778c1.202-1.213,2.26-1.357,3.208-0.846c0.475,0.256,1.067,0.12,1.447-0.265l0.051-0.052
	c0.594-0.599,0.433-1.648-0.33-1.99c-1.346-0.607-2.953-0.573-4.554,0.41l-0.585-0.591c-0.703-0.71-1.836-0.71-2.539,0
	s-0.703,1.854,0,2.563l0.559,0.563c-0.262,0.403-0.457,0.822-0.627,1.249h2.558C76.94,18.479,77.21,18.121,77.55,17.778z
	 M69.077,22.436c0,0.667,0.532,1.206,1.192,1.206l4.631,0.008c1.762,1.777,4.046,1.419,6.619-0.001l5.942,0.001
	c0.127,0.709-0.118,1.676-1.278,2.847c-1.396,1.409-2.615,1.631-3.606,1.196c-0.457-0.206-0.98-0.155-1.328,0.196l-0.144,0.145
	c-0.61,0.616-0.423,1.692,0.37,2c1.627,0.631,3.396,0.196,4.911-0.786l0.567,0.572c0.702,0.71,1.837,0.71,2.541,0
	c0.701-0.709,0.701-1.854,0-2.563L88.943,26.7c0.661-0.975,1.083-2.034,1.134-3.059h2.558c0.66-0.002,1.192-0.539,1.192-1.205
	c0-0.667-0.532-1.205-1.192-1.205H70.27C69.609,21.231,69.077,21.77,69.077,22.436z"/>
<title>Atoms/Icons/iconA-promo</title>
<desc>Created with Sketch.</desc>
<path id="Shape" fill="#FCCF47" stroke="#FFDF80" stroke-width="3" enable-background="new    " d="M41.646-19.785l-1.393-1.301
	c-0.6-0.555-1.418-0.854-2.256-0.833L-7.53-20.703c-0.784,0.021-1.528,0.318-2.083,0.834L-81.641,47.12
	c-1.196,1.115-1.196,2.92,0,4.035l65.052,60.5c1.199,1.112,3.139,1.112,4.339,0l72.027-66.989c0.554-0.516,0.877-1.209,0.896-1.937
	l1.311-42.339c0.025-0.783-0.298-1.544-0.896-2.098l-2.084-1.935L40.569,12.821c0.434,4.555-1.256,9.078-4.789,12.368
	c-6.604,6.141-17.422,5.993-24.155-0.272C4.888,18.653,4.728,8.595,11.329,2.454c2.825-2.626,6.513-4.171,10.421-4.464
	L41.646-19.785z M24.605,13.233l44.729-39.941c0.604-0.545,0.632-1.451,0.036-2.018c-0.579-0.57-1.548-0.588-2.165-0.042
	L22.484,11.176c-0.607,0.546-0.632,1.448-0.039,2.018C23.025,13.76,23.993,13.778,24.605,13.233z"/>
<path fill="none" d="M-64.184,47.462l48.367-44.981L32.55,47.462l-48.367,44.981L-64.184,47.462z"/>
<path d="M-22.82,38.715c2.862-2.66,5.381-2.979,7.638-1.854c1.129,0.562,2.54,0.262,3.446-0.581l0.121-0.112
	c1.411-1.313,1.027-3.617-0.786-4.365c-3.204-1.333-7.032-1.259-10.842,0.897l-1.39-1.294c-1.673-1.556-4.373-1.556-6.045,0
	c-1.673,1.556-1.673,4.067,0,5.623l1.329,1.236c-0.623,0.882-1.086,1.801-1.49,2.737h6.087
	C-24.27,40.253-23.626,39.466-22.82,38.715z M-42.991,48.931c-0.001,1.462,1.269,2.643,2.84,2.643l11.024,0.019
	c4.192,3.897,9.633,3.111,15.759-0.002l14.147,0.002c0.302,1.556-0.281,3.674-3.042,6.241c-3.326,3.093-6.228,3.579-8.586,2.624
	c-1.086-0.449-2.338-0.337-3.163,0.431l-0.342,0.318c-1.451,1.35-1.006,3.711,0.885,4.386c3.87,1.387,8.083,0.432,11.689-1.724
	l1.35,1.256c1.673,1.556,4.374,1.556,6.047,0c1.672-1.556,1.672-4.066,0-5.622l-1.311-1.218c1.572-2.139,2.58-4.463,2.701-6.711
	h6.087c1.571-0.001,2.84-1.182,2.84-2.642c0.001-1.464-1.27-2.646-2.842-2.643h-53.243C-41.722,46.288-42.991,47.468-42.991,48.931z
	"/>
<path fill="none" d="M55.059-80.97L72.029-64L55.059-47.029L38.088-64L55.059-80.97z"/>
<path fill="#F7F8F9" d="M56.059-69.999v-4c0-0.55-0.45-1-1-1c-0.55,0-1,0.45-1,1v4c0,0.55,0.45,1,1,1S56.059-69.449,56.059-69.999z
	 M59.998-67.529l0.721-0.72c0.39-0.391,0.39-1.02,0-1.411c-0.391-0.39-1.021-0.39-1.41,0l-0.71,0.71c-0.39,0.39-0.391,1.02,0,1.41
	C58.979-67.15,59.619-67.149,59.998-67.529z M66.059-63.999c0-0.561-0.45-1-1-1l-4,0c-0.55,0-1,0.45-1,1s0.45,1,1,1h4
	C65.608-63,66.059-63.449,66.059-63.999z M60.708-58.339c0.391-0.391,0.391-1.019,0-1.41l-0.71-0.709c-0.39-0.39-1.02-0.389-1.409,0
	c-0.391,0.389-0.391,1.021,0,1.41l0.71,0.71C59.688-57.959,60.328-57.959,60.708-58.339z M55.059-59c-0.561,0.001-1,0.45-1,1v4
	c0,0.55,0.45,1,1,1c0.55,0,1-0.45,1-1v-4C56.058-58.549,55.607-59,55.059-59z M58.059-63.999c0-1.661-1.34-3-3-3s-3,1.34-3,3
	s1.34,3,3,3C56.719-61,58.059-62.339,58.059-63.999z M50.119-60.47l-0.711,0.711c-0.39,0.39-0.39,1.02,0,1.41
	c0.391,0.39,1.021,0.39,1.41,0l0.71-0.711c0.39-0.39,0.39-1.02,0-1.41C51.139-60.849,50.498-60.849,50.119-60.47z M49.408-69.66
	c-0.39,0.391-0.391,1.02,0,1.41l0.711,0.71c0.389,0.389,1.02,0.39,1.409,0s0.39-1.021,0-1.41l-0.71-0.711
	C50.429-70.04,49.789-70.04,49.408-69.66z M44.059-63.999c0,0.56,0.45,1,1,1l4,0c0.55,0,1-0.45,1-1c0-0.549-0.45-1-1-1l-4-0.001
	C44.509-64.999,44.059-64.549,44.059-63.999z"/>
<path fill="#F7F8F9" d="M79.254,76.649l-0.001-6.835c0.001-0.938-0.769-1.707-1.708-1.707c-0.94,0.001-1.708,0.769-1.71,1.71
	l0.002,6.832c0.001,0.938,0.77,1.707,1.708,1.708C78.484,78.357,79.254,77.588,79.254,76.649z M85.981,80.867l1.229-1.229
	c0.667-0.668,0.667-1.741,0.001-2.409c-0.666-0.665-1.742-0.666-2.409,0.001l-1.213,1.212c-0.665,0.665-0.666,1.744,0,2.409
	C84.24,81.516,85.334,81.516,85.981,80.867z M96.333,86.896c0-0.957-0.768-1.707-1.707-1.707l-6.834-0.001
	c-0.938,0.001-1.708,0.77-1.708,1.708s0.769,1.707,1.709,1.709h6.83C95.564,88.604,96.332,87.836,96.333,86.896z M87.194,96.563
	c0.665-0.666,0.667-1.741,0-2.408l-1.212-1.212c-0.666-0.666-1.742-0.665-2.408,0s-0.666,1.742,0.001,2.408l1.212,1.213
	C85.452,97.213,86.545,97.213,87.194,96.563z M77.543,95.437c-0.955,0.001-1.706,0.769-1.707,1.707v6.835
	c0.001,0.938,0.771,1.707,1.707,1.707c0.94-0.002,1.708-0.769,1.709-1.709v-6.831C79.251,96.205,78.482,95.437,77.543,95.437z
	 M82.668,86.896c0-2.836-2.287-5.124-5.124-5.124c-2.836,0.002-5.122,2.288-5.123,5.123c-0.001,2.838,2.287,5.126,5.124,5.124
	C80.381,92.019,82.667,89.732,82.668,86.896z M69.108,92.924l-1.216,1.215c-0.665,0.665-0.663,1.741,0,2.409
	c0.67,0.665,1.744,0.665,2.409,0l1.213-1.215c0.666-0.666,0.664-1.742,0-2.409C70.849,92.278,69.755,92.277,69.108,92.924z
	 M67.893,77.229c-0.664,0.668-0.665,1.741,0.001,2.407l1.215,1.215c0.664,0.664,1.741,0.667,2.407,0.001
	c0.665-0.666,0.664-1.744,0-2.408l-1.215-1.215C69.637,76.579,68.543,76.581,67.893,77.229z M58.755,86.897
	c0.002,0.956,0.771,1.707,1.708,1.707h6.835c0.938,0,1.707-0.769,1.707-1.706c0-0.939-0.77-1.709-1.709-1.709l-6.832-0.001
	C59.523,85.189,58.757,85.957,58.755,86.897z"/>
<path fill="#F7F8F9" d="M-61.024,13.268l-0.001-8.631c0.001-1.185-0.971-2.156-2.157-2.156c-1.188,0.001-2.156,0.971-2.158,2.159
	l0.002,8.627c0.001,1.185,0.972,2.155,2.156,2.157C-61.996,15.425-61.024,14.452-61.024,13.268z M-52.528,18.594l1.552-1.553
	c0.843-0.844,0.843-2.198,0.001-3.042c-0.841-0.84-2.199-0.841-3.042,0.001l-1.531,1.53c-0.84,0.84-0.841,2.202,0,3.042
	C-54.728,19.412-53.347,19.412-52.528,18.594z M-39.458,26.206c0-1.209-0.969-2.155-2.154-2.155l-8.631-0.002
	c-1.185,0.002-2.156,0.972-2.156,2.157c0,1.185,0.971,2.155,2.158,2.158h8.625C-40.428,28.362-39.458,27.394-39.458,26.206z
	 M-50.997,38.414c0.84-0.842,0.842-2.199,0-3.041l-1.531-1.531c-0.84-0.84-2.199-0.84-3.041,0c-0.84,0.84-0.84,2.201,0.002,3.041
	l1.53,1.531C-53.197,39.234-51.817,39.234-50.997,38.414z M-63.185,36.99c-1.206,0.002-2.154,0.971-2.156,2.156v8.631
	c0.002,1.186,0.974,2.156,2.156,2.156c1.188-0.004,2.156-0.971,2.158-2.158v-8.627C-61.028,37.961-61.999,36.99-63.185,36.99z
	 M-56.713,26.207c0-3.581-2.888-6.471-6.471-6.471c-3.581,0.003-6.468,2.89-6.47,6.47c0,3.583,2.889,6.472,6.471,6.47
	S-56.714,29.788-56.713,26.207z M-73.836,33.818l-1.535,1.533c-0.84,0.84-0.837,2.199,0,3.043c0.846,0.84,2.203,0.84,3.043,0
	l1.531-1.535c0.841-0.84,0.839-2.199,0-3.041C-71.639,33.002-73.02,33.002-73.836,33.818z M-75.371,13.999
	c-0.838,0.844-0.84,2.198,0.002,3.039l1.533,1.534c0.839,0.839,2.199,0.843,3.04,0.002c0.84-0.842,0.839-2.203,0-3.041l-1.534-1.534
	C-73.168,13.179-74.549,13.182-75.371,13.999z M-86.91,26.208c0.003,1.208,0.974,2.156,2.158,2.156h8.631
	c1.185,0,2.154-0.971,2.154-2.154c0-1.187-0.971-2.158-2.157-2.158l-8.628-0.001C-85.939,24.052-86.907,25.021-86.91,26.208z"/>
</svg>
