<?xml version="1.0" encoding="utf-8"?>
<!-- Generator: Adobe Illustrator 16.0.0, SVG Export Plug-In . SVG Version: 6.00 Build 0)  -->
<!DOCTYPE svg PUBLIC "-//W3C//DTD SVG 1.1//EN" "http://www.w3.org/Graphics/SVG/1.1/DTD/svg11.dtd">
<svg version="1.1" id="Layer_1" xmlns="http://www.w3.org/2000/svg" xmlns:xlink="http://www.w3.org/1999/xlink" x="0px" y="0px"
	 width="23.76px" height="23.76px" viewBox="0 0 23.76 23.76" enable-background="new 0 0 23.76 23.76" xml:space="preserve">
<path d="M12.347,5.875c1.667,0.114,2.504,0.807,2.813,1.84c0.156,0.517,0.661,0.869,1.19,0.905l0.069,0.005
	c0.823,0.056,1.431-0.738,1.133-1.522C17.03,5.713,15.887,4.54,14.1,3.982L14.097,3.17c-0.004-0.978-0.796-1.819-1.77-1.886
	c-0.976-0.067-1.759,0.668-1.755,1.646l0.004,0.776c-0.458,0.064-0.88,0.188-1.29,0.336l1.781,1.899
	C11.443,5.872,11.877,5.843,12.347,5.875z M3.255,2.572C2.8,2.999,2.803,3.741,3.263,4.231l3.221,3.445
	c0.011,2.448,1.849,3.915,4.612,4.916l4.14,4.414c-0.396,0.55-1.228,0.987-2.837,0.878c-1.938-0.133-2.939-0.896-3.331-1.911
	c-0.178-0.471-0.579-0.828-1.06-0.86l-0.2-0.013c-0.846-0.059-1.452,0.771-1.109,1.56c0.699,1.612,2.23,2.647,3.958,3.143
	l0.003,0.787c0.004,0.979,0.794,1.82,1.77,1.887c0.975,0.066,1.757-0.668,1.754-1.646l-0.004-0.765
	c1.127-0.137,2.147-0.502,2.884-1.122l1.781,1.899c0.46,0.49,1.2,0.54,1.656,0.112c0.457-0.428,0.453-1.17-0.008-1.661L4.912,2.685
	C4.452,2.194,3.712,2.144,3.255,2.572z"/>
</svg>
