<?xml version="1.0" encoding="utf-8"?>
<!-- Generator: Adobe Illustrator 16.0.0, SVG Export Plug-In . SVG Version: 6.00 Build 0)  -->
<!DOCTYPE svg PUBLIC "-//W3C//DTD SVG 1.1//EN" "http://www.w3.org/Graphics/SVG/1.1/DTD/svg11.dtd">
<svg version="1.1" id="Layer_1" xmlns="http://www.w3.org/2000/svg" xmlns:xlink="http://www.w3.org/1999/xlink" x="0px" y="0px"
	 width="216px" height="216px" viewBox="0 0 216 216" enable-background="new 0 0 216 216" xml:space="preserve">
<circle fill="#F7F8F9" cx="108" cy="108.001" r="39.095"/>
<path id="Combined-Shape" fill="#3883F2" d="M114.225,106.448h1.59v-0.725c0-0.068,0.057-0.123,0.127-0.123h0.693
	c0.07,0,0.129,0.055,0.129,0.123v0.725h0.436v-0.725c0-0.068,0.057-0.123,0.127-0.123h0.693c0.072,0,0.129,0.055,0.129,0.123v0.725
	h0.436v-0.725c0-0.068,0.057-0.123,0.127-0.123h0.695c0.068,0,0.125,0.055,0.125,0.123v0.725h0.436v-0.725
	c0-0.068,0.059-0.123,0.127-0.123h0.695c0.07,0,0.127,0.055,0.127,0.123v0.725h0.436v-0.725c0-0.068,0.057-0.123,0.129-0.123h0.693
	c0.07,0,0.127,0.055,0.127,0.123v0.725h0.436v-0.725c0-0.068,0.059-0.123,0.129-0.123h0.693c0.07,0,0.127,0.055,0.127,0.123v0.725
	h0.436v-0.725c0-0.068,0.057-0.123,0.127-0.123h0.695c0.068,0,0.125,0.055,0.125,0.123v0.725h0.438v-0.725
	c0-0.068,0.057-0.123,0.127-0.123h0.693c0.07,0,0.127,0.055,0.127,0.123v0.725h0.438v-0.725c0-0.068,0.057-0.123,0.127-0.123h0.693
	c0.07,0,0.127,0.055,0.127,0.123v0.725h0.438v-0.725c0-0.068,0.057-0.123,0.127-0.123h0.693c0.07,0,0.127,0.055,0.127,0.123v0.725
	h0.436v-0.725c0-0.068,0.057-0.123,0.127-0.123h0.695c0.07,0,0.127,0.055,0.127,0.123v0.725h0.436v-0.725
	c0-0.068,0.057-0.123,0.127-0.123h0.695c0.07,0,0.127,0.055,0.127,0.123v0.725h0.436v-0.725c0-0.068,0.057-0.123,0.127-0.123h0.695
	c0.068,0,0.127,0.055,0.127,0.123v0.725h1.51h0.295c0.215,0,0.389,0.17,0.389,0.38v1.524h0.744c0.07,0,0.127,0.055,0.127,0.123
	v0.677c0,0.067-0.057,0.124-0.127,0.124h-0.744v0.424h0.744c0.07,0,0.127,0.057,0.127,0.125v0.678c0,0.066-0.057,0.123-0.127,0.123
	h-0.744v0.424h0.744c0.07,0,0.127,0.057,0.127,0.125v0.676c0,0.068-0.057,0.125-0.127,0.125h-0.744v0.424h0.744
	c0.07,0,0.127,0.055,0.127,0.125v0.676c0,0.068-0.057,0.123-0.127,0.123h-0.744v0.424h0.744c0.07,0,0.127,0.057,0.127,0.127v0.676
	c0,0.068-0.057,0.123-0.127,0.123h-0.744v0.426h0.744c0.07,0,0.127,0.057,0.127,0.125v0.674c0,0.068-0.057,0.125-0.127,0.125h-0.744
	v1.463h-0.684v-1.463h-0.744c-0.07,0-0.127-0.057-0.127-0.125v-0.674c0-0.068,0.057-0.125,0.127-0.125h0.744v-0.426h-0.744
	c-0.07,0-0.127-0.055-0.127-0.123v-0.676c0-0.07,0.057-0.127,0.127-0.127h0.744v-0.424h-0.744c-0.07,0-0.127-0.055-0.127-0.123
	v-0.676c0-0.068,0.057-0.125,0.127-0.125h0.744v-0.424h-0.744c-0.07,0-0.127-0.057-0.127-0.125v-0.676
	c0-0.068,0.057-0.125,0.127-0.125h0.744v-0.424h-0.744c-0.07,0-0.127-0.057-0.127-0.123v-0.678c0-0.068,0.057-0.125,0.127-0.125
	h0.744v-0.424h-0.744c-0.07,0-0.127-0.057-0.127-0.124v-0.677c0-0.068,0.057-0.123,0.127-0.123h0.744v-1.236h-1.51v0.725
	c0,0.068-0.059,0.125-0.127,0.125h-0.695c-0.07,0-0.127-0.057-0.127-0.125v-0.725h-0.436v0.725c0,0.068-0.057,0.125-0.127,0.125
	h-0.695c-0.07,0-0.127-0.057-0.127-0.125v-0.725h-0.436v0.725c0,0.068-0.057,0.125-0.127,0.125h-0.695
	c-0.07,0-0.127-0.057-0.127-0.125v-0.725h-0.436v0.725c0,0.068-0.057,0.125-0.127,0.125h-0.693c-0.07,0-0.127-0.057-0.127-0.125
	v-0.725h-0.438v0.725c0,0.068-0.057,0.125-0.127,0.125h-0.693c-0.07,0-0.127-0.057-0.127-0.125v-0.725h-0.438v0.725
	c0,0.068-0.057,0.125-0.127,0.125h-0.693c-0.07,0-0.127-0.057-0.127-0.125v-0.725h-0.438v0.725c0,0.068-0.057,0.125-0.125,0.125
	h-0.695c-0.07,0-0.127-0.057-0.127-0.125v-0.725h-0.436v0.725c0,0.068-0.057,0.125-0.127,0.125h-0.693
	c-0.07,0-0.129-0.057-0.129-0.125v-0.725h-0.436v0.725c0,0.068-0.057,0.125-0.127,0.125h-0.693c-0.072,0-0.129-0.057-0.129-0.125
	v-0.725h-0.436v0.725c0,0.068-0.057,0.125-0.127,0.125h-0.695c-0.068,0-0.127-0.057-0.127-0.125v-0.725h-0.436v0.725
	c0,0.068-0.057,0.125-0.125,0.125h-0.695c-0.07,0-0.127-0.057-0.127-0.125v-0.725h-0.436v0.725c0,0.068-0.059,0.125-0.129,0.125
	h-0.693c-0.07,0-0.127-0.057-0.127-0.125v-0.725h-0.436v0.725c0,0.068-0.059,0.125-0.129,0.125h-0.693
	c-0.07,0-0.127-0.057-0.127-0.125v-0.725h-1.59v1.236h0.744c0.07,0,0.127,0.055,0.127,0.123v0.677c0,0.067-0.057,0.124-0.127,0.124
	h-0.744v0.424h0.744c0.07,0,0.127,0.057,0.127,0.125v0.678c0,0.066-0.057,0.123-0.127,0.123h-0.744v0.424h0.744
	c0.07,0,0.127,0.057,0.127,0.125v0.676c0,0.068-0.057,0.125-0.127,0.125h-0.744v0.424h0.744c0.07,0,0.127,0.057,0.127,0.125v0.676
	c0,0.068-0.057,0.123-0.127,0.123h-0.744v0.424h0.744c0.07,0,0.127,0.057,0.127,0.127v0.676c0,0.068-0.057,0.123-0.127,0.123h-0.744
	v0.426h0.744c0.07,0,0.127,0.057,0.127,0.125v0.674c0,0.068-0.057,0.125-0.127,0.125h-0.744v1.463h-0.684v-1.463h-0.746
	c-0.068,0-0.125-0.057-0.125-0.125v-0.674c0-0.068,0.057-0.125,0.125-0.125h0.746v-0.426h-0.746c-0.068,0-0.125-0.055-0.125-0.123
	v-0.676c0-0.07,0.057-0.127,0.125-0.127h0.746v-0.424h-0.746c-0.068,0-0.125-0.055-0.125-0.123v-0.676
	c0-0.07,0.057-0.125,0.125-0.125h0.746v-0.424h-0.746c-0.068,0-0.125-0.057-0.125-0.125v-0.676c0-0.068,0.057-0.125,0.125-0.125
	h0.746v-0.424h-0.746c-0.068,0-0.125-0.057-0.125-0.123v-0.678c0-0.068,0.057-0.125,0.125-0.125h0.746v-0.424h-0.746
	c-0.068,0-0.125-0.057-0.125-0.124v-0.677c0-0.068,0.057-0.123,0.125-0.123h0.746v-1.524c0-0.21,0.174-0.38,0.389-0.38H114.225z
	 M133.455,114.673c0,0,0.158,1.639-0.652,1.715l-0.889,0.076c0,0,0.197-1.965-1.344-2.041c0,0-1.74-0.365-1.959,1.984h-8.777
	c0,0-0.039-1.947-1.582-1.908c0,0-1.621-0.268-1.74,1.619c0,0-0.869,0.135-0.869-1.541c0,0,0.117-0.289,0.336-0.289
	c0,0,0.178-0.039,0.119-0.23c0,0-0.158-1.271,0.297-1.697l1.521-1.85c0,0,0.277-0.441,1.127-0.463c0,0,5.365-0.055,6.861,0.328
	l0.201,0.049l0.213,0.07l0.203,0.08l0.178,0.084l3.02,1.799c0,0,2.709,0.5,3.361,1.656
	C133.08,114.114,133.396,114.423,133.455,114.673z M118.174,112.419l4.113,0.115l-0.141-1.908c0,0,0.02-0.172-0.275-0.191
	c-0.297-0.02-2.234,0.02-2.234,0.02s-0.574-0.059-0.949,0.539C118.688,110.993,118.055,111.784,118.174,112.419z M127.742,112.657
	c0,0,0.373,0.037,0.039-0.566c0,0-0.889-1.637-4.627-1.617c0,0-0.273-0.059-0.295,0.248l0.414,1.813L127.742,112.657z
	 M130.309,114.905c0.73,0,1.324,0.576,1.324,1.291c0,0.711-0.594,1.289-1.324,1.289s-1.324-0.578-1.324-1.289
	C128.984,115.481,129.578,114.905,130.309,114.905z M130.309,116.849c0.371,0,0.672-0.293,0.672-0.652
	c0-0.363-0.301-0.656-0.672-0.656s-0.672,0.293-0.672,0.656C129.637,116.556,129.938,116.849,130.309,116.849z M118.213,114.905
	c0.732,0,1.326,0.576,1.326,1.291c0,0.711-0.594,1.289-1.326,1.289c-0.73,0-1.324-0.578-1.324-1.289
	C116.889,115.481,117.482,114.905,118.213,114.905z M118.213,116.849c0.371,0,0.672-0.293,0.672-0.652
	c0-0.363-0.301-0.656-0.672-0.656c-0.369,0-0.672,0.293-0.672,0.656C117.541,116.556,117.844,116.849,118.213,116.849z"/>
<path fill="#3883F2" d="M117.293,108.405v-3.544L115.521,96H87.165l-1.772,8.862v3.544h1.772v10.635h17.723v-10.635h7.089v10.635
	h3.545v-10.635H117.293z M101.343,115.495H90.709v-7.09h10.634V115.495z"/>
<path fill="#1D9176" d="M186.11,108.094c-0.855,0-1.551,0.695-1.551,1.55s0.695,1.551,1.551,1.551c0.856,0,1.551-0.695,1.551-1.551
	S186.967,108.094,186.11,108.094z M193.554,108.094c-0.856,0-1.551,0.695-1.551,1.55s0.694,1.551,1.551,1.551
	s1.551-0.695,1.551-1.551S194.41,108.094,193.554,108.094z M189.832,96c-6.848,0-12.404,5.558-12.404,12.405
	c0,6.846,5.557,12.404,12.404,12.404s12.405-5.559,12.405-12.404C202.237,101.557,196.68,96,189.832,96z M189.832,118.328
	c-5.469,0-9.924-4.455-9.924-9.924c0-0.359,0.024-0.721,0.063-1.067c2.926-1.302,5.246-3.696,6.463-6.661
	c2.244,3.174,5.94,5.248,10.12,5.248c0.969,0,1.898-0.114,2.792-0.323c0.26,0.881,0.409,1.824,0.409,2.803
	C199.756,113.873,195.303,118.328,189.832,118.328z"/>
<path fill="#1D9176" d="M104.277,190.07c-0.855,0-1.551,0.695-1.551,1.549c0,0.857,0.695,1.553,1.551,1.553s1.551-0.695,1.551-1.553
	C105.828,190.766,105.133,190.07,104.277,190.07z M111.721,190.07c-0.856,0-1.551,0.695-1.551,1.549
	c0,0.857,0.694,1.553,1.551,1.553s1.551-0.695,1.551-1.553C113.271,190.766,112.577,190.07,111.721,190.07z M107.999,177.975
	c-6.849,0-12.405,5.559-12.405,12.406c0,6.846,5.557,12.404,12.405,12.404c6.848,0,12.404-5.559,12.404-12.404
	C120.403,183.533,114.847,177.975,107.999,177.975z M107.999,200.305c-5.47,0-9.925-4.455-9.925-9.924
	c0-0.359,0.025-0.721,0.064-1.068c2.926-1.301,5.246-3.695,6.463-6.66c2.244,3.174,5.94,5.248,10.12,5.248
	c0.969,0,1.898-0.113,2.792-0.322c0.26,0.881,0.409,1.822,0.409,2.803C117.923,195.85,113.469,200.305,107.999,200.305z"/>
<path fill="#1D9176" d="M104.278,25.311c-0.856,0-1.551,0.695-1.551,1.55c0,0.857,0.694,1.552,1.551,1.552s1.551-0.694,1.551-1.552
	C105.829,26.006,105.135,25.311,104.278,25.311z M111.722,25.311c-0.856,0-1.551,0.695-1.551,1.55c0,0.857,0.694,1.552,1.551,1.552
	s1.551-0.694,1.551-1.552C113.272,26.006,112.578,25.311,111.722,25.311z M108,13.216c-6.848,0-12.404,5.558-12.404,12.405
	S101.152,38.026,108,38.026s12.404-5.558,12.404-12.405S114.848,13.216,108,13.216z M108,35.546c-5.469,0-9.924-4.455-9.924-9.925
	c0-0.359,0.024-0.72,0.063-1.067c2.927-1.302,5.247-3.696,6.463-6.661c2.245,3.174,5.941,5.248,10.121,5.248
	c0.969,0,1.898-0.113,2.792-0.323c0.26,0.88,0.409,1.823,0.409,2.802C117.924,31.091,113.471,35.546,108,35.546z"/>
<path fill="#F74F9E" d="M22.446,108.095c-0.856,0-1.551,0.694-1.551,1.55s0.694,1.551,1.551,1.551s1.551-0.695,1.551-1.551
	S23.303,108.095,22.446,108.095z M29.89,108.095c-0.856,0-1.552,0.694-1.552,1.55s0.695,1.551,1.552,1.551s1.551-0.695,1.551-1.551
	S30.746,108.095,29.89,108.095z M26.168,96c-6.848,0-12.404,5.558-12.404,12.405c0,6.845,5.557,12.404,12.404,12.404
	s12.404-5.559,12.404-12.404C38.572,101.558,33.016,96,26.168,96z M26.168,118.328c-5.469,0-9.924-4.455-9.924-9.923
	c0-0.359,0.024-0.72,0.063-1.067c2.927-1.302,5.247-3.696,6.463-6.661c2.245,3.174,5.941,5.248,10.121,5.248
	c0.969,0,1.898-0.113,2.792-0.323c0.26,0.88,0.409,1.823,0.409,2.802C36.092,113.873,31.639,118.328,26.168,118.328z"/>
<path fill="#1D9176" d="M163.38,48.589c-0.855,0-1.551,0.695-1.551,1.55c0,0.856,0.695,1.552,1.551,1.552
	c0.856,0,1.551-0.695,1.551-1.552C164.931,49.284,164.236,48.589,163.38,48.589z M170.823,48.589c-0.856,0-1.551,0.695-1.551,1.55
	c0,0.856,0.694,1.552,1.551,1.552s1.551-0.695,1.551-1.552C172.374,49.284,171.68,48.589,170.823,48.589z M167.102,36.494
	c-6.848,0-12.404,5.558-12.404,12.405c0,6.847,5.557,12.404,12.404,12.404s12.405-5.558,12.405-12.404
	C179.507,42.052,173.949,36.494,167.102,36.494z M167.102,58.824c-5.469,0-9.924-4.455-9.924-9.925c0-0.359,0.024-0.721,0.063-1.067
	c2.926-1.302,5.246-3.696,6.463-6.661c2.244,3.174,5.94,5.248,10.12,5.248c0.969,0,1.898-0.114,2.792-0.323
	c0.26,0.881,0.409,1.824,0.409,2.803C177.025,54.369,172.572,58.824,167.102,58.824z"/>
<path fill="#F74F9E" d="M45.176,48.589c-0.855,0-1.551,0.695-1.551,1.55c0,0.856,0.695,1.552,1.551,1.552
	c0.856,0,1.551-0.695,1.551-1.552C46.727,49.284,46.033,48.589,45.176,48.589z M52.62,48.589c-0.856,0-1.551,0.695-1.551,1.55
	c0,0.856,0.694,1.552,1.551,1.552s1.551-0.695,1.551-1.552C54.17,49.284,53.476,48.589,52.62,48.589z M48.898,36.494
	c-6.848,0-12.404,5.558-12.404,12.405c0,6.847,5.557,12.404,12.404,12.404s12.405-5.558,12.405-12.404
	C61.303,42.052,55.746,36.494,48.898,36.494z M48.898,58.824c-5.469,0-9.924-4.455-9.924-9.925c0-0.359,0.024-0.721,0.063-1.067
	c2.926-1.302,5.246-3.696,6.463-6.661c2.244,3.174,5.94,5.248,10.12,5.248c0.969,0,1.898-0.114,2.792-0.323
	c0.26,0.881,0.409,1.824,0.409,2.803C58.822,54.369,54.369,58.824,48.898,58.824z"/>
<path fill="#1D9176" d="M163.378,166.791c-0.855,0-1.551,0.695-1.551,1.551c0,0.857,0.695,1.553,1.551,1.553
	c0.856,0,1.551-0.695,1.551-1.553C164.929,167.486,164.234,166.791,163.378,166.791z M170.821,166.791
	c-0.856,0-1.551,0.695-1.551,1.551c0,0.857,0.694,1.553,1.551,1.553s1.551-0.695,1.551-1.553
	C172.372,167.486,171.678,166.791,170.821,166.791z M167.1,154.697c-6.848,0-12.404,5.557-12.404,12.404s5.557,12.404,12.404,12.404
	s12.405-5.557,12.405-12.404S173.947,154.697,167.1,154.697z M167.1,177.027c-5.469,0-9.924-4.455-9.924-9.926
	c0-0.359,0.024-0.721,0.063-1.066c2.926-1.303,5.246-3.695,6.463-6.66c2.244,3.174,5.94,5.248,10.12,5.248
	c0.969,0,1.898-0.115,2.792-0.324c0.26,0.881,0.409,1.824,0.409,2.803C177.023,172.572,172.57,177.027,167.1,177.027z"/>
<path fill="#F74F9E" d="M45.174,166.791c-0.855,0-1.551,0.695-1.551,1.551c0,0.857,0.695,1.553,1.551,1.553
	c0.857,0,1.551-0.695,1.551-1.553C46.725,167.486,46.031,166.791,45.174,166.791z M52.617,166.791c-0.855,0-1.551,0.695-1.551,1.551
	c0,0.857,0.695,1.553,1.551,1.553c0.857,0,1.551-0.695,1.551-1.553C54.168,167.486,53.475,166.791,52.617,166.791z M48.896,154.697
	c-6.848,0-12.404,5.557-12.404,12.404s5.557,12.404,12.404,12.404s12.404-5.557,12.404-12.404S55.744,154.697,48.896,154.697z
	 M48.896,177.027c-5.469,0-9.924-4.455-9.924-9.926c0-0.359,0.023-0.721,0.063-1.066c2.926-1.303,5.246-3.695,6.463-6.66
	c2.244,3.174,5.941,5.248,10.121,5.248c0.969,0,1.898-0.115,2.791-0.324c0.26,0.881,0.41,1.824,0.41,2.803
	C58.82,172.572,54.367,177.027,48.896,177.027z"/>
<g>
	<path id="Shape" fill="#CED4D6" d="M103.261,155.146c-22.384-2.225-40.183-20.023-42.409-42.408H48.777
		c-1.309,0-2.369-1.061-2.369-2.369v-4.738c0-1.309,1.06-2.369,2.369-2.369h12.076c2.226-22.384,20.024-40.183,42.409-42.406V48.779
		c0-1.31,1.06-2.369,2.369-2.369h4.738c1.31,0,2.368,1.06,2.368,2.369v12.078c22.385,2.223,40.184,20.022,42.409,42.406h12.075
		c1.31,0,2.369,1.06,2.369,2.369v4.738c0,1.309-1.06,2.369-2.369,2.369h-12.075c-2.226,22.385-20.024,40.184-42.409,42.408v12.076
		c0,1.309-1.059,2.369-2.368,2.369h-4.738c-1.309,0-2.369-1.061-2.369-2.369V155.146z M107.999,145.902
		c20.932,0,37.902-16.971,37.902-37.902c0-20.934-16.971-37.902-37.902-37.902c-20.931,0-37.902,16.968-37.902,37.902
		C70.097,128.932,87.068,145.902,107.999,145.902z"/>
	<path id="Shape_1_" fill="#CED4D6" d="M71.312,137.988c-14.254-17.402-14.254-42.573,0-59.975l-8.539-8.539
		c-0.925-0.926-0.925-2.425,0-3.35l3.351-3.351c0.926-0.926,2.424-0.926,3.35,0l8.539,8.539
		c17.401-14.254,42.573-14.254,59.974,0.002l8.54-8.54c0.926-0.926,2.424-0.927,3.35-0.001l3.351,3.351
		c0.926,0.926,0.925,2.424-0.001,3.35l-8.54,8.54c14.257,17.401,14.256,42.572,0.002,59.974l8.539,8.539
		c0.926,0.926,0.926,2.424,0,3.35l-3.351,3.35c-0.925,0.926-2.425,0.926-3.351,0l-8.538-8.537
		c-17.401,14.254-42.573,14.254-59.975-0.002l-8.539,8.539c-0.926,0.926-2.424,0.926-3.35,0l-3.351-3.35
		c-0.926-0.926-0.925-2.424,0.001-3.35L71.312,137.988z M81.198,134.801c14.801,14.801,38.801,14.801,53.602,0
		C149.603,120,149.601,96,134.8,81.2c-14.801-14.8-38.799-14.802-53.602,0C66.397,96,66.397,120,81.198,134.801z"/>
</g>
</svg>
