<?xml version="1.0" encoding="utf-8"?>
<!-- Generator: Adobe Illustrator 16.0.0, SVG Export Plug-In . SVG Version: 6.00 Build 0)  -->
<!DOCTYPE svg PUBLIC "-//W3C//DTD SVG 1.1//EN" "http://www.w3.org/Graphics/SVG/1.1/DTD/svg11.dtd">
<svg version="1.1" id="app-store-svg" xmlns="http://www.w3.org/2000/svg" xmlns:xlink="http://www.w3.org/1999/xlink" x="0px"
	 y="0px" width="144px" height="144px" viewBox="0 0 144 144" enable-background="new 0 0 144 144" xml:space="preserve">
<path fill-rule="evenodd" clip-rule="evenodd" fill="#26C19D" d="M71.944,137.113c-35.91-0.117-65.069-29.303-65.058-65.119
	C6.897,36.1,36.405,6.662,72.145,6.888c35.972,0.227,65.165,29.531,64.968,65.211C136.913,108.072,107.688,137.229,71.944,137.113z"
	/>
<path fill-rule="evenodd" clip-rule="evenodd" fill="#FEFEFE" d="M66.398,37.143c-0.051-2.089,2.168-4.225,4.897-4.93
	c1.765-0.456,3.032,0.233,3.94,1.802c7.045,12.161,14.102,24.315,21.185,36.454c0.471,0.807,0.529,1.255-0.384,1.751
	c-2.048,1.114-4.064,2.288-6.05,3.51c-0.846,0.521-1.246,0.385-1.744-0.477c-7.065-12.221-14.171-24.419-21.25-36.632
	C66.683,38.088,66.525,37.466,66.398,37.143z"/>
<path fill-rule="evenodd" clip-rule="evenodd" fill="#FEFEFE" d="M46.968,90.195c-0.225-0.119-0.504-0.26-0.775-0.416
	c-2.069-1.207-4.121-2.445-6.215-3.607c-0.832-0.463-1.008-0.852-0.484-1.74c6.104-10.377,12.17-20.776,18.232-31.177
	c0.435-0.747,0.777-1.17,1.729-0.567c2.075,1.313,4.218,2.525,6.364,3.722c0.764,0.426,0.932,0.79,0.456,1.6
	c-6.13,10.434-12.226,20.889-18.339,31.334C47.727,89.701,47.599,90.189,46.968,90.195z"/>
<path fill-rule="evenodd" clip-rule="evenodd" fill="#FEFEFE" d="M56.775,76.527c1.647-2.973,3.161-5.654,4.618-8.366
	c0.391-0.728,0.926-0.912,1.688-0.91c5.869,0.017,11.738,0.007,17.606,0.011c0.561,0,1.159-0.081,1.504,0.54
	c1.579,2.846,3.16,5.69,4.847,8.726C76.845,76.527,66.962,76.527,56.775,76.527z"/>
<path fill-rule="evenodd" clip-rule="evenodd" fill="#FEFEFE" d="M108.96,95.146c0.023,2.369-0.363,4.646-1.515,6.742
	c-0.23,0.42-0.407,1.043-1.001,1.006c-0.619-0.037-0.646-0.631-0.763-1.131c-0.574-2.445-2.214-4.016-4.314-5.223
	c-2.484-1.428-4.37-3.385-5.248-6.186c-0.781-2.49-0.392-3.502,1.853-4.84c0.595-0.354,1.194-0.701,1.793-1.049
	c3.041-1.771,4.18-1.537,6.361,1.277C108.278,88.518,108.916,91.742,108.96,95.146z"/>
<path fill-rule="evenodd" clip-rule="evenodd" fill="#FDFEFE" d="M48.15,67.272c-1.843,3.121-3.481,5.869-5.085,8.634
	c-0.337,0.58-0.792,0.713-1.4,0.711c-3.209-0.014-6.418-0.033-9.625,0.008c-0.986,0.014-1.319-0.344-1.297-1.318
	c0.053-2.264,0.026-4.529,0.011-6.794c-0.005-0.696,0.067-1.248,0.972-1.246C37.058,67.277,42.392,67.272,48.15,67.272z"/>
<path fill-rule="evenodd" clip-rule="evenodd" fill="#FDFEFE" d="M104.92,67.259c2.269,0,4.538,0.042,6.805-0.018
	c1.075-0.028,1.438,0.365,1.41,1.424c-0.059,2.141-0.062,4.286,0.001,6.426c0.032,1.102-0.264,1.574-1.472,1.545
	c-3.022-0.076-6.049-0.057-9.073-0.008c-0.886,0.016-1.362-0.32-1.759-1.078c-1.196-2.285-2.404-4.569-3.715-6.79
	c-0.813-1.377-0.262-1.547,0.997-1.517C100.382,67.297,102.651,67.259,104.92,67.259z"/>
<path fill-rule="evenodd" clip-rule="evenodd" fill="#FEFEFE" d="M102.394,80.939c-0.063,0.566-0.548,0.686-0.905,0.896
	c-2.002,1.182-4.035,2.311-6.017,3.525c-0.772,0.473-1.161,0.379-1.605-0.428c-1.15-2.092-2.378-4.141-3.605-6.188
	c-0.38-0.635-0.472-1.045,0.318-1.479c2.201-1.211,4.362-2.494,6.526-3.773c0.524-0.311,0.874-0.332,1.214,0.264
	c1.275,2.238,2.585,4.457,3.877,6.686C102.288,80.602,102.334,80.787,102.394,80.939z"/>
<path fill-rule="evenodd" clip-rule="evenodd" fill="#FEFEFE" d="M33.858,102.521c1.34-5.1,2.569-9.779,3.8-14.457
	c0.17-0.646,0.507-0.754,1.09-0.406c2.267,1.354,4.544,2.689,6.831,4.008c0.637,0.367,0.564,0.68,0.096,1.133
	c-3.439,3.32-6.867,6.652-10.297,9.982c-0.332,0.32-0.695,0.58-1.17,0.318C33.782,102.865,33.871,102.48,33.858,102.521z"/>
<path fill-rule="evenodd" clip-rule="evenodd" fill="#FEFEFE" d="M65.229,44.685c1.582,0.521,3.514,1.421,4.918,3.098
	c0.783,0.935,0.664,2.121,0.169,3.231c-2.337,5.256-2.347,5.274-7.305,2.36c-1.294-0.761-3.4-1.22-3.613-2.441
	c-0.2-1.152,1.276-2.588,1.992-3.911C62.114,45.683,62.995,44.586,65.229,44.685z"/>
</svg>
