<?xml version="1.0" encoding="utf-8"?>
<!-- Generator: Adobe Illustrator 16.0.0, SVG Export Plug-In . SVG Version: 6.00 Build 0)  -->
<!DOCTYPE svg PUBLIC "-//W3C//DTD SVG 1.1//EN" "http://www.w3.org/Graphics/SVG/1.1/DTD/svg11.dtd">
<svg version="1.1" id="Layer_1" xmlns="http://www.w3.org/2000/svg" xmlns:xlink="http://www.w3.org/1999/xlink" x="0px" y="0px"
	 width="144px" height="72px" viewBox="0 0 144 72" enable-background="new 0 0 144 72" xml:space="preserve">
<g>
	<path fill-rule="evenodd" clip-rule="evenodd" d="M36.097,13.677c4.887-0.002,9.774-0.005,14.661-0.006c27.72,0,55.437,0,83.155,0
		c2.932,0,4.826,1.831,4.828,4.756c0.014,11.754,0.016,23.507,0,35.262c-0.004,2.83-1.922,4.698-4.734,4.698
		c-41.326,0-82.653,0-123.98,0c-2.437,0-4.26-1.519-4.629-3.847c-0.122-1.415-0.037-2.832-0.049-4.248
		c-0.012-1.566-0.023-3.135,0.01-4.7c0.052-0.395,0.299-0.673,0.572-0.936c2.271-2.175,4.331-4.555,6.582-6.749
		c0.73-0.712,1.336-1.552,2.109-2.224c0.213-0.185,0.483-0.574,0.737-0.011c0.089,0.372,0.064,0.749,0.064,1.124
		c0.003,3.582,0.001,7.165,0.002,10.747c0,0.451-0.005,0.902,0.128,1.341c0.322,1.066,1.144,1.771,2.251,1.783
		c3.683,0.038,7.364,0.048,11.047-0.004c1.378-0.02,2.341-1.046,2.343-2.43c0.016-8.142,0.011-16.283,0.005-24.425
		c-0.001-1.33-0.8-2.038-1.945-2.464c-0.32-0.145-0.376-0.369-0.191-0.663c0.067-0.106,0.147-0.202,0.238-0.289
		c2.116-2.016,4.022-4.236,6.116-6.274C35.616,13.926,35.815,13.739,36.097,13.677z"/>
	<path fill-rule="evenodd" clip-rule="evenodd" fill="#FE007E" d="M15.179,35.429c-1.896,1.948-3.795,3.893-5.688,5.844
		c-1.339,1.379-2.67,2.765-4.005,4.148C5.241,45.196,5.351,44.9,5.35,44.639c-0.007-3.91-0.005-7.819-0.005-11.729
		c0-1.205,0-2.41,0-3.614c0-0.667,0-1.335,0-2.002c-0.031-2.153,0.064-4.307-0.053-6.459c0-0.249,0-0.498,0-0.748
		c0.16-0.865-0.062-1.747,0.117-2.611c0.161-2.077,1.966-3.753,4.154-3.844c0.473-0.02,0.947,0.009,1.422,0.015
		c0.914,0.116,1.832,0.022,2.75,0.053c1.191,0,2.384,0,3.576,0c2.043,0,4.086,0,6.129,0c1.252,0,2.504,0,3.756,0
		c1.609-0.035,3.221,0.069,4.828-0.053c1.358-0.004,2.717-0.091,4.072,0.032c-2.373,2.479-4.746,4.958-7.121,7.437
		c0.023,0.292-0.198,0.446-0.369,0.618c-1.401,1.422-2.852,2.797-4.151,4.317c-2.679,2.676-5.329,5.379-7.843,8.212
		C16.083,34.586,15.788,35.201,15.179,35.429z"/>
	<path fill-rule="evenodd" clip-rule="evenodd" fill="#807178" d="M5.392,32.873c0.01,3.884,0.019,7.768,0.032,11.652
		c0.001,0.298,0.042,0.596,0.063,0.895c-0.152,0.968-0.055,1.94-0.065,2.911c-0.022,2.07-0.019,4.14-0.024,6.21
		c-0.162-0.22-0.127-0.479-0.127-0.725c-0.004-6.906-0.002-13.814,0-20.721c0-0.075,0.014-0.15,0.021-0.224
		C5.325,32.873,5.358,32.873,5.392,32.873z"/>
	<path fill-rule="evenodd" clip-rule="evenodd" fill="#9B5879" d="M5.292,20.834c0.22,0.527,0.103,1.081,0.108,1.62
		c0.017,1.619,0,3.237-0.003,4.855c-0.035-0.001-0.07-0.002-0.105-0.003C5.292,25.148,5.292,22.992,5.292,20.834z"/>
	<path fill-rule="evenodd" clip-rule="evenodd" fill="#666666" d="M23.458,13.747c-2.051,0-4.104,0.002-6.154,0.003
		c-0.052-0.02-0.069-0.042-0.055-0.066c0.016-0.025,0.031-0.039,0.047-0.039c2.056,0,4.111,0,6.166,0.001
		C23.461,13.68,23.46,13.713,23.458,13.747z"/>
	<path fill-rule="evenodd" clip-rule="evenodd" fill="#A33D70" d="M32.024,13.646c-0.923,0.242-1.865,0.071-2.799,0.118
		c-0.667,0.034-1.338-0.004-2.008-0.011c-0.046-0.028-0.061-0.053-0.042-0.075c0.017-0.021,0.033-0.032,0.051-0.032
		C28.826,13.646,30.426,13.646,32.024,13.646z"/>
	<path fill-rule="evenodd" clip-rule="evenodd" fill="#84526B" d="M27.227,13.646c-0.002,0.036-0.005,0.071-0.009,0.107
		c-1.254-0.002-2.506-0.004-3.76-0.006c0.002-0.034,0.004-0.067,0.004-0.101C24.717,13.646,25.972,13.646,27.227,13.646z"/>
	<path fill-rule="evenodd" clip-rule="evenodd" fill="#876A79" d="M5.392,32.873c-0.033,0-0.066-0.001-0.1-0.001
		c0-1.203,0-2.407,0-3.61c0.035,0,0.068,0.001,0.104,0.001C5.395,30.467,5.394,31.67,5.392,32.873z"/>
	<path fill-rule="evenodd" clip-rule="evenodd" fill="#84526B" d="M17.296,13.646c0.002,0.036,0.004,0.07,0.008,0.105
		c-1.203,0-2.405,0-3.607,0c-0.053-0.02-0.071-0.042-0.056-0.066c0.016-0.025,0.032-0.038,0.049-0.038
		C14.892,13.646,16.094,13.646,17.296,13.646z"/>
	<path fill-rule="evenodd" clip-rule="evenodd" fill="#A23D70" d="M13.689,13.646c0.001,0.035,0.003,0.069,0.007,0.104
		c-0.904-0.009-1.815,0.133-2.711-0.104C11.887,13.646,12.788,13.646,13.689,13.646z"/>
	<path fill-rule="evenodd" clip-rule="evenodd" fill="#965E7A" d="M5.409,17.475c-0.025,0.871,0.104,1.749-0.117,2.612
		C5.304,19.215,5.128,18.335,5.409,17.475z"/>
	<path fill-rule="evenodd" clip-rule="evenodd" fill="#8F6379" d="M5.396,29.263c-0.035,0-0.068-0.001-0.104-0.001
		c0-0.652,0-1.304,0-1.956c0.035,0,0.07,0.001,0.105,0.003C5.396,27.96,5.396,28.612,5.396,29.263z"/>
	<path fill-rule="evenodd" clip-rule="evenodd" fill="#FEFEFE" d="M24.284,25.971c1.514-1.668,3.074-3.29,4.691-4.857
		c1.625,0.229,2.474,1.194,2.475,2.839c0.002,8.045,0.003,16.09,0,24.136c-0.002,1.754-1.049,2.821-2.791,2.826
		c-3.559,0.01-7.117,0.012-10.678,0c-1.689-0.006-2.77-1.092-2.775-2.78c-0.017-4.235-0.02-8.471-0.027-12.706
		c0.4-0.474,0.782-0.964,1.315-1.303c0.39,0.324,0.286,0.778,0.288,1.188c0.012,2.982,0.006,5.964,0.007,8.947
		c0,0.25,0.007,0.501,0.006,0.751c-0.004,0.458,0.188,0.709,0.67,0.696c0.149-0.005,0.3,0.005,0.451,0.005
		c3.659,0,7.317,0.003,10.977-0.001c1.06-0.001,1.095-0.035,1.095-1.1c0.004-5.738,0.004-11.478,0-17.216
		c0-1.155-0.043-1.193-1.168-1.198c-1.178-0.005-2.355,0.005-3.533-0.005C24.94,26.188,24.577,26.231,24.284,25.971z"/>
	<path fill-rule="evenodd" clip-rule="evenodd" fill="#FEFEFE" d="M68.577,47.636c0,1.914-0.018,3.616,0.012,5.317
		c0.008,0.485-0.112,0.636-0.617,0.636c-1.932,0-1.926,0.02-1.932-1.872c-0.014-4.535-0.025-9.071-0.055-13.607
		c-0.002-0.373,0.055-0.521,0.477-0.537c1.635-0.063,1.634-0.079,1.902,1.764c0.662-0.871,1.424-1.525,2.447-1.795
		c2.332-0.611,4.486,0.359,5.457,2.576c0.953,2.179,0.906,4.401-0.182,6.524c-1.051,2.047-3.241,2.984-5.459,2.446
		C69.829,48.895,69.186,48.449,68.577,47.636z"/>
	<path fill-rule="evenodd" clip-rule="evenodd" fill="#FEFEFE" d="M56.095,47.747c0,1.813-0.021,3.518,0.013,5.22
		c0.011,0.51-0.151,0.619-0.632,0.62c-1.91,0.002-1.905,0.018-1.911-1.893c-0.014-4.51-0.024-9.02-0.063-13.528
		c-0.004-0.468,0.104-0.654,0.571-0.584c0.529,0.081,1.221-0.262,1.555,0.174c0.269,0.35,0.163,0.986,0.238,1.622
		c0.924-1.298,2.098-1.948,3.592-1.997c2-0.064,3.449,0.86,4.27,2.615c1.018,2.178,0.986,4.433-0.1,6.591
		c-1.046,2.073-3.169,3.012-5.425,2.517C57.476,48.943,57.019,48.656,56.095,47.747z"/>
	<path fill-rule="evenodd" clip-rule="evenodd" fill="#FEFEFE" d="M52.021,48.952c-0.908,0-1.869,0.264-2.522-0.072
		c-0.675-0.348-0.59-1.449-0.888-2.202c-0.303-0.761-0.252-1.85-0.863-2.244c-0.57-0.368-1.549-0.105-2.349-0.113
		c-0.702-0.005-1.406,0.035-2.104-0.014c-0.447-0.031-0.609,0.149-0.721,0.54c-0.35,1.225-0.732,2.439-1.088,3.663
		c-0.096,0.328-0.234,0.503-0.615,0.46c-0.685-0.076-1.637,0.297-1.984-0.152c-0.294-0.381,0.287-1.229,0.492-1.868
		c1.404-4.376,2.824-8.746,4.213-13.126c0.152-0.482,0.337-0.7,0.867-0.642c0.813,0.088,1.832-0.319,2.395,0.156
		c0.523,0.442,0.582,1.441,0.828,2.2C49.12,39.977,50.555,44.419,52.021,48.952z"/>
	<path fill-rule="evenodd" clip-rule="evenodd" fill="#FEFEFE" d="M81.989,46.116c1.338,0.747,2.727,1.061,4.207,0.925
		c1.27-0.116,2.162-0.77,2.375-1.727c0.26-1.164-0.199-2.128-1.408-2.782c-0.678-0.366-1.416-0.622-2.115-0.948
		c-1.414-0.658-2.703-1.479-3.207-3.064c-0.695-2.19,0.512-4.388,2.891-5.179c1.789-0.595,3.596-0.462,5.371,0.162
		c0.367,0.129,0.516,0.295,0.33,0.712c-0.203,0.452-0.182,1.097-0.504,1.379c-0.326,0.286-0.82-0.236-1.266-0.328
		c-0.742-0.154-1.482-0.229-2.236-0.164c-1.131,0.1-1.955,0.688-2.176,1.544c-0.242,0.943,0.184,1.771,1.229,2.416
		c0.791,0.487,1.676,0.77,2.504,1.178c1.324,0.656,2.535,1.447,2.992,2.97c0.695,2.315-0.359,4.597-2.613,5.453
		c-2.168,0.823-4.354,0.715-6.494-0.198c-0.35-0.149-0.496-0.334-0.354-0.733C81.698,47.217,81.825,46.683,81.989,46.116z"/>
	<path fill-rule="evenodd" clip-rule="evenodd" fill="#FEFEFE" d="M99.405,43.261c0.027-4.091,3.143-6.599,7.109-5.726
		c2.117,0.466,3.547,2.154,3.949,4.66c0.443,2.756-0.779,5.466-3.027,6.465C103.601,50.367,99.335,48.209,99.405,43.261z"/>
	<path fill-rule="evenodd" clip-rule="evenodd" fill="#FEFEFE" d="M125.118,43.869c-1.053,0-2.107,0.035-3.156-0.015
		c-0.605-0.029-0.652,0.221-0.561,0.702c0.275,1.449,1.246,2.4,2.715,2.622c1.16,0.175,2.301,0.051,3.404-0.321
		c0.398-0.135,0.504-0.013,0.594,0.338c0.352,1.362,0.361,1.365-1.035,1.701c-1.207,0.289-2.436,0.346-3.656,0.189
		c-2.252-0.289-3.859-1.826-4.334-4.081c-0.273-1.298-0.225-2.589,0.17-3.856c0.82-2.653,3.053-4.085,5.826-3.752
		c2.23,0.268,3.762,2.166,3.93,4.873c0.1,1.6,0.1,1.6-1.492,1.6C126.722,43.869,125.919,43.869,125.118,43.869z"/>
	<path fill-rule="evenodd" clip-rule="evenodd" fill="#FEFEFE" d="M93.405,43.062c0-1.152-0.023-2.104,0.012-3.056
		c0.016-0.441-0.139-0.529-0.549-0.527c-1.123,0.004-1.086-0.018-1.137-1.125c-0.029-0.617,0.135-0.893,0.771-0.77
		c0.754,0.146,0.971-0.15,0.922-0.908c-0.072-1.156-0.02-1.16,1.074-1.493c1.387-0.423,1.387-0.423,1.387,0.983
		c0,1.417,0,1.417,1.461,1.417c1.369,0,1.57,0.267,1.328,1.636c-0.055,0.313-0.225,0.268-0.416,0.269
		c-0.652,0.003-1.303,0.016-1.953-0.005c-0.322-0.01-0.43,0.09-0.426,0.42c0.018,1.777-0.025,3.556,0.029,5.332
		c0.045,1.543,0.59,1.987,2.141,1.826c0.395-0.041,0.443,0.058,0.463,0.409c0.082,1.58,0.094,1.579-1.482,1.689
		c-2.104,0.148-3.203-0.713-3.535-2.775C93.306,45.214,93.46,44.034,93.405,43.062z"/>
	<path fill-rule="evenodd" clip-rule="evenodd" fill="#FEFEFE" d="M114.466,39.467c0.135-0.206,0.275-0.412,0.408-0.619
		c0.381-0.582,0.887-1.018,1.533-1.274c1.33-0.528,1.705-0.276,1.705,1.118c0,0.075-0.012,0.152,0.002,0.225
		c0.139,0.713-0.121,0.91-0.857,0.878c-1.281-0.055-2.211,0.792-2.496,2.14c-0.092,0.437-0.125,0.894-0.129,1.341
		c-0.018,1.251-0.002,2.502-0.01,3.754c-0.004,0.62,0.211,1.461-0.105,1.805c-0.373,0.406-1.227,0.072-1.867,0.135
		c-0.426,0.042-0.57-0.104-0.547-0.536c0.033-0.624,0.012-1.251,0.008-1.877c-0.018-2.778-0.02-5.557-0.07-8.334
		c-0.008-0.548,0.156-0.657,0.666-0.65c1.543,0.021,1.543,0,1.6,1.57c0.004,0.092,0,0.184,0,0.274
		C114.36,39.432,114.411,39.449,114.466,39.467z"/>
	<path fill-rule="evenodd" clip-rule="evenodd" fill="#FEFEFE" d="M75.034,28.721c0.049,0.646-0.053,0.968-0.67,0.909
		c-0.387-0.038-0.496-0.125-0.488-0.522c0.035-2.453,0.055-4.906,0.041-7.358c-0.004-0.514,0.115-0.681,0.654-0.681
		c0.523,0,0.684,0.135,0.656,0.664c-0.047,0.873-0.014,1.75-0.014,2.717c0.551-0.399,1.039-0.841,1.727-0.781
		c0.297,0.026,0.609,0.009,0.887,0.098c1.275,0.409,1.916,1.943,1.584,3.726c-0.25,1.352-1.314,2.26-2.598,2.241
		C76.108,29.724,75.589,29.386,75.034,28.721z"/>
	<path fill-rule="evenodd" clip-rule="evenodd" fill="#FEFEFE" d="M45.579,29.522c-1.307,0.239-1.307,0.239-1.666-0.901
		c-0.445-1.415-0.449-1.353-1.945-1.438c-0.877-0.05-1.357,0.192-1.453,1.08c-0.011,0.099-0.046,0.194-0.074,0.29
		c-0.343,1.156-0.343,1.156-1.646,0.991c0.722-2.259,1.44-4.507,2.159-6.755c0.039-0.119,0.078-0.236,0.116-0.355
		c0.298-0.934,0.737-1.166,1.697-0.947c0.228,0.051,0.274,0.196,0.325,0.352C43.924,24.396,44.75,26.957,45.579,29.522z"/>
	<path fill-rule="evenodd" clip-rule="evenodd" fill="#FDFDFD" d="M118.356,24.546c0.783-0.872,1.613-1.104,2.539-0.728
		c0.939,0.381,1.197,1.222,1.219,2.146c0.025,1.051-0.018,2.105,0.023,3.156c0.02,0.486-0.205,0.54-0.576,0.493
		c-0.328-0.042-0.787,0.187-0.764-0.484c0.035-1.001,0.023-2.004-0.002-3.006c-0.023-0.987-0.4-1.407-1.182-1.393
		c-0.793,0.014-1.246,0.523-1.254,1.447c-0.012,0.977-0.039,1.956,0.01,2.931c0.029,0.569-0.291,0.521-0.648,0.504
		c-0.324-0.015-0.701,0.129-0.693-0.475c0.025-2.53,0.023-5.061,0.002-7.592c-0.006-0.615,0.398-0.438,0.711-0.452
		c0.309-0.014,0.652-0.111,0.627,0.443C118.327,22.483,118.356,23.433,118.356,24.546z"/>
	<path fill-rule="evenodd" clip-rule="evenodd" fill="#FEFEFE" d="M100.036,26.657c-0.006,1.869-1.162,3.085-2.926,3.073
		c-1.666-0.011-2.814-1.264-2.791-3.043c0.023-1.803,1.203-3.034,2.91-3.037C98.923,23.648,100.04,24.844,100.036,26.657z"/>
	<path fill-rule="evenodd" clip-rule="evenodd" fill="#FDFDFD" d="M56.557,28.887c-0.579,0.622-1.154,0.866-1.839,0.845
		c-0.777-0.024-1.346-0.359-1.627-1.099c-0.281-0.737-0.065-1.544,0.532-2.044c0.669-0.56,1.481-0.702,2.313-0.733
		c0.494-0.019,0.531-0.228,0.377-0.615c-0.27-0.676-1.065-0.879-2.17-0.466c-0.402,0.15-0.553,0.133-0.672-0.307
		c-0.086-0.322,0.052-0.396,0.275-0.491c0.861-0.364,1.744-0.432,2.638-0.163c0.687,0.208,1.091,0.712,1.211,1.401
		c0.238,1.366,0.021,2.754,0.153,4.127c0.032,0.332-0.215,0.268-0.4,0.268C56.943,29.61,56.438,29.753,56.557,28.887z"/>
	<path fill-rule="evenodd" clip-rule="evenodd" fill="#FDFDFD" d="M87.421,27.006c-0.5,0-1.002,0.022-1.5-0.007
		c-0.377-0.021-0.418,0.157-0.348,0.449c0.174,0.709,0.629,1.125,1.342,1.229c0.521,0.075,1.051,0.05,1.559-0.103
		c0.273-0.082,0.492-0.124,0.547,0.251c0.045,0.294,0.154,0.582-0.293,0.688c-0.963,0.23-1.924,0.345-2.867-0.054
		c-1.348-0.57-1.941-2.177-1.436-3.836c0.439-1.438,1.738-2.218,3.201-1.919c1.188,0.243,2.174,1.908,1.832,3.053
		c-0.084,0.282-0.268,0.247-0.461,0.248C88.472,27.008,87.946,27.006,87.421,27.006z"/>
	<path fill-rule="evenodd" clip-rule="evenodd" fill="#FEFEFE" d="M126.608,29.713c-1.467-0.015-2.438-0.636-2.832-1.764
		c-0.469-1.345-0.059-2.994,0.938-3.77c0.807-0.627,2.121-0.705,2.955-0.173c0.775,0.494,1.264,1.758,1.102,2.709
		c-0.061,0.354-0.27,0.289-0.48,0.29c-1,0.003-2.002,0.018-3-0.006c-0.439-0.01-0.498,0.125-0.371,0.52
		c0.215,0.666,0.641,1.057,1.322,1.159c0.498,0.074,1.002,0.046,1.486-0.082c0.316-0.083,0.518-0.176,0.643,0.284
		c0.125,0.463-0.07,0.585-0.426,0.66C127.481,29.638,127.019,29.756,126.608,29.713z"/>
	<path fill-rule="evenodd" clip-rule="evenodd" fill="#FEFEFE" d="M70.4,28.982c-0.509,0.514-1.056,0.756-1.711,0.75
		c-0.778-0.007-1.351-0.329-1.657-1.057c-0.298-0.706-0.098-1.539,0.479-2.056c0.611-0.549,1.379-0.66,2.15-0.771
		c0.22-0.031,0.572,0.135,0.622-0.211c0.05-0.354-0.09-0.703-0.444-0.885c-0.578-0.299-1.166-0.182-1.749,0
		c-0.254,0.08-0.503,0.356-0.666-0.162c-0.147-0.466,0.103-0.585,0.421-0.7c0.725-0.261,1.476-0.305,2.221-0.159
		c0.879,0.172,1.457,0.849,1.508,1.822c0.068,1.249,0.055,2.502,0.09,3.754c0.006,0.187-0.039,0.322-0.219,0.293
		c-0.312-0.05-0.701,0.207-0.925-0.205C70.465,29.295,70.453,29.171,70.4,28.982z"/>
	<path fill-rule="evenodd" clip-rule="evenodd" fill="#FDFDFD" d="M102.968,24.595c0.754-0.88,1.615-1.146,2.572-0.801
		c1.014,0.364,1.291,1.252,1.309,2.238c0.018,1.026-0.016,2.053,0.027,3.078c0.023,0.57-0.311,0.511-0.668,0.505
		c-0.34-0.007-0.689,0.094-0.66-0.491c0.049-0.949,0.023-1.902,0.01-2.853c-0.016-1.048-0.375-1.523-1.129-1.541
		c-0.818-0.02-1.328,0.533-1.359,1.537c-0.027,0.925-0.047,1.854,0.008,2.777c0.033,0.571-0.244,0.565-0.664,0.582
		c-0.471,0.019-0.641-0.095-0.633-0.608c0.029-1.551-0.006-3.103-0.01-4.655c-0.002-0.269-0.176-0.648,0.359-0.618
		c0.373,0.021,0.863-0.143,0.771,0.542C102.894,24.349,102.927,24.417,102.968,24.595z"/>
	<path fill-rule="evenodd" clip-rule="evenodd" fill="#FDFDFD" d="M46.304,23.773c1.361-0.058,1.365-0.059,1.744,1.111
		c0.353,1.091,0.697,2.184,1.072,3.362c0.377-1.174,0.732-2.279,1.085-3.385c0.378-1.182,0.376-1.183,1.689-1.063
		c-0.702,1.854-1.404,3.687-2.089,5.527c-0.172,0.462-0.538,0.243-0.826,0.28c-0.268,0.034-0.542,0.057-0.67-0.302
		C47.656,27.479,46.989,25.658,46.304,23.773z"/>
	<path fill-rule="evenodd" clip-rule="evenodd" fill="#FDFDFD" d="M112.501,26.583c0-0.375-0.008-0.75,0.002-1.124
		c0.01-0.401,0.084-0.821-0.566-0.716c-0.357,0.057-0.307-0.238-0.301-0.454c0.008-0.232-0.082-0.583,0.316-0.53
		c0.594,0.078,0.561-0.27,0.553-0.667c-0.004-0.333,0.871-0.874,1.158-0.71c0.24,0.136,0.137,0.414,0.109,0.608
		c-0.09,0.637,0.16,0.849,0.779,0.765c0.332-0.044,0.693-0.106,0.674,0.48c-0.014,0.435-0.145,0.594-0.549,0.513
		c-0.781-0.156-0.977,0.188-0.906,0.918c0.068,0.718,0.016,1.448,0.043,2.172c0.018,0.521,0.271,0.87,0.844,0.813
		c0.365-0.037,0.469,0.096,0.492,0.443c0.025,0.37-0.08,0.545-0.457,0.61c-1.291,0.222-2.09-0.381-2.178-1.698
		c-0.033-0.472-0.006-0.949-0.006-1.424C112.505,26.583,112.503,26.583,112.501,26.583z"/>
	<path fill-rule="evenodd" clip-rule="evenodd" fill="#FBFBFB" d="M63.641,25.276c0-1.201,0.034-2.405-0.015-3.604
		c-0.023-0.562,0.229-0.608,0.663-0.589c0.382,0.018,0.702-0.067,0.691,0.552c-0.042,2.478-0.042,4.958,0,7.436
		c0.011,0.62-0.312,0.532-0.692,0.55c-0.436,0.021-0.684-0.029-0.662-0.589C63.674,27.781,63.641,26.528,63.641,25.276z"/>
	<path fill-rule="evenodd" clip-rule="evenodd" fill="#FBFBFB" d="M82.546,25.403c0,1.227-0.037,2.455,0.014,3.68
		c0.029,0.637-0.348,0.517-0.713,0.534c-0.381,0.018-0.645,0.022-0.637-0.524c0.031-2.503,0.031-5.008,0-7.511
		c-0.008-0.579,0.322-0.497,0.664-0.493c0.334,0.004,0.701-0.111,0.684,0.483C82.519,22.849,82.546,24.126,82.546,25.403z"/>
	<path fill-rule="evenodd" clip-rule="evenodd" fill="#FAFAFA" d="M60.003,26.664c0-0.825,0.025-1.652-0.009-2.476
		c-0.019-0.468,0.242-0.484,0.562-0.438c0.292,0.044,0.76-0.22,0.758,0.404c-0.005,1.675-0.008,3.351,0.002,5.026
		c0.004,0.684-0.502,0.369-0.808,0.428c-0.358,0.069-0.534-0.044-0.515-0.47C60.03,28.315,60.003,27.489,60.003,26.664z"/>
	<path fill-rule="evenodd" clip-rule="evenodd" fill="#FBFBFB" d="M60.589,22.8c-0.441-0.057-0.729-0.302-0.721-0.77
		c0.008-0.508,0.318-0.764,0.817-0.751c0.474,0.012,0.743,0.295,0.739,0.754C61.42,22.539,61.1,22.778,60.589,22.8z"/>
	<path fill-rule="evenodd" clip-rule="evenodd" d="M24.284,25.971c1.752,0.011,3.504,0.041,5.256,0.02
		c0.52-0.006,0.674,0.13,0.672,0.664c-0.018,6.234-0.017,12.468-0.001,18.703c0.001,0.483-0.115,0.631-0.618,0.628
		c-4.156-0.021-8.313-0.022-12.468,0.002c-0.544,0.003-0.646-0.163-0.644-0.67c0.022-3.73,0.013-7.461,0.013-11.191
		c0.032-0.068,0.05-0.149,0.099-0.2C19.155,31.272,21.72,28.622,24.284,25.971z"/>
	<path fill-rule="evenodd" clip-rule="evenodd" fill="#FEFCFD" d="M14.438,24.451c-0.198-0.503-0.304-0.898-0.502-1.241
		c-0.268-0.463-0.049-0.734,0.264-1.029c0.197-0.188,0.33-0.238,0.549-0.012c0.574,0.592,1.172,1.163,1.769,1.733
		c0.202,0.193,0.312,0.341,0.07,0.609c-0.243,0.27-0.388,0.188-0.597-0.021c-0.344-0.343-0.71-0.664-1.215-0.899
		c0.133,0.331,0.285,0.656,0.394,0.995c0.155,0.488-0.078,0.725-0.569,0.591c-0.191-0.053-0.369-0.151-0.559-0.216
		c-0.157-0.054-0.32-0.088-0.624-0.168c0.351,0.546,0.743,0.845,1.101,1.174c0.214,0.197,0.307,0.356,0.047,0.609
		c-0.239,0.234-0.383,0.211-0.605-0.019c-0.539-0.558-1.109-1.084-1.656-1.635c-0.155-0.157-0.48-0.317-0.161-0.591
		c0.239-0.205,0.363-0.641,0.844-0.424C13.414,24.099,13.866,24.239,14.438,24.451z"/>
	<path fill-rule="evenodd" clip-rule="evenodd" fill="#FEFBFD" d="M21.486,22.193c0.363,0.337,0.729,0.672,1.091,1.011
		c0.197,0.186,0.434,0.338,0.119,0.659c-0.285,0.289-0.439,0.168-0.658-0.057c-0.523-0.536-1.074-1.044-1.599-1.58
		c-0.135-0.138-0.459-0.26-0.233-0.529c0.192-0.229,0.35-0.568,0.779-0.433c0.605,0.192,1.221,0.353,1.884,0.542
		c-0.202-0.554-0.698-0.828-1.043-1.221c-0.155-0.177-0.312-0.293-0.058-0.529c0.211-0.194,0.345-0.313,0.6-0.046
		c0.536,0.559,1.109,1.08,1.654,1.63c0.149,0.151,0.523,0.256,0.251,0.573c-0.2,0.231-0.38,0.544-0.796,0.415
		c-0.634-0.196-1.273-0.369-1.91-0.552C21.54,22.115,21.513,22.154,21.486,22.193z"/>
	<path fill-rule="evenodd" clip-rule="evenodd" fill="#FEFDFD" d="M19.015,20.12c-0.293-0.586-0.709-0.876-1.055-1.217
		c-0.223-0.22-0.188-0.342,0.014-0.532c0.186-0.173,0.307-0.271,0.537-0.032c0.536,0.559,1.115,1.079,1.657,1.633
		c0.147,0.15,0.544,0.237,0.294,0.563c-0.203,0.264-0.414,0.583-0.861,0.433c-0.473-0.159-0.955-0.291-1.438-0.419
		c-0.104-0.028-0.226,0.005-0.37,0.012c0.377,0.391,0.709,0.756,1.063,1.098c0.199,0.193,0.236,0.326,0.015,0.543
		c-0.22,0.216-0.355,0.27-0.595,0.02c-0.536-0.56-1.113-1.081-1.651-1.639c-0.132-0.135-0.485-0.247-0.274-0.509
		c0.197-0.247,0.371-0.614,0.84-0.459C17.747,19.798,18.323,19.931,19.015,20.12z"/>
	<path fill-rule="evenodd" clip-rule="evenodd" fill="#FEFDFD" d="M11.479,29.261c-0.874,0-1.776-0.924-1.758-1.802
		c0.018-0.881,0.872-1.721,1.745-1.715c0.906,0.007,1.791,0.896,1.771,1.781C13.218,28.365,12.312,29.26,11.479,29.261z"/>
	<path fill-rule="evenodd" clip-rule="evenodd" fill="#FEFDFD" d="M16.866,25.744c0.904,0,1.797,0.883,1.785,1.767
		c-0.012,0.839-0.91,1.741-1.745,1.751c-0.872,0.009-1.782-0.909-1.771-1.789C15.146,26.592,15.993,25.745,16.866,25.744z"/>
	<path fill-rule="evenodd" clip-rule="evenodd" fill="#FEFDFD" d="M17.842,24.62c0.007-0.88,0.854-1.729,1.726-1.733
		c0.904-0.003,1.8,0.877,1.791,1.762c-0.008,0.838-0.904,1.743-1.74,1.756C18.747,26.417,17.834,25.5,17.842,24.62z"/>
	<path fill-rule="evenodd" clip-rule="evenodd" fill="#FEFCFD" d="M19.377,17.614c0.013-0.741,0.673-1.628,1.334-1.905
		c0.28-0.118,0.441-0.002,0.563,0.188c0.213,0.333-0.165,0.288-0.287,0.366c-1.01,0.651-1.11,1.505-0.229,2.062
		c0.519,0.327,0.946,0.179,1.325-0.243c0.123-0.138,0.225-0.278,0.037-0.445c-0.123-0.108-0.227-0.316-0.418-0.117
		c-0.192,0.203-0.33,0.139-0.489-0.038c-0.23-0.255,0.032-0.39,0.158-0.455c0.274-0.141,0.324-0.8,0.854-0.379
		c0.898,0.713,0.965,0.882,0.535,1.553c-0.857,1.34-2.17,1.482-3.065,0.337C19.47,18.248,19.35,17.934,19.377,17.614z"/>
	<path fill-rule="evenodd" clip-rule="evenodd" fill="#FEFBFD" d="M14.49,28.597c-0.287,0.262-0.685,0.358-0.896,0.688
		c-0.095,0.147-0.203,0.299-0.065,0.477c0.141,0.183,0.313,0.123,0.47,0.034c0.238-0.135,0.463-0.297,0.703-0.43
		c0.402-0.221,0.766-0.166,1.088,0.17c0.332,0.345,0.429,0.715,0.188,1.156c-0.211,0.387-0.535,0.651-0.879,0.908
		c-0.371,0.277-0.672,0.283-0.906-0.18c0.321-0.263,0.765-0.375,1.01-0.748c0.096-0.147,0.207-0.305,0.058-0.475
		c-0.142-0.161-0.315-0.12-0.478-0.029c-0.24,0.134-0.465,0.301-0.715,0.41c-0.372,0.161-0.734,0.129-1.043-0.168
		c-0.306-0.293-0.375-0.654-0.238-1.035c0.189-0.522,0.624-0.844,1.073-1.115C14.185,28.064,14.329,28.369,14.49,28.597z"/>
	<path fill-rule="evenodd" clip-rule="evenodd" fill="#FEFAFC" d="M9.277,28.418c-0.175,0.092-0.354,0.171-0.515,0.275
		c-0.391,0.252-0.613,0.605-0.486,1.079c0.125,0.471,0.461,0.775,0.927,0.889c0.485,0.118,0.775-0.183,1.062-0.534
		c0.119-0.146,0.008-0.624,0.412-0.417c0.407,0.208,0.238,0.529,0.048,0.821c-0.438,0.672-1.197,1.068-1.827,0.944
		c-0.644-0.127-1.313-0.79-1.418-1.404c-0.123-0.722,0.219-1.417,0.873-1.854C8.739,27.959,9.037,27.965,9.277,28.418z"/>
	<path fill-rule="evenodd" clip-rule="evenodd" fill="#FEFAFC" d="M17.909,23.052c-0.043,0.252-0.235,0.351-0.369,0.49
		c-0.193,0.199-0.303-0.001-0.418-0.113c-0.592-0.575-1.178-1.158-1.771-1.731c-0.199-0.191-0.334-0.339-0.049-0.59
		c0.217-0.191,0.348-0.302,0.604-0.041c0.594,0.608,1.221,1.185,1.832,1.776C17.806,22.909,17.86,22.991,17.909,23.052z"/>
	<path fill-rule="evenodd" clip-rule="evenodd" fill="#010101" d="M23.368,49.739c-0.896,0.015-1.576-0.646-1.579-1.533
		c-0.004-0.883,0.686-1.582,1.556-1.578c0.828,0.005,1.537,0.692,1.563,1.516C24.937,49.004,24.239,49.726,23.368,49.739z"/>
	<path fill-rule="evenodd" clip-rule="evenodd" d="M74.313,43.245c0.018,0.837-0.1,1.569-0.422,2.264
		c-0.632,1.358-1.799,1.949-3.248,1.643c-1.149-0.243-2.033-1.37-2.051-2.714c-0.014-0.97-0.135-1.949,0.135-2.908
		c0.344-1.229,1.313-2.066,2.497-2.147c1.149-0.079,2.206,0.595,2.71,1.747C74.241,41.827,74.354,42.563,74.313,43.245z"/>
	<path fill-rule="evenodd" clip-rule="evenodd" d="M56.103,43.392c-0.005-0.647-0.043-1.297,0.146-1.933
		c0.348-1.16,1.33-1.992,2.482-2.077c1.137-0.084,2.184,0.54,2.67,1.679c0.639,1.496,0.625,3.021-0.037,4.506
		c-0.59,1.325-1.781,1.885-3.202,1.587c-1.129-0.237-1.992-1.335-2.058-2.637C56.087,44.143,56.103,43.768,56.103,43.392z"/>
	<path fill-rule="evenodd" clip-rule="evenodd" d="M45.269,35.557c0.61,2.298,1.428,4.51,2.131,6.84
		c-1.311,0-2.556-0.014-3.801,0.006c-0.442,0.007-0.348-0.229-0.269-0.473C44.011,39.824,44.707,37.725,45.269,35.557z"/>
	<path fill-rule="evenodd" clip-rule="evenodd" d="M101.968,43.277c-0.02-1.025,0.215-1.985,0.777-2.85
		c1.043-1.608,3.256-1.637,4.352-0.061c1.109,1.601,1.066,4.328-0.092,5.881c-1.115,1.492-3.223,1.432-4.258-0.122
		C102.222,45.337,101.966,44.406,101.968,43.277z"/>
	<path fill-rule="evenodd" clip-rule="evenodd" fill="#010101" d="M123.935,42.063c-0.725,0-1.447,0.003-2.172-0.002
		c-0.186-0.001-0.428,0.063-0.373-0.28c0.221-1.406,1.363-2.934,3.111-2.652c1.215,0.195,2.168,1.396,2.121,2.616
		c-0.014,0.371-0.227,0.316-0.443,0.317C125.431,42.066,124.683,42.063,123.935,42.063z"/>
	<path fill-rule="evenodd" clip-rule="evenodd" fill="#010101" d="M75.224,26.675c-0.004-0.348-0.033-0.696,0.107-1.032
		c0.23-0.555,0.621-0.892,1.229-0.944c0.615-0.053,1.07,0.215,1.34,0.758c0.414,0.837,0.398,1.693-0.029,2.517
		c-0.314,0.606-0.867,0.808-1.52,0.689c-0.676-0.122-1.004-0.605-1.119-1.241C75.187,27.181,75.224,26.925,75.224,26.675z"/>
	<path fill-rule="evenodd" clip-rule="evenodd" fill="#040404" d="M41.112,26.183c0.31-1.083,0.615-2.156,0.926-3.229
		c0.012-0.04,0.066-0.068,0.135-0.133c0.343,1.113,0.678,2.206,1.034,3.362C42.502,26.183,41.847,26.183,41.112,26.183z"/>
	<path fill-rule="evenodd" clip-rule="evenodd" fill="#010101" d="M98.685,26.671c-0.002,1.245-0.65,2.122-1.547,2.093
		c-0.879-0.029-1.486-0.88-1.486-2.082c0.002-1.247,0.637-2.098,1.557-2.082C98.089,24.616,98.688,25.457,98.685,26.671z"/>
	<path fill-rule="evenodd" clip-rule="evenodd" fill="#030303" d="M56.417,27.296c-0.006,0.888-0.342,1.349-1.045,1.472
		c-0.369,0.065-0.71-0.007-0.932-0.336c-0.228-0.339-0.225-0.708-0.021-1.062c0.232-0.407,1.387-0.813,1.822-0.662
		C56.626,26.841,56.267,27.165,56.417,27.296z"/>
	<path fill-rule="evenodd" clip-rule="evenodd" fill="#040404" d="M86.868,26.085c-0.176,0-0.355,0.023-0.525-0.005
		c-0.256-0.043-0.617,0.17-0.744-0.122c-0.139-0.314,0.111-0.616,0.303-0.879c0.33-0.453,0.781-0.592,1.322-0.499
		c0.508,0.089,0.764,0.438,0.91,0.89c0.133,0.398,0.121,0.692-0.439,0.621C87.423,26.058,87.144,26.085,86.868,26.085z"/>
	<path fill-rule="evenodd" clip-rule="evenodd" fill="#050505" d="M124.862,26.086c0.244-1.153,0.754-1.613,1.584-1.525
		c0.377,0.041,0.662,0.213,0.85,0.536c0.152,0.26,0.332,0.559,0.211,0.842c-0.133,0.313-0.482,0.126-0.729,0.137
		C126.157,26.105,125.532,26.086,124.862,26.086z"/>
	<path fill-rule="evenodd" clip-rule="evenodd" fill="#030303" d="M70.361,27.251c0.03,0.774-0.242,1.251-0.903,1.467
		c-0.477,0.155-0.927,0.095-1.146-0.386c-0.229-0.496-0.134-0.98,0.363-1.305c0.295-0.194,0.641-0.256,0.984-0.305
		C70.143,26.653,70.556,26.665,70.361,27.251z"/>
	<path fill-rule="evenodd" clip-rule="evenodd" fill="#FE0480" d="M11.146,26.531c0.617-0.005,1.299,0.617,1.305,1.135
		c0.008,0.512-0.293,0.79-0.784,0.806c-0.507,0.017-1.159-0.678-1.158-1.187C10.509,26.801,10.769,26.56,11.146,26.531z"/>
	<path fill-rule="evenodd" clip-rule="evenodd" fill="#FE0480" d="M16.56,26.531c0.617-0.004,1.299,0.618,1.306,1.135
		c0.007,0.512-0.294,0.79-0.785,0.806c-0.507,0.017-1.159-0.679-1.158-1.188C15.923,26.8,16.183,26.559,16.56,26.531z"/>
	<path fill-rule="evenodd" clip-rule="evenodd" fill="#FE0480" d="M18.63,24.288c0.037-0.374,0.291-0.623,0.771-0.613
		c0.531,0.012,1.189,0.66,1.174,1.172c-0.014,0.472-0.299,0.736-0.752,0.768C19.294,25.652,18.608,24.924,18.63,24.288z"/>
</g>
</svg>
