<?xml version="1.0" encoding="utf-8"?>
<!-- Generator: Adobe Illustrator 16.0.0, SVG Export Plug-In . SVG Version: 6.00 Build 0)  -->
<!DOCTYPE svg PUBLIC "-//W3C//DTD SVG 1.1//EN" "http://www.w3.org/Graphics/SVG/1.1/DTD/svg11.dtd">
<svg version="1.1" id="Layer_1" xmlns="http://www.w3.org/2000/svg" xmlns:xlink="http://www.w3.org/1999/xlink" x="0px" y="0px"
	 width="24px" height="24px" viewBox="0 0 24 24" enable-background="new 0 0 24 24" xml:space="preserve">
<path fill="#203641" stroke="#8C989E" stroke-width="0.5" stroke-miterlimit="10" d="M7.424,1.017c-1.012,0-1.831,0.82-1.831,1.831
	v17.095c-0.002,2.025,3.206,3.041,6.412,3.041c3.202,0,6.402-1.012,6.402-3.041V2.847c0-1.01-0.819-1.831-1.831-1.831H7.424z"/>
<circle fill="#FFFFFF" stroke="#CED4D6" stroke-width="0.5" stroke-miterlimit="10" cx="12" cy="20.237" r="0.915"/>
<rect x="7.424" y="4.678" fill="#F7F8F9" width="9.152" height="12.813"/>
<polygon fill="#203641" points="14.06,13.145 14.06,13.83 14.746,13.83 14.746,13.145 14.517,13.145 14.517,12.915 14.288,12.915 
	14.288,13.145 "/>
<rect x="14.288" y="13.373" fill="#203641" width="0.229" height="0.229"/>
<rect x="9.254" y="12" fill="#26C19D" width="1.831" height="1.83"/>
<rect x="9.483" y="12.229" fill="#26C19D" width="1.373" height="1.373"/>
<rect x="14.06" y="12.687" fill="#203641" width="0.229" height="0.229"/>
<rect x="9.712" y="12.458" fill="#26C19D" width="0.915" height="0.916"/>
<rect x="11.313" y="11.771" fill="#203641" width="0.229" height="0.458"/>
<rect x="12" y="9.94" fill="#203641" width="0.229" height="0.229"/>
<rect x="12.229" y="9.712" fill="#203641" width="0.229" height="0.229"/>
<rect x="12.458" y="9.94" fill="#203641" width="0.229" height="0.229"/>
<polygon fill="#203641" points="12.458,9.712 12.687,9.712 12.687,8.339 12,8.339 12,8.568 11.313,8.568 11.313,8.796 12,8.796 
	12,9.025 12.458,9.025 "/>
<rect x="12.229" y="8.568" fill="#203641" width="0.229" height="0.229"/>
<rect x="9.712" y="8.796" fill="#3883F2" width="0.915" height="0.916"/>
<polygon fill="#203641" points="12,9.712 11.771,9.712 11.771,9.254 11.313,9.254 11.313,9.025 12,9.025 12,9.254 12.229,9.254 
	12.229,9.483 12,9.483 "/>
<rect x="9.254" y="8.339" fill="#3883F2" width="1.831" height="1.831"/>
<rect x="9.483" y="8.568" fill="#3883F2" width="1.373" height="1.373"/>
<polygon fill="#203641" points="11.542,9.94 11.313,9.94 11.313,9.712 11.771,9.712 11.771,10.169 11.542,10.169 "/>
<rect x="10.627" y="10.627" fill="#203641" width="0.229" height="0.229"/>
<polygon fill="#203641" points="14.288,12 14.746,12 14.746,12.687 14.517,12.687 14.517,12.458 14.06,12.458 14.06,12.687 
	13.83,12.687 13.83,12.458 13.602,12.458 13.602,12.229 13.83,12.229 13.83,12 14.06,12 14.06,12.229 14.288,12.229 "/>
<polygon fill="#203641" points="13.373,12.458 13.145,12.458 13.145,12.687 12.915,12.687 12.915,12.458 12.687,12.458 
	12.687,12.229 12.915,12.229 12.915,12 12.458,12 12.458,11.771 12.229,11.771 12.229,12 12,12 12,12.229 11.542,12.229 
	11.542,12.458 11.313,12.458 11.313,13.83 12.458,13.83 12.458,13.602 12.229,13.602 12.229,13.145 12,13.145 12,13.602 
	11.542,13.602 11.542,13.373 11.771,13.373 11.771,13.145 11.542,13.145 11.542,12.915 12.229,12.915 12.229,12.687 12.687,12.687 
	12.687,13.145 12.458,13.145 12.458,13.373 12.687,13.373 12.687,13.83 12.915,13.83 12.915,13.373 13.145,13.373 13.145,13.602 
	13.373,13.602 13.373,13.373 13.602,13.373 13.602,12.915 13.83,12.915 13.83,12.687 13.373,12.687 "/>
<rect x="12.915" y="12.915" fill="#203641" width="0.229" height="0.229"/>
<rect x="14.517" y="11.313" fill="#203641" width="0.229" height="0.458"/>
<rect x="12.229" y="12.915" fill="#203641" width="0.229" height="0.229"/>
<polygon fill="#203641" points="13.602,13.602 13.602,13.373 13.83,13.373 13.83,13.83 13.373,13.83 13.373,13.602 "/>
<rect x="12.915" y="8.339" fill="#2CB9D9" width="1.831" height="1.831"/>
<rect x="13.145" y="8.568" fill="#2CB9D9" width="1.372" height="1.373"/>
<rect x="13.373" y="8.796" fill="#2CB9D9" width="0.915" height="0.916"/>
<polygon fill="#203641" points="14.517,10.627 14.746,10.627 14.746,11.085 14.517,11.085 14.517,11.313 14.06,11.313 14.06,10.398 
	14.288,10.398 14.288,10.856 14.517,10.856 "/>
<rect x="13.602" y="11.313" fill="#203641" width="0.229" height="0.687"/>
<polygon fill="#203641" points="10.627,10.398 10.627,10.627 10.169,10.627 10.169,10.856 10.398,10.856 10.398,11.085 
	9.712,11.085 9.712,10.856 9.94,10.856 9.94,10.627 9.483,10.627 9.483,10.856 9.254,10.856 9.254,10.398 "/>
<polygon fill="#203641" points="10.398,11.313 10.398,11.085 10.627,11.085 10.627,11.771 10.398,11.771 10.398,11.542 
	10.169,11.542 10.169,11.771 9.94,11.771 9.94,11.542 9.712,11.542 9.712,11.771 9.254,11.771 9.254,11.542 9.483,11.542 
	9.483,11.313 "/>
<rect x="9.254" y="11.085" fill="#203641" width="0.229" height="0.229"/>
<rect x="13.602" y="10.398" fill="#203641" width="0.229" height="0.229"/>
<rect x="10.856" y="11.542" fill="#203641" width="0.229" height="0.229"/>
<rect x="14.06" y="11.771" fill="#203641" width="0.229" height="0.229"/>
<rect x="13.145" y="12" fill="#203641" width="0.229" height="0.229"/>
<polygon fill="#203641" points="12.915,12 13.145,12 13.145,11.313 13.602,11.313 13.602,11.085 13.83,11.085 13.83,10.856 
	13.602,10.856 13.602,10.627 13.145,10.627 13.145,10.398 12.915,10.398 12.915,10.627 12.687,10.627 12.687,10.398 12.458,10.398 
	12.458,10.627 12.229,10.627 12.229,10.398 12,10.398 12,10.627 11.771,10.627 11.771,10.856 11.542,10.856 11.542,10.627 
	11.771,10.627 11.771,10.398 10.856,10.398 10.856,10.627 11.313,10.627 11.313,10.856 10.856,10.856 10.856,11.085 11.085,11.085 
	11.085,11.542 11.313,11.542 11.313,11.313 11.771,11.313 11.771,11.771 12,11.771 12,10.856 12.229,10.856 12.229,11.313 
	12.915,11.313 12.915,11.542 12.458,11.542 12.458,11.771 12.915,11.771 "/>
<rect x="13.145" y="10.856" fill="#203641" width="0.229" height="0.229"/>
<rect x="12.458" y="10.856" fill="#203641" width="0.229" height="0.229"/>
</svg>
