<?xml version="1.0" encoding="utf-8"?>
<!-- Generator: Adobe Illustrator 16.0.0, SVG Export Plug-In . SVG Version: 6.00 Build 0)  -->
<!DOCTYPE svg PUBLIC "-//W3C//DTD SVG 1.1//EN" "http://www.w3.org/Graphics/SVG/1.1/DTD/svg11.dtd">
<svg version="1.1" id="Layer_1" xmlns="http://www.w3.org/2000/svg" xmlns:xlink="http://www.w3.org/1999/xlink" x="0px" y="0px"
	 width="216px" height="216px" viewBox="-84 -84 216 216" enable-background="new -84 -84 216 216" xml:space="preserve">
<path fill="none" d="M2.89-7.42h52.433v52.433H2.89V-7.42z"/>
<path fill="#3883F2" d="M66.361-36.161h-8.599V-53.36H40.564v17.199h-68.794V-53.36h-17.199v17.199h-8.6
	c-9.546,0-17.112,7.738-17.112,17.198l-0.086,120.39c0,9.46,7.652,17.198,17.198,17.198H66.361c9.459,0,17.198-7.738,17.198-17.198
	v-120.39C83.56-28.423,75.82-36.161,66.361-36.161z"/>
<rect x="-54.028" y="6.835" fill="#FFFFFF" width="120.389" height="94.592"/>
<rect x="-36.829" y="45.322" fill="#FF8D17" width="60.195" height="17.198"/>
<rect x="-36.829" y="15.295" fill="#26C19D" width="85.992" height="17.198"/>
<g>
	<rect x="58.419" y="-63.312" fill="none" width="60.808" height="60.809"/>
</g>
<g>
	<g>
		<path fill="#CED4D6" d="M82.844-70.624c-19.541,0-35.531,15.989-35.531,35.531S63.303,0.438,82.844,0.438
			c19.542,0,35.531-15.989,35.531-35.531S102.386-70.624,82.844-70.624z M95.456-21.591L80.96-30.509
			c-1.064-0.642-1.704-1.777-1.704-3.021v-16.665c0.035-1.457,1.242-2.664,2.699-2.664c1.459,0,2.665,1.207,2.665,2.664v15.813
			l13.645,8.206c1.28,0.784,1.707,2.454,0.923,3.734C98.407-21.199,96.737-20.811,95.456-21.591z"/>
	</g>
</g>
<rect x="-36.829" y="75.908" fill="#FF8D17" width="60.194" height="17.198"/>
</svg>
