<?xml version="1.0" encoding="utf-8"?>
<!-- Generator: Adobe Illustrator 16.0.0, SVG Export Plug-In . SVG Version: 6.00 Build 0)  -->
<!DOCTYPE svg PUBLIC "-//W3C//DTD SVG 1.1//EN" "http://www.w3.org/Graphics/SVG/1.1/DTD/svg11.dtd">
<svg version="1.1" id="Layer_1" xmlns="http://www.w3.org/2000/svg" xmlns:xlink="http://www.w3.org/1999/xlink" x="0px" y="0px"
	 width="216px" height="216px" viewBox="0 -25.75 216 216" enable-background="new 0 -25.75 216 216" xml:space="preserve">
<path fill="none" d="M95.999,70.248h24v24h-24V70.248z"/>
<path fill="#FCCF47" d="M158.943,16.236c0-5.583-4.571-10.155-10.155-10.155H67.544c-5.582,0-10.155,4.572-10.155,10.155v10.156
	h101.554V16.236L158.943,16.236z"/>
<path fill="#FDE291" d="M57.389,26.392v121.874c0,5.571,4.571,10.153,10.155,10.153h81.244c5.584,0,10.155-4.582,10.155-10.153
	V26.392H57.389z"/>
<path fill="#9B9FA1" d="M47.066,36.548c0-5.584-4.571-10.156-10.155-10.156H16.6c-5.583,0-10.155,4.572-10.155,10.156v5.867h40.622
	L47.066,36.548L47.066,36.548z"/>
<path fill="#CED4D6" d="M6.444,42.415v85.537c0,5.573,4.572,10.155,10.155,10.155h20.312c5.584,0,10.155-4.582,10.155-10.155V42.415
	H6.444z"/>
<path fill="#A57E11" d="M209.557,36.548c0-5.584-4.572-10.156-10.156-10.156h-20.312c-5.584,0-10.155,4.572-10.155,10.156v5.867
	h40.623V36.548z"/>
<path fill="#C9B270" d="M168.934,42.415v85.537c0,5.573,4.571,10.155,10.155,10.155H199.4c5.584,0,10.156-4.582,10.156-10.155
	V42.415H168.934z"/>
<path fill="#203641" d="M91.58,87.729c0-5.644-5.876-7.215-10.379-9.33c-2.734-1.42-2.389-4.814,1.529-5.043
	c2.174-0.131,4.411,0.514,6.432,1.224l0.95-4.336c-2.388-0.726-4.521-1.058-6.429-1.106v-2.68h-2.63v2.809
	c-5.119,0.703-7.853,3.914-7.853,7.5c0,6.416,7.49,7.396,9.941,8.535c3.344,1.496,2.724,4.606-0.301,5.292
	c-2.623,0.595-5.973-0.444-8.487-1.419l-1.196,4.325c2.352,1.217,5.172,1.862,7.896,1.912v2.628h2.63v-2.771
	C88.044,94.659,91.588,92.251,91.58,87.729z"/>
<path fill="#203641" d="M117.629,87.729c0-5.644-5.876-7.215-10.378-9.33c-2.735-1.42-2.39-4.814,1.528-5.043
	c2.175-0.131,4.41,0.514,6.432,1.224l0.95-4.336c-2.388-0.726-4.521-1.058-6.429-1.107v-2.68h-2.63v2.808
	c-5.12,0.705-7.854,3.916-7.854,7.502c0,6.416,7.491,7.396,9.941,8.535c3.345,1.496,2.725,4.606-0.301,5.292
	c-2.623,0.595-5.973-0.444-8.489-1.419l-1.195,4.325c2.352,1.217,5.172,1.862,7.896,1.912v2.628h2.631v-2.771
	C114.092,94.659,117.637,92.251,117.629,87.729z"/>
<path fill="#203641" d="M142.84,87.729c0-5.644-5.876-7.215-10.378-9.33c-2.735-1.42-2.39-4.813,1.529-5.043
	c2.174-0.131,4.409,0.514,6.431,1.224l0.95-4.336c-2.388-0.726-4.521-1.058-6.429-1.107v-2.68h-2.631v2.808
	c-5.119,0.704-7.854,3.916-7.854,7.502c0,6.416,7.491,7.396,9.94,8.535c3.346,1.496,2.726,4.606-0.301,5.292
	c-2.621,0.595-5.972-0.444-8.488-1.419l-1.193,4.325c2.354,1.217,5.172,1.862,7.896,1.912v2.628h2.633v-2.771
	C139.303,94.659,142.848,92.251,142.84,87.729z"/>
<path fill="#203641" d="M24.5,89.823c0-3.339-3.476-4.269-6.14-5.521c-1.618-0.84-1.413-2.849,0.904-2.983
	c1.286-0.076,2.609,0.305,3.805,0.725l0.563-2.564c-1.413-0.43-2.674-0.625-3.803-0.653v-1.586h-1.556v1.659
	c-3.028,0.418-4.646,2.317-4.646,4.438c0,3.795,4.431,4.374,5.881,5.049c1.978,0.886,1.611,2.726-0.178,3.132
	c-1.552,0.352-3.533-0.265-5.021-0.841l-0.707,2.56c1.391,0.721,3.06,1.104,4.671,1.132v1.555h1.556v-1.639
	C22.408,93.923,24.504,92.498,24.5,89.823z"/>
<path fill="#203641" d="M39.909,89.823c0-3.339-3.476-4.269-6.139-5.521c-1.618-0.84-1.414-2.849,0.904-2.983
	c1.286-0.076,2.609,0.305,3.805,0.725l0.562-2.564c-1.412-0.43-2.674-0.625-3.803-0.654v-1.585h-1.556v1.659
	c-3.029,0.418-4.646,2.317-4.646,4.438c0,3.795,4.432,4.374,5.882,5.049c1.979,0.886,1.611,2.726-0.178,3.132
	c-1.551,0.352-3.532-0.265-5.021-0.841l-0.707,2.56c1.392,0.721,3.06,1.104,4.671,1.132v1.555h1.557v-1.639
	C37.817,93.923,39.914,92.498,39.909,89.823z"/>
<path fill="#203641" d="M194.693,89.823c0-3.339-3.477-4.269-6.139-5.521c-1.617-0.84-1.414-2.849,0.902-2.983
	c1.287-0.076,2.607,0.305,3.807,0.725l0.563-2.564c-1.412-0.43-2.674-0.625-3.803-0.654v-1.585h-1.559v1.659
	c-3.027,0.418-4.646,2.317-4.646,4.438c0,3.795,4.433,4.374,5.884,5.049c1.979,0.886,1.61,2.726-0.179,3.132
	c-1.551,0.352-3.532-0.265-5.021-0.841l-0.707,2.56c1.392,0.721,3.06,1.104,4.67,1.132v1.555h1.558v-1.639
	C192.602,93.923,194.699,92.498,194.693,89.823z"/>
</svg>
