<?xml version="1.0" encoding="utf-8"?>
<!-- Generator: Adobe Illustrator 16.0.0, SVG Export Plug-In . SVG Version: 6.00 Build 0)  -->
<!DOCTYPE svg PUBLIC "-//W3C//DTD SVG 1.1//EN" "http://www.w3.org/Graphics/SVG/1.1/DTD/svg11.dtd">
<svg version="1.1" id="Layer_1" xmlns="http://www.w3.org/2000/svg" xmlns:xlink="http://www.w3.org/1999/xlink" x="0px" y="0px"
	 width="216px" height="216px" viewBox="-96 -96 216 216" enable-background="new -96 -96 216 216" xml:space="preserve">
<path fill="none" d="M56.625-18.042h24v24h-24V-18.042z"/>
<g>
	<path fill="none" d="M-100.424-101H80.587V80.012h-181.011V-101z"/>
	<path fill="#FF1F1F" d="M-70.255-2.953h45.252c4.146,0,7.542-3.394,7.542-7.542v-60.337c0-4.146-3.396-7.542-7.542-7.542h-45.252
		c-4.146,0-7.542,3.396-7.542,7.542v60.337C-77.798-6.347-74.402-2.953-70.255-2.953z"/>
	<path fill="#3883F2" d="M-70.255,57.383h45.252c4.146,0,7.542-3.395,7.542-7.54v-30.17c0-4.146-3.396-7.542-7.542-7.542h-45.252
		c-4.146,0-7.542,3.397-7.542,7.542v30.17C-77.798,53.988-74.402,57.383-70.255,57.383z"/>
	<path fill="#00B719" d="M5.165,57.383h45.253c4.146,0,7.541-3.395,7.541-7.54v-60.337c0-4.148-3.395-7.543-7.541-7.543H5.165
		c-4.147,0-7.542,3.395-7.542,7.543v60.337C-2.377,53.988,1.018,57.383,5.165,57.383z"/>
	<path fill="#2CB9D9" d="M-2.377-70.831v30.168c0,4.146,3.396,7.542,7.542,7.542h45.253c4.146,0,7.541-3.396,7.541-7.542v-30.168
		c0-4.146-3.395-7.542-7.541-7.542H5.165C1.018-78.374-2.377-74.978-2.377-70.831z"/>
</g>
<g>
	<rect x="-4.226" y="77.375" fill="#FF8D17" width="28.307" height="28.307"/>
	<rect x="33.516" y="63.223" fill="#FF8D17" width="28.306" height="42.459"/>
	<rect x="71.256" y="44.353" fill="#FF8D17" width="28.307" height="61.329"/>
	<polygon fill="#203641" points="99.563,-7.542 71.256,-1.781 79.352,6.277 47.037,38.04 32.88,23.879 -4.115,60.661 2.538,67.352 
		32.86,37.205 46.969,51.325 86.032,12.937 93.896,20.769 	"/>
</g>
</svg>
