<?xml version="1.0" encoding="utf-8"?>
<!-- Generator: Adobe Illustrator 16.0.0, SVG Export Plug-In . SVG Version: 6.00 Build 0)  -->
<!DOCTYPE svg PUBLIC "-//W3C//DTD SVG 1.1//EN" "http://www.w3.org/Graphics/SVG/1.1/DTD/svg11.dtd">
<svg version="1.1" xmlns="http://www.w3.org/2000/svg" xmlns:xlink="http://www.w3.org/1999/xlink" x="0px" y="0px" width="324px"
	 height="324px" viewBox="0 0 324 324" style="enable-background:new 0 0 324 324;" xml:space="preserve">
<style type="text/css">
<![CDATA[
	.st0{fill:#B4B4B4;}
	.st1{fill:#F3F3F3;}
	.st2{fill:none;stroke:#B3B4B4;stroke-width:12;stroke-miterlimit:10;}
	.st3{fill:#A51E22;}
	.st4{fill:#DC2226;}
]]>
</style>
<g id="Layer_1">
	<path class="st0" d="M161.711,66.257L71.619,97.962l14.237,118.037l75.951,41.744l76.345-42.31l14.23-118.032L161.711,66.257z"/>
	<path class="st3" d="M243.396,104.223l-81.895-27.926V247.77l68.63-37.983l13.263-105.563H243.396z"/>
	<path class="st4" d="M81.729,104.727l12.2,105.564L161.5,247.77V76.293L81.729,104.727L81.729,104.727z"/>
	<path class="st1" d="M184.044,167.58l-22.542,10.542h-23.76l-11.169,27.936l-20.774,0.384l55.703-123.918L184.044,167.58
		L184.044,167.58z M181.865,162.272l-20.214-40.017l-16.581,39.329h16.431L181.865,162.272L181.865,162.272z"/>
	<path class="st0" d="M161.501,82.522l0.148,39.733l18.814,39.359h-18.921l-0.042,16.481l26.163,0.025l12.228,28.324l19.877,0.369
		L161.501,82.522L161.501,82.522z"/>
</g>
<g id="circle">
	<circle class="st2" cx="161.5" cy="162.033" r="142.2"/>
</g>
</svg>
