<?xml version="1.0" encoding="iso-8859-1"?>
<!-- Generator: Adobe Illustrator 16.0.0, SVG Export Plug-In . SVG Version: 6.00 Build 0)  -->
<!DOCTYPE svg PUBLIC "-//W3C//DTD SVG 1.1//EN" "http://www.w3.org/Graphics/SVG/1.1/DTD/svg11.dtd">
<svg version="1.1" id="Layer_1" xmlns="http://www.w3.org/2000/svg" xmlns:xlink="http://www.w3.org/1999/xlink" x="0px" y="0px"
	 width="324px" height="324px" viewBox="0 0 324 324" style="enable-background:new 0 0 324 324;" xml:space="preserve">
<circle style="fill-rule:evenodd;clip-rule:evenodd;fill:none;stroke:#00B0B3;stroke-width:12;stroke-miterlimit:10;" cx="162" cy="161.999" r="142.2"/>
<g>
	<path style="fill-rule:evenodd;clip-rule:evenodd;fill:#FFFFFF;" d="M123.489,196.258c1.729-4.104,3.457-8.209,5.189-12.312
		c5.921-14.014,11.841-28.028,17.767-42.04c1.934-4.573,3.884-9.138,5.827-13.706c0.249,0.092,0.247,0.341,0.329,0.533
		c1.752,4.165,3.497,8.333,5.252,12.496c2.299,5.453,4.61,10.9,6.911,16.352c3.603,8.539,7.205,17.076,10.801,25.616
		c2.136,5.072,4.26,10.149,6.389,15.224c0.887,2.112,1.771,4.227,2.662,6.338c0.839,1.99,1.687,3.975,2.521,5.965
		c1.108,2.646,2.197,5.297,3.313,7.939c0.865,2.051,1.771,4.086,2.635,6.139c0.939,2.23,1.869,4.467,2.761,6.717
		c0.228,0.577,0.528,0.751,1.147,0.75c12.682-0.02,25.363-0.015,38.045-0.015c0.239,0,0.479,0,0.779,0
		c-0.112-0.315-0.189-0.57-0.293-0.813c-1.053-2.459-2.124-4.91-3.161-7.376c-2.411-5.727-4.795-11.465-7.212-17.189
		c-2.218-5.256-4.476-10.495-6.695-15.75c-2.268-5.371-4.501-10.756-6.764-16.129c-2.233-5.305-4.485-10.602-6.726-15.903
		c-1.865-4.416-3.72-8.835-5.589-13.249c-1.142-2.697-2.306-5.384-3.452-8.079c-1.904-4.482-3.809-8.966-5.702-13.453
		c-2.335-5.525-4.66-11.054-6.986-16.583c-1.628-3.868-3.271-7.73-4.868-11.611c-1.154-2.808-3.21-4.385-6.237-4.395
		c-13.266-0.041-26.533-0.019-39.8-0.008c-1.427,0-2.767,0.361-3.956,1.189c-1.097,0.706-1.767,1.75-2.258,2.915
		c-1.651,3.911-3.287,7.828-4.921,11.746c-0.726,1.74-1.431,3.488-2.153,5.229c-1.665,4.018-3.333,8.035-5.004,12.05
		c-1.363,3.274-2.724,6.549-4.102,9.816c-1.109,2.629-2.252,5.245-3.36,7.875c-1.27,3.011-2.517,6.032-3.774,9.048
		c-1.395,3.346-2.793,6.69-4.184,10.038c-1.107,2.665-2.195,5.335-3.312,7.997c-0.899,2.144-1.843,4.269-2.738,6.414
		c-1.275,3.055-2.532,6.117-3.781,9.184c-0.616,1.511-0.734,3.082-0.48,4.687c-0.045,1.694,0.909,3.032,1.618,4.448
		c0.735,1.468,1.547,2.896,2.314,4.35c0.871,1.647,1.718,3.309,2.596,4.952c0.944,1.767,1.915,3.518,2.868,5.279
		c0.715,1.322,1.416,2.654,2.134,3.974c0.834,1.534,1.688,3.056,2.521,4.589c0.673,1.237,1.322,2.488,1.998,3.726
		c0.791,1.445,1.614,2.874,2.395,4.325c0.702,1.304,1.35,2.645,2.27,3.813c1.234,1.569,2.884,2.59,4.834,2.834
		c2.603,0.324,5.15-0.142,7.655-0.961c3.654-1.193,7.103-2.824,10.449-4.686c2.99-1.665,5.847-3.549,8.743-5.366
		c2.999-1.884,6.05-3.683,9.047-5.567c3.465-2.179,6.93-4.354,10.426-6.482c3.17-1.931,6.289-3.944,9.439-5.907
		c2.781-1.733,5.575-3.443,8.361-5.17c0.874-0.542,1.736-1.102,2.775-1.761c-0.42,0-0.635,0-0.851,0
		c-13.805,0-27.609,0.003-41.415-0.001C133.488,196.29,128.488,196.27,123.489,196.258z"/>
	<path style="fill-rule:evenodd;clip-rule:evenodd;fill:#197CBB;" d="M128.377,92.906c1.188-0.828,2.528-1.188,3.956-1.189
		c13.267-0.01,26.534-0.032,39.8,0.008c3.027,0.01,5.083,1.586,6.237,4.395c1.598,3.881,3.24,7.743,4.868,11.611
		c2.326,5.529,4.651,11.058,6.986,16.583c1.894,4.487,3.798,8.97,5.702,13.453c1.146,2.695,2.311,5.382,3.452,8.079
		c1.869,4.414,3.724,8.833,5.589,13.249c2.24,5.301,4.492,10.598,6.726,15.903c2.263,5.373,4.496,10.758,6.764,16.129
		c2.22,5.255,4.478,10.494,6.695,15.75c2.417,5.725,4.801,11.463,7.212,17.189c1.037,2.466,2.108,4.917,3.161,7.376
		c0.104,0.242,0.181,0.497,0.293,0.813c-0.3,0-0.54,0-0.779,0c-12.682,0-25.363-0.005-38.045,0.015
		c-0.619,0.001-0.92-0.173-1.147-0.75c-0.892-2.25-1.821-4.486-2.761-6.717c-0.863-2.053-1.77-4.088-2.635-6.139
		c-1.116-2.643-2.205-5.294-3.313-7.939c-0.835-1.99-1.683-3.975-2.521-5.965c-0.891-2.111-1.775-4.226-2.662-6.338
		c-2.129-5.074-4.253-10.151-6.389-15.224c-3.596-8.54-7.198-17.077-10.801-25.616c-2.301-5.452-4.612-10.899-6.911-16.352
		c-1.756-4.163-3.5-8.331-5.252-12.496c-0.082-0.192-0.08-0.441-0.329-0.533c-0.027-0.093-0.043-0.191-0.083-0.278
		c-1.675-3.739-3.243-7.526-4.841-11.297c-1.125-2.653-2.253-5.309-3.344-7.978c-1.638-4.008-3.411-7.96-5.04-11.972
		c-1.829-4.502-5.964-5.557-9.829-3.917C128.891,92.863,128.663,93.024,128.377,92.906z"/>
	<path style="fill-rule:evenodd;clip-rule:evenodd;fill:#719F40;" d="M128.377,92.906c0.286,0.119,0.514-0.042,0.759-0.147
		c3.865-1.641,8-0.585,9.829,3.917c1.629,4.011,3.402,7.964,5.04,11.972c1.091,2.669,2.22,5.325,3.344,7.978
		c1.598,3.771,3.166,7.558,4.841,11.297c0.04,0.087,0.056,0.185,0.083,0.278c-1.943,4.568-3.894,9.133-5.827,13.706
		c-5.926,14.012-11.846,28.026-17.767,42.04c-1.733,4.103-3.46,8.208-5.189,12.312c-0.292,0.006-0.584,0.019-0.877,0.019
		c-7.969,0.002-15.939,0.001-23.908,0.005c-0.951,0.001-1.899-0.021-2.84-0.175c-2.21-0.362-4.223-1.111-5.803-2.803
		c-0.913-0.979-1.354-2.173-1.753-3.4c-0.254-1.604-0.136-3.176,0.48-4.687c1.249-3.066,2.506-6.129,3.781-9.184
		c0.896-2.146,1.839-4.271,2.738-6.414c1.116-2.661,2.205-5.332,3.312-7.997c1.391-3.347,2.789-6.691,4.184-10.038
		c1.257-3.016,2.505-6.037,3.774-9.048c1.108-2.63,2.251-5.246,3.36-7.875c1.378-3.268,2.739-6.542,4.102-9.816
		c1.671-4.016,3.339-8.032,5.004-12.05c0.722-1.741,1.427-3.489,2.153-5.229c1.635-3.917,3.271-7.834,4.921-11.746
		C126.611,94.656,127.281,93.611,128.377,92.906z"/>
	<path style="fill-rule:evenodd;clip-rule:evenodd;fill:#00B1B5;" d="M88.308,189.903c0.399,1.228,0.84,2.422,1.753,3.4
		c1.58,1.691,3.592,2.44,5.803,2.803c0.941,0.154,1.889,0.176,2.84,0.175c7.969-0.004,15.939-0.003,23.908-0.005
		c0.292,0,0.584-0.013,0.877-0.019c4.999,0.012,9.999,0.032,14.999,0.034c13.805,0.004,27.61,0.001,41.415,0.001
		c0.216,0,0.431,0,0.851,0c-1.039,0.659-1.901,1.219-2.775,1.761c-2.786,1.727-5.58,3.437-8.361,5.17
		c-3.15,1.963-6.27,3.977-9.439,5.907c-3.496,2.128-6.961,4.304-10.426,6.482c-2.997,1.885-6.048,3.684-9.047,5.567
		c-2.896,1.817-5.752,3.701-8.743,5.366c-3.347,1.861-6.795,3.492-10.449,4.686c-2.504,0.819-5.052,1.285-7.655,0.961
		c-1.95-0.244-3.601-1.265-4.834-2.834c-0.92-1.169-1.567-2.51-2.27-3.813c-0.781-1.451-1.604-2.88-2.395-4.325
		c-0.676-1.237-1.325-2.488-1.998-3.726c-0.834-1.533-1.687-3.055-2.521-4.589c-0.718-1.319-1.419-2.651-2.134-3.974
		c-0.953-1.762-1.923-3.513-2.868-5.279c-0.878-1.644-1.725-3.305-2.596-4.952c-0.767-1.453-1.58-2.882-2.314-4.35
		C89.217,192.936,88.263,191.598,88.308,189.903z"/>
</g>
</svg>
