<?xml version="1.0" encoding="utf-8"?>
<!-- Generator: Adobe Illustrator 16.0.0, SVG Export Plug-In . SVG Version: 6.00 Build 0)  -->
<!DOCTYPE svg PUBLIC "-//W3C//DTD SVG 1.1//EN" "http://www.w3.org/Graphics/SVG/1.1/DTD/svg11.dtd">
<svg version="1.1" id="Layer_1" xmlns="http://www.w3.org/2000/svg" xmlns:xlink="http://www.w3.org/1999/xlink" x="0px" y="0px"
	 width="324px" height="324px" viewBox="0 0 324 324" enable-background="new 0 0 324 324" xml:space="preserve">
<g>
	<path fill-rule="evenodd" clip-rule="evenodd" fill="#3C1312" d="M123.38,229.081c-13.566-7.604-27.305-14.922-40.131-23.77
		c-9.02-6.222-17.802-12.741-25.194-20.928c-2.478-2.744-4.72-5.667-6.547-8.885c-3.962-6.977-4.329-13.824,0.293-20.788
		c8.749-13.186,19.3-24.723,31.259-35.027c1.945-1.677,4.02-2.188,6.597-1.651c8.522,1.775,16.623,4.705,24.44,8.482
		c4.538,2.192,4.516,2.18,6.601-2.247c1.516-3.22,3.009-6.456,4.685-9.594c1.445-2.706,1.62-5.111-0.78-7.354
		c-0.516-0.481-0.86-1.141-1.335-1.672c-2.33-2.601-2.244-5.043,0.408-7.373c0.534-0.469,0.937-1.093,1.488-1.537
		c3.137-2.529,5.183-5.327,5.161-9.81c-0.025-5.234,3.808-8.528,7.855-11.228c6.93-4.62,14.745-7.124,22.828-8.638
		c2.295-0.43,3.993-2.466,6.178-2.217c6.826,0.778,13.719-0.507,20.521,0.959c7.55,1.628,11.321,7.581,15.097,13.262
		c1.726,2.594,3.321,4,6.365,3.764c0.691-0.053,1.403,0.269,2.112,0.318c3.563,0.25,6.785,0.827,5.681,5.657
		c0.39,0.027,0.561,0.091,0.621,0.036c1.797-1.669,2.253-5.263,5.673-4.588c4.708,0.927,9.224,2.646,12.499,6.317
		c1.464,1.64,0.422,3.858-0.902,5.188c-4.159,4.177-3.016,7.933-0.405,12.586c7.598,13.554,14.978,27.252,20.713,41.746
		c0.306,0.772,0.627,1.541,0.895,2.327c2.285,6.69,1.762,8.479-4.023,12.63c-1.512,1.085-2.608,2.137-2.935,4.134
		c-2.987,18.376-11.107,34.195-23.975,47.612c-0.894,0.931-1.742,1.903-2.82,3.086c2.698,1.246,5.345,0.565,7.819,1.026
		c2.258,0.42,5.257-0.464,6.399,2.106c1.041,2.343-1.441,4.011-2.476,5.931c-4.864,4.617-9.921,8.991-15.766,12.355
		c0.414-2.861,2.884-4.572,3.95-7.063c0.485-1.135,1.777-2.275,0.679-3.554c-0.917-1.068-2.321-0.905-3.668-0.702
		c-4.443,0.671-8.894,1.312-13.354,1.856c-0.989,0.122-2.364,0.552-2.969-0.49c-0.782-1.342,0.642-2.113,1.384-2.939
		c5.227-5.825,10.624-11.503,15.163-17.915c7.358-10.401,12.966-21.512,14.145-34.446c0.068-0.75,0.628-2.144-0.613-1.832
		c-2.373,0.596-5.393-0.337-6.605,3.404c-1.385,4.266-4.019,8.024-6.515,11.8c-4.939,7.473-11.185,13.796-17.273,20.268
		c-3.293,2.319-6.437,4.944-10.785,5.003c-3.805,0.051-7.58,0.065-11.37-0.61c-4.131-0.737-7.22-2.605-9.438-6.239
		c-5.598-9.163-10.293-18.751-13.95-28.833c-0.723-1.992-1.721-3.031-3.794-3.615c-6.548-1.846-12.865-4.321-18.298-8.549
		c-2.568-1.999-5.1-4.327-3.848-8.079c3.361-10.064,10.305-17.477,18.262-24.086c0.542-0.451,1.278-0.929,1.95-0.474
		c0.78,0.527,0.195,1.307-0.018,1.929c-1.343,3.933-2.878,7.808-4.037,11.793c-0.72,2.477-1.319,5.213,1.12,7.289
		c7.999,6.805,17.064,10.277,27.648,8.293c8.172-1.532,14.716-6.408,21.364-10.995c2.256,0.853,4.516,1.006,6.783,0.045
		c1.332,0.992,2.635,2.028,4.001,2.97c12.54,8.653,21.446,10.152,35.649,0.364c3.034-2.089,4.069-4.792,2.818-8.333
		c-5.338-15.117-12.188-29.407-22.737-41.675c-2.403-2.795-5.444-4.773-9.095-5.205c-4.705-0.555-9.427-0.977-14.216-0.716
		c-13.767,0.747-27.5,2.015-41.075,4.265c-5.919,0.982-9.097-1.01-11.917-5.63c-2.533-4.149-3.603-4.145-7.556-1.084
		c-6.396,4.952-6.56,5.754-1.514,11.91c1.91,2.329,2.311,4.249,0.511,6.958c-6.208,9.348-10.482,19.691-14.923,29.943
		c-5.381,12.419-8.392,25.215-6.474,38.827c0.716,5.092,1.708,10.168,5.719,13.864c2.864,2.642,4.829,2.006,5.842-1.739
		c0.558-2.057,0.881-4.177,1.32-6.266c0.625-2.981,2.272-3.59,4.773-1.77c3.132,2.277,4.601,7.734,3.137,11.649
		c-1.431,3.823-4.895,5.695-9.5,5.125c-5.239-0.65-9.3-3.364-12.676-7.269c-4.465-6.674-6.675-14.094-7.158-22.048
		c-0.149-2.456-2.111-3.224-3.746-3.737c-1.977-0.622-1.783,1.712-2.361,2.795c-0.831,1.559-1.125,3.416-2.023,4.922
		c-1.243,2.085-0.562,3.218,1.093,4.701c3.118,2.792,6.806,5.052,9.241,8.882c-1.825,0.383-3.021-0.413-4.204-1.13
		c-2.436-1.475-4.829-3.021-7.262-4.503c-0.619-0.377-1.429-1.485-2.022-0.257c-1.286,2.668-2.97,5.384-3.258,8.205
		c-0.188,1.844,2.732,2.903,4.309,4.271c1.313,1.138,1.868,0.665,2.606-0.7c1.054-1.947,1.335-4.44,4.154-6.256
		c-0.677,2.999-1.002,5.332-1.756,7.519c-0.691,2.008-0.378,3.182,1.416,4.481c5.96,4.317,11.847,8.73,18.178,12.505
		c3.972,2.367,7.943,4.737,11.89,7.146c2.117,1.292,2.528,3.109,1.951,5.522c-1.881,7.863-1.715,8.052,6.204,10.1
		c1.257,0.325,2.593,0.39,3.816,0.8c5.431,1.817,7.456-0.949,4.938-5.782c-0.039-0.074,0.243-0.317,0.408-0.521
		c2.852,0.657,4.098,3.492,6.468,4.792c0.369,0.588,0.744,1.172,1.105,1.765c0.837,1.376,2.477,2.719,1.564,4.404
		c-0.824,1.522-2.781,0.979-4.265,1.018c-8.442,0.22-16.767-0.785-24.953-2.798c-8.343-2.05-9.393-3.125-7.124-11.025
		C126.061,231.817,126.171,229.725,123.38,229.081z M94.112,178.309c1.596,2.341,2.913,2.494,4.089-0.387
		c0.714-1.749,1.633-3.421,2.545-5.082c0.878-1.603,0.874-2.871-0.902-3.863c-1.023-0.572-1.94-1.333-2.906-2.009
		c-1.775-1.936-2.88-1.548-4.005,0.797C88.977,176.007,88.218,173.761,94.112,178.309z M103.389,151.898
		c-0.996-1.074-1.592-0.483-2.119,0.495c-1.167,2.169-2.252,4.39-3.547,6.481c-1.317,2.127-0.781,3.483,1.394,4.415
		c1.981,1.615,3.303,4.98,6.82,2.209c-0.187,3.904-0.187,3.904,3.173,5.411c-0.717-9.55,1.339-18.525,3.813-27.434
		c1.308-3.415,2.647-6.818,3.905-10.253c0.352-0.963,0.825-2.184-0.721-2.625c-6.772-1.931-13.536-3.937-20.939-3.362
		c4.393,1.695,5.954,5.997,8.918,8.953l0.055-0.049c-1.903,0.345-2.947-1.285-4.422-1.926c-0.683-0.297-1.14-1.071-2.13-0.183
		c-3.537,3.173-3.558,6.429,0.11,9.287c0.188,0.146,0.416,0.254,0.565,0.431c2.052,2.425,3.284,1.546,4.637-0.846
		c1.878-3.321,3.864-6.623,6.787-9.265c-0.718,4.3-3.035,7.881-4.772,11.706c-0.53,1.166-1.923,2.425-0.136,3.725
		c0.446,1.148,2.019,1.632,1.877,3.17C105.467,153,104.453,152.191,103.389,151.898z M207.673,196.908
		c5.306-6.429,9.656-13.443,12.922-21.116c0.387-0.909,1.29-1.957-0.063-2.814c-5.942-3.767-10.487-9.104-15.599-14.216
		c-1.255,6.299-2.433,12.216-3.61,18.133c-3.036,10.072-6.262,20.08-10.105,29.882c-0.534,1.361-2.152,3.245-1.101,4.095
		c1.411,1.141,3.747,0.456,5.341-0.575c1.77-1.145,3.297-2.681,4.853-4.129C203.225,203.454,205.269,200.035,207.673,196.908z
		 M173.315,195.468c1.666,4.581,4.114,8.716,7.109,12.546c1.131,1.445,2.53,2.416,4.342,2.846c1.187,0.281,1.912,0.318,2.279-1.212
		c1.697-7.1,3.82-14.1,4.907-21.341c2.76-9.233,4.052-18.708,5.182-28.925c-9.155,7.694-18.154,14.134-28.955,17.506
		c-1.294,0.403-1.371,1.132-1.1,2.129C168.623,184.702,170.221,190.368,173.315,195.468z M137.506,85.64
		c1.234-0.726,2.025-1.164,2.79-1.644c4.379-2.749,5.242-2.702,8.855,0.992c1.741,1.781,3.307,3.735,4.933,5.629
		c0.74,0.861,1.415,1.773,2.443,0.305c4.531-6.469,11.002-8.671,18.584-8.443c1.808,0.055,2.392-0.694,1.51-2.403
		c-1.969-3.814-4.052-7.542-7.348-10.419c-0.808-0.705-1.542-1.483-2.777-1.32c-9.173,1.21-18.042,3.209-25.043,9.883
		C139.476,80.104,137.961,82.302,137.506,85.64z M167.691,93.108c3.59-0.566,7.134-0.469,10.671-0.477
		c7.704-0.018,15.409,0.072,23.11-0.083c1.968-0.039,5.386,1.228,5.636-0.804c0.287-2.338-3.001-3.536-5.3-4.525
		c-0.429-0.185-0.914-0.232-1.367-0.361c-4.658-1.326-9.461-1.025-14.123-0.576C179.633,86.927,173.1,88.54,167.691,93.108z
		 M175.035,68.347c2.13,2.57,4.706,4.546,5.727,7.135c2.489,6.312,7.14,7.303,12.934,6.524c0.116-0.016,0.237-0.008,0.355,0.003
		c2.601,0.266,2.372-0.771,1.381-2.595C191.122,71.491,184.408,68.009,175.035,68.347z M92.896,158.168
		c0.913-0.159,1.215-0.85,1.575-1.44c1.052-1.724,1.96-3.546,3.13-5.183c1.377-1.929,0.831-2.994-0.997-4.29
		c-4.917-3.489-4.853-3.58-8.037,1.393c-0.192,0.3-0.419,0.588-0.554,0.913c-0.468,1.13-2.307,2.182-1.249,3.352
		C88.572,154.909,90.562,156.835,92.896,158.168z M83.677,157.24c-1.891,1.323-2.463,3.372-3.727,4.864
		c-1.668,1.967-1.685,3.387,0.533,5.206c5.122,4.198,5.058,4.356,8.405-1.415c0.651-1.123,2.525-2.381,1.287-3.666
		C88.326,160.312,85.931,158.922,83.677,157.24z M93.948,185.39c-0.062-0.957-5.597-5.603-6.653-5.583
		c-0.746,0.013-4.007,5.644-3.959,6.832c0.039,0.949,5.233,6.101,6.162,6.112C90.434,192.763,94.04,186.798,93.948,185.39z
		 M81.836,135.965c-1.918,1.288-2.896,3.093-4.259,4.534c-1.472,1.556-1.184,2.655,0.253,4.155c4.446,4.638,4.408,4.725,8.143-0.612
		c0.737-1.053,2.573-2.155,1.31-3.579C85.742,138.728,83.684,137.45,81.836,135.965z M78.481,153.979
		c-0.08-0.869-5.253-5.089-6.194-5.053c-0.855,0.033-4.47,5.688-4.464,6.987c0.004,0.762,4.797,5.122,5.604,5.096
		C74.135,160.987,78.561,154.834,78.481,153.979z M82.068,176.552c-0.02-1.247-6.178-6.318-7.15-5.985
		c-0.393,0.133-0.694,0.585-0.995,0.929c-2.653,3.032-2.587,3.631,1.447,7.805c0.907,0.94,1.796,3.045,3.138,2.229
		C80.243,180.474,81.21,178.337,82.068,176.552z M89.4,128.322c-1.676,0.877-3.323,2.148-4.229,4.123
		c-0.245,0.534,4.899,5.081,5.461,4.795c2.168-1.103,3.193-3.341,4.632-5.147C95.68,131.574,90.875,128.284,89.4,128.322z
		 M65.521,163.359c0.498,2.308,0.938,4.301,2.432,5.967C70.637,165.993,70.531,165.706,65.521,163.359z"/>
	<path fill-rule="evenodd" clip-rule="evenodd" fill="#EAE0D9" d="M123.38,229.081c2.792,0.644,2.681,2.736,2.108,4.734
		c-2.269,7.9-1.219,8.976,7.124,11.025c8.187,2.013,16.511,3.018,24.953,2.798c1.484-0.038,3.441,0.505,4.265-1.018
		c0.913-1.686-0.727-3.028-1.564-4.404c-0.361-0.593-0.737-1.177-1.105-1.765c7.229,0.277,14.182,2.401,21.344,3.182
		c12.738,1.392,25.541,4.288,37.774-2.333c5.845-3.365,10.901-7.739,15.766-12.356c5.078,2.124,10.608,1.775,15.879,2.886
		c6.835,1.441,13.699,2.723,20.141,5.564c0.544,0.24,1.078,0.505,1.595,0.799c4.681,2.668,4.818,5.691,0.197,8.402
		c-5.704,3.347-12.132,4.7-18.517,5.906c-12.902,2.438-25.933,3.729-39.061,4.471c-13.979,0.791-27.96,1.769-41.942,1.202
		c-14.174-0.575-28.367-0.862-42.503-2.589c-11.752-1.437-23.49-2.658-34.768-6.46c-2.235-0.754-4.407-1.788-6.47-2.94
		c-3.218-1.798-3.36-5.006-0.335-7.082c5.725-3.928,12.448-5.092,19.038-6.466c4.729-0.986,9.555-1.518,14.345-2.189
		C122.565,230.317,123.266,230.133,123.38,229.081z"/>
	<path fill-rule="evenodd" clip-rule="evenodd" fill="#A97B54" d="M197.406,152.513c-6.648,4.587-13.192,9.463-21.364,10.995
		c-10.584,1.984-19.649-1.488-27.648-8.293c-2.439-2.076-1.84-4.812-1.12-7.289c1.158-3.985,2.694-7.86,4.037-11.793
		c0.213-0.623,0.798-1.402,0.018-1.929c-0.672-0.455-1.407,0.022-1.95,0.474c-7.957,6.609-14.901,14.022-18.262,24.086
		c-1.252,3.751,1.28,6.08,3.848,8.079c5.433,4.228,11.75,6.703,18.298,8.549c2.073,0.584,3.071,1.623,3.794,3.615
		c3.657,10.082,8.352,19.67,13.95,28.833c2.219,3.634,5.308,5.502,9.438,6.239c3.79,0.676,7.565,0.661,11.37,0.61
		c4.349-0.059,7.492-2.684,10.785-5.002c0.989,0.131,1.896-0.016,2.626-0.771c3.215-3.328,6.755-6.336,9.63-9.997
		c4.598-5.854,8.66-12.065,12.341-18.699c0.24,0.401,0.413,0.564,0.429,0.739c0.038,0.472,0.075,0.959,0,1.423
		c-2.227,13.756-7.008,26.118-17.837,35.701c-13.085,11.576-28.554,15.217-45.284,13.583c-16.372-1.6-30.469-8.574-41.383-21.196
		c-2.978-3.445-6.268-6.823-6.846-11.723c3.376,3.904,7.437,6.618,12.676,7.269c4.606,0.57,8.069-1.302,9.5-5.125
		c1.464-3.915-0.004-9.372-3.137-11.649c-2.501-1.82-4.147-1.212-4.773,1.77c-0.438,2.089-0.762,4.209-1.32,6.266
		c-1.014,3.745-2.979,4.381-5.842,1.739c-4.01-3.696-5.002-8.772-5.719-13.864c-1.917-13.611,1.093-26.407,6.474-38.827
		c4.441-10.252,8.715-20.595,14.923-29.943c1.8-2.709,1.399-4.628-0.511-6.958c-5.046-6.156-4.883-6.958,1.514-11.91
		c3.954-3.061,5.023-3.065,7.556,1.084c2.821,4.62,5.998,6.612,11.917,5.63c13.575-2.25,27.309-3.518,41.075-4.265
		c4.789-0.261,9.511,0.162,14.216,0.716c3.65,0.431,6.691,2.409,9.095,5.205c10.549,12.268,17.399,26.559,22.737,41.675
		c1.251,3.541,0.216,6.244-2.818,8.333c-14.203,9.788-23.109,8.289-35.649-0.364c-1.366-0.942-2.669-1.978-4.001-2.97
		c1.922-2.521,4.595-4.375,6.239-7.153c1.757-2.965,1.438-4.342-1.763-5.3c-5.605-1.676-11.264-1.529-16.784,0.392
		c-3.014,1.049-3.263,2.513-1.134,4.989c1.521,1.769,3.102,3.489,4.767,5.356c0.779-1.261,0.275-1.725,0.151-2.259
		c-0.254-1.102-0.986-2.348,0.503-3.128c0.771-0.401,1.677-0.362,2.37,0.181c1.188,0.932,0.679,2.157,0.312,3.262
		C198.44,150.127,197.894,151.311,197.406,152.513z M173.981,123.358c-2.822,0.072-5.449,2.747-5.47,5.567
		c-0.021,2.85,3.053,5.776,5.87,5.59c2.627-0.173,5.308-2.913,5.304-5.421C179.681,126.175,176.809,123.287,173.981,123.358z
		 M222.593,123.352c-3.053,0.033-5.441,2.319-5.651,5.125c-0.223,3.002,1.862,5.56,4.854,5.953c2.555,0.336,5.372-1.568,5.759-4.141
		c0.166-1.103,1.228-3.334-1.781-2.474c-1.002,0.286-1.308-0.768-0.982-1.33C226.707,123.173,223.645,123.971,222.593,123.352z"/>
	<path fill-rule="evenodd" clip-rule="evenodd" fill="#8C5D40" d="M116.275,198.747c0.578,4.899,3.868,8.277,6.846,11.723
		c10.914,12.622,25.011,19.597,41.383,21.196c16.73,1.634,32.199-2.007,45.284-13.583c10.829-9.583,15.61-21.945,17.837-35.701
		c0.075-0.464,0.038-0.951,0-1.423c-0.016-0.175-0.188-0.338-0.429-0.739c-3.681,6.634-7.743,12.846-12.341,18.699
		c-2.875,3.661-6.415,6.669-9.63,9.997c-0.729,0.755-1.637,0.901-2.626,0.771c6.089-6.473,12.334-12.796,17.273-20.269
		c2.496-3.775,5.13-7.534,6.515-11.8c1.213-3.741,4.232-2.809,6.605-3.404c1.241-0.312,0.682,1.082,0.613,1.832
		c-1.179,12.935-6.786,24.045-14.145,34.446c-4.539,6.412-9.937,12.09-15.163,17.915c-0.742,0.826-2.166,1.598-1.384,2.939
		c0.604,1.042,1.979,0.612,2.969,0.49c4.461-0.545,8.911-1.186,13.354-1.856c1.347-0.203,2.751-0.366,3.668,0.702
		c1.099,1.278-0.193,2.419-0.679,3.554c-1.066,2.491-3.536,4.202-3.95,7.063c-12.233,6.622-25.036,3.726-37.774,2.334
		c-7.162-0.78-14.114-2.904-21.344-3.182c-2.37-1.3-3.616-4.135-6.468-4.792c-0.165,0.204-0.447,0.447-0.408,0.521
		c2.518,4.833,0.493,7.6-4.938,5.782c-1.224-0.41-2.559-0.475-3.816-0.8c-7.919-2.048-8.085-2.236-6.204-10.1
		c0.578-2.413,0.167-4.23-1.951-5.522c-3.947-2.408-7.918-4.778-11.89-7.146c-6.332-3.774-12.218-8.188-18.178-12.505
		c-1.794-1.3-2.107-2.474-1.416-4.481c0.754-2.187,1.08-4.52,1.756-7.519c-2.818,1.815-3.1,4.309-4.154,6.256
		c-0.738,1.365-1.294,1.838-2.606,0.7c-1.577-1.367-4.496-2.427-4.309-4.271c0.288-2.821,1.972-5.537,3.258-8.205
		c0.593-1.229,1.403-0.12,2.022,0.257c2.433,1.481,4.826,3.028,7.262,4.503c1.183,0.717,2.378,1.513,4.204,1.13
		c-2.435-3.83-6.123-6.09-9.241-8.882c-1.655-1.483-2.336-2.616-1.093-4.701c0.898-1.506,1.193-3.363,2.023-4.922
		c0.578-1.083,0.384-3.417,2.361-2.795c1.634,0.514,3.596,1.281,3.746,3.737C109.6,184.653,111.811,192.073,116.275,198.747z"/>
	<path fill-rule="evenodd" clip-rule="evenodd" fill="#FDFDFC" d="M191.953,188.307c-1.087,7.241-3.21,14.241-4.907,21.341
		c-0.367,1.53-1.093,1.493-2.279,1.212c-1.812-0.43-3.211-1.4-4.342-2.846c-2.995-3.83-5.443-7.965-7.109-12.546
		c1.349-1.225,0.106-2.497-0.135-3.586c-1.804-8.151-0.185-11.889,7.19-15.649c1.897-0.968,3.854-1.872,5.869-2.542
		c1.703-0.566,3.526-2,5.331-0.343c1.771,1.625,1.022,3.688,0.762,5.681C191.93,182.103,191.446,185.189,191.953,188.307z"/>
	<path fill-rule="evenodd" clip-rule="evenodd" fill="#F79139" d="M137.506,85.64c0.456-3.338,1.97-5.536,3.947-7.42
		c7.001-6.673,15.87-8.673,25.043-9.883c1.235-0.163,1.97,0.615,2.777,1.32c3.296,2.877,5.379,6.604,7.348,10.419
		c0.882,1.708,0.298,2.458-1.51,2.403c-7.582-0.229-14.054,1.974-18.584,8.443c-1.028,1.468-1.704,0.556-2.443-0.305
		c-1.626-1.894-3.192-3.848-4.933-5.629c-3.613-3.694-4.476-3.741-8.855-0.992C139.531,84.476,138.74,84.914,137.506,85.64z"/>
	<path fill-rule="evenodd" clip-rule="evenodd" fill="#FDFDFC" d="M207.673,196.908c-2.404,3.127-4.448,6.546-7.362,9.259
		c-1.556,1.448-3.083,2.984-4.853,4.129c-1.594,1.031-3.93,1.716-5.341,0.575c-1.052-0.85,0.566-2.733,1.101-4.095
		c3.844-9.802,7.069-19.81,10.105-29.882c2.117-1.864,4.238-3.551,7.414-2.843c3.986,0.888,6.006,4.46,4.982,8.616
		C212.465,187.759,208.825,191.799,207.673,196.908z"/>
	<path fill-rule="evenodd" clip-rule="evenodd" fill="#A67753" d="M104.088,136.189c-2.964-2.956-4.525-7.258-8.918-8.953
		c7.403-0.575,14.167,1.431,20.939,3.362c1.546,0.441,1.073,1.661,0.721,2.625c-1.257,3.435-2.597,6.838-3.906,10.252
		c-4.377-0.554-6.81,1.719-8.143,5.594c-1.787-1.3-0.394-2.56,0.136-3.725c1.738-3.825,4.055-7.406,4.772-11.706
		c-2.923,2.642-4.909,5.943-6.787,9.265c-1.353,2.392-2.585,3.271-4.637,0.846c-0.149-0.176-0.377-0.285-0.565-0.431
		c-3.668-2.858-3.646-6.113-0.11-9.287c0.991-0.888,1.447-0.114,2.13,0.183c1.475,0.641,2.519,2.271,4.422,1.926
		c-0.051,0.326-0.073,0.618,0.398,0.353C104.39,136.392,104.239,136.291,104.088,136.189z"/>
	<path fill-rule="evenodd" clip-rule="evenodd" fill="#EAE0D9" d="M191.953,188.307c-0.507-3.117-0.023-6.204,0.38-9.278
		c0.261-1.993,1.009-4.056-0.762-5.681c-1.805-1.657-3.628-0.224-5.331,0.343c-2.016,0.67-3.972,1.574-5.869,2.542
		c-7.375,3.761-8.994,7.498-7.19,15.649c0.241,1.089,1.483,2.361,0.135,3.586c-3.095-5.1-4.692-10.766-6.235-16.451
		c-0.271-0.997-0.194-1.726,1.1-2.129c10.801-3.372,19.8-9.812,28.955-17.506C196.005,169.599,194.713,179.073,191.953,188.307z"/>
	<path fill-rule="evenodd" clip-rule="evenodd" fill="#EAE0D9" d="M207.673,196.908c1.152-5.109,4.792-9.149,6.047-14.24
		c1.023-4.156-0.996-7.729-4.982-8.616c-3.176-0.708-5.297,0.979-7.414,2.843c1.178-5.917,2.355-11.834,3.61-18.133
		c5.111,5.111,9.656,10.449,15.599,14.216c1.353,0.857,0.449,1.905,0.063,2.814C217.329,183.465,212.979,190.479,207.673,196.908z"
		/>
	<path fill-rule="evenodd" clip-rule="evenodd" fill="#0B0A08" d="M197.406,152.513c0.487-1.202,1.034-2.385,1.444-3.614
		c0.367-1.104,0.877-2.33-0.312-3.262c-0.693-0.543-1.6-0.583-2.37-0.181c-1.489,0.78-0.757,2.026-0.503,3.128
		c0.124,0.534,0.628,0.998-0.151,2.259c-1.665-1.867-3.245-3.587-4.767-5.356c-2.129-2.477-1.88-3.94,1.134-4.989
		c5.521-1.921,11.179-2.068,16.784-0.392c3.201,0.958,3.52,2.334,1.763,5.3c-1.645,2.778-4.317,4.632-6.239,7.153
		C201.922,153.519,199.662,153.366,197.406,152.513z"/>
	<path fill-rule="evenodd" clip-rule="evenodd" fill="#81341B" d="M167.691,93.108c5.408-4.568,11.941-6.181,18.627-6.826
		c4.662-0.45,9.465-0.75,14.123,0.576c0.453,0.129,0.938,0.177,1.367,0.361c2.299,0.989,5.587,2.187,5.3,4.525
		c-0.25,2.032-3.668,0.765-5.636,0.804c-7.701,0.155-15.406,0.065-23.11,0.083C174.825,92.64,171.281,92.542,167.691,93.108z"/>
	<path fill-rule="evenodd" clip-rule="evenodd" fill="#8C5D40" d="M104.781,149.07c1.333-3.875,3.766-6.148,8.143-5.594
		c-2.473,8.909-4.53,17.884-3.813,27.434c-3.36-1.507-3.36-1.507-3.173-5.411c-3.517,2.771-4.839-0.594-6.82-2.209
		c1.209-3.877,3.545-7.333,4.271-11.392c1.063,0.293,2.078,1.102,3.269,0.342C106.8,150.702,105.227,150.219,104.781,149.07z"/>
	<path fill-rule="evenodd" clip-rule="evenodd" fill="#F79139" d="M175.035,68.347c9.373-0.337,16.087,3.145,20.396,11.067
		c0.991,1.824,1.22,2.861-1.381,2.595c-0.118-0.012-0.239-0.019-0.355-0.003c-5.794,0.779-10.444-0.213-12.934-6.524
		C179.741,72.893,177.165,70.917,175.035,68.347z"/>
	<path fill-rule="evenodd" clip-rule="evenodd" fill="#A67753" d="M92.896,158.168c-2.334-1.333-4.324-3.26-6.131-5.255
		c-1.058-1.17,0.781-2.222,1.249-3.352c0.135-0.324,0.361-0.613,0.554-0.913c3.184-4.973,3.12-4.882,8.037-1.393
		c1.828,1.295,2.374,2.361,0.997,4.29c-1.17,1.637-2.078,3.459-3.13,5.183C94.111,157.319,93.809,158.01,92.896,158.168z"/>
	<path fill-rule="evenodd" clip-rule="evenodd" fill="#A67753" d="M83.677,157.24c2.254,1.683,4.649,3.072,6.498,4.989
		c1.239,1.285-0.636,2.543-1.287,3.666c-3.347,5.771-3.283,5.613-8.405,1.415c-2.217-1.818-2.201-3.238-0.533-5.206
		C81.214,160.611,81.786,158.563,83.677,157.24z"/>
	<path fill-rule="evenodd" clip-rule="evenodd" fill="#A67753" d="M93.948,185.39c0.092,1.408-3.514,7.373-4.45,7.361
		c-0.929-0.012-6.123-5.163-6.162-6.112c-0.048-1.188,3.213-6.819,3.959-6.832C88.351,179.787,93.887,184.433,93.948,185.39z"/>
	<path fill-rule="evenodd" clip-rule="evenodd" fill="#A67753" d="M81.836,135.965c1.847,1.485,3.905,2.763,5.447,4.498
		c1.263,1.423-0.573,2.526-1.31,3.579c-3.734,5.337-3.697,5.25-8.143,0.612c-1.437-1.5-1.725-2.599-0.253-4.155
		C78.941,139.058,79.918,137.253,81.836,135.965z"/>
	<path fill-rule="evenodd" clip-rule="evenodd" fill="#A67753" d="M78.481,153.979c0.079,0.855-4.346,7.008-5.055,7.03
		c-0.806,0.025-5.6-4.334-5.604-5.096c-0.006-1.298,3.609-6.954,4.464-6.987C73.229,148.891,78.402,153.111,78.481,153.979z"/>
	<path fill-rule="evenodd" clip-rule="evenodd" fill="#A67753" d="M82.068,176.552c-0.858,1.785-1.825,3.922-3.561,4.977
		c-1.342,0.816-2.23-1.288-3.138-2.229c-4.034-4.174-4.1-4.772-1.447-7.805c0.3-0.344,0.602-0.796,0.995-0.929
		C75.891,170.233,82.049,175.305,82.068,176.552z"/>
	<path fill-rule="evenodd" clip-rule="evenodd" fill="#A67753" d="M89.4,128.322c1.475-0.038,6.28,3.252,5.865,3.771
		c-1.439,1.806-2.464,4.044-4.632,5.147c-0.562,0.286-5.707-4.261-5.461-4.795C86.077,130.471,87.724,129.199,89.4,128.322z"/>
	<path fill-rule="evenodd" clip-rule="evenodd" fill="#8C5D40" d="M96.939,166.968c0.966,0.676,1.882,1.437,2.906,2.009
		c1.776,0.992,1.78,2.261,0.902,3.863c-0.912,1.661-1.832,3.333-2.545,5.082c-1.177,2.881-2.494,2.728-4.089,0.387
		C94.63,174.423,96.842,170.96,96.939,166.968z"/>
	<path fill-rule="evenodd" clip-rule="evenodd" fill="#A67753" d="M96.939,166.968c-0.097,3.992-2.309,7.455-2.827,11.341
		c-5.895-4.548-5.135-2.302-1.178-10.544C94.06,165.42,95.164,165.032,96.939,166.968z"/>
	<path fill-rule="evenodd" clip-rule="evenodd" fill="#A67753" d="M103.389,151.898c-0.727,4.059-3.062,7.515-4.271,11.392
		c-2.175-0.932-2.711-2.288-1.394-4.415c1.294-2.092,2.379-4.313,3.547-6.481C101.797,151.415,102.394,150.825,103.389,151.898z"/>
	<path fill-rule="evenodd" clip-rule="evenodd" fill="#A67753" d="M65.521,163.359c5.01,2.347,5.116,2.634,2.432,5.967
		C66.459,167.66,66.019,165.667,65.521,163.359z"/>
	<path fill-rule="evenodd" clip-rule="evenodd" fill="#3E1313" d="M173.981,123.358c2.827-0.071,5.699,2.816,5.704,5.736
		c0.004,2.508-2.677,5.249-5.304,5.421c-2.817,0.186-5.891-2.74-5.87-5.59C168.532,126.105,171.159,123.43,173.981,123.358z
		 M176.849,129.586c-0.847-1.467-1.58-3.216-3.623-3.334c-1.465-0.085-1.996,1.06-1.987,2.414c0.011,1.797,0.875,2.976,2.686,3.166
		C175.414,131.988,176.341,131.126,176.849,129.586z"/>
	<path fill-rule="evenodd" clip-rule="evenodd" fill="#3E1313" d="M222.593,123.352c1.052,0.619,4.114-0.179,2.197,3.133
		c-0.325,0.563-0.02,1.616,0.982,1.33c3.009-0.86,1.947,1.371,1.781,2.474c-0.387,2.572-3.204,4.477-5.759,4.141
		c-2.991-0.393-5.076-2.95-4.854-5.953C217.151,125.671,219.54,123.385,222.593,123.352z M225.43,129.275
		c-3.198,0.688,0.009-4.08-3.276-3.458c-1.487,0.282-3.071,1.212-2.899,3.035c0.179,1.9,1.254,3.304,3.524,3.021
		C224.06,131.715,224.915,131.037,225.43,129.275z"/>
	<path fill-rule="evenodd" clip-rule="evenodd" fill="#3C1312" d="M104.088,136.189c0.151,0.101,0.302,0.202,0.453,0.304
		c-0.471,0.265-0.449-0.027-0.398-0.353L104.088,136.189z"/>
	<path fill-rule="evenodd" clip-rule="evenodd" fill="#0B0A08" d="M176.849,129.586c-0.508,1.54-1.435,2.402-2.925,2.246
		c-1.811-0.19-2.675-1.369-2.686-3.166c-0.009-1.354,0.522-2.499,1.987-2.414C175.269,126.37,176.002,128.119,176.849,129.586z"/>
	<path fill-rule="evenodd" clip-rule="evenodd" fill="#0B0A08" d="M225.43,129.275c-0.515,1.761-1.37,2.44-2.651,2.599
		c-2.271,0.283-3.346-1.121-3.524-3.021c-0.172-1.823,1.412-2.753,2.899-3.035C225.438,125.196,222.231,129.964,225.43,129.275z"/>
</g>
<circle fill-rule="evenodd" clip-rule="evenodd" fill="none" stroke="#F79520" stroke-width="12" stroke-miterlimit="10" cx="162" cy="162" r="142.2"/>
</svg>
