<?xml version="1.0" encoding="utf-8"?>
<!-- Generator: Adobe Illustrator 16.0.0, SVG Export Plug-In . SVG Version: 6.00 Build 0)  -->
<!DOCTYPE svg PUBLIC "-//W3C//DTD SVG 1.1//EN" "http://www.w3.org/Graphics/SVG/1.1/DTD/svg11.dtd">
<svg version="1.1" id="Layer_1" xmlns="http://www.w3.org/2000/svg" xmlns:xlink="http://www.w3.org/1999/xlink" x="0px" y="0px"
	 width="324px" height="324px" viewBox="0 -36 324 324" enable-background="new 0 -36 324 324" xml:space="preserve">
<g id="Layer_1_1_">
	<g>
		<path fill="#1673B5" d="M81.294,42.367c0-0.606,0-1.21,0-1.816c30.918-0.001,61.835-0.005,92.754-0.005
			c22.886,0,45.772,0.004,68.657,0.005c0,0.606,0,1.21,0,1.816c-0.337,0.203-0.189,0.543-0.219,0.82
			c-0.43,4.719-0.85,9.438-1.273,14.158c-0.578,6.459-1.158,12.917-1.734,19.377c-0.5,5.589-0.994,11.18-1.492,16.769
			c-0.578,6.46-1.16,12.918-1.736,19.378c-0.5,5.589-0.991,11.179-1.492,16.77c-0.576,6.461-1.16,12.918-1.736,19.379
			c-0.5,5.588-0.989,11.178-1.492,16.768c-0.572,6.427-1.158,12.852-1.731,19.275c-0.565,6.361-1.133,12.721-1.673,19.082
			c-0.068,0.808-0.348,1.185-1.182,1.416c-21.416,5.901-42.824,11.84-64.229,17.781c-0.574,0.161-1.096,0.148-1.663-0.011
			c-21.176-5.89-42.355-11.769-63.533-17.652c-1.594-0.442-1.559-0.454-1.699-2.138c-0.34-4.118-0.709-8.234-1.076-12.35
			c-0.575-6.428-1.162-12.853-1.735-19.279c-0.571-6.393-1.125-12.787-1.697-19.18c-0.64-7.162-1.293-14.322-1.932-21.485
			c-0.569-6.393-1.122-12.789-1.69-19.181c-0.64-7.162-1.299-14.324-1.938-21.486c-0.637-7.164-1.26-14.327-1.896-21.489
			c-0.651-7.331-1.29-14.663-1.98-21.988C81.721,45.522,81.793,43.907,81.294,42.367z M161.993,113.607
			c-0.401,0.021-0.804,0.058-1.204,0.059c-7.193,0.002-14.387,0-21.58,0.008c-0.387,0-0.802-0.122-1.229,0.178
			c0.599,6.648,1.199,13.321,1.807,20.052c0.508,0,0.871,0,1.238,0c5.211,0,10.42-0.004,15.629,0.004
			c1.781,0.002,3.562,0.033,5.341,0.052c0.002,10.7,0.004,21.401,0.005,32.103c-0.133-0.004-0.271,0.02-0.396-0.014
			c-7.158-1.929-14.312-3.869-21.473-5.783c-0.558-0.148-0.653-0.47-0.693-0.934c-0.28-3.314-0.565-6.626-0.857-9.938
			c-0.156-1.766-0.326-3.528-0.497-5.328c-6.779,0-13.48,0-20.2,0c0,0.354-0.024,0.649,0.002,0.942
			c0.448,5.082,0.901,10.168,1.358,15.25c0.443,4.882,0.905,9.763,1.319,14.648c0.055,0.659,0.324,0.88,0.921,1.044
			c8.731,2.402,17.456,4.826,26.181,7.256c4.78,1.332,9.556,2.686,14.331,4.029c0,7.375,0,14.746,0,22.025
			c0.447,0.202,0.664,0.1,0.891,0.035c3.848-1.063,7.695-2.111,11.543-3.18c13.344-3.702,26.684-7.417,40.036-11.1
			c0.753-0.207,1.117-0.498,1.015-1.287c-0.028-0.197,0.012-0.402,0.031-0.604c0.319-3.532,0.646-7.064,0.967-10.595
			c0.158-1.734,0.295-3.47,0.453-5.204c0.246-2.699,0.512-5.396,0.754-8.096c0.228-2.533,0.426-5.069,0.65-7.604
			c0.247-2.767,0.516-5.528,0.764-8.296c0.225-2.535,0.422-5.071,0.646-7.605c0.247-2.8,0.517-5.598,0.769-8.397
			c0.156-1.733,0.295-3.468,0.452-5.203c0.248-2.698,0.513-5.396,0.755-8.094c0.229-2.535,0.426-5.071,0.653-7.606
			c0.243-2.732,0.517-5.463,0.759-8.195c0.227-2.568,0.424-5.139,0.648-7.707c0.246-2.8,0.515-5.598,0.768-8.396
			c0.223-2.469,0.43-4.937,0.652-7.403c0.249-2.734,0.514-5.464,0.755-8.198c0.229-2.568,0.426-5.137,0.657-7.705
			c0.24-2.701,0.514-5.397,0.756-8.096c0.163-1.799,0.264-3.607,0.457-5.404c0.138-1.268,0.188-1.264-1.092-1.264
			c-21.187,0-42.369,0.005-63.553-0.018c-0.896,0-1.213,0.196-1.205,1.16c0.047,5.85,0.023,11.702,0.025,17.552
			c-0.438,0.019-0.87,0.052-1.307,0.052c-15.961,0.001-31.924,0-47.885,0.007c-0.422,0.002-0.871-0.127-1.342,0.185
			c0.595,6.618,1.188,13.264,1.783,19.875c0.469,0.208,0.876,0.124,1.271,0.124c15.425,0.006,30.849,0.004,46.272,0.007
			c0.403,0,0.806,0.026,1.207,0.039C161.999,99.897,161.997,106.753,161.993,113.607z"/>
		<path fill="#35A8DA" d="M162,72.754c0-5.85,0.021-11.702-0.023-17.552c-0.008-0.964,0.311-1.16,1.205-1.16
			c21.184,0.023,42.366,0.018,63.553,0.018c1.277,0,1.229-0.004,1.092,1.264c-0.193,1.797-0.294,3.605-0.457,5.404
			c-0.242,2.699-0.516,5.395-0.756,8.096c-0.231,2.568-0.43,5.137-0.657,7.705c-0.241,2.734-0.506,5.463-0.755,8.198
			c-0.223,2.466-0.432,4.934-0.652,7.403c-0.253,2.798-0.521,5.596-0.768,8.396c-0.225,2.568-0.422,5.139-0.648,7.707
			c-0.242,2.732-0.516,5.463-0.759,8.195c-0.229,2.535-0.426,5.071-0.653,7.606c-0.242,2.698-0.507,5.396-0.755,8.094
			c-0.157,1.735-0.296,3.47-0.452,5.203c-0.252,2.8-0.521,5.599-0.769,8.397c-0.226,2.535-0.422,5.071-0.646,7.605
			c-0.248,2.768-0.517,5.529-0.764,8.296c-0.225,2.535-0.424,5.071-0.65,7.604c-0.242,2.701-0.508,5.396-0.754,8.096
			c-0.158,1.734-0.295,3.47-0.453,5.204c-0.319,3.53-0.646,7.063-0.967,10.595c-0.021,0.2-0.061,0.405-0.031,0.604
			c0.104,0.789-0.262,1.08-1.015,1.287c-13.353,3.683-26.692,7.396-40.036,11.1c-3.848,1.068-7.695,2.117-11.543,3.18
			c-0.227,0.063-0.443,0.167-0.891-0.035c0-7.279,0-14.65,0-22.025c0.072-0.049,0.146-0.102,0.219-0.15
			c0.23-0.044,0.467-0.074,0.689-0.136c7.086-1.966,14.166-3.937,21.25-5.902c6.146-1.704,12.295-3.399,18.441-5.104
			c0.434-0.119,0.904-0.129,0.959-0.805c0.317-3.885,0.674-7.766,1.019-11.646c0.427-4.821,0.843-9.641,1.28-14.458
			c0.487-5.353,1.008-10.701,1.484-16.054c0.461-5.154,0.869-10.313,1.327-15.463c0.635-7.163,1.298-14.32,1.942-21.482
			c0.598-6.624,1.188-13.25,1.777-19.876c0.098-1.086,0.168-2.177,0.256-3.352c-0.426,0-0.723,0-1.02,0
			c-16.24,0-32.48,0-48.723,0.001c-0.301,0-0.604,0.033-0.902,0.05C161.997,72.825,161.999,72.79,162,72.754z"/>
		<path fill="#EAEAEA" d="M162.214,187.087c-0.073,0.049-0.146,0.101-0.219,0.151c-4.776-1.344-9.552-2.698-14.331-4.03
			c-8.725-2.431-17.449-4.854-26.181-7.256c-0.597-0.164-0.866-0.386-0.921-1.044c-0.414-4.885-0.876-9.766-1.319-14.648
			c-0.457-5.082-0.91-10.168-1.358-15.25c-0.026-0.293-0.002-0.59-0.002-0.943c6.72,0,13.421,0,20.2,0
			c0.171,1.8,0.341,3.563,0.497,5.33c0.292,3.311,0.577,6.623,0.857,9.937c0.04,0.464,0.136,0.784,0.693,0.935
			c7.161,1.912,14.313,3.854,21.472,5.782c0.127,0.033,0.266,0.011,0.397,0.015c0.067,0.025,0.14,0.052,0.207,0.076
			C162.21,173.123,162.21,180.105,162.214,187.087z"/>
		<path fill="#EAEAEA" d="M162.002,93.043c-0.4-0.013-0.804-0.039-1.207-0.039c-15.424-0.003-30.848-0.001-46.272-0.007
			c-0.395,0-0.802,0.084-1.271-0.124c-0.595-6.611-1.188-13.257-1.783-19.875c0.471-0.312,0.92-0.183,1.342-0.185
			c15.961-0.007,31.923-0.005,47.886-0.007c0.436,0,0.869-0.034,1.304-0.052c-0.001,0.035-0.003,0.07-0.003,0.105
			c-0.002,6.699-0.002,13.397-0.004,20.096L162.002,93.043z"/>
		<path fill="#35A8DA" d="M162.207,166.141c-0.068-0.025-0.139-0.052-0.207-0.078c-0.001-10.701-0.003-21.401-0.005-32.103
			c0-0.052-0.005-0.103-0.009-0.153c0.388,0.17,0.797,0.096,1.195,0.096c7.49,0.005,14.983,0.002,22.476,0.009
			c0.388,0.002,0.806-0.118,1.17,0.159c0,0.338,0.022,0.672-0.005,1.002c-0.262,3.01-0.534,6.02-0.807,9.027
			c-0.449,4.98-0.932,9.959-1.324,14.944c-0.069,0.899-0.457,1.153-1.211,1.356C176.384,162.296,169.297,164.223,162.207,166.141z"
			/>
		<path fill="#35A8DA" d="M161.993,113.607c0.004-6.854,0.006-13.71,0.009-20.564l-0.009-0.087C162.395,92.971,162.798,93,163.2,93
			c8.702,0.002,17.407,0,26.11,0.007c0.396,0,0.808-0.092,1.23,0.112c-0.012,0.155-0.014,0.315-0.027,0.478
			c-0.557,6.319-1.14,12.639-1.652,18.965c-0.07,0.87-0.305,1.118-1.182,1.115c-8.133-0.034-16.266-0.021-24.398-0.016
			c-0.432,0-0.874-0.084-1.291,0.104C161.986,113.712,161.99,113.661,161.993,113.607z"/>
		<path fill="#EAEAEA" d="M161.995,133.96c-1.779-0.019-3.56-0.05-5.341-0.052c-5.209-0.008-10.418-0.004-15.629-0.004
			c-0.367,0-0.73,0-1.238,0c-0.607-6.73-1.208-13.404-1.807-20.052c0.427-0.3,0.842-0.178,1.229-0.178
			c7.193-0.008,14.387-0.005,21.58-0.008c0.4-0.001,0.803-0.039,1.204-0.059c-0.003,0.054-0.007,0.105-0.003,0.157
			c-0.004,6.683-0.004,13.364-0.004,20.042C161.99,133.857,161.995,133.908,161.995,133.96z"/>
		<path fill="#FDFDFD" d="M161.986,133.807c0-6.68,0-13.359,0.004-20.042c0.417-0.186,0.859-0.102,1.291-0.102
			c8.134-0.005,16.267-0.018,24.398,0.016c0.877,0.003,1.11-0.246,1.182-1.115c0.514-6.326,1.097-12.646,1.652-18.965
			c0.014-0.163,0.018-0.323,0.027-0.478c-0.424-0.205-0.835-0.112-1.23-0.112C180.607,93,171.902,93.002,163.2,93
			c-0.402,0-0.806-0.03-1.207-0.044c0.002-6.699,0.002-13.397,0.004-20.096c0.3-0.017,0.603-0.05,0.903-0.05
			c16.24-0.001,32.48-0.001,48.722-0.001c0.297,0,0.594,0,1.019,0c-0.088,1.175-0.158,2.266-0.255,3.352
			c-0.59,6.626-1.181,13.252-1.778,19.876c-0.645,7.162-1.308,14.319-1.941,21.482c-0.458,5.152-0.866,10.31-1.327,15.463
			c-0.478,5.353-0.997,10.701-1.483,16.054c-0.438,4.817-0.854,9.637-1.281,14.458c-0.344,3.881-0.7,7.762-1.018,11.646
			c-0.056,0.674-0.525,0.686-0.961,0.805c-6.146,1.705-12.296,3.4-18.439,5.104c-7.084,1.966-14.165,3.937-21.25,5.902
			c-0.225,0.062-0.461,0.092-0.69,0.136c-0.004-6.98-0.004-13.964-0.007-20.947c7.09-1.918,14.177-3.845,21.273-5.74
			c0.754-0.202,1.142-0.457,1.211-1.355c0.394-4.984,0.875-9.964,1.324-14.943c0.271-3.009,0.545-6.019,0.807-9.028
			c0.027-0.33,0.005-0.664,0.005-1.003c-0.364-0.275-0.782-0.155-1.17-0.158c-7.491-0.008-14.984-0.004-22.476-0.01
			C162.783,133.902,162.374,133.977,161.986,133.807z"/>
	</g>
</g>
<g id="circle">
	<circle fill="none" stroke="#1673B5" stroke-width="12" stroke-miterlimit="10" cx="162" cy="126" r="142.2"/>
</g>
</svg>
