<?xml version="1.0" encoding="utf-8"?>
<!-- Generator: Adobe Illustrator 16.0.0, SVG Export Plug-In . SVG Version: 6.00 Build 0)  -->
<!DOCTYPE svg PUBLIC "-//W3C//DTD SVG 1.1//EN" "http://www.w3.org/Graphics/SVG/1.1/DTD/svg11.dtd">
<svg version="1.1" id="Layer_1" xmlns="http://www.w3.org/2000/svg" xmlns:xlink="http://www.w3.org/1999/xlink" x="0px" y="0px"
	 width="324px" height="324px" viewBox="0 0 324 324" enable-background="new 0 0 324 324" xml:space="preserve">
<g>
	<path fill="#E94536" d="M91.263,126.907c1.988-4.197,4.439-8.117,7.234-11.813c12.211-16.148,28.133-26.728,48.008-30.685
		c24.983-4.976,47.626,0.367,67.397,16.78c0.729,0.606,1.402,1.281,2.132,1.888c0.403,0.337,0.372,0.575,0.005,0.911
		c-0.568,0.521-1.098,1.083-1.645,1.628c-6.588,6.589-13.183,13.173-19.756,19.778c-0.496,0.5-0.766,0.566-1.326,0.053
		c-6.785-6.214-14.756-9.889-23.873-11.125c-20.552-2.789-39.259,7.956-48.576,25.079c-1.349,2.48-2.427,5.076-3.412,7.714
		c-1.737-1.328-3.484-2.645-5.212-3.985c-4.393-3.406-8.771-6.829-13.166-10.232C96.48,130.889,93.867,128.903,91.263,126.907z"/>
	<path fill="#34A752" d="M215.968,223.66c-3.711,3.541-7.848,6.515-12.28,9.066c-8.562,4.928-17.776,7.931-27.537,9.344
		c-6.246,0.902-12.521,1.221-18.811,0.766c-13.285-0.96-25.628-4.902-36.918-12c-12.441-7.82-22.045-18.277-28.822-31.32
		c-0.123-0.233-0.219-0.483-0.328-0.726c3.774-2.92,7.547-5.842,11.321-8.763c4.945-3.829,9.891-7.657,14.836-11.484
		c1.623,4.477,3.675,8.736,6.467,12.609c7.77,10.783,18.064,17.781,31.243,19.918c12.448,2.021,24.268-0.016,35.058-6.873
		c0.148-0.096,0.311-0.17,0.467-0.254c2.262,1.771,4.521,3.545,6.788,5.31C203.622,214.057,209.795,218.857,215.968,223.66z"/>
	<path fill="#557EBF" d="M215.968,223.66c-6.173-4.803-12.346-9.604-18.517-14.407c-2.268-1.765-4.526-3.539-6.788-5.31
		c3.831-2.717,7.192-5.907,9.872-9.789c2.972-4.305,4.928-9.034,5.997-14.151c0.175-0.832-0.026-0.991-0.833-0.989
		c-13.859,0.021-27.719,0.018-41.579,0.018c-1.204,0-1.204,0-1.204-1.182c0-9.646,0.016-19.29-0.023-28.935
		c-0.006-0.942,0.272-1.104,1.142-1.103c24.396,0.024,48.79,0.026,73.185-0.007c0.965-0.001,1.225,0.306,1.365,1.192
		c1.037,6.553,1.532,13.14,1.221,19.769c-0.75,15.938-4.928,30.789-14.205,43.979C222.793,216.734,219.619,220.41,215.968,223.66z"
		/>
	<path fill="#F8BB16" d="M117.429,178.543c-4.946,3.827-9.891,7.655-14.836,11.484c-3.774,2.921-7.547,5.843-11.321,8.763
		c-1.632-2.935-2.862-6.046-3.986-9.198c-2.168-6.078-3.53-12.337-4.203-18.759c-0.527-5.033-0.588-10.06-0.111-15.09
		c0.776-8.189,2.672-16.11,5.869-23.703c0.733-1.745,1.441-3.504,2.422-5.133c2.604,1.996,5.217,3.981,7.812,5.991
		c4.395,3.403,8.773,6.826,13.166,10.232c1.728,1.341,3.475,2.658,5.212,3.985c-1.106,3.479-1.917,7.015-2.316,10.652
		c-0.698,6.364-0.059,12.594,1.695,18.732C117.025,177.184,117.23,177.861,117.429,178.543z"/>
</g>
<circle fill="none" stroke="#FFFFFF" stroke-width="12" stroke-miterlimit="10" cx="162" cy="162" r="142.2"/>
</svg>
