<?xml version="1.0" encoding="iso-8859-1"?>
<!-- Generator: Adobe Illustrator 16.0.0, SVG Export Plug-In . SVG Version: 6.00 Build 0)  -->
<!DOCTYPE svg PUBLIC "-//W3C//DTD SVG 1.1//EN" "http://www.w3.org/Graphics/SVG/1.1/DTD/svg11.dtd">
<svg version="1.1" id="Layer_1" xmlns="http://www.w3.org/2000/svg" xmlns:xlink="http://www.w3.org/1999/xlink" x="0px" y="0px"
	 width="324px" height="324px" viewBox="0 0 324 324" style="enable-background:new 0 0 324 324;" xml:space="preserve">
<g>
	<path style="fill-rule:evenodd;clip-rule:evenodd;fill:#E94536;" d="M91.263,126.907c1.988-4.197,4.439-8.117,7.234-11.813
		c12.211-16.148,28.133-26.728,48.008-30.685c24.984-4.976,47.626,0.367,67.398,16.78c0.729,0.606,1.402,1.281,2.131,1.888
		c0.403,0.337,0.372,0.575,0.005,0.911c-0.569,0.521-1.097,1.083-1.645,1.628c-6.588,6.589-13.182,13.173-19.755,19.778
		c-0.497,0.5-0.766,0.566-1.326,0.053c-6.785-6.214-14.757-9.889-23.874-11.125c-20.552-2.789-39.259,7.956-48.575,25.079
		c-1.349,2.48-2.427,5.076-3.412,7.714c-1.737-1.328-3.484-2.645-5.212-3.985c-4.393-3.406-8.771-6.829-13.166-10.232
		C96.48,130.889,93.867,128.903,91.263,126.907z"/>
	<path style="fill-rule:evenodd;clip-rule:evenodd;fill:#34A752;" d="M215.968,223.66c-3.711,3.541-7.848,6.515-12.281,9.066
		c-8.561,4.929-17.776,7.931-27.536,9.344c-6.247,0.903-12.521,1.221-18.811,0.766c-13.285-0.96-25.628-4.902-36.918-12
		c-12.441-7.821-22.045-18.277-28.822-31.32c-0.123-0.234-0.219-0.484-0.328-0.726c3.774-2.92,7.547-5.842,11.321-8.763
		c4.945-3.829,9.891-7.657,14.836-11.484c1.623,4.477,3.675,8.736,6.467,12.61c7.77,10.782,18.064,17.78,31.243,19.918
		c12.448,2.02,24.268-0.017,35.058-6.874c0.149-0.095,0.311-0.17,0.467-0.253c2.262,1.77,4.521,3.544,6.788,5.309
		C203.622,214.057,209.795,218.858,215.968,223.66z"/>
	<path style="fill-rule:evenodd;clip-rule:evenodd;fill:#557EBF;" d="M215.968,223.66c-6.173-4.802-12.346-9.604-18.517-14.407
		c-2.268-1.765-4.526-3.539-6.788-5.309c3.831-2.717,7.192-5.908,9.872-9.789c2.972-4.306,4.928-9.035,5.997-14.152
		c0.175-0.832-0.026-0.991-0.833-0.99c-13.859,0.022-27.718,0.018-41.579,0.018c-1.204,0-1.204,0-1.204-1.181
		c0-9.646,0.015-19.29-0.024-28.935c-0.005-0.942,0.273-1.104,1.142-1.103c24.395,0.024,48.79,0.026,73.185-0.007
		c0.965-0.001,1.225,0.306,1.365,1.192c1.037,6.553,1.532,13.14,1.22,19.768c-0.75,15.938-4.927,30.79-14.204,43.979
		C222.793,216.734,219.619,220.41,215.968,223.66z"/>
	<path style="fill-rule:evenodd;clip-rule:evenodd;fill:#F8BB16;" d="M117.429,178.543c-4.946,3.827-9.891,7.655-14.836,11.484
		c-3.774,2.921-7.547,5.843-11.321,8.763c-1.632-2.935-2.862-6.046-3.986-9.198c-2.168-6.079-3.53-12.337-4.203-18.759
		c-0.527-5.033-0.588-10.06-0.111-15.09c0.776-8.189,2.672-16.11,5.869-23.703c0.733-1.745,1.441-3.504,2.422-5.133
		c2.604,1.996,5.217,3.981,7.812,5.991c4.395,3.403,8.773,6.826,13.166,10.232c1.728,1.341,3.475,2.658,5.212,3.985
		c-1.106,3.479-1.917,7.015-2.316,10.652c-0.698,6.364-0.059,12.595,1.695,18.732C117.025,177.183,117.23,177.861,117.429,178.543z"
		/>
</g>
<circle style="fill-rule:evenodd;clip-rule:evenodd;fill:none;stroke:#6C6E6E;stroke-width:12;stroke-miterlimit:10;" cx="162" cy="162" r="142.2"/>
</svg>
