<?xml version="1.0" encoding="utf-8"?>
<!-- Generator: Adobe Illustrator 16.0.0, SVG Export Plug-In . SVG Version: 6.00 Build 0)  -->
<!DOCTYPE svg PUBLIC "-//W3C//DTD SVG 1.1//EN" "http://www.w3.org/Graphics/SVG/1.1/DTD/svg11.dtd">
<svg version="1.1" id="Layer_1" xmlns="http://www.w3.org/2000/svg" xmlns:xlink="http://www.w3.org/1999/xlink" x="0px" y="0px"
	 width="324.167px" height="324.167px" viewBox="0 -36.167 324.167 324.167" enable-background="new 0 -36.167 324.167 324.167"
	 xml:space="preserve">
<g id="Layer_1_1_">
	<g>
		<g>
			<path fill="#FEBB2A" d="M77.334,208.521c0-55.201,0-110.402,0-165.637c56.451,0,112.904,0,169.498,0
				c0,55.189,0,110.415,0,165.637c-0.92,0.012-1.838,0.031-2.758,0.031c-49.074,0.004-98.148,0.004-147.225,0
				C90.346,208.553,83.839,208.533,77.334,208.521z M90.543,55.764c0,47.125,0,94.146,0,141.195c47.71,0,95.246,0,142.798,0
				c0-47.111,0-94.088,0-141.195C185.674,55.764,138.146,55.764,90.543,55.764z"/>
			<path fill="#B8A575" d="M77.334,208.521c6.505,0.012,13.011,0.031,19.516,0.031c49.075,0.004,98.149,0.004,147.226,0
				c0.918,0,1.838-0.02,2.756-0.031c-0.564,0.143-1.131,0.406-1.695,0.406c-24.256,0.021-48.51,0.02-72.764,0.02
				c-31.043,0-62.086,0.002-93.128-0.02C78.606,208.928,77.971,208.664,77.334,208.521z"/>
			<path fill="#442405" d="M90.543,55.764c47.602,0,95.13,0,142.798,0c0,47.107,0,94.084,0,141.195c-47.553,0-95.088,0-142.798,0
				C90.543,149.91,90.543,102.89,90.543,55.764z M205.26,159.346l0.041-0.041c0.053-0.18,0.104-0.361,0.156-0.545
				c0.021-14.882,0.045-29.765,0.068-44.649c0.105-0.036,0.209-0.073,0.313-0.109c-0.104-0.036-0.209-0.071-0.313-0.106
				c-0.02-1.03-0.037-2.061-0.053-3.09c0-1.123,0-2.246,0.002-3.369c-0.053-1.46-0.105-2.921-0.156-4.38
				c-0.199-0.067-0.396-0.134-0.596-0.201c-4.758,0-9.516,0-14.311,0c0,19.119,0,37.719,0,56.318
				c0.275,0.107,0.551,0.215,0.826,0.322c4.49,0,8.982,0,13.473,0C204.896,159.443,205.078,159.395,205.26,159.346z M140.345,87.069
				c-0.202,0.794-0.478,1.564-0.587,2.357c-0.354,2.538-0.439,5.13-1.011,7.614c-0.85,3.689-1.999,7.311-3.069,10.948
				c-2.234,7.591-4.514,15.17-6.749,22.762c-2.591,8.794-5.171,17.591-7.705,26.402c-0.206,0.709-0.028,1.529-0.028,2.246
				c5.173,0,10.001,0,14.678,0c1.664-6.043,3.26-11.842,4.834-17.555c6.482,0,12.492,0,18.489,0
				c0.333,0.653,0.751,1.239,0.948,1.892c1.378,4.583,2.684,9.189,4.086,13.765c0.248,0.805,0.834,1.508,1.156,2.07
				c5.094,0,9.826,0,14.854,0c0-0.852,0.152-1.664-0.029-2.393c-0.5-2-1.146-3.965-1.727-5.947
				c-1.865-6.379-3.734-12.755-5.592-19.136c-1.139-3.902-2.227-7.817-3.395-11.709c-2.207-7.35-4.467-14.684-6.68-22.032
				c-1.134-3.76-2.211-7.536-3.307-11.284C153.055,87.069,146.906,87.069,140.345,87.069z"/>
			<g id="XMLID_1_">
				<g>
					<path fill="#442405" d="M196.846,80.249c4.732,0.233,7.924,4.214,7.617,8.505c-0.186,4.168-3.844,7.762-7.734,7.609
						c-4.684-0.187-8.748-4.219-8.545-8.472C188.389,83.646,192.465,80.036,196.846,80.249z"/>
				</g>
			</g>
			<path fill="#FEBB2A" d="M140.345,87.069c6.563,0,12.71,0,19.169,0c1.096,3.748,2.173,7.523,3.307,11.284
				c2.213,7.348,4.473,14.682,6.68,22.032c1.168,3.892,2.256,7.807,3.395,11.709c1.855,6.381,3.727,12.757,5.592,19.136
				c0.58,1.98,1.227,3.945,1.727,5.947c0.182,0.729,0.029,1.541,0.029,2.393c-5.027,0-9.762,0-14.854,0
				c-0.322-0.563-0.908-1.266-1.156-2.07c-1.402-4.576-2.708-9.182-4.086-13.765c-0.197-0.652-0.615-1.238-0.947-1.892
				c-5.998,0-12.008,0-18.49,0c-1.574,5.713-3.17,11.512-4.834,17.555c-4.677,0-9.505,0-14.678,0c0-0.717-0.178-1.537,0.028-2.246
				c2.534-8.811,5.114-17.608,7.705-26.402c2.235-7.591,4.515-15.17,6.749-22.762c1.07-3.637,2.22-7.259,3.069-10.948
				c0.571-2.483,0.657-5.076,1.011-7.614C139.867,88.633,140.143,87.865,140.345,87.069z M156.108,128.038
				c-2.19-8.192-3.481-16.557-6.101-24.594c-0.289,0.006-0.578,0.012-0.867,0.019c-2.301,8.065-4.602,16.132-7.007,24.576
				C146.674,128.038,151.047,128.038,156.108,128.038z"/>
			<path fill="#FEBB2A" d="M190.412,159.174c0-18.6,0-37.2,0-56.319c4.797,0,9.555,0,14.311,0c0.199,0.067,0.396,0.134,0.596,0.201
				c0.053,1.459,0.105,2.92,0.156,4.38c0,1.123-0.002,2.246-0.002,3.369c0.018,1.029,0.033,2.06,0.053,3.09
				c-0.078,0.072-0.078,0.145,0.002,0.216c-0.023,14.884-0.047,29.767-0.07,44.651c-0.051,0.182-0.104,0.363-0.156,0.543
				l-0.041,0.041c-0.182,0.049-0.363,0.1-0.547,0.148c-4.488,0-8.98,0-13.473,0C190.965,159.387,190.688,159.281,190.412,159.174z"
				/>
			<path fill="#AA7E28" d="M205.473,110.806c0-1.123,0.002-2.246,0.002-3.369C205.475,108.56,205.473,109.683,205.473,110.806z"/>
			<path fill="#AA7E28" d="M190.412,159.174c0.275,0.107,0.553,0.213,0.826,0.322C190.965,159.387,190.688,159.281,190.412,159.174z
				"/>
			<path fill="#AA7E28" d="M205.318,103.056c-0.199-0.067-0.396-0.134-0.596-0.201C204.922,102.921,205.119,102.988,205.318,103.056
				z"/>
			<path fill="#AA7E28" d="M205.525,114.11c-0.08-0.071-0.08-0.144,0-0.216c0.104,0.035,0.209,0.071,0.313,0.107
				C205.734,114.039,205.631,114.075,205.525,114.11z"/>
			<path fill="#AA7E28" d="M205.301,159.305c0.053-0.18,0.104-0.361,0.156-0.543C205.404,158.943,205.354,159.125,205.301,159.305z"
				/>
			<path fill="#AA7E28" d="M204.713,159.494c0.184-0.051,0.363-0.1,0.547-0.148C205.078,159.395,204.896,159.443,204.713,159.494z"
				/>
			<path fill="#442405" d="M156.108,128.038c-5.062,0-9.435,0-13.975,0c2.406-8.444,4.707-16.511,7.007-24.576
				c0.289-0.006,0.578-0.012,0.867-0.019C152.627,111.479,153.918,119.846,156.108,128.038z"/>
		</g>
		<circle fill="#FEBB2A" cx="197.971" cy="89.783" r="8.072"/>
	</g>
</g>
<g id="circle">
	<circle fill="none" stroke="#442405" stroke-width="12" stroke-miterlimit="10" cx="162.084" cy="125.917" r="142.2"/>
</g>
</svg>
