<?xml version="1.0" encoding="utf-8"?>
<!-- Generator: Adobe Illustrator 16.0.0, SVG Export Plug-In . SVG Version: 6.00 Build 0)  -->
<!DOCTYPE svg PUBLIC "-//W3C//DTD SVG 1.1//EN" "http://www.w3.org/Graphics/SVG/1.1/DTD/svg11.dtd">
<svg version="1.1" id="Layer_1" xmlns="http://www.w3.org/2000/svg" xmlns:xlink="http://www.w3.org/1999/xlink" x="0px" y="0px"
	 width="323.833px" height="323.833px" viewBox="0 -35.833 323.833 323.833" enable-background="new 0 -35.833 323.833 323.833"
	 xml:space="preserve">
<g id="Layer_1_1_">
	<g>
		<path fill="#2A72E4" d="M175.13,62.796c7.16-8.211,14.32-16.423,21.632-24.807c5.938,4.949,11.688,9.736,17.434,14.533
			c11.66,9.739,23.277,19.532,35.014,29.181c1.979,1.627,2.684,3.187,2.587,5.804c-0.614,16.661-0.964,33.331-1.446,49.996
			c-0.466,16.017-1.008,32.028-1.445,48.045c-0.043,1.511-0.487,2.267-1.92,2.861c-21.78,9.038-43.539,18.131-65.291,27.245
			c-1.221,0.512-2.176,0.51-3.316-0.262c-11.727-7.935-23.486-15.816-35.236-23.714c3.846-2.245,8.188-3.239,12.311-4.771
			c2.482-0.923,4.347-2.269,5.627-4.519c18.775,0,37.554,0,56.439,0c0-37.336,0-74.255,0-111.482c-11.719,0-23.277,0-34.838,0
			C180.162,68.204,177.645,65.501,175.13,62.796z"/>
		<path fill="#F63361" d="M175.13,62.796c2.517,2.704,5.032,5.407,7.548,8.11c-25.369,0-50.74,0-76.421,0
			c0,13.457,0,26.509,0,39.561c-4.755-0.523-9.511-1.047-14.265-1.57c-6.508-0.707-13.016-1.413-19.965-2.168
			c8.779-23.693,17.43-47.045,26.146-70.572c5.01,0.651,9.926,1.174,14.84,1.768c5.096,0.617,10.297,0.85,15.443,1.354
			c8.009,0.784,16.008,1.652,24.021,2.382c1.936,0.177,3.16,1.18,4.422,2.486C162.939,50.399,169.047,56.585,175.13,62.796z"/>
		<path fill="#9C519C" d="M161.077,182.389c-1.282,2.25-3.146,3.596-5.629,4.519c-4.122,1.532-8.466,2.526-12.31,4.772
			c-2.502-0.054-4.623,1.234-6.863,2.03c-15.772,5.601-31.517,11.278-47.822,17.131c0.771-2.905,1.425-5.418,2.105-7.92
			c3.498-12.851,7.006-25.7,10.491-38.554c0.189-0.702,0.205-1.452,0.302-2.18c0.164-0.316,0.383-0.617,0.483-0.953
			c1.544-5.08,2.5-10.327,4.414-15.301c0,12.066,0,24.135,0,36.351c1.599,0,2.698-0.002,3.798,0.001
			C127.059,182.318,144.066,182.354,161.077,182.389z"/>
		<path fill="#E27A28" d="M106.25,145.934c-1.914,4.975-2.87,10.223-4.414,15.303c-0.102,0.334-0.32,0.636-0.484,0.951
			c-7.826-6.756-15.627-13.545-23.51-20.237c-1.277-1.085-1.215-1.9-0.529-3.252c4.595-9.063,9.109-18.164,13.635-27.262
			c0.406-0.816,0.697-1.691,1.044-2.539c4.756,0.523,9.512,1.047,14.267,1.57C106.255,122.29,106.252,134.111,106.25,145.934z"/>
		<path d="M106.25,145.934c0.002-11.822,0.005-23.645,0.007-35.467c0-13.052,0-26.104,0-39.561c25.681,0,51.052,0,76.421,0
			c11.561,0,23.119,0,34.838,0c0,37.228,0,74.146,0,111.482c-18.887,0-37.664,0-56.439,0c-17.008-0.035-34.018-0.07-51.027-0.104
			c-1.1-0.003-2.199-0.001-3.798-0.001C106.25,170.068,106.25,158.001,106.25,145.934z M140.725,123.079c0-9.903,0-19.406,0-29.186
			c2.121,0,4.108,0,6.139,0c0-2.922,0-5.567,0-8.252c-7.747,0-15.381,0-23.002,0c0,2.818,0,5.46,0,8.303c2.164,0,4.173,0,6.279,0
			c0,9.796,0,19.39,0,29.173c-2.16,0-4.18,0-6.289,0c0,2.911,0,5.633,0,8.347c7.791,0,15.426,0,23.024,0c0-2.854,0-5.521,0-8.385
			C144.859,123.079,142.938,123.079,140.725,123.079z M153.917,125.226c1.646,2.247,3.679,3.684,5.858,4.91
			c12.298,6.913,25.593-0.696,25.593-14.637c0.001-6.946,0-13.894,0-20.84c0-3.022,0-6.044,0-8.981c-3.673,0-7.036,0-10.479,0
			c0,1.314,0.002,2.42,0,3.524c0,8.8,0.014,17.598-0.015,26.397c-0.008,2.598-0.546,5.068-3.086,6.398
			c-2.739,1.435-5.399,0.813-7.843-0.841c-1.279-0.865-2.441-1.902-3.756-2.939C158.107,120.544,156.082,122.807,153.917,125.226z
			 M116.991,168.214c13.839,0,27.416,0,40.952,0c0-2.428,0-4.694,0-6.916c-13.739,0-27.316,0-40.952,0
			C116.991,163.658,116.991,165.857,116.991,168.214z"/>
		<path fill="#FEFEFE" d="M140.725,123.079c2.213,0,4.135,0,6.151,0c0,2.864,0,5.53,0,8.385c-7.601,0-15.233,0-23.024,0
			c0-2.714,0-5.436,0-8.347c2.109,0,4.129,0,6.289,0c0-9.783,0-19.377,0-29.173c-2.106,0-4.115,0-6.279,0c0-2.843,0-5.484,0-8.303
			c7.621,0,15.255,0,23.002,0c0,2.685,0,5.33,0,8.252c-2.029,0-4.018,0-6.139,0C140.725,103.672,140.725,113.175,140.725,123.079z"
			/>
		<path fill="#FEFEFE" d="M153.917,125.226c2.165-2.419,4.19-4.682,6.274-7.008c1.313,1.037,2.476,2.074,3.754,2.939
			c2.443,1.653,5.104,2.275,7.844,0.841c2.54-1.33,3.078-3.801,3.086-6.398c0.027-8.8,0.014-17.598,0.016-26.397
			c0-1.104,0-2.21,0-3.524c3.441,0,6.807,0,10.479,0c0,2.938,0,5.959,0,8.981c0,6.946,0.001,13.894,0,20.84
			c0,13.939-13.295,21.55-25.594,14.637C157.596,128.91,155.563,127.473,153.917,125.226z"/>
		<path fill="#FEFEFE" d="M116.991,168.214c0-2.356,0-4.557,0-6.916c13.636,0,27.213,0,40.952,0c0,2.222,0,4.488,0,6.916
			C144.407,168.214,130.83,168.214,116.991,168.214z"/>
	</g>
</g>
<g id="circle">
	<circle fill="none" stroke="#F63361" stroke-width="12" stroke-miterlimit="10" cx="161.916" cy="126.084" r="142.2"/>
</g>
</svg>
