<?xml version="1.0" encoding="iso-8859-1"?>
<!-- Generator: Adobe Illustrator 16.0.0, SVG Export Plug-In . SVG Version: 6.00 Build 0)  -->
<!DOCTYPE svg PUBLIC "-//W3C//DTD SVG 1.1//EN" "http://www.w3.org/Graphics/SVG/1.1/DTD/svg11.dtd">
<svg version="1.1" id="Layer_1" xmlns="http://www.w3.org/2000/svg" xmlns:xlink="http://www.w3.org/1999/xlink" x="0px" y="0px"
	 width="324px" height="324px" viewBox="0 0 324 324" style="enable-background:new 0 0 324 324;" xml:space="preserve">
<path style="fill-rule:evenodd;clip-rule:evenodd;fill:#1C75BC;stroke:#1C75BC;stroke-width:0.7377;stroke-miterlimit:10;" d="
	M247.539,164.85c0,20.744-0.225,61.835-0.225,61.835h-27.846c0,0-5.043-5.914-7.793-8.901c-28.945,0-57.85,0-86.842,0
	c-2.685,2.913-5.287,5.731-8.214,8.901c-8.76,0-17.737,0-27.313,0c0-20.778,0-40.996,0-61.835
	C141.923,164.85,194.188,164.85,247.539,164.85z M105.337,191.01 M105.202,183.267"/>
<path style="fill-rule:evenodd;clip-rule:evenodd;fill:#F7941E;stroke:#F7941E;stroke-width:0.7377;stroke-miterlimit:10;" d="
	M88.861,133.496c0,0,9.139-21.755,13.771-32.781c8.814,0,17.19,0,26.133,0c0,11.255,0,32.432,0,32.432L88.861,133.496z"/>
<path style="fill-rule:evenodd;clip-rule:evenodd;fill:#BCBEC0;stroke:#BCBEC0;stroke-width:0.7377;stroke-miterlimit:10;" d="
	M186.406,135.604c0,7.58,0,16.018,0,25.189c-9.428,0-18.344,0-27.9,0c0-9.044,0-17.724,0-25.695
	c3.938-5.691,11.816-17.473,11.816-17.473h3.916C174.238,117.625,181.9,128.947,186.406,135.604z"/>
<path style="fill-rule:evenodd;clip-rule:evenodd;fill:#BCBEC0;stroke:#BCBEC0;stroke-width:0.7377;stroke-miterlimit:10;" d="
	M247.5,160.027c-7.629,0-14.662,0-22.209,0c0-6.986,0-20.737,0-20.737l22.209-0.081C247.5,139.209,247.5,152.947,247.5,160.027z"/>
<path style="fill-rule:evenodd;clip-rule:evenodd;fill:#6D6E71;stroke:#6D6E71;stroke-width:0.7377;stroke-miterlimit:10;" d="
	M133.358,106.305c0,0,9.88,0,14.276,0c2.34,2.455,7.992,8.376,7.992,8.376l-5.561,2.944l5.357,3.753c0,0-5.063,5.321-7.37,7.741
	c-4.654,0-14.695,0-14.695,0V106.305z"/>
<path style="fill-rule:evenodd;clip-rule:evenodd;fill:#F7941E;stroke:#F7941E;stroke-width:0.7377;stroke-miterlimit:10;" d="
	M241.592,133.989c-3.654,0-7.283,0-11.371,0c-0.316-3.702-0.586-6.906-0.896-10.555c-1.496-0.661-3.184-1.402-5.328-2.347
	c0-2.151,0-4.498,0-6.575c2.988-2.084,5.705-3.979,8.424-5.874C236.762,111.565,241.215,123.59,241.592,133.989z"/>
<path style="fill-rule:evenodd;clip-rule:evenodd;fill:#BCBEC0;stroke:#BCBEC0;stroke-width:0.7377;stroke-miterlimit:10;" d="
	M220.193,151.422c0,2.927,0,5.287,0,8.39c-9.521,0-18.938,0-28.994,0c0-2.771,0-5.288,0-8.39
	C200.75,151.422,209.936,151.422,220.193,151.422z"/>
<rect x="105.202" y="180.508" style="fill-rule:evenodd;clip-rule:evenodd;stroke:#000000;stroke-width:0.7377;stroke-miterlimit:10;" width="37.437" height="2.653"/>
<rect x="105.202" y="188.622" style="fill-rule:evenodd;clip-rule:evenodd;stroke:#000000;stroke-width:0.7377;stroke-miterlimit:10;" width="37.437" height="2.653"/>
<rect x="105.202" y="196.948" style="fill-rule:evenodd;clip-rule:evenodd;stroke:#000000;stroke-width:0.7377;stroke-miterlimit:10;" width="37.437" height="2.653"/>
<rect x="144.033" y="137.605" style="fill-rule:evenodd;clip-rule:evenodd;fill:#BCBEC0;stroke:#BCBEC0;stroke-width:0.7377;stroke-miterlimit:10;" width="10.17" height="10.17"/>
<rect x="144.033" y="150.531" style="fill-rule:evenodd;clip-rule:evenodd;fill:#BCBEC0;stroke:#BCBEC0;stroke-width:0.7377;stroke-miterlimit:10;" width="10.17" height="10.17"/>
<rect x="88.861" y="137.605" style="fill-rule:evenodd;clip-rule:evenodd;fill:#BCBEC0;stroke:#BCBEC0;stroke-width:0.7377;stroke-miterlimit:10;" width="51.568" height="23.096"/>
<path style="fill-rule:evenodd;clip-rule:evenodd;fill:#BCBEC0;stroke:#BCBEC0;stroke-width:0.7377;stroke-miterlimit:10;" d="
	M220.193,139.209c0,2.927,0,5.287,0,8.39c-9.521,0-18.938,0-28.994,0c0-2.771,0-5.288,0-8.39
	C200.75,139.209,209.936,139.209,220.193,139.209z"/>
<path style="fill-rule:evenodd;clip-rule:evenodd;fill:#FFDE17;stroke:#FFDE17;stroke-width:0.7377;stroke-miterlimit:10;" d="
	M175.164,146.572c0,1.426-1.156,2.581-2.582,2.581S170,147.998,170,146.572c0-1.427,1.156-2.582,2.582-2.582
	c0.355,0,0.748,0.417,1.004,0.202c9.307-7.764,1.125,0.767,1.383,1.394C175.094,145.891,175.164,146.223,175.164,146.572z"/>
<path style="fill-rule:evenodd;clip-rule:evenodd;fill:#BE1E2D;stroke:#BE1E2D;stroke-width:0.7377;stroke-miterlimit:10;" d="
	M125.06,150.674c0,1.426-1.156,2.582-2.582,2.582s-2.582-1.156-2.582-2.582s1.156-2.582,2.582-2.582
	c0.355,0,0.748,0.418,1.005,0.203c9.307-7.764,1.123,0.767,1.382,1.394C124.99,149.992,125.06,150.325,125.06,150.674z"/>
<path style="fill-rule:evenodd;clip-rule:evenodd;fill:#BE1E2D;stroke:#BE1E2D;stroke-width:0.7377;stroke-miterlimit:10;" d="
	M106.341,150.674c0,1.426-1.156,2.582-2.582,2.582s-2.582-1.156-2.582-2.582s1.156-2.582,2.582-2.582
	c0.356,0,0.748,0.418,1.006,0.203c9.307-7.764,1.123,0.767,1.381,1.394C106.271,149.992,106.341,150.325,106.341,150.674z"/>
<path style="fill-rule:evenodd;clip-rule:evenodd;fill:#FFDE17;stroke:#FFDE17;stroke-width:0.7377;stroke-miterlimit:10;" d="
	M114.39,118.625c0,1.427-1.156,2.582-2.582,2.582c-1.427,0-2.582-1.155-2.582-2.582c0-1.426,1.155-2.581,2.582-2.581
	c0.355,0,0.748,0.417,1.004,0.202c9.307-7.764,1.123,0.768,1.383,1.395C114.32,117.944,114.39,118.277,114.39,118.625z"/>
<circle style="fill-rule:evenodd;clip-rule:evenodd;fill:none;stroke:#F7941E;stroke-width:12;stroke-miterlimit:10;" cx="168.2" cy="163.699" r="142.2"/>
</svg>
