<?xml version="1.0" encoding="iso-8859-1"?>
<!-- Generator: Adobe Illustrator 16.0.0, SVG Export Plug-In . SVG Version: 6.00 Build 0)  -->
<!DOCTYPE svg PUBLIC "-//W3C//DTD SVG 1.1//EN" "http://www.w3.org/Graphics/SVG/1.1/DTD/svg11.dtd">
<svg version="1.1" id="Layer_1" xmlns="http://www.w3.org/2000/svg" xmlns:xlink="http://www.w3.org/1999/xlink" x="0px" y="0px"
	 width="324px" height="324px" viewBox="0 0 324 324" style="enable-background:new 0 0 324 324;" xml:space="preserve">
<path style="fill-rule:evenodd;clip-rule:evenodd;fill:#A7A9AC;" d="M236.537,132.671c0-16.065,0-31.181,0-45.415
	c-4.487-4.487-8.525-8.526-12.678-12.678c-47.88,0-96.093,0-144.191,0c-3.923,3.924-7.744,7.742-11.517,11.508
	c0,3.915,0,7.777,0,12.37c15.907,0,31.549,0,47.297,0c0,9.731,0.152,18.714-0.078,27.688c-0.081,2.859,0.941,4.733,3.21,6.528
	C157.504,132.671,196.656,132.671,236.537,132.671z"/>
<path style="fill-rule:evenodd;clip-rule:evenodd;fill:#A7A9AC;" d="M256.061,249.422c-1.391-9.979-6.582-14.87-15.195-14.947
	c-5.393-0.045-10.795-0.01-16.196-0.01c-2.358-2.507-5.481-4.452-6.001-8.076c-4.241,0-8.34,0-12.316,0
	c-0.423,2.972,0.721,5.533-0.854,7.847c-3.89,0-7.751,0-11.43,0c-1.936-2.675,0.51-5.904-1.732-8.33c-3.528,0-7.109,0-12.044,0
	c-2.059,2.507-4.788,5.798-6.934,8.401c-8.235,0-15.396,0-21.907,0c-4.399-1.707-2.878-5.727-4.259-8.218
	c-12.696,0-25.198,0-37.497,0c-1.883,2.72,0.651,5.966-1.725,8.331c-6.458,0-12.917,0-19.179,0c-2.667,2.658-5.201,5.2-8.024,8.023
	c0.755,1.927-0.792,4.504,0.932,6.979C139.443,249.422,197.307,249.422,256.061,249.422z"/>
<path style="fill-rule:evenodd;clip-rule:evenodd;fill:#6D6E71;" d="M138.323,219.13c2.175-1.727,3.239-3.546,3.168-6.431
	c-0.237-10.057-0.087-20.113-0.087-30.17c0-14.27,0-28.541,0-42.661c-9.114,0-17.545,0-25.956,0c0,23.868,0,47.211,0.02,70.544
	c0,3.13-0.917,6.614,3.554,8.718C125.021,219.13,131.743,219.13,138.323,219.13z"/>
<path style="fill-rule:evenodd;clip-rule:evenodd;fill:#6D6E71;" d="M75.715,124.354c-0.239-7.188-0.476-14.438-0.697-21.16
	c-3.748-1.328-4.319,1.611-6.079,2.684c0,7.893,0,15.784,0,23.535c2.568,2.578,5.103,5.104,7.601,7.602c8.728,0,17.613,0,26.176,0
	c2.612-2.604,4.899-4.892,6.924-6.924c0-9.15,0-18.044,0-27.142c-1.304,0-2.271,0-3.994,0c0,7.083,0,14.104,0,21.204
	c-2.439,0-4.136,0-6.564,0c0-7.179,0-14.2,0-21.098c-2.463-0.317-4.18-0.757-6.581,0.545c0,6.617,0,13.628,0,20.465
	c-2.447,0-4.136,0-6.572,0c0-7.276,0-14.297,0-21.265c-1.752,0.025-2.878-0.475-4.391,1.653c0,5.684,0,12.414-0.036,19.153
	c0,0.256-0.466,0.511-0.695,0.749C79.331,124.354,77.896,124.354,75.715,124.354z"/>
<path style="fill-rule:evenodd;clip-rule:evenodd;fill:none;" d="M256.061,249.422c-58.754,0-116.618,0-174.36,0
	c-1.724-2.475-0.177-5.052-0.932-6.979c2.823-2.823,5.357-5.365,8.024-8.023c6.262,0,12.722,0,19.179,0
	c2.376-2.365-0.158-5.611,1.725-8.331c12.299,0,24.801,0,37.497,0c1.381,2.491-0.14,6.511,4.259,8.218c6.511,0,13.672,0,21.907,0
	c2.146-2.604,4.875-5.895,6.934-8.401c4.935,0,8.516,0,12.044,0c2.242,2.426-0.203,5.655,1.732,8.33c3.679,0,7.54,0,11.43,0
	c1.574-2.313,0.431-4.875,0.854-7.847c3.977,0,8.075,0,12.316,0c0.52,3.624,3.643,5.569,6.001,8.076
	c5.401,0,10.804-0.035,16.196,0.01C249.479,234.552,254.67,239.443,256.061,249.422z"/>
<path style="fill-rule:evenodd;clip-rule:evenodd;fill:none;" d="M138.323,219.13c-6.58,0-13.302,0-19.302,0
	c-4.47-2.104-3.554-5.588-3.554-8.718c-0.02-23.333-0.02-46.676-0.02-70.544c8.411,0,16.842,0,25.956,0c0,14.12,0,28.392,0,42.661
	c0,10.057-0.15,20.113,0.087,30.17C141.563,215.584,140.498,217.403,138.323,219.13z"/>
<circle style="fill-rule:evenodd;clip-rule:evenodd;fill:none;stroke:#BE1E2D;stroke-width:12;stroke-miterlimit:10;" cx="162" cy="162" r="142.2"/>
<polygon style="fill-rule:evenodd;clip-rule:evenodd;fill:#BE1E2D;" points="216.21,163.767 204,174.647 195.543,174.647 
	182.877,163.767 182.877,139.868 216.21,139.868 "/>
<polygon style="fill-rule:evenodd;clip-rule:evenodd;" points="203.693,193.996 199.545,200.827 195.395,193.996 195.395,175.929 
	203.693,175.929 "/>
<circle style="fill-rule:evenodd;clip-rule:evenodd;fill:none;stroke:#FFFFFF;stroke-width:6;stroke-miterlimit:10;" cx="154.751" cy="103.625" r="20.583"/>
<circle style="fill-rule:evenodd;clip-rule:evenodd;fill:#009444;" cx="190.859" cy="116.017" r="5.85"/>
<circle style="fill-rule:evenodd;clip-rule:evenodd;fill:#BE1E2D;" cx="208.227" cy="116.017" r="5.85"/>
</svg>
