<?xml version="1.0" encoding="utf-8"?>
<!-- Generator: Adobe Illustrator 16.0.0, SVG Export Plug-In . SVG Version: 6.00 Build 0)  -->
<!DOCTYPE svg PUBLIC "-//W3C//DTD SVG 1.1//EN" "http://www.w3.org/Graphics/SVG/1.1/DTD/svg11.dtd">
<svg version="1.1" id="Layer_1" xmlns="http://www.w3.org/2000/svg" xmlns:xlink="http://www.w3.org/1999/xlink" x="0px" y="0px"
	 width="324px" height="324px" viewBox="0 0 324 324" enable-background="new 0 0 324 324" xml:space="preserve">
<circle fill="none" stroke="#000000" stroke-width="12" stroke-miterlimit="10" cx="162" cy="162" r="142.2"/>
<g>
	<path fill-rule="evenodd" clip-rule="evenodd" d="M186.801,151.122c-2.407,4.553-4.814,9.106-7.222,13.66
		c-0.112,0.211-0.217,0.428-0.34,0.633c-0.855,1.431-1.897,1.446-2.68-0.018c-1.411-2.642-2.768-5.313-4.149-7.97
		c-1.123-2.16-2.249-4.317-3.651-6.475c0,0.394,0,0.789,0,1.183c0,8.199,0.002,16.398-0.002,24.598
		c-0.001,1.399-0.588,1.988-1.837,1.879c-0.884-0.078-1.404-0.524-1.433-1.446c-0.014-0.439-0.006-0.88-0.006-1.32
		c0-9.919-0.005-19.838,0.007-29.757c0.001-0.966-0.252-2.101,1.052-2.513c1.069-0.337,2.057,0.155,2.807,1.535
		c1.524,2.807,2.975,5.654,4.449,8.487c1.34,2.574,2.673,5.153,4.13,7.964c1.299-2.502,2.484-4.783,3.667-7.065
		c1.506-2.908,3.001-5.821,4.523-8.72c0.276-0.525,0.63-1.019,1.003-1.483c0.62-0.771,1.552-1.111,2.337-0.613
		c0.497,0.316,0.862,1.229,0.865,1.875c0.053,10.079,0.037,20.158,0.037,30.237c0,0.4,0.009,0.801-0.002,1.2
		c-0.031,1.109-0.541,1.623-1.608,1.629c-1.079,0.007-1.647-0.497-1.657-1.594c-0.024-2.8-0.009-5.6-0.01-8.399
		c0-5.479,0.001-10.959-0.002-16.438c0-0.343-0.03-0.685-0.047-1.028C186.955,151.149,186.878,151.135,186.801,151.122z"/>
	<path fill-rule="evenodd" clip-rule="evenodd" d="M88.199,150.894c0,8.639-0.008,17.277,0.011,25.916
		c0.002,0.956-0.182,1.663-1.274,1.798c-1.234,0.151-1.891-0.4-1.892-1.654c-0.005-10.561-0.014-21.121,0.03-31.68
		c0.002-0.542,0.361-1.401,0.761-1.548c0.575-0.211,1.466-0.099,1.991,0.236c0.594,0.378,1.021,1.11,1.367,1.769
		c2.548,4.841,5.058,9.703,7.58,14.557c0.183,0.352,0.369,0.702,0.659,1.254c0.986-1.889,1.899-3.629,2.805-5.374
		c1.784-3.438,3.539-6.892,5.364-10.308c0.403-0.753,0.935-1.537,1.61-2.024c1.297-0.937,2.582-0.194,2.583,1.398
		c0.007,10.6,0.006,21.2,0,31.8c0,1.136-0.498,1.61-1.588,1.59c-1.06-0.02-1.562-0.533-1.563-1.656
		c-0.005-8.239-0.002-16.48-0.002-24.72c0-0.419,0-0.838,0-1.258c-0.078-0.017-0.155-0.034-0.232-0.05
		c-1.467,2.769-2.935,5.537-4.4,8.307c-1.009,1.906-1.968,3.841-3.048,5.705c-0.347,0.598-1.002,1.386-1.534,1.399
		c-0.512,0.014-1.225-0.767-1.543-1.361c-2.374-4.437-4.671-8.914-6.996-13.377c-0.141-0.271-0.313-0.524-0.472-0.786
		C88.343,150.849,88.271,150.871,88.199,150.894z"/>
	<path fill-rule="evenodd" clip-rule="evenodd" d="M144.561,170.583c0-0.425,0-0.849,0-1.272c0-7.996-0.002-15.991,0.002-23.987
		c0.001-1.43,0.511-1.906,1.863-1.808c0.898,0.065,1.39,0.472,1.378,1.436c-0.023,1.839-0.005,3.678-0.005,5.517
		c0,8.675-0.001,17.35,0.002,26.026c0,0.85,0.101,1.745-0.987,2.048c-1.109,0.31-1.896-0.22-2.391-1.131
		c-1.198-2.21-2.341-4.45-3.49-6.687c-3.138-6.106-6.267-12.217-9.403-18.324c-0.143-0.277-0.32-0.537-0.689-1.15
		c-0.039,0.777-0.079,1.214-0.08,1.65c-0.003,7.956,0,15.912-0.005,23.867c-0.001,1.422-0.676,2.036-1.967,1.827
		c-0.771-0.124-1.219-0.554-1.259-1.354c-0.014-0.279-0.01-0.56-0.01-0.84c0-10.274,0-20.548-0.001-30.823
		c0-0.802-0.117-1.685,0.904-1.979c1.026-0.295,1.94-0.014,2.507,0.911c0.687,1.12,1.307,2.284,1.903,3.456
		c3.838,7.541,7.662,15.089,11.49,22.634C144.404,170.595,144.482,170.589,144.561,170.583z"/>
	<path fill-rule="evenodd" clip-rule="evenodd" d="M200.258,170.429c-0.694,2.33-1.359,4.587-2.039,6.84
		c-0.375,1.242-0.997,1.606-2.11,1.27c-1.043-0.316-1.341-0.951-0.973-2.149c3.231-10.531,6.475-21.058,9.69-31.593
		c0.329-1.08,0.976-1.61,2.077-1.598c1.074,0.012,1.771,0.463,2.106,1.568c3.216,10.576,6.464,21.143,9.695,31.714
		c0.32,1.046-0.036,1.698-1.043,2.032c-1.072,0.356-1.719,0.023-2.074-1.125c-0.636-2.059-1.216-4.136-1.896-6.18
		c-0.108-0.327-0.611-0.742-0.937-0.746C208.638,170.411,204.521,170.429,200.258,170.429z M207.015,148.818
		c-0.081,0.012-0.162,0.023-0.243,0.036c-1.874,6.198-3.748,12.396-5.646,18.673c3.904,0,7.641,0,11.511,0
		C210.743,161.226,208.879,155.022,207.015,148.818z"/>
	<path fill-rule="evenodd" clip-rule="evenodd" d="M231.479,158.146c2.361-4.505,4.603-8.783,6.85-13.058
		c0.204-0.387,0.42-0.775,0.683-1.124c0.599-0.795,1.368-0.729,2.14-0.312c0.81,0.438,0.985,1.146,0.588,1.937
		c-0.661,1.32-1.379,2.612-2.075,3.915c-1.9,3.556-3.784,7.122-5.722,10.658c-0.354,0.645-0.337,1.126,0.007,1.754
		c2.534,4.621,5.034,9.26,7.546,13.893c0.366,0.676,0.754,1.342,0.201,2.114c-0.896,1.254-2.193,1.094-2.993-0.414
		c-2.282-4.303-4.546-8.615-6.818-12.923c-0.093-0.176-0.194-0.348-0.383-0.683c-0.242,0.411-0.444,0.723-0.616,1.049
		c-2.184,4.129-4.354,8.264-6.55,12.387c-0.404,0.759-0.756,1.673-1.944,1.34c-1.325-0.371-1.721-1.378-1.004-2.717
		c2.466-4.612,4.924-9.229,7.451-13.807c0.471-0.853,0.426-1.473-0.021-2.294c-2.476-4.561-4.896-9.152-7.332-13.735
		c-0.429-0.808-0.78-1.638,0.144-2.355c0.996-0.773,1.975-0.549,2.659,0.714c1.598,2.948,3.133,5.929,4.692,8.897
		C229.776,154.896,230.568,156.409,231.479,158.146z"/>
	<path fill-rule="evenodd" clip-rule="evenodd" d="M120.319,161.054c0,5.232,0.002,10.466-0.001,15.698
		c-0.001,1.325-0.468,1.86-1.602,1.87c-1.156,0.011-1.632-0.503-1.632-1.835c-0.005-10.506-0.005-21.012,0-31.517
		c0-1.351,0.421-1.778,1.659-1.758c1.213,0.02,1.575,0.437,1.576,1.843C120.32,150.588,120.319,155.821,120.319,161.054z"/>
	<path fill-rule="evenodd" clip-rule="evenodd" d="M155.081,160.93c0-5.232-0.002-10.464,0.001-15.696
		c0.001-1.336,0.345-1.708,1.546-1.722c1.236-0.014,1.647,0.412,1.647,1.77c0.004,10.504,0.004,21.007,0,31.511
		c0,1.311-0.482,1.833-1.635,1.829c-1.135-0.003-1.559-0.506-1.56-1.877C155.08,171.475,155.081,166.202,155.081,160.93z"/>
	<path fill-rule="evenodd" clip-rule="evenodd" fill="#FFFFFF" d="M207.015,148.818c1.864,6.204,3.729,12.408,5.621,18.708
		c-3.87,0-7.606,0-11.511,0c1.898-6.276,3.772-12.475,5.646-18.673C206.853,148.841,206.934,148.83,207.015,148.818z"/>
</g>
</svg>
