<?xml version="1.0" encoding="utf-8"?>
<!-- Generator: Adobe Illustrator 16.0.0, SVG Export Plug-In . SVG Version: 6.00 Build 0)  -->
<!DOCTYPE svg PUBLIC "-//W3C//DTD SVG 1.1//EN" "http://www.w3.org/Graphics/SVG/1.1/DTD/svg11.dtd">
<svg version="1.1" xmlns="http://www.w3.org/2000/svg" xmlns:xlink="http://www.w3.org/1999/xlink" x="0px" y="0px" width="324px"
	 height="324px" viewBox="0 0 324 324" style="enable-background:new 0 0 324 324;" xml:space="preserve">
<style type="text/css">
<![CDATA[
	.st0{fill-rule:evenodd;clip-rule:evenodd;fill:#3AA649;}
	.st1{fill-rule:evenodd;clip-rule:evenodd;fill:#3FA748;}
	.st2{fill-rule:evenodd;clip-rule:evenodd;fill:#A1A07B;}
	.st3{fill-rule:evenodd;clip-rule:evenodd;fill:#A7A582;}
	.st4{fill-rule:evenodd;clip-rule:evenodd;fill:#40A44D;}
	.st5{fill-rule:evenodd;clip-rule:evenodd;fill:#42A848;}
	.st6{fill-rule:evenodd;clip-rule:evenodd;fill:#45A949;}
	.st7{fill-rule:evenodd;clip-rule:evenodd;fill:#49AC4D;}
	.st8{fill-rule:evenodd;clip-rule:evenodd;fill:#ACAA88;}
	.st9{fill-rule:evenodd;clip-rule:evenodd;fill:#169B48;}
	.st10{fill-rule:evenodd;clip-rule:evenodd;fill:#179B48;}
	.st11{fill-rule:evenodd;clip-rule:evenodd;fill:#4BAD4E;}
	.st12{fill-rule:evenodd;clip-rule:evenodd;fill:#199C49;}
	.st13{fill-rule:evenodd;clip-rule:evenodd;fill:#4DAF51;}
	.st14{fill-rule:evenodd;clip-rule:evenodd;fill:#B4B190;}
	.st15{fill-rule:evenodd;clip-rule:evenodd;fill:#1E8341;}
	.st16{fill-rule:evenodd;clip-rule:evenodd;fill:#1E9E49;}
	.st17{fill-rule:evenodd;clip-rule:evenodd;fill:#B9B798;}
	.st18{fill-rule:evenodd;clip-rule:evenodd;fill:#51B054;}
	.st19{fill-rule:evenodd;clip-rule:evenodd;fill:#54B256;}
	.st20{fill-rule:evenodd;clip-rule:evenodd;fill:#55B258;}
	.st21{fill-rule:evenodd;clip-rule:evenodd;fill:#8C956A;}
	.st22{fill-rule:evenodd;clip-rule:evenodd;fill:#59B45C;}
	.st23{fill-rule:evenodd;clip-rule:evenodd;fill:#208441;}
	.st24{fill-rule:evenodd;clip-rule:evenodd;fill:#228642;}
	.st25{fill-rule:evenodd;clip-rule:evenodd;fill:#228A43;}
	.st26{fill-rule:evenodd;clip-rule:evenodd;fill:#229D48;}
	.st27{fill-rule:evenodd;clip-rule:evenodd;fill:#238943;}
	.st28{fill-rule:evenodd;clip-rule:evenodd;fill:#238D44;}
	.st29{fill-rule:evenodd;clip-rule:evenodd;fill:#23A049;}
	.st30{fill-rule:evenodd;clip-rule:evenodd;fill:#249E48;}
	.st31{fill-rule:evenodd;clip-rule:evenodd;fill:#25A049;}
	.st32{fill-rule:evenodd;clip-rule:evenodd;fill:#269145;}
	.st33{fill-rule:evenodd;clip-rule:evenodd;fill:#279346;}
	.st34{fill-rule:evenodd;clip-rule:evenodd;fill:#5BB55F;}
	.st35{fill-rule:evenodd;clip-rule:evenodd;fill:#29A149;}
	.st36{fill-rule:evenodd;clip-rule:evenodd;fill:#5EB762;}
	.st37{fill-rule:evenodd;clip-rule:evenodd;fill:#C1BFA2;}
	.st38{fill-rule:evenodd;clip-rule:evenodd;fill:#2A9546;}
	.st39{fill:none;stroke:#C2BEBF;stroke-width:12;stroke-miterlimit:10;}
	.st40{fill-rule:evenodd;clip-rule:evenodd;fill:#2CA148;}
	.st41{fill-rule:evenodd;clip-rule:evenodd;fill:#989971;}
	.st42{fill-rule:evenodd;clip-rule:evenodd;fill:#64B965;}
	.st43{fill-rule:evenodd;clip-rule:evenodd;fill:#68BB6A;}
	.st44{fill-rule:evenodd;clip-rule:evenodd;fill:#9D9D76;}
	.st45{fill-rule:evenodd;clip-rule:evenodd;fill:#31A349;}
	.st46{fill-rule:evenodd;clip-rule:evenodd;fill:#34A448;}
	.st47{fill-rule:evenodd;clip-rule:evenodd;fill:#36A448;}
	.st48{fill-rule:evenodd;clip-rule:evenodd;fill:#38A448;}
]]>
</style>
<g id="Layer_1">
</g>
<g id="circle">
	<circle class="st39" cx="162" cy="161.999" r="142.2"/>
	<g>
		<path class="st28" d="M193.311,112.96c4.164,8.076,7.117,16.594,9.264,25.405c-0.887,0.873-2.084,0.853-3.182,1.034
			c-10.813,1.794-21.639,3.5-32.459,5.239c-1.257,0.201-2.59,0.593-3.64-0.6c-0.077-0.318-0.081,0.098-0.096-0.224
			c-0.419-8.733-0.519-17.467,0.048-26.198c0.723-1.071,1.907-1.163,3.01-1.333c7.861-1.214,15.711-2.492,23.557-3.787
			C191.028,112.297,192.236,112.111,193.311,112.96z"/>
		<path class="st25" d="M163.627,144.229c6.107-0.541,12.109-1.799,18.16-2.721c6.928-1.056,13.857-2.096,20.787-3.143
			c1.84,6.718,2.455,13.584,2.488,20.521c-0.826,0.796-1.929,0.811-2.952,0.98c-11.852,1.977-23.731,3.781-35.581,5.767
			c-0.802,0.135-1.604,0.285-2.415,0.047c-0.288-0.1-0.53-0.266-0.731-0.496c-0.775-1.568-0.437-3.249-0.493-4.89
			c0.129-2.545-0.152-5.092,0.019-7.638c0.067-1.198-0.059-2.396-0.018-3.594C163.17,147.458,162.408,145.692,163.627,144.229z"/>
		<path class="st24" d="M203.699,176.045c-0.852,6.982-2.83,13.639-5.762,20.02c-1.643,1.045-3.542,1.088-5.377,1.395
			c-8.813,1.477-17.633,2.918-26.469,4.254c-1.029,0.156-2.089,0.475-3.071-0.209c-0.677-0.908-0.602-1.953-0.554-2.994
			c0.567-2.256,0.381-4.563,0.457-6.854c0.046-1.158-0.073-2.326,0.18-3.475c0.533-1.666,0.325-3.391,0.311-5.086
			c-0.017-1.945,0.807-3.055,2.74-3.373c11.709-1.932,23.422-3.842,35.159-5.592C202.627,173.936,204.354,173.611,203.699,176.045z"
			/>
		<path class="st27" d="M203.699,176.045c0.029-1.104-0.354-1.639-1.599-1.428c-8.397,1.422-16.798,2.82-25.204,4.191
			c-3.49,0.57-6.986,1.135-10.498,1.545c-1.725,0.199-2.332,0.906-2.346,2.639c-0.016,1.732,0.57,3.549-0.412,5.213
			c-1.166-1.348-0.677-2.961-0.731-4.486c0.069-5.486,0.778-10.951,0.532-16.447c-0.033-0.738,0.11-1.451,0.641-2.025
			c6.668-1.057,13.334-2.137,20.007-3.16c6.991-1.072,13.929-2.496,20.974-3.199c-0.012,1.637-0.023,3.273-0.036,4.912
			c-0.413,1.443,0.206,2.973-0.358,4.402C204.742,170.867,204.406,173.479,203.699,176.045z"/>
		<path class="st32" d="M193.311,112.96c-4.076-0.013-7.99,1.129-11.987,1.687c-5.913,0.824-11.807,1.798-17.708,2.708
			c-1.293-1.63-0.234-3.692-1.007-5.419c-0.21-1.172-0.246-2.353-0.193-3.54c0.01-2.866-0.11-5.732-0.03-8.599
			c0.253-2.39-0.467-4.838,0.427-7.188c0.047-0.063,0.085-0.162,0.15-0.186c4.896-1.754,9.922-2.706,15.144-2.424
			C184.302,96.907,189.365,104.563,193.311,112.96z"/>
		<path class="st23" d="M163.142,201.396c7.784-1.213,15.567-2.434,23.354-3.633c3.811-0.586,7.627-1.133,11.441-1.699
			c-2.275,5.066-4.422,10.199-7.846,14.648c-1.172,0.609-2.445,0.881-3.734,1.053c-7,0.934-13.93,2.322-20.931,3.25
			c-0.888,0.117-1.771,0.287-2.628-0.135c-0.395-0.232-0.573-0.611-0.689-1.029c-0.147-0.664-0.161-1.342-0.169-2.018
			c-0.452-1.66-0.035-3.307,0.079-4.961c0.025-0.381,0.091-0.756,0.182-1.127c0.411-1.09,0.2-2.25,0.372-3.367
			C162.654,201.988,162.813,201.643,163.142,201.396z"/>
		<path class="st15" d="M162.712,214.588c5.899-0.676,11.733-1.775,17.599-2.648c3.241-0.482,6.455-1.363,9.78-1.227
			c-5.131,7.418-10.729,14.42-17.879,20.033c-0.89,0.699-1.805,1.365-2.707,2.047c-0.683,0.271-1.346,0.33-1.961-0.17
			c-0.359-0.277-0.624-0.637-0.863-1.016c-0.182-0.268-0.356-0.541-0.541-0.807c-0.44-0.619-0.799-1.287-1.148-1.961
			c-0.41-0.813-0.812-1.627-1.016-2.523c-0.176-0.701-0.387-1.393-0.6-2.084c-0.716-1.715-1.033-3.498-0.935-5.355
			C162.666,217.455,161.333,215.936,162.712,214.588z"/>
		<path class="st12" d="M147.451,224.865c-2.225-2.152-4.358-4.389-6.2-6.887c-0.052-1.248-0.708-2.314-1.087-3.459
			c-6.436-19.432-12.912-38.85-19.409-58.259c-0.377-1.126-0.482-2.412-1.512-3.247c0.223-3.265,0.235-6.551,1.012-9.759
			c1.753-0.419,1.767,1.121,2.097,2.041c1.403,3.905,2.777,7.823,4.101,11.754c7.168,21.289,14.226,42.613,21.328,63.921
			c0.257,0.771,0.601,1.533,0.621,2.354C148.417,223.996,148.61,224.875,147.451,224.865z"/>
		<path class="st16" d="M147.451,224.865c0.948-0.771,0.379-1.613,0.104-2.438c-7.359-22.107-14.71-44.219-22.086-66.322
			c-1.207-3.617-2.521-7.198-3.783-10.797c-0.287-0.819-0.313-1.816-1.432-2.055c0.264-1.964,0.306-3.966,0.977-5.863
			c0.985-0.495,1.292,0.308,1.653,0.906c0.378,0.629,0.563,1.349,0.792,2.043c9.347,28.341,19.144,56.533,28.441,84.892
			c0.431,1.314,1.406,2.688,0.222,4.125C150.468,228.123,149.009,226.439,147.451,224.865z"/>
		<path class="st5" d="M164.082,165.246c0.056,6.191,0.051,12.381-0.475,18.557c-0.778,0.533-1.205-0.018-1.579-0.557
			c-0.467-0.674-0.678-1.473-0.935-2.242c-8.753-26.203-17.41-52.437-26.267-78.604c-0.078-0.229-0.096-0.478-0.134-0.719
			c0.432-1.281,1.181-2.369,2.063-3.374c1.683,0.282,1.659,1.818,2.04,2.949c4.33,12.881,8.606,25.778,12.916,38.666
			c3.712,11.102,7.407,22.209,11.209,33.652c0.088-2.262,0.011-4.17,0.022-6.076c0.058-0.809-0.025-1.658,0.677-2.271
			C163.773,165.234,163.928,165.24,164.082,165.246z"/>
		<path class="st0" d="M163.594,191.619c-0.058,2.287,0.297,4.604-0.473,6.842c-1.563,0.076-1.771-1.234-2.119-2.234
			c-0.907-2.611-1.937-5.176-2.813-7.799c-6.717-20.123-13.413-40.252-20.104-60.384c-1.46-4.396-2.789-8.835-4.261-13.228
			c-0.774-2.313-1.521-4.631-2.624-6.814c0.577-1.109,1.154-2.218,1.731-3.327c1.732,0.145,1.838,1.656,2.23,2.808
			c2.52,7.394,5.006,14.799,7.438,22.222c6.33,19.331,12.955,38.562,19.61,57.781C162.685,188.859,162.821,190.348,163.594,191.619z
			"/>
		<path class="st26" d="M152.339,229.357c0.212-1.184-0.258-2.246-0.615-3.318c-4.689-14.1-9.362-28.205-14.09-42.291
			c-4.934-14.701-9.919-29.384-14.896-44.071c-0.298-0.878-0.274-2.008-1.507-2.286c0.311-1.625,0.622-3.25,0.933-4.875
			c1.972,0.209,1.963,1.974,2.393,3.249c4.098,12.166,8.15,24.347,12.209,36.526c6.19,18.57,12.887,36.971,18.835,55.623
			c0.449,1.41,1.398,2.857,0.165,4.355C154.317,231.66,153.33,230.506,152.339,229.357z"/>
		<path class="st1" d="M163.594,191.619c-1.241-0.141-1.126-1.279-1.381-2.035c-9.214-27.252-18.391-54.518-27.594-81.774
			c-0.379-1.123-0.508-2.425-1.686-3.136c0.436-1.087,0.933-2.138,1.76-2.993c1.15,0.386,1.161,1.517,1.452,2.387
			c8.53,25.541,17.02,51.095,25.565,76.629c0.377,1.129,0.211,2.725,1.898,3.107c0.01,1.467,0.021,2.934,0.032,4.4
			C163.625,189.344,163.609,190.48,163.594,191.619z"/>
		<path class="st6" d="M163.605,167.674c0,2.492,0,4.982,0,7.871c-1.208-0.768-1.248-1.68-1.501-2.439
			c-7.982-23.919-15.951-47.843-23.946-71.757c-0.352-1.052-0.443-2.256-1.402-3.041c0.3-0.956,0.931-1.701,1.564-2.444
			c1.759-0.46,1.772,1.104,2.088,2.003c1.293,3.678,2.644,7.338,3.881,11.034c6.034,18.028,12.019,36.074,18.076,54.096
			C162.884,164.537,162.958,166.178,163.605,167.674z"/>
		<path class="st45" d="M162.623,211.654c-0.006,0.67-0.011,1.34-0.017,2.01c-0.714,0.939,0.482,2.406-0.874,3.168
			c-1.616,0.133-1.782-1.203-2.114-2.225c-1.611-4.953-3.307-9.879-5-14.801c-9.289-27.021-18.04-54.222-27.282-81.257
			c-0.132-0.387-0.175-0.795-0.297-1.183c0.222-1.085,0.622-2.096,1.24-3.018c0.88-0.287,1.131,0.428,1.437,0.96
			c0.405,0.706,0.611,1.503,0.865,2.275c10.099,30.735,20.709,61.3,30.817,92.033C161.657,210.404,161.907,211.158,162.623,211.654z
			"/>
		<path class="st46" d="M162.623,211.654c-1.583,0.207-1.579-1.127-1.886-2.043c-4.276-12.77-8.498-25.561-12.781-38.33
			c-6.115-18.228-12.271-36.443-18.404-54.666c-0.283-0.84-0.4-1.763-1.273-2.267c0.144-1.062,0.525-2.02,1.233-2.836
			c1.76,0.194,1.717,1.771,2.098,2.904c6.489,19.289,13.096,38.539,19.491,57.86c3.809,11.508,7.596,23.023,11.532,34.49
			C162.844,208.396,161.835,210.023,162.623,211.654z"/>
		<path class="st9" d="M119.242,153.013c1.918-0.652,1.481,1.188,1.712,1.87c5.335,15.802,10.579,31.634,15.842,47.46
			c1.456,4.379,2.923,8.754,4.376,13.135c0.271,0.818,0.835,1.643,0.079,2.5c-2.442-2.514-4.421-5.381-6.31-8.316
			c-0.374-2.086-1.153-4.053-1.82-6.051c-4.604-13.781-9.061-27.613-13.944-41.301C118.644,159.208,119.148,156.112,119.242,153.013
			z"/>
		<path class="st40" d="M127.039,117.367c1.199,0.692,1.329,1.996,1.705,3.12c7.4,22.15,14.764,44.312,22.164,66.462
			c3.106,9.297,6.268,18.576,9.44,27.852c0.236,0.691,0.205,1.725,1.365,1.75c0.62,0.697,0.59,1.557,0.601,2.404
			c-0.047,0.834-0.051,1.688-0.925,2.166c-2.104-0.117-2.19-1.953-2.648-3.313c-4.299-12.785-8.56-25.584-12.813-38.385
			c-6.073-18.283-12.244-36.533-18.249-54.838c-0.483-1.472-1.258-2.816-1.693-4.301
			C126.151,119.245,126.366,118.223,127.039,117.367z"/>
		<path class="st31" d="M123.688,127.128c0.306-1.134,0.612-2.269,0.918-3.402c1.581,0.468,1.491,2.004,1.872,3.14
			c5.924,17.665,11.682,35.388,17.737,53.007c5.075,14.773,9.904,29.625,14.929,44.414c0.419,1.234,0.861,2.455,1.459,3.619
			c0.283,1.785,0.402,3.531-1.179,4.863c-1.105-0.545-1.169-1.703-1.491-2.668c-11.108-33.32-22.238-66.633-33.355-99.95
			C124.245,129.152,124.137,128.091,123.688,127.128z"/>
		<path class="st29" d="M123.688,127.128c1.095,0.184,0.998,1.22,1.226,1.903c11.281,33.755,22.527,67.521,33.764,101.289
			c0.253,0.76,0.363,1.568,0.541,2.354c0.591,1.057,0.477,1.775-0.905,1.885c-0.204-0.262-0.407-0.523-0.611-0.787
			c-0.943-1.377-1.134-3.031-1.644-4.564c-5.998-18.035-11.96-36.082-18.123-54.063c-4.635-13.521-9.067-27.11-13.679-40.64
			c-0.409-1.2-0.524-2.568-1.593-3.48C122.901,129.699,123.029,128.344,123.688,127.128z"/>
		<path class="st13" d="M163.583,149.1c0.001,1.144,0.001,2.287,0.003,3.431c-0.825,0.539-1.183-0.087-1.505-0.647
			c-0.405-0.707-0.612-1.503-0.864-2.273c-5.96-18.219-12.225-36.336-18.321-54.509c-0.414-1.232-0.966-2.411-1.329-3.661
			c0.465-0.956,1.093-1.786,1.918-2.463c1.061-0.56,1.471,0.227,1.873,0.94c0.4,0.711,0.604,1.508,0.866,2.277
			c5.301,15.64,10.662,31.26,15.815,46.949c0.381,1.16,0.823,2.294,1.312,3.413C163.498,144.737,163.098,146.934,163.583,149.1z"/>
		<path class="st18" d="M163.121,142.272c-1.25-0.126-1.139-1.271-1.395-2.026c-5.459-16.147-10.865-32.312-16.333-48.455
			c-0.358-1.056-0.266-2.568-1.909-2.813c0.697-1.075,1.396-2.147,2.445-2.931c1.055-0.561,1.471,0.22,1.867,0.932
			c0.436,0.781,0.658,1.655,0.94,2.5c4.215,12.609,8.437,25.217,12.6,37.843c0.634,1.922,1.49,3.763,2.025,5.721
			C163.207,136.119,163.671,139.208,163.121,142.272z"/>
		<path class="st7" d="M163.605,167.674c-0.933-0.701-1.018-1.834-1.343-2.807c-6.275-18.794-12.508-37.602-18.776-56.399
			c-1.207-3.618-2.524-7.199-3.788-10.799c-0.264-0.753-0.361-1.63-1.379-1.807c0.465-0.92,1.002-1.787,1.789-2.476
			c1.752-0.058,1.729,1.468,2.113,2.505c2.869,7.77,5.412,15.652,8.02,23.512c3.784,11.405,7.6,22.801,11.428,34.191
			c0.749,2.228,1.282,4.505,1.938,6.754c0.004,1.626,0.008,3.252,0.012,4.877C163.615,166.043,163.61,166.857,163.605,167.674z"/>
		<path class="st10" d="M119.177,162.31c2.181,2.084,2.437,5.069,3.343,7.674c4.235,12.174,8.222,24.436,12.296,36.664
			c0.331,0.992,0.825,1.979,0.125,3.014c-4.754-6.434-8.169-13.572-10.874-21.051c-2.324-6.428-4.119-13.004-4.45-19.891
			c-0.465-0.781-0.016-1.684-0.335-2.484C119.247,164.928,119.212,163.619,119.177,162.31z"/>
		<path class="st48" d="M131.201,108.001c1.459,0.517,1.675,1.883,2.077,3.097c8.652,26.112,17.292,52.228,25.947,78.337
			c0.791,2.385,1.646,4.75,2.51,7.109c0.275,0.754,0.538,1.559,1.386,1.916c0.007,0.979,0.014,1.957,0.02,2.936
			c-0.012,0.324-0.024,0.648-0.037,0.973c-0.206,0.186-0.446,0.262-0.72,0.227c-1.532-0.623-1.62-2.148-2.056-3.41
			c-9.793-28.381-19.089-56.927-28.621-85.395c-0.528-1.577-1.602-3.096-0.891-4.914
			C130.823,108.532,130.842,108.192,131.201,108.001z"/>
		<path class="st11" d="M163.607,160.349c-0.931-0.7-1.017-1.83-1.341-2.802c-6.109-18.291-12.178-36.595-18.278-54.89
			c-0.87-2.611-1.878-5.176-2.77-7.78c-0.221-0.646-0.438-1.217-1.11-1.49c0.334-0.762,0.77-1.448,1.458-1.947
			c1.26,0.085,1.186,1.224,1.441,1.98c6.396,18.94,12.749,37.895,19.142,56.836c0.282,0.835,0.128,2.047,1.436,2.274
			C163.593,155.137,163.6,157.743,163.607,160.349z"/>
		<path class="st30" d="M122.665,131.024c1.766-0.696,1.414,0.985,1.637,1.647c4.106,12.137,8.118,24.305,12.189,36.454
			c6.829,20.373,13.686,40.736,20.526,61.105c0.385,1.148,0.914,2.273,0.685,3.541c-0.784-0.322-1.453-0.793-1.937-1.502
			c0.197-1.332-0.205-2.563-0.618-3.799c-3.72-11.146-7.196-22.383-11.196-33.426c-7.204-19.891-13.438-40.102-20.332-60.092
			c-0.318-0.922-0.528-1.889-1.457-2.437C122.331,132.019,122.498,131.522,122.665,131.024z"/>
		<path class="st47" d="M130.816,108.876c1.865,5.691,3.708,11.388,5.599,17.069c7.117,21.379,14.24,42.755,21.383,64.125
			c1.207,3.611,2.533,7.182,3.766,10.783c0.218,0.637,0.392,1.236,1.071,1.518c0.375,1.143,0.368,2.285,0.003,3.428
			c-0.002,0.324-0.004,0.646-0.006,0.969c-1.26-0.635-1.375-1.951-1.75-3.072c-7.244-21.678-14.45-43.369-21.698-65.046
			c-2.826-8.453-5.736-16.878-8.606-25.316c-0.231-0.681-0.291-1.459-1.067-1.819C129.763,110.543,130.1,109.616,130.816,108.876z"
			/>
		<path class="st35" d="M160.221,227.779c-1.132-0.416-1.114-1.551-1.405-2.42c-4.479-13.381-8.773-26.822-13.395-40.152
			c-6.879-19.844-13.34-39.824-20.045-59.724c-0.204-0.604-0.51-1.172-0.769-1.757c0.165-0.332,0.329-0.664,0.493-0.995
			c0.247-0.139,0.49-0.131,0.729,0.021c1.106,0.871,1.345,2.203,1.732,3.425c5.773,18.217,12.179,36.223,18.152,54.374
			c3.354,10.195,6.629,20.42,10.271,30.518c0.114,0.221,0.206,0.451,0.286,0.686c1.558,4.156,2.269,8.631,4.676,12.473
			c0.117,0.232,0.194,0.475,0.242,0.729C161.282,226.039,161.204,227.064,160.221,227.779z"/>
		<path class="st35" d="M160.705,224.902c-0.014-0.184-0.028-0.365-0.042-0.549c-1.97-2.639-2.297-5.932-3.511-8.871
			c-0.514-1.246-0.786-2.592-1.357-3.826c-7.071-21.146-13.896-42.375-21.271-63.417c-2.705-7.717-5.042-15.548-7.719-23.27
			c-0.293-0.847-0.443-1.739-1.304-2.238c-0.134,0-0.268,0-0.402,0c0.152-0.868,0.314-1.73,0.887-2.446
			c1.228,0.493,1.468,1.658,1.823,2.725c10.483,31.465,20.955,62.934,31.457,94.393c0.422,1.264,0.497,2.773,1.9,3.535
			C161.987,222.373,162.528,223.775,160.705,224.902z"/>
		<path class="st33" d="M178.105,90c-4.988,0.813-9.977,1.624-14.966,2.438c-1.352-1.629-0.223-3.722-1.029-5.453
			c-0.188-1.91-0.522-3.829,0.301-5.687c2.01-1.433,4.17-1.953,6.56-1.07C172.147,83.362,175.329,86.492,178.105,90z"/>
		<path class="st20" d="M148.4,83.441c0.294-0.796,0.911-1.292,1.602-1.721c1.765,0.084,1.863,1.615,2.248,2.758
			c3.733,11.098,7.461,22.197,11.11,33.326c0,2.655,0.01,5.309-0.006,7.961c-1.707,1.135-1.841-0.608-2.149-1.371
			c-1.276-3.158-2.309-6.412-3.299-9.671c-2.833-9.316-6.098-18.489-9.1-27.75C148.435,85.828,147.86,84.696,148.4,83.441z"/>
		<path class="st19" d="M148.4,83.441c2.863,8.677,5.736,17.351,8.585,26.031c1.563,4.76,3.087,9.532,4.625,14.301
			c0.298,0.926,0.527,1.89,1.51,2.376c0.387,2.117,0.387,4.234,0,6.352c-1.066-0.546-1.245-1.618-1.578-2.615
			c-4.617-13.832-9.239-27.662-13.875-41.489c-0.319-0.953-0.336-2.178-1.739-2.35C146.753,85.178,147.576,84.31,148.4,83.441z"/>
		<path class="st22" d="M163.109,117.351c-1.092-0.451-1.076-1.57-1.369-2.439c-3.431-10.174-6.816-20.362-10.207-30.55
			c-0.33-0.991-0.495-2.065-1.532-2.642c0.555-0.89,1.278-1.599,2.225-2.067c1.636-0.051,1.633,1.387,1.955,2.342
			c2.873,8.552,5.849,17.069,8.51,25.691c0.097,0.313,0.236,0.603,0.424,0.87c0.008,1.136,0.018,2.27,0.025,3.405
			C163.479,113.759,163.52,115.556,163.109,117.351z"/>
		<path class="st34" d="M163.115,108.556c-1.065-0.552-1.242-1.626-1.576-2.624c-2.676-8.004-5.367-16.003-8.046-24.006
			c-0.282-0.841-0.405-1.761-1.268-2.273c0.521-0.811,1.229-1.417,2.058-1.893c1.791-0.535,1.753,1.058,2.061,1.949
			c2.14,6.205,4.242,12.425,6.217,18.687c0.146,0.465,0.248,0.94,0.521,1.354C163.094,102.685,163.104,105.621,163.115,108.556z"/>
		<path class="st36" d="M163.083,99.75c-0.96-0.506-1.175-1.468-1.481-2.386c-1.931-5.802-3.852-11.607-5.832-17.393
			c-0.284-0.829-0.153-2.045-1.486-2.211c0.63-0.901,1.498-1.514,2.452-2.021c1.085,0.403,1.205,1.454,1.512,2.342
			c1.189,3.438,2.298,6.905,3.556,10.571c0.414-0.59,0.32-1.312,0.849-1.63c0.938,1.735,0.177,3.622,0.486,5.414
			C163.121,94.874,163.102,97.312,163.083,99.75z"/>
		<path class="st42" d="M162.653,87.023c0,1.031,0,2.063,0,3.095c-0.227,0.057-0.454,0.113-0.681,0.17
			c-2.278-4.64-3.257-9.791-5.236-14.548c0.659-0.789,1.317-1.578,1.976-2.367c1.356-0.146,1.509,0.976,1.801,1.823
			c0.654,1.901,1.409,3.762,2.142,5.631c0.015,0.119,0.026,0.237,0.039,0.356C162.68,83.129,162.667,85.077,162.653,87.023z"/>
		<path class="st37" d="M166.484,240.008c-0.503,4.498-0.417,9.018-0.488,13.533c-0.01,0.627-0.216,1.275-0.445,1.869
			c-0.331,0.863-0.227,2.178-1.91,1.697c-1.372-0.393-2.776-0.543-2.438-2.514c0.054-0.316,0.044-0.645,0.064-0.967
			c0.846-4.107,2.294-8.025,3.817-11.912C165.354,241.025,165.387,240.055,166.484,240.008z"/>
		<path class="st38" d="M168.971,80.227c-2.093,0.318-4.186,0.638-6.278,0.956c0,0-0.112,0.016-0.112,0.016
			c-1.136-3.422-1.383-6.934-1.059-10.504c0.182-0.559,0.242-1.229,1.075-1.21C164.488,73.205,166.389,76.917,168.971,80.227z"/>
		<path class="st41" d="M160.705,224.902c0.838-1.24,0.318-2.641,0.462-3.965c0.686-0.514,0.376-1.311,0.555-1.969
			c0.473-0.375-0.239-1.514,0.763-1.422c0.69,0.063,0.193,0.99,0.544,1.416c0.039,1.859,0.39,3.666,0.967,5.432
			c-1.073,3.299-1.901,6.678-3.157,9.914c-0.329,0.85-0.372,2.256-1.982,1.764c-0.181-0.504-0.362-1.008-0.543-1.514
			c0.83-0.375,0.934-1.098,0.905-1.885c0.829-1.531,1.048-3.186,1.001-4.895C160.296,226.805,160.941,225.928,160.705,224.902z"/>
		<path class="st43" d="M162.115,70.474c0.156,3.575,0.311,7.15,0.466,10.726c-1.392-1.451-1.686-3.409-2.412-5.171
			c-0.383-0.933-0.294-2.146-1.458-2.656c1.636-1.849,1.985-4.223,2.48-6.583c0.633,0.35,0.746,0.806,0.865,1.257
			C161.898,68.86,161.813,69.671,162.115,70.474z"/>
		<path class="st17" d="M166.484,240.008c-1.762,3.693-2.83,7.643-4.197,11.482c-0.268,0.754-0.394,1.561-1.021,2.137
			c-0.009-0.973-0.018-1.943-0.027-2.916c1.229-6.203,3.821-11.971,5.726-17.959c0.101-0.316,0.324-0.553,0.603-0.732
			c0.612,0.344,1.181,0.795,1.938,0.773C167.772,234.893,166.886,237.348,166.484,240.008z"/>
		<path class="st14" d="M167.567,232.02c-0.418,2.814-1.493,5.439-2.49,8.063c-1.338,3.523-2.043,7.275-3.838,10.629
			c-0.148-1.607-0.297-3.215-0.445-4.822c0.79,0.145,0.648-0.52,0.769-0.918c1.265-4.18,3.017-8.191,4.278-12.375
			c0.166-0.553,0.137-1.365,1.076-1.34C167.134,231.51,167.35,231.766,167.567,232.02z"/>
		<path class="st2" d="M164.5,226.35c0.314,0.814,0.63,1.631,0.945,2.445c-0.898,4.023-2.508,7.818-3.755,11.73
			c-0.208,0.652-0.455,1.43-1.416,1.395c-0.319-1.104-0.667-2.201-0.61-3.373c1.051-3.459,2.148-6.906,3.255-10.348
			C163.173,227.41,163.323,226.406,164.5,226.35z"/>
		<path class="st8" d="M166.916,231.256c-1.791,5.215-3.583,10.43-5.417,15.768c-0.302-0.484-0.504-0.811-0.707-1.135
			c-0.029-0.502-0.058-1.004-0.087-1.508c-0.049-2.084,0.992-3.879,1.608-5.773c0.721-2.219,1.646-4.373,2.432-6.574
			c0.26-0.729,0.418-1.891,1.752-1.305C166.638,230.904,166.777,231.08,166.916,231.256z"/>
		<path class="st3" d="M166.498,230.729c-1.23,0.145-1.064,1.285-1.357,2.025c-1.52,3.859-2.964,7.748-4.435,11.627
			c-0.373-0.779-0.535-1.598-0.432-2.461c1.859-3.336,2.5-7.115,3.879-10.623c0.341-0.869,0.288-1.969,1.292-2.502
			C165.796,229.439,166.147,230.084,166.498,230.729z"/>
		<path class="st44" d="M164.5,226.35c-1.794,3.035-2.198,6.555-3.422,9.785c-0.327,0.863-0.289,1.996-1.414,2.412
			c-0.27-0.824-0.539-1.648-0.807-2.475c2.268-2.119,2.234-5.205,3.277-7.838c0.528-1.332,0.533-2.902,1.862-3.842
			C164.164,225.045,164.332,225.697,164.5,226.35z"/>
		<path class="st25" d="M204.668,168.201c0.148-1.465-0.401-2.988,0.358-4.402C205.072,165.279,205.17,166.766,204.668,168.201z"/>
		<path class="st4" d="M162.115,70.474c-0.638-0.794-0.691-1.604-0.058-2.428c0.18,0.479,0.36,0.959,0.54,1.438
			C162.437,69.815,162.276,70.144,162.115,70.474z"/>
		<path class="st9" d="M119.282,166.236c0.62,0.76,0.28,1.648,0.335,2.484C119.197,167.934,119.189,167.092,119.282,166.236z"/>
		<path class="st11" d="M163.109,117.351c0.011-1.797,0.021-3.594,0.031-5.39c0.991,1.725,0.209,3.605,0.475,5.394
			c0.004,8.958,0.008,17.916,0.012,26.874c-0.015,1.624-0.029,3.248-0.044,4.872c-0.961-2.223-0.231-4.559-0.462-6.829
			c0-3.257,0-6.515,0-9.771c0-2.117,0-4.234,0-6.352C163.117,123.216,163.114,120.284,163.109,117.351z"/>
		<path class="st21" d="M163.029,218.963c-0.441-1.072-0.877-0.887-1.307,0.006c-0.003-0.805-0.006-1.611-0.01-2.418
			c0.883-0.781-0.109-2.143,0.894-2.887c0.035,0.309,0.07,0.615,0.106,0.924C162.29,216.084,163.258,217.479,163.029,218.963z"/>
		<path class="st46" d="M162.639,205.799c-0.001-1.143-0.002-2.285-0.003-3.428c0.156,0,0.313,0,0.468-0.002
			C162.955,203.514,163.543,204.758,162.639,205.799z"/>
		<path class="st35" d="M125.501,122.731c1.07,0.609,1.089,0.604,1.518,1.919c2.011,6.163,3.836,12.395,6.044,18.487
			c7.824,21.578,14.615,43.501,22.041,65.214c0.366,1.066,0.836,2.125,0.691,3.305c-0.937-0.699-1.022-1.832-1.348-2.807
			c-6.588-19.721-13.041-39.488-19.758-59.165c-2.702-7.914-5.285-15.862-7.89-23.806
			C126.447,124.804,125.938,123.779,125.501,122.731z"/>
		<path class="st35" d="M155.795,211.656c1.467,1.809,1.629,4.137,2.454,6.201c0.856,2.145,1.614,4.33,2.415,6.496
			c-0.599-0.301-1.146-0.717-1.333-1.357C158.222,219.195,156.536,215.572,155.795,211.656z"/>
	</g>
</g>
</svg>
