<?xml version="1.0" encoding="utf-8"?>
<!-- Generator: Adobe Illustrator 16.0.0, SVG Export Plug-In . SVG Version: 6.00 Build 0)  -->
<!DOCTYPE svg PUBLIC "-//W3C//DTD SVG 1.1//EN" "http://www.w3.org/Graphics/SVG/1.1/DTD/svg11.dtd">
<svg version="1.1" id="Layer_1" xmlns="http://www.w3.org/2000/svg" xmlns:xlink="http://www.w3.org/1999/xlink" x="0px" y="0px"
	 width="324px" height="324px" viewBox="0 -36 324 324" enable-background="new 0 -36 324 324" xml:space="preserve">
<g>
	<path fill="#FEFEFE" d="M162.763,225.989c-56.055-0.266-98.35-42.253-100.986-94.845c-2.961-59.068,43.416-103.837,96.513-105.1
		c58.841-1.402,101.773,42.362,103.98,95.944C264.645,179.652,218.674,225.749,162.763,225.989z"/>
	<path fill="#134E61" d="M157.223,33.335c-7.542,3.205-13.984,7.899-19.079,14.338c-7.449,9.419-11.304,20.074-11.5,32.182
		c-0.237,14.701,5.076,27.113,15.082,37.511c5.423,5.633,12.24,9.462,19.617,12.127c7.917,2.86,14.134,7.956,19.182,14.529
		c9.279,12.092,11.99,25.638,7.43,40.138c-5.629,17.893-18.242,28.338-36.599,31.649c-8.199,1.481-16.165,0.013-23.89-3.151
		c-18.785-7.692-33.901-19.799-44.706-37.043c-7.768-12.4-12.499-25.883-13.995-40.516c-1.939-18.983,1.883-36.796,10.846-53.477
		c7.672-14.274,18.596-25.624,32.289-34.362c11.215-7.153,23.365-11.667,36.469-13.685c2.604-0.402,5.25-0.54,7.877-0.798
		C156.765,32.624,157.287,32.465,157.223,33.335z"/>
	<path fill="#E77912" d="M165.942,219.218c13.405-5.984,22.876-15.608,28.063-29.293c2.271-5.99,3.498-12.198,3.408-18.672
		c-0.179-12.678-4.276-23.835-12.379-33.594c-6.074-7.316-13.882-12.074-22.612-15.351c-7.83-2.937-14.055-7.883-19.022-14.406
		c-9.099-11.951-11.717-25.246-7.563-39.77c3.678-12.862,11.913-22.019,23.648-27.914c10.251-5.151,21.101-5.969,32.134-2.511
		c11.864,3.718,22.348,9.869,31.783,17.948c13.517,11.573,22.705,25.979,28.017,42.838c4.23,13.438,5.408,27.148,3.215,41.188
		c-2.2,14.06-7.16,27.01-15.149,38.654c-9.013,13.137-20.761,23.353-34.995,30.708C192.348,215.315,179.448,218.464,165.942,219.218
		z"/>
	<path fill="#FEFEFE" d="M146.878,139.842c0.3-1.835,0.445-3.711,0.928-5.496c0.982-3.631,4.57-4.731,7.417-2.214
		c3.697,3.265,5.02,7.708,5.701,12.419c0.891,6.139-0.383,12.026-1.976,17.881c-0.181,0.66-0.581,1.211,0.058,1.907
		c3.95,4.33,5.61,9.803,7.221,15.216c1.057,3.567,3.247,6.303,5.375,9.146c1.447,1.931,2.962,3.797,3.488,6.243
		c0.948,4.39-1.593,7.692-6.051,7.514c-4.569-0.18-8.568-2.087-12.162-4.797c-1.468-1.11-2.927-1.91-4.823-1.939
		c-9.159-0.143-15.974-5.36-22.683-10.684c-9.368-7.433-15.558-17.092-19.806-28.188c-1.658-4.335-4.016-8.399-6.021-12.602
		c-0.604-1.271-1.561-2.061-2.852-2.551c-8.125-3.083-15.033-7.964-20.981-14.253c-0.37-0.393-0.687-0.841-0.995-1.287
		c-0.734-1.07-0.701-1.677,0.785-2.138c3.803-1.182,7.867-0.984,11.619-2.346c0.348-0.128,0.714-0.2,1.293-0.356
		c-1.362-2.22-3.469-3.246-5.43-4.349c-4.51-2.538-7.694-6.463-11.041-10.223c-0.531-0.597-1.162-1.715-0.596-2.26
		c0.797-0.762,1.457,0.32,2.082,0.854c2.416,2.071,4.997,3.882,7.914,5.21c4.548,2.07,8.91,4.43,12.053,8.502
		c0.19,0.246,0.394,0.484,0.561,0.744c2.063,3.193,1.766,3.974-1.717,5.259c-3.89,1.436-7.951,1.702-12.727,1.828
		c6.086,3.988,11.011,8.69,17.708,10.118c4.116,0.88,6.485,3.335,8.003,6.953c2.488,5.922,5.235,11.738,7.965,17.538
		c6.414,13.632,16.54,23.599,30.747,29.148c2.539,0.993,5.234,0.512,7.825,1.048c1.1,0.229,2.038,0.455,2.901,1.206
		c2.723,2.373,6.016,3.722,9.329,5.01c1.055,0.41,2.134,0.658,2.972-0.419c0.752-0.97,0.344-1.946-0.185-2.818
		c-0.643-1.056-1.32-2.107-2.129-3.033c-3.825-4.363-6-9.526-7.577-15.024c-1.078-3.754-2.664-7.266-5.544-10.063
		c-1.692-1.646-1.107-3.643-0.462-5.467c1.067-3,2.173-5.965,2.396-9.184c0.341-4.898-0.322-9.606-2.558-14.02
		c-0.446-0.879-0.944-1.797-2.211-2.255c-0.846,2.008-0.736,4.178-1.075,6.235c-0.472,2.856-1.638,5.296-3.559,7.419
		c-0.942,1.039-1.583,1.076-2.121-0.414c-2.55-7.045-6.31-13.441-10.581-19.56c-0.509-0.729-1.146-1.447-0.976-2.901
		c5.425,3.193,9.147,7.52,11.605,13.012c0.296,0.429,0.574,0.871,0.872,1.904c-0.04-0.245,0.333-0.57,0.032-0.509
		c-0.138,0.027-0.215-0.179-0.219-0.349C146.671,140.225,146.705,140.011,146.878,139.842z"/>
	<path fill="#F6F8F9" d="M153.085,185.69c-1.68-0.318-2.684-1.273-3.356-2.666c-0.663-1.376-0.153-2.563,0.604-3.67
		c0.593-0.865,1.127-0.613,1.489,0.258c0.593,1.433,1.406,2.725,2.411,3.917c0.355,0.427,1.021,1.021,0.469,1.595
		C154.328,185.507,153.588,185.528,153.085,185.69z"/>
	<path fill="#85A3AD" d="M146.878,139.842c-0.044,0.354-0.089,0.706-0.132,1.059c-0.535-0.356-0.712-0.89-0.756-1.49
		C146.285,139.555,146.585,139.697,146.878,139.842z"/>
	<path fill="#FEFEFE" d="M234.812,130.515c4.159,3.215,9.161,5.368,12.467,9.646c1.493,1.934,4.018,3.221,4.228,6.199
		c-0.38-0.039-0.664,0.021-0.796-0.095c-5.701-5.01-13.306-6.993-19.037-11.936c-1.707-1.473-3.041-3.231-3.922-5.387
		c-0.624-1.523-0.142-2.073,1.184-2.604c4.363-1.744,8.93-2.33,13.685-2.604c-4.956-3.146-9.058-7.785-14.916-9.075
		c-6.293-1.384-9.247-5.405-11.728-10.93c-3.258-7.263-5.762-14.942-10.319-21.575c-6.832-9.943-15.422-17.778-26.967-21.994
		c-2.491-0.91-5.081-0.514-7.599-0.969c-0.944-0.169-1.879-0.262-2.574-0.916c-2.666-2.509-6.009-3.804-9.289-5.201
		c-1.168-0.498-2.453-0.85-3.467,0.258c-1.061,1.155-0.126,2.253,0.457,3.173c1.161,1.827,2.446,3.583,3.782,5.288
		c2.537,3.232,4.008,6.922,5.143,10.832c1.206,4.176,2.647,8.267,5.932,11.417c1.724,1.656,1.294,3.745,0.563,5.671
		c-1.704,4.488-2.732,9.044-2.326,13.894c0.275,3.297,1.193,6.388,2.523,9.375c0.438,0.993,1.146,1.828,2.371,2.316
		c0.415-2.526,0.878-4.994,1.209-7.481c0.345-2.612,1.893-4.542,3.447-6.48c0.876-1.091,1.596-0.82,1.991,0.402
		c2.413,7.475,6.517,14.028,11.01,20.379c0.529,0.75,0.868,1.635,1.305,2.479c-4.126-1.171-8.111-5.41-12.864-13.714
		c-0.995,1.386-0.705,2.98-1.013,4.407c-0.401,1.864-0.726,3.776-2.886,4.391c-2.192,0.622-4.107,0.144-5.68-1.663
		c-3.494-4.012-4.679-8.83-5.107-13.957c-0.457-5.454,0.875-10.646,2.252-15.831c0.164-0.614,0.464-1.087-0.077-1.688
		c-3.808-4.223-5.57-9.495-7.119-14.766c-1.048-3.559-3.026-6.403-5.201-9.23c-1.886-2.452-3.98-4.766-3.898-8.201
		c0.095-3.918,2.152-6.118,6.104-5.995c4.851,0.151,8.983,2.349,12.73,5.189c1.198,0.911,2.335,1.505,3.744,1.525
		c6.731,0.093,12.417,2.851,17.828,6.599c8.635,5.977,15.947,13.233,20.771,22.563c3.373,6.527,6.052,13.423,9.259,20.061
		c1.28,2.653,2.811,4.538,5.687,5.564c6.839,2.443,12.359,7.026,17.752,11.699c1.279,1.109,3.214,2.604,2.703,4.314
		c-0.538,1.795-3.019,1.482-4.682,1.77c-2.595,0.449-5.209,0.766-7.751,1.497C235.343,129.545,233.903,129.262,234.812,130.515z"/>
	<path fill="#FDFBF8" d="M177.295,69.388c-0.076,0.279-0.148,0.923-0.432,1.447c-0.243,0.448-0.683,0.988-1.122,1.083
		c-0.654,0.141-0.755-0.645-0.968-1.098c-0.632-1.339-1.354-2.614-2.383-3.694c-1.168-1.227-0.548-1.625,0.786-1.806
		C175.211,65.047,177.272,66.888,177.295,69.388z"/>
</g>
<g id="circle">
	<circle fill="none" stroke="#134E61" stroke-width="12" stroke-miterlimit="10" cx="162" cy="126" r="142.2"/>
</g>
</svg>
