<?xml version="1.0" encoding="utf-8"?>
<!-- Generator: Adobe Illustrator 16.0.0, SVG Export Plug-In . SVG Version: 6.00 Build 0)  -->
<!DOCTYPE svg PUBLIC "-//W3C//DTD SVG 1.1//EN" "http://www.w3.org/Graphics/SVG/1.1/DTD/svg11.dtd">
<svg version="1.1" id="Layer_1" xmlns="http://www.w3.org/2000/svg" xmlns:xlink="http://www.w3.org/1999/xlink" x="0px" y="0px"
	 width="324px" height="324px" viewBox="0 -36 324 324" enable-background="new 0 -36 324 324" xml:space="preserve">
<g id="Layer_1_1_">
	<g>
		<path fill="#90C4FB" d="M80.981,44.95c54.153,0,107.949,0,162.039,0c0,54.018,0,107.896,0,162.1c-53.885,0-107.846,0-162.039,0
			C80.981,153.092,80.981,99.214,80.981,44.95z M95.718,59.675c0,44.473,0,88.634,0,132.699c44.433,0,88.593,0,132.688,0
			c0-44.379,0-88.458,0-132.699C184.12,59.675,140.043,59.675,95.718,59.675z"/>
		<path fill="#2D2668" d="M95.718,59.675c44.325,0,88.402,0,132.688,0c0,44.242,0,88.32,0,132.699c-44.096,0-88.256,0-132.688,0
			C95.718,148.309,95.718,104.147,95.718,59.675z M131.794,134.202c8.378,0.592,16.166,0.278,23.406-3.321
			c8.399-4.178,12.229-11.279,12.239-20.43c0.006-8.183-3.119-15.014-10.726-18.671c-12.322-5.926-25.193-3.456-37.881-2.279
			c0,24.302,0,47.94,0,71.549c4.396,0,8.532,0,12.96,0C131.794,152.088,131.794,143.375,131.794,134.202z M168.98,158.917
			c9.494,4.015,18.76,5.129,28.123,1.142c5.438-2.314,8.67-6.561,9.142-12.627c0.491-6.326-2.001-11.244-7.468-14.33
			c-3.428-1.938-7.215-3.236-10.812-4.884c-2.761-1.267-5.417-2.875-4.679-6.472c0.791-3.843,4.023-4.548,7.316-4.59
			c3.769-0.046,7.279,1.263,11.027,2.839c0.876-3.187,1.688-6.149,2.532-9.224c-7.002-3.281-13.958-3.951-21.074-2.144
			c-7.123,1.811-11.97,7.31-12.599,13.842c-0.717,7.41,3.477,11.764,9.447,14.873c2.367,1.23,4.955,2.028,7.414,3.09
			c3.433,1.479,6.991,3.185,5.948,7.774c-1.026,4.526-4.977,4.599-8.696,4.649c-4.607,0.063-8.746-1.811-13.068-3.408
			C170.678,152.633,169.895,155.541,168.98,158.917z"/>
		<path fill="#90C4FB" d="M131.794,134.202c0,9.173,0,17.886,0,26.848c-4.428,0-8.564,0-12.96,0c0-23.606,0-47.247,0-71.549
			c12.688-1.177,25.559-3.646,37.881,2.279c7.605,3.657,10.73,10.489,10.725,18.671c-0.01,9.151-3.838,16.251-12.238,20.43
			C147.96,134.479,140.172,134.793,131.794,134.202z M131.969,123.239c7.553,2.29,16.66,0.121,19.938-4.961
			c3.112-4.823,3.286-9.967,0.081-14.822c-3.225-4.887-12.083-6.61-20.021-4.146C131.969,107.282,131.969,115.287,131.969,123.239z"
			/>
		<path fill="#90C4FB" d="M168.98,158.917c0.912-3.376,1.696-6.283,2.557-9.468c4.322,1.598,8.461,3.472,13.068,3.408
			c3.721-0.051,7.67-0.123,8.696-4.649c1.044-4.59-2.517-6.296-5.948-7.774c-2.459-1.062-5.047-1.859-7.414-3.09
			c-5.972-3.109-10.164-7.463-9.447-14.873c0.629-6.533,5.476-12.032,12.599-13.842c7.116-1.808,14.072-1.137,21.074,2.144
			c-0.845,3.075-1.656,6.037-2.532,9.224c-3.748-1.577-7.26-2.886-11.027-2.839c-3.293,0.042-6.525,0.747-7.316,4.59
			c-0.738,3.597,1.918,5.205,4.679,6.473c3.597,1.646,7.384,2.945,10.812,4.883c5.467,3.086,7.959,8.004,7.468,14.33
			c-0.472,6.066-3.704,10.313-9.142,12.627C187.74,164.045,178.477,162.932,168.98,158.917z"/>
		<path fill="#2D2668" d="M131.969,123.239c0-7.952,0-15.958,0-23.93c7.937-2.464,16.794-0.741,20.019,4.146
			c3.205,4.855,3.031,9.999-0.08,14.822C148.629,123.36,139.521,125.529,131.969,123.239z"/>
	</g>
</g>
<g id="circle">
	<circle fill="none" stroke="#2D2668" stroke-width="12" stroke-miterlimit="10" cx="162" cy="126" r="142.2"/>
</g>
</svg>
