<?xml version="1.0" encoding="utf-8"?>
<!-- Generator: Adobe Illustrator 16.0.0, SVG Export Plug-In . SVG Version: 6.00 Build 0)  -->
<!DOCTYPE svg PUBLIC "-//W3C//DTD SVG 1.1//EN" "http://www.w3.org/Graphics/SVG/1.1/DTD/svg11.dtd">
<svg version="1.1" id="Layer_1" xmlns="http://www.w3.org/2000/svg" xmlns:xlink="http://www.w3.org/1999/xlink" x="0px" y="0px"
	 width="324px" height="324px" viewBox="0 -36 324 324" enable-background="new 0 -36 324 324" xml:space="preserve">
<g id="Layer_1_1_">
	<g>
		<path fill="#000101" d="M211.697,67.117c2.85,0,5.699,0,9.049,0c0,4.565,0,8.946,0,13.327c0.002,11.067,0.004,22.133,0.007,33.201
			c0,23.682,0,47.365,0,71.234c-32.528,0-64.563,0-96.597,0c-6.884,0-13.769,0-20.729,0c0-39.439,0-78.426,0-117.74
			c13.719,0,27.244,0,40.77,0c8.046,0.007,16.091,0.014,24.136,0.021C182.787,67.146,197.242,67.13,211.697,67.117z
			 M124.817,116.517c4.263,0,8.127,0.305,11.929-0.059c10.146-0.97,16.211-8.143,15.735-18.212
			c-0.426-9.043-7.422-15.395-17.225-15.545c-4.842-0.076-9.686-0.014-14.529-0.014c-2.229,0-4.457,0-6.596,0
			c0,16.465,0,32.519,0,48.513c3.628,0,7.049,0,10.686,0C124.817,126.437,124.817,121.824,124.817,116.517z M201.113,89.517
			c-9.234-10.3-27.801-10.367-37.6-0.222c-9.964,10.315-9.148,27.865,1.721,37.11c10.494,8.924,28.406,7.406,36.24-3.24
			c-2.259-2.136-4.541-4.295-6.83-6.461c-9.484,6.743-16.992,7.21-22.512,1.368c-5.308-5.618-5.727-14.787-0.953-20.984
			c2.004-2.604,4.614-4.263,7.834-4.934c6.045-1.262,10.901,1.299,15.373,5.141C196.754,94.557,198.939,92.032,201.113,89.517z
			 M114.009,170.99c14.688,0,29.155,0,43.641,0c0-2.131,0-4.131,0-6.092c-14.654,0-29.107,0-43.641,0
			C114.009,166.965,114.009,168.824,114.009,170.99z"/>
		<path fill="#22D689" d="M144.196,67.139c-13.524,0-27.051,0-40.77,0c0,39.313,0,78.299,0,117.74c6.961,0,13.846,0,20.729,0
			c-0.946,4.771-1.893,9.545-2.865,14.461c7.868,2.297,15.561,4.543,23.253,6.787c-4.203,4.928-8.407,9.855-12.709,14.895
			c-8.763-5.123-17.449-10.199-26.132-15.281c-12.182-7.129-24.33-14.311-36.572-21.332c-1.801-1.033-2.131-2.094-1.954-3.992
			c1.198-12.883,2.229-25.781,3.405-38.669c1.406-15.417,2.917-30.827,4.354-46.242c0.955-10.231,1.94-20.46,2.733-30.704
			c0.22-2.845,1.097-4.45,3.959-5.63c21.175-8.731,42.258-17.69,63.376-26.563c0.887-0.373,1.705-1.026,2.766-0.841
			c-0.564,4.863-1.319,9.712-1.647,14.592C145.651,53.303,144.129,60.146,144.196,67.139z"/>
		<path fill="#FAF74B" d="M144.543,206.127c-7.692-2.244-15.385-4.49-23.253-6.787c0.975-4.916,1.919-9.689,2.865-14.461
			c32.035,0,64.069,0,96.598,0c0-23.869,0-47.553,0-71.234c3.688-1.209,7.374-2.417,11.163-3.659
			c2.639,9.389,5.211,18.542,7.783,27.692c4.371,16.178,8.74,32.354,13.119,48.53c1.336,4.939,2.701,9.871,4.049,14.791
			c-1.023,1.285-2.492,1.326-3.756,1.738c-17.98,5.906-35.976,11.768-53.949,17.691c-1.588,0.523-2.896-0.143-4.283-0.521
			C178.098,215.328,161.319,210.727,144.543,206.127z"/>
		<path fill="#0EC8D7" d="M239.699,137.677c-2.572-9.15-5.145-18.303-7.783-27.692c-3.789,1.241-7.477,2.45-11.163,3.659
			c-0.003-11.068-0.005-22.134-0.007-33.201c10.668,8.781,21.335,17.565,32.01,26.339c0.953,0.782,1.77,1.454,1.021,2.928
			C249.049,119.015,244.385,128.351,239.699,137.677z"/>
		<path fill="#0EC8D7" d="M144.196,67.139c-0.067-6.992,1.455-13.836,1.925-20.782c0.328-4.879,1.083-9.729,1.647-14.592
			c11.306,7.411,22.607,14.822,33.909,22.23c-0.777,0.872-1.531,1.766-2.332,2.618c-3.486,3.708-7.759,6.598-11.015,10.547
			C160.287,67.152,152.242,67.146,144.196,67.139z"/>
		<path fill="#22D689" d="M168.332,67.16c3.256-3.949,7.527-6.839,11.014-10.547c0.801-0.852,1.557-1.746,2.334-2.618
			c2.1-0.972,3.576-2.717,5.215-4.25c6.533-6.104,13.045-12.23,20.01-18.767c0.73,5.179,1.431,9.866,2.048,14.565
			c0.944,7.188,1.835,14.382,2.747,21.574C197.242,67.13,182.787,67.146,168.332,67.16z"/>
		<path fill="#FEFEFE" d="M124.817,116.517c0,5.307,0,9.92,0,14.683c-3.637,0-7.058,0-10.686,0c0-15.994,0-32.047,0-48.513
			c2.139,0,4.367,0,6.596,0c4.844,0,9.688-0.062,14.529,0.014c9.803,0.151,16.799,6.502,17.225,15.545
			c0.476,10.069-5.592,17.242-15.735,18.212C132.944,116.82,129.08,116.517,124.817,116.517z M124.92,107.12
			c2.646,0,5.192,0.015,7.738-0.007c0.887-0.008,1.788-0.021,2.657-0.179c3.668-0.669,6.09-3.326,6.303-6.833
			c0.195-3.23-1.635-6.17-4.747-7.054c-3.935-1.118-7.945-0.4-11.951-0.586C124.92,97.592,124.92,102.209,124.92,107.12z"/>
		<path fill="#FEFEFE" d="M201.113,89.517c-2.174,2.515-4.359,5.04-6.727,7.777c-4.472-3.842-9.328-6.403-15.373-5.141
			c-3.22,0.671-5.83,2.331-7.834,4.934c-4.772,6.198-4.354,15.367,0.953,20.984c5.52,5.842,13.026,5.375,22.512-1.368
			c2.289,2.167,4.571,4.325,6.83,6.461c-7.834,10.646-25.746,12.164-36.24,3.24c-10.869-9.245-11.685-26.794-1.721-37.11
			C173.313,79.149,191.879,79.216,201.113,89.517z"/>
		<path fill="#FEFEFE" d="M114.009,170.99c0-2.166,0-4.025,0-6.092c14.532,0,28.985,0,43.641,0c0,1.961,0,3.961,0,6.092
			C143.164,170.99,128.694,170.99,114.009,170.99z"/>
		<path fill="#000101" d="M124.92,107.12c0-4.91,0-9.527,0-14.659c4.006,0.186,8.019-0.532,11.951,0.586
			c3.112,0.884,4.942,3.824,4.747,7.054c-0.212,3.507-2.635,6.164-6.303,6.833c-0.869,0.159-1.771,0.171-2.657,0.179
			C130.112,107.133,127.565,107.12,124.92,107.12z"/>
	</g>
</g>
<g id="circle">
	<circle fill="none" stroke="#22D689" stroke-width="12" stroke-miterlimit="10" cx="162" cy="125.999" r="142.2"/>
</g>
</svg>
