<?xml version="1.0" encoding="utf-8"?>
<!-- Generator: Adobe Illustrator 16.0.0, SVG Export Plug-In . SVG Version: 6.00 Build 0)  -->
<!DOCTYPE svg PUBLIC "-//W3C//DTD SVG 1.1//EN" "http://www.w3.org/Graphics/SVG/1.1/DTD/svg11.dtd">
<svg version="1.1" id="Layer_1" xmlns="http://www.w3.org/2000/svg" xmlns:xlink="http://www.w3.org/1999/xlink" x="0px" y="0px"
	 width="324px" height="324px" viewBox="0 0 324 324" enable-background="new 0 0 324 324" xml:space="preserve">
<g>
	<path fill-rule="evenodd" clip-rule="evenodd" fill="none" d="M55.5,167.803c0-5.32,0-10.639,0-15.958c71,0,141.999,0,213,0
		c0,6.77,0,13.538,0,20.309c-71.001,0-142,0-213,0c0-1.369,0-2.741,0-4.111c0.195,0.289,0.406,0.572,0.584,0.87
		c2.17,3.633,6.651,3.444,9.005,1.429c2.171-1.86,3-6.053-0.59-8.043c-0.809-0.449-1.643-0.848-2.459-1.281
		c-0.923-0.489-1.859-0.957-2.751-1.498c-0.711-0.431-1.22-1.083-1.34-1.923c-0.458-3.242,2.234-4.736,4.507-4.105
		c1.191,0.331,2.009,1.088,2.671,2.058c0.906-0.683,0.91-0.695,0.353-1.384c-1.294-1.593-3.017-2.061-4.972-1.834
		c-1.83,0.213-3.35,1.69-3.773,3.592c-0.411,1.847,0.279,3.562,1.889,4.589c0.574,0.366,1.193,0.663,1.798,0.979
		c1.139,0.595,2.312,1.132,3.418,1.781c1.93,1.13,2.401,3.27,1.272,5.21c-1.612,2.768-5.913,2.996-7.749,0.287
		c-0.31-0.457-0.574-0.944-0.89-1.47C56.128,167.477,55.814,167.64,55.5,167.803z M79.43,152.339
		c-0.009-0.029-0.014-0.061-0.03-0.084c-0.009-0.012-0.041-0.006-0.062-0.009c0.038,0.023,0.075,0.047,0.112,0.071
		c-0.25,1.948-0.519,3.895-0.75,5.845c-0.315,2.674-0.604,5.349-0.9,8.026c-0.17,1.559-0.315,3.122-0.506,4.676
		c-0.063,0.518,0.154,0.618,0.601,0.62c0.5,0.003,0.573-0.282,0.616-0.688c0.393-3.717,0.798-7.431,1.208-11.146
		c0.115-1.051,0.254-2.099,0.384-3.148c0.061-0.003,0.121-0.008,0.182-0.011c2.393,5.135,4.787,10.269,7.271,15.603
		c2.491-5.341,4.886-10.476,7.298-15.65c0.14,0.127,0.185,0.148,0.188,0.173c0.349,3.154,0.696,6.308,1.041,9.461
		c0.174,1.599,0.357,3.197,0.505,4.798c0.054,0.569,0.388,0.627,0.833,0.595c0.511-0.037,0.401-0.403,0.371-0.712
		c-0.084-0.882-0.177-1.759-0.274-2.639c-0.379-3.435-0.764-6.869-1.145-10.304c-0.204-1.848-0.406-3.697-0.608-5.546
		c-0.057-0.014-0.113-0.028-0.169-0.042c-2.648,5.677-5.295,11.354-8.012,17.177c-0.209-0.398-0.327-0.604-0.427-0.818
		c-2.426-5.201-4.851-10.406-7.282-15.605C79.763,152.749,79.579,152.552,79.43,152.339z M214.729,157.481
		c0.976-0.731,0.983-0.738,0.343-1.48c-1.288-1.49-2.812-2.686-4.724-3.212c-3.698-1.017-7.061-0.264-9.799,2.436
		c-2.651,2.611-3.389,5.883-2.509,9.454c1.134,4.608,5.181,7.494,9.975,7.205c4.962-0.299,8.03-3.477,8.418-8.544
		c0.06-0.793,0.036-0.816-0.768-0.823c-1.649-0.014-3.301-0.005-4.951-0.004c-0.523,0-1.049-0.019-1.57,0.009
		c-0.504,0.027-0.771,0.395-0.533,0.784c0.11,0.18,0.447,0.305,0.683,0.308c1.651,0.027,3.302,0.01,4.952,0.021
		c0.338,0.001,0.674,0.057,1.043,0.091c-0.103,0.566-0.157,1.008-0.264,1.435c-0.421,1.694-1.221,3.171-2.718,4.132
		c-3.004,1.935-6.144,2.077-9.243,0.315c-3.167-1.799-4.75-5.588-3.891-9.373c1.407-6.191,7.906-8.22,12.342-5.72
		C212.802,155.239,213.854,156.202,214.729,157.481z M254.214,171.977c0.024-0.44,0.049-0.679,0.049-0.917
		c0.002-5.795,0.002-11.593,0.002-17.39c0-0.201-0.004-0.403-0.008-0.604c-0.006-0.366-0.222-0.472-0.553-0.468
		c-0.341,0.005-0.665,0.007-0.669,0.476c-0.002,0.282-0.003,0.563-0.003,0.845c0,4.589,0,9.179,0,13.768c0,0.387,0,0.774,0,1.444
		c-5.348-5.623-10.506-11.047-15.8-16.614c0,6.232-0.001,12.225,0,18.217c0,0.161-0.006,0.324,0.013,0.483
		c0.042,0.375,0.327,0.464,0.612,0.385c0.186-0.049,0.422-0.238,0.466-0.408c0.078-0.304,0.03-0.64,0.03-0.962
		c0.001-4.629,0-9.258,0.004-13.888c0-0.253,0.036-0.506,0.071-0.96C243.753,160.981,248.926,166.417,254.214,171.977z
		 M226.375,152.118c-2.701,6.641-5.284,12.991-7.872,19.353c1.193,0.23,1.203,0.235,1.589-0.705
		c0.637-1.559,1.277-3.117,1.878-4.689c0.2-0.527,0.479-0.746,1.063-0.739c2.174,0.032,4.348,0.037,6.521,0
		c0.636-0.012,0.934,0.245,1.148,0.8c0.606,1.573,1.239,3.132,1.883,4.688c0.38,0.924,0.435,0.931,1.532,0.588
		C231.567,165.057,229.019,158.704,226.375,152.118z M185.581,162.137c0,2.738-0.003,5.477,0.001,8.216
		c0.002,1.348-0.156,1.275,1.327,1.275c1.693,0.003,3.384,0.003,5.076,0c0.645,0,1.289,0.017,1.934-0.007
		c0.534-0.019,0.72-0.272,0.63-0.751c-0.088-0.472-0.455-0.378-0.758-0.378c-2.054-0.01-4.108,0.002-6.162-0.01
		c-0.801-0.004-0.819-0.021-0.823-0.781c-0.01-2.378-0.01-4.753,0.001-7.13c0.003-0.763,0.021-0.782,0.826-0.787
		c1.894-0.012,3.786-0.003,5.679-0.005c0.281,0,0.59,0.044,0.833-0.057c0.153-0.063,0.271-0.355,0.286-0.554
		c0.01-0.133-0.167-0.367-0.301-0.404c-0.265-0.071-0.558-0.044-0.839-0.044c-1.934-0.003-3.867-0.015-5.8,0.006
		c-0.519,0.006-0.705-0.161-0.698-0.692c0.024-1.893,0.021-3.786,0.002-5.679c-0.004-0.475,0.177-0.634,0.636-0.63
		c1.732,0.015,3.464,0.005,5.196,0.004c0.483,0,0.967-0.002,1.45-0.006c0.361-0.003,0.48-0.217,0.479-0.547
		c-0.003-0.312-0.065-0.563-0.447-0.572c-0.161-0.004-0.321-0.008-0.482-0.008c-2.377-0.001-4.754-0.007-7.13,0.002
		c-0.896,0.004-0.911,0.021-0.913,0.959C185.576,156.418,185.581,159.277,185.581,162.137z M124.876,161.941
		c0,2.861-0.004,5.722,0.002,8.582c0.002,0.936,0.014,0.952,0.908,0.954c2.377,0.01,4.755,0.012,7.133-0.007
		c0.382-0.002,0.968,0.224,0.961-0.527c-0.007-0.751-0.594-0.504-0.971-0.509c-2.015-0.023-4.029-0.028-6.044,0
		c-0.585,0.007-0.764-0.198-0.759-0.77c0.024-2.378,0.004-4.756,0.014-7.132c0.003-0.797,0.021-0.819,0.793-0.827
		c1.573-0.016,3.144-0.004,4.715-0.006c0.523,0,1.048-0.004,1.57-0.004c0.372-0.001,0.609-0.118,0.606-0.555
		c0-0.407-0.156-0.598-0.567-0.584c-0.281,0.009-0.563-0.002-0.845-0.002c-1.854,0-3.707-0.01-5.561,0.006
		c-0.489,0.005-0.731-0.118-0.725-0.669c0.023-1.894,0.017-3.788,0.002-5.682c-0.002-0.464,0.174-0.648,0.639-0.639
		c0.966,0.019,1.935,0.006,2.9,0.004c1.25-0.001,2.499-0.006,3.747-0.006c0.353,0,0.496-0.162,0.492-0.519
		c-0.004-0.349-0.14-0.525-0.492-0.525c-0.161,0-0.322-0.007-0.483-0.007c-2.377,0-4.755-0.006-7.133,0.003
		c-0.889,0.003-0.9,0.019-0.903,0.958C124.872,156.3,124.876,159.12,124.876,161.941z M163.02,162.113c0,2.134,0,4.269,0,6.401
		c0,0.847,0.004,1.691,0.004,2.536c0,0.319,0.099,0.566,0.464,0.566c2.697,0.005,5.395,0.01,8.092-0.016
		c0.147-0.003,0.378-0.271,0.419-0.448c0.113-0.49-0.058-0.655-0.699-0.66c-2.093-0.014-4.187,0.002-6.279-0.01
		c-0.85-0.004-0.869-0.023-0.873-0.884c-0.011-2.296-0.007-4.59-0.001-6.885c0.002-0.914,0.013-0.926,0.926-0.931
		c1.934-0.009,3.866,0.008,5.799-0.012c0.384-0.004,0.972,0.224,0.938-0.544c-0.031-0.746-0.612-0.492-0.986-0.497
		c-1.934-0.024-3.866-0.002-5.799-0.016c-0.849-0.006-0.87-0.029-0.876-0.896c-0.014-1.771,0.011-3.543-0.013-5.314
		c-0.008-0.567,0.178-0.793,0.763-0.782c1.569,0.027,3.141,0.009,4.71,0.008c0.646,0,1.289-0.001,1.934-0.009
		c0.351-0.003,0.49-0.19,0.481-0.54c-0.007-0.316-0.075-0.559-0.447-0.577c-0.16-0.008-0.321-0.009-0.482-0.009
		c-2.375,0-4.752-0.006-7.127,0.003c-0.923,0.004-0.939,0.02-0.942,0.938C163.015,156.396,163.02,159.254,163.02,162.113z
		 M102.849,162.043c0,2.252,0,4.504,0.001,6.755c0,0.724,0.007,1.447,0.003,2.173c-0.001,0.345,0.153,0.509,0.507,0.504
		c0.346-0.003,0.658-0.023,0.663-0.483c0.005-0.28,0.007-0.563,0.007-0.842c0-2.294-0.007-4.585,0.004-6.879
		c0.005-0.788,0.03-0.783,0.812-0.822c1.001-0.05,2.016-0.022,2.998-0.183c3.354-0.548,4.66-3.253,3.841-6.385
		c-0.571-2.181-2.319-3.087-4.43-3.292c-1.156-0.112-2.33-0.067-3.495-0.066c-0.893,0-0.907,0.02-0.909,0.955
		C102.846,156.333,102.851,159.188,102.849,162.043z M262.12,162.712c-0.001,0-0.003,0-0.004,0c0,2.734,0.005,5.469-0.005,8.203
		c-0.002,0.401,0.011,0.714,0.544,0.719c0.511,0.007,0.753-0.177,0.706-0.707c-0.021-0.24-0.004-0.482-0.004-0.723
		c0-5.068,0-10.135,0.001-15.203c0-1.362-0.062-1.268,1.217-1.269c1.006-0.001,2.011-0.008,3.018,0.001
		c0.421,0.003,0.686-0.095,0.672-0.603c-0.012-0.441-0.236-0.535-0.61-0.535c-3.259,0.004-6.517,0.003-9.774-0.001
		c-0.368,0-0.604,0.074-0.625,0.522c-0.023,0.502,0.213,0.625,0.651,0.619c0.965-0.013,1.931-0.006,2.896-0.003
		c1.514,0.005,1.313-0.114,1.317,1.257C262.124,157.563,262.12,160.137,262.12,162.712z M148.582,163.93
		c0.399-1.175-0.175-1.946-1.325-1.887c-1.104,0.057-1.817,0.83-1.85,1.978c-0.013,0.406,0.196,0.803-0.322,1.167
		c-1.911,1.342-1.8,3.74,0.221,4.913c1.604,0.932,3.262,0.861,4.805-0.135c1.447-0.936,1.853-2.489,1.204-3.775
		c-0.049-0.096-0.043-0.219-0.065-0.35c0.312-0.138,0.605-0.257,0.889-0.396c0.548-0.273,0.835-0.752,0.942-1.33
		c0.11-0.604-0.118-1.116-0.569-1.507c-0.422-0.368-0.95-0.518-1.458-0.27c-0.241,0.117-0.437,0.448-0.517,0.722
		c-0.044,0.151,0.146,0.476,0.314,0.561c0.383,0.195,0.521-0.112,0.705-0.414c0.237-0.39,0.621-0.304,0.77,0.122
		c0.166,0.466-0.041,0.973-0.573,1.161c-0.365,0.131-0.785,0.11-1.178,0.164c-0.634,0.084-1.304,0.069-1.891,0.282
		c-0.971,0.353-1.313,1.483-0.798,2.293c0.455,0.717,1.458,0.796,1.929,0.114c0.133-0.19,0.144-0.522,0.095-0.768
		c-0.027-0.13-0.344-0.329-0.452-0.289c-0.177,0.067-0.286,0.308-0.434,0.469c-0.114,0.124-0.245,0.236-0.369,0.353
		c-0.125-0.143-0.315-0.269-0.36-0.432c-0.133-0.487,0.111-0.877,0.584-1.033c0.85-0.275,1.633,0.109,1.939,0.956
		c0.257,0.712-0.015,1.557-0.694,2.156c-1.234,1.085-3.475,1.026-4.661-0.119c-0.591-0.574-0.847-1.271-0.726-2.081
		c0.124-0.814,0.625-1.05,1.365-0.682c0.177,0.089,0.355,0.247,0.533,0.245c0.211,0,0.521-0.086,0.603-0.235
		c0.075-0.136-0.049-0.446-0.175-0.609c-0.109-0.145-0.339-0.2-0.523-0.28c-0.412-0.175-0.472-0.511-0.421-0.896
		c0.11-0.831,0.986-1.233,1.743-0.778C148.12,163.475,148.329,163.712,148.582,163.93z M176.124,162.07
		c0,2.778,0.001,5.56-0.001,8.339c-0.001,1.327-0.052,1.22,1.267,1.22c1.089,0.003,2.176,0.003,3.264,0
		c0.483,0,0.967-0.007,1.451-0.002c0.41,0.002,0.563-0.196,0.549-0.602c-0.013-0.346-0.145-0.527-0.496-0.53
		c-0.283-0.002-0.565-0.007-0.847-0.007c-1.128-0.002-2.257-0.009-3.384,0c-0.407,0.005-0.595-0.149-0.567-0.566
		c0.019-0.283,0.004-0.565,0.004-0.848c0-5.035,0-10.072,0-15.108c0-0.282-0.007-0.564-0.003-0.846
		c0.006-0.343-0.139-0.503-0.496-0.524c-0.594-0.035-0.733,0.064-0.735,0.771C176.118,156.268,176.124,159.169,176.124,162.07z
		 M115.443,162.008c0,2.736-0.004,5.47,0.001,8.205c0.002,1.391-0.134,1.26,1.32,1.268c1.287,0.004,2.573,0.002,3.861,0
		c0.24,0,0.483-0.005,0.723-0.003c0.39,0.007,0.583-0.149,0.579-0.571c-0.003-0.388-0.208-0.479-0.529-0.479
		c-0.281,0-0.563-0.002-0.845-0.002c-1.085-0.003-2.172-0.015-3.257,0.002c-0.463,0.007-0.665-0.175-0.638-0.637
		c0.017-0.28,0.002-0.563,0.002-0.845c0-4.986,0-9.974,0-14.961c0-0.282-0.022-0.564,0.002-0.844
		c0.041-0.487-0.202-0.614-0.643-0.626c-0.633-0.018-0.576,0.4-0.576,0.806C115.443,156.217,115.443,159.113,115.443,162.008z
		 M71.13,162c0,2.65,0,5.304,0,7.954c0,0.282,0.009,0.563,0,0.845c-0.014,0.415,0.079,0.692,0.593,0.677
		c0.442-0.015,0.537-0.252,0.527-0.618c-0.005-0.201,0.002-0.401,0.002-0.603c0-5.504,0-11.007,0-16.512
		c0-0.12,0.007-0.241-0.002-0.361c-0.029-0.374,0.124-0.836-0.527-0.858c-0.629-0.022-0.593,0.387-0.593,0.798
		c0,0.241,0,0.482,0,0.723C71.13,156.697,71.13,159.349,71.13,162z"/>
	<path fill-rule="evenodd" clip-rule="evenodd" d="M55.5,167.803c0.314-0.163,0.628-0.326,0.972-0.504
		c0.316,0.525,0.58,1.013,0.89,1.47c1.836,2.709,6.137,2.48,7.749-0.287c1.129-1.94,0.658-4.08-1.272-5.21
		c-1.106-0.648-2.279-1.186-3.418-1.781c-0.604-0.316-1.224-0.612-1.798-0.979c-1.61-1.027-2.299-2.743-1.889-4.589
		c0.423-1.902,1.943-3.379,3.773-3.592c1.955-0.227,3.678,0.241,4.972,1.834c0.558,0.688,0.554,0.701-0.353,1.384
		c-0.663-0.97-1.48-1.727-2.671-2.058c-2.272-0.631-4.965,0.863-4.507,4.105c0.12,0.84,0.629,1.492,1.34,1.923
		c0.892,0.541,1.828,1.008,2.751,1.498c0.817,0.434,1.651,0.833,2.459,1.281c3.591,1.991,2.761,6.183,0.59,8.043
		c-2.354,2.016-6.835,2.204-9.005-1.429c-0.178-0.298-0.39-0.581-0.584-0.87C55.5,167.964,55.5,167.882,55.5,167.803z"/>
	<path fill-rule="evenodd" clip-rule="evenodd" d="M79.43,152.339c0.149,0.213,0.333,0.41,0.443,0.643
		c2.431,5.2,4.855,10.404,7.282,15.605c0.101,0.215,0.218,0.42,0.427,0.818c2.717-5.823,5.364-11.5,8.012-17.177
		c0.056,0.014,0.112,0.028,0.169,0.042c0.202,1.849,0.404,3.698,0.608,5.546c0.38,3.435,0.765,6.869,1.145,10.304
		c0.097,0.88,0.19,1.757,0.274,2.639c0.031,0.309,0.14,0.675-0.371,0.712c-0.445,0.032-0.779-0.025-0.833-0.595
		c-0.148-1.601-0.332-3.199-0.505-4.798c-0.344-3.153-0.692-6.308-1.041-9.461c-0.003-0.025-0.048-0.046-0.188-0.173
		c-2.413,5.175-4.808,10.31-7.298,15.65c-2.485-5.334-4.878-10.468-7.271-15.603c-0.061,0.003-0.121,0.008-0.182,0.011
		c-0.13,1.049-0.269,2.097-0.384,3.148c-0.41,3.715-0.814,7.429-1.208,11.146c-0.043,0.406-0.116,0.691-0.616,0.688
		c-0.447-0.002-0.664-0.103-0.601-0.62c0.191-1.554,0.336-3.117,0.506-4.676c0.296-2.677,0.585-5.352,0.9-8.026
		c0.231-1.951,0.5-3.897,0.75-5.845L79.43,152.339z"/>
	<path fill-rule="evenodd" clip-rule="evenodd" d="M214.729,157.481c-0.875-1.279-1.927-2.243-3.214-2.968
		c-4.436-2.5-10.935-0.471-12.342,5.72c-0.859,3.785,0.724,7.574,3.891,9.373c3.1,1.762,6.239,1.619,9.243-0.315
		c1.497-0.961,2.297-2.438,2.718-4.132c0.106-0.427,0.161-0.868,0.264-1.435c-0.369-0.034-0.705-0.09-1.043-0.091
		c-1.65-0.011-3.301,0.007-4.952-0.021c-0.235-0.003-0.572-0.128-0.683-0.308c-0.237-0.389,0.029-0.757,0.533-0.784
		c0.521-0.027,1.047-0.009,1.57-0.009c1.65,0,3.302-0.01,4.951,0.004c0.804,0.007,0.827,0.03,0.768,0.823
		c-0.388,5.067-3.456,8.245-8.418,8.544c-4.794,0.289-8.841-2.597-9.975-7.205c-0.88-3.57-0.143-6.843,2.509-9.454
		c2.738-2.7,6.101-3.453,9.799-2.436c1.912,0.526,3.436,1.722,4.724,3.212C215.712,156.743,215.704,156.75,214.729,157.481z"/>
	<path fill-rule="evenodd" clip-rule="evenodd" d="M254.214,171.977c-5.288-5.56-10.461-10.996-15.785-16.593
		c-0.035,0.454-0.071,0.707-0.071,0.96c-0.004,4.63-0.003,9.259-0.004,13.888c0,0.322,0.048,0.658-0.03,0.962
		c-0.044,0.17-0.28,0.359-0.466,0.408c-0.285,0.079-0.57-0.01-0.612-0.385c-0.019-0.159-0.013-0.322-0.013-0.483
		c-0.001-5.992,0-11.985,0-18.217c5.294,5.567,10.452,10.991,15.8,16.614c0-0.67,0-1.058,0-1.444c0-4.589,0-9.179,0-13.768
		c0-0.282,0.001-0.563,0.003-0.845c0.004-0.468,0.328-0.471,0.669-0.476c0.331-0.004,0.547,0.102,0.553,0.468
		c0.004,0.201,0.008,0.403,0.008,0.604c0,5.797,0,11.595-0.002,17.39C254.263,171.298,254.238,171.536,254.214,171.977z"/>
	<path fill-rule="evenodd" clip-rule="evenodd" d="M226.375,152.118c2.644,6.586,5.192,12.939,7.742,19.294
		c-1.098,0.343-1.152,0.336-1.532-0.588c-0.644-1.556-1.276-3.114-1.883-4.688c-0.215-0.555-0.513-0.812-1.148-0.8
		c-2.173,0.037-4.347,0.032-6.521,0c-0.584-0.007-0.863,0.212-1.063,0.739c-0.601,1.572-1.241,3.131-1.878,4.689
		c-0.386,0.94-0.396,0.936-1.589,0.705C221.091,165.108,223.674,158.758,226.375,152.118z M226.351,155.167
		c-1.264,3.155-2.415,6.029-3.576,8.93c1.622,0.25,6.216,0.185,7.059-0.098C228.707,161.145,227.583,158.294,226.351,155.167z"/>
	<path fill-rule="evenodd" clip-rule="evenodd" d="M185.581,162.137c0-2.86-0.005-5.719,0.002-8.579
		c0.002-0.938,0.017-0.955,0.913-0.959c2.376-0.009,4.753-0.003,7.13-0.002c0.161,0,0.321,0.004,0.482,0.008
		c0.382,0.009,0.444,0.261,0.447,0.572c0.002,0.331-0.117,0.544-0.479,0.547c-0.483,0.004-0.967,0.006-1.45,0.006
		c-1.732,0.001-3.464,0.011-5.196-0.004c-0.459-0.004-0.64,0.155-0.636,0.63c0.019,1.893,0.022,3.786-0.002,5.679
		c-0.007,0.531,0.18,0.698,0.698,0.692c1.933-0.021,3.866-0.009,5.8-0.006c0.281,0,0.574-0.027,0.839,0.044
		c0.134,0.037,0.311,0.271,0.301,0.404c-0.016,0.198-0.133,0.491-0.286,0.554c-0.243,0.101-0.552,0.057-0.833,0.057
		c-1.893,0.002-3.785-0.006-5.679,0.005c-0.805,0.004-0.823,0.024-0.826,0.787c-0.011,2.377-0.011,4.752-0.001,7.13
		c0.004,0.761,0.022,0.777,0.823,0.781c2.054,0.012,4.108,0,6.162,0.01c0.303,0,0.67-0.094,0.758,0.378
		c0.09,0.479-0.096,0.732-0.63,0.751c-0.645,0.023-1.289,0.007-1.934,0.007c-1.692,0.003-3.383,0.003-5.076,0
		c-1.483,0-1.325,0.072-1.327-1.275C185.578,167.614,185.581,164.875,185.581,162.137z"/>
	<path fill-rule="evenodd" clip-rule="evenodd" d="M124.876,161.941c0-2.821-0.004-5.642,0.002-8.462
		c0.002-0.938,0.014-0.954,0.903-0.958c2.378-0.009,4.755-0.003,7.133-0.003c0.161,0,0.322,0.007,0.483,0.007
		c0.353,0,0.488,0.176,0.492,0.525c0.004,0.356-0.14,0.519-0.492,0.519c-1.248,0-2.498,0.004-3.747,0.006
		c-0.966,0.001-1.934,0.014-2.9-0.004c-0.465-0.009-0.642,0.175-0.639,0.639c0.014,1.894,0.021,3.788-0.002,5.682
		c-0.007,0.551,0.236,0.674,0.725,0.669c1.854-0.016,3.707-0.007,5.561-0.006c0.281,0,0.563,0.011,0.845,0.002
		c0.411-0.013,0.567,0.178,0.567,0.584c0.002,0.437-0.234,0.553-0.606,0.555c-0.522,0-1.047,0.004-1.57,0.004
		c-1.571,0.001-3.143-0.01-4.715,0.006c-0.772,0.008-0.79,0.03-0.793,0.827c-0.009,2.376,0.011,4.754-0.014,7.132
		c-0.005,0.571,0.174,0.776,0.759,0.77c2.015-0.028,4.029-0.023,6.044,0c0.377,0.005,0.964-0.242,0.971,0.509
		c0.007,0.751-0.579,0.525-0.961,0.527c-2.378,0.019-4.755,0.017-7.133,0.007c-0.894-0.002-0.905-0.019-0.908-0.954
		C124.872,167.663,124.876,164.803,124.876,161.941z"/>
	<path fill-rule="evenodd" clip-rule="evenodd" d="M163.02,162.113c0-2.859-0.005-5.718,0.004-8.576
		c0.003-0.918,0.02-0.934,0.942-0.938c2.375-0.009,4.752-0.003,7.127-0.003c0.161,0,0.322,0.001,0.482,0.009
		c0.372,0.018,0.44,0.26,0.447,0.577c0.009,0.349-0.131,0.536-0.481,0.54c-0.645,0.008-1.288,0.009-1.934,0.009
		c-1.569,0.001-3.141,0.019-4.71-0.008c-0.585-0.011-0.771,0.215-0.763,0.782c0.023,1.771-0.001,3.543,0.013,5.314
		c0.006,0.867,0.027,0.89,0.876,0.896c1.933,0.013,3.865-0.008,5.799,0.016c0.374,0.005,0.955-0.249,0.986,0.497
		c0.033,0.769-0.555,0.541-0.938,0.544c-1.933,0.02-3.865,0.003-5.799,0.012c-0.913,0.004-0.924,0.017-0.926,0.931
		c-0.006,2.295-0.01,4.589,0.001,6.885c0.004,0.86,0.023,0.88,0.873,0.884c2.093,0.012,4.187-0.004,6.279,0.01
		c0.642,0.005,0.813,0.17,0.699,0.66c-0.041,0.178-0.271,0.445-0.419,0.448c-2.697,0.025-5.395,0.021-8.092,0.016
		c-0.365,0-0.464-0.247-0.464-0.566c0-0.845-0.004-1.689-0.004-2.536C163.02,166.382,163.02,164.247,163.02,162.113z"/>
	<path fill-rule="evenodd" clip-rule="evenodd" d="M102.851,162.043c0-2.855-0.005-5.711,0.002-8.566
		c0.002-0.936,0.016-0.955,0.909-0.955c1.166,0,2.339-0.045,3.495,0.066c2.11,0.205,3.859,1.112,4.43,3.292
		c0.819,3.132-0.486,5.837-3.841,6.385c-0.982,0.161-1.997,0.133-2.998,0.183c-0.782,0.039-0.807,0.034-0.812,0.822
		c-0.012,2.294-0.004,4.585-0.004,6.879c0,0.279-0.002,0.562-0.007,0.842c-0.004,0.46-0.317,0.48-0.663,0.483
		c-0.354,0.005-0.508-0.159-0.507-0.504c0.003-0.726-0.003-1.449-0.003-2.173C102.849,166.548,102.849,164.296,102.851,162.043z
		 M104.032,157.447c0.001,0,0.001,0,0.003,0c0,1.084,0.005,2.167-0.004,3.251c-0.002,0.378,0.107,0.616,0.534,0.606
		c1.001-0.023,2.016,0.058,3.001-0.078c1.881-0.261,3.03-1.652,3.093-3.561c0.068-2.049-0.934-3.477-2.863-3.854
		c-1.013-0.197-2.069-0.159-3.105-0.236c-0.558-0.042-0.672,0.267-0.665,0.742C104.043,155.36,104.032,156.404,104.032,157.447z"/>
	<path fill-rule="evenodd" clip-rule="evenodd" d="M262.12,162.712c0-2.575,0.004-5.149-0.001-7.723
		c-0.004-1.371,0.196-1.252-1.317-1.257c-0.965-0.003-1.931-0.01-2.896,0.003c-0.438,0.006-0.675-0.116-0.651-0.619
		c0.021-0.448,0.257-0.522,0.625-0.522c3.258,0.005,6.516,0.005,9.774,0.001c0.374,0,0.599,0.094,0.61,0.535
		c0.014,0.507-0.251,0.606-0.672,0.603c-1.007-0.01-2.012-0.003-3.018-0.001c-1.278,0.001-1.217-0.093-1.217,1.269
		c-0.001,5.068-0.001,10.135-0.001,15.203c0,0.24-0.018,0.482,0.004,0.723c0.047,0.53-0.195,0.714-0.706,0.707
		c-0.533-0.005-0.546-0.317-0.544-0.719c0.01-2.734,0.005-5.469,0.005-8.203C262.117,162.712,262.119,162.712,262.12,162.712z"/>
	<path fill-rule="evenodd" clip-rule="evenodd" d="M148.582,163.93c-0.253-0.218-0.462-0.455-0.721-0.61
		c-0.757-0.455-1.633-0.053-1.743,0.778c-0.05,0.385,0.009,0.721,0.421,0.896c0.184,0.08,0.414,0.136,0.523,0.28
		c0.126,0.163,0.25,0.474,0.175,0.609c-0.082,0.149-0.392,0.235-0.603,0.235c-0.178,0.002-0.356-0.156-0.533-0.245
		c-0.74-0.368-1.241-0.133-1.365,0.682c-0.121,0.81,0.134,1.507,0.726,2.081c1.186,1.146,3.427,1.204,4.661,0.119
		c0.679-0.6,0.951-1.444,0.694-2.156c-0.306-0.847-1.089-1.231-1.939-0.956c-0.474,0.156-0.717,0.546-0.584,1.033
		c0.045,0.163,0.236,0.289,0.36,0.432c0.124-0.116,0.254-0.229,0.369-0.353c0.148-0.161,0.257-0.401,0.434-0.469
		c0.107-0.04,0.425,0.159,0.452,0.289c0.049,0.245,0.039,0.577-0.095,0.768c-0.471,0.682-1.475,0.603-1.929-0.114
		c-0.515-0.81-0.173-1.94,0.798-2.293c0.587-0.213,1.257-0.198,1.891-0.282c0.393-0.054,0.813-0.033,1.178-0.164
		c0.532-0.188,0.738-0.695,0.573-1.161c-0.149-0.426-0.533-0.512-0.77-0.122c-0.184,0.302-0.322,0.609-0.705,0.414
		c-0.168-0.085-0.358-0.409-0.314-0.561c0.081-0.274,0.276-0.605,0.517-0.722c0.508-0.249,1.036-0.098,1.458,0.27
		c0.452,0.391,0.679,0.904,0.569,1.507c-0.107,0.578-0.394,1.057-0.942,1.33c-0.284,0.14-0.578,0.259-0.889,0.396
		c0.022,0.131,0.016,0.254,0.065,0.35c0.648,1.286,0.243,2.84-1.204,3.775c-1.543,0.996-3.201,1.066-4.805,0.135
		c-2.021-1.173-2.131-3.571-0.221-4.913c0.518-0.364,0.31-0.761,0.322-1.167c0.033-1.148,0.747-1.921,1.85-1.978
		C148.407,161.983,148.98,162.754,148.582,163.93z"/>
	<path fill-rule="evenodd" clip-rule="evenodd" d="M176.124,162.07c0-2.901-0.006-5.802,0.005-8.703
		c0.002-0.707,0.142-0.806,0.735-0.771c0.357,0.021,0.502,0.182,0.496,0.524c-0.004,0.282,0.003,0.563,0.003,0.846
		c0,5.036,0,10.073,0,15.108c0,0.282,0.015,0.564-0.004,0.848c-0.027,0.417,0.16,0.571,0.567,0.566c1.127-0.009,2.256-0.002,3.384,0
		c0.281,0,0.563,0.005,0.847,0.007c0.352,0.003,0.483,0.185,0.496,0.53c0.015,0.405-0.139,0.604-0.549,0.602
		c-0.484-0.005-0.968,0.002-1.451,0.002c-1.088,0.003-2.175,0.003-3.264,0c-1.318,0-1.268,0.107-1.267-1.22
		C176.125,167.63,176.124,164.849,176.124,162.07z"/>
	<path fill-rule="evenodd" clip-rule="evenodd" d="M115.443,162.008c0-2.896,0-5.792,0-8.687c0-0.406-0.057-0.824,0.576-0.806
		c0.441,0.012,0.684,0.139,0.643,0.626c-0.024,0.279-0.002,0.562-0.002,0.844c0,4.987,0,9.975,0,14.961
		c0,0.282,0.014,0.564-0.002,0.845c-0.027,0.462,0.175,0.644,0.638,0.637c1.085-0.017,2.172-0.005,3.257-0.002
		c0.282,0,0.563,0.002,0.845,0.002c0.321,0,0.526,0.091,0.529,0.479c0.005,0.422-0.189,0.578-0.579,0.571
		c-0.24-0.002-0.483,0.003-0.723,0.003c-1.288,0.002-2.575,0.004-3.861,0c-1.454-0.008-1.317,0.123-1.32-1.268
		C115.438,167.479,115.443,164.744,115.443,162.008z"/>
	<path fill-rule="evenodd" clip-rule="evenodd" d="M71.13,162c0-2.651,0-5.303,0-7.955c0-0.241,0-0.482,0-0.723
		c0-0.411-0.036-0.821,0.593-0.798c0.651,0.022,0.498,0.485,0.527,0.858c0.009,0.12,0.002,0.241,0.002,0.361
		c0,5.504,0,11.008,0,16.512c0,0.201-0.007,0.401-0.002,0.603c0.009,0.366-0.085,0.604-0.527,0.618
		c-0.514,0.016-0.607-0.262-0.593-0.677c0.009-0.282,0-0.563,0-0.845C71.13,167.304,71.13,164.65,71.13,162z"/>
	<path fill-rule="evenodd" clip-rule="evenodd" d="M79.449,152.317c-0.037-0.024-0.074-0.048-0.112-0.071
		c0.021,0.002,0.053-0.003,0.062,0.009c0.016,0.023,0.021,0.055,0.03,0.084L79.449,152.317z"/>
	<path fill-rule="evenodd" clip-rule="evenodd" fill="none" d="M226.351,155.167c1.232,3.127,2.356,5.978,3.482,8.833
		c-0.843,0.282-5.437,0.348-7.059,0.098C223.936,161.197,225.087,158.323,226.351,155.167z"/>
	<path fill-rule="evenodd" clip-rule="evenodd" fill="none" d="M104.032,157.447c0-1.043,0.011-2.087-0.006-3.13
		c-0.007-0.476,0.107-0.784,0.665-0.742c1.036,0.078,2.093,0.039,3.105,0.236c1.929,0.376,2.931,1.805,2.863,3.854
		c-0.063,1.909-1.212,3.3-3.093,3.561c-0.985,0.136-2,0.055-3.001,0.078c-0.427,0.01-0.537-0.228-0.534-0.606
		c0.009-1.083,0.004-2.167,0.004-3.251C104.034,157.447,104.034,157.447,104.032,157.447z"/>
</g>
<circle fill="none" stroke="#000000" stroke-width="12" stroke-miterlimit="10" cx="162" cy="162" r="142.2"/>
</svg>
