<?xml version="1.0" encoding="iso-8859-1"?>
<!-- Generator: Adobe Illustrator 16.0.0, SVG Export Plug-In . SVG Version: 6.00 Build 0)  -->
<!DOCTYPE svg PUBLIC "-//W3C//DTD SVG 1.1//EN" "http://www.w3.org/Graphics/SVG/1.1/DTD/svg11.dtd">
<svg version="1.1" id="Layer_1" xmlns="http://www.w3.org/2000/svg" xmlns:xlink="http://www.w3.org/1999/xlink" x="0px" y="0px"
	 width="324px" height="324px" viewBox="0 0 324 324" style="enable-background:new 0 0 324 324;" xml:space="preserve">
<g>
	<path style="fill-rule:evenodd;clip-rule:evenodd;fill:#DD1223;" d="M237.772,121.945c-0.388,3.12-0.762,6.031-1.106,8.945
		c-0.328,2.768-0.613,5.541-0.938,8.308c-0.325,2.768-0.689,5.531-1.02,8.298c-0.267,2.237-0.502,4.478-0.765,6.716
		c-0.271,2.295-0.563,4.589-0.838,6.885c-0.262,2.179-0.509,4.359-0.768,6.538c-0.282,2.384-0.579,4.766-0.856,7.15
		c-0.261,2.238-0.497,4.48-0.761,6.718c-0.331,2.798-0.685,5.591-1.017,8.389c-0.267,2.237-0.508,4.477-0.771,6.715
		c-0.271,2.297-0.559,4.591-0.832,6.887c-0.263,2.209-0.521,4.417-0.772,6.627c-0.136,1.179-0.262,2.357-0.377,3.539
		c-0.043,0.452-0.331,0.535-0.711,0.643c-9.061,2.551-18.117,5.119-27.173,7.685c-16.497,4.671-32.993,9.339-49.488,14.013
		c-8.915,2.526-17.828,5.058-26.736,7.606c-0.64,0.185-0.902,0.067-1.112-0.59c-6.653-20.773-13.349-41.535-19.96-62.323
		c-0.648-2.037-0.799-4.234-1.165-6.361c-0.641-3.729-1.274-7.46-1.902-11.192c-0.565-3.353-1.116-6.709-1.679-10.063
		c-0.627-3.731-1.264-7.462-1.892-11.193c-0.565-3.354-1.125-6.708-1.687-10.063c-0.562-3.354-1.119-6.708-1.683-10.061
		c-0.57-3.382-1.146-6.763-1.718-10.145c-0.631-3.732-1.26-7.464-1.892-11.196c-0.316-1.865-0.641-3.729-0.956-5.595
		c-0.06-0.354-0.033-0.591,0.458-0.651c4.765-0.579,9.527-1.173,14.288-1.792c4.377-0.568,8.747-1.186,13.125-1.752
		c3.938-0.509,7.883-0.96,11.82-1.47c4.377-0.565,8.748-1.185,13.125-1.752c3.938-0.509,7.883-0.959,11.821-1.469
		c4.376-0.566,8.747-1.186,13.124-1.752c3.938-0.51,7.882-0.966,11.82-1.472c2.997-0.385,5.989-0.809,8.981-1.223
		c0.621-0.086,1.121,0.069,1.634,0.47c9.829,7.689,19.674,15.358,29.515,23.032c6.694,5.219,13.389,10.438,20.084,15.655
		C237.485,121.032,238.072,121.36,237.772,121.945z M225.188,123.566c-0.404-0.333-0.648-0.542-0.903-0.741
		c-8.521-6.646-17.042-13.289-25.563-19.934c-4.719-3.68-9.433-7.366-14.159-11.034c-0.261-0.202-0.47-0.535-0.909-0.477
		c-2.769,0.369-5.539,0.717-8.31,1.078c-3.005,0.391-6.009,0.794-9.016,1.181c-3.447,0.444-6.898,0.869-10.346,1.314
		c-3.477,0.45-6.951,0.921-10.428,1.37c-3.448,0.446-6.898,0.872-10.347,1.313c-3.537,0.454-7.072,0.917-10.607,1.378
		c-3.005,0.392-6.009,0.792-9.015,1.181c-2.976,0.386-5.954,0.761-8.931,1.144c-2.796,0.361-5.591,0.726-8.378,1.087
		c0,0.123-0.018,0.19,0.003,0.241c1.805,4.315,3.615,8.628,5.418,12.945c0.14,0.336,0.317,0.378,0.682,0.317
		c1.727-0.292,3.462-0.538,5.196-0.786c6.379-0.913,12.761-1.806,19.138-2.731c5.965-0.865,11.925-1.767,17.889-2.642
		c6.14-0.899,12.284-1.782,18.423-2.683c0.743-0.109,1.298-0.001,1.882,0.605c7.034,7.304,14.11,14.567,21.159,21.858
		c0.387,0.399,0.76,0.509,1.258,0.418c4.496-0.81,8.99-1.626,13.486-2.427c5.198-0.926,10.397-1.836,15.597-2.756
		C220.591,124.397,222.774,124,225.188,123.566z M188.229,158.217c-0.163-0.226-0.226-0.324-0.298-0.413
		c-4.229-5.234-8.46-10.468-12.688-15.701c-2.565-3.172-5.127-6.347-7.703-9.51c-0.262-0.323-0.459-0.731-1.064-0.615
		c-2.33,0.446-4.673,0.827-7.009,1.241c-8.001,1.417-16,2.848-24.003,4.253c-8.938,1.57-17.879,3.124-26.822,4.665
		c-0.487,0.084-0.492,0.248-0.348,0.628c1.799,4.761,3.592,9.523,5.377,14.289c0.152,0.404,0.331,0.513,0.791,0.419
		c3.194-0.655,6.395-1.273,9.596-1.891c6.926-1.338,13.856-2.654,20.775-4.026c0.627-0.125,0.897,0.005,1.193,0.517
		c2.447,4.241,4.928,8.462,7.365,12.709c0.347,0.604,0.703,0.707,1.355,0.566c7.701-1.663,15.411-3.3,23.118-4.938
		C181.277,159.684,184.695,158.965,188.229,158.217z M155.756,194.572c-2.548-4.986-5.061-9.892-7.557-14.805
		c-0.216-0.425-0.476-0.41-0.867-0.317c-2.219,0.524-4.442,1.03-6.667,1.534c-7.19,1.628-14.381,3.259-21.578,4.865
		c-0.681,0.152-0.792,0.369-0.555,1.037c1.716,4.854,3.402,9.717,5.054,14.592c0.262,0.772,0.511,1.003,1.386,0.781
		c8.35-2.115,16.716-4.169,25.076-6.244C151.937,195.546,153.821,195.062,155.756,194.572z"/>
	<path style="fill-rule:evenodd;clip-rule:evenodd;fill:#FEFEFE;" d="M225.188,123.566c-2.413,0.434-4.597,0.831-6.781,1.219
		c-5.199,0.92-10.398,1.831-15.597,2.756c-4.496,0.801-8.99,1.617-13.486,2.427c-0.498,0.09-0.871-0.02-1.258-0.418
		c-7.049-7.292-14.125-14.555-21.159-21.858c-0.584-0.606-1.139-0.714-1.882-0.605c-6.139,0.901-12.283,1.784-18.423,2.683
		c-5.964,0.875-11.924,1.776-17.889,2.642c-6.377,0.925-12.759,1.818-19.138,2.731c-1.734,0.249-3.47,0.494-5.196,0.786
		c-0.365,0.062-0.542,0.02-0.682-0.317c-1.803-4.316-3.613-8.63-5.418-12.945c-0.021-0.051-0.003-0.118-0.003-0.241
		c2.788-0.362,5.583-0.727,8.378-1.087c2.977-0.383,5.955-0.758,8.931-1.144c3.006-0.389,6.01-0.789,9.015-1.181
		c3.536-0.461,7.071-0.924,10.607-1.378c3.449-0.442,6.899-0.868,10.347-1.313c3.477-0.449,6.951-0.92,10.428-1.37
		c3.448-0.445,6.898-0.87,10.346-1.314c3.007-0.387,6.011-0.79,9.016-1.181c2.771-0.361,5.541-0.708,8.31-1.078
		c0.439-0.059,0.648,0.274,0.909,0.477c4.727,3.668,9.44,7.354,14.159,11.034c8.521,6.646,17.042,13.289,25.563,19.934
		C224.539,123.023,224.783,123.233,225.188,123.566z"/>
	<path style="fill-rule:evenodd;clip-rule:evenodd;fill:#FEFEFE;" d="M188.229,158.217c-3.533,0.748-6.951,1.466-10.366,2.193
		c-7.707,1.639-15.417,3.275-23.118,4.938c-0.652,0.141-1.008,0.038-1.355-0.566c-2.437-4.247-4.917-8.468-7.365-12.709
		c-0.295-0.512-0.565-0.642-1.193-0.517c-6.919,1.372-13.849,2.688-20.775,4.026c-3.201,0.618-6.402,1.236-9.596,1.891
		c-0.46,0.094-0.639-0.015-0.791-0.419c-1.785-4.766-3.578-9.528-5.377-14.289c-0.144-0.38-0.139-0.544,0.348-0.628
		c8.943-1.541,17.884-3.095,26.822-4.665c8.003-1.406,16.002-2.836,24.003-4.253c2.336-0.414,4.679-0.795,7.009-1.241
		c0.605-0.116,0.803,0.292,1.064,0.615c2.576,3.163,5.138,6.337,7.703,9.51c4.229,5.233,8.459,10.467,12.688,15.701
		C188.003,157.894,188.065,157.991,188.229,158.217z"/>
	<path style="fill-rule:evenodd;clip-rule:evenodd;fill:#FEFEFE;" d="M155.756,194.572c-1.935,0.489-3.819,0.974-5.708,1.443
		c-8.36,2.075-16.727,4.129-25.076,6.244c-0.875,0.222-1.125-0.009-1.386-0.781c-1.652-4.875-3.338-9.738-5.054-14.592
		c-0.237-0.668-0.125-0.885,0.555-1.037c7.196-1.606,14.387-3.237,21.578-4.865c2.225-0.504,4.448-1.01,6.667-1.534
		c0.392-0.093,0.651-0.107,0.867,0.317C150.695,184.681,153.208,189.586,155.756,194.572z"/>
</g>
<circle style="fill:none;stroke:#4A4C51;stroke-width:12;stroke-miterlimit:10;" cx="162.514" cy="162.576" r="142.2"/>
</svg>
