<?xml version="1.0" encoding="iso-8859-1"?>
<!-- Generator: Adobe Illustrator 16.0.0, SVG Export Plug-In . SVG Version: 6.00 Build 0)  -->
<!DOCTYPE svg PUBLIC "-//W3C//DTD SVG 1.1//EN" "http://www.w3.org/Graphics/SVG/1.1/DTD/svg11.dtd">
<svg version="1.1" id="Layer_1" xmlns="http://www.w3.org/2000/svg" xmlns:xlink="http://www.w3.org/1999/xlink" x="0px" y="0px"
	 width="324px" height="324px" viewBox="0 0 324 324" style="enable-background:new 0 0 324 324;" xml:space="preserve">
<g>
	<path style="fill-rule:evenodd;clip-rule:evenodd;" d="M248.063,142.762c-0.807,0.455-1.566,1.133-2.431,1.313
		c-1.414,0.293-2.895,0.355-4.348,0.355c-10.162,0.001-20.325,0.029-30.386,1.704c-2.585,0.43-5.179,1.069-7.633,1.978
		c-4.193,1.555-5.021,4.297-2.316,7.854c5.062,6.657,10.363,13.129,15.433,19.782c5.306,6.959,10.599,13.939,15.598,21.121
		c1.823,2.617,3.096,5.738,4.072,8.805c1.631,5.115,0.065,9.523-4.035,12.969c-3.915,3.289-8.575,5.072-13.452,6.305
		c-8.187,2.068-16.559,2.492-24.915,1.941c-9-0.592-17.979-1.633-26.938-2.719c-2.628-0.32-5.18-1.396-7.72-2.266
		c-1.063-0.365-2.457-0.852-2.253-2.334c0.219-1.582,1.759-1.633,2.933-1.684c4.314-0.186,8.634-0.262,12.953-0.334
		c12.178-0.201,24.354-0.445,36.417-2.354c2.261-0.355,4.527-0.898,6.674-1.676c3.387-1.229,4.87-4.438,3.19-7.615
		c-1.927-3.652-4.142-7.227-6.719-10.441c-6.142-7.664-12.569-15.094-18.88-22.621c-3.432-4.092-6.774-8.25-9.047-13.132
		c-0.611-1.317-1.139-2.696-1.506-4.098c-1.324-5.064-0.012-9.298,4.141-12.594c4.806-3.815,10.425-5.656,16.358-6.622
		c12.589-2.048,25.063-0.969,37.442,1.689c2.794,0.6,5.567,1.46,7.366,3.999C248.063,142.313,248.063,142.537,248.063,142.762z"/>
	<path style="fill-rule:evenodd;clip-rule:evenodd;" d="M113.123,167.984c-4.039,0-8.081,0.043-12.119-0.027
		c-1.103-0.018-2.249-0.229-3.285-0.6c-1.556-0.559-1.831-2.018-0.492-2.965c1.259-0.891,2.708-1.616,4.178-2.088
		c10.303-3.308,20.924-4.45,31.695-4.45c9.329-0.001,18.474,1.207,27.246,4.506c2.188,0.822,4.336,1.878,6.299,3.146
		c4.073,2.627,5.682,6.523,5.067,11.299c-0.797,6.209-3.578,11.668-6.738,16.922c-6.344,10.545-15.189,18.693-25.223,25.592
		c-17.48,12.02-36.615,20.365-57.243,25.285c-1.469,0.35-2.974,0.598-4.477,0.74c-0.654,0.061-1.551-0.068-1.951-0.484
		c-0.286-0.297-0.096-1.295,0.17-1.838c1.352-2.773,2.758-5.521,4.216-8.24c8.012-14.938,16.178-29.795,25.819-43.762
		c2.568-3.723,5.645-7.102,8.58-10.557c0.704-0.83,1.71-1.504,2.712-1.939c0.729-0.316,1.944-0.463,2.463-0.064
		c0.604,0.469,1.076,1.697,0.913,2.443c-0.338,1.555-0.987,3.092-1.764,4.492c-5.356,9.668-10.801,19.287-16.162,28.953
		c-1.604,2.893-3.049,5.875-4.539,8.83c-0.427,0.85-0.81,1.732-1.112,2.633c-1.061,3.156,0.481,5.035,3.76,4.498
		c1.26-0.207,2.544-0.564,3.689-1.115c12.966-6.232,25.21-13.551,35.368-23.934c5.228-5.344,9.583-11.295,12.354-18.295
		c0.576-1.455,1.07-2.965,1.386-4.494c0.95-4.615-0.539-8.115-4.864-9.941c-3.423-1.445-7.105-2.646-10.775-3.063
		c-8.345-0.951-16.753-1.352-25.134-1.977C113.147,167.656,113.136,167.82,113.123,167.984z"/>
	<path style="fill-rule:evenodd;clip-rule:evenodd;" d="M140.466,148.735c0.647-0.563,1.259-1.179,1.949-1.684
		c10.944-7.993,21.363-16.592,30.604-26.546c4.444-4.787,8.471-9.893,11.398-15.773c0.695-1.396,1.298-2.871,1.702-4.374
		c0.953-3.549-0.04-6.399-3.401-7.857c-3.194-1.385-6.665-2.332-10.109-2.904c-9.43-1.568-18.974-1.814-28.519-1.874
		c-2.074-0.013-4.148-0.104-6.22-0.219c-0.662-0.037-1.349-0.179-1.961-0.426c-1.381-0.556-1.643-1.901-0.411-2.722
		c1.239-0.828,2.645-1.492,4.066-1.946c9.732-3.11,19.765-3.935,29.915-3.741c6.935,0.132,13.758,1.056,20.392,3.116
		c1.863,0.579,3.713,1.313,5.432,2.231c6.066,3.243,8.349,8.397,6.746,15.093c-1.658,6.934-5.343,12.803-9.875,18.17
		c-7.713,9.132-17.167,16.155-27.622,21.745c-6.858,3.667-14.08,6.659-21.163,9.901c-0.782,0.359-1.727,0.37-2.596,0.542
		C140.684,149.224,140.575,148.979,140.466,148.735z"/>
</g>
<circle style="fill-rule:evenodd;clip-rule:evenodd;fill:none;stroke:#EE302A;stroke-width:12;stroke-miterlimit:10;" cx="162" cy="161.999" r="142.2"/>
</svg>
