<?xml version="1.0" encoding="utf-8"?>
<!-- Generator: Adobe Illustrator 16.0.0, SVG Export Plug-In . SVG Version: 6.00 Build 0)  -->
<!DOCTYPE svg PUBLIC "-//W3C//DTD SVG 1.1//EN" "http://www.w3.org/Graphics/SVG/1.1/DTD/svg11.dtd">
<svg version="1.1" id="Layer_1" xmlns="http://www.w3.org/2000/svg" xmlns:xlink="http://www.w3.org/1999/xlink" x="0px" y="0px"
	 width="324px" height="324px" viewBox="0 -36 324 324" enable-background="new 0 -36 324 324" xml:space="preserve">
<g id="Layer_1_1_">
	<g>
		<path fill="#69B72B" d="M99.395,203.564c6.908-0.203,10.804-3.689,10.73-9.442c-0.064-5.065-4.076-9.022-9.167-9.043
			c-5.911-0.021-9.03,3.899-9.233,11.61c-30.623-28.036-43.025-83.99-11.389-128.478c17.948-25.237,42.736-39.506,73.654-41.964
			c30.816-2.45,57.189,8.052,79.394,29.725c4.32-5.585,7.466-11.69,10.353-17.949c1.052,0.235,0.916,1.169,1.113,1.773
			c5.994,18.379,11.498,36.893,14.754,55.993c3.734,21.9,4.131,43.745-4.125,64.728c-14.422,36.668-41.414,58.608-80.371,64.457
			c-27.477,4.125-52.528-3.195-74.646-20.16c-0.261-0.201-0.515-0.412-0.749-0.643C99.611,204.072,99.572,203.912,99.395,203.564z
			 M232.178,107.347c-0.176,1.185-0.302,2.381-0.543,3.552c-0.148,0.716-0.449,1.404-0.723,2.089
			c-11.994,30.076-32.924,51.697-62.182,65.271c-9.986,4.633-20.78,7.051-31.213,10.455c-5.103,1.666-10.188,3.385-15.279,5.077
			c0.047,0.198,0.092,0.396,0.138,0.595c2.233-0.252,4.462-0.567,6.702-0.742c10.625-0.819,21.213,0.298,31.814,0.688
			c15.715,0.583,31.403,0.82,46.879-2.719c23.742-5.433,39.584-19.437,46.446-43.032c4.276-14.701,4.248-29.705,2.479-44.751
			c-1.488-12.646-4.268-25.044-7.762-37.281c-1.744-6.106-3.563-12.191-5.871-18.553c-0.767,1.344-1.312,2.319-1.875,3.282
			c-0.584,0.993-1.14,2.004-1.785,2.954c-12.111,17.792-29.027,28.98-49.196,35.62c-12.577,4.14-25.728,4.051-38.733,4.909
			c-9.063,0.598-17.914,2.017-26.354,5.523c-24.175,10.046-37.515,34.09-32.24,58.589c1.959,9.095,6.452,16.655,14.987,21.257
			c1.16,0.627,2.283,0.799,3.542,0.525c14.096-3.048,28.149-6.256,42.004-10.291c28.692-8.354,51.953-24.52,69.731-48.535
			C226.506,117.288,229.275,112.37,232.178,107.347z"/>
		<path fill="#FEFEFD" d="M232.178,107.347c-2.902,5.023-5.672,9.941-9.033,14.482c-17.778,24.017-41.039,40.181-69.731,48.535
			c-13.854,4.035-27.908,7.243-42.004,10.291c-1.259,0.272-2.382,0.101-3.542-0.524c-8.535-4.604-13.028-12.164-14.987-21.258
			c-5.274-24.499,8.065-48.542,32.24-58.589c8.44-3.506,17.293-4.925,26.354-5.523c13.006-0.857,26.156-0.769,38.733-4.909
			c20.169-6.639,37.085-17.828,49.196-35.62c0.646-0.949,1.201-1.961,1.785-2.954c0.563-0.963,1.108-1.938,1.875-3.282
			c2.309,6.362,4.127,12.447,5.871,18.553c3.494,12.236,6.272,24.635,7.762,37.281c1.77,15.046,1.798,30.051-2.479,44.751
			c-6.862,23.597-22.704,37.601-46.446,43.032c-15.476,3.539-31.164,3.302-46.879,2.719c-10.603-0.393-21.189-1.509-31.814-0.688
			c-2.24,0.174-4.469,0.49-6.702,0.742c-0.046-0.199-0.091-0.396-0.138-0.596c5.093-1.693,10.178-3.412,15.279-5.076
			c10.433-3.406,21.227-5.824,31.213-10.457c29.258-13.574,50.188-35.195,62.182-65.271c0.273-0.685,0.574-1.373,0.723-2.089
			C231.876,109.728,232.002,108.532,232.178,107.347z"/>
	</g>
</g>
<g id="circle">
	<circle fill="none" stroke="#69B72B" stroke-width="12" stroke-miterlimit="10" cx="162" cy="126" r="142.2"/>
</g>
</svg>
