<?xml version="1.0" encoding="utf-8"?>
<!-- Generator: Adobe Illustrator 16.0.0, SVG Export Plug-In . SVG Version: 6.00 Build 0)  -->
<!DOCTYPE svg PUBLIC "-//W3C//DTD SVG 1.1//EN" "http://www.w3.org/Graphics/SVG/1.1/DTD/svg11.dtd">
<svg version="1.1" xmlns="http://www.w3.org/2000/svg" xmlns:xlink="http://www.w3.org/1999/xlink" x="0px" y="0px" width="324px"
	 height="324px" viewBox="0 0 324 324" style="enable-background:new 0 0 324 324;" xml:space="preserve">
<style type="text/css">
<![CDATA[
	.st0{fill-rule:evenodd;clip-rule:evenodd;fill:#FDDA77;}
	.st1{fill-rule:evenodd;clip-rule:evenodd;fill:#CFA42B;}
	.st2{fill-rule:evenodd;clip-rule:evenodd;fill:none;stroke:#CFA42B;stroke-width:12;stroke-miterlimit:10;}
	.st3{fill-rule:evenodd;clip-rule:evenodd;fill:#040404;}
]]>
</style>
<g id="Layer_1">
	<g>
		<path class="st3" d="M147.411,134.07c-2.468,1.105-5.039,1.646-7.663,1.924c-4.357,0.462-8.682,0.313-12.915-0.961
			c-0.529-0.159-1.04-0.382-1.556-0.583c-2.323-0.907-3.461-2.57-3.248-5.097c0.018-0.205,0.003-0.412,0.003-0.695
			c-3.441-0.61-6.89-0.974-10.363-0.65c-10.829,1.009-18.314,7.741-20.419,18.396c-1.053,5.33-0.218,10.514,1.564,15.581
			c1.953,5.555,4.925,10.552,8.386,15.278c0.058,0.079,0.158,0.127,0.182,0.146c18.424-17.682,39.966-29.806,64.525-36.711
			c-1.359-5.288-2.246-10.701-2.604-16.191c-0.571-8.796-0.256-17.515,2.583-25.975c0.274-0.817,0.61-1.616,1.188-2.433
			c7.432,3.998,14.813,7.976,17.948,16.694c11.358-1.861,22.783-2.041,34.309-0.417c1.558-3.979,4.369-6.969,7.581-9.626
			c3.193-2.643,6.651-4.858,10.791-6.544c2.5,9.905,3.342,19.827,2.84,29.87c-0.505,10.088-2.877,19.749-7.137,29.1
			c2.249,0,4.348,0,6.484,0c0,0.829,0,1.537,0,2.34c-2.279,0-4.499,0.029-6.717-0.017c-0.688-0.015-1.07,0.169-1.342,0.826
			c-0.325,0.786-0.79,1.517-1.255,2.385c3.172,0,6.214,0,9.316,0c0,0.79,0,1.502,0,2.319c-2.314,0-4.601-0.004-6.888,0.002
			c-1.25,0.003-2.698-0.364-3.694,0.146c-0.948,0.485-1.425,1.895-2.108,2.897c-4.824,7.083-10.713,13.136-17.624,18.196
			c-0.306,0.225-0.605,0.457-0.973,0.735c1.509,1.603,2.98,3.164,4.45,4.729c7.436,7.909,14.945,15.748,22.151,23.87
			c0.366,0.413,0.751,0.511,1.269,0.517c4.526,0.051,8.842,0.974,12.702,3.433c2.661,1.694,4.611,3.985,5.332,7.165
			c0.226,0.996-0.041,1.917-0.273,2.929c-1.018,0-1.985,0-2.953,0c-5.219,0-10.439-0.008-15.66,0.01
			c-0.681,0.002-1.276-0.14-1.885-0.456c-13.171-6.858-26.493-13.398-40.243-19.029c-14.518-5.944-29.375-10.771-44.843-13.571
			c-4.585-0.829-9.201-1.445-13.838-1.901c-0.232-0.022-0.481-0.11-0.749,0.098c0.334,4.957,1.648,9.584,4.792,13.583
			c0.442,0.563,0.819,0.74,1.562,0.518c1.888-0.564,3.828-0.651,5.777-0.261c3.829,0.77,5.63,3.13,5.355,7.051
			c-0.305,0.24-0.667,0.124-1,0.124c-4.454,0.009-8.909-0.004-13.363,0.018c-0.627,0.004-1.117-0.171-1.624-0.534
			c-8.469-6.053-16.626-12.488-24.128-19.722c-0.413-0.398-0.754-0.457-1.276-0.303c-11.286,3.341-18.407,10.594-20.813,22.226
			c-0.584,2.827-0.334,5.673,0.373,8.553c-6.853,0-13.614,0-20.453,0c-0.242-1.239-0.022-2.417,0.496-3.585
			c1.67-3.759,3.828-7.239,6.058-10.676c6.794-10.467,14.489-20.234,22.941-29.409c0.116-0.126,0.228-0.257,0.4-0.451
			c-1.365-1.922-2.745-3.83-3.979-5.835c-3.3-5.358-5.993-10.982-7.043-17.24c-1.867-11.136,1.199-20.538,10.282-27.556
			c4.831-3.731,10.554-4.771,16.539-4.582c2.401,0.077,4.775,0.435,7.141,0.853c0.372,0.066,0.782,0.267,1.074-0.284
			c1.357-2.562,3.607-3.104,6.219-2.554c7.27,1.533,13.275,5.151,17.885,11.017C147.324,133.8,147.335,133.875,147.411,134.07z
			 M155.841,163.885c-0.212-0.113-0.435-0.211-0.634-0.345c-4.592-3.078-9.18-6.163-13.775-9.235
			c-0.347-0.231-0.64-0.648-1.196-0.351c-1.37,0.735-2.764,1.427-4.207,2.165c1.704,2.952,3.358,5.816,5.04,8.73
			c-0.506,0.093-0.769-0.176-1.063-0.324c-3.07-1.551-6.134-3.112-9.201-4.668c-0.327-0.166-0.613-0.409-1.044-0.146
			c-2.248,1.37-4.489,2.748-6.64,4.259c0.789,2.842,1.561,5.627,2.334,8.411c-0.069,0.042-0.138,0.084-0.208,0.124
			c-2.396-1.649-4.792-3.299-7.212-4.966c-5.211,3.866-10.112,8.001-14.563,12.686c2.527,3.188,5.241,6.123,8.046,8.978
			c0.277,0.283,0.562,0.359,0.934,0.292c5.355-0.973,10.744-0.674,16.132-0.433c0.714,0.031,1.431,0.004,2.185,0.004
			c0.186-5.602,1.136-11.009,2.64-16.39c1.069,0.296,2.032,0.563,3.028,0.839c-1.359,5.246-2.401,10.463-2.469,15.872
			c0.322,0.047,0.523,0.088,0.726,0.104c6.418,0.529,12.773,1.516,19.074,2.818c14.098,2.913,27.696,7.436,40.996,12.895
			c13.544,5.559,26.683,11.979,39.655,18.745c0.639,0.333,1.269,0.48,1.986,0.476c3.862-0.023,7.725-0.011,11.587-0.011
			c0.996,0,1.993,0,3.027,0c-2.298-5.392-9.698-8.284-16.136-7.221c-0.234-0.273-0.453-0.544-0.688-0.798
			c-3.885-4.18-7.903-8.244-11.599-12.583c-1.739-2.043-3.31-2.609-5.811-1.648c-2.214,0.852-4.607,1.237-6.92,1.828
			c-0.033-0.063-0.066-0.125-0.099-0.188c2.458-1.885,4.916-3.771,7.424-5.694c-1.605-1.732-3.114-3.36-4.647-5.015
			c-2.604,1.184-5.175,2.353-7.746,3.521c-0.04-0.054-0.08-0.107-0.12-0.162c1.499-2.323,2.998-4.646,4.497-6.971
			c-0.669-0.734-1.348-1.351-1.871-2.079c-0.664-0.923-1.27-0.941-2.104-0.232c-0.523,0.443-1.198,0.702-1.766,1.099
			c-0.448,0.313-0.788,0.222-1.224-0.04c-10.482-6.307-19.408-14.272-26.176-24.538c-0.324-0.49-0.677-0.685-1.271-0.679
			c-3.166,0.029-6.333,0.018-9.499,0.007c-0.365-0.001-0.761,0.124-1.113-0.146c0-0.688,0-1.368,0-2.144c3.305,0,6.555,0,9.836,0
			c-0.991-2.941-1.353-3.212-4.194-3.212c-0.384,0-0.766,0-1.149,0c-1.482,0-2.964,0-4.476,0c-0.081-0.858-0.162-1.565,0.053-2.352
			c2.292,0,4.544,0,6.938,0c-1.727-3.703-3.168-7.371-4.305-11.129c-1.926,0.047-13.672,3.86-15.735,5.092
			c0.095,0.289,0.192,0.583,0.29,0.877c1.525,4.578,3.051,9.156,4.577,13.734C155.937,163.789,155.888,163.836,155.841,163.885z
			 M168.88,138.549c0.446,1.6,0.864,3.066,1.263,4.537c0.117,0.43,0.43,0.577,0.8,0.723c1.416,0.555,2.823,1.132,4.397,1.767
			c-1.43,0.414-2.682,0.776-3.977,1.151c0.853,2.538,1.924,4.899,2.943,7.286c0.406,0.951,0.944,1.278,1.965,1.203
			c1.35-0.1,2.712-0.039,4.069-0.02c0.813,0.011,1.639-0.096,2.438,0.082c0,0.76,0,1.446,0,2.255c-2.201,0-4.362,0-6.679,0
			c0.557,0.968,1.05,1.759,1.473,2.586c0.239,0.47,0.542,0.626,1.061,0.612c1.377-0.034,2.757-0.011,4.125-0.011
			c0,0.839,0,1.55,0,2.309c-0.582,0-1.1,0-1.617,0c-0.529,0-1.061,0-1.736,0c6.079,9.052,13.691,16.053,23.226,20.929
			c0.572,0.294,0.906,0.041,1.314-0.2c8.673-5.13,15.791-11.906,21.437-20.243c0.091-0.135,0.235-0.268,0.046-0.549
			c-1.346,0-2.752,0-4.21,0c0.092-0.799-0.097-1.521,0.14-2.245c1.715,0,3.383,0.007,5.052-0.006
			c0.323-0.003,0.696,0.134,0.924-0.28c0.513-0.935,1.136-1.811,1.561-2.93c-2.583,0-5.073,0-7.606,0c0-0.805,0-1.518,0-2.313
			c0.39,0,0.732,0,1.075,0c2.331,0,4.662-0.002,6.994,0.001c0.421,0,0.817,0.033,1.039-0.471c0.751-1.711,1.564-3.395,2.18-5.238
			c-1.353-0.507-2.669-0.999-4.225-1.581c1.746-0.512,3.228-0.948,4.711-1.38c0.296-0.086,0.613-0.109,0.733-0.482
			c0.546-1.704,1.062-3.415,1.426-5.223c-1.821-0.284-3.541-0.552-5.534-0.864c2.039-0.873,3.813-1.647,5.601-2.388
			c0.488-0.202,0.749-0.448,0.846-1.021c0.478-2.85,0.844-5.71,0.972-8.596c0.323-7.239,0.138-14.471-0.448-21.691
			c-0.135-1.673-0.292-3.358-0.827-5.193c-0.38,1.385-0.665,2.554-1.021,3.702c-1.457,4.704-3.746,8.883-7.648,12.041
			c-0.506,0.409-0.951,0.5-1.604,0.334c-5.71-1.458-11.522-2.211-17.409-2.443c-0.663-0.026-0.977,0.102-1.156,0.807
			c-0.488,1.916-1.08,3.806-1.635,5.705c-0.542,1.856-1.087,3.711-1.685,5.751c-1.788-3.926-3.506-7.641-5.162-11.383
			c-0.295-0.666-0.641-0.838-1.329-0.786c-5.796,0.44-11.536,1.221-17.149,2.775c-0.592,0.164-1.064,0.098-1.588-0.157
			c-4.225-2.055-6.768-5.535-8.335-9.833c-0.392-1.074-0.726-2.172-1.028-3.275c-0.29-1.064-0.504-2.15-0.791-3.396
			c-0.137,0.296-0.217,0.412-0.244,0.539c-2.318,10.372-2.107,20.774-0.396,31.197c0.083,0.504,0.37,0.748,0.804,0.974
			c2.37,1.235,4.726,2.5,7.076,3.773c0.278,0.151,0.66,0.198,0.837,0.664C173.905,138.216,171.494,138.375,168.88,138.549z
			 M108.193,190.346c-2.374-2.494-4.692-5.062-6.887-7.74c-7.393,6.614-26.438,32.463-28.166,38.222c4.235,0,8.458,0,12.594,0
			C86.188,205.481,93.978,195.652,108.193,190.346z"/>
		<path class="st1" d="M155.988,163.744c-1.526-4.578-3.052-9.156-4.577-13.734c-0.098-0.294-0.195-0.588-0.29-0.877
			c2.063-1.231,13.809-5.045,15.735-5.092c1.137,3.758,2.578,7.426,4.305,11.129c-2.395,0-4.646,0-6.938,0
			c-0.215,0.786-0.134,1.493-0.053,2.352c1.512,0,2.993,0,4.476,0c0.384,0,0.766,0,1.149,0c2.842,0,3.203,0.271,4.194,3.212
			c-3.281,0-6.531,0-9.836,0c0,0.775,0,1.455,0,2.144c0.353,0.27,0.748,0.145,1.113,0.146c3.166,0.011,6.333,0.022,9.499-0.007
			c0.594-0.006,0.946,0.188,1.271,0.679c6.768,10.266,15.693,18.231,26.176,24.538c0.436,0.262,0.775,0.354,1.224,0.04
			c0.567-0.396,1.242-0.655,1.766-1.099c0.835-0.709,1.44-0.69,2.104,0.232c0.523,0.729,1.202,1.345,1.871,2.079
			c-1.499,2.324-2.998,4.647-4.497,6.971c0.04,0.055,0.08,0.108,0.12,0.162c2.571-1.169,5.143-2.338,7.746-3.521
			c1.533,1.654,3.042,3.282,4.647,5.015c-2.508,1.924-4.966,3.81-7.424,5.694c0.032,0.063,0.065,0.125,0.099,0.188
			c2.313-0.591,4.706-0.977,6.92-1.828c2.501-0.961,4.071-0.395,5.811,1.648c3.695,4.339,7.714,8.403,11.599,12.583
			c0.235,0.254,0.454,0.524,0.688,0.798c6.438-1.063,13.838,1.829,16.136,7.221c-1.034,0-2.031,0-3.027,0
			c-3.862,0-7.725-0.013-11.587,0.011c-0.718,0.005-1.348-0.143-1.986-0.476c-12.973-6.767-26.111-13.187-39.655-18.745
			c-13.3-5.459-26.898-9.981-40.996-12.895c-6.301-1.303-12.655-2.289-19.074-2.818c-0.203-0.017-0.404-0.058-0.726-0.104
			c0.068-5.409,1.11-10.626,2.469-15.872c-0.996-0.275-1.959-0.543-3.028-0.839c-1.504,5.381-2.455,10.788-2.64,16.39
			c-0.754,0-1.471,0.027-2.185-0.004c-5.388-0.241-10.777-0.54-16.132,0.433c-0.372,0.067-0.657-0.009-0.934-0.292
			c-2.805-2.854-5.52-5.79-8.046-8.978c4.451-4.685,9.352-8.819,14.563-12.686c2.421,1.667,4.817,3.316,7.212,4.966
			c0.069-0.04,0.138-0.082,0.208-0.124c-0.773-2.784-1.545-5.569-2.334-8.411c2.151-1.511,4.392-2.889,6.64-4.259
			c0.432-0.264,0.717-0.021,1.044,0.146c3.067,1.556,6.131,3.117,9.201,4.668c0.293,0.148,0.557,0.417,1.063,0.324
			c-1.682-2.914-3.336-5.778-5.04-8.73c1.443-0.738,2.836-1.43,4.207-2.165c0.556-0.298,0.85,0.119,1.196,0.351
			c4.596,3.072,9.184,6.157,13.775,9.235c0.199,0.134,0.422,0.231,0.634,0.345c0.063,0.032,0.126,0.065,0.19,0.098
			C156.016,163.902,156.002,163.823,155.988,163.744z"/>
		<path class="st0" d="M168.88,138.549c2.614-0.174,5.025-0.333,7.484-0.496c-0.177-0.466-0.559-0.513-0.837-0.664
			c-2.351-1.273-4.706-2.538-7.076-3.773c-0.434-0.227-0.721-0.47-0.804-0.974c-1.712-10.423-1.923-20.826,0.396-31.197
			c0.027-0.127,0.107-0.243,0.244-0.539c0.287,1.247,0.501,2.332,0.791,3.396c0.303,1.104,0.637,2.202,1.028,3.275
			c1.567,4.298,4.11,7.777,8.335,9.833c0.523,0.255,0.996,0.321,1.588,0.157c5.613-1.554,11.354-2.335,17.149-2.775
			c0.688-0.052,1.034,0.12,1.329,0.786c1.656,3.742,3.374,7.457,5.162,11.383c0.598-2.04,1.143-3.895,1.685-5.751
			c0.555-1.899,1.146-3.789,1.635-5.705c0.18-0.705,0.493-0.833,1.156-0.807c5.887,0.231,11.699,0.984,17.409,2.443
			c0.653,0.167,1.099,0.075,1.604-0.334c3.902-3.158,6.191-7.337,7.648-12.041c0.355-1.147,0.641-2.316,1.021-3.702
			c0.535,1.835,0.692,3.521,0.827,5.193c0.586,7.22,0.771,14.452,0.448,21.691c-0.128,2.886-0.494,5.747-0.972,8.596
			c-0.097,0.573-0.357,0.819-0.846,1.021c-1.788,0.74-3.562,1.515-5.601,2.388c1.993,0.312,3.713,0.58,5.534,0.864
			c-0.364,1.808-0.88,3.519-1.426,5.223c-0.12,0.373-0.438,0.396-0.733,0.482c-1.483,0.432-2.965,0.868-4.711,1.38
			c1.556,0.582,2.872,1.074,4.225,1.581c-0.615,1.844-1.429,3.527-2.18,5.238c-0.222,0.504-0.618,0.471-1.039,0.471
			c-2.332-0.003-4.663-0.001-6.994-0.001c-0.343,0-0.686,0-1.075,0c0,0.796,0,1.509,0,2.313c2.533,0,5.023,0,7.606,0
			c-0.425,1.119-1.048,1.995-1.561,2.93c-0.228,0.414-0.601,0.277-0.924,0.28c-1.669,0.013-3.337,0.006-5.052,0.006
			c-0.236,0.724-0.048,1.446-0.14,2.245c1.458,0,2.864,0,4.21,0c0.189,0.281,0.045,0.414-0.046,0.549
			c-5.646,8.337-12.764,15.113-21.437,20.243c-0.408,0.241-0.742,0.494-1.314,0.2c-9.534-4.876-17.146-11.877-23.226-20.929
			c0.676,0,1.207,0,1.736,0c0.518,0,1.035,0,1.617,0c0-0.759,0-1.47,0-2.309c-1.368,0-2.748-0.023-4.125,0.011
			c-0.519,0.014-0.821-0.143-1.061-0.612c-0.423-0.827-0.916-1.618-1.473-2.586c2.316,0,4.478,0,6.679,0c0-0.809,0-1.495,0-2.255
			c-0.799-0.178-1.624-0.071-2.438-0.082c-1.357-0.02-2.72-0.08-4.069,0.02c-1.021,0.075-1.559-0.252-1.965-1.203
			c-1.02-2.387-2.091-4.748-2.943-7.286c1.295-0.375,2.547-0.737,3.977-1.151c-1.574-0.635-2.981-1.212-4.397-1.767
			c-0.37-0.146-0.683-0.293-0.8-0.723C169.744,141.615,169.326,140.149,168.88,138.549z M193.094,141.512
			c-1.02,3.669-2.429,7.072-4.283,10.305c3.992,2.519,7.885,4.975,11.839,7.47c-2.288,1.515-4.454,2.95-6.669,4.417
			c0.408,0.612,0.764,1.146,1.146,1.72c2.33-1.537,4.569-2.993,6.778-4.493c0.508-0.344,0.877-0.347,1.375-0.003
			c1.374,0.945,2.778,1.845,4.175,2.757c1.061,0.692,2.126,1.376,3.215,2.08c0.39-0.633,0.713-1.157,1.082-1.757
			c-2.503-1.556-4.94-3.07-7.448-4.629c3.947-2.565,7.812-5.076,11.738-7.628c-2.146-3.142-3.392-6.42-2.196-10.311
			c3.284,0,6.532,0,9.794,0c0-0.724,0-1.335,0-2.035c-2.988,0-5.926,0-8.981,0c0.679-1.83,1.568-3.371,2.917-4.616
			c2.639-2.437,5.965-2.743,9.35-2.905c0.053-0.711,0.12-1.358-0.057-2.034c-6.949,0.011-12.157,2.617-14.421,9.517
			c-5.62,0-11.111,0-16.632,0c0.029-0.18,0.049-0.315,0.075-0.45c0.664-3.322,1.111-6.658,0.505-10.042
			c-0.595-3.32-2.551-5.234-5.355-5.285c-4.059-0.073-8.584,3.386-9.619,7.388c0.6,0.218,1.201,0.437,1.813,0.659
			c0.216-0.413,0.367-0.724,0.535-1.023c1.211-2.156,2.797-3.885,5.252-4.637c2.934-0.898,4.685,0.083,5.28,3.074
			c0.694,3.484,0.086,6.899-0.663,10.378c-3.166,0-6.283,0-9.471,0c-0.004,0.729-0.096,1.371,0.095,2.083
			C187.191,141.512,190.099,141.512,193.094,141.512z"/>
		<path class="st1" d="M108.193,190.346c-14.215,5.307-22.005,15.136-22.458,30.481c-4.136,0-8.359,0-12.594,0
			c1.728-5.759,20.772-31.607,28.166-38.222C103.5,185.284,105.819,187.852,108.193,190.346z"/>
		<path class="st3" d="M155.988,163.744c0.014,0.079,0.028,0.158,0.043,0.238c-0.063-0.032-0.126-0.065-0.19-0.098
			C155.888,163.836,155.937,163.789,155.988,163.744z"/>
		<path class="st3" d="M193.094,141.512c-2.995,0-5.902,0-8.833,0c-0.19-0.712-0.099-1.354-0.095-2.083c3.188,0,6.305,0,9.471,0
			c0.749-3.479,1.357-6.894,0.663-10.378c-0.596-2.991-2.347-3.972-5.28-3.074c-2.455,0.751-4.041,2.48-5.252,4.637
			c-0.168,0.3-0.319,0.61-0.535,1.023c-0.611-0.222-1.213-0.441-1.813-0.659c1.035-4.002,5.561-7.46,9.619-7.388
			c2.805,0.05,4.761,1.964,5.355,5.285c0.606,3.384,0.159,6.72-0.505,10.042c-0.026,0.135-0.046,0.271-0.075,0.45
			c5.521,0,11.012,0,16.632,0c2.264-6.9,7.472-9.506,14.421-9.517c0.177,0.675,0.109,1.323,0.057,2.034
			c-3.385,0.162-6.711,0.468-9.35,2.905c-1.349,1.245-2.238,2.786-2.917,4.616c3.056,0,5.993,0,8.981,0c0,0.7,0,1.311,0,2.035
			c-3.262,0-6.51,0-9.794,0c-1.195,3.891,0.051,7.169,2.196,10.311c-3.927,2.552-7.791,5.063-11.738,7.628
			c2.508,1.559,4.945,3.073,7.448,4.629c-0.369,0.6-0.692,1.124-1.082,1.757c-1.089-0.704-2.154-1.388-3.215-2.08
			c-1.396-0.912-2.801-1.812-4.175-2.757c-0.498-0.344-0.867-0.341-1.375,0.003c-2.209,1.5-4.448,2.956-6.778,4.493
			c-0.382-0.574-0.737-1.107-1.146-1.72c2.215-1.467,4.381-2.902,6.669-4.417c-3.954-2.495-7.847-4.951-11.839-7.47
			C190.665,148.584,192.074,145.181,193.094,141.512z M212.948,150.393c-1.697-4.03-1.888-5.317-1.334-8.852
			c-5.448,0-10.889,0-16.373,0c-0.808,3.061-1.966,5.963-3.271,8.852C199.034,150.393,205.938,150.393,212.948,150.393z
			 M210.806,152.588c-5.723,0-11.164,0-16.872,0c3.015,1.9,5.813,3.664,8.636,5.443C205.252,156.258,207.92,154.495,210.806,152.588
			z"/>
		<path class="st0" d="M212.948,150.393c-7.01,0-13.914,0-20.978,0c1.305-2.889,2.463-5.791,3.271-8.852c5.484,0,10.925,0,16.373,0
			C211.061,145.075,211.251,146.362,212.948,150.393z"/>
		<path class="st0" d="M210.806,152.588c-2.886,1.907-5.554,3.67-8.236,5.443c-2.823-1.779-5.621-3.543-8.636-5.443
			C199.642,152.588,205.083,152.588,210.806,152.588z"/>
	</g>
</g>
<g id="circle">
	<circle class="st2" cx="161.886" cy="161.878" r="142.2"/>
</g>
</svg>
