<?xml version="1.0" encoding="iso-8859-1"?>
<!-- Generator: Adobe Illustrator 16.0.0, SVG Export Plug-In . SVG Version: 6.00 Build 0)  -->
<!DOCTYPE svg PUBLIC "-//W3C//DTD SVG 1.1//EN" "http://www.w3.org/Graphics/SVG/1.1/DTD/svg11.dtd">
<svg version="1.1" id="Layer_1" xmlns="http://www.w3.org/2000/svg" xmlns:xlink="http://www.w3.org/1999/xlink" x="0px" y="0px"
	 width="324px" height="324px" viewBox="0 0 324 324" style="enable-background:new 0 0 324 324;" xml:space="preserve">
<g>
	<path style="fill-rule:evenodd;clip-rule:evenodd;fill:#808285;" d="M86.142,170.087c2.624,0.813,4.744,1.65,6.944,2.07
		c0.957,0.182,2.417-0.195,3.013-0.874c0.464-0.528,0.315-2.216-0.207-2.881c-2.527-3.22-5.316-6.232-7.91-9.404
		c-0.597-0.728-1.049-1.767-1.126-2.698c-0.284-3.541-0.388-7.098-0.588-11.27c2.085,1.603,3.642,2.921,5.324,4.047
		c1.092,0.729,2.25,2.04,3.752,0.824c1.44-1.167,1.23-2.592,0.586-4.192c-1.483-3.689-2.815-7.44-4.188-11.172
		c-0.17-0.463-0.429-1.037-0.296-1.445c1.157-3.543,2.394-7.059,3.779-11.082c1.115,1.575,1.991,2.786,2.837,4.018
		c0.419,0.61,0.792,1.253,1.168,1.892c0.767,1.296,2.075,1.794,3.238,1.158c0.751-0.413,1.352-1.723,1.411-2.668
		c0.179-2.92,0.357-5.892-0.006-8.777c-0.497-3.919,1.009-6.871,3.478-9.612c1.289-1.431,2.483-2.948,4.115-4.899
		c0.555,2.192,1.076,4.03,1.472,5.896c0.32,1.502,0.561,2.972,2.518,3.129c1.955,0.157,2.445-1.189,2.954-2.687
		c1.279-3.77,2.651-7.508,3.993-11.257c0.146-0.404,0.225-0.973,0.524-1.159c3.249-2.011,6.537-3.959,10.351-6.247
		c-0.281,2.227-0.486,3.854-0.692,5.481c-0.074,0.585-0.147,1.171-0.241,1.755c-0.246,1.577,0.437,2.851,1.914,2.995
		c0.948,0.092,2.284-0.579,2.948-1.341c2.251-2.58,4.315-5.326,6.379-8.062c1.339-1.778,2.94-2.795,5.243-3.077
		c2.896-0.354,5.738-1.151,9.07-1.856c-1.261,2.488-2.249,4.543-3.342,6.539c-0.65,1.188-0.825,2.504,0.307,3.148
		c0.906,0.515,2.499,0.689,3.376,0.231c3.136-1.642,6.146-3.543,9.107-5.492c1.735-1.142,3.288-1.782,5.521-1.183
		c2.874,0.774,5.915,0.931,9.63,1.459c-2.021,1.884-3.485,3.388-5.098,4.707c-1.208,0.988-1.93,2.242-0.999,3.429
		c0.614,0.787,2.173,1.363,3.19,1.215c3.936-0.575,7.813-1.522,11.732-2.222c0.859-0.154,1.926-0.111,2.677,0.274
		c3.079,1.583,6.071,3.332,9.489,5.238c-1.33,0.67-2.39,1.237-3.476,1.74c-0.938,0.435-2.046,0.624-2.826,1.24
		c-0.86,0.68-2.188,2.055-1.976,2.543c0.458,1.048,1.668,2.232,2.758,2.457c4.043,0.834,8.163,1.277,12.244,1.936
		c0.598,0.097,1.27,0.445,1.674,0.889c2.398,2.639,4.727,5.338,7.496,8.492c-2.599,0.195-4.69,0.493-6.779,0.463
		c-1.629-0.023-2.832,0.654-2.951,2.065c-0.078,0.922,0.704,2.329,1.524,2.844c2.931,1.839,6.002,3.475,9.102,5.024
		c1.872,0.935,3.261,2.041,3.936,4.161c0.934,2.933,2.193,5.763,3.497,9.111c-2.554-0.773-4.662-1.579-6.85-1.999
		c-0.979-0.188-2.365,0.088-3.103,0.707c-0.983,0.825-0.804,2.05,0.171,3.144c2.726,3.058,5.371,6.188,8.023,9.311
		c0.417,0.49,1.006,1.073,1.018,1.623c0.09,3.877,0.048,7.756,0.048,11.804c-1.34-0.98-2.847-2.079-4.342-3.189
		c-0.299-0.221-0.526-0.559-0.847-0.731c-1.156-0.62-2.563-1.657-3.547-0.254c-0.629,0.897-0.811,2.536-0.468,3.609
		c1.124,3.503,2.489,6.938,3.945,10.323c0.667,1.546,0.642,2.848,0.047,4.396c-1.121,2.917-2.014,5.924-3.197,9.483
		c-1.179-1.789-2.041-3.102-2.912-4.407c-0.413-0.622-0.712-1.464-1.294-1.796c-0.947-0.535-2.154-1.109-3.116-0.933
		c-0.594,0.108-1.284,1.56-1.332,2.442c-0.164,2.995-0.34,6.037,0.006,9.002c0.445,3.813-0.938,6.741-3.363,9.429
		c-1.334,1.482-2.573,3.05-4.244,5.038c-0.552-2.233-1.047-4.089-1.466-5.962c-0.33-1.487-0.568-2.977-2.564-3.081
		c-1.96-0.1-2.421,1.251-2.903,2.75c-1.012,3.155-2.158,6.272-3.185,9.426c-0.74,2.275-1.902,3.998-4.255,5.018
		c-2.405,1.04-4.615,2.531-7.342,4.068c0.272-2.522,0.413-4.595,0.738-6.636c0.246-1.556,0.225-3.086-1.558-3.347
		c-0.992-0.143-2.487,0.389-3.137,1.146c-2.758,3.215-5.17,6.731-7.973,9.908c-0.729,0.824-2.388,0.883-3.65,1.174
		c-2.857,0.658-5.734,1.241-9.117,1.966c1.284-2.543,2.291-4.647,3.401-6.693c0.668-1.23,0.655-2.506-0.477-3.121
		c-0.87-0.473-2.379-0.602-3.215-0.154c-3.188,1.702-6.271,3.625-9.293,5.619c-1.686,1.112-3.18,1.659-5.321,1.096
		c-2.899-0.765-5.962-0.917-9.286-1.923c1.595-1.46,3.133-2.982,4.803-4.348c1.159-0.944,1.751-2.204,0.918-3.269
		c-0.622-0.795-2.126-1.369-3.166-1.274c-2.477,0.231-4.898,0.997-7.367,1.396c-2.183,0.35-4.397,0.663-6.596,0.656
		c-0.908-0.005-1.814-0.881-2.718-1.369c-2.32-1.246-4.639-2.5-7.476-4.029c2.332-1.013,4.298-1.64,6.003-2.69
		c1.067-0.656,2.466-1.982,2.424-2.952c-0.071-1.687-1.762-2.216-3.487-2.425c-4.028-0.483-8.033-1.176-12.041-1.805
		c-0.265-0.043-0.544-0.257-0.732-0.468c-2.508-2.817-5-5.646-7.903-8.932c2.707-0.186,4.825-0.475,6.938-0.431
		c1.685,0.034,2.781-0.831,2.875-2.176c0.063-0.9-0.835-2.229-1.685-2.765c-2.865-1.812-5.839-3.482-8.893-4.961
		c-1.979-0.956-3.384-2.127-4.085-4.3C88.629,176.212,87.413,173.395,86.142,170.087z M163.006,158.668
		c0.549-3.403-2.816-6.491-6.086-6.437c-3.52,0.057-5.87,2.637-6.148,6.207c-0.269,3.426,2.878,6.495,6.148,6.442
		C160.437,164.823,162.999,162.26,163.006,158.668z"/>
	<path style="fill-rule:evenodd;clip-rule:evenodd;fill:#808285;" d="M163.006,158.668c-0.007,3.591-2.569,6.155-6.086,6.212
		c-3.27,0.053-6.417-3.016-6.148-6.442c0.278-3.57,2.628-6.15,6.148-6.207C160.189,152.178,163.555,155.265,163.006,158.668z"/>
</g>
<path style="fill:#414042;" d="M51.064,145.484l19.161,19.167l0.162-0.168c-1.06-4.292-0.444-9.421,4.028-13.889
	c2.663-2.658,5.978-4.066,9.612-4.066c5.01,0,10.052,2.614,15.415,7.99l6.867,6.867l13.578-13.588l-7.037-7.037
	c-9.004-9.011-7.896-17.223-6.443-21.316c1.892-5.298,6.207-9.672,12.774-13.033c-2.399-0.278-4.87-0.439-7.367-0.439
	c-9.72,0-17.91,2.452-24.338,7.299c-7.537,5.674-9.613,10.566-11.821,15.74c-1.63,3.845-3.314,7.81-6.927,11.419
	c-3.462,3.477-7.792,5.305-12.512,5.305c-1.746,0-3.36-0.244-4.791-0.616L51.064,145.484z"/>
<circle style="fill-rule:evenodd;clip-rule:evenodd;fill:none;stroke:#27AAE1;stroke-width:12;stroke-miterlimit:10;" cx="162" cy="162" r="142.2"/>
<g>
	<path style="fill-rule:evenodd;clip-rule:evenodd;fill:#808285;" d="M272.936,129.745c-1.522-1.438-3.149-2.782-4.536-4.341
		c-1.222-1.375-2.527-2.097-4.384-1.825c-0.822,0.119-1.675,0.021-2.79,0.021c0.577,2.105,1.102,4.046,1.646,5.982
		c0.506,1.797,1.021,3.59,1.553,5.379c0.511,1.716,1.499,1.972,2.831,0.697c1.913-1.829,3.788-3.698,5.681-5.55
		C272.936,129.988,272.936,129.867,272.936,129.745z"/>
	<path style="fill-rule:evenodd;clip-rule:evenodd;fill:#BCBEC0;" d="M170.872,171.227c1.307-5.067,2.479-9.911,3.827-14.709
		c0.754-2.687,2.893-4.123,5.876-4.274c0,4.736,0.189,9.482-0.077,14.202c-0.142,2.476-2.768,4.549-5.239,4.762
		C173.894,171.322,172.51,171.227,170.872,171.227z"/>
	<path style="fill-rule:evenodd;clip-rule:evenodd;fill:#808285;" d="M258.126,136.246c-1.139-4.014-2.229-7.943-3.4-11.846
		c-0.108-0.352-0.755-0.741-1.171-0.764c-1.617-0.088-3.243-0.036-5.156-0.036c0.819,2.863,1.589,5.554,2.357,8.244
		c1.331,4.667,1.331,4.669,6.137,4.531C257.245,136.366,257.596,136.303,258.126,136.246z"/>
	<path style="fill-rule:evenodd;clip-rule:evenodd;fill:#FFDE17;" d="M213.276,149.249c0-12.902,0-25.511,0-38.405
		c-0.685,0-1.316,0-1.95,0c-26.808,0.001-53.614-0.003-80.421,0.007c-8.208,0.003-13.561,5.41-13.561,13.646
		c0,3.925-0.016,7.85,0.006,11.775c0.035,6.541,4.596,11.809,11.036,12.78c7.479,1.128,11.369,5.374,10.916,12.963
		c-0.258,4.334-1.477,8.649-2.58,12.889c-4.205,16.158-8.437,32.312-12.882,48.408c-1.494,5.401,2.201,9.22,6.977,9.122
		c12.491-0.256,24.993-0.067,37.492-0.1c4.774-0.011,8.011-4.49,6.104-8.673c-0.642-1.412-2.012-2.797-3.398-3.519
		c-6.526-3.392-9.131-8.755-7.315-15.884c3.844-15.07,7.769-30.12,11.571-45.201c1.244-4.931,6.26-10.114,12.877-9.888
		c7.719,0.265,15.454,0.07,23.182,0.078C211.919,149.249,212.508,149.249,213.276,149.249z"/>
	<path style="fill-rule:evenodd;clip-rule:evenodd;fill:#FFDE17;" d="M218.675,110.854c0,12.862,0,25.509,0,38.14
		c12.233,1.649,21.615-3.116,24.76-14.008c3.41-11.809-5.583-23.833-17.863-24.125C223.345,110.809,221.117,110.854,218.675,110.854
		z"/>
	<path style="fill-rule:evenodd;clip-rule:evenodd;fill:#ED1C24;" d="M170.872,171.227c1.638,0,3.021,0.096,4.387-0.021
		c2.472-0.213,5.098-2.286,5.239-4.762c0.267-4.72,0.077-9.465,0.077-14.202c-2.983,0.151-5.122,1.587-5.876,4.274
		C173.352,161.315,172.179,166.159,170.872,171.227z"/>
</g>
<path style="fill:#603913;" d="M110.107,165.383l65.131,69.336c3.417,3.41,9.845,3.53,13.479-0.098
	c1.811-1.81,2.815-4.228,2.815-6.788s-0.998-4.979-2.822-6.798l-65.034-69.223L110.107,165.383z"/>
</svg>
