<?xml version="1.0" encoding="utf-8"?>
<!-- Generator: Adobe Illustrator 16.0.0, SVG Export Plug-In . SVG Version: 6.00 Build 0)  -->
<!DOCTYPE svg PUBLIC "-//W3C//DTD SVG 1.1//EN" "http://www.w3.org/Graphics/SVG/1.1/DTD/svg11.dtd">
<svg version="1.1" xmlns="http://www.w3.org/2000/svg" xmlns:xlink="http://www.w3.org/1999/xlink" x="0px" y="0px" width="324px"
	 height="324px" viewBox="0 0 324 324" style="enable-background:new 0 0 324 324;" xml:space="preserve">
<style type="text/css">
<![CDATA[
	.st0{fill-rule:evenodd;clip-rule:evenodd;fill:none;stroke:#501B5C;stroke-width:12;stroke-miterlimit:10;}
	.st1{fill-rule:evenodd;clip-rule:evenodd;fill:#FFFFFF;}
	.st2{fill-rule:evenodd;clip-rule:evenodd;fill:#6A247B;stroke:#501B5C;stroke-width:5;stroke-miterlimit:10;}
	.st3{fill-rule:evenodd;clip-rule:evenodd;fill:#6A247B;}
]]>
</style>
<g id="Layer_1">
	<g>
		<path class="st2" d="M243.189,161.593c0.002,17.377,0.039,34.754-0.019,52.131c-0.021,6.274-1.637,12.125-5.382,17.268
			c-5.821,7.994-13.767,12.185-23.573,12.218c-34.814,0.121-69.629,0.134-104.443,0.006c-14.371-0.054-25.822-9.928-28.396-23.974
			c-0.313-1.706-0.522-3.458-0.523-5.189c-0.028-34.935-0.131-69.871,0.051-104.804c0.057-10.697,5.047-19.014,14.271-24.575
			c4.523-2.727,9.534-3.961,14.809-3.963c34.695-0.015,69.391-0.03,104.085,0.002c16.321,0.014,29.063,12.761,29.108,29.11
			C243.225,127.079,243.188,144.335,243.189,161.593z M143.079,148.64c-0.728-0.507-1.028-0.696-1.307-0.914
			c-9.819-7.636-19.652-15.257-29.438-22.938c-1.146-0.899-2.016-1.064-3.342-0.339c-3.105,1.697-6.293,3.253-9.5,4.75
			c-1.222,0.571-1.609,1.321-1.605,2.635c0.06,20.078,0.08,40.157,0.078,60.235c0,1.04,0.314,1.626,1.271,2.084
			c3.303,1.581,6.601,3.179,9.82,4.921c1.256,0.679,2.072,0.585,3.184-0.295c6.738-5.333,13.54-10.588,20.323-15.864
			c3.354-2.609,6.718-5.207,10.412-8.069c0.498,0.664,0.868,1.305,1.374,1.812c15.718,15.739,31.458,31.456,47.152,47.22
			c1.015,1.019,1.815,1.17,3.125,0.637c9.392-3.824,18.805-7.595,28.239-11.312c1.348-0.531,1.935-1.144,1.933-2.703
			c-0.036-32.463-0.018-64.927,0.033-97.39c0.002-1.466-0.4-2.21-1.838-2.773c-9.442-3.696-18.855-7.467-28.24-11.308
			c-1.471-0.603-2.329-0.353-3.422,0.745c-15.648,15.722-31.35,31.395-47.021,47.095
			C143.807,147.376,143.479,148.058,143.079,148.64z"/>
		<path class="st1" d="M143.079,148.64c0.399-0.582,0.728-1.264,1.232-1.77c15.672-15.7,31.373-31.373,47.021-47.095
			c1.093-1.098,1.951-1.347,3.422-0.745c9.385,3.84,18.798,7.612,28.24,11.308c1.438,0.563,1.84,1.308,1.838,2.773
			c-0.051,32.463-0.069,64.927-0.033,97.39c0.002,1.559-0.585,2.172-1.933,2.703c-9.435,3.717-18.848,7.488-28.239,11.312
			c-1.31,0.534-2.11,0.382-3.125-0.637c-15.694-15.764-31.435-31.48-47.152-47.22c-0.506-0.507-0.876-1.148-1.374-1.812
			c-3.694,2.862-7.058,5.46-10.412,8.069c-6.783,5.276-13.585,10.53-20.323,15.864c-1.111,0.88-1.928,0.974-3.184,0.295
			c-3.22-1.742-6.518-3.34-9.82-4.921c-0.957-0.458-1.271-1.045-1.271-2.084c0.002-20.079-0.019-40.157-0.078-60.235
			c-0.004-1.314,0.384-2.064,1.605-2.635c3.207-1.497,6.395-3.053,9.5-4.75c1.326-0.725,2.196-0.56,3.342,0.339
			c9.785,7.681,19.618,15.301,29.438,22.938C142.051,147.944,142.352,148.133,143.079,148.64z M159.821,161.774
			c11.039,8.598,21.804,16.984,32.71,25.479c0-17.113,0-33.873,0-50.924C181.537,144.883,170.796,153.238,159.821,161.774z
			 M110.923,179.536c6.018-5.909,12.083-11.866,17.729-17.412c-5.979-5.979-11.991-11.991-17.729-17.728
			C110.923,155.839,110.923,167.829,110.923,179.536z"/>
		<path class="st3" d="M159.821,161.774c10.975-8.536,21.716-16.892,32.71-25.445c0,17.051,0,33.811,0,50.924
			C181.625,178.758,170.86,170.372,159.821,161.774z"/>
		<path class="st3" d="M110.923,179.536c0-11.708,0-23.697,0-35.14c5.738,5.736,11.75,11.748,17.729,17.728
			C123.006,167.67,116.94,173.627,110.923,179.536z"/>
	</g>
</g>
<g id="circle">
	<circle class="st0" cx="162" cy="162" r="142.2"/>
</g>
</svg>
