<?xml version="1.0" encoding="utf-8"?>
<!-- Generator: Adobe Illustrator 22.0.1, SVG Export Plug-In . SVG Version: 6.00 Build 0)  -->
<svg version="1.1" id="Layer_1" xmlns="http://www.w3.org/2000/svg" xmlns:xlink="http://www.w3.org/1999/xlink" x="0px" y="0px"
	 viewBox="0 0 380 60" style="enable-background:new 0 0 380 60;" xml:space="preserve">
<style type="text/css">
	.st0{fill:#FFFFFF;}
	.st1{fill:#F7A800;}
	.st2{fill:#214295;}
</style>
<g>
	<path class="st0" d="M366.7,60H13.3C6,60,0,55,0,48.8V11.2C0,5,6,0,13.3,0h353.3C374,0,380,5,380,11.2v37.7C380,55,374,60,366.7,60
		z"/>
	<g>
		<path class="st1" d="M354.5,44.6l-16.3-30.1h3.6c0.7,0,1.3,0.4,1.6,1l16.3,30.1h-3.6C355.4,45.6,354.8,45.2,354.5,44.6
			 M323.9,45.6h3.6c0.7,0,1.3-0.4,1.6-1l4.5-8.2l-2.3-4.3L323.9,45.6z M317,45.6c0.7,0,1.3-0.4,1.6-1l12.7-23.4L344,44.6
			c0.3,0.6,0.9,1,1.6,1h3.6l-16.3-30.1c-0.3-0.6-0.9-1-1.6-1s-1.3,0.4-1.6,0.9l-16.3,30.2H317z"/>
		<g>
			<path class="st2" d="M30.6,33.5h-7.5v7.9h-2.4V23.3h11.2v2h-8.8v6.2h7.5V33.5z"/>
			<path class="st2" d="M34.4,24.5c0-0.4,0.1-0.7,0.4-0.9c0.2-0.2,0.6-0.4,0.9-0.4c0.5,0,0.7,0.1,0.9,0.4c0.2,0.2,0.4,0.6,0.4,0.9
				s-0.1,0.6-0.4,0.9c-0.2,0.2-0.6,0.4-0.9,0.4c-0.5,0-0.7-0.1-0.9-0.4C34.5,25.2,34.4,24.8,34.4,24.5z M36.9,41.4h-2.4V28h2.4V41.4
				z"/>
			<path class="st2" d="M42.6,28l0.1,1.8c0.9-1.3,2.4-2,4-2c2.8,0,4.2,1.6,4.4,4.8v8.8h-2.4v-8.9c0-0.9-0.2-1.8-0.6-2.1
				c-0.5-0.5-1.1-0.7-2-0.7c-0.7,0-1.4,0.2-2,0.6c-0.6,0.4-0.9,0.8-1.4,1.6v9.5h-2.4V28H42.6z"/>
			<path class="st2" d="M53.9,34.6c0-2.1,0.5-3.8,1.5-4.9c1.1-1.2,2.2-1.9,3.9-1.9c1.6,0,2.8,0.5,3.8,1.6v-6.9h2.4v18.9h-2.1
				l-0.1-1.5c-0.8,1.1-2.2,1.8-3.9,1.8s-2.8-0.6-3.9-1.9c-0.9-1.3-1.5-2.9-1.5-4.9C53.9,34.8,53.9,34.6,53.9,34.6z M56.3,34.8
				c0,1.5,0.4,2.7,0.9,3.6c0.6,0.8,1.5,1.3,2.6,1.3c1.5,0,2.5-0.6,3.2-2v-6.2c-0.7-1.3-1.8-1.9-3.2-1.9c-1.1,0-2,0.5-2.6,1.4
				C56.5,31.9,56.3,33.1,56.3,34.8z"/>
			<path class="st2" d="M83.4,40c-0.8,0.9-2.2,1.6-4,1.6c-1.5,0-2.5-0.4-3.2-1.3c-0.7-0.8-1.1-2.1-1.1-3.8v-8.7h2.4v8.8
				c0,2,0.8,3.1,2.5,3.1c1.8,0,2.9-0.6,3.4-2V28h2.4v13.4h-2.2L83.4,40z"/>
			<path class="st2" d="M96.9,37.8c0-0.6-0.2-1.1-0.7-1.5c-0.5-0.4-1.3-0.6-2.5-0.8c-1.1-0.2-2.1-0.5-2.7-0.8s-1.3-0.7-1.5-1.3
				c-0.4-0.5-0.5-0.9-0.5-1.8c0-1.1,0.5-2,1.4-2.8c0.9-0.7,2.1-1.1,3.6-1.1c1.5,0,2.7,0.4,3.8,1.3c0.9,0.7,1.4,1.8,1.4,2.9h-2.4
				c0-0.6-0.2-1.1-0.7-1.6c-0.5-0.5-1.3-0.7-2-0.7c-0.8,0-1.5,0.1-2,0.5c-0.5,0.4-0.9,0.8-0.9,1.5c0,0.5,0.2,0.9,0.6,1.3
				c0.5,0.2,1.3,0.5,2.4,0.8c1.1,0.2,2.1,0.6,2.7,0.8c0.6,0.2,1.3,0.7,1.6,1.3c0.4,0.5,0.5,1.1,0.5,1.9c0,1.3-0.5,2.1-1.5,2.8
				c-0.9,0.7-2.2,1.1-3.8,1.1c-1.1,0-2-0.2-2.8-0.6s-1.5-0.8-2-1.6s-0.7-1.4-0.7-2.2h2.4c0,0.7,0.4,1.4,0.8,1.9
				c0.6,0.5,1.4,0.6,2.2,0.6c0.8,0,1.6-0.1,2.1-0.5C96.7,38.9,96.9,38.5,96.9,37.8z"/>
			<path class="st2" d="M108,34.6c0-1.4,0.2-2.5,0.7-3.6c0.5-0.9,1.3-1.9,2.1-2.5c0.8-0.6,2-0.8,3.1-0.8c1.9,0,3.3,0.6,4.5,1.9
				c1.1,1.3,1.8,2.9,1.8,5.1v0.1c0,1.4-0.2,2.5-0.7,3.4c-0.5,0.9-1.3,1.9-2.1,2.5c-0.8,0.6-2,0.8-3.2,0.8c-1.9,0-3.3-0.6-4.5-1.9
				c-1.1-1.3-1.8-2.9-1.8-5.1l0,0h0.1V34.6z M110.2,34.8c0,1.5,0.4,2.7,0.9,3.6c0.7,0.8,1.6,1.4,2.7,1.4s2.1-0.5,2.7-1.4
				c0.7-0.8,0.9-2.2,0.9-3.9c0-1.5-0.4-2.7-0.9-3.6c-0.7-0.8-1.6-1.4-2.7-1.4s-2.1,0.5-2.7,1.4C110.5,31.9,110.2,33.1,110.2,34.8z"
				/>
			<path class="st2" d="M125.1,28l0.1,1.8c0.9-1.3,2.4-2,4-2c2.8,0,4.2,1.6,4.4,4.8v8.8h-2.4v-8.9c0-0.9-0.2-1.8-0.6-2.1
				c-0.5-0.5-1.1-0.7-2-0.7c-0.7,0-1.4,0.2-2,0.6s-0.9,0.8-1.4,1.6v9.5h-2.4V28H125.1z"/>
			<path class="st2" d="M153.5,36.7H146l-1.8,4.7h-2.5l6.9-18.1h2.1l6.9,18.1h-2.5L153.5,36.7z M146.7,34.7h6.2l-3.1-8.5L146.7,34.7
				z"/>
			<path class="st2" d="M166.2,30c-0.4,0-0.7-0.1-1.1-0.1c-1.5,0-2.5,0.6-3.1,2v9.5h-2.4V28h2.2v1.6c0.7-1.3,1.9-1.9,3.2-1.9
				c0.5,0,0.7,0,0.9,0.1V30H166.2z"/>
			<path class="st2" d="M168.3,24.5c0-0.4,0.1-0.7,0.4-0.9c0.2-0.2,0.6-0.4,0.9-0.4c0.5,0,0.7,0.1,0.9,0.4s0.4,0.6,0.4,0.9
				s-0.1,0.6-0.4,0.9c-0.2,0.2-0.6,0.4-0.9,0.4c-0.5,0-0.7-0.1-0.9-0.4C168.4,25.2,168.3,24.8,168.3,24.5z M170.8,41.4h-2.4V28h2.4
				V41.4z"/>
			<path class="st2" d="M186,34.8c0,2.1-0.5,3.8-1.4,4.9c-0.9,1.3-2.2,1.9-3.9,1.9c-1.8,0-2.9-0.6-4-1.9l-0.1,1.6h-2.1V22.3h2.4v7.1
				c0.8-1.1,2.2-1.8,3.9-1.8s2.8,0.6,3.9,1.9c0.9,1.3,1.4,2.9,1.4,5.1V34.8z M183.6,34.6c0-1.6-0.2-2.7-0.8-3.6
				c-0.6-0.8-1.5-1.3-2.6-1.3c-1.5,0-2.6,0.7-3.2,2.1v5.8c0.7,1.4,1.9,2.1,3.3,2.1c1.1,0,2-0.4,2.6-1.3
				C183.4,37.5,183.6,36.4,183.6,34.6z"/>
			<path class="st2" d="M197,41.4c-0.1-0.2-0.2-0.7-0.4-1.4c-1.1,1.1-2.4,1.6-3.9,1.6c-1.4,0-2.4-0.4-3.2-1.1
				c-0.8-0.7-1.3-1.8-1.3-2.8c0-1.4,0.5-2.5,1.6-3.2c1.1-0.7,2.6-1.1,4.5-1.1h2.2v-1.1c0-0.7-0.2-1.5-0.7-1.9
				c-0.5-0.5-1.3-0.7-2.1-0.7s-1.5,0.2-2.1,0.6c-0.5,0.4-0.8,0.8-0.8,1.5h-2.4c0-0.6,0.2-1.4,0.7-2c0.5-0.6,1.1-1.1,2-1.5
				c0.8-0.4,1.8-0.5,2.7-0.5c1.5,0,2.7,0.4,3.6,1.1c0.9,0.7,1.4,1.9,1.4,3.2v6.2c0,1.3,0.1,2.2,0.5,2.9v0H197z M193.3,39.7
				c0.7,0,1.4-0.2,2.1-0.6s1.1-0.8,1.4-1.5v-2.7h-2c-2.8,0-4.2,0.8-4.2,2.5c0,0.7,0.2,1.3,0.7,1.8C191.9,39.4,192.5,39.7,193.3,39.7
				z"/>
			<path class="st2" d="M223.1,41.4h-2.4l-9.1-13.9v13.9h-2.4V23.3h2.4l9.2,14v-14h2.4v18.1H223.1z"/>
			<path class="st2" d="M232.5,41.7c-1.9,0-3.3-0.6-4.5-1.8c-1.1-1.1-1.8-2.8-1.8-4.8v-0.4c0-1.4,0.2-2.5,0.7-3.6
				c0.5-0.9,1.3-1.9,2.1-2.5c0.8-0.6,1.9-0.8,2.9-0.8c1.8,0,3.1,0.6,4.1,1.8c0.9,1.1,1.5,2.8,1.5,4.9v0.9h-9.1
				c0,1.4,0.4,2.4,1.1,3.2c0.7,0.8,1.8,1.3,2.8,1.3c0.8,0,1.5-0.1,2.1-0.5c0.6-0.4,1.1-0.7,1.5-1.4l1.4,1.1
				C236.5,40.8,234.7,41.7,232.5,41.7z M232.2,29.6c-0.8,0-1.8,0.4-2.4,0.9s-0.9,1.6-1.1,2.8h6.7v-0.1c-0.1-1.1-0.4-2.1-0.9-2.7
				C234,29.9,233.3,29.6,232.2,29.6z"/>
			<path class="st2" d="M243.5,24.7v3.2h2.5v1.8h-2.5v8.2c0,0.5,0.1,0.9,0.4,1.3c0.2,0.2,0.6,0.4,1.1,0.4c0.2,0,0.6,0,1.1-0.1v2
				c-0.6,0.1-1.3,0.2-1.8,0.2c-0.9,0-1.9-0.4-2.4-0.9c-0.5-0.6-0.7-1.5-0.7-2.6v-8.4h-2.5V28h2.5v-3.2h2.2v-0.1H243.5z"/>
			<path class="st2" d="M260.6,38.2l2.6-10.2h2.4l-4,13.4h-1.9l-3.2-10.1l-3.2,10.1h-2L247.4,28h2.2l2.6,10l3.1-10h1.9L260.6,38.2z"
				/>
			<path class="st2" d="M267.2,34.6c0-1.4,0.2-2.5,0.7-3.6c0.5-0.9,1.3-1.9,2.1-2.5c0.8-0.6,2-0.8,3.1-0.8c1.9,0,3.3,0.6,4.5,1.9
				c1.1,1.3,1.8,2.9,1.8,5.1v0.1c0,1.4-0.2,2.5-0.7,3.4s-1.3,1.9-2.1,2.5c-0.9,0.6-2,0.8-3.2,0.8c-1.9,0-3.3-0.6-4.5-1.9
				c-1.1-1.3-1.8-2.9-1.8-5.1l0,0h0.1V34.6z M269.4,34.8c0,1.5,0.4,2.7,0.9,3.6c0.7,0.8,1.6,1.4,2.7,1.4c1.1,0,2.1-0.5,2.7-1.4
				c0.7-0.8,0.9-2.2,0.9-3.9c0-1.5-0.4-2.7-0.9-3.6c-0.7-0.8-1.6-1.4-2.7-1.4c-1.1,0-2.1,0.5-2.7,1.4S269.4,33.1,269.4,34.8z"/>
			<path class="st2" d="M288.7,30c-0.4,0-0.7-0.1-1.1-0.1c-1.5,0-2.5,0.6-3.1,2v9.5h-2.4V28h2.2v1.6c0.7-1.3,1.9-1.9,3.2-1.9
				c0.5,0,0.7,0,0.9,0.1V30H288.7z"/>
			<path class="st2" d="M294.6,35.2l-1.5,1.5v4.7h-2.4V22.3h2.4v11.5l1.3-1.5l4.2-4.5h2.8l-5.2,5.5l5.8,7.8h-2.7L294.6,35.2z"/>
		</g>
	</g>
</g>
</svg>
