<?xml version="1.0" encoding="utf-8"?>
<!-- Generator: Adobe Illustrator 21.0.0, SVG Export Plug-In . SVG Version: 6.00 Build 0)  -->
<svg version="1.1" id="Layer_1" xmlns="http://www.w3.org/2000/svg" xmlns:xlink="http://www.w3.org/1999/xlink" x="0px" y="0px"
	 viewBox="0 0 180 60" style="enable-background:new 0 0 180 60;" xml:space="preserve">
<style type="text/css">
	.st0{fill:#FFFFFF;}
	.st1{fill:#007BB6;}
</style>
<path class="st0" d="M168.6,60H11.4C5.1,60,0,55.1,0,49.1V10.9C0,4.9,5.1,0,11.4,0h157.1c6.3,0,11.4,4.9,11.4,10.9v38.2
	C179.9,55.1,174.9,60,168.6,60z"/>
<g>
	<path d="M154.1,40.9c0.4,0,0.6-0.3,0.6-0.6c0-0.4-0.3-0.6-0.8-0.6h-0.9v2.2h0.3v-1h0.4l0,0l0.6,1h0.3L154.1,40.9L154.1,40.9z
		 M153.6,40.6h-0.4v-0.8h0.5c0.2,0,0.5,0,0.5,0.4C154.3,40.6,153.9,40.6,153.6,40.6z"/>
	<path d="M153.6,38.6c-1.2,0-2.1,0.9-2.1,2.1c0,1.2,0.9,2.1,2.1,2.1c1.2,0,2.1-0.9,2.1-2.1C155.8,39.6,154.8,38.6,153.6,38.6z
		 M153.6,42.6c-1,0-1.8-0.8-1.8-1.8s0.8-1.8,1.8-1.8s1.8,0.8,1.8,1.8S154.6,42.6,153.6,42.6z"/>
	<polygon points="24.2,19.8 29.1,19.8 29.1,37.7 38.3,37.7 38.3,42.3 24.2,42.3 	"/>
	<path d="M40.4,27.1h4.7v15.2h-4.7V27.1z M42.8,19.5c1.5,0,2.7,1.2,2.7,2.7s-1.2,2.7-2.7,2.7s-2.7-1.2-2.7-2.7
		C40,20.7,41.3,19.5,42.8,19.5"/>
	<polygon points="64.9,19.8 69.8,19.8 69.8,33.2 75,27 80.8,27 74.6,34.1 80.8,42.3 74.8,42.3 69.8,34.8 69.8,34.8 69.8,42.3 
		64.9,42.3 	"/>
	<path d="M47.8,27.1h4.5v2.1h0.1c0.6-1.2,2.2-2.5,4.5-2.5c4.8,0,5.7,3.2,5.7,7.3v8.4h-4.7V35c0-1.8,0-4-2.5-4s-2.8,1.9-2.8,3.9v7.5
		h-4.7L47.8,27.1L47.8,27.1z"/>
	<path d="M90.8,32.9c0-1.6-1.2-2.9-2.9-2.9c-2.1,0-3.2,1.4-3.3,2.9H90.8z M94.8,39.6c-1.5,1.9-4,3-6.5,3c-4.7,0-8.5-3.2-8.5-8
		c0-4.9,3.8-8,8.5-8c4.4,0,7.2,3.2,7.2,8v1.5h-11c0.4,1.8,1.7,3,3.6,3c1.5,0,2.6-0.8,3.4-1.9L94.8,39.6z"/>
	<path d="M105.4,30.7c-2.4,0-3.8,1.6-3.8,3.9c0,2.3,1.4,3.9,3.8,3.9s3.8-1.6,3.8-3.9S107.8,30.7,105.4,30.7 M113.5,42.3h-4.4v-2H109
		c-0.7,1.1-2.6,2.4-4.7,2.4c-4.5,0-7.5-3.3-7.5-7.9c0-4.3,2.7-8.2,7-8.2c2,0,3.8,0.5,4.9,2h0.1v-8.8h4.7V42.3z"/>
	<path class="st1" d="M147.8,15.1h-27.2c-1.3,0-2.4,1-2.4,2.3v27.3c0,1.3,1.1,2.3,2.4,2.3h27.2c1.3,0,2.4-1,2.4-2.3V17.4
		C150.3,16.1,149.1,15.1,147.8,15.1z"/>
	<path class="st0" d="M123,27.1h4.7v15.2H123V27.1z M125.4,19.5c1.5,0,2.7,1.2,2.7,2.7s-1.2,2.7-2.7,2.7s-2.7-1.2-2.7-2.7
		C122.6,20.7,123.8,19.5,125.4,19.5"/>
	<path class="st0" d="M130.8,27.1h4.5v2.1h0.1c0.6-1.2,2.2-2.5,4.5-2.5c4.8,0,5.7,3.2,5.7,7.3v8.4h-4.7V35c0-1.8,0-4-2.5-4
		s-2.8,1.9-2.8,3.9v7.5h-4.7V27.1H130.8z"/>
</g>
</svg>
