<?xml version="1.0" encoding="utf-8"?>
<!-- Generator: Adobe Illustrator 16.0.0, SVG Export Plug-In . SVG Version: 6.00 Build 0)  -->
<!DOCTYPE svg PUBLIC "-//W3C//DTD SVG 1.1//EN" "http://www.w3.org/Graphics/SVG/1.1/DTD/svg11.dtd">
<svg version="1.1" id="circle" xmlns="http://www.w3.org/2000/svg" xmlns:xlink="http://www.w3.org/1999/xlink" x="0px" y="0px"
	 width="144px" height="144px" viewBox="0 0 144 144" enable-background="new 0 0 144 144" xml:space="preserve">
<path d="M58.484,100.027c-1.636,0.175-3.165,0.389-4.699,0.488c-2.507,0.164-4.959-0.125-7.285-1.149
	c-2.745-1.209-4.743-3.144-5.892-5.954c-1.274-3.124-3.056-5.863-6.044-7.654c-0.464-0.277-0.876-0.675-1.244-1.081
	c-0.74-0.813-0.539-1.536,0.551-1.694c0.88-0.129,1.831-0.142,2.693,0.051c3.007,0.665,5.137,2.572,6.712,5.13
	c1.255,2.037,2.751,3.812,4.956,4.843c3.373,1.578,6.717,1.084,10.02-0.263c0.18-0.074,0.367-0.329,0.402-0.526
	c0.449-2.461,1.33-4.711,3.193-6.578c-1.731-0.311-3.377-0.563-5.005-0.904c-3.399-0.713-6.63-1.866-9.532-3.823
	c-4.755-3.206-7.366-7.802-8.513-13.303c-0.781-3.748-1.072-7.536-0.535-11.352c0.546-3.873,2.132-7.281,4.688-10.229
	c0.353-0.406,0.415-0.722,0.25-1.236c-1.398-4.333-0.971-8.601,0.591-12.796c0.097-0.261,0.591-0.568,0.863-0.535
	c1.496,0.175,3.023,0.303,4.459,0.721c3.095,0.901,5.877,2.495,8.545,4.278c0.491,0.328,0.922,0.431,1.528,0.278
	c8.266-2.091,16.541-2.097,24.806,0.008c0.533,0.136,0.924,0.076,1.378-0.221c3.055-2,6.206-3.826,9.8-4.682
	c1.088-0.258,2.23-0.298,3.352-0.41c0.47-0.048,0.731,0.201,0.896,0.667c1.495,4.253,1.885,8.54,0.496,12.906
	c-0.078,0.246,0.006,0.654,0.174,0.85c3.638,4.252,5.194,9.183,5.019,14.749c-0.139,4.372-0.748,8.627-2.646,12.61
	c-2.668,5.599-7.242,8.938-13.053,10.644c-2.423,0.711-4.951,1.053-7.431,1.562c-0.211,0.043-0.424,0.078-0.653,0.121
	c0.579,0.815,1.2,1.55,1.663,2.372c1.176,2.088,1.646,4.381,1.666,6.756c0.033,3.479,0.029,6.957,0.002,10.436
	c-0.031,4.184-3.301,7.439-7.484,7.461c-3.754,0.021-7.508,0.02-11.263-0.006c-4.143-0.029-7.381-3.285-7.42-7.437
	C58.471,103.438,58.484,101.758,58.484,100.027z"/>
</svg>
