<?xml version="1.0" encoding="utf-8"?>
<!-- Generator: Adobe Illustrator 16.0.0, SVG Export Plug-In . SVG Version: 6.00 Build 0)  -->
<!DOCTYPE svg PUBLIC "-//W3C//DTD SVG 1.1//EN" "http://www.w3.org/Graphics/SVG/1.1/DTD/svg11.dtd">
<svg version="1.1" id="Layer_1" xmlns="http://www.w3.org/2000/svg" xmlns:xlink="http://www.w3.org/1999/xlink" x="0px" y="0px"
	 width="144px" height="144px" viewBox="0 0 144 144" enable-background="new 0 0 144 144" xml:space="preserve">
<g id="Layer_1_1_">
	<path fill="#FDCF0E" d="M51.322,45.49c0,4.068-3.27,7.364-7.305,7.364c-4.036,0-7.306-3.296-7.306-7.364
		c0-4.066,3.271-7.365,7.306-7.365C48.053,38.124,51.322,41.424,51.322,45.49z M51.382,58.745H36.654v47.13h14.729L51.382,58.745
		L51.382,58.745z M74.894,58.745H60.259v47.13h14.632v-24.74c0-13.757,17.761-14.883,17.761,0v24.738h14.694v-29.84
		c0-23.212-26.28-22.368-32.455-10.942L74.894,58.745L74.894,58.745z"/>
</g>
</svg>
