<?xml version="1.0" encoding="utf-8"?>
<!-- Generator: Adobe Illustrator 16.0.0, SVG Export Plug-In . SVG Version: 6.00 Build 0)  -->
<!DOCTYPE svg PUBLIC "-//W3C//DTD SVG 1.1//EN" "http://www.w3.org/Graphics/SVG/1.1/DTD/svg11.dtd">
<svg version="1.1" id="Layer_1" xmlns="http://www.w3.org/2000/svg" xmlns:xlink="http://www.w3.org/1999/xlink" x="0px" y="0px"
	 width="144px" height="144px" viewBox="-6.275 -6.275 144 144" enable-background="new -6.275 -6.275 144 144"
	 xml:space="preserve">
<polygon fill="#BE1E2D" points="74.051,52.148 62.326,34.559 15.416,34.559 3.69,52.148 -31.491,52.148 -31.491,151.822 
	109.23,151.822 109.23,52.148 "/>
<path fill="#BE4E58" d="M97.502,93.191H73.587c3.407,22.01-13.555,41.043-34.717,41.043c-21.174,0-38.116-19.047-34.717-41.043
	h-23.917V63.873H9.967l11.728-17.589h34.356l11.728,17.59h29.728L97.502,93.191L97.502,93.191z"/>
<path fill="#C5C9C7" d="M38.871,75.598c-13.152,0-23.453,10.144-23.453,23.099c0,13.121,10.52,23.811,23.453,23.811
	c12.934,0,23.456-10.686,23.456-23.811C62.326,85.742,52.022,75.598,38.871,75.598z"/>
<path fill="#FFFFFF" d="M36.318,96.441c-3.713,2.957-8.571,2.934-10.866-0.031c-2.283-2.967-1.138-7.764,2.572-10.715
	c3.705-2.943,8.567-2.928,10.853,0.039C41.172,88.699,40.015,93.494,36.318,96.441z"/>
<rect x="84.101" y="46.282" fill="#1C75BC" width="14.199" height="5.865"/>
</svg>
