<?xml version="1.0" encoding="utf-8"?>
<!-- Generator: Adobe Illustrator 16.0.0, SVG Export Plug-In . SVG Version: 6.00 Build 0)  -->
<!DOCTYPE svg PUBLIC "-//W3C//DTD SVG 1.1//EN" "http://www.w3.org/Graphics/SVG/1.1/DTD/svg11.dtd">
<svg version="1.1" id="Layer_1" xmlns="http://www.w3.org/2000/svg" xmlns:xlink="http://www.w3.org/1999/xlink" x="0px" y="0px"
	 width="131.04px" height="131.04px" viewBox="0 0 131.04 131.04" enable-background="new 0 0 131.04 131.04" xml:space="preserve">
<g id="circle">
	<circle fill="none" stroke="#CDCCCC" stroke-width="5" stroke-miterlimit="10" cx="65.686" cy="65.685" r="63.186"/>
</g>
<g>
	<path fill="#754C29" d="M39.725,92.059c0,1.104-0.894,2.002-2.001,2.002c-1.109,0-2.003-0.898-2.003-2.002
		c0-1.107,0.894-2.002,2.003-2.002C38.831,90.057,39.725,90.952,39.725,92.059z M33.718,84.049h8.01v-4.006h-4.004v-2.002h4.004
		v-4.006h-4.004v-2.002h4.004V68.03h-4.004v-2.002h4.004v-4.006h-4.004v-2.001h4.004v-4.005h-8.01V84.049z M73.767,88.055h-4.006
		v6.006h-2v-6.006h-4.008v4.004h-2.002v-4.004h-4.006v6.006h-2v-6.006H51.74v4.004h-2.003v-4.004h-4.006v6.006h-2.002v-6.006H33.718
		v8.01h40.049V88.055z"/>
	<polygon fill="#754C29" points="33.718,59.971 41.728,59.971 41.728,55.966 37.724,55.966 37.724,53.963 41.728,53.963 
		41.728,49.958 37.724,49.958 37.724,47.956 41.728,47.956 41.728,43.951 37.724,43.951 37.724,41.949 41.728,41.949 41.728,37.944 
		37.724,37.944 37.724,35.942 41.728,35.942 41.728,31.937 33.718,31.937 	"/>
</g>
<g>
	<g>
		<polygon fill="#FFDE17" points="92.358,87.456 92.637,87.315 92.357,87.454 		"/>
		<polygon points="79.199,51.735 78.274,58.901 85.45,55.367 		"/>
		<polygon fill="#FFDE17" points="92.322,87.475 92.358,87.456 92.357,87.454 92.637,87.315 92.69,87.29 92.637,87.315 
			99.498,83.938 86.126,56.78 78.948,60.313 		"/>
	</g>
	
		<rect x="93.175" y="86.819" transform="matrix(0.8939 -0.4484 0.4484 0.8939 -29.2536 52.9125)" fill="#D065A7" width="7.902" height="2.844"/>
</g>
<g>
	<path fill="#939090" d="M95.711,42.336c-1.937,0.457-4.022,0.125-5.721-0.925L69.487,28.773c-1.514-0.938-3.652-0.414-4.57,1.108
		c-0.46,0.768-0.589,1.671-0.363,2.541c0.213,0.829,0.732,1.533,1.465,1.983l20.501,12.64c1.884,1.157,3.161,3.079,3.507,5.265
		c0.416,2.652,1.961,4.973,4.237,6.379c1.759,1.083,3.788,1.529,5.813,1.295l-5.007-3.087c-0.902-1.89-1.208-3.953,0.2-6.9
		c1.458-3.052,3.857-5.304,7.366-5.369l5.003,3.085c-0.693-1.887-1.999-3.525-3.765-4.611c-2.28-1.407-5.053-1.748-7.601-0.924
		L95.711,42.336z"/>
	
		<rect x="102.89" y="41.864" transform="matrix(-0.5409 0.8411 -0.8411 -0.5409 198.5177 -16.3186)" fill="#939090" width="1.645" height="8.308"/>
	
		<rect x="96.043" y="53.047" transform="matrix(-0.5033 0.8641 -0.8641 -0.5033 195.0464 2.2858)" fill="#939090" width="1.645" height="8.309"/>
</g>
</svg>
