<?xml version="1.0" encoding="utf-8"?>
<!-- Generator: Adobe Illustrator 16.0.0, SVG Export Plug-In . SVG Version: 6.00 Build 0)  -->
<!DOCTYPE svg PUBLIC "-//W3C//DTD SVG 1.1//EN" "http://www.w3.org/Graphics/SVG/1.1/DTD/svg11.dtd">
<svg version="1.1" id="Layer_1" xmlns="http://www.w3.org/2000/svg" xmlns:xlink="http://www.w3.org/1999/xlink" x="0px" y="0px"
	 width="144px" height="144px" viewBox="-6.48 -6.48 144 144" enable-background="new -6.48 -6.48 144 144" xml:space="preserve">
<rect x="-22.785" y="26.812" fill="#D6D6D6" width="116.708" height="87.531"/>
<rect x="-13.06" y="36.538" fill="#C8F3FA" width="97.257" height="68.08"/>
<polygon fill="#D6D6D6" points="69.609,127.794 69.609,137.52 1.529,137.52 1.529,127.794 20.98,127.794 20.98,118.069 
	50.157,118.069 50.157,127.794 "/>
<path fill="#EC008C" d="M30.582,59.254v1.951l-7.458,3.636v-2.053l5.264-2.557l-5.264-2.571v-2.039L30.582,59.254z M15.664,62.789
	l-5.254-2.557l5.254-2.571v-2.039l-7.46,3.632v1.951l7.46,3.636V62.789z M22.233,52.878h-1.931l-3.745,14.708h1.935L22.233,52.878z"
	/>
<path fill="#EC008C" d="M56.164,80.526v1.682c-1.138,0-2.182,0.941-2.182,2.045c0,1.566,0.932,4.277-4.359,4.277v-1.436
	c3.572,0,2.877-1.141,2.877-2.842c0-1.5,0.887-2.508,1.656-2.883c-0.771-0.385-1.656-1.033-1.656-2.371
	c0-1.701,0.69-3.359-2.877-3.359v-1.432c5.297,0,4.359,3.221,4.359,4.791C53.982,80.1,55.026,80.526,56.164,80.526z M42.357,79
	c0-1.572-0.939-4.793,4.363-4.793v1.432c-3.568-0.004-2.883,1.656-2.883,3.361c0,1.336-0.887,1.982-1.66,2.369
	c0.773,0.375,1.66,1.385,1.66,2.883c0,1.701-0.696,2.842,2.883,2.842v1.438c-5.297,0-4.363-2.711-4.363-4.277
	c0-1.104-1.047-2.047-2.182-2.047v-1.68C41.311,80.526,42.357,80.1,42.357,79z"/>
<rect x="4.678" y="78.627" fill="#BCBEC0" width="29.43" height="2.9"/>
<rect x="7.625" y="84.428" fill="#BCBEC0" width="23.539" height="2.902"/>
<rect x="37.028" y="60.42" fill="#BCBEC0" width="29.431" height="2.901"/>
<rect x="34.967" y="52.754" fill="#BCBEC0" width="23.539" height="2.902"/>
<g>
	<path fill="#303030" d="M101.147,89.814c-1.237-0.496-1.834-1.896-1.334-3.132c0.497-1.234,1.896-1.833,3.134-1.337
		c1.236,0.499,1.83,1.904,1.335,3.135C103.784,89.716,102.384,90.312,101.147,89.814z M81.38,126.011l8.94,3.601l1.802-4.472
		l-4.473-1.798l0.902-2.234l4.469,1.8l1.799-4.472l-4.469-1.799l0.898-2.233l4.472,1.799l1.799-4.47l-4.47-1.8l0.897-2.233
		l4.473,1.799l1.797-4.473l-4.467-1.799l0.898-2.233l4.468,1.797l1.802-4.471l-8.941-3.598L81.38,126.011z M144.08,99.304
		L99.377,81.31l-3.601,8.939l11.174,4.497l2.699-6.704l2.235,0.901l-2.699,6.705l4.47,1.798l1.801-4.469l2.234,0.902l-1.798,4.467
		l4.472,1.802l2.698-6.706l2.231,0.898l-2.695,6.706l4.47,1.799l1.798-4.468l2.237,0.897l-1.802,4.469l4.475,1.803l2.699-6.704
		l2.231,0.898l-2.698,6.703l4.472,1.8L144.08,99.304z"/>
	<polygon fill="#303030" points="70.56,152.89 79.502,156.49 81.301,152.02 76.833,150.22 77.732,147.986 82.2,149.784 84,145.314 
		79.532,143.513 80.431,141.279 84.9,143.081 86.701,138.607 82.231,136.81 83.13,134.574 87.599,136.375 89.399,131.902 
		84.93,130.106 85.831,127.869 90.3,129.669 92.098,125.197 83.158,121.596 	"/>
</g>
<g>
	<g>
		<polygon fill="#FFDE17" points="101.515,126.686 101.833,126.419 101.512,126.686 		"/>
		<polygon points="73.456,84.61 74.477,94.155 82.657,87.371 		"/>
		<polygon fill="#FFDE17" points="101.476,126.725 101.515,126.686 101.512,126.686 101.833,126.419 101.893,126.371 
			101.833,126.419 109.652,119.934 83.966,88.985 75.786,95.771 		"/>
	</g>
	
		<rect x="102.682" y="124.334" transform="matrix(-0.7648 0.6443 -0.6443 -0.7648 271.7978 153.2125)" fill="#D065A7" width="10.498" height="3.776"/>
</g>
<g>
	<path fill="#ACACAC" d="M160.984,127.068c-0.068,2.396-1.099,4.718-2.844,6.368l-21.03,19.941c-1.558,1.473-1.61,4.121-0.122,5.657
		c0.749,0.771,1.761,1.201,2.844,1.206c1.028,0.008,2.008-0.378,2.758-1.09l21.033-19.938c1.926-1.834,4.554-2.727,7.204-2.453
		c3.212,0.336,6.39-0.746,8.727-2.957c1.804-1.712,2.948-3.933,3.3-6.361l-5.136,4.87c-2.476,0.465-4.97,0.185-7.961-2.363
		c-3.102-2.639-4.978-6.125-3.97-10.224l5.133-4.867c-2.408,0.225-4.718,1.237-6.525,2.955c-2.34,2.217-3.594,5.337-3.421,8.555
		L160.984,127.068z"/>
	
		<rect x="166.753" y="113.902" transform="matrix(-0.6733 -0.7394 0.7394 -0.6733 192.762 322.9791)" fill="#ACACAC" width="1.978" height="9.995"/>
	
		<rect x="177.634" y="125.317" transform="matrix(-0.7051 -0.7091 0.7091 -0.7051 212.1726 348.8628)" fill="#ACACAC" width="1.979" height="9.997"/>
</g>
</svg>
