<?xml version="1.0" encoding="utf-8"?>
<!-- Generator: Adobe Illustrator 16.0.0, SVG Export Plug-In . SVG Version: 6.00 Build 0)  -->
<!DOCTYPE svg PUBLIC "-//W3C//DTD SVG 1.1//EN" "http://www.w3.org/Graphics/SVG/1.1/DTD/svg11.dtd">
<svg version="1.1" id="Layer_1" xmlns="http://www.w3.org/2000/svg" xmlns:xlink="http://www.w3.org/1999/xlink" x="0px" y="0px"
	 width="131.27px" height="131.27px" viewBox="1.5 1.5 131.27 131.27" enable-background="new 1.5 1.5 131.27 131.27"
	 xml:space="preserve">
<path fill="#4CA015" d="M110.533,83.411c0,5.742-2.025,9.371-6.324,11.498c-0.518,0.257-1.07,0.379-1.623,0.379
	c-0.877,0-1.744-0.313-2.434-0.922l-11.243-9.928c-2.02-1.785-3.776-3.631-8.692-3.631h-26.16c-4.919,0-6.68,1.844-8.695,3.631
	l-11.247,9.928c-0.681,0.607-1.552,0.922-2.432,0.922c-0.55,0-1.11-0.122-1.624-0.379c-4.301-2.127-6.326-5.759-6.326-11.496
	c0-7.457,3.417-19.749,9.696-35.647c2.973-7.533,8.29-10.343,13.363-10.343c2.374,0,4.693,0.613,6.702,1.648
	c8.767,4.518,18.698,4.423,27.284,0c1.999-1.035,4.321-1.648,6.694-1.648c5.074,0,10.394,2.811,13.366,10.343
	C107.116,63.661,110.533,75.954,110.533,83.411z"/>
<path fill="#CCCCCC" d="M70.752,51.889c0-1.997-1.618-3.617-3.617-3.617s-3.617,1.62-3.617,3.617s1.618,3.617,3.617,3.617
	S70.752,53.886,70.752,51.889z"/>
<path fill="#1549FF" d="M83.407,60.931c0-1.501-1.213-2.712-2.711-2.712s-2.712,1.212-2.712,2.712s1.214,2.712,2.712,2.712
	S83.407,62.433,83.407,60.931z"/>
<path fill="#8DC63F" d="M89.739,67.262c0-1.501-1.215-2.712-2.711-2.712c-1.498,0-2.713,1.211-2.713,2.712
	c0,1.5,1.215,2.712,2.713,2.712C88.524,69.973,89.739,68.762,89.739,67.262z"/>
<path fill="#ECC33D" d="M89.739,54.49c0-1.5-1.215-2.712-2.711-2.712c-1.498,0-2.713,1.212-2.713,2.712
	c0,1.501,1.215,2.712,2.713,2.712C88.524,57.202,89.739,55.987,89.739,54.49z"/>
<path fill="#BE1E2D" d="M96.01,60.931c0-1.501-1.215-2.712-2.713-2.712c-1.496,0-2.711,1.212-2.711,2.712s1.215,2.712,2.711,2.712
	C94.794,63.644,96.01,62.433,96.01,60.931z"/>
<g id="circle">
	<circle fill="none" stroke="#CCCCCC" stroke-width="5" stroke-miterlimit="10" cx="67.135" cy="67.135" r="63.135"/>
</g>
<path fill="#666666" d="M52.668,60.931c0,2.991-2.434,5.425-5.426,5.425c-2.989,0-5.425-2.434-5.425-5.425s2.436-5.425,5.425-5.425
	C50.234,55.506,52.668,57.941,52.668,60.931z"/>
</svg>
