<?xml version="1.0" encoding="utf-8"?>
<!-- Generator: Adobe Illustrator 16.0.0, SVG Export Plug-In . SVG Version: 6.00 Build 0)  -->
<!DOCTYPE svg PUBLIC "-//W3C//DTD SVG 1.1//EN" "http://www.w3.org/Graphics/SVG/1.1/DTD/svg11.dtd">
<svg version="1.1" id="Layer_1" xmlns="http://www.w3.org/2000/svg" xmlns:xlink="http://www.w3.org/1999/xlink" x="0px" y="0px"
	 width="144px" height="144px" viewBox="0 0 144 144" enable-background="new 0 0 144 144" xml:space="preserve">
<g id="Layer_1_1_">
	<g>
		<path fill="#E4E4E4" d="M103.676,100.867c-20.996,0.006-41.991,0.008-62.987,0.012c0.033-0.684,0.096-1.369,0.096-2.055
			c0.007-13.004,0.002-26.008,0.016-39.013c0-0.599-0.181-1.234,0.162-1.833c0.705,0.071,1.127,0.579,1.619,0.927
			c9.416,6.622,18.834,13.239,28.211,19.917c1.056,0.75,1.741,0.777,2.813,0.012c9.418-6.717,18.881-13.372,28.343-20.026
			c0.47-0.331,0.854-0.97,1.655-0.738c0,8.376-0.009,16.738,0.002,25.102C103.613,89.068,103.649,94.969,103.676,100.867z"/>
		<path fill="#E84434" d="M103.676,100.867c-0.025-5.898-0.063-11.797-0.07-17.697c-0.011-8.363-0.002-16.725-0.002-25.101
			c-0.801-0.232-1.185,0.408-1.655,0.737c-9.464,6.653-18.925,13.308-28.343,20.027c-1.073,0.766-1.757,0.738-2.813-0.014
			c-9.377-6.676-18.795-13.293-28.211-19.916c-0.494-0.348-0.914-0.855-1.619-0.927c-0.342,0.6-0.162,1.235-0.162,1.833
			c-0.014,13.006-0.009,26.01-0.016,39.014c0,0.684-0.063,1.369-0.096,2.053c-1.029,0-2.06,0.01-3.092-0.004
			c-3.354-0.033-5.461-2.119-5.465-5.482c-0.014-11.734-0.006-23.468-0.006-35.204c0-3.835-0.013-7.671,0.004-11.506
			c0.016-3.529,2.16-5.575,5.743-5.521c7.261,5.276,14.517,10.556,21.78,15.826c4.158,3.018,8.326,6.021,12.552,9.074
			c4.187-3.054,8.301-6.044,12.4-9.049c7.193-5.271,14.379-10.554,21.568-15.83c3.428-0.113,5.688,1.973,5.691,5.368
			c0.018,15.61,0.016,31.218,0.002,46.825c-0.004,3.357-2.119,5.463-5.447,5.498C105.504,100.885,104.589,100.869,103.676,100.867z"
			/>
		<path fill="#E4E4E4" d="M106.172,43.183c-7.188,5.277-14.375,10.559-21.566,15.83c-4.102,3.005-8.214,5.995-12.402,9.049
			c-4.222-3.052-8.392-6.055-12.551-9.074c-7.264-5.27-14.521-10.549-21.78-15.826c15.273-0.015,30.546-0.039,45.819-0.041
			C91.188,43.12,98.681,43.159,106.172,43.183z"/>
	</g>
</g>
</svg>
