<?xml version="1.0" encoding="utf-8"?>
<!-- Generator: Adobe Illustrator 16.0.0, SVG Export Plug-In . SVG Version: 6.00 Build 0)  -->
<!DOCTYPE svg PUBLIC "-//W3C//DTD SVG 1.1//EN" "http://www.w3.org/Graphics/SVG/1.1/DTD/svg11.dtd">
<svg version="1.1" id="person-icon" xmlns="http://www.w3.org/2000/svg" xmlns:xlink="http://www.w3.org/1999/xlink" x="0px"
	 y="0px" width="131.372px" height="131.373px" viewBox="1.5 1.499 131.372 131.373"
	 enable-background="new 1.5 1.499 131.372 131.373" xml:space="preserve">
<g id="Layer_1_2_">
	<g id="Layer_1_1_">
		<path fill="#6D373E" d="M48.027,51.482c0,1.054,0,2.108,0,3.16C47.7,54.043,47.7,52.083,48.027,51.482z"/>
		<path fill="#EECB9A" d="M66.395,73.999c0.729-0.328,2.824-0.328,3.556,0C68.764,73.999,67.58,73.999,66.395,73.999z"/>
		<path fill="#B58D7C" d="M65.606,73.999c0.263,0,0.525,0,0.789,0c1.186,0,2.369,0,3.555,0c0.396,0,0.791,0,1.186,0
			C69.75,74.327,66.989,74.327,65.606,73.999z"/>
		<g id="XMLID_1_">
			<g>
				<path fill="#F2CEA5" d="M49.609,72.616c0.441,0.742,0.645,1.725,0.988,2.568C50.044,74.547,49.775,73.625,49.609,72.616z"/>
			</g>
		</g>
		<path fill="#7392FF" d="M89.897,90.389c5.16,1.357,10.09,2.945,15.404,4.148c-1.117,2.705-4.505,4.84-6.715,7.109
			c-7.686,5.74-18.227,10.986-31.6,10.861c-13.159-0.123-23.796-4.986-31.204-11.063c-2.424-1.99-5.553-4.313-6.715-6.912
			c5.306-1.215,10.252-2.785,15.406-4.148C49.066,107.483,85.301,107.473,89.897,90.389z"/>
		<path fill="#452228" d="M82.194,30.746c0.199,0,0.396,0,0.595,0c5.144,0.978,8.183,4.062,8.493,9.876c0,1.25,0,2.502,0,3.751
			c-0.266,3.158-0.674,6.175-1.777,8.492c-0.884,0.37-1.515,0.988-1.777,1.976c-0.375,1.074-1.028,1.867-1.186,3.158
			c-0.43,0.033-0.09-0.7-0.197-0.987c-0.434-7.86,1.584-18.172-5.728-19.157c-0.729-0.328-2.826-0.328-3.556,0
			c-1.396-0.08-2.308,0.326-3.359,0.592C76.51,35.858,79.563,33.512,82.194,30.746z"/>
		<path fill="#6D373E" d="M46.448,31.338c0.284-0.702,0.8-1.175,1.382-1.58C47.359,30.275,47.101,31.003,46.448,31.338z"/>
		<path fill="#452228" d="M87.725,54.841c0.265-0.989,0.895-1.606,1.774-1.976C88.768,53.381,88.206,54.07,87.725,54.841z"/>
		<path fill="#A17164" d="M71.133,73.999c1.162-0.221,2.246-0.521,3.358-0.789c-0.142,2.428-3.804,3.041-6.519,3.555
			c-4.074-0.398-7.093-1.855-8.097-5.332c1.747,1.02,3.261,2.271,5.728,2.568C66.989,74.327,69.75,74.327,71.133,73.999z"/>
		<path fill="#F2CEA5" d="M48.027,51.482c0.371-8.978,3.563-15.135,12.246-15.8c4.063,1.235,8.341,6.2,13.43,2.766
			c1.051-0.267,1.96-0.673,3.36-0.592c1.186,0,2.371,0,3.556,0c7.312,0.984,5.292,11.296,5.728,19.157
			c-0.33,0.134-0.394,2.324,0.196,1.579c-1.299,4.035-0.844,9.82-1.776,14.221c-0.651,1.979-1.709,3.561-2.567,5.332
			c-4.822,3.844-10.488,10.236-19.551,7.307c-3.928-1.998-7.238-4.613-10.469-7.307c-0.146-1.305-1-1.898-1.58-2.766
			c0-0.064,0-0.133,0-0.197c-0.343-0.844-0.543-1.826-0.988-2.566c-0.86-4.211-0.62-9.518-1.58-13.626
			c0.324-0.028,0.324-1.356,0-1.382c0-0.988,0-1.976,0-2.962C48.027,53.59,48.027,52.536,48.027,51.482z M65.606,73.999
			c-2.469-0.297-3.981-1.549-5.729-2.566c1.003,3.473,4.021,4.934,8.098,5.332c2.713-0.514,6.377-1.127,6.518-3.557
			c-1.112,0.27-2.197,0.568-3.357,0.789c-0.395,0-0.791,0-1.186,0c-0.73-0.328-2.826-0.328-3.557,0
			C66.131,73.999,65.869,73.999,65.606,73.999z"/>
		<path fill="#452228" d="M77.059,37.855c0.729-0.328,2.823-0.328,3.557,0C79.43,37.855,78.245,37.855,77.059,37.855z"/>
		<path fill="#6D373E" d="M81.52,29.21c-0.369-0.405-0.668-0.891-0.896-1.396c-0.729-0.602-1.396-1.264-1.983-2.005
			c-2.172-1.845-5.252-2.78-8.89-3.159h-3.356c-1.518,0.329-4.409,0.329-5.925,0c-2.271-0.035-4.195-0.414-6.123-0.79
			c-0.054,1.635,0.621,2.542,0.791,3.951c-3.152,0.602-5.365,2.14-7.309,3.949c-0.471,0.517-0.729,1.246-1.382,1.58
			c-1.945,2.138-2.761,5.401-3.357,8.888v3.95c0.478,2.06,0.437,4.637,0.945,6.667c0.423,0.458,0.817,0.942,1.187,1.455
			c0.282,0.393,0.521,0.801,0.766,1.217c0.013,0.025,0.029,0.048,0.043,0.073c0.256,0.247,0.46,0.528,0.632,0.839
			c0.183,0.258,0.306,0.556,0.392,0.869c0.006,0.013,0.008,0.026,0.014,0.038c0.121,0.324,0.171,0.638,0.172,0.935
			c0.179,0.594,0.345,1.203,0.592,1.731c0.154-0.043,0.23-0.166,0.195-0.395v-2.962c-0.326-0.601-0.326-2.561,0-3.16
			c0.371-8.978,3.563-15.135,12.248-15.8c4.063,1.235,8.341,6.2,13.429,2.766c2.811-2.589,5.861-4.935,8.493-7.703
			C82.117,30.087,81.723,29.742,81.52,29.21z"/>
		<path fill="#F2CEA5" d="M48.027,58.988c-0.166-0.23-0.26-0.529-0.196-0.989c0.153-0.043,0.229-0.166,0.196-0.395
			C48.353,57.632,48.353,58.961,48.027,58.988z"/>
		<path fill="#F2CEA5" d="M86.541,58.592c-0.592,0.744-0.528-1.445-0.198-1.579c0.107,0.287-0.23,1.02,0.198,0.987
			C86.541,58.197,86.541,58.395,86.541,58.592z"/>
		<path fill="#D4B08C" d="M52.175,78.145c3.23,2.693,6.539,5.311,10.469,7.309c9.063,2.93,14.728-3.465,19.55-7.309
			c0,1.053,0,2.105,0,3.16c0,0.063,0,0.131,0,0.193c-4.723,3.254-7.787,8.889-15.008,8.889c-7.288,0-10.157-5.527-15.011-8.691
			C52.175,80.516,52.175,79.331,52.175,78.145z"/>
		<path fill="#E4C19C" d="M84.169,88.811c0.481,0.176,0.854,0.459,1.579,0.393c-2.79,6.297-8.711,9.459-17.182,10.074
			c-0.922,0-1.844,0-2.766,0c-8.481-0.604-14.386-3.785-17.184-10.074c0.724,0.066,1.098-0.217,1.581-0.393
			c0.79-0.002,1.186-0.396,1.977-0.396c0-2.238,0-4.477,0-6.715c4.852,3.16,7.721,8.689,15.009,8.689
			c7.222,0,10.285-5.635,15.008-8.887c0,2.174,0,4.346,0,6.516C82.379,88.754,83.471,88.586,84.169,88.811z"/>
		<path fill="#6D373E" d="M61.867,25.493c1.915,0,3.825,0,5.739,0C66.137,25.81,63.335,25.81,61.867,25.493z"/>
		<g id="XMLID_2_">
			<g>
				<path fill="#1549FF" d="M85.749,89.204c1.313,0.473,2.791,0.768,4.146,1.191c-4.596,17.078-40.833,17.09-45.421,0
					c1.355-0.424,2.832-0.719,4.146-1.191c2.796,6.293,8.699,9.471,17.183,10.072c0.467,0.33,2.295,0.33,2.76,0
					C77.04,98.663,82.957,95.502,85.749,89.204z"/>
				<path fill="#1549FF" d="M65.805,99.276h2.76C68.1,99.606,66.272,99.606,65.805,99.276z"/>
			</g>
		</g>
	</g>
</g>
<g id="circle">
	<circle fill="none" stroke="#CCCCCC" stroke-width="5" stroke-miterlimit="10" cx="67.186" cy="67.185" r="63.186"/>
</g>
</svg>
