<?xml version="1.0" encoding="utf-8"?>
<!-- Generator: Adobe Illustrator 16.0.0, SVG Export Plug-In . SVG Version: 6.00 Build 0)  -->
<!DOCTYPE svg PUBLIC "-//W3C//DTD SVG 1.1//EN" "http://www.w3.org/Graphics/SVG/1.1/DTD/svg11.dtd">
<svg version="1.1" id="person-icon" xmlns="http://www.w3.org/2000/svg" xmlns:xlink="http://www.w3.org/1999/xlink" x="0px"
	 y="0px" width="144px" height="144px" viewBox="0 0 144 144" enable-background="new 0 0 144 144" xml:space="preserve">
<path fill="#FED93E" d="M16.41,32.287c-5.918,0-10.721,4.802-10.721,10.722v10.714H16.41v-8.036c0-1.477,1.204-2.679,2.677-2.679
	h26.806c1.479,0,2.683,1.202,2.683,2.679v8.036h10.719V43.009c0-5.919-4.815-10.722-10.719-10.722H16.41z"/>
<polygon fill="#1C194F" points="83.732,106.516 77.307,138.688 -12.32,138.688 -18.756,106.516 "/>
<polygon fill="#22D689" points="96.813,95.805 -31.835,95.805 -21.112,149.405 86.096,149.405 "/>
<polygon fill="#22D689" points="91.455,59.091 91.455,75.167 80.744,75.167 80.744,69.809 -15.756,69.809 -15.756,75.167 
	-26.475,75.167 -26.475,59.091 "/>
<polygon fill="#ADADAD" points="88.898,84.518 -25.191,84.518 -26.64,78.88 90.598,78.88 "/>
<polygon fill="#ADADAD" points="88.898,91.715 -25.191,91.715 -26.64,88.028 90.598,88.028 "/>
</svg>
