<?xml version="1.0" encoding="utf-8"?>
<!-- Generator: Adobe Illustrator 16.0.0, SVG Export Plug-In . SVG Version: 6.00 Build 0)  -->
<!DOCTYPE svg PUBLIC "-//W3C//DTD SVG 1.1//EN" "http://www.w3.org/Graphics/SVG/1.1/DTD/svg11.dtd">
<svg version="1.1" id="Layer_1" xmlns="http://www.w3.org/2000/svg" xmlns:xlink="http://www.w3.org/1999/xlink" x="0px" y="0px"
	 width="154.8px" height="154.8px" viewBox="-53.4 -53.4 154.8 154.8" enable-background="new -53.4 -53.4 154.8 154.8"
	 xml:space="preserve">
<g>
	<path fill="#D1C4E9" d="M57.123-2.471L28.229,20.553c-2.515,2.006-6.111,1.997-8.618-0.018L-9.151-2.589
		c-1.124-0.856-2.756-0.067-2.756,1.333v10.06v35.426c0,3.728,3.063,6.748,6.841,6.748h58.133c3.777,0,6.841-3.021,6.841-6.748
		V-1.158C59.907-2.577,58.242-3.363,57.123-2.471z"/>
	<path fill="#7C4DFF" d="M44.521,7.572L19.761,27.3c-2.514,2.002-6.102,1.996-8.611-0.013L-11.908,8.806v35.426
		c0,3.729,3.063,6.747,6.841,6.747h49.587V7.572z"/>
</g>
</svg>
