<svg version="1.1" id="Layer_1" xmlns="http://www.w3.org/2000/svg" xmlns:xlink="http://www.w3.org/1999/xlink" x="0px" y="0px"
	 viewBox="4.177 4.177 135.646 135.646" enable-background="new 4.177 4.177 135.646 135.646"
	 xml:space="preserve">
<g id="Layer_1_1_">
	<path fill="#FDCF0E" d="M52.521,44.237c0,3.832-3.08,6.937-6.881,6.937c-3.802,0-6.882-3.105-6.882-6.937
		c0-3.83,3.081-6.938,6.882-6.938C49.442,37.298,52.521,40.407,52.521,44.237z M52.578,56.723H38.704v44.396h13.875V56.723z
		 M74.726,56.723H60.94v44.396h13.784V77.814c0-12.959,16.73-14.02,16.73,0v23.304h13.842v-28.11
		c0-21.865-24.756-21.07-30.572-10.307L74.726,56.723L74.726,56.723z"/>
</g>
<g id="circle">
	<circle fill="none" stroke="#FDCF0E" stroke-width="5" stroke-miterlimit="10" cx="72" cy="72" r="65.323"/>
</g>
</svg>
