<?xml version="1.0" encoding="utf-8"?>
<!-- Generator: Adobe Illustrator 16.0.0, SVG Export Plug-In . SVG Version: 6.00 Build 0)  -->
<!DOCTYPE svg PUBLIC "-//W3C//DTD SVG 1.1//EN" "http://www.w3.org/Graphics/SVG/1.1/DTD/svg11.dtd">
<svg version="1.1" id="Layer_1" xmlns="http://www.w3.org/2000/svg" xmlns:xlink="http://www.w3.org/1999/xlink" x="0px" y="0px"
	 width="1920px" height="1080px" viewBox="0 0 1920 1080" enable-background="new 0 0 1920 1080" xml:space="preserve">
<circle opacity="0.2" fill="#FFFFFF" cx="364.994" cy="545" r="151.765"/>
<circle opacity="0.2" fill="#FFFFFF" cx="300.294" cy="348.884" r="103.53"/>
<circle opacity="0.1" fill="#FFFFFF" cx="670.052" cy="569.739" r="74.152"/>
<circle opacity="0.2" fill="#FFFFFF" cx="1457.941" cy="545" r="154.118"/>
<circle opacity="0.3" fill="#FFFFFF" cx="1007.794" cy="661.029" r="47.794"/>
<circle opacity="0.4" fill="#FFFFFF" cx="1154.411" cy="817.941" r="31.765"/>
<circle opacity="0.3" fill="#FFFFFF" cx="1512.647" cy="735" r="94.706"/>
<circle opacity="0.8" fill="#FFFFFF" cx="1793.234" cy="441.471" r="30.588"/>
<circle opacity="0.2" fill="#FFFFFF" cx="1623.235" cy="211.471" r="46.471"/>
<circle opacity="0.6" fill="#FFFFFF" cx="196.765" cy="676.764" r="70.588"/>
<circle opacity="0.7" fill="#FFFFFF" cx="233.824" cy="1009.705" r="37.059"/>
<circle opacity="0.8" fill="#FFFFFF" cx="1607.353" cy="933.234" r="25.882"/>
<circle opacity="0.6" fill="#FFFFFF" cx="1036.029" cy="523.823" r="28.235"/>
<circle opacity="0.8" fill="#FFFFFF" cx="1823.822" cy="849.706" r="118.236"/>
<circle opacity="0.4" fill="#FFFFFF" cx="135.244" cy="873.187" r="72.109"/>
<circle opacity="0.7" fill="#FFFFFF" cx="57.136" cy="926.119" r="32.999"/>
<circle opacity="0.3" fill="#FFFFFF" cx="1896.847" cy="289.245" r="59.639"/>
<circle opacity="0.6" fill="#FFFFFF" cx="63.136" cy="241.605" r="33.462"/>
<circle opacity="0.2" fill="#FFFFFF" cx="854.003" cy="480.649" r="47.794"/>
<circle opacity="0.7" fill="#FFFFFF" cx="1135.015" cy="661.029" r="35.735"/>
<circle opacity="0.3" fill="#FFFFFF" cx="-31.57" cy="385.944" r="94.706"/>
</svg>
