<?xml version="1.0" encoding="utf-8"?>
<!-- Generator: Adobe Illustrator 16.0.0, SVG Export Plug-In . SVG Version: 6.00 Build 0)  -->
<!DOCTYPE svg PUBLIC "-//W3C//DTD SVG 1.1//EN" "http://www.w3.org/Graphics/SVG/1.1/DTD/svg11.dtd">
<svg version="1.1" id="Layer_1" xmlns="http://www.w3.org/2000/svg" xmlns:xlink="http://www.w3.org/1999/xlink" x="0px" y="0px"
	 width="1920px" height="1080px" viewBox="0 0 1920 1080" enable-background="new 0 0 1920 1080" xml:space="preserve">
<circle opacity="0.2" fill="#3883F2" cx="1726.176" cy="59.707" r="151.764"/>
<circle opacity="0.4" fill="#3883F2" cx="1398.422" cy="933.235" r="103.529"/>
<circle opacity="0.1" fill="#3883F2" cx="1135.017" cy="555.193" r="135.294"/>
<circle opacity="0.4" fill="#3883F2" cx="1572.059" cy="412.059" r="154.118"/>
<circle opacity="0.2" fill="#3883F2" cx="999.722" cy="708.823" r="47.794"/>
<circle opacity="0.4" fill="#3883F2" cx="1154.411" cy="817.941" r="31.765"/>
<circle opacity="0.2" fill="#3883F2" cx="1512.647" cy="735" r="94.706"/>
<circle opacity="0.2" fill="#3883F2" cx="1793.234" cy="441.471" r="30.588"/>
<circle opacity="0.2" fill="#3883F2" cx="1623.235" cy="211.471" r="46.471"/>
<circle opacity="0.4" fill="#3883F2" cx="1327.834" cy="652.057" r="70.588"/>
<circle opacity="0.3" fill="#3883F2" cx="1674.775" cy="773.863" r="37.059"/>
<circle opacity="0.3" fill="#3883F2" cx="1607.353" cy="933.234" r="25.882"/>
<circle opacity="0.3" fill="#3883F2" cx="1327.834" cy="495.588" r="28.235"/>
<circle opacity="0.2" fill="#3883F2" cx="1811.208" cy="696.764" r="118.236"/>
<circle opacity="0.2" fill="#3883F2" cx="1538.256" cy="872.442" r="72.108"/>
<circle opacity="0.4" fill="#3883F2" cx="1454.648" cy="540" r="32.998"/>
<circle opacity="0.1" fill="#3883F2" cx="1896.847" cy="289.245" r="59.639"/>
<circle opacity="0.3" fill="#3883F2" cx="839.751" cy="950.551" r="33.463"/>
<circle opacity="0.4" fill="#3883F2" cx="1319.483" cy="372.105" r="47.794"/>
<circle opacity="0.4" fill="#3883F2" cx="1186.175" cy="690.488" r="35.735"/>
<circle opacity="0.2" fill="#3883F2" cx="1027.941" cy="933.235" r="94.706"/>
<circle opacity="0.2" fill="#3883F2" cx="1454.647" cy="229.606" r="94.706"/>
<circle opacity="0.2" fill="#3883F2" cx="1896.847" cy="920.236" r="47.794"/>
<circle opacity="0.4" fill="#3883F2" cx="1680.953" cy="1039.257" r="70.588"/>
</svg>
