<?xml version="1.0" encoding="utf-8"?>
<!-- Generator: Adobe Illustrator 16.0.0, SVG Export Plug-In . SVG Version: 6.00 Build 0)  -->
<!DOCTYPE svg PUBLIC "-//W3C//DTD SVG 1.1//EN" "http://www.w3.org/Graphics/SVG/1.1/DTD/svg11.dtd">
<svg version="1.1" id="Layer_1" xmlns="http://www.w3.org/2000/svg" xmlns:xlink="http://www.w3.org/1999/xlink" x="0px" y="0px"
	 width="400px" height="400px" viewBox="0 0 400 400" enable-background="new 0 0 400 400" xml:space="preserve">
<g id="Atoms_x2F_Illustrations_x2F_art-car-small">
	<path id="Shape" fill="#FCFCFC" d="M283.642,251.485c-1.569,0.061-2.633,0.096-3.084,0.096c-2.798,0-61.041,0-174.729,0
		l-2.975-0.111c1.982-4.725,3.077-9.914,3.077-15.358c0-21.945-17.791-39.735-39.736-39.735c-21.945,0-39.735,17.79-39.735,39.735
		c0,4.395,0.714,8.622,2.031,12.573l-1.577-0.059H8.48c-4.008-1.456-6.04-5.927-6.096-13.413
		c-0.053-7.043-0.056-13.342-0.009-18.895l0,0c0.005-0.574,0.472-1.036,1.045-1.036h2.969c2.511-13.24,6.374-20.926,11.59-23.059
		c7.825-3.201,54.021-13.011,56.956-13.283c1.957-0.181,13.835-1.292,35.635-3.333c29.266-17.39,51.003-28.22,65.21-32.49
		c14.208-4.27,33.652-6.229,58.328-5.876h31.68c13.396,0.253,25.699,3.062,36.909,8.424c16.814,8.044,38.707,20.893,43.738,22.298
		c5.032,1.404,38.575,6.33,42.116,13.554c2.36,4.817,4.063,17.133,5.108,36.951h4.05c0.564,0,1.027,0.448,1.046,1.012
		c0.29,8.962-0.293,15.298-1.751,19.007c-2.268,5.771-12.218,10.16-33.502,10.14c-1.634-0.001-3.479,0.015-5.5,0.046
		c1.314-3.948,2.026-8.171,2.026-12.561c0-21.945-17.79-39.735-39.735-39.735s-39.735,17.79-39.735,39.735
		C280.558,241.562,281.655,246.757,283.642,251.485z M138.844,173.135c7.617-0.157,12.039,0.121,13.268,0.833
		c1.229,0.712,1.234,4.216,0.016,10.512l68.014-3.377l5.507-36.254c-10.782,0.009-22.738,0.959-35.867,2.852
		C176.653,149.594,159.674,158.072,138.844,173.135z M236.801,144.849l-5.072,36.77l54.773-2.719l3.233-27.447
		c-10.127-3.87-17.646-5.914-22.556-6.132C262.27,145.104,252.143,144.946,236.801,144.849z M294.617,154.24l-2.833,24.387h18.381
		c3.511-5.959,5.243-10.023,5.197-12.193C315.317,164.264,308.402,160.199,294.617,154.24z M66.195,265.391
		c-16.17,0-29.278-13.109-29.278-29.279s13.108-29.278,29.278-29.278c16.171,0,29.279,13.108,29.279,29.278
		S82.366,265.391,66.195,265.391z M321.338,265.391c-16.17,0-29.278-13.109-29.278-29.279s13.108-29.278,29.278-29.278
		c16.171,0,29.279,13.108,29.279,29.278S337.509,265.391,321.338,265.391z"/>
</g>
</svg>
