<?xml version="1.0" encoding="utf-8"?>
<!-- Generator: Adobe Illustrator 16.0.0, SVG Export Plug-In . SVG Version: 6.00 Build 0)  -->
<!DOCTYPE svg PUBLIC "-//W3C//DTD SVG 1.1//EN" "http://www.w3.org/Graphics/SVG/1.1/DTD/svg11.dtd">
<svg version="1.1" id="Layer_1" xmlns="http://www.w3.org/2000/svg" xmlns:xlink="http://www.w3.org/1999/xlink" x="0px" y="0px"
	 width="500px" height="500px" viewBox="0 0 500 500" enable-background="new 0 0 500 500" xml:space="preserve">
<g>
	<g id="Atoms_x2F_Icons_x2F_Promo" transform="translate(144.000000, 0.000000)">
		<path id="Shape" fill="#3883F2" d="M188.103,157.76l-11.891,39.042c-3.869,2.202-6.885,5.82-8.175,10.378
			c-2.652,9.391,3.035,19.221,12.705,21.953c9.67,2.735,19.66-2.664,22.313-12.054c1.626-5.755,0.124-11.676-3.516-16.025
			l11.232-36.884l9.419,2.664c0.751,0.21,1.38,0.724,1.739,1.417l28.897,55.361c0.334,0.64,0.41,1.387,0.216,2.083l-37.377,132.226
			c-0.426,1.507-1.992,2.384-3.496,1.957L87.222,325.123c-1.506-0.426-2.381-1.993-1.957-3.499l37.378-132.227
			c0.193-0.695,0.651-1.291,1.271-1.662l53.603-32.043c0.668-0.399,1.475-0.506,2.226-0.293L188.103,157.76z M189.089,213.707
			c-0.978,3.14-4.317,4.923-7.468,3.981c-3.146-0.942-4.908-4.251-3.933-7.391l23.802-76.609c0.978-3.14,4.317-4.921,7.469-3.982
			c3.148,0.941,4.909,4.25,3.934,7.391L189.089,213.707z"/>
	</g>
	<path fill="#FCCF47" d="M313.394,277.72c-8.464-4.956-10.708-8.242-9.628-12.066c1.241-4.387,6.173-6.298,12.973-4.376
		c5.715,1.617,7.96,4.6,8.027,8.356c0.024,1.745,1.013,3.328,2.705,3.806l1.208,0.342c2.653,0.75,5.286-1.33,5.065-4.088
		c-0.348-5.226-3.177-10.285-9.026-13.591l0.787-2.776c0.943-3.341-0.988-6.8-4.33-7.742c-3.341-0.946-6.798,0.988-7.743,4.33
		l-0.752,2.656c-8.284-0.515-15.997,2.781-18.191,10.55c-2.629,9.296,3.75,16.098,14.217,21.968
		c9.379,5.26,10.391,9.369,9.333,13.114c-0.785,2.775-4.008,6.646-12.903,4.13c-6.641-1.874-9.392-5.22-9.763-8.974
		c-0.161-1.74-1.21-3.255-2.859-3.723l-1.13-0.317c-2.694-0.762-5.359,1.438-5.059,4.22c0.712,6.242,5.133,11.055,10.803,14.052
		l-0.762,2.696c-0.942,3.34,0.991,6.8,4.333,7.743c3.34,0.944,6.796-0.989,7.743-4.329l0.738-2.617
		c8.271,0.729,15.794-2.055,18.127-10.309C330.538,289.345,321.861,282.677,313.394,277.72z"/>
</g>
<g>
	<g id="Atoms_x2F_Icons_x2F_Promo_1_" transform="translate(144.000000, 0.000000)">
		<path id="Shape_1_" fill="#2CB9D9" d="M46.514,136.173c0.931-0.312,1.948-0.222,2.81,0.241l69.142,37.152
			c0.798,0.427,1.408,1.149,1.691,2.012l54.527,163.868c0.62,1.864-0.391,3.881-2.254,4.504L20.062,394.645
			c-1.866,0.624-3.883-0.387-4.505-2.256l-54.525-163.864c-0.284-0.862-0.232-1.803,0.152-2.626l33.099-71.168
			c0.412-0.89,1.171-1.572,2.104-1.879l11.673-3.885l16.222,45.663c-4.319,5.671-5.868,13.192-3.495,20.322
			c3.872,11.639,16.726,17.842,28.71,13.853c11.984-3.987,18.558-16.653,14.688-28.292c-1.882-5.648-5.875-10.018-10.858-12.561
			l-17.172-48.333L46.514,136.173z M3.841,115.098c-1.407-3.888,0.615-8.143,4.516-9.505c3.899-1.361,8.197,0.682,9.602,4.57
			l34.291,94.819c1.402,3.886-0.62,8.14-4.516,9.504c-3.901,1.362-8.196-0.682-9.604-4.57L3.841,115.098z"/>
	</g>
	<path fill="#0FF8D7" d="M181.788,287.291c-10.985,0.738-15.143-0.899-16.549-5.131c-1.616-4.854,1.756-9.738,9.285-12.242
		c6.324-2.104,10.289-0.751,12.722,2.693c1.124,1.605,3.042,2.452,4.912,1.83l1.337-0.445c2.939-0.978,4.069-4.571,2.126-6.991
		c-3.62-4.635-9.437-7.548-16.95-6.928l-1.023-3.072c-1.231-3.7-5.207-5.691-8.905-4.459c-3.696,1.229-5.687,5.206-4.458,8.904
		l0.979,2.939c-8.019,4.747-13.103,12.673-10.24,21.27c3.423,10.29,13.635,12.581,27.056,11.429
		c12.027-1.032,15.558,2.146,16.937,6.29c1.023,3.072,0.47,8.702-9.375,11.977c-7.351,2.445-12.013,1.076-14.727-2.177
		c-1.247-1.513-3.176-2.257-5.001-1.649l-1.25,0.415c-2.982,0.992-4.069,4.716-2.036,7.108c4.598,5.347,11.738,7.026,18.895,6.232
		l0.993,2.984c1.231,3.696,5.208,5.688,8.905,4.458c3.697-1.231,5.688-5.207,4.458-8.903l-0.963-2.897
		c8.138-4.54,13.368-11.869,10.329-21.002C205.036,287.273,192.774,286.554,181.788,287.291z"/>
	<path fill="#0FF8D7" d="M240.437,267.775c-10.984,0.738-15.141-0.898-16.548-5.13c-1.616-4.855,1.757-9.738,9.284-12.244
		c6.325-2.104,10.29-0.75,12.721,2.695c1.125,1.604,3.041,2.452,4.914,1.829l1.335-0.444c2.939-0.979,4.071-4.571,2.128-6.992
		c-3.62-4.634-9.439-7.546-16.952-6.926l-1.021-3.075c-1.231-3.697-5.208-5.689-8.905-4.458c-3.699,1.231-5.689,5.207-4.459,8.905
		l0.979,2.939c-8.019,4.748-13.1,12.672-10.238,21.27c3.423,10.29,13.636,12.581,27.057,11.431
		c12.026-1.034,15.557,2.144,16.937,6.289c1.022,3.071,0.47,8.7-9.376,11.976c-7.35,2.446-12.011,1.075-14.726-2.177
		c-1.246-1.513-3.175-2.258-5.001-1.65l-1.25,0.416c-2.982,0.991-4.069,4.715-2.035,7.107c4.598,5.347,11.737,7.028,18.893,6.232
		l0.993,2.985c1.231,3.696,5.209,5.688,8.906,4.457c3.698-1.23,5.688-5.208,4.459-8.904l-0.965-2.896
		c8.139-4.539,13.369-11.869,10.33-21.001C263.686,267.759,251.425,267.039,240.437,267.775z"/>
</g>
</svg>
