<?xml version="1.0" encoding="utf-8"?>
<!-- Generator: Adobe Illustrator 16.0.0, SVG Export Plug-In . SVG Version: 6.00 Build 0)  -->
<!DOCTYPE svg PUBLIC "-//W3C//DTD SVG 1.1//EN" "http://www.w3.org/Graphics/SVG/1.1/DTD/svg11.dtd">
<svg version="1.1" id="Layer_1" xmlns="http://www.w3.org/2000/svg" xmlns:xlink="http://www.w3.org/1999/xlink" x="0px" y="0px"
	 width="500px" height="500px" viewBox="0 0 500 500" enable-background="new 0 0 500 500" xml:space="preserve">
<path fill="#BABABA" d="M153.61,218.537h-21.643c-5.976,0-10.821-4.845-10.821-10.821v-21.643c0-35.855,29.071-64.926,64.926-64.926
	h21.643c5.976,0,10.821,4.845,10.821,10.821v21.643c0,5.976-4.845,10.821-10.821,10.821h-21.643
	c-11.952,0-21.642,9.69-21.642,21.642v21.643C164.432,213.691,159.586,218.537,153.61,218.537z"/>
<path fill="#BABABA" d="M153.61,283.463c5.976,0,10.821,4.84,10.821,10.821v21.642c0,11.952,9.69,21.644,21.642,21.644h21.643
	c5.976,0,10.821,4.84,10.821,10.82v21.643c0,5.98-4.845,10.821-10.821,10.821h-21.643c-35.855,0-64.926-29.071-64.926-64.928
	v-21.642c0-5.981,4.845-10.821,10.821-10.821H153.61z"/>
<path fill="#BABABA" d="M348.391,218.537c-5.981,0-10.822-4.845-10.822-10.821v-21.643c0-11.952-9.689-21.642-21.643-21.642h-21.642
	c-5.981,0-10.821-4.846-10.821-10.821v-21.643c0-5.976,4.84-10.821,10.821-10.821h21.642c35.855,0,64.928,29.071,64.928,64.926
	v21.643c0,5.976-4.84,10.821-10.821,10.821L348.391,218.537L348.391,218.537z"/>
<path fill="#BABABA" d="M348.391,283.463h21.642c5.981,0,10.821,4.84,10.821,10.821v21.642c0,35.855-29.071,64.928-64.928,64.928
	h-21.642c-5.981,0-10.821-4.841-10.821-10.821V348.39c0-5.98,4.84-10.82,10.821-10.82h21.642c11.952,0,21.643-9.69,21.643-21.644
	v-21.642C337.568,288.303,342.408,283.463,348.391,283.463z"/>
<path fill="#FFFFFF" d="M283.463,229.357v43.286c0,5.979-4.84,10.819-10.82,10.819h-43.285c-5.976,0-10.821-4.84-10.821-10.819
	v-43.286c0-5.976,4.845-10.821,10.821-10.821h43.285C278.623,218.537,283.463,223.382,283.463,229.357z"/>
</svg>
