<?xml version="1.0" encoding="utf-8"?>
<!-- Generator: Adobe Illustrator 16.0.0, SVG Export Plug-In . SVG Version: 6.00 Build 0)  -->
<!DOCTYPE svg PUBLIC "-//W3C//DTD SVG 1.1//EN" "http://www.w3.org/Graphics/SVG/1.1/DTD/svg11.dtd">
<svg version="1.1" id="Layer_1" xmlns="http://www.w3.org/2000/svg" xmlns:xlink="http://www.w3.org/1999/xlink" x="0px" y="0px"
	 width="500px" height="500px" viewBox="0 0 500 500" enable-background="new 0 0 500 500" xml:space="preserve">
<g id="Atoms_x2F_Icons_x2F_Promo" transform="translate(144.000000, 0.000000)">
	<path id="Shape" fill="#FFFFFF" d="M202.813,92.514l-19.312,18.549c-2.921,0.022-5.808,1.128-8.006,3.326
		c-4.526,4.528-4.417,11.979,0.245,16.64c4.662,4.663,12.111,4.772,16.64,0.244c2.772-2.774,3.81-6.647,3.118-10.304l18.245-17.524
		l4.541,4.542c0.362,0.362,0.56,0.856,0.543,1.368l-1.183,40.959c-0.014,0.474-0.209,0.925-0.543,1.261l-63.752,63.752
		c-0.728,0.726-1.906,0.726-2.631,0l-59.278-59.278c-0.726-0.726-0.726-1.903,0-2.629l63.752-63.752
		c0.334-0.336,0.787-0.531,1.261-0.544l40.959-1.184c0.511-0.015,1.007,0.182,1.368,0.544L202.813,92.514z M185.46,124.868
		c-1.563,1.486-4.048,1.437-5.551-0.111c-1.5-1.547-1.449-4.006,0.112-5.492l38.168-36.249c1.565-1.486,4.05-1.437,5.552,0.111
		c1.503,1.548,1.452,4.007-0.113,5.493L185.46,124.868z"/>
</g>
<path id="Shape_1_" fill="#F74F9E" d="M256.699,414.587c-0.527,0.733-1.17,1.378-1.905,1.905c-3.753,2.696-8.986,1.845-11.686-1.905
	l0,0c-44.156-61.307-66.233-104.673-66.233-130.097c0-40.043,32.697-72.505,73.029-72.505c40.333,0,73.03,32.462,73.03,72.505
	C322.934,309.914,300.855,353.28,256.699,414.587z M248.903,318.027c18.785,0,34.014-14.779,34.014-33.014
	c0-18.233-15.229-33.014-34.014-33.014s-34.014,14.779-34.014,33.014C214.89,303.248,230.118,318.027,248.903,318.027z"/>
<g id="Atoms_x2F_Icons_x2F_Promo_1_" transform="translate(87.000000, 29.000000)">
	<path id="Shape_4_" fill="#FFFFFF" d="M115.487,119.024l-14.058,13.501c-2.127,0.016-4.229,0.82-5.83,2.421
		c-3.296,3.296-3.217,8.719,0.177,12.114c3.395,3.394,8.819,3.474,12.114,0.177c2.02-2.02,2.772-4.839,2.271-7.5l13.282-12.757
		l3.15,3.15c0.363,0.361,0.559,0.857,0.544,1.368l-0.847,29.4c-0.014,0.475-0.209,0.925-0.544,1.261l-45.909,45.909
		c-0.726,0.726-1.903,0.726-2.63,0l-42.44-42.441c-0.727-0.727-0.727-1.904,0-2.63l45.909-45.909
		c0.335-0.335,0.787-0.53,1.261-0.543l29.399-0.848c0.511-0.015,1.006,0.182,1.368,0.544L115.487,119.024z M103.687,142.059
		c-1.121,1.076-2.9,1.04-3.976-0.081c-1.076-1.122-1.04-2.902,0.081-3.978l27.34-26.26c1.121-1.075,2.9-1.039,3.976,0.083
		c1.076,1.121,1.04,2.901-0.081,3.977L103.687,142.059z"/>
</g>
<g id="Atoms_x2F_Icons_x2F_Promo_4_" transform="translate(191.000000, 86.328975)">
	<path id="Shape_7_" fill="#FFFFFF" d="M194.538,173.948l-9.793,9.406c-1.481,0.012-2.945,0.572-4.06,1.688
		c-2.297,2.296-2.242,6.072,0.121,8.438c2.364,2.364,6.144,2.418,8.441,0.125c1.406-1.408,1.93-3.373,1.58-5.226l9.251-8.886
		l2.024,2.021c0.359,0.361,0.558,0.857,0.543,1.367l-0.578,20.01c-0.014,0.478-0.207,0.926-0.543,1.262l-31.422,31.425
		c-0.729,0.727-1.903,0.727-2.631,0l-28.764-28.765c-0.725-0.726-0.725-1.902,0-2.63l31.422-31.421
		c0.336-0.336,0.788-0.531,1.262-0.545l20.012-0.576c0.513-0.017,1.007,0.18,1.367,0.542L194.538,173.948z M186.316,189.996
		c-0.78,0.75-2.021,0.725-2.771-0.058c-0.748-0.781-0.724-2.021,0.058-2.771l19.045-18.292c0.778-0.751,2.021-0.725,2.767,0.059
		c0.751,0.778,0.725,2.021-0.055,2.771L186.316,189.996z"/>
</g>
<g id="Atoms_x2F_Icons_x2F_Promo_5_" transform="translate(187.000000, 58.000000)">
	<path id="Shape_8_" fill="#FFFFFF" d="M173.859,143.96l-6.937,6.663c-1.05,0.008-2.085,0.405-2.875,1.194
		c-1.627,1.626-1.588,4.302,0.087,5.977c1.676,1.674,4.35,1.713,5.977,0.088c0.998-0.998,1.367-2.389,1.119-3.702l6.555-6.294
		l1.268,1.268c0.362,0.362,0.561,0.857,0.547,1.369l-0.398,13.724c-0.012,0.475-0.208,0.926-0.544,1.262l-21.722,21.722
		c-0.726,0.726-1.903,0.726-2.629,0L134.7,167.625c-0.726-0.726-0.726-1.903,0-2.63l21.722-21.721
		c0.336-0.335,0.788-0.53,1.264-0.543l13.725-0.397c0.511-0.016,1.006,0.182,1.367,0.543L173.859,143.96z M168.035,155.325
		c-0.551,0.532-1.43,0.514-1.962-0.04c-0.529-0.553-0.513-1.431,0.041-1.962l13.487-12.957c0.554-0.531,1.432-0.513,1.961,0.04
		c0.532,0.553,0.514,1.433-0.039,1.963L168.035,155.325z"/>
</g>
<g id="Atoms_x2F_Icons_x2F_Promo_6_" transform="translate(89.000000, 86.000000)">
	<path id="Shape_9_" fill="#FFFFFF" d="M75.782,171.982l-6.936,6.662c-1.049,0.008-2.086,0.403-2.875,1.192
		c-1.627,1.626-1.588,4.304,0.086,5.978c1.674,1.676,4.351,1.713,5.977,0.09c0.997-0.997,1.368-2.389,1.121-3.701l6.552-6.296
		l1.269,1.269c0.362,0.36,0.559,0.857,0.544,1.369l-0.396,13.725c-0.014,0.474-0.208,0.924-0.544,1.26l-21.721,21.723
		c-0.727,0.727-1.903,0.727-2.629,0l-19.606-19.605c-0.726-0.727-0.726-1.901,0-2.629l21.723-21.723
		c0.335-0.334,0.787-0.529,1.26-0.543l13.725-0.396c0.511-0.016,1.006,0.183,1.368,0.543L75.782,171.982z M69.958,183.348
		c-0.553,0.532-1.431,0.514-1.961-0.039c-0.531-0.555-0.512-1.432,0.04-1.964l13.489-12.956c0.552-0.531,1.43-0.512,1.961,0.039
		c0.531,0.555,0.513,1.436-0.04,1.965L69.958,183.348z"/>
</g>
</svg>
