<?xml version="1.0" encoding="utf-8"?>
<!-- Generator: Adobe Illustrator 16.0.0, SVG Export Plug-In . SVG Version: 6.00 Build 0)  -->
<!DOCTYPE svg PUBLIC "-//W3C//DTD SVG 1.1//EN" "http://www.w3.org/Graphics/SVG/1.1/DTD/svg11.dtd">
<svg version="1.1" id="Layer_1" xmlns="http://www.w3.org/2000/svg" xmlns:xlink="http://www.w3.org/1999/xlink" x="0px" y="0px"
	 width="144px" height="144px" viewBox="0 0 144 144" style="enable-background:new 0 0 144 144;" xml:space="preserve">
<style type="text/css">
<![CDATA[
	.st0{fill:#ECC33D;}
	.st1{fill:#F15D3B;}
	.st2{fill:#F39565;}
	.st3{fill:#FFFFFF;stroke:#FFFFFF;stroke-width:0.5;stroke-miterlimit:10;}
	.st4{fill:#D1D3D4;}
]]>
</style>
<path class="st0" d="M68.334,61.13c0,4.562-3.633,8.261-8.119,8.261H13.001c-4.484,0-8.119-3.699-8.119-8.261V9.772
	c0-4.562,3.635-8.261,8.119-8.261h47.215c4.485,0,8.119,3.699,8.119,8.261V61.13z"/>
<path class="st4" d="M68.334,134.226c0,4.563-3.635,8.263-8.117,8.263H13.001c-4.484,0-8.119-3.699-8.119-8.263V82.871
	c0-4.563,3.635-8.264,8.119-8.264h47.216c4.482,0,8.117,3.7,8.117,8.264V134.226z"/>
<path class="st2" d="M139.118,134.226c0,4.563-3.635,8.263-8.117,8.263H83.783c-4.482,0-8.118-3.699-8.118-8.263V82.869
	c0-4.562,3.636-8.262,8.118-8.262h47.218c4.482,0,8.117,3.7,8.117,8.262V134.226z"/>
<path class="st1" d="M139.118,61.129c0,4.563-3.635,8.262-8.117,8.262H83.783c-4.482,0-8.118-3.699-8.118-8.262V9.772
	c0-4.562,3.636-8.261,8.118-8.261h47.218c4.482,0,8.117,3.699,8.117,8.261V61.129z"/>
<g>
	<path class="st3" d="M10.974,42.655v-1.411l1.803-1.75c4.336-4.128,6.322-6.322,6.322-8.882c0-1.725-0.81-3.318-3.344-3.318
		c-1.542,0-2.821,0.784-3.605,1.437l-0.731-1.62c1.149-0.966,2.848-1.724,4.807-1.724c3.631,0,5.172,2.508,5.172,4.937
		c0,3.135-2.273,5.668-5.852,9.117l-1.333,1.254v0.053h7.602v1.907H10.974z"/>
	<path class="st3" d="M29.786,42.942c-3.318,0-5.59-3.109-5.643-8.726c0-5.721,2.482-8.829,5.93-8.829
		c3.553,0,5.616,3.187,5.616,8.594c0,5.773-2.168,8.96-5.878,8.96H29.786z M29.89,41.166c2.325,0,3.448-2.743,3.448-7.08
		c0-4.18-1.045-6.922-3.448-6.922c-2.09,0-3.448,2.664-3.448,6.922c-0.052,4.415,1.306,7.08,3.422,7.08H29.89z"/>
	<path class="st3" d="M44.888,42.655v-4.624h-7.889v-1.489l7.575-10.867h2.482v10.58h2.377v1.776h-2.377v4.624H44.888z
		 M44.888,36.255V30.56c0-0.888,0.026-1.776,0.079-2.664h-0.079c-0.522,0.992-0.94,1.724-1.41,2.534l-4.154,5.773v0.053H44.888z"/>
	<path class="st3" d="M56.882,25.388c3.291,0,4.963,2.037,4.963,4.18c0,1.437-0.731,3.004-2.821,3.971v0.078
		c2.116,0.836,3.422,2.351,3.422,4.389c0,2.978-2.534,4.938-5.773,4.938c-3.553,0-5.695-2.09-5.695-4.572
		c0-2.142,1.28-3.683,3.344-4.572v-0.078c-1.907-0.888-2.717-2.351-2.717-3.814c0-2.691,2.273-4.519,5.251-4.519H56.882z
		 M56.751,41.271c2.063,0,3.396-1.28,3.396-3.03c0-2.038-1.437-3.057-3.736-3.71c-1.985,0.575-3.056,1.907-3.056,3.527
		c-0.079,1.698,1.228,3.213,3.37,3.213H56.751z M56.803,27.033c-1.907,0-2.952,1.254-2.952,2.717
		c-0.026,1.698,1.28,2.612,3.239,3.135c1.463-0.496,2.586-1.541,2.586-3.083c0-1.358-0.81-2.769-2.848-2.769H56.803z"/>
</g>
<g>
	<path class="st3" d="M104.188,25.205c-0.594-0.033-1.353,0.033-2.178,0.165c-4.588,0.726-6.964,4.06-7.459,7.624h0.065
		c1.023-1.386,2.839-2.508,5.215-2.508c3.796,0,6.47,2.772,6.47,6.931c0,3.96-2.674,7.591-7.162,7.591
		c-4.555,0-7.559-3.565-7.559-9.143c0-4.225,1.485-7.558,3.631-9.704c1.782-1.749,4.158-2.838,6.865-3.168
		c0.857-0.132,1.584-0.165,2.111-0.165V25.205z M99.205,42.764c2.476,0,4.159-2.079,4.159-5.148c0-3.07-1.75-4.918-4.423-4.918
		c-1.749,0-3.399,1.056-4.191,2.641c-0.165,0.33-0.298,0.726-0.298,1.254c0.033,3.532,1.684,6.172,4.72,6.172H99.205z"/>
	<path class="st3" d="M117.854,44.645v-5.842h-9.968v-1.881l9.571-13.73h3.136v13.367h3.003v2.244h-3.003v5.842H117.854z
		 M117.854,36.559v-7.195c0-1.122,0.032-2.244,0.099-3.366h-0.099c-0.66,1.254-1.188,2.178-1.782,3.201l-5.248,7.294v0.066H117.854z
		"/>
</g>
<g>
	<path class="st3" d="M37.364,118.934v-5.842h-9.967v-1.881l9.571-13.73h3.135v13.367h3.004v2.244h-3.004v5.842H37.364z
		 M37.364,110.848v-7.195c0-1.122,0.033-2.244,0.099-3.366h-0.099c-0.66,1.254-1.188,2.178-1.782,3.201l-5.248,7.294v0.066H37.364z"
		/>
</g>
<g>
	<path class="st3" d="M98.248,100.188h-0.066l-3.729,2.014l-0.561-2.211l4.687-2.509h2.476v21.453h-2.806V100.188z"/>
	<path class="st3" d="M121.12,99.496c-0.594-0.033-1.353,0.032-2.178,0.165c-4.588,0.726-6.964,4.06-7.459,7.624h0.065
		c1.023-1.387,2.839-2.509,5.215-2.509c3.796,0,6.47,2.772,6.47,6.931c0,3.961-2.674,7.592-7.162,7.592
		c-4.555,0-7.559-3.564-7.559-9.143c0-4.225,1.485-7.558,3.631-9.703c1.782-1.749,4.158-2.839,6.865-3.169
		c0.857-0.132,1.584-0.165,2.111-0.165V99.496z M116.137,117.055c2.476,0,4.159-2.08,4.159-5.149s-1.75-4.917-4.423-4.917
		c-1.749,0-3.399,1.056-4.191,2.64c-0.165,0.33-0.298,0.727-0.298,1.255c0.033,3.531,1.684,6.172,4.72,6.172H116.137z"/>
</g>
</svg>
