<?xml version="1.0" encoding="utf-8"?>
<!-- Generator: Adobe Illustrator 16.0.0, SVG Export Plug-In . SVG Version: 6.00 Build 0)  -->
<!DOCTYPE svg PUBLIC "-//W3C//DTD SVG 1.1//EN" "http://www.w3.org/Graphics/SVG/1.1/DTD/svg11.dtd">
<svg version="1.1" xmlns="http://www.w3.org/2000/svg" xmlns:xlink="http://www.w3.org/1999/xlink" x="0px" y="0px" width="144px"
	 height="144px" viewBox="0 0 144 144" style="enable-background:new 0 0 144 144;" xml:space="preserve">
<style type="text/css">
<![CDATA[
	.st0{fill-rule:evenodd;clip-rule:evenodd;fill:#A7A9AC;}
	.st1{fill:#808285;}
	.st2{fill-rule:evenodd;clip-rule:evenodd;fill:#414042;}
	.st3{fill:#BCBEC0;}
	.st4{fill:#BE1E2D;}
	.st5{fill:#F1F2F2;}
	.st6{fill:#27AAE1;}
	.st7{fill:#F7941E;}
	.st8{fill:#939598;}
	.st9{fill-rule:evenodd;clip-rule:evenodd;fill:#BCBEC0;}
	.st10{fill-rule:evenodd;clip-rule:evenodd;}
	.st11{fill:#FEBD1F;}
	.st12{fill:#FFDE17;}
	.st13{fill-rule:evenodd;clip-rule:evenodd;fill:#939598;}
	.st14{fill:#00AEEF;}
	.st15{fill:#D1D3D4;}
	.st16{fill:#A7A9AC;}
	.st17{fill-rule:evenodd;clip-rule:evenodd;fill:#6D6E71;}
	.st18{fill:#44C8F5;}
]]>
</style>
<g id="ship">
	<g id="XMLID_3_">
		<g>
			<path class="st1" d="M120.593,29.79l1.011,0.876L120.593,29.79z"/>
			<polygon class="st4" points="112.602,20.352 111.813,21.167 111.277,21.182 110.774,20.694 108.388,18.364 107.308,19.479 
				105.699,17.897 104.723,18.904 103.212,17.428 101.767,18.914 101.818,22.927 100.207,24.592 100.333,33.721 100.908,34.282 
				99.719,35.594 98.979,34.922 98.236,34.205 98.067,22.581 100.125,20.459 100.051,15.343 101.901,13.449 103.821,15.332 
				105.058,14.05 107.119,16.056 108.48,14.643 111.525,17.617 112.161,18.229 111.319,19.104 			"/>
			<polygon class="st4" points="120.265,43.035 108.687,43.859 107.914,43.2 105.779,45.494 92.929,50.537 96.857,37.237 
				98.979,34.922 99.719,35.594 99.254,36.107 96.17,46.547 106.265,42.592 107.933,40.789 108.539,41.314 117.63,40.667 
				119.156,38.918 123.142,38.635 124.514,37.064 122.908,35.672 123.815,34.615 122.114,33.141 123.126,31.986 122.614,31.543 
				121.604,30.667 120.593,29.79 120.259,29.49 120.497,29.228 121.239,28.372 122.583,29.537 123.378,28.632 124.032,29.199 
				127.254,31.994 125.976,33.468 128.14,35.344 126.975,36.677 129.02,38.45 127.287,40.448 122.203,40.81 			"/>
			<polygon class="st15" points="112.495,13.843 112.506,13.832 113.272,14.569 112.244,15.635 113.802,17.153 112.847,18.147 
				112.161,18.229 111.525,17.617 108.48,14.643 107.119,16.056 105.058,14.05 103.821,15.332 101.901,13.449 100.051,15.343 
				100.125,20.459 98.067,22.581 98.236,34.205 97.204,34.903 96.305,34.03 96.1,19.864 98.604,17.287 98.519,11.057 100.764,8.744 
				103.114,11.042 104.621,9.484 107.126,11.927 108.789,10.203 109.556,10.951 109.534,10.964 			"/>
			<polygon class="st16" points="111.967,24.436 113.317,23.034 114.154,23.822 117.106,26.58 118.063,27.471 116.794,28.923 
				117.817,29.82 118.404,29.143 119.463,30.061 120.082,29.347 120.259,29.49 120.593,29.79 121.604,30.667 122.614,31.543 
				123.126,31.986 122.114,33.141 123.815,34.615 122.908,35.672 124.514,37.064 123.142,38.635 119.156,38.918 117.63,40.667 
				108.539,41.314 107.933,40.789 106.265,42.592 96.17,46.547 99.254,36.107 99.719,35.594 100.908,34.282 100.333,33.721 
				100.207,24.592 101.818,22.927 101.767,18.914 103.212,17.428 104.723,18.904 105.699,17.897 107.308,19.479 108.388,18.364 
				110.774,20.694 111.277,21.182 110.612,21.866 111.619,22.843 110.996,23.489 			"/>
			<polygon class="st11" points="135.141,21.792 131.659,31.334 130.862,30.643 133.178,24.309 127.734,27.92 126.938,27.241 
				126.938,27.229 			"/>
			<polygon class="st12" points="133.178,24.309 130.862,30.643 127.735,27.932 127.734,27.92 			"/>
			<polygon class="st15" points="123.378,28.632 122.583,29.537 121.239,28.372 120.497,29.228 119.2,28.093 120.809,26.238 
				119.602,25.108 115.837,21.594 114.762,20.599 113.047,22.373 111.813,21.167 112.602,20.352 111.319,19.104 112.161,18.229 
				112.847,18.147 114.346,19.614 116.435,17.457 122.326,22.95 123.797,24.33 121.838,26.589 123.42,27.971 124.327,26.925 
				125.969,28.348 126.938,27.241 127.734,27.92 127.735,27.932 127.724,27.933 130.863,30.654 130.862,30.643 131.659,31.334 
				130.091,33.13 132.73,35.419 131.318,37.048 133.804,39.203 131.69,41.641 125.496,42.082 123.134,44.794 109.036,45.798 
				108.097,44.983 105.496,47.791 89.845,53.925 94.627,37.731 97.204,34.903 98.236,34.205 98.979,34.922 96.857,37.237 
				92.929,50.537 105.779,45.494 107.914,43.2 108.687,43.859 120.265,43.035 122.203,40.81 127.287,40.448 129.02,38.45 
				126.975,36.677 128.14,35.344 125.976,33.468 127.254,31.994 124.032,29.199 			"/>
			<polygon class="st15" points="130.862,30.643 130.863,30.654 127.724,27.933 127.735,27.932 			"/>
			<path class="st11" d="M122.326,22.95l-5.892-5.494l10.885-4.446l-3.522,11.319L122.326,22.95z M122.325,22.939l2.188-7.04
				l-6.765,2.769L122.325,22.939z"/>
			<polygon class="st12" points="124.513,15.899 122.325,22.939 117.748,18.668 			"/>
			<polygon class="st11" points="117.989,5.921 113.272,14.569 112.506,13.832 112.505,13.82 115.614,8.132 109.556,10.951 
				108.789,10.203 			"/>
			<polygon class="st12" points="115.614,8.132 112.505,13.82 109.556,10.951 			"/>
			<polygon class="st12" points="112.505,13.82 112.506,13.832 112.495,13.843 109.534,10.964 109.556,10.951 			"/>
		</g>
		<g>
		</g>
	</g>
	
		<ellipse transform="matrix(-0.7319 -0.6814 0.6814 -0.7319 148.8122 139.9629)" class="st4" cx="101.939" cy="40.707" rx="3.611" ry="10.441"/>
	
		<ellipse transform="matrix(-0.7318 -0.6815 0.6815 -0.7318 149.3476 139.8033)" class="st6" cx="102.181" cy="40.516" rx="2.79" ry="8.068"/>
	<g id="XMLID_1_">
		<g>
			<polygon class="st3" points="99.799,19.848 108.217,10.808 112.811,15.085 104.392,24.125 103.609,23.397 110.959,15.506 
				107.929,12.668 100.572,20.568 			"/>
			<polygon class="st16" points="100.572,20.568 107.929,12.668 110.959,15.506 103.609,23.397 			"/>
			
				<rect x="100.64" y="20.539" transform="matrix(-0.6816 0.7317 -0.7317 -0.6816 187.2355 -36.2431)" class="st16" width="1.725" height="4.151"/>
			<polygon class="st8" points="107.519,27.038 115.938,17.998 123.3,24.854 114.881,33.894 113.497,32.604 121.028,24.518 
				116.435,20.24 108.903,28.327 			"/>
			
				<rect x="109.44" y="23.284" transform="matrix(-0.6815 0.7318 -0.7318 -0.6815 212.653 -39.7024)" class="st3" width="11.051" height="6.277"/>
			
				<rect x="110.105" y="27.804" transform="matrix(-0.6817 0.7316 -0.7316 -0.6817 208.8997 -28.9934)" class="st3" width="1.302" height="6.277"/>
			<polygon class="st4" points="89.838,53.927 91.238,49.255 94.357,52.16 			"/>
			<polygon class="st3" points="118.167,36.62 126.578,27.588 131.18,31.873 122.769,40.905 121.986,40.177 129.336,32.285 
				126.298,29.456 118.949,37.348 			"/>
			
				<rect x="118.751" y="32.741" transform="matrix(-0.6815 0.7318 -0.7318 -0.6815 234.2234 -32.3087)" class="st16" width="10.783" height="4.151"/>
			
				<rect x="119.017" y="37.318" transform="matrix(-0.6815 0.7318 -0.7318 -0.6815 230.4045 -21.4944)" class="st16" width="1.725" height="4.151"/>
		</g>
		<g>
		</g>
	</g>
</g>
<g id="asteroid">
	<path class="st10" d="M20.963,98.051c0.003-0.089,0.007-0.178,0.01-0.266c-1.21-0.055-2.46-0.329-3.623-0.121
		c-3.516,0.633-6.485,2.318-8.788,5.104c-0.982,1.19-1.753,2.477-2.176,3.973c-0.179,0.636-0.472,1.239-0.717,1.855
		c-0.349,0.875-0.753,1.729-1.037,2.624c-0.33,1.038,0.02,2,0.55,2.897c0.364,0.616,1.036,0.367,1.563,0.526
		c0.11,0.033,0.223,0.063,0.327,0.108c0.542,0.245,0.667,0.667,0.348,1.174c-0.447,0.711-1.021,1.25-2.045,1.354
		c0.348,1.382,0.6,2.725,1.028,4.007c0.59,1.771,1.58,3.226,3.382,4.076c0.65,0.309,1.236,0.987,1.591,1.638
		c1.238,2.269,2.855,3.885,5.628,3.916c1.564,0.019,3.08,0.252,4.446,1.111c0.3,0.189,0.688,0.301,1.044,0.326
		c3.972,0.289,7.669-0.534,10.94-2.878c1.079-0.771,1.896-1.789,2.138-3.052c-0.476,0.339-0.942,0.85-1.51,1.02
		c-0.529,0.16-0.836,0.381-1.045,0.851c-0.228,0.51-0.618,0.709-1.197,0.773c-0.603,0.067-1.192,0.324-1.768,0.548
		c-0.451,0.175-0.868,0.434-1.308,0.639c-0.377,0.179-0.849,0.295-0.998-0.19c-0.1-0.325,0.016-0.81,0.209-1.11
		c0.224-0.347,0.65-0.322,0.967-0.013c0.379,0.371,0.797,0.362,1.204,0.111c0.658-0.404,1.301-0.81,2.127-0.664
		c0.059,0.012,0.175-0.02,0.186-0.053c0.299-0.998,1.104-1.325,2.004-1.533c0.036-0.009,0.058-0.071,0.092-0.1
		c0.816-0.716,1.612-1.456,2.455-2.138c1.313-1.062,2.441-2.237,2.95-3.908c0.362-1.189,0.774-2.365,1.188-3.539
		c0.407-1.153,0.608-2.318,0.392-3.54c-0.312-1.751-0.718-3.488-0.326-5.294c0.171-0.785,0.268-1.608,0.254-2.41
		c-0.037-2.352-0.612-4.329-3.469-5.323c-0.562-0.196-0.959-0.184-1.171,0.488c-0.116,0.367-0.34,0.708-0.565,1.03
		c-0.49,0.701-1.102,1.153-2.045,1.013c-0.344-0.05-0.759,0.022-1.068,0.182c-0.531,0.273-1.05,0.283-1.526,0.019
		c-0.587-0.328-1.115-0.762-1.772-1.224c-0.2,0.216-0.491,0.567-0.819,0.878c-0.414,0.392-0.867,0.739-1.284,1.128
		c-0.191,0.178-0.412,0.382-0.485,0.614c-0.185,0.589-0.474,1.099-1.08,1.25c-0.271,0.067-0.613-0.157-0.922-0.247
		c0.08-0.233,0.088-0.569,0.251-0.686c0.747-0.529,1.547-0.983,2.306-1.497c0.322-0.217,0.606-0.498,0.879-0.779
		c0.3-0.31,0.515-0.738,0.866-0.951c0.317-0.192,0.387-0.373,0.404-0.697c0.045-0.822,0.4-1.324,1.148-1.435
		c1.048-0.156,1.395-1.136,2.268-1.58c-1.29-1.453-2.67-2.371-4.54-2.457c-2.608-0.122-4.763,1.105-6.956,2.238
		c-0.466,0.24-0.399,0.585-0.195,0.998c0.098,0.197,0.138,0.549,0.026,0.702c-1.219,1.685-2.47,3.344-3.718,5.006
		c-0.134,0.178-0.292,0.449-0.463,0.466c-1.264,0.138-1.975,1.009-2.698,1.899c-0.151,0.187-0.416,0.309-0.652,0.388
		c-0.62,0.208-1.263,0.353-1.879,0.571c-0.348,0.123-0.663,0.339-0.993,0.513c-0.045-0.052-0.092-0.106-0.137-0.159
		c0.122-0.171,0.208-0.417,0.374-0.5c0.6-0.296,0.82-0.826,1.032-1.402c0.338-0.924,0.858-1.713,1.896-1.949
		c0.956-0.217,1.648-0.801,2.275-1.502c0.339-0.38,0.673-0.764,1.035-1.122c0.555-0.545,1.204-0.842,1.916-0.641
		c0.608-0.669,1.177-1.292,1.693-1.859C21.23,98.817,21.096,98.434,20.963,98.051z M36.337,100.536
		c0.046-0.51-0.295-0.555-0.625-0.441c-0.573,0.196-0.928-0.065-1.255-0.465c-0.116-0.143-0.246-0.28-0.337-0.438
		c-0.363-0.623-0.815-0.614-1.276-0.151c-0.501,0.506-1.042,0.881-1.744,1.098c-0.617,0.19-0.785,0.772-0.757,1.413
		c0.026,0.601,0.365,0.844,0.892,0.955c0.178,0.038,0.345,0.127,0.519,0.19c0.512,0.187,1.006,0.456,1.519-0.067
		c0.134-0.135,0.488-0.113,0.728-0.076C35.122,102.729,36.357,101.675,36.337,100.536z M12.852,106.969
		c0.351-0.037,0.667-0.106,0.98-0.093c0.388,0.017,0.623-0.099,0.824-0.456c0.537-0.956,1.396-1.499,2.438-1.799
		c0.205-0.059,0.403-0.237,0.539-0.412c0.321-0.413,0.599-0.86,0.903-1.287c0.296-0.414,0.604-0.818,0.963-1.304
		c-0.885-0.066-1.215,0.039-1.608,0.696c-0.622,1.043-1.532,1.689-2.603,2.184c-0.542,0.249-1.075,0.539-1.558,0.887
		C13.223,105.749,12.84,106.236,12.852,106.969z M7.108,115.212c-0.404-0.036-0.795-0.068-1.144-0.1
		c-0.1,0.535-0.187,0.996-0.273,1.457C6.514,116.576,6.803,116.308,7.108,115.212z M26.458,104.701
		c-0.299,0.212-0.599,0.424-0.898,0.637C26.202,105.604,26.548,105.452,26.458,104.701z"/>
	<g id="XMLID_4_">
		<g>
			<path class="st16" d="M41.523,113.582c0.211,1.214,0.011,2.382-0.4,3.539c-0.412,1.169-0.824,2.349-1.18,3.539
				c-0.512,1.669-1.647,2.849-2.949,3.906c-0.846,0.679-1.647,1.425-2.459,2.137c-0.033,0.033-0.056,0.089-0.089,0.101
				c-0.901,0.211-1.714,0.534-2.003,1.535c-0.011,0.033-0.133,0.067-0.189,0.056c-0.824-0.145-1.469,0.256-2.125,0.657
				c-0.412,0.256-0.824,0.267-1.202-0.111c-0.323-0.313-0.746-0.334-0.968,0.011c-0.2,0.301-0.312,0.79-0.211,1.113
				c0.145,0.489,0.624,0.367,1.002,0.188c0.434-0.2,0.856-0.456,1.302-0.634c0.579-0.223,1.168-0.479,1.77-0.546
				c0.579-0.066,0.968-0.267,1.191-0.778c0.211-0.468,0.523-0.69,1.046-0.846c0.568-0.179,1.035-0.69,1.514-1.024
				c-0.245,1.269-1.057,2.281-2.137,3.05c-3.272,2.348-6.967,3.171-10.939,2.882c-0.356-0.022-0.746-0.134-1.046-0.322
				c-1.369-0.868-2.882-1.103-4.451-1.113c-2.771-0.033-4.385-1.647-5.62-3.917c-0.356-0.657-0.946-1.336-1.591-1.636
				c-1.803-0.857-2.793-2.315-3.383-4.085c-0.434-1.279-0.679-2.615-1.024-4.006c1.024-0.101,1.591-0.635,2.037-1.347
				c0.323-0.512,0.2-0.935-0.345-1.18c-0.1-0.045-0.211-0.078-0.323-0.111c-0.534-0.156-1.202,0.101-1.569-0.523
				c-0.523-0.89-0.879-1.858-0.545-2.894c0.278-0.901,0.69-1.747,1.035-2.626c0.245-0.612,0.534-1.225,0.723-1.858
				c0.423-1.491,1.191-2.782,2.17-3.973c2.303-2.782,5.275-4.474,8.792-5.098c1.157-0.211,2.415,0.067,3.617,0.111
				c0,0.089,0,0.179-0.011,0.268c0.134,0.39,0.267,0.768,0.423,1.202c-0.512,0.567-1.09,1.19-1.691,1.858
				c-0.712-0.2-1.357,0.1-1.914,0.646c-0.367,0.355-0.701,0.734-1.035,1.112c-0.634,0.701-1.324,1.291-2.281,1.503
				c-1.035,0.244-1.558,1.023-1.892,1.947c-0.211,0.578-0.434,1.112-1.035,1.402c-0.167,0.089-0.256,0.334-0.378,0.501
				c0.056,0.056,0.1,0.111,0.145,0.167c0.323-0.179,0.646-0.39,0.991-0.513c0.612-0.223,1.257-0.367,1.88-0.578
				c0.234-0.078,0.501-0.2,0.646-0.39c0.724-0.891,1.436-1.759,2.705-1.892c0.167-0.022,0.334-0.29,0.467-0.468
				c1.247-1.658,2.493-3.327,3.717-5.008c0.111-0.156,0.067-0.501-0.033-0.701c-0.2-0.412-0.267-0.757,0.2-1.002
				c2.192-1.124,4.34-2.359,6.956-2.236c1.87,0.089,3.25,1.001,4.541,2.459c-0.879,0.445-1.224,1.425-2.27,1.58
				c-0.746,0.111-1.102,0.612-1.146,1.436c-0.022,0.323-0.089,0.501-0.412,0.69c-0.345,0.223-0.557,0.646-0.857,0.957
				c-0.278,0.278-0.557,0.567-0.879,0.779c-0.768,0.512-1.558,0.968-2.314,1.502c-0.156,0.111-0.167,0.445-0.245,0.679
				c0.312,0.089,0.646,0.312,0.924,0.245c0.601-0.145,0.89-0.656,1.08-1.246c0.066-0.234,0.289-0.435,0.479-0.612
				c0.423-0.39,0.879-0.734,1.291-1.135c0.322-0.301,0.612-0.657,0.812-0.868c0.657,0.456,1.191,0.89,1.781,1.224
				c0.467,0.256,0.99,0.245,1.524-0.022c0.301-0.155,0.724-0.233,1.068-0.178c0.935,0.134,1.547-0.312,2.037-1.013
				c0.234-0.322,0.457-0.668,0.568-1.035c0.211-0.667,0.612-0.689,1.168-0.489c2.86,0.99,3.438,2.972,3.472,5.319
				c0.011,0.813-0.078,1.625-0.256,2.415C40.8,110.088,41.211,111.824,41.523,113.582z M38.941,113.07
				c-0.134-0.378,0.044-0.979-0.701-0.945c-0.568,0.033-0.813,0.389-0.835,1.112c-0.022,0.635,0.39,0.712,0.846,0.746
				C38.919,114.027,38.875,113.516,38.941,113.07z M37.773,115.352c0.022-0.1-0.056-0.233-0.078-0.355
				c-0.523,1.18-1.135,2.17-2.281,2.692c-0.434,0.201-0.679,0.435-0.768,0.936c-0.145,0.801-0.634,1.157-1.48,1.157
				c-0.39,0.011-0.779-0.067-1.168-0.078c-0.891-0.022-1.781-0.022-2.671-0.056c-0.201-0.011-0.423-0.111-0.601-0.223
				c-0.668-0.434-1.436-0.245-1.97,0.501c-0.568,0.79-0.568,1.759,0.044,2.192c0.189,0.134,0.479,0.178,0.712,0.178
				c0.367,0,0.723-0.066,1.068-0.111c0.1,0.189,0.167,0.367,0.278,0.501c0.701,0.879,0.701,1.08-0.2,1.759
				c-0.312,0.233-0.757,0.312-1.135,0.467c-0.167,0.078-0.367,0.145-0.5,0.268c-0.434,0.367-0.846,0.768-1.269,1.157
				c-0.312,0.278-0.635,0.557-0.958,0.835c0.056,0.077,0.101,0.155,0.156,0.244c0.412-0.2,0.823-0.411,1.246-0.578
				c0.267-0.101,0.568-0.145,0.846-0.145c0.479-0.012,0.946,0.044,1.235-0.49c0.334-0.601,0.724-1.168,1.102-1.736
				c0.278-0.423,0.601-0.723,1.18-0.423c0.167,0.09,0.523,0.045,0.656-0.077c0.712-0.713,1.436-1.425,2.037-2.227
				c0.178-0.244-0.033-0.778-0.078-1.257c1.068-0.078,1.513-0.913,1.947-1.781c0.111-0.233,0.367-0.467,0.612-0.567
				C36.972,117.6,37.528,116.599,37.773,115.352z M37.395,103.867c0.056-0.145-0.045-0.345-0.078-0.512
				c-0.111,0.111-0.245,0.223-0.323,0.355c-0.512,0.957-2.226,1.759-3.261,1.514c-2.493-0.578-4.752,0.579-5.509,2.871
				c-0.2,0.602-0.49,1.035-0.968,1.514c-0.834,0.835-1.725,1.392-2.849,1.681c-0.512,0.134-0.913,0.456-0.857,1.102
				c0.768-0.39,1.469-0.846,2.237-1.113c0.49-0.167,0.89-0.277,1.191-0.756c0.233-0.356,0.667-0.59,1.013-0.88
				c-0.034,0.078-0.056,0.167-0.089,0.245c0.301,0.211,0.579,0.512,0.913,0.623c0.957,0.312,1.937,0.546,2.916,0.802
				c0.033,0.011,0.089,0.011,0.133,0c1.391-0.067,2.292-0.936,3.161-1.893c0.834-0.935,0.946-1.869,0.356-2.96
				c-0.389-0.69-0.267-1.013,0.534-1.102C36.882,105.247,37.149,104.602,37.395,103.867z M20.457,127.705
				c0.356,0.289,0.746,0.556,1.369-0.022c-0.979-0.278-1.436-1.313-2.604-1.024c-0.59,0.134-1.414-0.423-1.324-0.801
				c0.178-0.79-0.278-1.235-0.768-1.725c-0.278-0.268-0.634-0.668-0.623-0.991c0.033-0.79,0.256-1.58,0.412-2.359
				c0.022-0.089,0.167-0.155,0.267-0.211c1.247-0.768,2.014-1.959,2.793-3.139c0.078-0.122,0.033-0.501-0.011-0.501
				c-0.401-0.089-0.846-0.233-1.224-0.145c-0.412,0.09-0.557,0.479-0.378,0.946c0.189,0.545,0.078,1.079-0.334,1.48
				c-0.334,0.312-0.712,0.601-1.102,0.834c-0.401,0.245-0.646,0.457-0.534,1.024c0.133,0.712-0.301,0.901-0.991,0.679
				c-0.812-0.278-1.68-0.501-2.537-0.557c-0.834-0.056-1.269,0.445-1.414,1.291c-0.033,0.178-0.122,0.356-0.189,0.523
				c-0.557-0.523-1.08-0.979-1.558-1.48c-0.456-0.501-0.868-1.046-1.38-1.669c-0.167,0.778-0.134,1.335,0.579,1.735
				c0.457,0.256,1.013,0.49,1.013,1.191c-0.011,1.18,0.623,1.97,1.625,2.459c0.723,0.356,1.491,0.612,2.237,0.946
				c0.233,0.111,0.512,0.267,0.612,0.479c0.29,0.623,0.668,1.057,1.391,1.057c0.724,0.012,1.158-0.378,1.425-1.013
				c0-0.011,0.011-0.011,0.011-0.021c0.712,0.2,1.313,0.522,1.892,0.489C19.7,127.159,20.056,127.382,20.457,127.705z
				 M11.509,110.077c-0.233-0.602-0.066-1.258-0.779-1.258c-0.579-0.011-0.768,0.445-0.768,0.946
				c-0.011,0.534,0.457,1.079,0.857,0.945C11.108,110.622,11.309,110.277,11.509,110.077z M9.316,118.401
				c0.034-0.579-0.479-1.113-1.013-1.113c-0.545,0-0.623,0.367-0.601,0.746c0.011,0.734,0.345,1.18,0.868,1.18
				C9.116,119.214,9.294,118.857,9.316,118.401z"/>
			<path class="st16" d="M17.218,126.692C17.24,126.658,17.296,126.647,17.218,126.692L17.218,126.692z"/>
		</g>
		<g>
		</g>
	</g>
	<path class="st9" d="M36.337,100.534c0.02,1.141-1.216,2.194-2.338,2.019c-0.24-0.037-0.594-0.059-0.728,0.076
		c-0.513,0.523-1.007,0.254-1.519,0.067c-0.173-0.063-0.34-0.152-0.519-0.19c-0.526-0.111-0.866-0.354-0.892-0.955
		c-0.027-0.641,0.141-1.223,0.757-1.413c0.703-0.217,1.243-0.592,1.744-1.098c0.46-0.463,0.913-0.472,1.276,0.151
		c0.092,0.158,0.221,0.296,0.337,0.438c0.327,0.399,0.682,0.661,1.255,0.465C36.042,99.981,36.383,100.026,36.337,100.534z"/>
	<path class="st17" d="M12.852,106.969c-0.012-0.732,0.371-1.22,0.878-1.584c0.483-0.348,1.016-0.638,1.558-0.887
		c1.071-0.494,1.981-1.141,2.603-2.184c0.393-0.657,0.723-0.763,1.608-0.696c-0.359,0.485-0.667,0.89-0.963,1.304
		c-0.304,0.427-0.582,0.874-0.903,1.287c-0.136,0.175-0.334,0.354-0.539,0.412c-1.042,0.3-1.9,0.843-2.438,1.799
		c-0.201,0.357-0.436,0.473-0.824,0.456C13.52,106.862,13.203,106.932,12.852,106.969z"/>
	<path class="st2" d="M7.108,115.212c-0.306,1.096-0.595,1.364-1.417,1.357c0.087-0.461,0.173-0.922,0.273-1.457
		C6.313,115.144,6.704,115.176,7.108,115.212z"/>
	<path class="st9" d="M26.458,104.701c0.089,0.751-0.256,0.903-0.898,0.637C25.859,105.125,26.16,104.913,26.458,104.701z"/>
	<path class="st10" d="M8.327,119.858c0.512,0.623,0.92,1.174,1.386,1.673c0.47,0.503,0.995,0.952,1.552,1.479
		c0.062-0.171,0.152-0.346,0.186-0.53c0.152-0.838,0.584-1.342,1.42-1.285c0.855,0.059,1.717,0.278,2.534,0.55
		c0.686,0.229,1.129,0.044,0.993-0.671c-0.109-0.572,0.131-0.776,0.535-1.023c0.391-0.237,0.765-0.523,1.094-0.842
		c0.418-0.401,0.529-0.936,0.334-1.474c-0.172-0.473-0.024-0.854,0.386-0.951c0.378-0.09,0.82,0.057,1.224,0.145
		c0.04,0.008,0.084,0.382,0.004,0.504c-0.771,1.184-1.543,2.373-2.787,3.137c-0.097,0.062-0.246,0.126-0.264,0.21
		c-0.165,0.783-0.385,1.57-0.416,2.36c-0.013,0.327,0.346,0.721,0.623,0.996c0.491,0.486,0.951,0.927,0.763,1.726
		c-0.09,0.379,0.742,0.935,1.332,0.792c1.162-0.28,1.622,0.755,2.599,1.028c-0.623,0.579-1.015,0.312-1.371,0.02
		c-0.396-0.324-0.754-0.544-1.343-0.517c-0.583,0.026-1.18-0.292-1.888-0.492c0.085-0.058,0-0.032-0.02,0.019
		c-0.257,0.642-0.693,1.022-1.415,1.019c-0.733-0.006-1.106-0.44-1.396-1.055c-0.101-0.212-0.382-0.376-0.616-0.481
		c-0.735-0.334-1.504-0.597-2.23-0.949c-1.009-0.491-1.633-1.281-1.628-2.454c0.003-0.701-0.549-0.939-1.013-1.196
		C8.195,121.2,8.16,120.641,8.327,119.858z M16.167,127.169c0.24-0.429,0.383-0.798,0.623-1.087
		c0.692-0.831,0.662-0.982-0.248-1.646c-0.235-0.17-0.433-0.525-0.463-0.815c-0.098-0.942-0.56-1.595-1.498-1.724
		c-0.676-0.095-1.378-0.054-2.064-0.008c-0.461,0.03-0.837,0.926-0.595,1.311c0.392,0.616,0.732,1.275,1.193,1.836
		c0.298,0.362,0.774,0.579,1.167,0.867c0.216,0.157,0.503,0.288,0.619,0.504C15.195,126.962,15.58,127.267,16.167,127.169z
		 M10.424,123.679c0.588,0.49,1.093,0.91,1.597,1.33c0.086-0.061,0.171-0.119,0.256-0.178c-0.099-0.265-0.129-0.601-0.312-0.775
		C11.587,123.691,11.115,123.463,10.424,123.679z"/>
	<path class="st10" d="M37.692,115.001c0.03,0.119,0.105,0.246,0.084,0.356c-0.244,1.242-0.803,2.247-2.043,2.772
		c-0.244,0.104-0.492,0.338-0.611,0.575c-0.433,0.87-0.872,1.703-1.94,1.782c0.038,0.476,0.252,1.012,0.071,1.256
		c-0.597,0.801-1.322,1.513-2.035,2.221c-0.127,0.127-0.488,0.168-0.654,0.082c-0.581-0.304-0.903-0.005-1.185,0.419
		c-0.378,0.57-0.76,1.142-1.093,1.738c-0.294,0.529-0.757,0.478-1.238,0.487c-0.283,0.005-0.582,0.048-0.846,0.146
		c-0.428,0.162-0.834,0.383-1.249,0.578c-0.053-0.084-0.105-0.166-0.158-0.25c0.32-0.275,0.643-0.55,0.957-0.833
		c0.425-0.383,0.835-0.782,1.269-1.154c0.141-0.121,0.331-0.189,0.507-0.264c0.377-0.158,0.814-0.233,1.13-0.472
		c0.907-0.68,0.904-0.882,0.204-1.753c-0.111-0.139-0.176-0.315-0.279-0.505c-0.346,0.041-0.708,0.115-1.068,0.115
		c-0.24,0-0.523-0.048-0.711-0.181c-0.611-0.431-0.617-1.399-0.051-2.188c0.541-0.755,1.303-0.94,1.977-0.508
		c0.176,0.113,0.394,0.214,0.596,0.223c0.89,0.039,1.781,0.035,2.672,0.06c0.392,0.013,0.782,0.085,1.172,0.081
		c0.837-0.008,1.33-0.362,1.479-1.166c0.092-0.499,0.331-0.733,0.771-0.934C36.564,117.163,37.172,116.171,37.692,115.001z
		 M28.923,120.396c-0.316-0.62-0.767-0.842-1.379-0.542c-0.559,0.272-0.69,0.771-0.645,1.339c0.033,0.41,0.258,0.71,0.674,0.558
		c1.12-0.41,1.716,0.112,2.125,1.067c0.044,0.103,0.13,0.189,0.205,0.278c0.595,0.699,1.323,0.648,1.814-0.128
		c0.351-0.554,0.702-1.11,1.073-1.698C32.149,120.109,30.292,119.634,28.923,120.396z M27.099,126.193
		c0.566,0.008,0.848-0.224,0.988-0.735C27.494,125.391,27.076,125.437,27.099,126.193z"/>
	<path class="st10" d="M23.552,112.391c-0.057-0.645,0.341-0.969,0.854-1.099c1.128-0.286,2.016-0.85,2.856-1.688
		c0.474-0.473,0.763-0.902,0.961-1.504c0.759-2.293,3.021-3.46,5.506-2.88c1.041,0.244,2.753-0.553,3.269-1.509
		c0.074-0.137,0.209-0.241,0.315-0.36c0.032,0.175,0.135,0.372,0.085,0.52c-0.244,0.729-0.511,1.378-1.479,1.484
		c-0.808,0.09-0.924,0.413-0.543,1.106c0.597,1.087,0.49,2.024-0.347,2.953c-0.871,0.967-1.772,1.83-3.166,1.901
		c-0.045,0.001-0.095,0.007-0.137-0.005c-0.972-0.259-1.953-0.489-2.908-0.797c-0.336-0.11-0.61-0.412-0.913-0.624
		c0.028-0.084,0.057-0.166,0.086-0.248c-0.345,0.288-0.781,0.52-1.013,0.881c-0.305,0.475-0.706,0.585-1.192,0.753
		C25.018,111.543,24.315,111.998,23.552,112.391z M35.355,107.674c-0.174-0.413-0.263-0.896-0.535-1.229
		c-1.047-1.281-4.549-1.012-5.448,0.382c-0.014,0.021-0.025,0.04-0.035,0.061c-0.301,0.673-0.633,1.334-0.892,2.021
		c-0.228,0.606,0.025,1.04,0.67,1.061c0.795,0.024,1.452,0.334,2.148,0.657c0.383,0.176,0.981,0.217,1.345,0.039
		c0.651-0.318,1.206-0.841,1.787-1.295C34.93,108.955,35.287,108.436,35.355,107.674z"/>
	<path class="st10" d="M7.708,118.036c-0.028-0.382,0.048-0.743,0.6-0.748c0.534-0.003,1.047,0.535,1.015,1.112
		c-0.024,0.453-0.208,0.818-0.745,0.817C8.047,119.216,7.713,118.772,7.708,118.036z"/>
	<path class="st10" d="M38.94,113.068c-0.07,0.442-0.021,0.956-0.684,0.912c-0.455-0.03-0.874-0.105-0.851-0.738
		c0.027-0.733,0.271-1.08,0.841-1.112C38.99,112.087,38.812,112.688,38.94,113.068z"/>
	<path class="st10" d="M11.512,110.081c-0.199,0.193-0.402,0.544-0.689,0.636c-0.408,0.13-0.869-0.413-0.862-0.952
		c0.006-0.504,0.197-0.959,0.775-0.951C11.443,108.821,11.277,109.476,11.512,110.081z"/>
	<path class="st2" d="M16.167,127.169c-0.586,0.098-0.971-0.207-1.266-0.763c-0.116-0.216-0.403-0.347-0.619-0.504
		c-0.392-0.288-0.868-0.505-1.167-0.867c-0.461-0.561-0.802-1.22-1.193-1.836c-0.243-0.385,0.133-1.28,0.595-1.311
		c0.687-0.046,1.388-0.087,2.064,0.008c0.938,0.129,1.4,0.781,1.498,1.724c0.03,0.29,0.228,0.646,0.463,0.815
		c0.91,0.664,0.94,0.815,0.248,1.646C16.549,126.371,16.406,126.74,16.167,127.169z"/>
	<path class="st2" d="M10.424,123.679c0.691-0.216,1.164,0.013,1.541,0.377c0.183,0.175,0.213,0.511,0.312,0.775
		c-0.085,0.059-0.17,0.117-0.256,0.178C11.517,124.589,11.012,124.169,10.424,123.679z"/>
	<path class="st0" d="M28.923,120.396c1.369-0.763,3.226-0.287,3.867,0.874c-0.372,0.588-0.722,1.145-1.073,1.698
		c-0.491,0.776-1.219,0.827-1.814,0.128c-0.074-0.089-0.161-0.176-0.205-0.278c-0.409-0.955-1.006-1.478-2.125-1.067
		c-0.416,0.152-0.641-0.147-0.674-0.558c-0.046-0.567,0.085-1.066,0.645-1.339C28.157,119.555,28.607,119.776,28.923,120.396z"/>
	<path class="st13" d="M27.099,126.193c-0.022-0.757,0.396-0.803,0.988-0.735C27.946,125.97,27.665,126.201,27.099,126.193z"/>
	<path class="st17" d="M35.355,107.674c-0.069,0.762-0.425,1.281-0.958,1.697c-0.582,0.454-1.136,0.977-1.787,1.295
		c-0.364,0.178-0.961,0.137-1.345-0.039c-0.696-0.323-1.353-0.633-2.148-0.657c-0.645-0.021-0.898-0.454-0.67-1.061
		c0.259-0.688,0.591-1.349,0.892-2.021c0.009-0.021,0.021-0.04,0.035-0.061c0.899-1.394,4.401-1.663,5.448-0.382
		C35.092,106.778,35.182,107.261,35.355,107.674z"/>
</g>
<g id="explosion">
	<path class="st7" d="M31.519,100.886c2.387-0.239,6.764,1.531,7.423,4.076c0.246,0.951-0.749,2.492-0.018,3.315
		c0.784,0.882,3.211,1.237,3.833,0.426c0.671-0.874-0.123-3.001-0.121-4.01c0.002-1.092,0.273-1.87-0.023-2.979
		c-0.116-0.433-1.056-0.52-0.926-1.163c0.115-0.567,0.663-0.384,0.809-0.737c0.223-0.539,1.337,0.072,0.859-1.303
		c-0.208-0.599-1.306-0.785-1.792-0.964c-2.122-0.782-3.873-1.358-5.542-3.365c0.411,0.066,0.83-0.152,1.097-0.155
		c-0.588-0.918-3.686-2.178-4.617-1.177c-1.114,1.2,1.158,2.997,1.014,4.283c-0.134,1.191-2.113,2.004-2.184,3.566"/>
	<path class="st12" d="M40.979,104.967c2.421-1.804-1.192-4.355-1.915-6.075c-0.598-1.424,0.39-2.069-1.61-2.087
		c-3.734-0.033-0.721,2.271,0.213,3.261c1.283,1.36,1.682,3.505,3.125,4.715"/>
	<path class="st7" d="M43.798,106.896c-1.537,0.001-3.059-0.104-4.566-0.166c-0.228,0.984-0.591,1.663-0.962,2.573
		c-0.302,0.739-0.271,2.336-0.57,2.754c-0.788,1.098-1.362,0.169-1.692,1.928c-0.17,0.91-0.034,1.93,0.413,2.694
		c1.979,3.39,6.683,3.032,9.757,2.106c0.441,0.676,0.552,1.534,0.037,2.188c1.747,0.123,3.753,0.981,4.636-1.085
		c1.222-2.863-0.837-3.884-2.383-5.681c-1.099-1.278-1.091-2.888-2.067-4.208c-0.486-0.66-2.86-2.618-3.315-2.576
		c-0.038-0.143,0.032-0.414-0.029-0.528"/>
	<path class="st12" d="M41.202,111.904c0.521,1.069,2.146,0.933,2.228,1.819c0.029,0.314-0.958,1.262-1.134,1.561
		c0.865,0.075,1.825-0.216,2.698-0.333c0.128,0.893,0.739,1.805,1.744,1.563c0.149-1.009-1.151-3.632-1.641-4.423
		c-0.714-1.154-2.259-2.201-4.081-1.855"/>
</g>
<g id="missiles">
	<rect x="51.221" y="88.234" class="st14" width="2.89" height="2.891"/>
	<rect x="51.741" y="88.755" class="st18" width="1.85" height="1.85"/>
	<rect x="52.143" y="89.156" class="st5" width="1.047" height="1.047"/>
	<rect x="77.572" y="63.119" class="st14" width="2.889" height="2.89"/>
	<rect x="78.092" y="63.639" class="st18" width="1.85" height="1.85"/>
	<rect x="78.493" y="64.04" class="st5" width="1.046" height="1.048"/>
	<rect x="65.17" y="75.365" class="st14" width="2.89" height="2.892"/>
	<rect x="65.69" y="75.886" class="st18" width="1.85" height="1.851"/>
	<rect x="66.092" y="76.287" class="st5" width="1.046" height="1.048"/>
</g>
</svg>
