<?xml version="1.0" encoding="utf-8"?>
<!-- Generator: Adobe Illustrator 16.0.0, SVG Export Plug-In . SVG Version: 6.00 Build 0)  -->
<!DOCTYPE svg PUBLIC "-//W3C//DTD SVG 1.1//EN" "http://www.w3.org/Graphics/SVG/1.1/DTD/svg11.dtd">
<svg version="1.1" xmlns="http://www.w3.org/2000/svg" xmlns:xlink="http://www.w3.org/1999/xlink" x="0px" y="0px" width="144px"
	 height="144px" viewBox="0 0 144 144" style="enable-background:new 0 0 144 144;" xml:space="preserve">
<style type="text/css">
<![CDATA[
	.st0{fill:#E6E7E8;}
	.st1{fill:#8DC63F;}
	.st2{fill:#FFFFFF;}
]]>
</style>
<g id="paddles">
	<g>
		<rect x="9.833" y="15.491" class="st1" width="5.145" height="45.338"/>
		<path class="st2" d="M15.478,61.329H9.333V14.991h6.145V61.329z M10.333,60.329h4.145V15.991h-4.145V60.329z"/>
	</g>
	<g>
		<rect x="129.122" y="81.164" class="st1" width="5.145" height="45.338"/>
		<path class="st2" d="M134.767,127.002h-6.145V80.664h6.145V127.002z M129.622,126.002h4.145V81.664h-4.145V126.002z"/>
	</g>
</g>
<g id="score">
	<g>
		<g>
			<path class="st2" d="M45.458,94.042v18.598h2.021v4.852h-2.021v5.01h-7.102v-5.01h-8.438v-4.852l6.135-18.598H45.458z
				 M38.357,112.64v-12.111l-3.138,12.111H38.357z"/>
			<path class="st0" d="M45.958,123.001h-8.102v-5.01h-8.438l0.025-5.508l6.248-18.941h10.266v18.598h2.021v5.852h-2.021V123.001z
				 M38.857,122.001h6.102v-5.01h2.021v-3.852h-2.021V94.542h-8.543l-5.996,18.178v4.271h8.438V122.001z M38.857,113.14h-4.284
				l4.284-16.535V113.14z M35.865,112.14h1.992v-7.688L35.865,112.14z"/>
		</g>
	</g>
	<g>
		<g>
			<path class="st2" d="M111.795,33.543c1.078,0.364,1.881,0.958,2.408,1.785s0.791,2.764,0.791,5.813
				c0,2.263-0.258,4.019-0.773,5.268s-1.406,2.198-2.672,2.849c-1.266,0.65-2.889,0.976-4.869,0.976
				c-2.25,0-4.016-0.378-5.299-1.134s-2.127-1.682-2.531-2.777s-0.607-2.997-0.607-5.704v-2.25h7.102v4.623
				c0,1.23,0.074,2.013,0.221,2.347s0.471,0.501,0.975,0.501c0.551,0,0.914-0.211,1.09-0.633s0.264-1.523,0.264-3.305v-1.969
				c0-1.09-0.123-1.887-0.369-2.391s-0.609-0.835-1.09-0.993s-1.412-0.249-2.795-0.272v-4.131c1.688,0,2.73-0.064,3.129-0.193
				s0.686-0.41,0.861-0.844s0.264-1.113,0.264-2.039v-1.582c0-0.996-0.102-1.652-0.307-1.969s-0.525-0.475-0.959-0.475
				c-0.492,0-0.828,0.167-1.01,0.501s-0.273,1.046-0.273,2.136v2.338h-7.102v-2.426c0-2.719,0.621-4.556,1.863-5.511
				s3.217-1.433,5.924-1.433c3.387,0,5.684,0.662,6.891,1.985s1.811,3.162,1.811,5.516c0,1.593-0.217,2.744-0.65,3.452
				S112.885,32.958,111.795,33.543z"/>
			<path class="st0" d="M106.68,50.733c-2.329,0-4.197-0.405-5.553-1.203c-1.379-0.812-2.303-1.833-2.746-3.035
				c-0.43-1.164-0.639-3.086-0.639-5.877v-2.75h8.102v5.123c0,1.569,0.125,2.023,0.179,2.146c0.024,0.055,0.089,0.202,0.517,0.202
				c0.435,0,0.562-0.165,0.628-0.325c0.085-0.202,0.226-0.875,0.226-3.112v-1.969c0-1.256-0.173-1.874-0.318-2.171
				c-0.187-0.381-0.447-0.622-0.797-0.737c-0.296-0.098-0.995-0.22-2.647-0.248l-0.491-0.008v-5.123h0.5
				c2.134,0,2.78-0.106,2.975-0.169c0.257-0.083,0.433-0.26,0.553-0.556c0.104-0.255,0.227-0.784,0.227-1.851v-1.582
				c0-1.216-0.158-1.592-0.227-1.697c-0.074-0.115-0.202-0.247-0.539-0.247c-0.44,0-0.531,0.168-0.57,0.24
				c-0.064,0.118-0.213,0.538-0.213,1.897v2.838h-8.102v-2.926c0-2.87,0.692-4.857,2.059-5.907c1.345-1.034,3.382-1.536,6.229-1.536
				c3.566,0,5.941,0.703,7.26,2.148c1.288,1.412,1.941,3.381,1.941,5.853c0,1.703-0.236,2.917-0.724,3.713
				c-0.353,0.575-0.896,1.113-1.622,1.606c0.734,0.395,1.317,0.927,1.74,1.589c0.585,0.917,0.869,2.907,0.869,6.082
				c0,2.318-0.273,4.155-0.812,5.458c-0.56,1.355-1.537,2.399-2.905,3.103C110.445,50.386,108.73,50.733,106.68,50.733z
				 M98.742,38.868v1.75c0,2.633,0.194,4.494,0.576,5.531c0.361,0.979,1.141,1.827,2.316,2.52c1.199,0.706,2.896,1.064,5.045,1.064
				c1.891,0,3.451-0.31,4.641-0.921c1.167-0.6,1.965-1.449,2.438-2.595c0.488-1.182,0.735-2.89,0.735-5.077
				c0-3.659-0.388-5.034-0.713-5.543c-0.468-0.734-1.17-1.251-2.146-1.581l-1.092-0.369l1.016-0.545
				c1.005-0.54,1.71-1.133,2.095-1.762c0.383-0.625,0.577-1.699,0.577-3.191c0-2.214-0.565-3.957-1.68-5.179
				c-1.103-1.209-3.297-1.822-6.521-1.822c-2.582,0-4.472,0.447-5.619,1.329c-1.106,0.851-1.668,2.572-1.668,5.114v1.926h6.102
				v-1.838c0-1.578,0.19-2.111,0.334-2.375c0.189-0.348,0.594-0.762,1.449-0.762c0.763,0,1.171,0.382,1.379,0.703
				c0.264,0.407,0.387,1.12,0.387,2.241v1.582c0,1-0.099,1.729-0.301,2.227c-0.229,0.567-0.634,0.958-1.17,1.131
				c-0.268,0.086-0.848,0.199-2.783,0.216v3.145c1.176,0.037,1.98,0.131,2.451,0.286c0.611,0.202,1.076,0.622,1.383,1.249
				c0.282,0.578,0.42,1.432,0.42,2.61v1.969c0,2.484-0.173,3.186-0.302,3.497c-0.253,0.606-0.804,0.94-1.552,0.94
				c-0.894,0-1.272-0.435-1.433-0.8c-0.112-0.257-0.263-0.801-0.263-2.547v-4.123H98.742z"/>
		</g>
	</g>
	<g>
		<rect x="71.5" y="14.606" class="st0" width="1" height="113.022"/>
	</g>
</g>
<g id="ball">
	<g>
		<circle class="st2" cx="54.36" cy="54.041" r="3.818"/>
		<path class="st1" d="M54.36,57.984c-2.174,0-3.943-1.769-3.943-3.943s1.769-3.943,3.943-3.943s3.943,1.769,3.943,3.943
			S56.534,57.984,54.36,57.984z M54.36,50.347c-2.037,0-3.693,1.657-3.693,3.693s1.657,3.693,3.693,3.693s3.693-1.657,3.693-3.693
			S56.396,50.347,54.36,50.347z"/>
	</g>
	<g>
		<circle class="st2" cx="61.196" cy="57.859" r="5.104"/>
		<path class="st1" d="M61.197,63.214c-2.953,0-5.355-2.402-5.355-5.355c0-2.953,2.402-5.354,5.355-5.354
			c2.952,0,5.354,2.402,5.354,5.354C66.551,60.812,64.149,63.214,61.197,63.214z M61.197,53.004c-2.677,0-4.855,2.178-4.855,4.854
			c0,2.677,2.178,4.855,4.855,4.855c2.676,0,4.854-2.178,4.854-4.855C66.051,55.182,63.873,53.004,61.197,53.004z"/>
	</g>
	<g>
		<circle class="st2" cx="69.581" cy="62.964" r="6.673"/>
		<path class="st1" d="M69.582,70.136c-3.956,0-7.174-3.217-7.174-7.172c0-3.955,3.218-7.172,7.174-7.172
			c3.954,0,7.172,3.217,7.172,7.172C76.754,66.919,73.536,70.136,69.582,70.136z M69.582,56.792c-3.404,0-6.174,2.769-6.174,6.172
			s2.77,6.172,6.174,6.172c3.403,0,6.172-2.769,6.172-6.172S72.985,56.792,69.582,56.792z"/>
	</g>
</g>
</svg>
