<?xml version="1.0" encoding="utf-8"?>
<!-- Generator: Adobe Illustrator 16.0.0, SVG Export Plug-In . SVG Version: 6.00 Build 0)  -->
<!DOCTYPE svg PUBLIC "-//W3C//DTD SVG 1.1//EN" "http://www.w3.org/Graphics/SVG/1.1/DTD/svg11.dtd">
<svg version="1.1" id="Layer_1" xmlns="http://www.w3.org/2000/svg" xmlns:xlink="http://www.w3.org/1999/xlink" x="0px" y="0px"
	 width="323.833px" height="307.833px" viewBox="0 -19.833 323.833 307.833" enable-background="new 0 -19.833 323.833 307.833"
	 xml:space="preserve">
<g id="Layer_1_1_">
	<g>
		<path fill="#FE802D" d="M160.396,126.551c-7.013-6.165-13.857-12.501-18.604-20.69c-2.234-3.857-3.171-7.973-2.162-12.448
			c0.713-3.165,2.788-5.45,4.774-7.772c4.068-4.764,9.105-8.45,13.968-12.322c4.599-3.656,9.209-7.287,13.06-11.785
			c5.95-6.957,8.395-14.81,6.343-23.878c-0.049-0.21-0.026-0.435-0.049-0.928c2.486,3.047,3.748,6.306,4.082,9.929
			c0.556,6.002-1.394,11.344-4.469,16.349c-4.29,6.974-10.287,12.352-16.529,17.5c-3.411,2.817-6.702,5.751-9.268,9.421
			c-4.523,6.468-4.928,13.15-1.214,20.097c2.122,3.973,4.861,7.544,7.305,11.306c1.069,1.649,2.514,3.138,2.756,5.236
			L160.396,126.551z"/>
		<path fill="#6565F3" d="M126.025,177.658c-4.824,0.4-8.977,1.379-12.852,3.301c-1.174,0.586-2.934,1.072-2.767,2.703
			c0.156,1.494,1.898,1.629,3.115,2.07c5.017,1.807,10.272,2.451,15.529,3.035c11.589,1.281,23.223,1.311,34.849,0.967
			c12.822-0.389,25.635-1.088,38.252-3.719c3.037-0.631,6.087-1.303,8.728-3.074c1.657-1.121,1.995-2.275,1.152-4.156
			c1.352,0.1,2.146,0.871,2.567,1.955c0.388,1.012-0.088,1.842-0.827,2.619c-1.678,1.768-3.83,2.779-5.997,3.627
			c-5.426,2.115-11.069,3.51-16.813,4.484c-5.882,0.99-11.797,1.68-17.738,2.203c-9.859,0.865-19.727,0.705-29.593,0.592
			c-4.566-0.059-9.149-0.211-13.683-0.664c-8.001-0.801-15.993-1.691-23.916-3.098c-1.625-0.287-3.151-0.91-4.613-1.678
			c-2.218-1.152-2.449-2.709-0.687-4.453c2.921-2.902,6.575-4.461,10.422-5.664c3.46-1.078,6.977-1.861,10.612-1.975
			C123.071,176.695,124.355,176.898,126.025,177.658z"/>
		<path fill="#FE802D" d="M167.616,132.209c3.361-3.994,5.283-8.049,3.198-13.038c-0.747-1.782-2.031-3.207-3.213-4.688
			c-2.755-3.45-5.071-7.143-5.901-11.563c-1.085-5.779,0.368-10.909,4.333-15.244c6.83-7.479,15.673-11.675,24.983-15.056
			c1.818-0.659,3.666-1.22,5.642-1.871c-0.217,0.926-0.863,1.042-1.323,1.32c-6.505,3.895-12.967,7.881-18.523,13.088
			c-3.288,3.08-6.284,6.451-6.072,11.454c0.108,2.702,1.34,4.984,2.744,7.164c1.46,2.276,3.076,4.447,4.544,6.724
			c2.545,3.953,2.549,8.019,0.27,12.073c-2.269,4.019-5.738,6.851-9.541,9.322C168.533,132.039,168.228,132.046,167.616,132.209z"/>
		<path fill="#6565F3" d="M138.59,164.871c-1.699,2.262-1.412,3.039,0.997,3.92c2.625,0.969,5.397,1.012,8.112,1.273
			c5.786,0.559,11.588,0.66,17.393,0.068c3.613-0.365,7.178-0.984,10.741-1.623c1.415-0.258,2.657-0.135,3.955,0.598
			c2.244,1.271,4.602,2.342,7.196,3.641c-2.354,0.855-4.469,1.703-6.635,2.393c-4.312,1.377-8.752,2.26-13.206,2.871
			c-4.198,0.568-8.461,0.4-12.71,0.4c-5.574,0-10.937-1.119-16.24-2.639c-2.192-0.631-4.162-1.775-5.92-3.205
			c-1.651-1.338-1.465-3.854,0.281-5.129C134.272,166.176,136.287,165.609,138.59,164.871z"/>
		<path fill="#6565F3" d="M141.262,127.794c-3.66,1.201-7.375,2.172-10.947,3.592c-1.395,0.556-2.784,1.108-4.02,1.968
			c-0.611,0.428-1.318,0.871-1.158,1.761c0.143,0.795,0.919,0.991,1.535,1.242c1.714,0.712,3.553,1.025,5.371,1.188
			c9.484,0.834,18.979,0.616,28.471,0.177c7.185-0.333,14.354-0.904,21.485-1.834c3.591-0.469,7.173-1.025,10.756-1.555
			c0.673-0.102,1.339-0.27,2.499-0.042c-2.731,1.203-4.719,3.036-7.253,3.695c-8.604,2.233-17.397,3.239-26.244,3.803
			c-6.381,0.415-12.764,0.708-19.153,0.522c-7.362-0.209-14.723-0.5-21.974-1.936c-1.923-0.379-3.828-0.834-5.611-1.662
			c-0.891-0.416-1.876-0.91-1.89-2.031c-0.016-1.018,0.845-1.607,1.663-2.051c3.762-2.023,7.726-3.545,11.826-4.725
			C131.397,128.527,136.27,127.794,141.262,127.794z"/>
		<path fill="#6565F3" d="M134.169,147.348c-0.184,0.291-0.371,0.576-0.544,0.875c-1.088,1.824-0.729,3.021,1.261,3.795
			c1.948,0.762,4.036,0.932,6.092,1.07c5.332,0.383,10.656,0.906,16.026,0.77c8.474-0.217,16.833-1.346,25.157-2.84
			c0.571-0.098,1.092-0.311,1.61,0.178c1.678,1.611,3.741,2.623,6.362,3.816c-3.451,0.842-6.397,1.631-9.375,2.268
			c-10.167,2.172-20.491,2.977-30.853,2.758c-6.796-0.143-13.569-0.99-19.999-3.451c-1.26-0.482-2.377-1.336-3.216-2.428
			c-0.869-1.135-0.485-2.705,0.984-3.936c1.833-1.539,3.989-2.476,6.299-3.076C134.036,147.215,134.1,147.277,134.169,147.348z"/>
		<path fill="#6565F3" d="M122.199,197.752c6.448,0.809,12.842,1.346,19.229,1.637c6.205,0.285,12.438,0.637,18.656,0.271
			c3.906-0.232,7.811-0.17,11.721-0.451c6.864-0.486,13.712-1.131,20.517-2.191c6.38-0.998,12.704-2.316,18.85-4.377
			c3.796-1.277,7.375-2.941,10.572-5.469c0,1.982-1.444,4.063-3.965,5.773c-3.601,2.436-7.633,3.891-11.787,4.998
			c-4.683,1.242-9.419,2.287-14.209,2.898c-4.957,0.631-9.983,0.762-14.971,1.066c-6.331,0.393-12.674,0.508-19.006,0.365
			c-5.469-0.127-10.929-0.535-16.396-0.699c-5.844-0.174-11.478-1.52-17.117-2.836C123.558,198.566,122.897,198.092,122.199,197.752
			z"/>
		<path fill="#6565F3" d="M200.137,129.03c1.27-2.018,3.354-2.328,5.363-2.643c4.634-0.713,9.012,0.063,12.61,3.221
			c4.762,4.167,5.195,10.484,1.324,15.851c-1.954,2.699-4.439,4.814-7.237,6.572c-4.958,3.125-10.363,5.113-16.061,6.643
			c0.034-0.965,0.769-1.074,1.264-1.352c3.985-2.207,7.849-4.59,11.211-7.693c2.343-2.16,4.433-4.523,5.625-7.539
			c1.405-3.566,1.35-7.021-1.223-10.057c-2.719-3.213-6.268-4.313-10.391-3.586C201.787,128.59,200.965,128.833,200.137,129.03z"/>
		<path fill="#6565F3" d="M195.52,134.016c0.012-0.028,0.031-0.063,0.053-0.09c0.026,0.039,0.063,0.09,0.089,0.13
			C195.612,134.041,195.566,134.028,195.52,134.016z"/>
		<path fill="#FE802D" d="M160.39,126.565c0.074,0,0.157,0,0.232,0c-0.021,0.068-0.042,0.128-0.063,0.196
			c-0.056-0.068-0.109-0.141-0.166-0.21L160.39,126.565z"/>
		<path fill="#6565F3" d="M133.975,147.148c0.121-0.035,0.245-0.062,0.367-0.095c-0.058,0.095-0.116,0.196-0.171,0.292
			C134.1,147.277,134.036,147.215,133.975,147.148z"/>
	</g>
</g>
<g id="circle">
	<circle fill="none" stroke="#FE802D" stroke-width="12" stroke-miterlimit="10" cx="161.917" cy="134.083" r="142.2"/>
</g>
</svg>
