<?xml version="1.0" encoding="utf-8"?>
<!-- Generator: Adobe Illustrator 16.0.0, SVG Export Plug-In . SVG Version: 6.00 Build 0)  -->
<!DOCTYPE svg PUBLIC "-//W3C//DTD SVG 1.1//EN" "http://www.w3.org/Graphics/SVG/1.1/DTD/svg11.dtd">
<svg version="1.1" id="Layer_1" xmlns="http://www.w3.org/2000/svg" xmlns:xlink="http://www.w3.org/1999/xlink" x="0px" y="0px"
	 width="324.167px" height="324.167px" viewBox="0 -36.167 324.167 324.167" enable-background="new 0 -36.167 324.167 324.167"
	 xml:space="preserve">
<g>
	<path fill="#F7C53D" d="M199.648,172.951c-11.687,0-23.373,0.106-35.061-0.077c-2.766-0.042-2.55,1.314-2.555,3.132
		c-0.004,1.833-0.167,3.153,2.57,3.122c13.975-0.164,27.951-0.034,41.926-0.122c2.031-0.012,2.638,0.53,2.587,2.573
		c-0.138,5.472-0.208,10.956-0.005,16.423c0.232,6.365-2.48,11.194-7.213,15.077c-7.227,5.927-15.809,8.795-24.822,10.311
		c-13.725,2.303-27.34,1.741-40.635-2.729c-5.532-1.86-10.69-4.433-15.083-8.4c-4.322-3.899-6.416-8.676-6.357-14.521
		c0.165-16.504,0.229-33.01,0.338-49.516c0.037-5.617,3.088-9.711,6.995-13.229c4.511-4.061,9.706-6.293,16.001-6.206
		c14.544,0.2,29.093,0.17,43.642,0.054c6.18-0.05,12.205-1.068,17.356-4.946c5.836-4.393,10.623-9.602,13.452-16.487
		c1.417-3.448,1.385-7.029,1.504-10.596c0.175-5.226,0.174-10.459,0.127-15.69c-0.014-1.597,0.266-2.311,2.104-2.278
		c6.373,0.112,12.748,0.005,19.123,0.055c6.17,0.048,10.621,3.31,14.229,7.945c5.246,6.738,7.943,14.586,9.454,22.854
		c2.798,15.316,2.075,30.393-3.679,45.019c-1.957,4.982-4.629,9.544-8.531,13.3c-3.469,3.336-7.6,4.945-12.404,4.939
		C223.023,172.94,211.337,172.951,199.648,172.951z"/>
	<path fill="#377EEF" d="M123.704,78.89c11.935,0,23.871-0.095,35.804,0.074c2.629,0.037,2.393-1.276,2.408-2.969
		c0.016-1.725,0.178-3.009-2.415-2.983c-13.978,0.142-27.955,0.025-41.933,0.112c-2.05,0.013-2.625-0.572-2.569-2.601
		c0.141-5.228,0.235-10.47,0.002-15.691c-0.343-7.72,3.099-13.316,9.179-17.593c7.459-5.248,15.93-7.834,24.825-9.103
		c14.298-2.038,28.365-1.201,41.917,4.196c6.063,2.415,11.588,5.697,15.416,11.238c1.814,2.627,2.746,5.531,2.735,8.74
		c-0.046,14.142-0.017,28.284-0.134,42.424c-0.097,11.574-5.022,20.393-15.32,26.013c-2.955,1.613-6.148,2.105-9.447,2.125
		c-14.878,0.085-29.755,0.177-44.632,0.221c-7.529,0.021-14.346,1.966-20.096,7.035c-5.774,5.092-9.397,11.068-9.127,19.17
		c0.242,7.18-0.122,14.383-0.238,21.573c-0.015,0.911,0.337,2.08-1.288,2.067c-7.108-0.052-14.225,0.09-21.326-0.16
		c-6.165-0.219-10.36-4.014-13.807-8.696c-5.211-7.075-7.792-15.25-9.171-23.771c-2.183-13.494-1.577-26.873,2.797-39.928
		c2.203-6.574,5.284-12.657,10.637-17.323c3.214-2.802,6.92-4.195,11.206-4.183C100.652,78.914,112.178,78.89,123.704,78.89z"/>
	<path fill="#FEFEFE" d="M197.33,199.228c-0.03,4.945-4.188,9.055-9.105,8.998c-4.863-0.055-9.024-4.386-8.898-9.261
		c0.125-4.858,4.166-8.78,9.042-8.778C193.402,190.19,197.359,194.185,197.33,199.228z"/>
	<path fill="#FEFEFE" d="M144.88,52.44c0.022,5.026-4.004,9.129-8.958,9.125c-4.987-0.004-8.979-4.072-8.953-9.124
		c0.028-4.961,3.906-8.88,8.828-8.924C140.849,43.473,144.857,47.41,144.88,52.44z"/>
</g>
<circle fill="none" stroke="#F7C53D" stroke-width="12" stroke-miterlimit="10" cx="162.084" cy="125.917" r="142.2"/>
</svg>
