<?xml version="1.0" encoding="utf-8"?>
<!-- Generator: Adobe Illustrator 16.0.0, SVG Export Plug-In . SVG Version: 6.00 Build 0)  -->
<!DOCTYPE svg PUBLIC "-//W3C//DTD SVG 1.1//EN" "http://www.w3.org/Graphics/SVG/1.1/DTD/svg11.dtd">
<svg version="1.1" id="Layer_1" xmlns="http://www.w3.org/2000/svg" xmlns:xlink="http://www.w3.org/1999/xlink" x="0px" y="0px"
	 width="276px" height="233px" viewBox="0 0 276 233" enable-background="new 0 0 276 233" xml:space="preserve">
<title>Atoms/Illustrations/art-car-front</title>
<desc>Created with Sketch.</desc>
<g id="Atoms_x2F_Illustrations_x2F_art-car-front">
	<path id="Fill-1" fill="#FFFFFF" d="M185.693,151.02c-8.58,0-15.521-6.972-15.521-15.567c0-8.604,6.941-15.576,15.521-15.576
		c8.578,0,15.537,6.973,15.537,15.576C201.23,144.048,194.271,151.02,185.693,151.02z M36.758,93.204
		c-3.342,0.225-1.895-2.401-1.895-2.401l13.574-36.221c0.62-3.058,5.632-3.93,5.632-3.93c44.029-7.634,102.854-0.431,102.854-0.431
		c7.305,0.469,8.975,4.586,8.975,4.586l13.971,36.868c1.877,4.352-4.151,2.617-4.151,2.617
		C132.516,89.058,36.758,93.204,36.758,93.204z M59.425,133.679c1.155-1.818,2.753-2.89,4.517-2.89h86.765
		c1.773,0,3.375,1.071,4.533,2.89H59.425z M157.185,144.079H57.663v-3.368c0-0.228-0.087-0.453-0.078-0.677h99.498
		c0.01,0.224,0.103,0.449,0.103,0.677V144.079z M57.663,154.479h99.522v-4.045H57.663V154.479z M157.185,164.411
		c0,0.157-0.089,0.313-0.094,0.469H57.576c-0.004-0.155,0.086-0.312,0.086-0.469v-3.576h99.522V164.411z M150.707,174.414H63.942
		c-1.828,0-3.477-1.246-4.64-3.178h96.062C154.197,173.168,152.544,174.414,150.707,174.414z M27.165,151.02
		c-8.579,0-15.538-6.972-15.538-15.567c0-8.604,6.959-15.576,15.538-15.576c8.579,0,15.538,6.973,15.538,15.576
		C42.703,144.048,35.744,151.02,27.165,151.02z M213.023,121.303c-0.327-1.642-0.947-4.296-1.464-5.543
		c-0.896-2.16-2.609-6.607-9.286-12.15c4.158-1.506,7.134-5.499,7.134-10.188c0-5.98-4.841-10.839-10.801-10.839
		c-5.61,0-10.242,4.305-10.767,9.799l-14.865-43.249c0,0-1.361-5.402-9.251-6.875c0,0-20.913-2.563-47.569-3.091
		c-3.006-0.064-5.985-0.094-8.92-0.095c-0.101,0-0.202,0-0.303,0c-0.102,0-0.202,0-0.303,0c-2.936,0.001-5.915,0.031-8.92,0.095
		c-26.656,0.528-47.569,3.091-47.569,3.091c-7.889,1.473-9.25,6.875-9.25,6.875L26.022,92.381
		c-0.524-5.494-5.156-9.799-10.767-9.799c-5.96,0-10.8,4.858-10.8,10.839c0,4.689,2.976,8.682,7.134,10.188
		c-6.677,5.542-8.391,9.99-9.287,12.15c-0.517,1.248-1.136,3.902-1.464,5.543c-2.274,11.508,0.758,40.154,1.068,43.091l6.799,16.954
		H8.684c0.021,0,0.047,0.101,0.069,0.139l0.63,1.594h0.298c1.089,1.734,2.746,4.389,4.881,6.982
		c-0.006,0.111-0.007,0.197-0.007,0.311v26.467c0,3.538,2.837,6.398,6.369,6.398h12.472c3.514,0,6.33-2.86,6.33-6.398v-19.438
		c5.208,0.471,9.052,0.701,9.052,0.701h46.694h22.919h46.694c0,0,3.962-0.23,9.169-0.701v19.438c0,3.538,2.699,6.398,6.213,6.398
		h12.473c3.531,0,6.484-2.86,6.484-6.398v-26.467c0-0.113-0.059-0.227-0.065-0.339c2.135-2.594,3.761-5.196,4.851-7.01l0.285-0.001
		l0.622-1.564c0.022-0.038,0.041-0.111,0.063-0.111h-0.022l6.799-16.954C212.266,161.457,215.297,132.811,213.023,121.303z"/>
	<path id="Fill-6" fill="#FFFFFF" d="M274.938,220.932c-0.214-0.453-0.348-1.019-0.295-1.5c0.174-1.584-0.03-3.109-0.511-4.644
		c-0.344-1.099-0.483-1.585-0.195-1.919c-0.378-1.502-0.422-3.183-0.52-4.354c-0.238-2.864-0.291-5.727-0.427-8.592
		c-0.005-0.109-0.003-0.213,0.003-0.314c-0.271-0.35-0.319-0.787-0.24-1.356c0.34-2.421,0.634-4.852,0.852-7.289
		c0.181-2.03,0.117-4.093,0.359-6.109c0.371-3.085,0.141-6.136-0.416-9.208c-0.568-3.129-2.15-6.057-2.059-9.336
		c0.041-1.455-0.504-2.959-0.836-4.432c-0.357-1.583-0.612-3.155-0.113-4.709c0.064-0.198,0.209-0.371,0.318-0.553
		c-0.145-2.053,0.115-4.087,0.043-6.17c-0.11-3.253-0.323-6.5-0.253-9.748c0.032-1.52,0.122-3.027,0.297-4.512
		c-0.229-0.342-0.378-0.743-0.406-1.196c-0.294-0.658-0.12-1.578,0.321-2.192c0.974-4.857,2.627-9.549,3.198-14.496
		c0.317-2.744,0.15-5.646-0.571-8.366c-0.371-1.395-0.864-2.739-1.328-4.089c-0.025,0.082-0.048,0.167-0.064,0.261
		c-0.342-0.989-0.603-1.73-0.854-2.474c-0.563-1.669-0.563-3.494-1.688-5.013c-0.111-0.15-0.104-0.417-0.083-0.619
		c0.098-0.948,0.293-1.887,0.314-2.84c0.021-1.014,0.257-1.798,1.271-2.211c1.176-0.478,1.703-1.491,1.84-2.67
		c0.147-1.265,0.272-2.557,0.175-3.833c-0.376-4.909-0.828-9.813-1.286-14.714c-0.117-1.254-0.371-2.504-0.537-3.757
		c-0.131-0.986-0.141-1.93,0.162-2.908c0.654-2.113,1.252-4.185,0.604-6.601c-1.135-4.233-2.097-8.462-5.057-12.049
		c-1.074-1.3-1.959-2.743-2.995-4.074c-1.206-1.549-3.183-1.999-4.681-3.153c-0.678-0.522-1.463-0.908-2.203-1.35
		c-0.666-0.398-1.35-0.77-2.002-1.19c-0.734-0.474-1.549-0.895-2.134-1.513c-0.587-0.619-0.904-1.47-1.392-2.188
		c-0.615-0.904-1.282-1.776-1.73-2.394c0.021-0.797,0.084-1.362,0.042-1.926c-0.064-0.876-0.207-1.751-0.3-2.627
		c-0.012-0.115,0.037-0.287,0.123-0.344c0.643-0.427,0.487-1.015,0.293-1.635c-0.098-0.307-0.113-0.633-0.188-0.947
		c-0.07-0.291-0.03-0.48,0.086-0.606c-0.07-1.995,0.139-3.98-0.199-5.974c-0.01-0.057-0.009-0.107-0.014-0.162
		c-0.455-1.779-0.932-3.556-1.623-5.259c-1.617-3.982-4.668-6.447-9.023-7.181c-3.621-0.61-7.1-0.227-10.42,0.973
		c-2.627,0.949-5.027,2.254-6.526,4.633c-1.204,1.912-1.909,4.008-1.474,6.394c0.227,1.248,0.475,2.494,0.729,3.739
		c0.233,1.15,0.165,1.26-0.934,1.598c-0.955,0.293-1.907,0.594-2.838,0.941c-0.42,0.157-0.84,0.379-1.162,0.672
		c-0.428,0.385-0.641,0.814-0.659,1.228l5.447-0.019c1.356-0.004,2.038,1.132,1.958,2.144c0.339,0.463,0.79,0.883,0.637,1.525
		c-0.312,1.309-0.662,2.611-0.895,3.94c-0.178,1.018,0.566,1.832,1.639,1.813c0.895-0.016,1.48,0.401,1.434,1.233
		c-0.045,0.774,0.271,1.226,0.918,1.547c-0.194,1.31,0.125,1.726,1.429,1.822c0.525,0.039,0.772,0.177,0.854,0.756
		c0.059,0.422,0.146,0.759,0.275,1.035c-6.926-0.676-13.913-1.209-16.725-0.954c-10.993-2.312-37.609-8.667-56.125-6.356
		l-2.314,2.311c0,0-1.723-4.044-6.93-1.733c-5.209,2.311-12.718,3.467-12.718,3.467v4.045l16.768,4.044l5.779-1.733
		c0,0,3.846-4.306,10.982-1c5.022,2.326,23.333,1.335,38.771,8.692c6.734,3.21,14.422,5.357,19.689,6.595
		c-0.472,3.597-0.873,7.199-0.806,10.833c0.042,2.23,0.292,4.424,0.555,6.608l-32.271-0.638c-9.762-0.202-13.234-4.801-14.374-4.698
		c-1.062,0.096,0.171,2.634-0.329,3.29l0.833,0.081l0.876,4.293c-0.068,0.031-0.105,0.048-0.105,0.048l-0.368,1.315
		c0,0,0.96,4.57,10.954,3.693c1.198-0.105,30.041,5.27,35.35,6.509c0.014,2.521,0.012,5.042,0.063,7.566
		c0.027,1.344-0.021,2.787,0.902,3.926c0.766,0.945,1.773,1.712,2.709,2.518c0.238,0.205,0.605,0.279,0.924,0.374
		c1.479,0.443,2.959,0.872,4.359,1.282c-0.066,1.174-0.156,2.245-0.18,3.321c-0.037,1.685,0.023,3.379-0.056,5.061
		c-0.063,1.336-0.003,2.697-1.055,3.805c-0.405,0.427-0.319,1.308-0.445,1.986c-0.028,0.156,0.025,0.332-0.009,0.484
		c-0.16,0.707-0.324,1.413-0.488,2.119c0.229,0.574,0.232,1.241-0.123,1.926c-0.263,0.507-0.473,1.033-0.652,1.57
		c-0.089,0.431-0.191,0.855-0.347,1.258c-0.013,0.035-0.028,0.067-0.044,0.101c-0.422,1.691-0.677,3.445-1.282,5.079
		c-0.303,0.817-0.674,1.581-0.956,2.394c-0.081,0.398-0.156,0.798-0.214,1.201c-0.115,0.799,0.082,1.651,0.001,2.461
		c-0.197,1.991-0.402,3.986-0.734,5.954c-0.029,0.17-0.061,0.34-0.09,0.51c0.025,1.14,0.078,2.278,0.133,3.412
		c0.146,3.056,0.002,6.047-0.246,9.072c-0.457,5.564-0.357,11.179-0.703,16.758c-0.046,0.724-0.102,1.45-0.164,2.18
		c0.477,2.736-0.027,5.695-0.615,8.349c-0.029,1.136-0.021,2.27,0.051,3.397c0.195,3.094,0.6,6.181,0.723,9.276
		c0.127,3.18,0.145,6.642-1.147,9.544c-0.235,0.53-0.603,1.063-1.054,1.548c0.008,0.046,0.021,0.092,0.027,0.138
		c0.035,0.241-0.05,0.598-0.193,0.79c-1.06,1.411-2.332,2.696-3.182,4.225c-0.768,1.382-2.055,1.767-3.311,2.142
		c-1.649,0.492-3.408,0.664-5.123,0.969c-0.687,0.122-1.373,0.335-2.064,0.329c-2.436-0.02-3.916,2.075-4.498,3.786
		c-0.577,1.698-0.094,3.405,1.408,4.293c0.84,0.496,1.682,1.018,2.58,1.378c0.52,0.208,1.155,0.111,1.736,0.171
		c1.78,0.181,3.56,0.492,5.336,0.526c2.099,0.039,4.193-0.151,6.287-0.259c0.388-0.02,0.768-0.13,1.154-0.185
		c1.451-0.204,2.895-0.487,4.355-0.569c0.783-0.043,1.684-0.084,2.313,0.738c0.148,0.192,0.627,0.168,0.957,0.196
		c0.333,0.029,0.672-0.032,1.004,0.003c2.496,0.264,4.965,0.188,7.397-0.304c0.928-0.188,1.693-0.63,2.128-1.513
		c0.095-0.191,0.228-0.395,0.4-0.508c0.649-0.424,0.833-1.062,0.829-1.778c-0.003-0.712-0.146-1.438-0.069-2.136
		c0.13-1.172,0.415-2.319,0.576-3.486c0.203-1.461,0.174-2.893-0.717-4.238c-0.188-0.282-0.12-0.805-0.022-1.173
		c0.566-2.138,1.24-4.244,1.756-6.393c0.622-2.593,1.479-5.117,1.621-7.84c0.275-5.276,0.789-10.526,0.992-15.794
		c0.073-1.923,0.793-3.814,0.174-5.786c-0.042-0.134,0.037-0.302,0.075-0.548c0.555,0.361,1.044,0.662,1.512,0.992
		c0.39,0.276,0.829,0.533,1.112,0.896c0.705,0.905,1.296,1.896,2.007,2.795c0.384,0.485,0.696,0.932,0.616,1.482
		c0.633,1.428,0.607,3.015,0.563,4.516c0.33,0.382,0.541,0.894,0.545,1.54c0.019,3.422,0.957,6.699,1.702,10.048
		c0.784,3.522,1.249,7.013,0.731,10.548c-0.393,2.685-1.115,5.563-2.287,8.185c-0.118,0.455-0.209,0.703-0.395,0.844
		c-0.625,1.259-1.362,2.443-2.227,3.498c-0.075,0.537-0.289,1.043-0.802,1.482c-0.063,0.054,0.118,0.385,0.222,0.697
		c-0.002,0.001-0.139,0.156-0.312,0.213c-1.661,0.55-2.787,1.865-4.179,2.802c-0.307,0.206-0.648,0.513-0.742,0.845
		c-0.459,1.627-0.994,3.256-0.389,5.012c0.344,0.995,1.151,1.682,2.02,1.814c2.174,0.332,4.391,0.588,6.565,0.521
		c3.012-0.092,6.023-0.434,8.851-1.469c1.162-0.425,2.535-0.688,2.893-2.217c0.049-0.208,0.367-0.443,0.6-0.484
		c0.666-0.121,1.353-0.15,2.031-0.214c0.432-0.04,0.889-0.005,1.289-0.132c0.801-0.252,1.568-0.598,2.354-0.895
		c1.208-0.454,1.588-1.035,1.563-2.329C275.925,223.699,275.582,222.296,274.938,220.932"/>
	<path id="Combined-Shape" fill="#FFFFFF" d="M28.602,49.037c-5.867-13.147-5.783-13.063-18.867-18.958
		c-0.871-0.392-0.871-1.641,0-2.031c13.084-5.896,13-5.812,18.867-18.959c0.39-0.874,1.633-0.874,2.023,0
		c5.868,13.147,5.783,13.063,18.869,18.959c0.87,0.39,0.87,1.639,0,2.031c-13.085,5.896-13.001,5.811-18.869,18.958
		C30.234,49.91,28.992,49.91,28.602,49.037z M135.517,28.809c-2.403-5.384-2.368-5.349-7.727-7.764c-0.357-0.16-0.357-0.672,0-0.832
		c5.358-2.415,5.324-2.38,7.727-7.764c0.16-0.358,0.668-0.358,0.829,0c2.402,5.384,2.368,5.349,7.727,7.764
		c0.356,0.16,0.356,0.671,0,0.832c-5.358,2.415-5.324,2.379-7.727,7.764C136.186,29.167,135.677,29.167,135.517,28.809z
		 M162.258,25.165c-1.471-3.294-1.449-3.272-4.728-4.75c-0.218-0.098-0.218-0.411,0-0.509c3.278-1.478,3.257-1.456,4.728-4.75
		c0.098-0.219,0.408-0.219,0.506,0c1.471,3.294,1.449,3.273,4.729,4.75c0.217,0.098,0.217,0.411,0,0.509
		c-3.279,1.477-3.258,1.456-4.729,4.75C162.666,25.384,162.355,25.384,162.258,25.165z M193.033,69.205
		c-1.47-3.294-1.448-3.273-4.727-4.75c-0.219-0.098-0.219-0.411,0-0.509c3.278-1.478,3.257-1.456,4.727-4.75
		c0.098-0.219,0.41-0.219,0.508,0c1.47,3.294,1.448,3.272,4.727,4.75c0.219,0.098,0.219,0.411,0,0.509
		c-3.278,1.478-3.257,1.456-4.727,4.75C193.443,69.424,193.131,69.424,193.033,69.205z M150.226,13.043
		c-0.938-2.1-0.924-2.086-3.013-3.027c-0.14-0.063-0.14-0.262,0-0.325c2.089-0.941,2.075-0.928,3.013-3.028
		c0.062-0.139,0.261-0.139,0.323,0c0.937,2.1,0.923,2.086,3.013,3.028c0.14,0.063,0.14,0.262,0,0.325
		c-2.09,0.941-2.076,0.928-3.013,3.027C150.486,13.183,150.287,13.183,150.226,13.043z M84.942,27.099
		c-0.937-2.1-0.924-2.086-3.013-3.027c-0.139-0.063-0.139-0.262,0-0.324c2.089-0.942,2.076-0.928,3.013-3.028
		c0.062-0.139,0.261-0.139,0.323,0c0.937,2.1,0.924,2.086,3.014,3.028c0.139,0.062,0.139,0.262,0,0.324
		c-2.09,0.941-2.077,0.928-3.014,3.027C85.203,27.238,85.004,27.238,84.942,27.099z M10.333,52.398
		c-0.937-2.1-0.923-2.086-3.013-3.028c-0.139-0.063-0.139-0.262,0-0.324c2.09-0.942,2.076-0.928,3.013-3.028
		c0.063-0.14,0.261-0.14,0.323,0c0.937,2.1,0.923,2.086,3.013,3.028c0.139,0.062,0.139,0.262,0,0.324
		c-2.09,0.942-2.076,0.928-3.013,3.028C10.594,52.538,10.396,52.538,10.333,52.398z M10.333,73.95
		c-0.937-2.1-0.923-2.086-3.013-3.028c-0.139-0.063-0.139-0.262,0-0.324c2.09-0.942,2.076-0.928,3.013-3.028
		c0.063-0.14,0.261-0.14,0.323,0c0.937,2.1,0.923,2.086,3.013,3.028c0.139,0.063,0.139,0.262,0,0.324
		c-2.09,0.942-2.076,0.928-3.013,3.028C10.594,74.089,10.396,74.089,10.333,73.95z M187.529,55.209
		c-0.937-2.1-0.923-2.086-3.013-3.028c-0.139-0.063-0.139-0.262,0-0.324c2.09-0.942,2.076-0.928,3.013-3.028
		c0.063-0.14,0.262-0.14,0.324,0c0.937,2.1,0.923,2.086,3.013,3.028c0.14,0.063,0.14,0.262,0,0.324
		c-2.09,0.942-2.076,0.928-3.013,3.028C187.791,55.349,187.592,55.349,187.529,55.209z M105.841,28.616
		c-4.135-9.266-4.076-9.206-13.297-13.361c-0.614-0.276-0.614-1.156,0-1.431c9.222-4.156,9.162-4.096,13.297-13.362
		c0.274-0.616,1.15-0.616,1.425,0c4.135,9.266,4.076,9.206,13.298,13.362c0.613,0.275,0.613,1.155,0,1.431
		c-9.222,4.156-9.163,4.095-13.298,13.361C106.992,29.231,106.116,29.231,105.841,28.616z M67.165,22.556
		c-2.041-4.573-2.012-4.543-6.563-6.594c-0.303-0.136-0.303-0.571,0-0.707c4.552-2.05,4.522-2.021,6.563-6.594
		c0.137-0.304,0.568-0.304,0.704,0c2.041,4.573,2.011,4.544,6.564,6.594c0.303,0.136,0.303,0.571,0,0.707
		c-4.553,2.05-4.523,2.021-6.564,6.594C67.733,22.86,67.302,22.86,67.165,22.556z M21.559,63.844
		c-1.508-3.378-1.486-3.357-4.849-4.872c-0.224-0.101-0.224-0.422,0-0.522c3.363-1.515,3.341-1.493,4.849-4.872
		c0.101-0.225,0.42-0.225,0.52,0c1.508,3.378,1.486,3.357,4.85,4.872c0.224,0.101,0.224,0.422,0,0.522
		c-3.364,1.515-3.342,1.493-4.85,4.872C21.979,64.069,21.66,64.069,21.559,63.844z"/>
</g>
</svg>
