<?xml version="1.0" encoding="utf-8"?>
<!-- Generator: Adobe Illustrator 16.0.0, SVG Export Plug-In . SVG Version: 6.00 Build 0)  -->
<!DOCTYPE svg PUBLIC "-//W3C//DTD SVG 1.1//EN" "http://www.w3.org/Graphics/SVG/1.1/DTD/svg11.dtd">
<svg version="1.1" id="Layer_1" xmlns="http://www.w3.org/2000/svg" xmlns:xlink="http://www.w3.org/1999/xlink" x="0px" y="0px"
	 width="500px" height="500px" viewBox="0 0 500 500" enable-background="new 0 0 500 500" xml:space="preserve">
<path fill="none" d="M229.61,229.607h40.778v40.779H229.61V229.607z"/>
<path fill="#FCCF47" d="M336.559,137.835c0-9.486-7.767-17.254-17.254-17.254H181.262c-9.484,0-17.255,7.768-17.255,17.254v17.256
	h172.551V137.835L336.559,137.835z"/>
<path fill="#FDE291" d="M164.007,155.091v207.077c0,9.467,7.767,17.251,17.255,17.251h138.042c9.487,0,17.254-7.784,17.254-17.251
	V155.091H164.007z"/>
<path fill="#9B9FA1" d="M146.467,172.347c0-9.488-7.765-17.256-17.253-17.256H94.702c-9.486,0-17.254,7.768-17.254,17.256v9.969
	h69.021L146.467,172.347L146.467,172.347z"/>
<path fill="#CED4D6" d="M77.446,182.316v145.337c0,9.47,7.768,17.255,17.255,17.255h34.513c9.488,0,17.253-7.785,17.253-17.255
	V182.316H77.446z"/>
<path fill="#A57E11" d="M422.555,172.347c0-9.488-7.768-17.256-17.256-17.256h-34.51c-9.488,0-17.257,7.768-17.257,17.256v9.969
	h69.022V172.347z"/>
<path fill="#C9B270" d="M353.532,182.316v145.337c0,9.47,7.769,17.255,17.257,17.255h34.51c9.488,0,17.256-7.785,17.256-17.255
	V182.316H353.532z"/>
<path fill="#203641" d="M222.101,259.309c0-9.589-9.982-12.258-17.635-15.853c-4.646-2.412-4.059-8.179,2.599-8.568
	c3.694-0.223,7.495,0.874,10.928,2.08l1.615-7.367c-4.057-1.234-7.682-1.798-10.923-1.879v-4.555h-4.469v4.773
	c-8.698,1.194-13.342,6.651-13.342,12.744c0,10.902,12.725,12.567,16.89,14.501c5.681,2.541,4.627,7.827-0.513,8.991
	c-4.457,1.013-10.148-0.754-14.419-2.411l-2.031,7.349c3.995,2.068,8.787,3.163,13.415,3.25v4.465h4.469v-4.708
	C216.094,271.085,222.114,266.993,222.101,259.309z"/>
<path fill="#203641" d="M266.36,259.309c0-9.589-9.982-12.258-17.632-15.853c-4.647-2.412-4.062-8.179,2.595-8.568
	c3.697-0.223,7.494,0.874,10.929,2.08l1.616-7.367c-4.06-1.234-7.683-1.798-10.925-1.882v-4.552h-4.469v4.771
	c-8.699,1.197-13.346,6.654-13.346,12.747c0,10.902,12.729,12.567,16.893,14.501c5.684,2.541,4.629,7.827-0.512,8.991
	c-4.457,1.013-10.148-0.754-14.424-2.411l-2.029,7.349c3.995,2.068,8.787,3.163,13.415,3.25v4.465h4.468v-4.708
	C260.351,271.085,266.374,266.993,266.36,259.309z"/>
<path fill="#203641" d="M309.196,259.309c0-9.589-9.982-12.258-17.632-15.853c-4.648-2.412-4.062-8.177,2.599-8.568
	c3.694-0.223,7.49,0.874,10.925,2.08l1.616-7.367c-4.06-1.234-7.683-1.798-10.924-1.882v-4.552h-4.471v4.771
	c-8.698,1.195-13.345,6.654-13.345,12.747c0,10.902,12.727,12.567,16.889,14.501c5.685,2.541,4.633,7.827-0.511,8.991
	c-4.454,1.013-10.148-0.754-14.423-2.411l-2.027,7.349c3.999,2.068,8.788,3.163,13.417,3.25v4.465h4.472v-4.708
	C303.187,271.085,309.21,266.993,309.196,259.309z"/>
<path fill="#203641" d="M108.124,262.868c0-5.673-5.905-7.253-10.432-9.383c-2.749-1.426-2.401-4.839,1.537-5.067
	c2.186-0.128,4.433,0.519,6.465,1.232l0.957-4.356c-2.401-0.73-4.543-1.062-6.461-1.109v-2.694h-2.646v2.818
	c-5.144,0.71-7.895,3.937-7.895,7.541c0,6.447,7.53,7.433,9.992,8.578c3.362,1.507,2.737,4.633-0.303,5.323
	c-2.636,0.597-6.003-0.451-8.53-1.43l-1.202,4.35c2.364,1.226,5.199,1.876,7.937,1.923v2.642h2.646v-2.783
	C104.57,269.834,108.131,267.412,108.124,262.868z"/>
<path fill="#203641" d="M134.308,262.868c0-5.673-5.907-7.253-10.432-9.383c-2.75-1.426-2.403-4.839,1.534-5.067
	c2.187-0.128,4.434,0.519,6.467,1.232l0.954-4.356c-2.399-0.73-4.543-1.062-6.461-1.111v-2.692h-2.643v2.818
	c-5.147,0.71-7.894,3.937-7.894,7.541c0,6.447,7.53,7.433,9.992,8.578c3.364,1.507,2.738,4.633-0.302,5.323
	c-2.635,0.597-6-0.451-8.53-1.43l-1.202,4.35c2.365,1.226,5.199,1.876,7.937,1.923v2.642h2.645v-2.783
	C130.752,269.834,134.314,267.412,134.308,262.868z"/>
<path fill="#203641" d="M397.301,262.868c0-5.673-5.907-7.253-10.43-9.383c-2.749-1.426-2.403-4.839,1.532-5.067
	c2.188-0.128,4.427,0.519,6.469,1.232l0.955-4.356c-2.398-0.73-4.543-1.062-6.461-1.111v-2.692h-2.648v2.818
	c-5.144,0.71-7.895,3.937-7.895,7.541c0,6.447,7.532,7.433,9.999,8.578c3.361,1.507,2.734,4.633-0.306,5.323
	c-2.635,0.597-6-0.451-8.532-1.43l-1.201,4.35c2.365,1.226,5.2,1.876,7.935,1.923v2.642h2.648v-2.783
	C393.747,269.834,397.312,267.412,397.301,262.868z"/>
</svg>
