<?xml version="1.0" encoding="utf-8"?>
<!-- Generator: Adobe Illustrator 16.0.0, SVG Export Plug-In . SVG Version: 6.00 Build 0)  -->
<!DOCTYPE svg PUBLIC "-//W3C//DTD SVG 1.1//EN" "http://www.w3.org/Graphics/SVG/1.1/DTD/svg11.dtd">
<svg version="1.1" id="Layer_1" xmlns="http://www.w3.org/2000/svg" xmlns:xlink="http://www.w3.org/1999/xlink" x="0px" y="0px"
	 width="500px" height="500px" viewBox="0 0 500 500" enable-background="new 0 0 500 500" xml:space="preserve">
<path id="Combined-Shape" opacity="0.8" fill="#FFFFFF" stroke="#3883F2" stroke-miterlimit="10" d="M275.861,259.785
	c-32.794-14.601-51.559-55.253-32.942-85.818c26.455-43.437,37.47-73.092,33.043-88.967
	c76.497,52.738,105.069,100.019,85.718,141.843C346.605,259.422,308.656,274.387,275.861,259.785z M312.691,136.863
	c5.545,1.926,11.77,6.027,17.34,11.834c5.455,5.688,9.268,11.953,11.043,17.519c1.625-5.653-1.303-13.989-7.826-20.799
	C326.645,138.521,318.359,135.285,312.691,136.863z"/>
<g id="Atoms_x2F_Icons_x2F_icon-wash" transform="translate(32.000000, 76.000000)">
	<path id="Combined-Shape_1_" fill="#3883F2" d="M242.414,108.643h4.889v-2.23c0-0.211,0.176-0.382,0.394-0.382h2.135
		c0.216,0,0.392,0.171,0.392,0.382v2.23h1.34v-2.23c0-0.211,0.176-0.382,0.393-0.382h2.135c0.217,0,0.393,0.171,0.393,0.382v2.23
		h1.339v-2.23c0-0.211,0.176-0.382,0.393-0.382h2.136c0.217,0,0.393,0.171,0.393,0.382v2.23h1.339v-2.23
		c0-0.211,0.176-0.382,0.392-0.382h2.135c0.218,0,0.394,0.171,0.394,0.382v2.23h1.339v-2.23c0-0.211,0.176-0.382,0.393-0.382h2.135
		c0.217,0,0.393,0.171,0.393,0.382v2.23h1.34v-2.23c0-0.211,0.176-0.382,0.392-0.382h2.135c0.217,0,0.394,0.171,0.394,0.382v2.23
		h1.34v-2.23c0-0.211,0.176-0.382,0.392-0.382h2.135c0.216,0,0.392,0.171,0.392,0.382v2.23h1.341v-2.23
		c0-0.211,0.176-0.382,0.392-0.382h2.135c0.217,0,0.393,0.171,0.393,0.382v2.23h1.34v-2.23c0-0.211,0.176-0.382,0.393-0.382h2.136
		c0.217,0,0.392,0.171,0.392,0.382v2.23h1.339v-2.23c0-0.211,0.177-0.382,0.394-0.382h2.135c0.217,0,0.393,0.171,0.393,0.382v2.23
		h1.338v-2.23c0-0.211,0.176-0.382,0.394-0.382h2.135c0.218,0,0.394,0.171,0.394,0.382v2.23h1.339v-2.23
		c0-0.211,0.176-0.382,0.392-0.382h2.135c0.217,0,0.394,0.171,0.394,0.382v2.23h1.34v-2.23c0-0.211,0.175-0.382,0.392-0.382h2.135
		c0.217,0,0.393,0.171,0.393,0.382v2.23h4.643h0.91c0.66,0,1.196,0.522,1.196,1.166v4.687h2.288c0.216,0,0.393,0.171,0.393,0.382
		v2.081c0,0.21-0.177,0.382-0.393,0.382h-2.288v1.305h2.288c0.216,0,0.393,0.171,0.393,0.382v2.081c0,0.21-0.177,0.382-0.393,0.382
		h-2.288v1.305h2.288c0.216,0,0.393,0.171,0.393,0.382v2.08c0,0.211-0.177,0.382-0.393,0.382h-2.288v1.305h2.288
		c0.216,0,0.393,0.171,0.393,0.382v2.08c0,0.211-0.177,0.382-0.393,0.382h-2.288v1.305h2.288c0.216,0,0.393,0.171,0.393,0.382v2.08
		c0,0.211-0.177,0.382-0.393,0.382h-2.288v1.305h2.288c0.216,0,0.393,0.171,0.393,0.382v2.081c0,0.211-0.177,0.382-0.393,0.382
		h-2.288v4.5h-2.106v-4.5h-2.287c-0.217,0-0.393-0.171-0.393-0.382v-2.081c0-0.21,0.176-0.382,0.393-0.382h2.287v-1.305h-2.287
		c-0.217,0-0.393-0.171-0.393-0.382v-2.08c0-0.211,0.176-0.382,0.393-0.382h2.287v-1.305h-2.287c-0.217,0-0.393-0.171-0.393-0.382
		v-2.08c0-0.211,0.176-0.382,0.393-0.382h2.287v-1.305h-2.287c-0.217,0-0.393-0.171-0.393-0.382v-2.08
		c0-0.211,0.176-0.382,0.393-0.382h2.287v-1.305h-2.287c-0.217,0-0.393-0.171-0.393-0.382v-2.081c0-0.211,0.176-0.382,0.393-0.382
		h2.287v-1.305h-2.287c-0.217,0-0.393-0.171-0.393-0.382v-2.081c0-0.211,0.176-0.382,0.393-0.382h2.287v-3.8h-4.643v2.229
		c0,0.211-0.176,0.382-0.393,0.382h-2.135c-0.217,0-0.392-0.171-0.392-0.382v-2.229h-1.34v2.229c0,0.211-0.177,0.382-0.394,0.382
		h-2.135c-0.216,0-0.392-0.171-0.392-0.382v-2.229h-1.339v2.229c0,0.211-0.176,0.382-0.394,0.382h-2.135
		c-0.217,0-0.394-0.171-0.394-0.382v-2.229h-1.338v2.229c0,0.211-0.176,0.382-0.393,0.382h-2.135c-0.217,0-0.394-0.171-0.394-0.382
		v-2.229h-1.339v2.229c0,0.211-0.176,0.382-0.392,0.382h-2.136c-0.217,0-0.393-0.171-0.393-0.382v-2.229h-1.34v2.229
		c0,0.211-0.176,0.382-0.393,0.382h-2.135c-0.216,0-0.392-0.171-0.392-0.382v-2.229h-1.341v2.229c0,0.211-0.176,0.382-0.392,0.382
		h-2.135c-0.216,0-0.392-0.171-0.392-0.382v-2.229h-1.34v2.229c0,0.211-0.177,0.382-0.394,0.382h-2.135
		c-0.216,0-0.392-0.171-0.392-0.382v-2.229h-1.34v2.229c0,0.211-0.176,0.382-0.393,0.382h-2.135c-0.217,0-0.393-0.171-0.393-0.382
		v-2.229h-1.339v2.229c0,0.211-0.176,0.382-0.394,0.382h-2.135c-0.217,0-0.392-0.171-0.392-0.382v-2.229h-1.339v2.229
		c0,0.211-0.176,0.382-0.393,0.382h-2.136c-0.217,0-0.393-0.171-0.393-0.382v-2.229h-1.339v2.229c0,0.211-0.176,0.382-0.393,0.382
		h-2.135c-0.217,0-0.393-0.171-0.393-0.382v-2.229h-1.34v2.229c0,0.211-0.176,0.382-0.392,0.382h-2.135
		c-0.218,0-0.394-0.171-0.394-0.382v-2.229h-4.889v3.8h2.287c0.217,0,0.393,0.171,0.393,0.382v2.081c0,0.21-0.176,0.382-0.393,0.382
		h-2.287v1.305h2.287c0.217,0,0.393,0.171,0.393,0.382v2.081c0,0.21-0.176,0.382-0.393,0.382h-2.287v1.305h2.287
		c0.217,0,0.393,0.171,0.393,0.382v2.08c0,0.211-0.176,0.382-0.393,0.382h-2.287v1.305h2.287c0.217,0,0.393,0.171,0.393,0.382v2.08
		c0,0.211-0.176,0.382-0.393,0.382h-2.287v1.305h2.287c0.217,0,0.393,0.171,0.393,0.382v2.08c0,0.211-0.176,0.382-0.393,0.382
		h-2.287v1.305h2.287c0.217,0,0.393,0.171,0.393,0.382v2.081c0,0.211-0.176,0.382-0.393,0.382h-2.287v4.5h-2.105v-4.5h-2.287
		c-0.217,0-0.393-0.171-0.393-0.382v-2.081c0-0.211,0.176-0.382,0.393-0.382h2.287v-1.305h-2.287c-0.217,0-0.393-0.171-0.393-0.382
		v-2.08c0-0.211,0.176-0.382,0.393-0.382h2.287v-1.305h-2.287c-0.217,0-0.393-0.171-0.393-0.382v-2.08
		c0-0.211,0.176-0.382,0.393-0.382h2.287v-1.305h-2.287c-0.217,0-0.393-0.171-0.393-0.382v-2.08c0-0.211,0.176-0.382,0.393-0.382
		h2.287v-1.305h-2.287c-0.217,0-0.393-0.171-0.393-0.382v-2.081c0-0.211,0.176-0.382,0.393-0.382h2.287v-1.305h-2.287
		c-0.217,0-0.393-0.171-0.393-0.382v-2.081c0-0.211,0.176-0.382,0.393-0.382h2.287v-4.687c0-0.644,0.535-1.166,1.196-1.166H242.414z
		 M301.563,133.938c0,0,0.485,5.037-2.008,5.274l-2.736,0.238c0,0,0.609-6.046-4.133-6.283c0,0-5.353-1.125-6.021,6.104h-26.996
		c0,0-0.125-5.985-4.868-5.867c0,0-4.985-0.829-5.349,4.979c0,0-2.676,0.415-2.676-4.741c0,0,0.363-0.889,1.031-0.889
		c0,0,0.549-0.12,0.366-0.712c0,0-0.485-3.911,0.912-5.214l4.683-5.689c0,0,0.853-1.363,3.465-1.424c0,0,16.504-0.17,21.102,1.007
		l0.618,0.149l0.657,0.219l0.625,0.245l0.545,0.258l9.287,5.53c0,0,8.334,1.541,10.34,5.095
		C300.406,132.217,301.381,133.166,301.563,133.938z M254.561,127.003l12.646,0.356l-0.428-5.868c0,0,0.063-0.532-0.848-0.592
		c-0.914-0.06-6.873,0.06-6.873,0.06s-1.765-0.179-2.92,1.659C256.139,122.619,254.193,125.049,254.561,127.003z M283.988,127.74
		c0,0,1.146,0.114,0.123-1.746c0,0-2.736-5.035-14.23-4.976c0,0-0.85-0.178-0.912,0.769l1.277,5.572L283.988,127.74z
		 M291.881,134.648c2.25,0,4.074,1.776,4.074,3.971c0,2.191-1.824,3.969-4.074,3.969c-2.247,0-4.072-1.778-4.072-3.969
		C287.809,136.424,289.634,134.648,291.881,134.648z M291.881,140.633c1.145,0,2.07-0.902,2.07-2.014
		c0-1.114-0.928-2.016-2.07-2.016c-1.141,0-2.066,0.901-2.066,2.016C289.814,139.731,290.74,140.633,291.881,140.633z
		 M254.68,134.648c2.252,0,4.076,1.776,4.076,3.971c0,2.191-1.824,3.969-4.076,3.969c-2.25,0-4.072-1.778-4.072-3.969
		C250.605,136.424,252.43,134.648,254.68,134.648z M254.68,140.633c1.145,0,2.067-0.902,2.067-2.014
		c0-1.114-0.924-2.016-2.067-2.016c-1.14,0-2.065,0.901-2.065,2.016C252.613,139.731,253.539,140.633,254.68,140.633z"/>
</g>
<path id="Combined-Shape_2_" opacity="0.8" fill="#FFFFFF" stroke="#2CD9D9" stroke-miterlimit="10" d="M172.862,400.785
	c-32.795-14.603-51.559-55.253-32.943-85.818c26.455-43.437,37.47-73.092,33.043-88.967
	c76.497,52.738,105.069,100.02,85.718,141.843C243.606,400.422,205.657,415.387,172.862,400.785z M209.692,277.863
	c5.545,1.926,11.769,6.025,17.339,11.834c5.456,5.688,9.268,11.953,11.042,17.519c1.625-5.653-1.303-13.989-7.826-20.799
	C223.643,279.521,215.36,276.285,209.692,277.863z"/>
<g id="Atoms_x2F_Icons_x2F_icon-detail" transform="translate(32.000000, 76.000000)">
	<path id="Combined-Shape_3_" fill="#2CD9D9" d="M163.235,275.234c-0.265,0.254-0.235,0.803,0.237,0.895
		c0.228,0.043,0.4-0.051,0.5-0.197c1.326,1.252,2.986,2.813,3.448,3.248c-8.186,6.193-13.364,3.334-16.022-2.058
		c-2.152-4.365-8.688-4.103-11.077-8.93c-2.389-4.828,5.627-10.008,10.21-14.354c8.844-8.389,4.536-11.311,12.553-16.242
		c4.983-3.064,9.442,1.111,14.397,3.636c4.955,2.523,9.351,2.491,11.413,8.086c1.131,3.069-0.35,5.664-2.465,8.177
		c-0.122-0.124-0.246-0.249-0.371-0.373c-0.255-0.253-0.506-0.495-0.776-0.751c-0.158-0.149-0.327-0.308-0.569-0.533
		c-2.449-2.299-5.857-5.537-6.049-5.761c-2.239-2.606-5.506-1.21-6.384,1.471c-0.982-0.911-1.807-1.681-1.753-1.631
		c-3.4-3.111-6.802-4.791-8.881-2.69c-0.416,0.421-0.699,0.869-0.866,1.334c-1.426-0.61-2.925-0.404-4.125,0.822
		c-1.37,1.402-1.266,2.982-0.325,4.732c-0.621,0.202-1.198,0.633-1.74,1.328c-1.249,1.604-0.919,3.031,0.895,5.239
		c-0.393,0.217-0.767,0.543-1.126,0.996c-2.025,2.549-0.074,4.907,7.086,11.845c0.35,0.339,0.713,0.688,1.094,1.053
		C162.719,274.745,162.958,274.972,163.235,275.234z M197.189,277.914c0.639,0.514,0.715,1.456,0.166,2.064l-10.153,11.27
		c-0.538,0.598-1.464,0.636-2.051,0.086l-0.193-0.182c-0.449-0.421-0.563-1.062-0.336-1.597c-1.604-1.553-5.512-5.296-6.917-6.291
		c-1.787-1.266-3.621-0.846-8.637-5.604s-14.204-13.024-12.952-14.599c1.251-1.576,5.906,3.059,7.422,4.296
		c1.515,1.236,2.481,1.437,2.494,0.798c0.012-0.641-11.058-9.564-9.67-11.349c1.388-1.782,5.543,2.348,8.026,4.646
		c2.482,2.299,4.372,4.256,4.833,3.588c0.461-0.666-6.114-6.215-7.384-7.624s-5.012-5.013-3.576-6.48
		c1.436-1.469,2.943,0.77,5.02,2.402c2.077,1.633,9.884,9.028,10.57,8.348c0.687-0.681-8.582-8.785-9.706-9.826
		c-1.124-1.042-1.673-2.295-0.904-3.07c0.769-0.777,3.42,0.615,5.772,2.768c2.352,2.151,10.078,9.65,10.912,8.628
		c0.841-1.031-5.671-5.737-5.628-7.294s1.574-2.639,2.667-1.366c0.347,0.402,4.816,4.62,6.215,5.934
		c1.398,1.313,6.08,5.532,6.495,10.012c0.415,4.48,0.209,5.08,0.705,6.085c0.383,0.778,3.722,3.182,5.208,4.227
		C196.085,277.502,196.722,277.539,197.189,277.914z M167.611,243.242c0.655,0.125,0.458,1.137-0.196,1.012
		C166.761,244.127,166.958,243.117,167.611,243.242z M164.485,244.273c0.655,0.126,0.458,1.137-0.195,1.012
		C163.634,245.16,163.832,244.148,164.485,244.273z M165.797,241.729l-0.113-0.021c-0.266-0.051-0.565,0.133-0.606,0.408
		s0.125,0.549,0.41,0.604l0.113,0.021c0.266,0.051,0.565-0.133,0.606-0.408C166.248,242.055,166.082,241.783,165.797,241.729z
		 M147.817,262.055c0.654,0.125,0.458,1.138-0.196,1.013C146.966,262.94,147.163,261.93,147.817,262.055z M145.44,267.076
		c0.655,0.125,0.458,1.137-0.196,1.012C144.59,267.962,144.787,266.951,145.44,267.076z M148.948,268.914
		c0.654,0.126,0.458,1.137-0.196,1.012C148.097,269.8,148.294,268.789,148.948,268.914z M150.269,264.506
		c0.655,0.126,0.458,1.137-0.196,1.012C149.418,265.392,149.615,264.381,150.269,264.506z M158.836,274.074
		c0.655,0.125,0.458,1.137-0.195,1.011C157.985,274.959,158.183,273.948,158.836,274.074z M156.425,277.457
		c0.655,0.126,0.458,1.137-0.195,1.012C155.575,278.343,155.772,277.332,156.425,277.457z M161.431,277.602
		c0.655,0.125,0.458,1.138-0.196,1.013C160.581,278.487,160.777,277.477,161.431,277.602z M185.322,251.533
		c0.655,0.125,0.458,1.137-0.195,1.012C184.471,252.419,184.668,251.408,185.322,251.533z M183.608,248.291
		c0.655,0.125,0.458,1.137-0.196,1.012C182.757,249.177,182.955,248.166,183.608,248.291z M178.876,248.549
		c0.654,0.125,0.458,1.137-0.196,1.012C178.025,249.435,178.222,248.424,178.876,248.549z M152.58,259.821
		c0.654,0.126,0.458,1.138-0.196,1.012C151.729,260.707,151.926,259.696,152.58,259.821z M152.155,257.176
		c0.655,0.126,0.458,1.137-0.195,1.012C151.305,258.063,151.502,257.051,152.155,257.176z M172.577,247.225
		c0.655,0.125,0.458,1.138-0.196,1.012C171.726,248.109,171.923,247.099,172.577,247.225z"/>
</g>
</svg>
