<?xml version="1.0" encoding="utf-8"?>
<!-- Generator: Adobe Illustrator 16.0.0, SVG Export Plug-In . SVG Version: 6.00 Build 0)  -->
<!DOCTYPE svg PUBLIC "-//W3C//DTD SVG 1.1//EN" "http://www.w3.org/Graphics/SVG/1.1/DTD/svg11.dtd">
<svg version="1.1" xmlns="http://www.w3.org/2000/svg" xmlns:xlink="http://www.w3.org/1999/xlink" x="0px" y="0px" width="960px"
	 height="540px" viewBox="0 0 960 540" enable-background="new 0 0 960 540" xml:space="preserve">
<g id="objects">
	<path fill="#CED4D6" d="M221.031,32.541c3.453,0,5.891,2.797,5.566,6.78c1.746-0.046,4.434,0.751,4.434,3.72
		c0,1.93-1.57,3.5-3.5,3.5h-13c-1.931,0-3.5-1.57-3.5-3.5c0-2.797,2.479-3.833,4.433-3.72
		C215.297,35.103,217.672,32.541,221.031,32.541z M221.031,30.541c-4.006,0-7.267,3.141-7.479,7.092
		c-2.569,0.463-4.521,2.706-4.521,5.408c0,3.037,2.463,5.5,5.5,5.5h13c3.037,0,5.5-2.463,5.5-5.5c0-2.702-1.951-4.945-4.521-5.408
		C228.298,33.682,225.037,30.541,221.031,30.541z"/>
	<path fill="#CED4D6" d="M681.403,43.581c-3.725,0-6.758,2.813-6.955,6.353c-2.392,0.413-4.205,2.423-4.205,4.841
		c0,2.72,2.292,4.926,5.115,4.926h12.09c2.824,0,5.115-2.207,5.115-4.926c0-2.418-1.813-4.429-4.204-4.841
		C688.161,46.394,685.128,43.581,681.403,43.581z M667.888,53.499c-2.81-0.017-5.085-2.213-5.085-4.923
		c0-2.419,1.813-4.429,4.205-4.842c0.197-3.541,3.23-6.353,6.955-6.353c2.772,0,5.156,1.56,6.278,3.817
		c-0.87,0.104-1.7,0.324-2.482,0.645c-0.663-1.099-1.815-1.982-3.796-1.982c-4.802,0-4.747,4.991-4.59,5.98
		c-1.318,0.068-4.09,0.328-4.09,2.735c0,1.348,1.182,2.446,2.635,2.446h0.909C668.372,51.774,668.048,52.609,667.888,53.499z"/>
	<path fill="#CED4D6" d="M848.653,415.959c18.009,0,32.661,14.652,32.661,32.661s-14.652,32.661-32.661,32.661
		c-18.011,0-32.661-14.652-32.661-32.661S830.643,415.959,848.653,415.959z M848.653,409.427c-21.645,0-39.193,17.549-39.193,39.193
		s17.549,39.193,39.193,39.193s39.193-17.549,39.193-39.193S870.298,409.427,848.653,409.427z M853.903,440.379l-5.25-17.888
		l-5.259,17.888c-1.404,0.898-2.533,2.149-3.331,3.616l-17.539,4.625l17.539,4.625c0.791,1.467,1.924,2.721,3.331,3.616
		l5.259,17.888l5.285-17.894c1.397-0.899,2.516-2.156,3.311-3.624l17.533-4.611l-17.533-4.615
		C856.454,442.528,855.316,441.274,853.903,440.379z M848.653,453.52c-2.705,0-4.899-2.194-4.899-4.899s2.194-4.899,4.899-4.899
		s4.899,2.194,4.899,4.899S851.358,453.52,848.653,453.52z M865.801,465.768l-8.404-5.353c1.164-0.861,2.19-1.891,3.052-3.053
		L865.801,465.768z M857.176,436.662l8.621-5.186l-5.186,8.621C859.663,438.764,858.503,437.61,857.176,436.662z M840.14,460.587
		l-8.634,5.181l5.189-8.625C837.644,458.477,838.808,459.637,840.14,460.587z M836.861,439.88l-5.352-8.403l8.404,5.349
		C838.747,437.687,837.716,438.716,836.861,439.88z"/>
	<path fill="#CED4D6" d="M457.5,137.954l0.009-5.046c-0.57-0.208-1.083-0.542-1.533-0.997c-0.553,0.193-1.133,0.293-1.726,0.293
		c-2.895,0-5.25-2.374-5.25-5.292c0-1.327,0.478-2.572,1.354-3.546c-0.265-0.533-0.404-1.121-0.404-1.725
		c0-1.952,1.433-3.57,3.317-3.82c0.953-2.326,3.217-3.867,5.733-3.867c2.516,0,4.779,1.541,5.732,3.867
		c1.885,0.25,3.317,1.868,3.317,3.82c0,0.603-0.139,1.192-0.403,1.725c0.877,0.974,1.354,2.219,1.354,3.546
		c0,2.918-2.355,5.292-5.25,5.292c-0.593,0-1.172-0.1-1.725-0.293c-0.45,0.455-0.963,0.789-1.534,0.997l0.009,5.046H457.5z
		 M458.509,136.954h0.982v-4.8c0.78-0.203,1.265-0.275,2.254-1.438c0.606,0.262,1.131,0.488,2.005,0.488
		c2.344,0,4.25-1.926,4.25-4.292c0-0.492,0.029-1.81-1.611-3.389c0.344-0.545,0.661-1.016,0.661-1.882
		c0-0.555-0.249-2.741-3.034-2.866c-0.923-2.647-2.955-3.821-5.016-3.821c-2.084,0-4.095,1.189-5.016,3.821
		c-2.785,0.125-3.034,2.312-3.034,2.866c0,0.884,0.351,1.389,0.663,1.882c-1.637,1.575-1.613,2.857-1.613,3.389
		c0,2.366,1.907,4.292,4.25,4.292c0.894,0,1.451-0.249,2.005-0.488c0.993,1.168,1.459,1.231,2.254,1.438V136.954z"/>
	<path fill="#CED4D6" d="M667.684,192.721v-3.973h-7l3.76-6.017h-2.877l3.833-5.994h-1.979l5.769-8.017l5.767,8.017h-1.979
		l3.833,5.994h-2.877l3.751,6.017h-7v3.973H667.684z M665.373,175.738h1.854l-3.833,5.994h2.873l-3.771,6.017h6.188v3.973h1v-3.973
		h6.177l-3.751-6.017h2.874l-3.834-5.994h1.854l-3.815-5.304L665.373,175.738z"/>
	<path fill="#CED4D6" d="M371.474,177.269h-2v-4.083c-2.836-0.477-5-2.945-5-5.917c0-1.562,0.022-1.226,5.076-13.385
		c0.016,0,0.223-0.615,0.924-0.615c0.697,0,0.909,0.613,0.925,0.613c4.656,11.172,5.075,11.546,5.075,13.387
		c0,2.972-2.164,5.44-5,5.917V177.269z"/>
	<path fill="#CED4D6" d="M391.583,118.293h-3v-3.391c-2.08-0.639-3.5-2.652-3.5-5.04c0-1.19,0.202-1.692,1.774-5.603
		c0.521-1.294,1.195-2.97,2.068-5.179c0.204-0.518,0.67-0.806,1.17-0.802c0.482,0.004,0.941,0.284,1.146,0.802
		c0.718,1.817,1.302,3.274,1.777,4.454c0.26-0.596,0.567-1.288,0.928-2.103c0.694-1.565,1.591-3.592,2.754-6.265
		c0.258-0.592,0.881-0.906,1.396-0.888c0.572,0.015,1.127,0.329,1.369,0.888c1.164,2.673,2.061,4.7,2.754,6.265
		c2.095,4.727,2.363,5.334,2.363,6.764c0,2.927-2.078,5.422-5,6.082v4.016h-3v-4.016c-0.943-0.213-1.797-0.617-2.523-1.165
		c-0.612,0.845-1.466,1.479-2.477,1.79V118.293z M406.075,112.293c1.652,0,2.993,1.34,2.993,2.992s-1.341,2.993-2.993,2.993
		c-1.651,0-2.993-1.341-2.993-2.993S404.424,112.293,406.075,112.293z M398.582,117.278v-3.839c4.906-0.786,5-4.751,5-5.244
		c0-1.218-0.216-1.705-2.277-6.359c-2.133-4.82-2.721-6.198-2.754-6.261c-0.08-0.145-0.193-0.292-0.455-0.297
		c-0.238,0-0.37,0.092-0.481,0.297c-0.034,0.063-0.621,1.441-2.755,6.261c-2.061,4.654-2.277,5.141-2.277,6.359
		c0,0.493,0.094,4.458,5,5.244v3.839H398.582z M392.459,104.83l-0.08-0.198c-1.589-3.957-2.04-5.116-2.067-5.171
		c-0.072-0.151-0.15-0.226-0.226-0.228c-0.109,0-0.188,0.13-0.235,0.228c-0.028,0.05-0.316,0.818-2.066,5.171
		c-1.542,3.833-1.703,4.233-1.703,5.23c0,1.988,1.076,3.728,3.5,4.25v3.166h1v-3.166c1.266-0.272,2.159-0.876,2.725-1.666
		c-1.078-1.12-1.725-2.619-1.725-4.251C391.583,107.217,391.708,106.624,392.459,104.83z"/>
	<path fill="#CED4D6" d="M682.36,201.269v-3.973h-7l3.76-6.016h-2.877l3.833-5.994h-1.979l5.769-8.017l5.767,8.017h-1.979
		l3.833,5.994h-2.877l3.751,6.016h-7v3.973H682.36z M680.05,184.286h1.854l-3.833,5.994h2.873l-3.771,6.016h6.188v3.973h1v-3.973
		h6.177l-3.751-6.016h2.874l-3.834-5.994h1.854l-3.815-5.304L680.05,184.286z"/>
	<path fill="#CED4D6" d="M337.798,285.32c-4.969,0-9.016,3.753-9.279,8.476c-3.19,0.551-5.61,3.233-5.61,6.459
		c0,3.628,3.058,6.571,6.824,6.571h16.128c3.768,0,6.824-2.943,6.824-6.571c0-3.226-2.419-5.908-5.608-6.459
		C346.813,289.073,342.767,285.32,337.798,285.32z M319.768,298.552c-3.748-0.021-6.784-2.953-6.784-6.567
		c0-3.229,2.419-5.909,5.61-6.459c0.263-4.724,4.31-8.476,9.278-8.476c3.699,0,6.879,2.08,8.376,5.091
		c-1.161,0.141-2.269,0.433-3.312,0.861c-0.884-1.466-2.422-2.644-5.064-2.644c-6.406,0-6.333,6.657-6.123,7.978
		c-1.759,0.09-5.456,0.438-5.456,3.648c0,1.798,1.576,3.263,3.515,3.263h1.213C320.414,296.251,319.981,297.365,319.768,298.552z"/>
	<path fill="#CED4D6" d="M245.031,21.381c3.453,0,5.891,2.797,5.566,6.78c1.746-0.046,4.434,0.751,4.434,3.72
		c0,1.93-1.57,3.5-3.5,3.5h-13c-1.931,0-3.5-1.57-3.5-3.5c0-2.797,2.479-3.833,4.432-3.72
		C239.297,23.943,241.672,21.381,245.031,21.381z M245.031,19.381c-4.006,0-7.267,3.141-7.48,7.092
		c-2.569,0.463-4.521,2.706-4.521,5.408c0,3.037,2.463,5.5,5.5,5.5h13c3.037,0,5.5-2.463,5.5-5.5c0-2.702-1.951-4.945-4.521-5.408
		C252.299,22.522,249.037,19.381,245.031,19.381z"/>
	<path fill="#CED4D6" d="M154.971,293.27h-2v-4.084c-2.836-0.477-5-2.945-5-5.916c0-1.563,0.022-1.227,5.076-13.385
		c0.016,0,0.223-0.615,0.924-0.615c0.697,0,0.909,0.613,0.925,0.613c4.656,11.172,5.075,11.545,5.075,13.387
		c0,2.971-2.164,5.439-5,5.916V293.27z"/>
	<path fill="#CED4D6" d="M339.835,515.996v-3.973h-7l3.76-6.016h-2.877l3.833-5.994h-1.979l5.769-8.018l5.767,8.018h-1.979
		l3.833,5.994h-2.877l3.751,6.016h-7v3.973H339.835z M337.524,499.014h1.854l-3.833,5.994h2.873l-3.771,6.016h6.188v3.973h1v-3.973
		h6.177l-3.751-6.016h2.874l-3.834-5.994h1.854l-3.815-5.305L337.524,499.014z"/>
	<path fill="#CED4D6" d="M356.835,527.996v-3.973h-7l3.76-6.016h-2.877l3.833-5.994h-1.979l5.769-8.017l5.767,8.017h-1.979
		l3.833,5.994h-2.877l3.751,6.016h-7v3.973H356.835z M354.524,511.014h1.854l-3.833,5.993h2.873l-3.771,6.017h6.188v3.973h1v-3.973
		h6.177l-3.751-6.017h2.874l-3.834-5.993h1.854l-3.815-5.304L354.524,511.014z"/>
	<path fill="#CED4D6" d="M441.015,155.881l0.009-5.045c-0.569-0.209-1.083-0.543-1.532-0.998c-0.554,0.193-1.134,0.293-1.727,0.293
		c-2.895,0-5.25-2.373-5.25-5.292c0-1.327,0.478-2.572,1.354-3.546c-0.265-0.533-0.404-1.121-0.404-1.725
		c0-1.952,1.433-3.57,3.317-3.82c0.953-2.326,3.217-3.867,5.732-3.867s4.779,1.541,5.732,3.867c1.885,0.25,3.317,1.868,3.317,3.82
		c0,0.603-0.139,1.192-0.403,1.725c0.877,0.974,1.354,2.219,1.354,3.546c0,2.918-2.355,5.292-5.25,5.292
		c-0.593,0-1.172-0.1-1.725-0.293c-0.45,0.455-0.963,0.789-1.534,0.998l0.009,5.045H441.015z M442.023,154.881h0.982v-4.799
		c0.78-0.203,1.265-0.275,2.254-1.439c0.606,0.262,1.131,0.488,2.005,0.488c2.344,0,4.25-1.926,4.25-4.292
		c0-0.492,0.029-1.81-1.611-3.389c0.344-0.545,0.661-1.016,0.661-1.882c0-0.555-0.249-2.741-3.034-2.866
		c-0.923-2.647-2.955-3.821-5.016-3.821c-2.084,0-4.096,1.189-5.016,3.821c-2.785,0.125-3.034,2.312-3.034,2.866
		c0,0.884,0.351,1.389,0.663,1.882c-1.637,1.575-1.613,2.857-1.613,3.389c0,2.366,1.907,4.292,4.25,4.292
		c0.895,0,1.451-0.248,2.005-0.488c0.993,1.168,1.459,1.232,2.254,1.439V154.881z"/>
	<path fill="#CED4D6" d="M910.878,325.24l0.009-5.045c-0.569-0.209-1.083-0.543-1.532-0.998c-0.554,0.193-1.134,0.293-1.727,0.293
		c-2.895,0-5.25-2.373-5.25-5.291c0-1.328,0.478-2.572,1.354-3.547c-0.266-0.533-0.404-1.121-0.404-1.725
		c0-1.952,1.433-3.57,3.317-3.82c0.953-2.326,3.217-3.867,5.732-3.867s4.779,1.541,5.732,3.867c1.885,0.25,3.317,1.868,3.317,3.82
		c0,0.604-0.139,1.191-0.403,1.725c0.877,0.975,1.354,2.219,1.354,3.547c0,2.918-2.355,5.291-5.25,5.291
		c-0.593,0-1.172-0.1-1.725-0.293c-0.45,0.455-0.963,0.789-1.534,0.998l0.009,5.045H910.878z M911.887,324.24h0.982v-4.799
		c0.78-0.203,1.265-0.275,2.254-1.439c0.606,0.262,1.131,0.488,2.005,0.488c2.344,0,4.25-1.926,4.25-4.291
		c0-0.492,0.029-1.811-1.611-3.39c0.344-0.545,0.661-1.017,0.661-1.882c0-0.555-0.249-2.741-3.034-2.866
		c-0.923-2.647-2.955-3.821-5.016-3.821c-2.084,0-4.096,1.189-5.016,3.821c-2.785,0.125-3.034,2.312-3.034,2.866
		c0,0.884,0.351,1.389,0.663,1.882c-1.638,1.575-1.613,2.856-1.613,3.39c0,2.365,1.907,4.291,4.25,4.291
		c0.895,0,1.451-0.248,2.005-0.488c0.993,1.168,1.459,1.232,2.254,1.439V324.24z"/>
	<path fill="#CED4D6" d="M868.296,121.155c4.926,0,8.402,3.99,7.939,9.672c2.491-0.065,6.324,1.071,6.324,5.306
		c0,2.752-2.239,4.992-4.992,4.992h-18.543c-2.756,0-4.992-2.24-4.992-4.992c0-3.99,3.535-5.467,6.321-5.306
		C860.116,124.811,863.504,121.155,868.296,121.155z M868.296,118.303c-5.714,0-10.366,4.48-10.67,10.116
		c-3.664,0.66-6.447,3.86-6.447,7.714c0,4.332,3.514,7.845,7.846,7.845h18.543c4.332,0,7.846-3.513,7.846-7.845
		c0-3.854-2.783-7.054-6.45-7.714C878.662,122.783,874.01,118.303,868.296,118.303z"/>
	<path fill="#CED4D6" d="M902.529,105.236c4.926,0,8.402,3.99,7.94,9.672c2.49-0.066,6.324,1.071,6.324,5.306
		c0,2.752-2.24,4.992-4.992,4.992h-18.544c-2.755,0-4.992-2.24-4.992-4.992c0-3.989,3.535-5.467,6.321-5.306
		C894.351,108.891,897.737,105.236,902.529,105.236z M902.529,102.384c-5.714,0-10.366,4.48-10.67,10.116
		c-3.663,0.661-6.446,3.86-6.446,7.714c0,4.332,3.513,7.845,7.845,7.845h18.544c4.332,0,7.845-3.513,7.845-7.845
		c0-3.854-2.783-7.053-6.449-7.714C912.896,106.864,908.243,102.384,902.529,102.384z"/>
	<path fill="#CED4D6" d="M644.869,106.286h-2v-4.084c-2.836-0.477-5-2.945-5-5.916c0-1.563,0.022-1.226,5.076-13.385
		c0.016,0,0.223-0.615,0.924-0.615c0.697,0,0.909,0.613,0.925,0.613c4.656,11.172,5.075,11.546,5.075,13.387
		c0,2.971-2.164,5.439-5,5.916V106.286z"/>
	<path fill="#CED4D6" d="M153.971,6.257c3.453,0,5.891,2.797,5.566,6.78c1.746-0.046,4.434,0.751,4.434,3.72
		c0,1.93-1.57,3.5-3.5,3.5h-13c-1.931,0-3.5-1.57-3.5-3.5c0-2.797,2.479-3.833,4.432-3.72
		C148.236,8.819,150.611,6.257,153.971,6.257z M153.971,4.257c-4.006,0-7.267,3.141-7.48,7.092
		c-2.569,0.463-4.521,2.706-4.521,5.408c0,3.037,2.463,5.5,5.5,5.5h13c3.037,0,5.5-2.463,5.5-5.5c0-2.702-1.951-4.945-4.521-5.408
		C161.238,7.398,157.977,4.257,153.971,4.257z"/>
</g>
<g id="Layer_2">
	<path fill="none" stroke="#DEE0E0" stroke-width="4" stroke-miterlimit="10" d="M-2.421,401.544
		c11.901,0.757,25.373-4.448,36.895-6.805c10.768-2.203,21.925-4.191,32.218-8.502c15.387-6.445,31.339-10.842,44.545-21.28
		c18.814-14.87,32.955-30.619,43.766-52.359c14.153-28.461,30.812-57.178,54.618-78.813c10.992-9.99,22.349-22.167,38.234-21.74
		c8.777,0.235,17.525,0.61,26.333,0.61"/>
	<path fill="none" stroke="#DEE0E0" stroke-width="4" stroke-miterlimit="10" d="M717.462,0.959
		c-1.286,11.572,5.934,25.349,8.802,36.288c2.517,9.596,3.598,19.757,8.143,28.667c4.6,9.017,11.221,17.26,16.813,25.689
		c12.081,18.208,28.639,31.44,45.018,45.614c17.073,14.773,38.31,28.892,59.12,37.925c15.891,6.898,33.277,9.891,49.824,14.676
		c9.03,2.612,20.619,5.652,28.671,10.673c10.921,6.811,17.372,16.592,22.646,27.954c2.464,5.308,5.092,11.253,5.992,16.959"/>
	<path fill="none" stroke="#DEE0E0" stroke-width="4" stroke-miterlimit="10" d="M371.848,537.801
		c-3.552-24.025,6.92-47.285,8.055-71.215c1.046-22.043,0.366-49.633-9.371-69.762c-8.839-18.275-23.411-38.298-40.193-50.135
		c-8.777-6.19-18.864-10.129-27.511-16.479c-11.5-8.445-22.056-16.229-34.478-23.351c-28.793-16.507-62.258-43.729-77.845-73.7
		c-12.638-24.3-23.158-59.167-19.739-87.041c2.201-17.941,9.371-35.399,12.194-53.35c4.362-27.734,4.048-55.87,7.115-83.73
		c0.55-4.999,2.519-9.664,3.409-14.513"/>
	<path fill="none" stroke="#DEE0E0" stroke-width="4" stroke-miterlimit="10" d="M0.503,101.544
		c4.879,3.359,9.199,5.37,15.296,6.477c22.388,4.063,45.358,4.257,67.869,8.582c14.289,2.745,26.017,6.917,39.102,12.984
		c15.018,6.963,30.514,12.36,45.583,19.196c32.48,14.735,68.674,26.154,93.565,52.76c5.256,5.618,10.14,11.591,15.049,17.562
		c8.312,10.109,19.083,14.447,30.117,21.197c12.877,7.877,27.62,12.722,40.777,20.166c12.789,7.236,26.122,11.919,39.177,18.399
		c18.258,9.064,40.161,9.486,59.663,14.915c17.868,4.974,35.904,6.22,54.223,8.334c25.559,2.95,51.36,10.075,77.235,10.995
		c13.793,0.49,28.324,1.994,41.848,0.6c19.396-2.001,38.829-7.005,58.305-9.37c20.441-2.483,40.379-2.542,60.935-3.251
		c14.666-0.506,29.08-3.005,43.729-3.652c29.61-1.31,56.537,6.905,82.934,19.325c17.212,8.098,35.487,13.561,52.096,22.78
		c8.111,4.503,17.382,6.266,24.63,12.291c10.612,8.822,22.695,10.085,34.477,15.793"/>
	<path fill="none" stroke="#CED4D6" stroke-width="4" stroke-miterlimit="10" d="M660.152,543.064
		c-7.1-27.252-2.396-56.25-7.447-84.06c-6.787-37.37-23.599-73.406-42.127-106.417c-6.284-11.195-17.621-26.25-17.678-39.348"/>
	<path fill="none" stroke="#DEE0E0" stroke-width="4" stroke-miterlimit="10" d="M513.953-4.304
		c4.45,6.79,5.566,15.644,9.932,22.739c3.496,5.681,11.55,13.334,12.344,20c1.214,10.185-11.201,23.821-16.885,30.885
		c-7.775,9.666-19.375,17.318-29.355,24.631c-17.817,13.056-44.312,9.004-64.381,17.51c-27.432,11.625-26.975,45.542-9.233,65.537
		c15.845,17.856,41.961,26.321,64.318,31.604c24.484,5.786,50.349,7.831,75.466,8.176c10.957,0.15,22.489,0.43,33.287-1.82
		c9.678-2.017,18.101-7.394,27.42-10.631c19.054-6.618,35.723-13.608,32.633-37.259c-2.293-17.556-12.671-35.116-21.468-50.115
		c-4.981-8.494-9.839-17.059-17.561-23.419c-7.439-6.126-15.896-11.14-23.47-17.162c-15.583-12.389-31.785-23.913-46.758-36.828
		c-2.371-2.045-4.82-4.336-6.991-6.421"/>
</g>
</svg>
