<?xml version="1.0" encoding="utf-8"?>
<!-- Generator: Adobe Illustrator 16.0.0, SVG Export Plug-In . SVG Version: 6.00 Build 0)  -->
<!DOCTYPE svg PUBLIC "-//W3C//DTD SVG 1.1//EN" "http://www.w3.org/Graphics/SVG/1.1/DTD/svg11.dtd">
<svg version="1.1" id="Layer_1" xmlns="http://www.w3.org/2000/svg" xmlns:xlink="http://www.w3.org/1999/xlink" x="0px" y="0px"
	 width="400px" height="400px" viewBox="0 0 400 400" enable-background="new 0 0 400 400" xml:space="preserve">
<g id="Atoms_x2F_Icons_x2F_icon-detail" transform="translate(32.000000, 76.000000)">
	<path id="Combined-Shape_3_" fill="#FFFFFF" d="M130.92,201.732c-1.8,1.727-1.598,5.461,1.611,6.085
		c1.551,0.292,2.72-0.346,3.401-1.342c9.021,8.517,20.312,19.132,23.457,22.095c-55.687,42.132-90.912,22.68-108.991-13.997
		c-14.642-29.694-59.101-27.901-75.35-60.745c-16.25-32.844,38.281-68.072,69.454-97.648
		c60.157-57.065,30.857-76.941,85.395-110.489c33.897-20.853,64.233,7.56,97.94,24.726c33.708,17.166,63.608,16.953,77.633,55.005
		c7.699,20.886-2.379,38.53-16.768,55.624c-0.83-0.844-1.674-1.694-2.524-2.538c-1.728-1.721-3.441-3.368-5.274-5.108
		c-1.076-1.017-2.22-2.086-3.873-3.627c-16.655-15.638-39.84-37.667-41.148-39.188c-15.232-17.73-37.461-8.231-43.426,10.005
		c-6.684-6.198-12.29-11.433-11.932-11.094c-23.128-21.166-46.27-32.591-60.41-18.302c-2.83,2.857-4.753,5.913-5.889,9.075
		c-9.702-4.159-19.899-2.757-28.061,5.594c-9.321,9.54-8.613,20.288-2.212,32.193c-4.225,1.375-8.151,4.305-11.832,9.035
		c-8.5,10.921-6.254,20.627,6.085,35.647c-2.67,1.468-5.218,3.694-7.663,6.776c-13.778,17.339-0.505,33.382,48.206,80.568
		c2.378,2.306,4.85,4.684,7.444,7.161C127.409,198.404,129.033,199.945,130.92,201.732z M361.896,219.961
		c4.345,3.494,4.863,9.905,1.129,14.051l-69.068,76.655c-3.66,4.065-9.958,4.325-13.951,0.585l-1.315-1.236
		c-3.049-2.862-3.833-7.214-2.292-10.854c-10.908-10.563-37.494-36.026-47.053-42.795c-12.157-8.61-24.634-5.753-58.753-38.126
		c-34.119-32.372-96.622-88.6-88.108-99.309c8.513-10.722,40.178,20.807,50.488,29.224c10.307,8.417,16.877,9.771,16.963,5.427
		c0.083-4.351-75.221-65.063-65.781-77.193c9.443-12.13,37.71,15.964,54.597,31.608c16.887,15.638,29.738,28.951,32.884,24.407
		c3.136-4.531-41.596-42.277-50.232-51.863c-8.639-9.586-34.093-34.1-24.327-44.091c9.766-9.992,20.02,5.234,34.149,16.349
		s67.235,61.416,71.905,56.786c4.671-4.63-58.38-59.769-66.026-66.851c-7.643-7.088-11.376-15.611-6.145-20.886
		c5.228-5.288,23.268,4.185,39.268,18.827c15.997,14.635,68.558,65.648,74.231,58.693c5.726-7.022-38.577-39.036-38.292-49.618
		c0.292-10.589,10.709-17.95,18.143-9.3c2.358,2.744,32.758,31.436,42.277,40.364c9.513,8.929,41.354,37.634,44.184,68.106
		c2.817,30.479,1.422,34.558,4.79,41.394c2.61,5.295,25.317,21.637,35.428,28.745C354.39,217.158,358.715,217.41,361.896,219.961z
		 M160.688-15.898c4.454,0.851,3.116,7.733-1.332,6.882C154.902-9.879,156.244-16.749,160.688-15.898z M139.42-8.883
		c4.458,0.856,3.116,7.732-1.329,6.882C133.634-2.851,134.976-9.733,139.42-8.883z M148.345-26.195l-0.767-0.146
		c-1.81-0.345-3.846,0.903-4.122,2.777c-0.276,1.88,0.85,3.733,2.79,4.105l0.767,0.146c1.807,0.346,3.843-0.903,4.123-2.777
		C151.414-23.977,150.281-25.823,148.345-26.195z M26.031,112.076c4.454,0.85,3.116,7.732-1.332,6.882
		C20.248,118.102,21.586,111.226,26.031,112.076z M9.868,146.235c4.454,0.851,3.112,7.732-1.332,6.882
		C4.082,152.261,5.424,145.385,9.868,146.235z M33.727,158.737c4.451,0.857,3.116,7.733-1.332,6.883
		C27.94,164.763,29.279,157.888,33.727,158.737z M42.715,128.75c4.455,0.857,3.116,7.733-1.332,6.883
		C36.929,134.775,38.268,127.9,42.715,128.75z M100.992,193.84c4.458,0.851,3.116,7.733-1.329,6.876
		C95.206,199.859,96.548,192.983,100.992,193.84z M84.594,216.853c4.458,0.856,3.116,7.732-1.329,6.882
		C78.808,222.878,80.149,216.002,84.594,216.853z M118.646,217.835c4.454,0.851,3.116,7.733-1.332,6.883
		C112.86,223.86,114.199,216.985,118.646,217.835z M281.169,40.502c4.45,0.85,3.108,7.732-1.329,6.882
		C275.376,46.528,276.718,39.652,281.169,40.502z M269.503,18.447c4.465,0.85,3.123,7.732-1.328,6.882
		C263.724,24.472,265.065,17.597,269.503,18.447z M237.317,20.201c4.45,0.851,3.115,7.733-1.336,6.882
		C231.531,26.226,232.873,19.351,237.317,20.201z M58.436,96.883c4.451,0.857,3.116,7.739-1.332,6.882
		C52.65,102.908,53.988,96.033,58.436,96.883z M55.546,78.887c4.454,0.857,3.116,7.732-1.329,6.882
		C49.76,84.918,51.102,78.036,55.546,78.887z M194.462,11.192c4.458,0.851,3.122,7.733-1.329,6.876
		C188.683,17.211,190.024,10.336,194.462,11.192z"/>
</g>
</svg>
