<?xml version="1.0" encoding="utf-8"?>
<!-- Generator: Adobe Illustrator 16.0.0, SVG Export Plug-In . SVG Version: 6.00 Build 0)  -->
<!DOCTYPE svg PUBLIC "-//W3C//DTD SVG 1.1//EN" "http://www.w3.org/Graphics/SVG/1.1/DTD/svg11.dtd">
<svg version="1.1" id="Layer_1" xmlns="http://www.w3.org/2000/svg" xmlns:xlink="http://www.w3.org/1999/xlink" x="0px" y="0px"
	 width="144px" height="144px" viewBox="0 0 144 144" style="enable-background:new 0 0 144 144;" xml:space="preserve">
<style type="text/css">
<![CDATA[
	.st0{fill:#7F1416;}
	.st1{fill:#F3F3F3;}
	.st2{fill:#FFFFFF;}
	.st3{fill:#010101;}
	.st4{fill:#D31F26;}
	.st5{fill:#A91E22;}
]]>
</style>
<g id="g15543" transform="translate(-750.978,42.714283)">
	<g id="XMLID_1_">
		<g>
			<path class="st3" d="M873.829-29.248c6.574,0.279,11.691,5.834,11.413,12.408l-3.817,90.718
				c-0.277,6.583-5.834,11.69-12.418,11.414l-52.534-2.214c-6.583-0.277-11.691-5.835-11.414-12.418l3.818-90.707
				c0.277-6.583,5.834-11.691,12.418-11.414L873.829-29.248z M880.858-13.66c0.258-6.087-4.478-11.237-10.563-11.485l-18.403-0.776
				l-27.417-1.156c-5.752-0.239-10.655,3.962-11.407,9.556c-0.04,0.328-0.069,0.664-0.087,1.008l-3.537,83.993
				c-0.257,6.097,4.478,11.237,10.564,11.494l45.82,1.933c6.087,0.258,11.237-4.478,11.495-10.564L880.858-13.66z"/>
			<path class="st0" d="M858.16,17.519l0.13,0.074c-0.162,1.713-0.344,3.428-0.555,5.146c-0.208,1.668-0.393,3.363-0.554,5.076
				l-0.146,0.128c-3.146,0.549-6.246,1.394-9.28,2.534c-3.038,1.1-5.951,2.315-8.72,3.644l-0.069-0.072
				c0.068-2.719,0.119-5.415,0.133-8.087c0.028-2.714,0.076-5.43,0.145-8.148l0.072-0.069l0.134-0.057
				c3.041-0.012,6.121-0.039,9.248-0.091C851.83,17.503,854.991,17.476,858.16,17.519z"/>
			<path class="st5" d="M851.788-23.57l-0.677,16.013c-0.083,2.025-0.751,3.559-2.012,4.611c-1.252,1.041-2.988,1.506-5.196,1.416
				c-0.637-0.022-1.252-0.107-1.845-0.256c-0.592-0.139-1.184-0.368-1.787-0.687c-0.606-0.338-1.12-0.749-1.554-1.239
				c-0.414-0.503-0.756-1.146-1.005-1.942c-0.259-0.794-0.36-1.699-0.313-2.712l0.089-2.137l4.456,0.187l-0.086,2.076
				c-0.049,0.993,0.109,1.709,0.469,2.169c0.348,0.451,0.952,0.699,1.803,0.735c0.78,0.035,1.382-0.15,1.824-0.567
				c0.433-0.416,0.671-1.02,0.701-1.839l0.677-16.013L851.788-23.57z"/>
			<path class="st0" d="M856.924,29.167l0.06,0.074c-0.115,0.538-0.202,1.143-0.28,1.817c-0.066,0.603-0.115,1.193-0.137,1.75
				l-0.01,0.001c-0.027,0.023-0.063,0.059-0.091,0.082l-0.041-0.005c-2.976,0.548-5.91,1.423-8.816,2.617
				c-2.64,1.061-5.253,2.179-7.858,3.356c-0.259-0.301-0.508-0.603-0.765-0.894c-0.005-0.201-0.019-0.391-0.021-0.582
				c0.023-0.547,0.024-1.111,0.002-1.702l0.074-0.131c2.782-1.38,5.686-2.595,8.72-3.644
				C850.795,30.859,853.845,29.94,856.924,29.167z"/>
			<path class="st0" d="M856.557,32.809c0.003,0.03-0.004,0.051,0,0.081l-0.091,0.001C856.494,32.868,856.53,32.833,856.557,32.809z
				"/>
			<path class="st2" d="M824.474-27.077l27.417,1.156l-0.104,2.351l-4.456-0.187l-0.677,16.013c-0.03,0.82-0.269,1.423-0.701,1.839
				c-0.442,0.417-1.044,0.603-1.824,0.567c-0.851-0.036-1.455-0.284-1.803-0.735c-0.359-0.459-0.518-1.176-0.469-2.169l0.086-2.076
				l-4.456-0.187l-2.883-0.179c0.553-0.824,0.999-1.705,1.28-2.687c1.51-5.254-1.209-8.022-4.814-8.173
				c-3.596-0.151-4.745,2.459-5.369,5.085c-0.399-2.671-1.316-5.37-4.922-5.52c-2.835-0.114-5.255,1.423-5.639,4.685l-2.074-0.228
				C813.819-23.115,818.722-27.316,824.474-27.077z"/>
			<path class="st0" d="M854.306,34.82c-3.56,3.169-7.211,6.49-9.94,10.756c-1.104-2.091-2.415-3.984-3.845-5.773
				c2.316-1.071,4.688-2.028,7.093-2.868C849.867,36.163,852.097,35.455,854.306,34.82z"/>
			<path class="st4" d="M831.071-21.542c3.605,0.15,6.324,2.919,4.814,8.173c-0.281,0.982-0.728,1.863-1.28,2.687
				c-2.394,3.56-6.876,5.936-9.573,10.137c-2.865-5.431-8.664-8.333-9.727-13.693c-0.231-1.141-0.276-2.163-0.164-3.053
				c0.384-3.261,2.804-4.799,5.639-4.685c3.605,0.15,4.522,2.849,4.922,5.52C826.326-19.083,827.475-21.694,831.071-21.542z"/>
			<path class="st4" d="M847.609,35.503c2.906-1.194,5.841-2.069,8.816-2.617l0.041,0.005c-0.707,0.642-1.434,1.285-2.16,1.929
				c-2.209,0.635-4.439,1.343-6.692,2.114c-2.405,0.84-4.776,1.797-7.093,2.868c-0.251-0.321-0.511-0.632-0.771-0.942
				C842.356,37.682,844.969,36.564,847.609,35.503z"/>
			<path class="st0" d="M856.429,34.306c-0.155,2.669-0.451,5.335-0.881,7.987c-0.424,2.611-0.809,5.208-1.137,7.778
				c-0.331,2.388-0.95,4.721-1.859,6.989c-0.909,2.278-2.137,4.334-3.663,6.174c-1.486,1.836-3.266,3.345-5.356,4.529
				c-2.04,1.188-4.358,1.837-6.953,1.955l-0.13-0.075c-0.871-2.079-1.752-4.157-2.662-6.231c-0.91-2.074-1.795-4.182-2.66-6.302
				l0.203,0.016c1.043,0.042,2.021-0.118,2.941-0.494c0.923-0.365,1.743-0.899,2.454-1.592c0.71-0.702,1.257-1.494,1.661-2.381
				c0.444-0.891,0.688-1.857,0.732-2.891c0.013-0.143-0.014-0.271-0.052-0.417c0.004-0.132,0.019-0.265,0.021-0.406l0.047-1.013
				l-0.095-7.556l0.069,0.072c0.466-0.229,0.933-0.447,1.411-0.647c1.43,1.789,2.741,3.683,3.845,5.773
				c2.729-4.266,6.381-7.587,9.94-10.756c0.69-0.196,1.372-0.391,2.055-0.575L856.429,34.306z"/>
			<path class="st0" d="M839.75,38.86c-0.22,0.098-0.439,0.195-0.659,0.293l-0.059-0.063c-0.017-0.381-0.033-0.762-0.047-1.123
				C839.243,38.257,839.492,38.559,839.75,38.86z"/>
			<path class="st4" d="M838.986,37.966c-5.74-6.598-12.512-11.839-14.083-19.767c-2.125-10.71,3.749-15.776,10.96-15.476
				c7.201,0.302,9.035,5.698,9.844,11.04c1.246-5.262,3.526-10.47,10.737-10.169c7.201,0.302,12.639,5.838,9.609,16.337
				c-1.509,5.254-5.26,9.071-9.486,12.876c0.021-0.557,0.07-1.147,0.137-1.75c0.078-0.675,0.165-1.279,0.28-1.817l-0.06-0.074
				c-3.079,0.772-6.129,1.692-9.164,2.741c-3.034,1.049-5.938,2.264-8.72,3.644l-0.074,0.131c0.022,0.591,0.021,1.155-0.002,1.702
				C838.967,37.576,838.981,37.765,838.986,37.966z M847.755,30.478c3.034-1.14,6.134-1.985,9.28-2.534l0.146-0.128
				c0.161-1.713,0.346-3.408,0.554-5.076c0.211-1.719,0.393-3.434,0.555-5.146l-0.13-0.074c-3.169-0.043-6.33-0.017-9.462,0.077
				c-3.127,0.053-6.207,0.08-9.248,0.091l-0.134,0.057l-0.072,0.069c-0.068,2.718-0.116,5.435-0.145,8.148
				c-0.014,2.672-0.064,5.368-0.133,8.087l0.069,0.072C841.804,32.794,844.717,31.578,847.755,30.478z"/>
			<path class="st2" d="M839.091,39.153c0.22-0.098,0.439-0.195,0.659-0.293c0.26,0.311,0.52,0.621,0.771,0.942
				c-0.479,0.2-0.945,0.419-1.411,0.647l-0.069-0.072l0.095,7.556l-0.047,1.013c-0.002,0.142-0.017,0.274-0.021,0.406
				c0.038,0.146,0.064,0.274,0.052,0.417c-0.044,1.033-0.288,2-0.732,2.891c-0.404,0.887-0.951,1.679-1.661,2.381
				c-0.711,0.692-1.531,1.227-2.454,1.592c-0.921,0.376-1.898,0.536-2.941,0.494l-0.203-0.016c0.865,2.12,1.75,4.228,2.66,6.302
				c0.91,2.074,1.791,4.152,2.662,6.231l0.13,0.075c2.595-0.118,4.913-0.767,6.953-1.955c2.091-1.185,3.87-2.693,5.356-4.529
				c1.526-1.84,2.754-3.896,3.663-6.174c0.909-2.269,1.528-4.602,1.859-6.989c0.328-2.57,0.713-5.167,1.137-7.778
				c0.43-2.652,0.726-5.318,0.881-7.987l-0.068-0.062c-0.683,0.185-1.364,0.379-2.055,0.575c0.727-0.644,1.453-1.287,2.16-1.929
				l0.091-0.001c-0.004-0.03,0.003-0.051,0-0.081l0.01-0.001c4.227-3.805,7.978-7.623,9.486-12.876
				c3.029-10.499-2.408-16.036-9.609-16.337c-7.211-0.301-9.491,4.907-10.737,10.169c-0.809-5.341-2.643-10.737-9.844-11.04
				c-7.211-0.3-13.085,4.766-10.96,15.476c1.571,7.928,8.343,13.169,14.083,19.767c0.014,0.361,0.03,0.742,0.047,1.123
				L839.091,39.153z M815.305-14.24c1.063,5.36,6.862,8.263,9.727,13.693c2.697-4.201,7.18-6.577,9.573-10.137l2.883,0.179
				l-0.089,2.137c-0.047,1.013,0.055,1.918,0.313,2.712c0.249,0.795,0.591,1.439,1.005,1.942c0.434,0.491,0.947,0.901,1.554,1.239
				c0.604,0.319,1.195,0.548,1.787,0.687c0.593,0.149,1.208,0.234,1.845,0.256c2.208,0.091,3.944-0.375,5.196-1.416
				c1.261-1.052,1.929-2.585,2.012-4.611l0.677-16.013l0.104-2.351l18.403,0.776c6.086,0.248,10.821,5.397,10.563,11.485
				l-3.536,84.002c-0.258,6.087-5.408,10.822-11.495,10.564l-45.82-1.933c-6.087-0.257-10.821-5.397-10.564-11.494l3.537-83.993
				c0.018-0.345,0.047-0.681,0.087-1.008l2.074,0.228C815.028-16.402,815.074-15.38,815.305-14.24z"/>
		</g>
		<g>
		</g>
	</g>
	<g id="g15603" transform="translate(-1038.7801,42.714283)">
		<g id="XMLID_2_">
			<g>
				<path class="st3" d="M1859.941-75.67c6.557-0.757,12.476,3.944,13.233,10.5l10.402,90.336
					c0.756,6.547-3.945,12.466-10.492,13.222l-52.316,6.021c-6.556,0.758-12.476-3.943-13.232-10.49l-10.402-90.336
					c-0.756-6.547,3.944-12.476,10.502-13.224L1859.941-75.67z M1869.333-61.341c-0.697-6.07-6.18-10.413-12.25-9.715l-45.621,5.247
					c-6.069,0.708-10.421,6.19-9.715,12.25l9.628,83.64c0.697,6.07,6.181,10.423,12.251,9.726l45.62-5.257
					c6.07-0.697,10.422-6.181,9.725-12.251L1869.333-61.341z"/>
				<path class="st4" d="M1847.875-40.461c7.173-0.823,13.415,3.798,12.074,14.664c-0.838,6.773-5.497,11.901-10.092,17.536
					l-0.134-0.104c-1.575-2.97-3.207-5.832-4.899-8.606s-3.385-5.638-5.099-8.591l-0.063,0.068
					c-1.433,4.237-2.778,8.524-4.067,12.864c-0.685,2.292-1.379,4.593-2.091,6.908c-5.989-4.693-12.083-8.688-14.547-15.357
					c-3.773-10.266,1.25-16.194,8.421-17.027c7.173-0.823,9.84,4.219,11.474,9.388C1839.266-34.121,1840.702-39.638,1847.875-40.461
					z"/>
				<path class="st0" d="M1865.236,22.932l-0.183,0.153c-2.865,0.464-5.787,0.874-8.768,1.211c-2.97,0.346-5.987,0.718-9.052,1.115
					l-0.068-0.062c-0.574-1.391-1.12-2.795-1.645-4.19c-0.541-1.445-1.089-2.869-1.664-4.259l-0.927,7.771l-18.14,2.094l-0.017-0.14
					c0.854-2.966,1.621-5.982,2.323-9.031c0.742-3.054,1.557-6.096,2.444-9.117c1.479-1.401,3.134-2.693,4.966-3.856
					c1.865-1.217,3.818-2.294,5.861-3.21c0.21-0.097,0.43-0.194,0.641-0.281c0.515,0.582,1.014,1.195,1.485,1.833
					c0.456-1.044,0.968-2.044,1.514-3.008c0.859-0.308,1.72-0.595,2.597-0.844c2.162-0.609,4.306-1.034,6.411-1.284
					c2.198,4.183,4.252,8.343,6.186,12.508C1861.189,14.533,1863.206,18.729,1865.236,22.932z"/>
				<path class="st0" d="M1852.949-2.295l0.085,0.12c-0.01,0.001-0.01,0.001-0.02,0.002C1852.99-2.21,1852.974-2.258,1852.949-2.295
					z"/>
				<path class="st0" d="M1850.33-7.202c0.308,0.698,0.661,1.359,1.053,2.007c0.391,0.637,0.762,1.276,1.113,1.918l-0.052,0.147
					c-2.593,0.38-5.124,0.943-7.592,1.681c1.145-1.833,2.423-3.563,3.738-5.236c0.55-0.198,1.1-0.397,1.662-0.577L1850.33-7.202z"/>
				<path class="st5" d="M1835.361-65.409l9.947,20.709l-4.54,0.529l-1.925-4.176l-8.086,0.936l-0.947,4.5l-4.511,0.516
					l5.184-22.452L1835.361-65.409z M1837.194-51.921l-3.759-8.101l-1.854,8.752L1837.194-51.921z"/>
				<path class="st0" d="M1849.723-8.366l-0.07,0.009c-3.171,1.005-6.251,2.251-9.232,3.736c-1.138,0.573-2.263,1.176-3.375,1.807
					c-1.163-1.016-2.349-1.979-3.542-2.909c0.712-2.314,1.406-4.616,2.091-6.908c1.289-4.34,2.635-8.626,4.067-12.864l0.063-0.068
					c1.714,2.953,3.407,5.817,5.099,8.591S1848.148-11.336,1849.723-8.366z"/>
				<path class="st4" d="M1844.852-1.449c-0.296,0.46-0.571,0.927-0.845,1.404c-1.014,0.356-2.014,0.741-2.999,1.175
					c-0.271-0.319-0.552-0.637-0.841-0.934c0.143-0.068,0.297-0.128,0.451-0.187C1842.013-0.535,1843.424-1.021,1844.852-1.449z"/>
				<polygon class="st1" points="1833.435,-60.022 1837.194,-51.921 1831.581,-51.27 				"/>
				<path class="st0" d="M1844.007-0.045c-0.546,0.964-1.058,1.964-1.514,3.008c-0.471-0.638-0.97-1.251-1.485-1.833
					C1841.993,0.696,1842.994,0.312,1844.007-0.045z"/>
				<path class="st4" d="M1849.723-8.366l0.134,0.104c-0.419,0.524-0.848,1.051-1.267,1.576c-2.838,1.005-5.593,2.2-8.265,3.577
					c-0.768,0.388-1.525,0.783-2.28,1.198c-0.331-0.312-0.66-0.614-0.999-0.904c1.111-0.631,2.236-1.233,3.375-1.807
					c2.981-1.485,6.062-2.731,9.232-3.736L1849.723-8.366z"/>
				<path class="st0" d="M1840.619,0.01c-0.154,0.059-0.308,0.118-0.451,0.187c-0.685-0.732-1.395-1.431-2.123-2.106
					c0.755-0.415,1.512-0.811,2.28-1.198c2.672-1.377,5.426-2.572,8.265-3.577c-1.315,1.674-2.593,3.403-3.738,5.236
					C1843.424-1.021,1842.013-0.535,1840.619,0.01z"/>
				<polygon class="st0" points="1842.971,24.667 1842.918,24.815 1842.931,24.672 				"/>
				<path class="st0" d="M1830.962,2.429c2.324-1.586,4.674-3.034,7.083-4.339c0.728,0.676,1.438,1.374,2.123,2.106
					c-3.642,1.436-6.979,3.54-10.036,6.294l-0.147-0.053c0.241-0.664,0.421-1.321,0.532-1.979
					C1830.668,3.805,1830.817,3.131,1830.962,2.429z"/>
				<path class="st0" d="M1833.504-5.723c1.193,0.931,2.379,1.894,3.542,2.909c-1.773,0.983-3.507,2.033-5.224,3.151l-0.269,0.104
					C1832.216-1.625,1832.859-3.68,1833.504-5.723z"/>
				<path class="st4" d="M1818.852-61.36c3.587-0.412,6.713,1.904,6.041,7.327c-0.67,5.433-6.267,8.752-8.727,14.385
					c-3.69-4.926-9.877-6.894-11.768-12.021c-1.892-5.137,0.625-8.097,4.211-8.509c3.585-0.421,4.914,2.105,5.726,4.685
					C1814.547-58.189,1815.266-60.948,1818.852-61.36z"/>
				<path class="st2" d="M1830.483-64.848l-5.184,22.452l4.511-0.516l0.947-4.5l8.086-0.936l1.925,4.176l4.54-0.529l-9.947-20.709
					L1830.483-64.848z M1852.949-2.295c0.025,0.037,0.041,0.085,0.066,0.122c-2.105,0.25-4.25,0.675-6.411,1.284
					c-0.876,0.249-1.738,0.536-2.597,0.844c0.274-0.478,0.549-0.944,0.845-1.404c2.468-0.737,4.999-1.301,7.592-1.681l0.052-0.147
					c-0.351-0.642-0.722-1.281-1.113-1.918c-0.392-0.647-0.746-1.309-1.053-2.007l-0.078-0.061c-0.563,0.18-1.112,0.379-1.662,0.577
					c0.419-0.525,0.848-1.052,1.267-1.576c4.595-5.634,9.253-10.762,10.092-17.536c1.341-10.866-4.9-15.487-12.074-14.664
					c-7.173,0.823-8.609,6.34-9.022,11.741c-1.634-5.169-4.301-10.211-11.474-9.388c-7.172,0.833-12.195,6.762-8.421,17.027
					c2.464,6.669,8.558,10.664,14.547,15.357c-0.645,2.044-1.289,4.099-1.951,6.165l0.269-0.104
					c1.716-1.118,3.451-2.168,5.224-3.151c0.338,0.29,0.667,0.593,0.999,0.904c-2.409,1.305-4.759,2.753-7.083,4.339
					c-0.145,0.702-0.294,1.376-0.445,2.029c-0.11,0.658-0.291,1.315-0.532,1.979l0.147,0.053c3.056-2.754,6.394-4.858,10.036-6.294
					c0.289,0.297,0.57,0.614,0.841,0.934c-0.211,0.087-0.431,0.185-0.641,0.281c-2.043,0.916-3.996,1.993-5.861,3.21
					c-1.832,1.163-3.486,2.455-4.966,3.856c-0.887,3.021-1.702,6.063-2.444,9.117c-0.703,3.049-1.469,6.065-2.323,9.031l0.017,0.14
					l18.14-2.094l-0.013,0.143l0.053-0.147l-0.04,0.005l0.927-7.771c0.575,1.39,1.123,2.813,1.664,4.259
					c0.524,1.396,1.07,2.8,1.645,4.19l0.068,0.062c3.064-0.397,6.082-0.77,9.052-1.115c2.981-0.337,5.903-0.747,8.768-1.211
					l0.183-0.153c-2.029-4.203-4.047-8.398-6.035-12.597c-1.934-4.165-3.988-8.325-6.186-12.508c0.01-0.001,0.01-0.001,0.02-0.002
					L1852.949-2.295z M1801.747-53.56c-0.706-6.059,3.646-11.542,9.715-12.25l45.621-5.247c6.07-0.697,11.553,3.645,12.25,9.715
					l9.638,83.639c0.697,6.07-3.654,11.554-9.725,12.251l-45.62,5.257c-6.07,0.697-11.554-3.655-12.251-9.726L1801.747-53.56z
					 M1804.398-51.67c1.891,5.127,8.078,7.096,11.768,12.021c2.46-5.633,8.056-8.952,8.727-14.385
					c0.672-5.423-2.454-7.738-6.041-7.327c-3.586,0.412-4.305,3.17-4.517,5.866c-0.812-2.58-2.14-5.106-5.726-4.685
					C1805.023-59.767,1802.506-56.807,1804.398-51.67z"/>
			</g>
			<g>
			</g>
		</g>
	</g>
</g>
</svg>
