<?xml version="1.0" encoding="utf-8"?>
<!-- Generator: Adobe Illustrator 16.0.0, SVG Export Plug-In . SVG Version: 6.00 Build 0)  -->
<!DOCTYPE svg PUBLIC "-//W3C//DTD SVG 1.1//EN" "http://www.w3.org/Graphics/SVG/1.1/DTD/svg11.dtd">
<svg version="1.1" id="person-icon" xmlns="http://www.w3.org/2000/svg" xmlns:xlink="http://www.w3.org/1999/xlink" x="0px"
	 y="0px" width="144px" height="144px" viewBox="-6.314 -6.313 144 144" enable-background="new -6.314 -6.313 144 144"
	 xml:space="preserve">
<g id="Layer_1_2_">
	<g id="Layer_1_1_">
		<path fill="#6D373E" d="M-18.592,54.479c0,2.012,0,4.022,0,6.03C-19.215,59.367-19.215,55.626-18.592,54.479z"/>
		<path fill="#EECB9A" d="M16.459,97.448c1.391-0.627,5.39-0.627,6.787,0C20.98,97.448,18.722,97.448,16.459,97.448z"/>
		<path fill="#B58D7C" d="M14.954,97.448c0.502,0,1.001,0,1.505,0c2.262,0,4.521,0,6.784,0c0.756,0,1.509,0,2.264,0
			C22.863,98.074,17.593,98.074,14.954,97.448z"/>
		<g id="XMLID_1_">
			<g>
				<path fill="#F2CEA5" d="M-15.573,94.81c0.841,1.416,1.231,3.291,1.886,4.901C-14.743,98.494-15.256,96.735-15.573,94.81z"/>
			</g>
		</g>
		<path fill="#7392FF" d="M61.308,128.726c9.847,2.589,19.253,5.618,29.395,7.915c-2.131,5.161-8.598,9.235-12.813,13.565
			c-14.668,10.953-34.783,20.965-60.302,20.726c-25.111-0.234-45.41-9.515-59.545-21.11c-4.626-3.798-10.597-8.23-12.814-13.19
			c10.125-2.317,19.563-5.314,29.399-7.916C-16.609,161.346,52.538,161.326,61.308,128.726z"/>
		<path fill="#452228" d="M46.608,14.91c0.38,0,0.756,0,1.137,0c9.814,1.867,15.614,7.752,16.206,18.846c0,2.386,0,4.774,0,7.158
			c-0.507,6.027-1.286,11.784-3.392,16.206c-1.685,0.706-2.888,1.885-3.39,3.77c-0.715,2.05-1.962,3.563-2.264,6.027
			c-0.82,0.063-0.172-1.336-0.375-1.883c-0.829-15,3.023-34.678-10.929-36.557c-1.392-0.626-5.393-0.626-6.788,0
			c-2.665-0.153-4.405,0.623-6.41,1.13C35.762,24.665,41.588,20.188,46.608,14.91z"/>
		<path fill="#6D373E" d="M-21.604,16.039c0.542-1.339,1.526-2.242,2.637-3.015C-19.866,14.011-20.358,15.4-21.604,16.039z"/>
		<path fill="#452228" d="M57.163,60.889c0.507-1.887,1.708-3.064,3.384-3.77C59.153,58.103,58.08,59.418,57.163,60.889z"/>
		<path fill="#A17164" d="M25.502,97.448c2.218-0.422,4.286-0.994,6.407-1.506c-0.271,4.634-7.259,5.803-12.44,6.784
			c-7.774-0.759-13.536-3.539-15.451-10.176c3.334,1.947,6.223,4.335,10.931,4.9C17.593,98.074,22.863,98.074,25.502,97.448z"/>
		<path fill="#F2CEA5" d="M-18.592,54.479c0.708-17.132,6.799-28.881,23.369-30.15c7.753,2.356,15.916,11.831,25.629,5.279
			c2.005-0.51,3.738-1.285,6.41-1.131c2.263,0,4.525,0,6.788,0c13.952,1.878,10.097,21.556,10.929,36.558
			c-0.629,0.255-0.75,4.435,0.375,3.012c-2.479,7.7-1.609,18.74-3.39,27.14c-1.243,3.775-3.261,6.794-4.899,10.174
			c-9.203,7.335-20.015,19.532-37.309,13.943C1.816,115.49-4.5,110.501-10.667,105.36c-0.278-2.49-1.908-3.622-3.015-5.279
			c0-0.12,0-0.253,0-0.374c-0.655-1.612-1.037-3.484-1.886-4.897c-1.641-8.036-1.182-18.163-3.014-26.002
			c0.618-0.055,0.618-2.588,0-2.638c0-1.885,0-3.771,0-5.652C-18.592,58.502-18.592,56.492-18.592,54.479z M14.954,97.448
			c-4.711-0.566-7.597-2.956-10.933-4.897c1.914,6.629,7.673,9.417,15.453,10.176c5.178-0.981,12.169-2.15,12.438-6.788
			c-2.121,0.516-4.192,1.085-6.404,1.506c-0.755,0-1.51,0-2.264,0c-1.393-0.626-5.394-0.626-6.788,0
			C15.956,97.448,15.456,97.448,14.954,97.448z"/>
		<path fill="#452228" d="M36.81,28.476c1.39-0.626,5.385-0.626,6.788,0C41.334,28.476,39.072,28.476,36.81,28.476z"/>
		<path fill="#6D373E" d="M45.323,11.979c-0.705-0.772-1.275-1.7-1.711-2.664c-1.391-1.148-2.663-2.412-3.784-3.826
			C35.685,1.968,29.806,0.183,22.863-0.54h-6.403c-2.897,0.628-8.414,0.628-11.306,0C0.82-0.606-2.852-1.33-6.531-2.047
			c-0.104,3.121,1.184,4.851,1.509,7.54c-6.016,1.148-10.238,4.084-13.948,7.535c-0.899,0.987-1.391,2.378-2.638,3.015
			c-3.71,4.081-5.268,10.307-6.405,16.961v7.538c0.912,3.931,0.833,8.849,1.804,12.722c0.806,0.874,1.559,1.798,2.265,2.777
			c0.538,0.75,0.994,1.528,1.461,2.322c0.025,0.048,0.056,0.092,0.082,0.139c0.489,0.472,0.879,1.008,1.207,1.602
			c0.35,0.492,0.583,1.06,0.748,1.658c0.012,0.025,0.015,0.05,0.026,0.072c0.231,0.619,0.326,1.218,0.329,1.784
			c0.341,1.134,0.658,2.296,1.13,3.304c0.293-0.082,0.438-0.317,0.371-0.754v-5.652c-0.621-1.147-0.621-4.887,0-6.03
			c0.708-17.133,6.799-28.881,23.373-30.15c7.753,2.356,15.918,11.831,25.627,5.278c5.364-4.941,11.184-9.417,16.206-14.7
			C46.462,13.652,45.71,12.994,45.323,11.979z"/>
		<path fill="#F2CEA5" d="M-18.592,68.803c-0.317-0.438-0.496-1.009-0.374-1.887c0.292-0.082,0.437-0.317,0.374-0.754
			C-17.969,66.215-17.969,68.751-18.592,68.803z"/>
		<path fill="#F2CEA5" d="M54.905,68.047c-1.13,1.421-1.008-2.757-0.38-3.012c0.205,0.547-0.438,1.947,0.38,1.883
			C54.905,67.294,54.905,67.672,54.905,68.047z"/>
		<path fill="#D4B08C" d="M-10.676,105.36c6.164,5.138,12.479,10.135,19.978,13.947c17.296,5.591,28.104-6.612,37.307-13.947
			c0,2.01,0,4.017,0,6.031c0,0.119,0,0.249,0,0.366c-9.013,6.21-14.86,16.964-28.64,16.964c-13.907,0-19.382-10.548-28.645-16.585
			C-10.676,109.886-10.676,107.624-10.676,105.36z"/>
		<path fill="#E4C19C" d="M50.376,125.714c0.919,0.336,1.631,0.876,3.015,0.75c-5.326,12.016-16.623,18.05-32.789,19.225
			c-1.758,0-3.518,0-5.278,0c-16.185-1.154-27.452-7.224-32.792-19.225c1.381,0.126,2.095-0.414,3.016-0.75
			c1.507-0.003,2.263-0.756,3.773-0.756c0-4.271,0-8.543,0-12.813c9.259,6.029,14.734,16.581,28.641,16.581
			c13.782,0,19.626-10.754,28.64-16.959c0,4.147,0,8.294,0,12.435C46.962,125.604,49.046,125.283,50.376,125.714z"/>
		<path fill="#6D373E" d="M7.819,4.886c3.654,0,7.298,0,10.951,0C15.968,5.49,10.62,5.49,7.819,4.886z"/>
		<g id="XMLID_2_">
			<g>
				<path fill="#1549FF" d="M53.391,126.464c2.507,0.901,5.326,1.465,7.913,2.273c-8.769,32.589-77.92,32.612-86.675,0
					c2.586-0.809,5.404-1.374,7.912-2.273c5.335,12.009,16.599,18.073,32.79,19.22c0.891,0.63,4.378,0.63,5.266,0
					C36.772,144.514,48.065,138.482,53.391,126.464z"/>
				<path fill="#1549FF" d="M15.334,145.684h5.267C19.714,146.313,16.225,146.313,15.334,145.684z"/>
			</g>
		</g>
	</g>
</g>
</svg>
