<?xml version="1.0" encoding="utf-8"?>
<!-- Generator: Adobe Illustrator 16.0.0, SVG Export Plug-In . SVG Version: 6.00 Build 0)  -->
<!DOCTYPE svg PUBLIC "-//W3C//DTD SVG 1.1//EN" "http://www.w3.org/Graphics/SVG/1.1/DTD/svg11.dtd">
<svg version="1.1" id="Layer_1" xmlns="http://www.w3.org/2000/svg" xmlns:xlink="http://www.w3.org/1999/xlink" x="0px" y="0px"
	 width="144px" height="144px" viewBox="0 0 144 144" enable-background="new 0 0 144 144" xml:space="preserve">
<g>
	<path fill="#0E786F" d="M101.652,71.998c0,10.672,0.009,21.352-0.004,32.026c-0.002,3.549-2.116,6.318-5.444,7.145
		c-0.623,0.154-1.283,0.23-1.925,0.23c-14.857,0.014-29.715,0.018-44.572,0.008c-4.292-0.004-7.339-3.063-7.341-7.385
		c-0.011-20.26-0.009-40.52-0.003-60.779c0-1.583-0.106-3.19,0.119-4.745c0.479-3.318,3.306-5.718,6.686-5.895
		c0.208-0.011,0.415-0.013,0.624-0.013c14.831,0,29.662-0.003,44.494,0.002c3.202,0.001,5.922,1.806,6.93,4.713
		c0.315,0.909,0.425,1.931,0.427,2.901c0.027,10.597,0.02,21.194,0.02,31.792C101.657,71.998,101.654,71.998,101.652,71.998z
		 M46.279,71.932c0,10.598,0,21.195,0,31.791c0,2.645,1.222,3.881,3.832,3.881c14.625,0,29.248,0,43.871,0
		c2.433,0,3.75-1.32,3.75-3.752c0.002-21.17-0.016-42.337,0.033-63.505c0.006-2.083-1.19-4.019-3.969-3.991
		c-8.701,0.088-17.402,0.033-26.104,0.033c-5.973,0.001-11.947-0.006-17.922,0.008c-2.168,0.005-3.461,1.332-3.49,3.511
		c-0.004,0.285-0.004,0.571-0.004,0.856C46.279,51.152,46.279,61.542,46.279,71.932z"/>
	<path fill="#AAE7E3" d="M46.279,71.932c0-10.39,0-20.779,0-31.169c0-0.286,0-0.572,0.004-0.856c0.027-2.179,1.322-3.506,3.49-3.511
		c5.974-0.015,11.947-0.007,17.922-0.008c8.699,0,17.402,0.057,26.103-0.033c2.778-0.027,3.976,1.909,3.97,3.991
		c-0.047,21.168-0.029,42.336-0.031,63.506c0,2.432-1.319,3.752-3.752,3.752c-14.623,0-29.246,0-43.869,0
		c-2.611,0-3.833-1.236-3.833-3.881C46.279,93.127,46.279,82.529,46.279,71.932z M70.248,69.923c-0.063,0.01-0.126,0.02-0.189,0.029
		c-1.17-3.818-2.338-7.635-3.57-11.658c-1.518,0.486-3.045,0.877-4.486,1.476c-0.836,0.346-1.277,1.165-1.338,2.136
		c-0.135,2.229-0.314,4.453-0.434,6.681c-0.017,0.307,0.142,0.717,0.362,0.926c6.187,5.863,16.492,5.871,22.665,0.013
		c0.253-0.241,0.436-0.709,0.418-1.061c-0.109-2.281-0.283-4.56-0.439-6.838c-0.061-0.856-0.541-1.55-1.252-1.851
		c-1.392-0.585-2.859-0.986-4.381-1.493c-1.242,4.033-2.422,7.86-3.602,11.688c-0.167-0.153-0.207-0.276-0.216-0.401
		c-0.074-1.219-0.236-2.44-0.194-3.653c0.047-1.429-0.236-2.667-1.354-3.632c-0.026-0.024-0.016-0.096-0.016-0.117
		c0.28-0.293,0.549-0.572,0.818-0.852c0.925-0.967,0.641-2.134-0.65-2.549c-0.82-0.264-1.207,0.404-1.656,0.889
		c-0.412,0.448-0.328,0.884,0.065,1.306c0.382,0.407,0.752,0.826,1.193,1.313c-1.459,0.938-1.563,2.326-1.552,3.809
		C70.454,67.362,70.318,68.643,70.248,69.923z M72.012,83.32c2.777,0,5.557,0.002,8.334,0c2.777,0,5.557,0.012,8.334-0.014
		c1.475-0.016,2.26-1.207,1.664-2.492c-0.365-0.787-1.048-0.988-1.863-0.988c-7.787,0.01-15.578,0.004-23.367,0.004
		c-3.244,0-6.49-0.008-9.735,0.006c-1.364,0.006-2.177,1.1-1.794,2.354c0.242,0.785,0.836,1.129,1.992,1.131
		C61.055,83.322,66.532,83.32,72.012,83.32z M71.932,91.457c0.906,0,1.816,0,2.725,0c4.646,0,9.295,0.004,13.941-0.004
		c1.063,0,1.698-0.479,1.879-1.383c0.26-1.283-0.543-2.098-2.076-2.098c-9.348,0-18.691,0-28.039,0
		c-1.688,0-3.375-0.006-5.063,0.018c-1.041,0.016-1.639,0.502-1.776,1.383c-0.189,1.211,0.586,2.078,1.895,2.08
		C60.921,91.461,66.425,91.457,71.932,91.457z M71.979,99.422c1.53,0,3.063,0.002,4.596,0c4.049,0,8.1,0.002,12.15-0.002
		c0.979-0.002,1.596-0.471,1.76-1.307c0.229-1.176-0.519-2.121-1.736-2.125c-3.659-0.016-7.321-0.01-10.98-0.01
		c-7.426-0.002-14.85-0.006-22.274,0.012c-0.423,0-0.892,0.088-1.255,0.291c-0.643,0.357-0.885,1.242-0.658,1.994
		c0.227,0.75,0.809,1.145,1.732,1.145C60.866,99.426,66.421,99.422,71.979,99.422z M77.301,48.479c0-0.234,0.012-0.468-0.002-0.7
		c-0.156-2.678-2.176-4.742-4.814-4.927c-3.183-0.223-5.519,1.324-6.008,4.152c-0.511,2.93,0.295,5.576,2.297,7.768
		c1.903,2.084,4.322,2.014,6.205-0.105C76.537,52.911,77.254,50.813,77.301,48.479z"/>
	<path fill="#07262D" d="M70.248,69.923c0.07-1.279,0.206-2.561,0.193-3.841c-0.012-1.482,0.093-2.871,1.552-3.809
		c-0.441-0.486-0.813-0.905-1.193-1.313c-0.396-0.422-0.479-0.858-0.065-1.306c0.449-0.485,0.836-1.153,1.656-0.89
		c1.291,0.415,1.574,1.583,0.65,2.549c-0.27,0.281-0.538,0.559-0.818,0.852c0,0.021-0.013,0.093,0.016,0.117
		c1.117,0.963,1.4,2.202,1.354,3.632c-0.042,1.214,0.12,2.434,0.194,3.653c0.009,0.124,0.049,0.247,0.216,0.401
		c1.178-3.828,2.357-7.655,3.602-11.688c1.521,0.507,2.989,0.908,4.381,1.493c0.711,0.301,1.191,0.995,1.252,1.851
		c0.156,2.279,0.33,4.557,0.439,6.837c0.018,0.352-0.165,0.82-0.418,1.062c-6.172,5.857-16.479,5.85-22.665-0.013
		c-0.223-0.209-0.379-0.618-0.362-0.926c0.117-2.228,0.299-4.453,0.434-6.681c0.061-0.971,0.502-1.791,1.338-2.136
		c1.441-0.598,2.969-0.989,4.486-1.476c1.232,4.023,2.402,7.84,3.57,11.658C70.122,69.942,70.186,69.934,70.248,69.923z"/>
	<path fill="#07262D" d="M72.012,83.32c-5.479,0-10.957,0.002-16.437,0c-1.156-0.002-1.75-0.346-1.992-1.131
		c-0.384-1.254,0.431-2.35,1.794-2.355c3.245-0.014,6.491-0.006,9.734-0.006c7.789,0,15.578,0.006,23.367-0.004
		c0.816,0,1.5,0.201,1.864,0.988c0.597,1.285-0.188,2.479-1.665,2.492c-2.777,0.023-5.556,0.014-8.334,0.014
		C77.566,83.322,74.787,83.32,72.012,83.32z"/>
	<path fill="#07262D" d="M71.932,91.457c-5.507,0-11.01,0.004-16.515-0.004c-1.308-0.002-2.084-0.869-1.894-2.08
		c0.138-0.883,0.735-1.369,1.777-1.383c1.688-0.021,3.375-0.018,5.063-0.018c9.347,0,18.691,0,28.039,0
		c1.533,0,2.334,0.813,2.076,2.098c-0.182,0.902-0.813,1.383-1.879,1.383c-4.647,0.008-9.295,0.004-13.94,0.004
		C73.749,91.457,72.838,91.457,71.932,91.457z"/>
	<path fill="#07262D" d="M71.979,99.422c-5.556,0-11.111,0.004-16.668,0c-0.924,0-1.506-0.396-1.731-1.146
		c-0.226-0.752,0.017-1.635,0.659-1.994c0.361-0.203,0.832-0.291,1.254-0.291c7.426-0.018,14.85-0.014,22.275-0.012
		c3.658,0,7.32-0.006,10.979,0.01c1.217,0.004,1.967,0.947,1.737,2.125c-0.164,0.838-0.78,1.305-1.762,1.307
		c-4.051,0.004-8.102,0.002-12.149,0.002C75.04,99.424,73.507,99.422,71.979,99.422z"/>
	<path fill="#F2CEA5" d="M77.301,48.479c-0.047,2.333-0.764,4.433-2.322,6.188c-1.883,2.119-4.304,2.189-6.207,0.105
		c-2-2.192-2.807-4.837-2.297-7.768c0.489-2.828,2.827-4.375,6.01-4.152c2.64,0.186,4.658,2.249,4.813,4.927
		C77.313,48.012,77.301,48.246,77.301,48.479z"/>
</g>
</svg>
