<?xml version="1.0" encoding="utf-8"?>
<!-- Generator: Adobe Illustrator 16.0.0, SVG Export Plug-In . SVG Version: 6.00 Build 0)  -->
<!DOCTYPE svg PUBLIC "-//W3C//DTD SVG 1.1//EN" "http://www.w3.org/Graphics/SVG/1.1/DTD/svg11.dtd">
<svg version="1.1" id="Layer_1" xmlns="http://www.w3.org/2000/svg" xmlns:xlink="http://www.w3.org/1999/xlink" x="0px" y="0px"
	 width="144px" height="144px" viewBox="0 0 144 144" enable-background="new 0 0 144 144" xml:space="preserve">
<g>
	<path fill="#C5C866" d="M41.342,69.136h5.771c0-7.31,0-14.635,0-22.097c8.292,0,16.479,0,24.882,0c0,0.467,0,0.904,0,1.345
		c0,3.099,0,6.202,0.009,9.301c0.007,2.191,1.025,3.197,3.246,3.205c3.384,0.013,6.759,0.004,10.142,0.013
		c0.084,0,0.178,0.03,0.501,0.089c0,1.313,0,2.684,0,4.049c0,1.31,0,2.618,0,4.016l5.552-0.017
		c-0.001-3.068-0.108-6.091,0.043-9.101c0.103-2.124-0.584-3.659-2.119-5.125c-4.07-3.905-8.038-7.933-11.989-11.96
		c-0.983-1.004-2.052-1.433-3.443-1.429c-8.377,0.034-16.758,0.017-25.14,0.017c-0.542,0-1.085,0-1.755,0h-5.601
		c0.002,3.916-0.001,7.833-0.034,11.749c-0.002,0.212-0.026,0.431-0.063,0.651v10.842C41.342,66.381,41.342,67.704,41.342,69.136z
		 M77.641,51.193c1.391,1.396,2.654,2.658,4.011,4.019c-1.349,0-2.637,0-4.011,0C77.641,53.933,77.641,52.665,77.641,51.193z"/>
	<path fill="#DCDEA3" d="M85.892,60.992c-0.323-0.059-0.417-0.089-0.501-0.089c-3.383-0.009-6.758,0-10.142-0.013
		c-2.221-0.008-3.239-1.013-3.246-3.205c-0.009-3.1-0.009-6.202-0.009-9.301c0-0.441,0-0.878,0-1.345c-8.403,0-16.59,0-24.882,0
		c0,7.462,0,14.788,0,22.097c12.964,0,25.805,0,38.779,0c0-0.027,0-0.052,0-0.079c0-1.398,0-2.707,0-4.016
		C85.892,63.675,85.892,62.305,85.892,60.992z"/>
	<path fill="#D1D385" d="M95.481,49.783c-3.096-0.005-6.207,0.088-9.302-0.064c-0.892-0.042-1.874-0.637-2.578-1.255
		c-0.406-0.365-0.458-1.271-0.467-1.938c-0.042-3.502-0.026-7.009-0.026-10.536c-12.106,0-24.066,0-36.068,0
		c0,1.815,0,3.515,0,5.452c0.67,0,1.213,0,1.755,0c8.382,0,16.763,0.017,25.14-0.017c1.392-0.004,2.46,0.424,3.443,1.429
		c3.951,4.027,7.919,8.055,11.989,11.96c1.535,1.466,2.222,3.001,2.119,5.125c-0.151,3.01-0.044,6.033-0.043,9.101l0.161,0l-0.161,0
		c0,0.026,0.001,0.052,0.001,0.079c1.859,0,3.563,0,5.274,0c0.026,0,0.052,0,0.078,0c0.042,0,0.084,0,0.126,0
		c0-6.482,0-12.85,0-19.336C96.389,49.783,95.939,49.783,95.481,49.783z"/>
	<path fill="#FFFFFF" d="M77.641,51.193c0,1.472,0,2.739,0,4.019c1.374,0,2.662,0,4.011,0
		C80.295,53.852,79.031,52.589,77.641,51.193z"/>
	<path fill="#FFFFFF" d="M38.349,69.174c1.137,0,1.992,0,2.993,0c0-0.013,0-0.025,0-0.038h-0.139h0.139c0-1.432,0-2.754,0-4.452
		C40.243,66.333,39.354,67.669,38.349,69.174z"/>
	<path fill="#FFFFFF" d="M88.773,40.18c0,1.349,0,2.646,0,3.989c1.341,0,2.586,0,3.9,0C91.351,42.816,90.089,41.528,88.773,40.18z"
		/>
	<path fill="#D85005" d="M35.919,108.012c24.132,0,48.123,0,72.11,0c0-11.106,0-22.096,0-33.11c-24.088,0-48.075,0-72.11,0
		C35.919,85.975,35.919,96.938,35.919,108.012z M58.664,88.681c8.892-0.01,17.772-0.01,26.667,0c2.086,0,3.374,1.102,3.332,2.839
		c-0.033,1.68-1.28,2.706-3.332,2.714c-4.443,0.009-8.886,0-13.328,0c-4.447,0-8.892,0.009-13.334,0
		c-2.094,0-3.379-1.11-3.337-2.849C55.366,89.714,56.63,88.681,58.664,88.681z"/>
	<path fill="#B44224" d="M58.669,94.233c4.442,0.009,8.887,0,13.334,0c4.442,0,8.885,0.009,13.328,0
		c2.052-0.008,3.299-1.034,3.332-2.714c0.042-1.737-1.246-2.839-3.332-2.839c-8.895-0.01-17.775-0.01-26.667,0
		c-2.034,0-3.298,1.033-3.332,2.704C55.29,93.123,56.575,94.233,58.669,94.233z"/>
	<path fill="#FFFFFF" d="M102.735,69.119h0.078H102.735h-0.082c0,0.01,0,0.02,0,0.03c0.977,0,1.858,0,2.969,0
		c-1.001-1.497-1.892-2.828-2.969-4.443c0,1.705,0,3.033,0,4.413H102.735z"/>
	<path fill="#B2B533" d="M47.04,35.99c12.002,0,23.962,0,36.068,0c0,3.527-0.016,7.034,0.026,10.536
		c0.009,0.666,0.061,1.573,0.467,1.938c0.704,0.618,1.687,1.212,2.578,1.255c3.095,0.152,6.206,0.059,9.302,0.064
		c0.458,0,0.907,0,1.441,0c0,6.486,0,12.854,0,19.336h5.73c0-1.38,0-2.708,0-4.413V52.815c-0.327-1.611-0.38-3.306-0.11-5.114
		c0.195-1.28-0.381-2.29-1.305-3.201c-4.282-4.231-8.547-8.479-12.762-12.773c-0.992-1.009-2.06-1.416-3.441-1.412
		c-13.39,0.025-26.769,0.013-40.149,0.017c-2.506,0-3.451,0.941-3.451,3.413c0,2.566,0.003,5.132,0.005,7.699h5.601
		C47.04,39.505,47.04,37.806,47.04,35.99z M88.773,40.18c1.315,1.349,2.577,2.637,3.9,3.989c-1.314,0-2.56,0-3.9,0
		C88.773,42.825,88.773,41.528,88.773,40.18z"/>
	<path fill="#A23C04" d="M113.634,72.893c-0.008-1.087-0.406-2.29-0.982-3.215c-1.985-3.179-3.936-6.414-6.259-9.339
		c-1.874-2.363-3.192-4.825-3.739-7.524v11.891c1.077,1.615,1.968,2.946,2.969,4.443c-1.11,0-1.992,0-2.969,0c0-0.01,0-0.02,0-0.03
		h-5.73c-0.042,0-0.084,0-0.126,0c-0.026,0-0.052,0-0.078,0c-1.712,0-3.415,0-5.274,0c0-0.026-0.001-0.052-0.001-0.079l-5.552,0.017
		c0,0.027,0,0.052,0,0.079c-12.975,0-25.815,0-38.779,0h-5.771c0,0.013,0,0.025,0,0.038c-1.001,0-1.856,0-2.993,0
		c1.005-1.504,1.895-2.84,2.993-4.49V53.842c-0.099,0.586-0.314,1.179-0.619,1.65c-3.087,4.728-6.287,9.382-9.336,14.135
		c-0.61,0.95-1.013,2.213-1.021,3.333c-0.068,12.413-0.043,24.818-0.043,37.23c0,2.569,0.916,3.485,3.51,3.495
		c12.736,0,25.468,0,38.203,0c12.736,0,25.462,0,38.197-0.01c2.502,0,3.443-0.941,3.443-3.417
		C113.677,97.804,113.702,85.348,113.634,72.893z M108.029,108.012c-23.987,0-47.979,0-72.11,0c0-11.073,0-22.037,0-33.11
		c24.035,0,48.022,0,72.11,0C108.029,85.916,108.029,96.905,108.029,108.012z"/>
</g>
</svg>
