<?xml version="1.0" encoding="utf-8"?>
<!-- Generator: Adobe Illustrator 16.0.0, SVG Export Plug-In . SVG Version: 6.00 Build 0)  -->
<!DOCTYPE svg PUBLIC "-//W3C//DTD SVG 1.1//EN" "http://www.w3.org/Graphics/SVG/1.1/DTD/svg11.dtd">
<svg version="1.1" id="Layer_1" xmlns="http://www.w3.org/2000/svg" xmlns:xlink="http://www.w3.org/1999/xlink" x="0px" y="0px"
	 width="144px" height="72px" viewBox="0 0 144 72" enable-background="new 0 0 144 72" xml:space="preserve">
<path fill-rule="evenodd" clip-rule="evenodd" fill="#463535" d="M128.309,57.854c-0.477-1.019-1.448-1.176-2.075-1.86
	c2.224-0.877,4.394-1.625,6.461-2.591c1.306-0.612,1.496,0.046,1.546,1.012c0.155,2.989-0.647,5.721-2.338,8.353
	c-0.896-0.755-0.603-2.115-1.505-2.645c-6.188,5.256-13.55,7.455-21.422,8.319c-2.263,0.249-4.511,0.523-6.553,1.601
	c-0.899,0.473-1.355,0.293-1.782-0.634c-0.995-2.157-2.605-3.847-4.336-5.447c-4.325-3.999-7.589-8.764-10-14.117
	c-0.786-1.742-1.397-3.549-1.434-5.487c-1.187-0.172-1.788,0.929-2.956,1.07c0.183-3.208,1.342-5.894,3.48-8.203
	c0.686-0.739,1.003-0.668,1.493,0.23c1.109,2.038,2.354,4.003,3.543,6.001c-0.109,0.406-0.417,0.245-0.668,0.225
	c-0.609-0.05-1.354-0.502-1.774,0.146c-0.396,0.612,0.206,1.211,0.514,1.732c1.933,3.284,4.415,6.08,7.674,8.091
	c3.808,2.348,6.871,1.315,8.42-2.858c3.569-9.607,7.034-19.255,10.646-28.848c0.625-1.661,0.1-2.261-1.341-2.83
	c-2.957-1.169-5.86-2.474-8.793-3.709c-0.719-0.303-1.525-0.435-1.161-1.594c0.383-1.215,1.13-0.968,2.008-0.725
	c3.199,0.891,6.446,1.639,9.604,2.656c1.556,0.5,2.115,0.04,2.539-1.369c0.481-1.599,0.98-2.9-0.109-4.684
	c-1.608-2.632-0.063-5.983,2.796-7.186c2.846-1.198,6.085,0.164,7.185,3.019c1.129,2.93-0.229,6.011-3.147,7.142
	c-1.053,0.409-3.093,3.988-2.769,4.927c0.183,0.537,0.755,0.583,1.201,0.773c3.192,1.35,6.382,2.705,9.575,4.053
	c0.708,0.299,1.525,0.449,1.182,1.59c-0.354,1.181-1.031,1.029-1.97,0.762c-3.062-0.875-6.164-1.6-9.217-2.5
	c-1.511-0.446-2.301-0.2-2.813,1.439c-3.021,9.648-6.16,19.257-9.211,28.896c-1.479,4.673,0.445,7.55,5.313,7.822
	C120.387,60.663,124.525,60.054,128.309,57.854z M125.488,7.453c-0.158-1.674-1.104-2.643-2.734-2.599
	c-1.626,0.044-2.637,1.057-2.568,2.726c0.066,1.631,1.076,2.648,2.72,2.615C124.563,10.162,125.397,9.099,125.488,7.453z"/>
<path fill-rule="evenodd" clip-rule="evenodd" fill="#463535" d="M52.661,43.661c1.28-2.152,2.523-4.112,3.626-6.15
	c0.547-1.013,0.921-1.011,1.642-0.202c2.049,2.301,3.19,4.948,3.377,8.024c-0.222,0.039-0.386,0.124-0.471,0.073
	c-2.185-1.283-2.057-1.247-2.793,1.188c-1.773,5.866-4.978,10.915-9.165,15.354c-2.323,2.465-5.051,4.589-6.495,7.785
	c-0.232,0.512-0.543,0.787-1.147,0.471c-3.89-2.034-8.3-1.577-12.405-2.579c-5.818-1.42-11.391-3.368-15.976-7.53
	c-0.765,0.672-0.885,1.674-1.357,2.872c-1.99-2.935-2.824-5.909-2.359-9.243c0.144-1.027,0.73-0.563,1.217-0.357
	c2.144,0.914,4.281,1.844,6.556,2.445c-0.017,0.121,0.008,0.265-0.053,0.336c-0.521,0.619-1.856,0.679-1.688,1.645
	c0.149,0.854,1.325,0.957,2.088,1.224c3.375,1.183,6.86,1.751,10.438,1.377c4.108-0.431,6.135-3.21,4.919-7.124
	c-3.104-9.991-6.387-19.928-9.549-29.9c-0.443-1.397-1.267-1.497-2.44-1.176c-3.137,0.86-6.289,1.669-9.417,2.563
	c-0.919,0.262-1.642,0.446-1.993-0.741c-0.328-1.107,0.444-1.311,1.183-1.619c3.13-1.306,6.238-2.671,9.387-3.925
	c1.101-0.439,1.599-0.833,1.082-2.146c-0.684-1.736-0.949-3.36-3.24-4.17c-2.769-0.978-3.518-4.565-2.081-7.26
	c1.385-2.597,4.696-3.59,7.335-2.2c2.642,1.392,3.908,4.758,2.213,7.246c-1.563,2.295,0.116,3.822,0.582,5.651
	c0.222,0.869,0.884,0.363,1.394,0.227c3.417-0.913,6.846-1.781,10.247-2.753c0.968-0.276,1.636-0.327,1.981,0.782
	c0.354,1.138-0.534,1.29-1.229,1.585c-2.928,1.244-5.838,2.533-8.798,3.694c-1.462,0.573-1.906,1.225-1.3,2.841
	c3.499,9.331,6.874,18.709,10.312,28.064c1.929,5.251,5.357,6.282,9.854,2.902c2.449-1.841,4.563-4.042,6.162-6.683
	c0.458-0.758,1.377-1.61,0.902-2.438C54.722,42.982,53.635,43.885,52.661,43.661z M23.062,7.654
	c-0.013-1.642-1.277-2.956-2.701-2.827c-1.61,0.146-2.668,1.059-2.627,2.731c0.039,1.62,0.974,2.681,2.671,2.64
	C22.07,10.159,22.895,9.094,23.062,7.654z"/>
</svg>
