<?xml version="1.0" encoding="utf-8"?>
<!-- Generator: Adobe Illustrator 16.0.0, SVG Export Plug-In . SVG Version: 6.00 Build 0)  -->
<!DOCTYPE svg PUBLIC "-//W3C//DTD SVG 1.1//EN" "http://www.w3.org/Graphics/SVG/1.1/DTD/svg11.dtd">
<svg version="1.1" id="Layer_1" xmlns="http://www.w3.org/2000/svg" xmlns:xlink="http://www.w3.org/1999/xlink" x="0px" y="0px"
	 width="144px" height="144px" viewBox="0 0 144 144" enable-background="new 0 0 144 144" xml:space="preserve">
<g>
	<path fill-rule="evenodd" clip-rule="evenodd" fill="#EC2325" d="M110.67,132.613c-4.448-0.355-8.778-3.005-13.077-5.475
		c-16.656-9.568-33.177-9.324-49.707,0.206c-0.868,0.5-1.73,1.013-2.608,1.498c-13.641,7.509-29.9-0.467-32.434-15.925
		c-0.747-4.557,1.111-8.472,3.379-12.157c5.843-9.488,9.107-19.578,8.517-30.885c-0.463-8.85-3.717-16.601-8.021-24.137
		c-8.007-14.019-0.198-29.858,15.792-32.446c5.67-0.917,10.016,2.065,14.469,4.604c11.573,6.6,23.662,9.531,36.937,6.32
		c6.214-1.503,12.227-3.977,17.14-7.57c11.658-8.531,26.175,0.973,30.521,10.789c3.219,7.271,0.791,13.352-3.022,19.374
		c-7.252,11.456-8.8,23.801-6.235,36.991c1.427,7.351,5.38,13.417,8.903,19.704c3.059,5.459,2.258,13.192-2.597,19.437
		C124.426,128.349,116.81,132.627,110.67,132.613z"/>
</g>
</svg>
