<?xml version="1.0" encoding="utf-8"?>
<!-- Generator: Adobe Illustrator 16.0.0, SVG Export Plug-In . SVG Version: 6.00 Build 0)  -->
<!DOCTYPE svg PUBLIC "-//W3C//DTD SVG 1.1//EN" "http://www.w3.org/Graphics/SVG/1.1/DTD/svg11.dtd">
<svg version="1.1" id="Layer_1" xmlns="http://www.w3.org/2000/svg" xmlns:xlink="http://www.w3.org/1999/xlink" x="0px" y="0px"
	 width="144px" height="144px" viewBox="12.5 5.5 144 144" enable-background="new 12.5 5.5 144 144" xml:space="preserve">
<title>logo-alpha-color</title>
<desc>Created with Sketch.</desc>
<g id="Styles">
	<g id="Style-Guide-Light-Mode" transform="translate(-339.000000, -1929.000000)">
		<g id="Atoms_x2F_Illustrations_x2F_logo-alpha-color" transform="translate(333.000000, 1916.000000)">
			<g id="Group" transform="translate(6.000000, 13.000000)">
				<path id="Combined-Shape" opacity="0.5" fill="#3883F2" enable-background="new    " d="M55.512,47.841
					c6.413,0,9.619,3.73,9.619,11.191v13.697c0,1.039-0.308,1.856-0.922,2.45c-0.615,0.594-1.464,0.891-2.545,0.891
					s-1.939-0.297-2.573-0.891c-0.634-0.593-0.951-1.411-0.951-2.45V59.032c0-1.967-0.401-3.405-1.202-4.315
					c-0.802-0.909-2.061-1.364-3.775-1.364c-2.013,0-3.626,0.631-4.838,1.894c-1.211,1.262-1.817,2.951-1.817,5.066v12.416
					c0,1.039-0.317,1.856-0.951,2.45c-0.634,0.594-1.492,0.891-2.573,0.891s-1.929-0.297-2.545-0.891
					c-0.615-0.593-0.922-1.411-0.922-2.45V39.434c0-0.965,0.326-1.745,0.979-2.338c0.653-0.594,1.501-0.891,2.544-0.891
					c1.044,0,1.883,0.279,2.517,0.835c0.634,0.557,0.951,1.318,0.951,2.283v12.973c0.932-1.447,2.172-2.551,3.719-3.313
					C51.774,48.221,53.535,47.841,55.512,47.841z M92.074,47.953c1.081,0,1.938,0.296,2.572,0.89c0.634,0.594,0.95,1.393,0.95,2.395
					V72.84c0,0.965-0.326,1.745-0.979,2.338c-0.652,0.594-1.5,0.891-2.544,0.891c-1.008,0-1.809-0.279-2.405-0.835
					s-0.895-1.317-0.895-2.283v-1.392c-0.857,1.485-2.014,2.626-3.468,3.425c-1.454,0.798-3.094,1.197-4.922,1.197
					c-6.711,0-10.066-3.749-10.066-11.247V51.237c0-1.002,0.317-1.8,0.951-2.395c0.634-0.594,1.473-0.89,2.517-0.89
					c1.082,0,1.939,0.296,2.573,0.89c0.634,0.594,0.951,1.393,0.951,2.395v13.752c0,1.93,0.392,3.359,1.174,4.287
					c0.784,0.928,2.014,1.392,3.692,1.392c1.938,0,3.496-0.64,4.669-1.921c1.175-1.281,1.761-2.979,1.761-5.095V51.237
					c0-1.002,0.317-1.8,0.951-2.395C90.19,48.249,91.029,47.953,92.074,47.953z M116.835,47.841c2.387,0,4.493,0.575,6.32,1.726
					c1.827,1.15,3.252,2.784,4.278,4.899c1.025,2.116,1.538,4.584,1.538,7.405s-0.513,5.317-1.538,7.489
					c-1.026,2.171-2.462,3.851-4.307,5.039c-1.846,1.188-3.943,1.782-6.292,1.782c-1.976,0-3.737-0.427-5.284-1.281
					c-1.548-0.854-2.731-2.042-3.552-3.563v1.392c0,1.002-0.316,1.8-0.95,2.394c-0.635,0.594-1.473,0.891-2.518,0.891
					c-1.044,0-1.873-0.297-2.488-0.891s-0.923-1.392-0.923-2.394V39.434c0-0.965,0.326-1.745,0.979-2.338
					c0.653-0.594,1.501-0.891,2.545-0.891s1.884,0.279,2.517,0.835c0.634,0.557,0.951,1.318,0.951,2.283v13.14
					c0.82-1.485,1.995-2.626,3.522-3.424C113.163,48.24,114.896,47.841,116.835,47.841z M114.989,70.78
					c2.2,0,3.916-0.779,5.146-2.338c1.23-1.559,1.846-3.749,1.846-6.57c0-2.784-0.605-4.918-1.817-6.403s-2.936-2.227-5.174-2.227
					c-2.235,0-3.961,0.751-5.173,2.255s-1.817,3.665-1.817,6.486s0.605,4.992,1.817,6.514S112.754,70.78,114.989,70.78z
					 M115.004,56.428c0.51-0.345,1.126-0.546,1.787-0.546c1.766,0,3.196,1.431,3.196,3.195c0,0.987-0.448,1.871-1.152,2.457
					c0.058-0.277,0.086-0.564,0.086-0.859C118.921,58.437,117.197,56.602,115.004,56.428z"/>
				<path id="Combined-Shape_1_" fill="#3883F2" d="M54.414,108.732c-2.722,0-5.117-0.575-7.187-1.726s-3.664-2.784-4.782-4.899
					c-1.119-2.116-1.678-4.584-1.678-7.405s0.587-5.317,1.762-7.488c1.175-2.172,2.825-3.851,4.95-5.039
					c2.125-1.188,4.567-1.781,7.327-1.781c1.454,0,2.917,0.203,4.39,0.612c1.473,0.408,2.769,0.965,3.887,1.671
					c1.193,0.778,1.79,1.763,1.79,2.95c0,0.816-0.196,1.476-0.587,1.977s-0.904,0.752-1.538,0.752c-0.41,0-0.839-0.094-1.286-0.279
					c-0.448-0.186-0.895-0.407-1.343-0.668c-0.82-0.482-1.603-0.862-2.348-1.142c-0.746-0.278-1.604-0.417-2.573-0.417
					c-2.311,0-4.092,0.751-5.341,2.255c-1.249,1.503-1.874,3.665-1.874,6.486c0,2.783,0.625,4.928,1.874,6.431
					s3.03,2.255,5.341,2.255c0.933,0,1.762-0.14,2.489-0.417c0.728-0.278,1.538-0.66,2.433-1.142
					c0.56-0.334,1.044-0.585,1.455-0.752s0.82-0.25,1.23-0.25c0.597,0,1.101,0.26,1.51,0.779c0.41,0.52,0.616,1.169,0.616,1.949
					c0,0.63-0.14,1.178-0.419,1.642c-0.28,0.464-0.737,0.882-1.371,1.253c-1.156,0.742-2.498,1.326-4.027,1.754
					C57.583,108.52,56.018,108.732,54.414,108.732z M83.035,80.394c3.802,0,6.627,0.938,8.473,2.812s2.768,4.724,2.768,8.546v13.585
					c0,1.003-0.298,1.792-0.894,2.367c-0.598,0.574-1.418,0.862-2.462,0.862c-0.969,0-1.762-0.297-2.377-0.891
					c-0.614-0.594-0.923-1.373-0.923-2.339v-1.225c-0.633,1.448-1.631,2.581-2.992,3.396c-1.361,0.817-2.936,1.225-4.726,1.225
					c-1.827,0-3.486-0.37-4.978-1.113c-1.491-0.742-2.666-1.763-3.523-3.062c-0.857-1.3-1.287-2.747-1.287-4.343
					c0-2.005,0.513-3.582,1.538-4.732c1.025-1.151,2.694-1.986,5.006-2.506c2.312-0.521,5.499-0.779,9.563-0.779h1.397v-1.281
					c0-1.818-0.391-3.146-1.174-3.98s-2.051-1.253-3.803-1.253c-1.082,0-2.182,0.158-3.3,0.474c-1.118,0.315-2.442,0.77-3.97,1.363
					c-0.97,0.482-1.678,0.725-2.125,0.725c-0.671,0-1.221-0.242-1.65-0.725s-0.643-1.113-0.643-1.893
					c0-0.631,0.158-1.179,0.476-1.643c0.317-0.464,0.848-0.9,1.593-1.308c1.305-0.706,2.862-1.263,4.67-1.671
					C79.502,80.597,81.283,80.394,83.035,80.394z M81.301,103.722c1.864,0,3.383-0.622,4.559-1.865
					c1.174-1.243,1.761-2.849,1.761-4.815v-1.169h-1.007c-2.497,0-4.436,0.111-5.816,0.333c-1.379,0.223-2.367,0.613-2.964,1.169
					c-0.597,0.558-0.895,1.318-0.895,2.283c0,1.188,0.419,2.162,1.258,2.924C79.036,103.341,80.071,103.722,81.301,103.722z
					 M116.221,80.394c2.349,0,4.445,0.594,6.292,1.781c1.846,1.188,3.281,2.867,4.307,5.039c1.023,2.171,1.537,4.667,1.537,7.488
					s-0.514,5.289-1.537,7.405c-1.025,2.115-2.452,3.749-4.279,4.899s-3.934,1.726-6.319,1.726c-1.939,0-3.673-0.407-5.201-1.225
					c-1.529-0.815-2.704-1.948-3.523-3.396v11.358c0,0.965-0.317,1.727-0.951,2.282c-0.634,0.558-1.473,0.835-2.517,0.835
					s-1.893-0.296-2.544-0.89c-0.653-0.595-0.979-1.373-0.979-2.339V83.79c0-1.002,0.308-1.801,0.923-2.395s1.444-0.891,2.489-0.891
					c1.044,0,1.883,0.297,2.516,0.891c0.634,0.594,0.951,1.393,0.951,2.395v1.391c0.82-1.521,2.004-2.699,3.551-3.535
					C112.482,80.811,114.244,80.394,116.221,80.394z M115.249,103.333c2.199,0,3.915-0.752,5.145-2.256
					c1.23-1.503,1.846-3.628,1.846-6.375c0-2.821-0.615-5.011-1.846-6.569c-1.229-1.559-2.945-2.339-5.145-2.339
					c-2.237,0-3.962,0.761-5.174,2.282c-1.212,1.522-1.817,3.693-1.817,6.515c0,2.783,0.605,4.938,1.817,6.459
					S113.012,103.333,115.249,103.333z M114.814,89.448c0.511-0.345,1.125-0.546,1.787-0.546c1.766,0,3.196,1.43,3.196,3.195
					c0,0.987-0.448,1.87-1.152,2.457c0.057-0.278,0.087-0.565,0.087-0.859C118.732,91.458,117.008,89.623,114.814,89.448z"/>
			</g>
		</g>
	</g>
</g>
</svg>
