<?xml version="1.0" encoding="utf-8"?>
<!-- Generator: Adobe Illustrator 16.0.0, SVG Export Plug-In . SVG Version: 6.00 Build 0)  -->
<!DOCTYPE svg PUBLIC "-//W3C//DTD SVG 1.1//EN" "http://www.w3.org/Graphics/SVG/1.1/DTD/svg11.dtd">
<svg version="1.1" id="Layer_1" xmlns="http://www.w3.org/2000/svg" xmlns:xlink="http://www.w3.org/1999/xlink" x="0px" y="0px"
	 width="288px" height="288px" viewBox="-59.5 -66.5 288 288" enable-background="new -59.5 -66.5 288 288" xml:space="preserve">
<title>logo-alpha-color</title>
<desc>Created with Sketch.</desc>
<g id="Styles">
	<g id="Style-Guide-Light-Mode" transform="translate(-339.000000, -1929.000000)">
		<g id="Atoms_x2F_Illustrations_x2F_logo-alpha-color" transform="translate(333.000000, 1916.000000)">
			<g id="Group" transform="translate(6.000000, 13.000000)">
				<path id="Combined-Shape" opacity="0.5" fill="#3883F2" enable-background="new    " d="M-0.055-9.316
					c18.815,0,28.222,10.945,28.222,32.833v40.186c0,3.048-0.902,5.446-2.706,7.187c-1.805,1.742-4.295,2.614-7.467,2.614
					c-3.171,0-5.688-0.872-7.548-2.614c-1.859-1.741-2.789-4.139-2.789-7.187V23.518c0-5.772-1.176-9.991-3.527-12.66
					C1.777,8.19-1.916,6.855-6.947,6.855c-5.907,0-10.639,1.853-14.194,5.556c-3.554,3.702-5.332,8.657-5.332,14.864v36.428
					c0,3.048-0.93,5.446-2.789,7.187c-1.86,1.742-4.376,2.614-7.548,2.614s-5.66-0.872-7.467-2.614
					c-1.804-1.741-2.706-4.139-2.706-7.187v-97.685c0-2.833,0.957-5.119,2.871-6.861c1.915-1.742,4.403-2.614,7.465-2.614
					c3.064,0,5.525,0.818,7.385,2.45c1.859,1.634,2.789,3.866,2.789,6.699V3.752c2.735-4.246,6.374-7.485,10.912-9.718
					C-11.021-8.2-5.854-9.316-0.055-9.316z M107.217-8.988c3.172,0,5.688,0.87,7.547,2.611c1.859,1.744,2.788,4.086,2.788,7.025
					v63.38c0,2.831-0.957,5.12-2.871,6.861c-1.914,1.742-4.4,2.614-7.464,2.614c-2.957,0-5.306-0.818-7.057-2.451
					c-1.751-1.633-2.625-3.865-2.625-6.698v-4.084c-2.515,4.356-5.907,7.706-10.174,10.048c-4.266,2.341-9.078,3.511-14.44,3.511
					c-19.689,0-29.534-10.999-29.534-32.998V0.649c0-2.939,0.93-5.282,2.79-7.025c1.859-1.742,4.32-2.611,7.383-2.611
					c3.173,0,5.689,0.87,7.548,2.611c1.859,1.744,2.789,4.086,2.789,7.025v40.348c0,5.663,1.149,9.856,3.445,12.578
					c2.299,2.722,5.908,4.084,10.832,4.084c5.688,0,10.255-1.878,13.7-5.636c3.447-3.758,5.166-8.739,5.166-14.948V0.649
					c0-2.939,0.931-5.282,2.791-7.025C101.69-8.118,104.151-8.988,107.217-8.988z M179.863-9.316c7.003,0,13.183,1.688,18.544,5.064
					c5.36,3.375,9.54,8.169,12.552,14.375c3.009,6.208,4.513,13.45,4.513,21.727c0,8.276-1.504,15.601-4.513,21.971
					c-3.012,6.371-7.223,11.297-12.636,14.783c-5.415,3.484-11.569,5.228-18.46,5.228c-5.796,0-10.965-1.252-15.503-3.757
					c-4.542-2.504-8.015-5.99-10.421-10.455v4.084c0,2.939-0.929,5.282-2.788,7.024c-1.862,1.742-4.32,2.614-7.387,2.614
					c-3.063,0-5.495-0.873-7.3-2.614c-1.806-1.742-2.708-4.084-2.708-7.024v-97.685c0-2.833,0.957-5.119,2.871-6.861
					c1.917-1.742,4.404-2.614,7.467-2.614s5.526,0.818,7.384,2.45c1.859,1.634,2.79,3.866,2.79,6.699V4.244
					c2.407-4.356,5.854-7.706,10.335-10.047C169.091-8.146,174.176-9.316,179.863-9.316z M174.448,57.985
					c6.455,0,11.489-2.286,15.097-6.86c3.61-4.574,5.415-11,5.415-19.275c0-8.167-1.776-14.429-5.332-18.786
					s-8.612-6.534-15.18-6.534c-6.559,0-11.621,2.205-15.177,6.616c-3.556,4.411-5.332,10.753-5.332,19.03
					c0,8.278,1.776,14.647,5.332,19.112S167.89,57.985,174.448,57.985z M174.491,15.877c1.495-1.011,3.304-1.602,5.243-1.602
					c5.181,0,9.378,4.197,9.378,9.375c0,2.896-1.315,5.488-3.381,7.207c0.169-0.813,0.252-1.656,0.252-2.52
					C185.983,21.772,180.927,16.389,174.491,15.877z"/>
				<path id="Combined-Shape_1_" fill="#3883F2" d="M-3.275,169.336c-7.985,0-15.013-1.688-21.084-5.063
					s-10.749-8.169-14.029-14.375c-3.282-6.209-4.924-13.449-4.924-21.727s1.723-15.601,5.168-21.97
					c3.447-6.372,8.288-11.298,14.522-14.784c6.234-3.484,13.4-5.227,21.496-5.227c4.267,0,8.56,0.596,12.88,1.797
					c4.321,1.197,8.123,2.83,11.403,4.902c3.501,2.283,5.252,5.171,5.252,8.655c0,2.396-0.574,4.329-1.723,5.799
					s-2.653,2.207-4.513,2.207c-1.204,0-2.461-0.275-3.773-0.82c-1.314-0.544-2.625-1.194-3.94-1.959
					c-2.405-1.416-4.703-2.53-6.889-3.35c-2.189-0.816-4.705-1.224-7.55-1.224c-6.78,0-12.005,2.203-15.669,6.615
					c-3.665,4.41-5.497,10.754-5.497,19.031c0,8.165,1.833,14.457,5.497,18.867c3.665,4.409,8.889,6.615,15.669,6.615
					c2.736,0,5.169-0.41,7.302-1.224c2.134-0.816,4.512-1.937,7.137-3.349c1.644-0.98,3.064-1.717,4.268-2.207
					c1.203-0.489,2.407-0.733,3.608-0.733c1.752,0,3.229,0.763,4.431,2.287c1.203,1.523,1.807,3.429,1.807,5.719
					c0,1.848-0.411,3.455-1.231,4.816c-0.821,1.36-2.162,2.587-4.021,3.676c-3.391,2.178-7.329,3.891-11.814,5.146
					C6.023,168.711,1.429,169.336-3.275,169.336z M80.696,86.191c11.156,0,19.444,2.751,24.86,8.249
					c5.415,5.498,8.119,13.858,8.119,25.073v39.857c0,2.942-0.874,5.257-2.621,6.945c-1.754,1.685-4.16,2.529-7.224,2.529
					c-2.842,0-5.168-0.871-6.974-2.613c-1.802-1.741-2.707-4.028-2.707-6.861v-3.593c-1.857,4.249-4.785,7.572-8.778,9.965
					c-3.992,2.397-8.614,3.593-13.864,3.593c-5.36,0-10.229-1.086-14.605-3.267c-4.375-2.178-7.82-5.171-10.336-8.982
					c-2.516-3.813-3.775-8.06-3.775-12.741c0-5.882,1.505-10.509,4.513-13.885c3.008-3.378,7.903-5.827,14.687-7.352
					c6.782-1.527,16.134-2.286,28.059-2.286h4.101v-3.76c0-5.335-1.146-9.229-3.444-11.678c-2.298-2.45-6.017-3.677-11.157-3.677
					c-3.173,0-6.401,0.465-9.683,1.39c-3.281,0.926-7.164,2.258-11.648,4c-2.845,1.415-4.924,2.126-6.236,2.126
					c-1.97,0-3.583-0.711-4.841-2.126s-1.887-3.267-1.887-5.553c0-1.851,0.464-3.458,1.396-4.819c0.93-1.36,2.488-2.642,4.674-3.836
					c3.83-2.072,8.396-3.705,13.703-4.902C70.331,86.787,75.556,86.191,80.696,86.191z M75.608,154.635
					c5.47,0,9.927-1.825,13.375-5.473c3.443-3.647,5.166-8.357,5.166-14.128v-3.43h-2.954c-7.327,0-13.015,0.326-17.064,0.977
					c-4.047,0.653-6.945,1.8-8.696,3.43c-1.75,1.637-2.625,3.868-2.625,6.699c0,3.484,1.231,6.344,3.69,8.578
					C68.964,153.518,72,154.635,75.608,154.635z M178.062,86.191c6.891,0,13.042,1.742,18.46,5.227
					c5.415,3.486,9.627,8.412,12.636,14.784c3.002,6.369,4.51,13.692,4.51,21.97s-1.508,15.518-4.51,21.727
					c-3.009,6.206-7.194,11-12.556,14.375c-5.36,3.375-11.541,5.063-18.54,5.063c-5.69,0-10.776-1.195-15.26-3.593
					c-4.487-2.393-7.935-5.716-10.338-9.965v33.324c0,2.831-0.932,5.065-2.791,6.696c-1.859,1.636-4.32,2.449-7.383,2.449
					c-3.063,0-5.553-0.868-7.464-2.61c-1.917-1.744-2.874-4.028-2.874-6.861v-92.62c0-2.939,0.902-5.283,2.707-7.025
					c1.806-1.741,4.238-2.612,7.304-2.612c3.063,0,5.524,0.871,7.381,2.612c1.859,1.742,2.791,4.086,2.791,7.025v4.08
					c2.406-4.464,5.879-7.919,10.417-10.372C167.094,87.415,172.262,86.191,178.062,86.191z M175.21,153.494
					c6.453,0,11.487-2.206,15.094-6.618c3.61-4.409,5.415-10.645,5.415-18.704c0-8.277-1.805-14.701-5.415-19.273
					c-3.606-4.573-8.641-6.862-15.094-6.862c-6.563,0-11.624,2.231-15.18,6.695c-3.556,4.467-5.332,10.837-5.332,19.114
					c0,8.165,1.776,14.486,5.332,18.95S168.646,153.494,175.21,153.494z M173.936,112.758c1.498-1.012,3.301-1.602,5.243-1.602
					c5.18,0,9.378,4.194,9.378,9.374c0,2.897-1.315,5.487-3.381,7.209c0.166-0.816,0.255-1.659,0.255-2.521
					C185.431,118.654,180.37,113.271,173.936,112.758z"/>
			</g>
		</g>
	</g>
</g>
</svg>
