<?xml version="1.0" encoding="utf-8"?>
<!-- Generator: Adobe Illustrator 16.0.0, SVG Export Plug-In . SVG Version: 6.00 Build 0)  -->
<!DOCTYPE svg PUBLIC "-//W3C//DTD SVG 1.1//EN" "http://www.w3.org/Graphics/SVG/1.1/DTD/svg11.dtd">
<svg version="1.1" id="Layer_1" xmlns="http://www.w3.org/2000/svg" xmlns:xlink="http://www.w3.org/1999/xlink" x="0px" y="0px"
	 width="144px" height="144px" viewBox="0 0 144 144" style="enable-background:new 0 0 144 144;" xml:space="preserve">
<style type="text/css">
<![CDATA[
	.st0{fill:#482249;}
	.st1{fill:#898889;}
]]>
</style>
<path class="st0" d="M65.395,35.901c18.46,0,33.48,12.026,33.48,26.808c0,16.462-17.226,26.652-33.181,26.652
	c-6.485,0-11.326-1.33-14.711-2.155c-3.348,2.055-5.339,3.472-14.303,6.094c1.792-4.597,2.421-9.199,2.016-14.28
	c-2.805-3.347-6.779-8.036-6.779-16.311C31.913,47.927,46.932,35.901,65.395,35.901z M65.395,29.205
	c-21.22,0-40.177,14.149-40.177,33.504c0,6.861,2.47,13.604,6.853,18.832c0.185,6.126-3.425,14.918-6.672,21.319
	c8.712-1.575,21.095-5.047,26.711-8.49c4.747,1.155,9.29,1.685,13.588,1.685c23.717,0,39.874-16.195,39.874-33.35
	C105.57,43.25,86.481,29.205,65.395,29.205z M65.395,76.075H48.654v-3.346h16.741V76.075z M82.133,66.033H48.654v-3.348h33.479
	V66.033z M82.133,55.99H48.654v-3.349h33.479V55.99z"/>
<path class="st1" d="M108.287,68.708c-0.686,2.078-1.537,4.091-2.56,6.027c7.142,5.37,9.61,13.732,1.979,22.837
	c-0.092,3.172-0.208,4.464,0.586,7.938c-3.795-1.305-4.169-1.67-7.088-3.462c-9.052,2.207-18.156,2.964-25.916-3.638
	c-2.39,0.674-4.876,1.182-7.407,1.547c6.439,7.989,18.293,12.333,32.251,8.941c3.892,2.385,12.483,4.797,18.522,5.894
	c-2.253-4.448-4.755-10.555-4.63-14.811C121.497,91.055,120.591,76.848,108.287,68.708z"/>
</svg>
