<?xml version="1.0" encoding="utf-8"?>
<!-- Generator: Adobe Illustrator 16.0.0, SVG Export Plug-In . SVG Version: 6.00 Build 0)  -->
<!DOCTYPE svg PUBLIC "-//W3C//DTD SVG 1.1//EN" "http://www.w3.org/Graphics/SVG/1.1/DTD/svg11.dtd">
<svg version="1.1" id="Layer_1" xmlns="http://www.w3.org/2000/svg" xmlns:xlink="http://www.w3.org/1999/xlink" x="0px" y="0px"
	 width="144px" height="144px" viewBox="0 0 144 144" enable-background="new 0 0 144 144" xml:space="preserve">
<g>
	<path fill="#04A86F" d="M73.178,8.406C37.501,8.323,8.339,37.264,8.45,73.024c-0.1,35.255,28.133,64.688,64.546,64.685
		c36.078-0.004,64.64-28.505,64.727-64.602C137.811,36.944,108.638,8.489,73.178,8.406z M83.008,109.699
		c-0.687,0.001-1.078-0.463-1.439-0.911c-3.128-3.888-6.226-7.802-9.354-11.689c-4.626-5.748-9.27-11.482-13.912-17.217
		c-0.094-0.117-0.268-0.169-0.623-0.382c0,0.978,0,1.782,0,2.586c0.001,8.603-0.038,17.206,0.041,25.809
		c0.014,1.534-0.474,1.9-1.912,1.854c-3.083-0.1-6.173-0.117-9.254,0c-1.561,0.06-2.096-0.286-2.083-1.99
		c0.085-10.976,0.042-21.953,0.042-32.93c0-10.501,0.024-21.004-0.028-31.505c-0.006-1.285,0.251-1.745,1.635-1.695
		c3.141,0.113,6.292,0.134,9.431-0.004c1.669-0.074,2.196,0.318,2.176,2.095c-0.1,8.898-0.001,17.799-0.076,26.699
		c-0.014,1.698,0.274,2.463,2.202,2.283c2.176-0.205,4.39,0.021,6.58-0.086c1.156-0.056,1.906,0.396,2.569,1.227
		c6.125,7.67,12.243,15.346,18.388,22.999c3.348,4.17,6.742,8.303,10.442,12.854C92.571,109.695,87.789,109.692,83.008,109.699z
		 M97.206,40.591c-5.48,4.482-10.965,8.961-16.445,13.444c-3.335,2.729-6.661,5.468-10.004,8.188
		c-0.77,0.626-1.75,0.788-2.426,0.084c-0.66-0.685-0.439-1.591,0.128-2.421c4.265-6.238,8.5-12.496,12.744-18.749
		c2.151-3.17,4.301-6.342,6.445-9.518c0.548-0.811,1.124-1.42,2.265-1.411c6.286,0.048,12.573,0.026,18.86,0.031
		c0.208,0,0.416,0.043,0.956,0.102C105.388,33.895,101.298,37.244,97.206,40.591z"/>
	<path fill="#F1F1F1" d="M69.002,73.842c-0.663-0.831-1.413-1.282-2.569-1.227c-2.19,0.107-4.404-0.119-6.58,0.086
		c-1.928,0.181-2.216-0.585-2.202-2.283c0.074-8.899-0.024-17.8,0.076-26.699c0.02-1.777-0.507-2.169-2.176-2.095
		c-3.139,0.138-6.29,0.117-9.431,0.004c-1.384-0.05-1.642,0.41-1.635,1.695c0.052,10.501,0.028,21.004,0.028,31.505
		c0,10.977,0.043,21.954-0.042,32.93c-0.013,1.704,0.522,2.05,2.083,1.99c3.081-0.117,6.171-0.1,9.254,0
		c1.438,0.046,1.926-0.32,1.912-1.854c-0.078-8.603-0.04-17.206-0.041-25.809c0-0.804,0-1.608,0-2.586
		c0.355,0.213,0.528,0.265,0.623,0.382c4.643,5.734,9.286,11.469,13.912,17.217c3.129,3.888,6.227,7.802,9.354,11.689
		c0.361,0.448,0.753,0.912,1.439,0.911c4.781-0.007,9.563-0.004,14.824-0.004c-3.7-4.552-7.095-8.685-10.442-12.854
		C81.245,89.188,75.127,81.512,69.002,73.842z"/>
	<path fill="#1B2029" d="M89.912,30.208c-1.141-0.009-1.717,0.601-2.265,1.411c-2.145,3.175-4.294,6.347-6.445,9.518
		c-4.243,6.253-8.479,12.511-12.744,18.749c-0.568,0.831-0.788,1.736-0.128,2.421c0.676,0.703,1.657,0.542,2.426-0.084
		c3.343-2.719,6.669-5.459,10.004-8.188c5.48-4.483,10.965-8.961,16.445-13.444c4.092-3.347,8.182-6.696,12.522-10.25
		c-0.54-0.059-0.748-0.102-0.956-0.102C102.485,30.234,96.198,30.256,89.912,30.208z"/>
</g>
</svg>
