<?xml version="1.0" encoding="utf-8"?>
<!-- Generator: Adobe Illustrator 16.0.0, SVG Export Plug-In . SVG Version: 6.00 Build 0)  -->
<!DOCTYPE svg PUBLIC "-//W3C//DTD SVG 1.1//EN" "http://www.w3.org/Graphics/SVG/1.1/DTD/svg11.dtd">
<svg version="1.1" id="Layer_1" xmlns="http://www.w3.org/2000/svg" xmlns:xlink="http://www.w3.org/1999/xlink" x="0px" y="0px"
	 width="144px" height="144px" viewBox="0 0 144 144" enable-background="new 0 0 144 144" xml:space="preserve">
<g id="Layer_1_1_">
	<g>
		<path fill="#989898" d="M125.012,71.958c0,18.705,0.016,37.424-0.007,56.133c-0.004,6.222-3.709,11.074-9.543,12.523
			c-1.092,0.271-2.249,0.402-3.373,0.402c-26.042,0.026-52.084,0.033-78.125,0.016c-7.522-0.009-12.863-5.369-12.866-12.945
			c-0.018-35.51-0.015-71.021-0.004-106.529c0-2.775-0.188-5.591,0.207-8.317C22.14,7.425,27.096,3.218,33.02,2.908
			c0.365-0.02,0.728-0.023,1.094-0.023c25.995,0,51.99-0.005,77.987,0.003c5.612,0.002,10.38,3.166,12.146,8.261
			c0.554,1.593,0.745,3.384,0.748,5.084c0.048,18.574,0.034,37.147,0.034,55.724C125.021,71.958,125.015,71.958,125.012,71.958z
			 M27.956,71.842c0,18.575,0,37.149,0.002,55.721c0,4.637,2.141,6.802,6.716,6.802c25.634,0,51.264,0,76.895,0
			c4.264,0,6.572-2.313,6.572-6.576c0.004-37.105-0.027-74.205,0.059-111.307c0.01-3.651-2.087-7.044-6.956-6.996
			C95.992,9.641,80.741,9.544,65.489,9.544c-10.469,0.002-20.94-0.011-31.413,0.014c-3.798,0.009-6.066,2.335-6.118,6.154
			c-0.007,0.499-0.005,1-0.005,1.5C27.956,35.421,27.956,53.631,27.956,71.842z"/>
		<path fill="#CDCCCC" d="M27.956,71.842c0-18.211,0-36.421,0.002-54.631c0-0.501-0.002-1.003,0.006-1.5
			c0.049-3.82,2.318-6.146,6.117-6.154C44.551,9.53,55.022,9.544,65.494,9.543c15.247,0,30.501,0.099,45.751-0.058
			c4.869-0.047,6.968,3.346,6.957,6.995c-0.082,37.103-0.051,74.204-0.055,111.309c0,4.262-2.313,6.576-6.576,6.576
			c-25.63,0-51.262,0-76.891,0c-4.577,0-6.718-2.167-6.718-6.802C27.956,108.991,27.956,90.417,27.956,71.842z M69.968,68.322
			c-0.11,0.018-0.221,0.035-0.333,0.051c-2.049-6.692-4.098-13.382-6.258-20.434c-2.66,0.852-5.337,1.537-7.862,2.587
			c-1.465,0.607-2.24,2.042-2.345,3.745c-0.237,3.906-0.55,7.804-0.761,11.709c-0.028,0.538,0.249,1.257,0.636,1.624
			c10.843,10.275,28.907,10.289,39.726,0.022c0.443-0.422,0.764-1.243,0.732-1.86c-0.191-3.998-0.496-7.992-0.77-11.985
			c-0.106-1.5-0.948-2.716-2.194-3.245c-2.439-1.025-5.013-1.728-7.679-2.616c-2.178,7.068-4.245,13.776-6.313,20.486
			c-0.293-0.269-0.363-0.484-0.379-0.704c-0.13-2.136-0.414-4.277-0.341-6.402c0.083-2.504-0.414-4.675-2.372-6.366
			c-0.046-0.042-0.027-0.169-0.027-0.206c0.491-0.514,0.962-1.002,1.435-1.494c1.621-1.694,1.123-3.74-1.14-4.467
			c-1.438-0.463-2.117,0.708-2.902,1.559c-0.724,0.785-0.576,1.549,0.114,2.289c0.668,0.714,1.318,1.448,2.091,2.301
			c-2.557,1.644-2.739,4.077-2.719,6.676C70.329,63.833,70.092,66.078,69.968,68.322z M73.059,91.803c4.868,0,9.74,0.004,14.607,0
			c4.868,0,9.74,0.021,14.607-0.023c2.585-0.026,3.961-2.116,2.917-4.368c-0.64-1.38-1.837-1.732-3.266-1.732
			c-13.649,0.017-27.305,0.007-40.958,0.007c-5.685,0-11.375-0.014-17.063,0.01c-2.391,0.011-3.815,1.928-3.145,4.126
			c0.425,1.376,1.465,1.979,3.492,1.981C53.855,91.807,63.455,91.803,73.059,91.803z M72.918,106.064c1.589,0,3.185,0,4.776,0
			c8.143,0,16.292,0.007,24.436-0.007c1.864,0,2.977-0.839,3.293-2.424c0.456-2.249-0.951-3.677-3.639-3.677
			c-16.384,0-32.761,0-49.146,0c-2.957,0-5.916-0.008-8.875,0.031c-1.824,0.027-2.872,0.88-3.114,2.424
			c-0.331,2.122,1.027,3.643,3.322,3.646C53.62,106.071,63.267,106.064,72.918,106.064z M73,120.025c2.683,0,5.37,0.003,8.056,0
			c7.097,0,14.197,0.003,21.297-0.004c1.717-0.003,2.797-0.825,3.084-2.29c0.402-2.061-0.908-3.718-3.043-3.725
			c-6.413-0.027-12.832-0.018-19.246-0.018c-13.015-0.003-26.027-0.01-39.041,0.021c-0.741,0-1.562,0.154-2.199,0.511
			c-1.126,0.626-1.551,2.177-1.155,3.495c0.396,1.314,1.417,2.008,3.036,2.008C53.524,120.032,63.26,120.025,73,120.025z
			 M82.329,30.735c0-0.41,0.021-0.821-0.003-1.227c-0.274-4.693-3.813-8.311-8.438-8.635c-5.579-0.391-9.673,2.32-10.531,7.277
			c-0.895,5.136,0.517,9.774,4.026,13.616c3.337,3.652,7.577,3.53,10.876-0.184C80.991,38.503,82.247,34.826,82.329,30.735z"/>
		<path fill="#11163E" d="M69.968,68.322c0.123-2.241,0.361-4.489,0.34-6.732c-0.022-2.598,0.162-5.032,2.719-6.676
			c-0.773-0.852-1.425-1.586-2.091-2.301c-0.692-0.74-0.84-1.504-0.114-2.29c0.786-0.85,1.465-2.021,2.902-1.559
			c2.263,0.727,2.759,2.774,1.14,4.467c-0.473,0.493-0.943,0.98-1.435,1.493c0,0.037-0.022,0.163,0.027,0.206
			c1.958,1.688,2.455,3.859,2.372,6.366c-0.073,2.127,0.211,4.267,0.341,6.402c0.016,0.218,0.086,0.433,0.379,0.703
			c2.063-6.708,4.132-13.417,6.313-20.485c2.665,0.888,5.239,1.591,7.679,2.616c1.246,0.528,2.088,1.744,2.194,3.244
			c0.273,3.995,0.578,7.988,0.77,11.983c0.031,0.617-0.289,1.438-0.732,1.862c-10.817,10.267-28.883,10.253-39.726-0.022
			c-0.39-0.367-0.664-1.083-0.636-1.624c0.207-3.905,0.524-7.805,0.761-11.71c0.105-1.701,0.88-3.139,2.345-3.743
			c2.525-1.048,5.204-1.734,7.862-2.587c2.16,7.051,4.211,13.741,6.258,20.434C69.747,68.355,69.857,68.34,69.968,68.322z"/>
		<path fill="#11163E" d="M73.059,91.803c-9.602,0-19.204,0.004-28.809,0c-2.027-0.003-3.067-0.605-3.492-1.981
			c-0.673-2.198,0.754-4.117,3.144-4.127c5.688-0.026,11.377-0.011,17.063-0.011c13.651,0,27.303,0.011,40.956-0.007
			c1.432,0,2.63,0.351,3.268,1.73c1.046,2.253-0.33,4.346-2.918,4.368c-4.868,0.041-9.738,0.024-14.607,0.024
			C82.795,91.807,77.924,91.803,73.059,91.803z"/>
		<path fill="#11163E" d="M72.918,106.064c-9.651,0-19.296,0.007-28.945-0.007c-2.291-0.003-3.653-1.523-3.318-3.646
			c0.24-1.548,1.288-2.4,3.114-2.424c2.957-0.038,5.916-0.031,8.873-0.031c16.383,0,32.762,0,49.146,0
			c2.687,0,4.091,1.426,3.639,3.677c-0.318,1.582-1.426,2.424-3.293,2.424c-8.146,0.014-16.292,0.007-24.435,0.007
			C76.104,106.064,74.507,106.064,72.918,106.064z"/>
		<path fill="#11163E" d="M73,120.025c-9.737,0-19.475,0.007-29.213,0c-1.621,0-2.641-0.695-3.036-2.01
			c-0.396-1.318,0.03-2.865,1.154-3.494c0.635-0.355,1.458-0.51,2.199-0.51c13.016-0.032,26.028-0.025,39.043-0.022
			c6.412,0,12.831-0.01,19.244,0.018c2.133,0.009,3.447,1.66,3.045,3.725c-0.287,1.47-1.367,2.288-3.088,2.292
			c-7.1,0.007-14.199,0.003-21.294,0.003C78.367,120.028,75.68,120.025,73,120.025z"/>
		<path fill="#F2CEA5" d="M82.329,30.735c-0.082,4.089-1.338,7.77-4.07,10.846c-3.3,3.714-7.543,3.836-10.878,0.184
			c-3.507-3.842-4.92-8.478-4.027-13.616c0.858-4.957,4.956-7.668,10.535-7.277c4.626,0.326,8.164,3.942,8.435,8.635
			C82.35,29.917,82.329,30.327,82.329,30.735z"/>
	</g>
</g>
</svg>
