<?xml version="1.0" encoding="utf-8"?>
<!-- Generator: Adobe Illustrator 16.0.0, SVG Export Plug-In . SVG Version: 6.00 Build 0)  -->
<!DOCTYPE svg PUBLIC "-//W3C//DTD SVG 1.1//EN" "http://www.w3.org/Graphics/SVG/1.1/DTD/svg11.dtd">
<svg version="1.1" id="Layer_1" xmlns="http://www.w3.org/2000/svg" xmlns:xlink="http://www.w3.org/1999/xlink" x="0px" y="0px"
	 width="288px" height="288px" viewBox="0 0 288 288" enable-background="new 0 0 288 288" xml:space="preserve">
<path fill="none" d="M156.553,114.259"/>
<g>
	<path fill="none" d="M106.56,36.294c-7.063-1.374-12.997,1.607-15.859,8.051c-1.758,3.969-2.11,8.084-1.191,12.346
		c1.172,5.474,4.249,9.333,9.522,11.229c2.077,0.747,4.319,1.039,6.484,1.534c9.939-0.166,15.471-7.224,15.48-15.899
		C121.001,45.659,114.316,37.808,106.56,36.294z"/>
	<path fill="none" d="M175.665,36.854c-6.321,3.747-9.717,9.437-9.618,16.777c0.094,6.852,3.73,12.157,10.159,14.145
		c10.903,3.374,21.838-4.671,22.024-16.112c-0.264-1.675-0.4-3.388-0.821-5.022C194.517,35.339,182.932,32.549,175.665,36.854z"/>
	<path fill="#A390A7" d="M132.73,118.597c-9.647,27.553-19.32,55.102-28.864,82.694c-2.388,6.907-2.833,14.04-0.897,21.186
		c1.395,5.149,4.166,9.458,8.271,13.169c11.015-29.402,21.974-58.65,33.032-88.162L132.94,117.15
		C132.979,117.619,132.912,118.078,132.73,118.597z"/>
	<path fill="#A35BB5" d="M204.786,45.874c-1.749-7.915-6.199-14.03-13.918-17.141c-12.661-5.113-28.125,3.556-31.089,17.308
		c-1.166,5.398-0.893,10.879-0.685,16.352c0.246,6.542,0.566,13.087-0.655,19.585c-1.575,8.375-5.758,14.963-13.134,19.414
		c-0.662,0.397-1.153,0.402-1.816,0.017c-6.567-3.802-11.142-9.2-13.381-16.506c-2.118-6.9-2.07-13.98-1.68-21.07
		c0.364-6.699-0.191-13.255-2.567-19.585c-4.285-11.423-14.124-17.466-25.756-15.48c-7.57,1.29-13.42,5.214-16.423,12.562
		c-2.091,5.12-2.747,10.46-1.718,15.956c1.076,5.767,3.44,10.891,7.988,14.708c6.472,5.431,13.743,6.269,21.548,3.23
		c1.791-0.699,3.577-1.443,5.429-1.943c1.902-0.512,3.417,0.368,4.003,2.232c0.495,1.577,0.875,3.199,1.144,4.831
		c2.031,12.351,5.424,24.295,10.578,35.712c0.172,0.387,0.258,0.741,0.287,1.096l11.332,30.332
		c11.444,29.196,22.783,58.123,34.167,87.157c0.287-0.203,0.44-0.297,0.572-0.409c0.271-0.237,0.535-0.477,0.792-0.728
		c5.017-4.952,7.234-11.113,7.68-18.002c0.445-6.874-0.926-13.446-3.359-19.858c-9.679-25.544-19.329-51.097-28.96-76.659
		l-10.894-17.298l10.894,17.298c-0.208-0.555-0.297-1.369-0.046-1.852c5.171-9.803,7.753-20.38,9.517-31.221
		c0.575-3.529,1.215-7.068,2.15-10.516c0.839-3.105,2.832-3.737,5.691-2.208c0.235,0.126,0.462,0.277,0.694,0.412
		c7.305,4.271,17.281,3.471,23.637-2.127C204.611,64.599,206.982,55.813,204.786,45.874z M105.516,69.453
		c-2.165-0.495-4.407-0.785-6.484-1.534c-5.273-1.896-8.35-5.754-9.522-11.229c-0.919-4.261-0.567-8.376,1.191-12.346
		c2.862-6.444,8.793-9.425,15.859-8.051c7.756,1.514,14.441,9.365,14.435,17.26C120.987,62.229,115.455,69.288,105.516,69.453z
		 M176.206,67.776c-6.426-1.986-10.063-7.293-10.159-14.145c-0.099-7.34,3.299-13.03,9.618-16.777
		c7.267-4.307,18.852-1.515,21.746,9.788c0.422,1.634,0.556,3.347,0.821,5.022C198.044,63.105,187.109,71.149,176.206,67.776z"/>
</g>
<g>
	<path fill="#506270" d="M14.803,255.872c-0.172-1.028-0.407-1.824-0.421-2.629c-0.112-8.366-3.206-15.834-7.048-23.046
		c-1.072-2.009-1.074-3.586,0.699-5.139c2.45-2.153,2.689-4.305,1.691-7.735c-0.945-3.241,0.304-7.235,1.069-10.798
		c0.225-1.046,1.967-1.995,3.207-2.561c3.534-1.606,7.168-2.998,10.943-4.548c-0.56-1.584-0.875-3.01-1.536-4.256
		c-3.242-6.121-3.153-12.648-2.345-19.221c0.129-1.069,1.211-2.041,1.919-3.007c0.227-0.313,0.885-0.406,0.969-0.706
		c1.064-3.846,4.561-3.165,7.257-3.938c2.656-0.761,5.35-1.396,8-2.177c0.656-0.194,1.579-0.601,1.752-1.12
		c1.131-3.405,4.067-3.206,6.747-3.63c8.13-1.284,16.289-2.419,24.366-3.976c4.465-0.864,8.279,0.139,11.834,2.583
		c2.165,1.491,4.182,2.378,7.039,2.049c4.687-0.544,9.46-0.356,14.193-0.477c2.67-0.067,4.345,1.132,5.402,3.646
		c0.414,0.987,1.708,1.659,2.713,2.311c0.471,0.303,1.202,0.291,1.809,0.279c10.733-0.211,17.304,7.075,24.208,13.616
		c1.139,1.084,1.507,3.064,2.026,4.696c1.213,3.798,1.756,7.92,3.563,11.396c2.762,5.326,4.316,10.643,4.383,16.71
		c0.047,4.221-1.096,7.199-3.804,10.42c-5.01,5.955-10.862,10.494-17.77,13.958c-5.604,2.81-11.138,5.816-16.445,9.151
		c-6.226,3.917-12.872,6.059-20.148,7.001c-10.506,1.359-20.918,3.445-31.422,4.785c-3.912,0.498-7.992-0.064-11.973-0.426
		C36.82,258.103,25.972,256.974,14.803,255.872z M61.717,232.497c-8.563-9.793-17.016-19.466-25.472-29.135
		c-0.811-0.931-1.493-2.076-2.496-2.703c-0.761-0.477-2.074-0.646-2.912-0.33c-5.292,1.978-10.527,4.11-15.76,6.249
		c-0.71,0.289-1.816,0.85-1.854,1.356c-0.27,3.5-1.99,6.934-0.184,10.544c2.85,5.697,5.596,11.449,8.171,17.277
		c0.856,1.94,1.923,2.436,3.948,2.421c9.197-0.064,18.519-1.461,27.414,2.323c0.612,0.264,1.862-0.093,2.369-0.604
		C57.239,237.569,59.377,235.081,61.717,232.497z M140.657,198.425c-0.136-18.086-15.03-27.923-27.647-26.793
		c0.608,4.25,1.221,8.491,1.862,12.958c-9.542,1.656-18.818,3.266-28.304,4.912c0.26,0.584,0.349,0.991,0.583,1.28
		c4.464,5.529,8.891,11.092,13.489,16.507c0.589,0.691,2.178,1.009,3.154,0.799c3.718-0.787,7.374-1.858,11.054-2.831
		C123.475,202.973,132.099,200.69,140.657,198.425z M53.106,191.561c5.204,6.342,10.124,12.381,15.126,18.348
		c0.397,0.477,1.477,0.828,2.043,0.642c7.005-2.321,13.973-4.754,21.268-7.264c-3.125-4.643-6.063-9.078-9.092-13.448
		c-0.431-0.618-1.273-1.006-1.996-1.364c-3.21-1.608-6.412-3.25-9.704-4.688c-0.88-0.385-2.251-0.472-3.07-0.055
		C62.928,186.15,58.272,188.758,53.106,191.561z M69.273,171.132c5.532,3.646,10.57,6.993,15.652,10.276
		c0.548,0.351,1.374,0.55,2.01,0.449c7.999-1.249,15.985-2.569,24.199-3.909c-1.388-4.678-2.684-9.049-3.847-12.975
		C93.84,162.946,81.828,166.868,69.273,171.132z M83.306,164.349c-3.515-2.866-6.692-5.671-11.949-4.037
		c-4.179,1.301-8.673,1.582-13.03,2.31c-5.008,0.837-10.018,1.667-15.291,2.543c2.594,5.362,4.986,10.315,7.436,15.378
		c6.245-3.688,12.2-7.13,18.078-10.699c4.381-2.666,8.599-5.671,14.146-5.012C82.83,164.846,82.993,164.604,83.306,164.349z
		 M25.958,172.277c2.273,4.173,4.331,8.024,6.496,11.815c0.29,0.512,1.098,0.88,1.73,1.017c3.407,0.729,6.823,1.761,10.254,1.843
		c1.374,0.028,2.94-1.981,4.12-3.326c0.421-0.474,0.259-1.924-0.165-2.596c-2.189-3.465-4.503-6.855-6.896-10.187
		c-0.431-0.595-1.502-1.195-2.166-1.088C35.021,170.457,30.738,171.352,25.958,172.277z"/>
	<path fill="#57768D" d="M61.717,232.497c-2.34,2.584-4.479,5.072-6.776,7.398c-0.507,0.512-1.756,0.868-2.369,0.604
		c-8.896-3.784-18.217-2.388-27.414-2.323c-2.024,0.015-3.092-0.48-3.948-2.421c-2.575-5.828-5.321-11.58-8.173-17.277
		c-1.807-3.61-0.086-7.044,0.186-10.546c0.039-0.505,1.144-1.065,1.854-1.354c5.233-2.139,10.468-4.271,15.758-6.252
		c0.837-0.313,2.15-0.144,2.912,0.333c1.005,0.627,1.685,1.772,2.498,2.7C44.702,213.031,53.152,222.704,61.717,232.497z"/>
	<path fill="#57768D" d="M140.657,198.425c-8.558,2.266-17.182,4.548-25.809,6.832c-3.68,0.973-7.335,2.044-11.054,2.831
		c-0.976,0.208-2.565-0.107-3.154-0.799c-4.596-5.415-9.025-10.978-13.489-16.507c-0.234-0.289-0.323-0.696-0.583-1.28
		c9.486-1.646,18.763-3.256,28.304-4.912c-0.641-4.465-1.253-8.708-1.862-12.958C125.626,170.502,140.521,180.339,140.657,198.425z"
		/>
	<path fill="#749DBD" d="M53.106,191.561c5.166-2.803,9.822-5.41,14.576-7.829c0.818-0.417,2.185-0.33,3.07,0.055
		c3.287,1.438,6.489,3.079,9.704,4.688c0.721,0.358,1.565,0.744,1.993,1.364c3.031,4.37,5.97,8.806,9.092,13.448
		c-7.295,2.51-14.262,4.942-21.268,7.264c-0.564,0.187-1.646-0.165-2.042-0.642C63.23,203.941,58.311,197.902,53.106,191.561z"/>
	<path fill="#ABC4D7" d="M69.273,171.132c12.554-4.264,24.567-8.186,38.014-6.158c1.163,3.926,2.459,8.3,3.847,12.977
		c-8.214,1.338-16.2,2.658-24.199,3.907c-0.636,0.103-1.464-0.099-2.01-0.449C79.844,178.125,74.805,174.777,69.273,171.132z"/>
	<path fill="#C7D8E4" d="M83.306,164.349c-0.313,0.256-0.477,0.497-0.61,0.482c-5.546-0.659-9.764,2.346-14.146,5.012
		c-5.878,3.573-11.833,7.014-18.078,10.701c-2.45-5.064-4.842-10.018-7.436-15.378c5.273-0.878,10.283-1.708,15.291-2.545
		c4.357-0.728,8.851-1.009,13.03-2.31C76.614,158.678,79.792,161.482,83.306,164.349z"/>
	<path fill="#749DBD" d="M25.958,172.277c4.781-0.926,9.063-1.82,13.375-2.521c0.663-0.107,1.734,0.493,2.166,1.088
		c2.39,3.331,4.706,6.722,6.896,10.187c0.424,0.672,0.586,2.122,0.165,2.596c-1.18,1.345-2.747,3.356-4.12,3.326
		c-3.431-0.082-6.847-1.113-10.254-1.843c-0.632-0.137-1.44-0.505-1.73-1.017C30.289,180.302,28.23,176.45,25.958,172.277z"/>
</g>
<path fill="#0F5963" stroke="#DBDBDB" stroke-width="0.25" stroke-miterlimit="10" d="M268.375,209.121
	c-0.041,0.379-0.084,0.474-0.052,0.529c2.161,4.125,1.781,8.276,0.054,12.392c-0.617,1.466-0.313,2.44,0.897,3.421
	c1.733,1.407,3.289,3.031,5.015,4.45c1.251,1.029,1.53,2.132,0.65,3.448c-2.909,4.356-2.895,8.874-0.967,13.595
	c0.623,1.52,0.876,3.185,1.323,4.777c0.452,1.61,0.017,2.653-1.79,2.708c-12.179,0.353-23.835,3.669-35.628,6.212
	c-0.899,0.194-1.988,0.093-2.854-0.231c-5.266-1.97-10.58-3.857-15.698-6.166c-2.594-1.165-4.812-3.163-7.472-4.97
	c-2.213,2.788-4.528,5.563-6.666,8.475c-1.167,1.591-2.337,1.718-4.229,1.361c-4.807-0.896-8.503-3.196-11.43-7.104
	c-1.926-2.572-4.269-4.838-6.465-7.204c-1.521-1.639-2.737-3.16-2.854-5.745c-0.084-1.813-2.075-3.469-2.914-5.328
	c-1.771-3.914-4.817-5.354-8.95-5.726c-4.901-0.436-7.54-3.942-7.231-8.953c0.73-11.901,1.645-23.777,5.458-35.194
	c0.345-1.035,0.89-2.336,1.739-2.816c9.645-5.501,16.222-14.279,23.682-22.089c3.374-3.531,6.946-6.448,11.616-8.127
	c4.743-1.707,9.329-3.841,13.957-5.836c1.61-0.694,2.505-0.14,3.842,0.981c3.639,3.052,7.415,6.064,11.525,8.404
	c6.493,3.701,13.751,5.539,20.925,7.561c4.889,1.381,9.626,2.153,14.507,0.397c1.701-0.612,2.558,0.038,3.249,1.605
	c3.049,6.968,6.24,13.88,9.253,20.863c0.49,1.139,0.655,2.605,0.444,3.828c-0.837,4.889-1.804,9.763-2.916,14.596
	c-0.216,0.93-1.151,1.978-2.031,2.423C273.791,206.954,271.077,207.974,268.375,209.121z M254.499,186.895
	c3.896,6.596,7.79,13.19,11.748,19.899c1.419-0.625,2.608-1.146,4.003-1.757c-2.977-4.293-5.94-8.354-8.666-12.575
	c-1.739-2.693-4.146-4.381-6.932-5.709c-6.244-4.275-12.492-8.549-19.18-13.126c0,1.282-0.014,2.146,0.006,3.01
	c0.031,1.486,0.139,2.974,0.091,4.46c-0.015,0.32-0.515,0.739-0.881,0.889c-0.182,0.071-0.821-0.376-0.825-0.599
	c-0.053-3.493-0.038-6.979-0.038-10.829c0.995,0.459,1.538,0.621,1.987,0.928c8.021,5.425,16.046,10.846,24.022,16.332
	c0.919,0.633,1.682,1.572,2.337,2.496c3.29,4.641,6.519,9.324,9.677,13.853c2.868-0.356,4-1.794,4.331-4.409
	c0.443-3.521,1.468-6.965,1.997-10.482c0.208-1.38,0.076-2.998-0.46-4.275c-2.5-5.946-5.256-11.781-7.783-17.71
	c-0.75-1.756-1.641-2.031-3.424-1.587c-2.117,0.531-4.515,1.212-6.512,0.721c-9.629-2.37-19.361-4.486-28.229-9.211
	c-0.263-0.145-0.596-0.166-1.093-0.29c-1.333,3.556-2.592,7.044-3.975,10.479c-0.234,0.583-0.997,0.955-1.515,1.422
	c-0.048-0.655-0.306-1.386-0.104-1.955c1.083-3.125,2.319-6.197,3.413-9.317c0.216-0.607,0.313-1.703-0.02-1.979
	c-1.473-1.203-3.124-2.188-5.116-3.528c0,4.251,0.112,7.809-0.037,11.357c-0.143,3.452,0.534,6.663,1.704,9.915
	c3.191,8.864,6.116,17.822,9.222,26.719c0.672,1.926,0.641,3.447-1.661,4.482c0.98,0.271,1.607,0.547,2.256,0.605
	c10.456,0.967,18.96,5.656,25.876,13.438c0.604,0.677,1.34,1.231,2.034,1.825c0.722,0.617,1.465,1.209,2.259,1.861
	c2.381-5.835,2.015-10.882-1.067-15.992c-3.754-6.22-7.534-12.42-11.494-18.941C253.322,187.134,253.911,187.011,254.499,186.895z
	 M272.159,251.578c-0.939-3.563-1.679-6.785-2.68-9.92c-0.369-1.155-1.137-2.399-2.088-3.107
	c-6.311-4.704-12.732-9.253-19.069-13.921c-0.625-0.464-0.917-1.386-1.364-2.098c0.825,0.256,1.787,0.32,2.457,0.794
	c6.147,4.361,12.243,8.798,18.359,13.202c0.581,0.421,1.205,0.786,1.942,1.257c0.701-1.563,1.471-2.869,1.845-4.283
	c0.196-0.739-0.026-1.959-0.546-2.462c-4.962-4.835-10.171-9.424-15.027-14.358c-4.681-4.751-9.928-8.065-16.703-8.737
	c-1.96-0.193-3.898-0.772-5.795-1.337c-0.857-0.257-1.589-0.914-2.747-1.611c-1.101,0.853-2.589,1.771-3.79,2.974
	c-5.924,5.915-11.666,12.009-17.691,17.816c-2.352,2.266-3.911,4.29-2.146,7.584c0.246,0.465-0.263,1.333-0.422,2.013
	c-0.258-0.046-0.521-0.089-0.779-0.132c-0.358-1.177-0.589-2.414-1.105-3.521c-1.055-2.252-0.294-3.735,1.407-5.386
	c5.224-5.084,10.238-10.382,15.377-15.552c3.024-3.036,5.771-6.408,9.949-8.078c0.528-0.213,1.088-1.455,0.942-2.046
	c-0.683-2.723-1.51-5.421-2.468-8.06c-4.723-13.035-10.314-25.85-8.412-40.312c0.404-3.084-2.543-4.794-5.386-3.594
	c-2.896,1.226-5.708,2.704-8.685,3.672c-6.346,2.062-11.43,5.774-15.562,10.94c-1.137,1.416-2.488,2.663-3.714,4.007
	c-5.204,5.724-11.28,10.796-13.967,18.411c-0.367,1.039-0.582,2.224-0.484,3.307c0.335,3.625,0.888,7.23,1.237,10.858
	c0.062,0.612-0.457,1.28-0.711,1.92c-0.275-0.093-0.553-0.188-0.83-0.279c-0.249-6.965-3.809-14.092,1.208-20.803
	c0.017-0.022-0.078-0.125-0.502-0.762c-1.711,1.782-4.051,3.206-4.813,5.235c-1.623,4.304-2.448,8.917-3.536,13.423
	c-0.188,0.775-0.296,1.693-0.065,2.429c2.018,6.543,3.033,13.441,6.645,19.43c2.289,3.797,4.998,7.371,6.96,11.324
	c2.266,4.559,5.49,5.683,10.453,5.615c11.511-0.153,23.033,0.528,33.66-5.176c1.494-0.798,2.444-0.392,2.771,1.45
	c0.417,2.357,1.26,4.656,1.529,7.022c0.331,2.883,1.711,3.501,4.429,3.321c4.257-0.28,8.547-0.074,12.819-0.074
	c-0.553,0.806-1.373,1.358-2.22,1.402c-4.053,0.203-8.145,0-12.159,0.476c-2.869,0.341-3.802-0.66-4.224-3.264
	c-0.467-2.888-1.325-5.706-2.052-8.718c-1.556,0.554-2.84,0.893-4.02,1.452c-6.654,3.165-13.632,4.209-20.972,3.772
	c-5.27-0.312-10.568-0.057-16.52-0.057c0.673,1.251,0.965,2.16,1.544,2.818c2.79,3.178,5.783,6.175,8.446,9.448
	c1.923,2.368,4.199,3.769,7.139,4.498c1.752,0.434,2.816,0.311,3.932-1.241c3.64-5.063,7.435-10.014,11.291-15.169
	c0.06,0.255,0.454,0.939,0.285,1.435c-0.445,1.325-1.053,2.61-1.75,3.828c-0.658,1.158-0.591,1.974,0.61,2.668
	c3.264,1.893,6.412,4.026,9.803,5.671c3.488,1.687,7.183,2.972,10.841,4.282c1.007,0.361,2.257,0.419,3.316,0.218
	c9.097-1.721,18.17-3.57,27.266-5.29C267.632,251.819,269.709,251.803,272.159,251.578z M172.493,225.798
	c-2.561-6.526-4.975-12.69-7.423-18.931c-0.339,4.26-0.729,8.456-0.959,12.664c-0.053,0.993,0.292,2.085,0.706,3.015
	C166.337,225.927,169.655,224.96,172.493,225.798z"/>
<path fill="#CAE1E8" stroke="#DBDBDB" stroke-width="0.25" stroke-miterlimit="10" d="M272.159,251.578
	c-2.448,0.225-4.527,0.241-6.539,0.627c-9.094,1.716-18.167,3.567-27.264,5.29c-1.06,0.199-2.305,0.141-3.316-0.22
	c-3.656-1.311-7.353-2.594-10.841-4.283c-3.388-1.644-6.536-3.777-9.805-5.671c-1.199-0.693-1.266-1.509-0.605-2.667
	c0.692-1.216,1.3-2.503,1.749-3.828c0.167-0.496-0.229-1.18-0.287-1.433c-3.856,5.155-7.651,10.103-11.291,15.166
	c-1.115,1.553-2.179,1.678-3.934,1.241c-2.938-0.729-5.211-2.127-7.137-4.498c-2.663-3.271-5.658-6.272-8.446-9.447
	c-0.578-0.656-0.87-1.565-1.543-2.818c5.951,0,11.251-0.253,16.519,0.057c7.341,0.436,14.315-0.605,20.974-3.773
	c1.178-0.561,2.46-0.897,4.018-1.451c0.728,3.011,1.587,5.832,2.053,8.718c0.421,2.604,1.352,3.603,4.223,3.263
	c4.016-0.476,8.104-0.272,12.159-0.476c0.848-0.043,1.665-0.594,2.221-1.402c-4.273,0-8.563-0.205-12.817,0.075
	c-2.723,0.182-4.101-0.44-4.431-3.319c-0.272-2.366-1.113-4.667-1.532-7.024c-0.324-1.84-1.277-2.249-2.77-1.448
	c-10.627,5.702-22.149,5.019-33.662,5.174c-4.959,0.063-8.188-1.055-10.453-5.615c-1.962-3.953-4.671-7.53-6.958-11.322
	c-3.61-5.988-4.625-12.887-6.646-19.434c-0.228-0.733-0.12-1.653,0.067-2.428c1.09-4.506,1.916-9.116,3.536-13.422
	c0.763-2.027,3.108-3.453,4.813-5.238c0.424,0.639,0.52,0.742,0.502,0.764c-5.017,6.709-1.457,13.838-1.208,20.804
	c0.278,0.093,0.556,0.187,0.831,0.279c0.253-0.641,0.772-1.311,0.712-1.921c-0.354-3.625-0.903-7.232-1.236-10.857
	c-0.103-1.081,0.112-2.269,0.481-3.307c2.687-7.616,8.761-12.686,13.968-18.411c1.225-1.345,2.576-2.591,3.713-4.005
	c4.132-5.168,9.216-8.879,15.562-10.942c2.977-0.966,5.788-2.449,8.683-3.67c2.846-1.206,5.79,0.508,5.389,3.592
	c-1.902,14.461,3.689,27.276,8.413,40.31c0.956,2.643,1.784,5.339,2.466,8.062c0.146,0.593-0.414,1.835-0.939,2.045
	c-4.183,1.669-6.93,5.042-9.949,8.079c-5.142,5.172-10.156,10.47-15.38,15.549c-1.703,1.655-2.462,3.139-1.409,5.389
	c0.519,1.106,0.749,2.345,1.108,3.521c0.258,0.044,0.521,0.089,0.78,0.132c0.155-0.679,0.666-1.548,0.42-2.012
	c-1.766-3.297-0.205-5.319,2.146-7.585c6.025-5.805,11.768-11.9,17.688-17.815c1.203-1.202,2.689-2.122,3.793-2.974
	c1.158,0.697,1.89,1.354,2.744,1.61c1.899,0.565,3.837,1.146,5.797,1.337c6.773,0.673,12.021,3.986,16.701,8.736
	c4.858,4.936,10.065,9.527,15.03,14.36c0.519,0.502,0.741,1.723,0.545,2.464c-0.374,1.411-1.146,2.719-1.845,4.281
	c-0.736-0.473-1.361-0.836-1.942-1.255c-6.118-4.407-12.212-8.841-18.361-13.204c-0.667-0.474-1.627-0.538-2.455-0.792
	c0.445,0.71,0.737,1.634,1.366,2.096c6.333,4.668,12.758,9.216,19.067,13.921c0.949,0.707,1.717,1.951,2.088,3.107
	C270.48,244.793,271.22,248.016,272.159,251.578z M183.943,202.857c1.475,1.285,1.785,0.297,2.178-0.842
	c1.607-4.687,3.18-9.392,4.972-14.009c0.411-1.055,1.49-2.17,2.529-2.604c5.728-2.365,11.546-4.5,17.3-6.8
	c0.563-0.228,0.879-1.053,1.314-1.601c-0.634-0.045-1.35-0.304-1.888-0.101c-6.173,2.359-12.332,4.762-18.459,7.238
	c-0.751,0.303-1.62,0.992-1.888,1.708C187.908,191.493,185.944,197.183,183.943,202.857z"/>
<path fill="#CAE1E8" stroke="#DBDBDB" stroke-width="0.25" stroke-miterlimit="10" d="M254.499,186.895
	c-0.588,0.116-1.177,0.239-2.048,0.419c3.957,6.521,7.738,12.722,11.491,18.941c3.082,5.11,3.449,10.157,1.067,15.992
	c-0.791-0.652-1.536-1.244-2.258-1.861c-0.694-0.594-1.434-1.148-2.034-1.825c-6.917-7.781-15.42-12.471-25.876-13.438
	c-0.648-0.059-1.275-0.335-2.257-0.605c2.302-1.035,2.336-2.557,1.66-4.482c-3.104-8.896-6.028-17.854-9.221-26.719
	c-1.169-3.249-1.846-6.463-1.701-9.915c0.149-3.549,0.034-7.106,0.034-11.357c1.993,1.337,3.644,2.325,5.117,3.528
	c0.333,0.275,0.235,1.374,0.021,1.981c-1.096,3.117-2.33,6.189-3.419,9.314c-0.198,0.569,0.061,1.3,0.107,1.955
	c0.517-0.467,1.283-0.839,1.516-1.422c1.383-3.436,2.641-6.924,3.974-10.479c0.495,0.124,0.83,0.148,1.094,0.29
	c8.866,4.725,18.602,6.841,28.228,9.211c2,0.491,4.397-0.189,6.513-0.721c1.783-0.444,2.673-0.169,3.422,1.587
	c2.528,5.932,5.284,11.764,7.785,17.71c0.538,1.277,0.67,2.896,0.462,4.275c-0.531,3.518-1.556,6.961-1.997,10.482
	c-0.333,2.619-1.463,4.051-4.336,4.409c-3.155-4.531-6.384-9.212-9.674-13.853c-0.653-0.924-1.416-1.863-2.335-2.496
	c-7.977-5.486-16.004-10.907-24.024-16.332c-0.45-0.307-0.993-0.469-1.988-0.928c0,3.85-0.017,7.341,0.041,10.829
	c0.002,0.223,0.642,0.67,0.823,0.599c0.365-0.149,0.868-0.568,0.88-0.889c0.051-1.486-0.06-2.974-0.091-4.46
	c-0.019-0.863-0.005-1.728-0.005-3.01c6.688,4.577,12.936,8.851,19.182,13.126L254.499,186.895z"/>
<path fill="none" d="M143.958,148.315"/>
<path fill="#98A9AE" stroke="#DBDBDB" stroke-width="0.25" stroke-miterlimit="10" d="M254.652,186.751
	c2.785,1.327,5.192,3.018,6.932,5.711c2.726,4.215,5.689,8.28,8.666,12.575c-1.395,0.61-2.584,1.132-4.003,1.757
	c-3.958-6.709-7.853-13.304-11.748-19.902L254.652,186.751z"/>
<path fill="#CAE1E8" stroke="#DBDBDB" stroke-width="0.25" stroke-miterlimit="10" d="M172.493,225.798
	c-2.841-0.838-6.156,0.129-7.676-3.252c-0.414-0.93-0.759-2.023-0.706-3.015c0.232-4.211,0.62-8.404,0.959-12.664
	C167.519,213.107,169.933,219.271,172.493,225.798z"/>
<path fill="#78939C" stroke="#DBDBDB" stroke-width="0.25" stroke-miterlimit="10" d="M183.943,202.857
	c2.001-5.675,3.965-11.364,6.059-17.009c0.268-0.716,1.137-1.405,1.888-1.708c6.127-2.477,12.286-4.879,18.459-7.238
	c0.538-0.203,1.254,0.056,1.888,0.101c-0.436,0.548-0.751,1.373-1.314,1.601c-5.754,2.3-11.572,4.435-17.3,6.8
	c-1.039,0.432-2.118,1.549-2.529,2.604c-1.792,4.617-3.364,9.322-4.972,14.009C185.729,203.154,185.418,204.143,183.943,202.857z"/>
</svg>
