<?xml version="1.0" encoding="utf-8"?>
<!-- Generator: Adobe Illustrator 16.0.0, SVG Export Plug-In . SVG Version: 6.00 Build 0)  -->
<!DOCTYPE svg PUBLIC "-//W3C//DTD SVG 1.1//EN" "http://www.w3.org/Graphics/SVG/1.1/DTD/svg11.dtd">
<svg version="1.1" id="Layer_1" xmlns="http://www.w3.org/2000/svg" xmlns:xlink="http://www.w3.org/1999/xlink" x="0px" y="0px"
	 width="144px" height="144px" viewBox="0 0 144 144" enable-background="new 0 0 144 144" xml:space="preserve">
<rect x="30.75" y="31.685" fill="#40045B" width="82.498" height="81.315"/>
<rect x="85.753" y="38.462" fill="#A7A9AC" width="6.872" height="6.772"/>
<rect x="72" y="38.462" fill="#A7A9AC" width="6.878" height="6.772"/>
<rect x="37.627" y="52.013" fill="#FFFFFF" width="68.748" height="54.213"/>
<rect x="99.075" y="38.477" fill="#1FE5EA" width="6.874" height="6.771"/>
<path fill="#EC008C" d="M68.024,66.467v1.967l-7.518,3.666v-2.07l5.308-2.577l-5.308-2.591v-2.055L68.024,66.467z M52.987,70.029
	l-5.298-2.577l5.298-2.591v-2.055l-7.521,3.661v1.967l7.521,3.666V70.029z M59.608,60.039h-1.946l-3.775,14.827h1.951L59.608,60.039
	z"/>
<path fill="#EC008C" d="M93.811,87.908v1.695c-1.146,0-2.197,0.948-2.197,2.063c0,1.577,0.938,4.312-4.397,4.312v-1.448
	c3.604,0,2.902-1.149,2.902-2.863c0-1.512,0.891-2.527,1.668-2.907c-0.777-0.389-1.668-1.042-1.668-2.389
	c0-1.715,0.693-3.389-2.902-3.389v-1.442c5.34,0,4.397,3.247,4.397,4.831C91.613,87.479,92.665,87.908,93.811,87.908z M79.896,86.37
	c0-1.585-0.947-4.831,4.396-4.831v1.442c-3.596-0.002-2.905,1.672-2.905,3.389c0,1.346-0.893,2-1.673,2.389
	c0.78,0.38,1.673,1.396,1.673,2.906c0,1.714-0.699,2.863,2.905,2.863v1.449c-5.338,0-4.396-2.734-4.396-4.313
	c0-1.113-1.056-2.063-2.2-2.063v-1.695C78.84,87.908,79.896,87.479,79.896,86.37z"/>
<rect x="41.914" y="85.996" fill="#BCBEC0" width="29.666" height="2.924"/>
<rect x="44.883" y="91.841" fill="#BCBEC0" width="23.728" height="2.926"/>
<rect x="74.522" y="67.642" fill="#BCBEC0" width="29.665" height="2.924"/>
<rect x="72.445" y="59.915" fill="#BCBEC0" width="23.728" height="2.924"/>
</svg>
