<?xml version="1.0" encoding="utf-8"?>
<!-- Generator: Adobe Illustrator 16.0.0, SVG Export Plug-In . SVG Version: 6.00 Build 0)  -->
<!DOCTYPE svg PUBLIC "-//W3C//DTD SVG 1.1//EN" "http://www.w3.org/Graphics/SVG/1.1/DTD/svg11.dtd">
<svg version="1.1" xmlns="http://www.w3.org/2000/svg" xmlns:xlink="http://www.w3.org/1999/xlink" x="0px" y="0px"
	 width="323.667px" height="323.667px" viewBox="0 0 323.667 323.667" style="enable-background:new 0 0 323.667 323.667;"
	 xml:space="preserve">
<style type="text/css">
<![CDATA[
	.st0{fill-rule:evenodd;clip-rule:evenodd;fill:#E1612D;}
	.st1{fill-rule:evenodd;clip-rule:evenodd;fill:#862A79;}
	.st2{fill-rule:evenodd;clip-rule:evenodd;fill:#F69A26;}
	.st3{fill-rule:evenodd;clip-rule:evenodd;fill:#C12245;}
	.st4{fill-rule:evenodd;clip-rule:evenodd;fill:#2B2963;}
	.st5{fill-rule:evenodd;clip-rule:evenodd;fill:#FFFFFF;}
	.st6{fill-rule:evenodd;clip-rule:evenodd;fill:none;stroke:#C12245;stroke-width:12;stroke-miterlimit:10;}
]]>
</style>
<g id="Layer_1">
	<g>
		<path class="st2" d="M183.027,74.899c1.543-1.957,3.171-3.84,4.83-5.698c2.422-2.711,4.903-5.362,7.701-7.697
			c1.21-1.01,2.441-2.001,3.97-2.512c0.38-0.127,0.771-0.219,1.155-0.327c0.573,0,1.143,0,1.714,0
			c0.68,0.219,1.378,0.363,2.033,0.684c0.825,0.406,1.592,0.882,2.32,1.442c1.46,1.125,2.655,2.479,3.685,3.998
			c1.208,1.781,1.881,3.775,2.324,5.854c0.726,3.396,0.717,6.818,0.308,10.251c-0.101,0.832-0.188,1.667-0.396,2.482
			c-1.503,0.228-3.005,0.457-4.509,0.683c-1.297,0.195-2.592,0.396-3.893,0.58c-1.195,0.167-2.393,0.315-3.592,0.47
			c-1.123,0.146-2.244,0.312-3.372,0.426c-1.023,0.104-2.047,0.209-3.074,0.3c-1.486,0.132-2.974,0.266-4.465,0.336
			c1.179-1.899,2.452-3.736,3.725-5.573c1.298-1.876,2.646-3.717,4.026-5.534c0.078-0.104,0.198-0.188,0.204-0.377
			c-0.22,0-0.288,0.187-0.389,0.306c-2.864,3.438-5.559,7.007-8.125,10.672c-0.077,0.11-0.165,0.211-0.247,0.316
			c-0.065-0.152-0.115-0.31-0.19-0.454c-0.823-1.563-1.65-3.121-2.475-4.681c-0.942-1.787-1.876-3.576-2.827-5.358
			C183.354,75.277,183.295,75.005,183.027,74.899z M198.295,74.047c0.024-0.04,0.05-0.077,0.072-0.116
			c0.024-0.035,0.049-0.07,0.075-0.104c0.022-0.029,0.069-0.073,0.062-0.083c-0.051-0.078-0.078-0.005-0.112,0.026
			c-0.03,0.031-0.059,0.063-0.088,0.095c-0.023,0.037-0.05,0.074-0.073,0.11c-0.023,0.031-0.073,0.08-0.065,0.091
			C198.216,74.147,198.254,74.081,198.295,74.047z M198.647,73.575c0.034-0.025,0.076-0.064,0.032-0.095
			c-0.048-0.033-0.065,0.021-0.073,0.062c-0.022,0.025-0.067,0.07-0.064,0.071C198.604,73.682,198.619,73.612,198.647,73.575z
			 M198.023,74.199c-0.102,0.101-0.244,0.18-0.208,0.391c0.155-0.078,0.232-0.174,0.274-0.304c0.05-0.032,0.097-0.07,0.036-0.126
			C198.113,74.149,198.06,74.185,198.023,74.199z"/>
		<path class="st4" d="M110.326,264.725c0.396-0.871,0.595-1.803,0.877-2.711c1.29-4.143,2.548-8.293,3.835-12.438
			c0.58-1.867,1.197-3.725,1.797-5.586c0.222-0.039,0.397,0.082,0.59,0.158c0.468,0.184,0.888,0.48,1.395,0.564
			c-0.525,1.744-1.087,3.48-1.66,5.207c-0.502,1.518-0.948,3.045-1.415,4.574c-0.735,2.4-1.458,4.807-2.201,7.209
			c-0.464,1.496-1.369,2.609-2.873,3.174c-0.064,0.023-0.155,0.014-0.166,0.117C110.228,265.049,110.349,264.84,110.326,264.725z"/>
		<path class="st3" d="M190.371,139.598c-3.066,6.107-7.313,11.026-13.905,13.751c0.763-0.022,1.388-0.183,2.012-0.297
			c0.646-0.118,1.283-0.306,1.913-0.496c0.632-0.189,1.257-0.399,1.871-0.636c0.609-0.235,1.201-0.515,1.801-0.776
			c0.078,0.198-0.033,0.345-0.084,0.494c-1.096,3.298-2.256,6.573-3.565,9.793c-1.362,3.346-2.827,6.647-4.526,9.84
			c-2.501,4.704-5.367,9.164-9.034,13.055c-5.343,5.666-11.685,9.826-19.067,12.359c-1.364,0.467-2.768,0.791-4.191,1.02
			c-0.1,0.016-0.215-0.006-0.283,0.1c-0.508,0.121-1.028,0.135-1.543,0.191c-1.509,0.158-3.018,0.328-4.527,0.494
			c2.476-6.803,5.033-13.572,7.668-20.313c2.221-5.684,4.5-11.344,6.847-16.973c4.781-11.475,9.823-22.832,15.262-34.012
			c0.307-0.633,0.626-1.261,0.939-1.892c1.095,0.004,2.168-0.212,3.254-0.296c0.995-0.077,1.983-0.222,2.976-0.331
			c0.934-0.103,1.868-0.192,2.803-0.294c0.977-0.107,1.953-0.225,2.93-0.336c0.993-0.114,1.981-0.247,2.976-0.332
			c0.65-0.056,1.313-0.26,1.956-0.018c0.545,0.204,1.071,0.468,1.599,0.715c2.772,1.291,5.542,2.585,8.314,3.879
			c-1.51,3.589-3.271,7.017-6.102,9.784c-2.152,2.105-4.656,3.67-7.386,4.903c-0.16,0.072-0.319,0.145-0.47,0.247
			c1.146-0.111,2.26-0.369,3.35-0.726c2.079-0.68,4.029-1.626,5.866-2.808c0.087-0.056,0.183-0.1,0.274-0.151
			C190.322,139.558,190.347,139.579,190.371,139.598z"/>
		<path class="st3" d="M127.821,181.646c0.178-1.229,0.488-2.432,0.762-3.643c2.133-9.426,5.155-18.567,8.826-27.5
			c3.798-9.239,8.272-18.147,13.083-26.891c2.617-4.759,5.36-9.445,8.199-14.074c0.079-0.127,0.168-0.249,0.252-0.372
			c0.372,0.719,0.749,1.435,1.114,2.157c1.376,2.715,2.749,5.433,4.123,8.15c0.188,0.375,0.353,0.764,0.572,1.119
			c0.738,1.187,1.313,2.455,1.86,3.735c-1.097,2.233-2.194,4.465-3.287,6.699c-2.35,4.807-4.606,9.656-6.804,14.534
			c-1.451,3.22-2.864,6.459-4.284,9.694c-1.835,4.177-3.567,8.398-5.344,12.6c-1.141,2.702-2.215,5.428-3.302,8.148
			c-1.26,3.155-2.525,6.309-3.752,9.477c-1.414,3.65-2.787,7.313-4.179,10.971c-0.032,0.084-0.068,0.168-0.104,0.248
			c-0.49-0.666-0.766-1.451-1.141-2.18c-1.761-3.424-3.475-6.871-5.234-10.297C128.74,183.359,128.354,182.465,127.821,181.646z"/>
		<path class="st0" d="M194.765,128.288c-2.772-1.294-5.542-2.588-8.314-3.879c-0.527-0.247-1.054-0.511-1.599-0.715
			c-0.644-0.242-1.306-0.038-1.956,0.018c-0.994,0.085-1.982,0.218-2.976,0.332c-0.977,0.112-1.953,0.229-2.93,0.336
			c-0.935,0.102-1.869,0.191-2.803,0.294c-0.992,0.109-1.98,0.254-2.976,0.331c-1.086,0.084-2.159,0.3-3.254,0.296
			c1.113-2.39,2.325-4.732,3.517-7.085c2.458-4.854,5.022-9.653,7.669-14.407c2.052-3.687,4.18-7.33,6.377-10.932
			c1.379-2.259,2.774-4.506,4.246-6.706c1.491-0.07,2.979-0.204,4.465-0.336c1.027-0.091,2.051-0.196,3.074-0.3
			c1.128-0.114,2.249-0.28,3.372-0.426c1.199-0.155,2.396-0.303,3.592-0.47c1.301-0.183,2.596-0.384,3.893-0.58
			c1.504-0.226,3.006-0.455,4.509-0.683c-0.285,1.871-0.743,3.701-1.313,5.503c-1.162,3.682-2.695,7.215-4.401,10.67
			c-1.166,2.358-2.33,4.718-3.668,6.985c-0.897,1.519-1.784,3.042-2.723,4.537c-1.054,1.678-2.118,3.344-3.327,4.914
			c-2.172,2.82-4.976,4.839-8.126,6.419c-0.463,0.232-0.927,0.458-1.371,0.735c3.463-0.621,6.824-1.521,9.882-3.448
			c-0.017,0.509-0.155,0.963-0.272,1.418C196.713,123.584,195.826,125.967,194.765,128.288z"/>
		<path class="st0" d="M166.613,124.328c-0.547-1.281-1.122-2.549-1.86-3.735c-0.22-0.354-0.384-0.744-0.572-1.119
			c-1.374-2.717-2.747-5.435-4.123-8.15c-0.365-0.722-0.742-1.438-1.114-2.157c1.229-2.097,2.552-4.135,3.867-6.179
			c5.604-8.717,11.553-17.19,17.973-25.327c0.735-0.931,1.495-1.843,2.244-2.763c0.268,0.106,0.327,0.378,0.441,0.59
			c0.951,1.782,1.885,3.571,2.827,5.358c0.824,1.561,1.651,3.119,2.475,4.681c0.075,0.144,0.125,0.302,0.19,0.454
			c-1.17,1.724-2.359,3.433-3.499,5.176c-1.799,2.755-3.526,5.554-5.235,8.364c-1.675,2.755-3.285,5.546-4.855,8.361
			c-1.555,2.782-3.061,5.591-4.582,8.39c-1.372,2.528-2.646,5.108-3.955,7.668C166.766,124.074,166.688,124.2,166.613,124.328z"/>
		<path class="st1" d="M137.241,198.49c1.509-0.166,3.018-0.336,4.527-0.494c0.515-0.057,1.035-0.07,1.543-0.191
			c1.675,0.262,3.355,0.469,5.058,0.475c5.86,0.037,10.99-1.918,15.493-5.617c0.404-0.332,0.803-0.678,1.189-1.029
			c0.378-0.344,0.738-0.703,1.127-1.074c-0.101,0.736-2.636,4.949-4.156,6.949c-1.665,2.188-3.661,4.027-5.916,5.592
			c-2.212,1.535-4.603,2.748-7.055,3.871c1.851,0.139,3.677,0.088,5.462-0.443c1.808-0.541,3.271-1.598,4.467-3.053
			c0.088,0.15,0,0.232-0.044,0.324c-2.243,4.596-5.775,7.828-10.461,9.822c-3.817,1.625-7.833,2.273-11.953,2.43
			c-1.375,0.049-2.747,0.037-4.217-0.021c2.426,2.344,3.734,5.117,3.973,8.506c-1.605-2.627-2.997-5.309-5.783-6.84
			c-0.039-0.127,0.046-0.256,0.093-0.391c1.522-4.488,3.075-8.961,4.689-13.412C135.93,202.092,136.586,200.291,137.241,198.49z"/>
		<path class="st1" d="M127.821,181.646c0.534,0.818,0.919,1.713,1.363,2.576c1.759,3.426,3.473,6.873,5.234,10.297
			c0.375,0.729,0.651,1.514,1.141,2.18c-1.032,2.813-2.069,5.621-3.096,8.436c-3.234,8.852-6.33,17.752-9.354,26.682
			c-1.406,4.15-2.745,8.326-4.12,12.486c-0.045,0.139-0.112,0.273-0.168,0.41c-0.506-0.084-0.927-0.381-1.395-0.564
			c-0.192-0.076-0.368-0.197-0.59-0.158c0.569-1.797,1.13-3.602,1.709-5.395c1.914-5.932,3.9-11.838,5.933-17.73
			c0.542-1.57,1.095-3.135,1.66-4.752c-0.588-0.191-1.18-0.236-1.771-0.262c-2.4-0.113-4.717,0.373-7.005,1.027
			c-1.427,0.406-2.824,0.906-4.205,1.451c-0.138,0.055-0.277,0.102-0.446,0.16c0.338-0.482,3.318-2.541,5.149-3.572
			c1.82-1.025,3.711-1.854,5.826-2.113c-2.991-1.008-5.508-2.752-7.789-4.875c0.021-0.023,0.042-0.045,0.063-0.068
			c1.551,0.512,3.098,1.041,4.704,1.359c1.566,0.313,3.138,0.496,4.765,0.201c-0.042-1.074-0.226-2.1-0.449-3.123
			c-0.818-3.742-2.385-7.184-4.25-10.502c-1.177-2.098-2.467-4.119-3.843-6.088l-0.01,0.002c0.11-0.107,0.197-0.008,0.276,0.043
			c2.75,1.709,5.365,3.586,7.512,6.043c0.332,0.379,0.625,0.787,0.984,1.246c0.093-1.033,0.178-1.994,0.267-2.955
			c0.353-3.844,0.947-7.652,1.671-11.438C127.65,182.313,127.742,181.98,127.821,181.646z"/>
		<path class="st3" d="M190.298,139.537c0.029-0.015,0.059-0.03,0.089-0.047c-0.006,0.036-0.011,0.073-0.016,0.109
			C190.347,139.579,190.322,139.558,190.298,139.537z"/>
		<polygon class="st1" points="166.284,190.451 166.289,190.479 166.27,190.477 		"/>
		<path class="st1" d="M116.886,189.709c0.001-0.021,0.004-0.047,0.007-0.07c0.049,0.037,0.028,0.057-0.017,0.072
			C116.876,189.711,116.886,189.709,116.886,189.709z"/>
		<path class="st1" d="M115.897,207.93c-0.023-0.025-0.07-0.068-0.067-0.07c0.042-0.057,0.086-0.027,0.128,0.002
			C115.939,207.885,115.917,207.906,115.897,207.93z"/>
		<path class="st5" d="M198.09,74.286c-0.042,0.129-0.119,0.226-0.274,0.304c-0.036-0.21,0.106-0.29,0.208-0.391
			C198.045,74.229,198.067,74.257,198.09,74.286z"/>
		<path class="st5" d="M198.606,73.542c0.008-0.041,0.025-0.095,0.073-0.062c0.044,0.031,0.002,0.07-0.032,0.095
			C198.634,73.564,198.62,73.553,198.606,73.542z"/>
		<path class="st5" d="M198.647,73.575c-0.028,0.037-0.043,0.106-0.105,0.038c-0.003-0.001,0.042-0.046,0.064-0.071
			C198.62,73.553,198.634,73.564,198.647,73.575z"/>
		<path class="st5" d="M198.391,73.771c0.035-0.03,0.063-0.103,0.113-0.025c0.008,0.01-0.039,0.053-0.062,0.083
			C198.426,73.808,198.408,73.79,198.391,73.771z"/>
		<path class="st5" d="M198.442,73.828c-0.026,0.034-0.051,0.068-0.075,0.104c-0.021-0.021-0.042-0.042-0.063-0.064
			c0.029-0.033,0.058-0.064,0.088-0.095C198.408,73.79,198.426,73.808,198.442,73.828z"/>
		<path class="st5" d="M198.367,73.932c-0.022,0.039-0.048,0.076-0.072,0.116c-0.021-0.024-0.043-0.046-0.064-0.07
			c0.023-0.036,0.05-0.073,0.073-0.11C198.325,73.889,198.346,73.91,198.367,73.932z"/>
		<path class="st5" d="M198.295,74.047c-0.041,0.033-0.079,0.1-0.13,0.021c-0.008-0.011,0.042-0.061,0.065-0.091
			C198.252,74.001,198.274,74.023,198.295,74.047z"/>
		<path class="st5" d="M198.023,74.199c0.036-0.014,0.09-0.05,0.103-0.039c0.061,0.056,0.014,0.094-0.036,0.126
			C198.067,74.257,198.045,74.229,198.023,74.199z"/>
	</g>
</g>
<g id="circle">
	<circle class="st6" cx="161.833" cy="161.833" r="142.2"/>
</g>
</svg>
