<?xml version="1.0" encoding="iso-8859-1"?>
<!-- Generator: Adobe Illustrator 16.0.0, SVG Export Plug-In . SVG Version: 6.00 Build 0)  -->
<!DOCTYPE svg PUBLIC "-//W3C//DTD SVG 1.1//EN" "http://www.w3.org/Graphics/SVG/1.1/DTD/svg11.dtd">
<svg version="1.1" id="Layer_1" xmlns="http://www.w3.org/2000/svg" xmlns:xlink="http://www.w3.org/1999/xlink" x="0px" y="0px"
	 width="324px" height="324px" viewBox="0 0 324 324" style="enable-background:new 0 0 324 324;" xml:space="preserve">
<g>
	<path style="fill:#00979C;" d="M60.68,162.046c0-0.817,0-1.635,0-2.452c-0.204-4.701,0.818-9.197,2.453-13.489
		c4.497-11.65,12.467-20.234,23.299-26.161c5.723-2.861,11.65-4.905,18.19-5.519c8.993-0.816,17.781,0.205,26.365,3.679
		c5.927,2.249,11.241,5.927,15.942,10.015c5.519,4.905,10.015,10.627,14.307,16.759c0.613,0.817,0.613,0.817,1.227,0
		c2.453-3.475,5.314-7.153,7.97-10.424c8.788-9.81,19.008-16.759,32.292-19.211c9.197-1.635,18.395-1.431,27.591,1.635
		c6.541,2.248,12.468,5.723,17.577,10.423c6.131,5.519,10.424,12.059,13.08,19.826c1.227,3.679,2.044,7.562,2.248,11.445
		c0.614,8.788-1.021,17.167-5.109,24.934c-4.7,8.788-11.24,15.533-19.824,20.029c-5.928,3.27-12.468,5.314-19.008,5.927
		c-8.175,0.818-16.146,0.409-24.116-2.248c-6.336-2.044-11.854-5.723-16.964-10.015c-6.336-5.518-11.036-12.059-15.737-19.007
		c-0.613-1.021-0.613-1.021-1.227,0c-3.679,5.723-7.767,11.036-12.467,15.941c-7.971,7.971-17.372,13.489-28.613,15.124
		c-4.905,0.613-9.605,0.613-14.511,0.204c-6.949-0.408-13.285-2.248-19.212-5.519c-3.883-2.043-7.562-4.7-10.627-7.562
		c-5.723-5.314-10.015-11.445-12.671-19.007c-1.431-3.884-2.453-8.176-2.249-12.672C60.68,164.09,60.68,163.068,60.68,162.046z
		 M111.366,193.316c5.109,0.204,9.606-0.613,14.103-2.452c5.518-2.249,9.605-6.132,13.693-10.424
		c4.905-5.519,8.583-11.649,12.671-17.781c0.204-0.409,0.204-0.817,0-1.431c-3.883-6.335-8.175-12.467-13.489-17.781
		c-2.861-2.861-6.336-5.723-10.015-7.767c-7.357-3.679-15.124-5.109-23.095-3.679c-10.015,1.431-17.985,6.54-23.299,15.125
		c-5.723,9.401-5.927,19.007-1.022,29.021c3.475,7.153,9.197,11.854,16.351,14.919C101.556,192.499,106.461,193.316,111.366,193.316
		z M212.125,193.316c2.044,0,4.497,0,6.54-0.408c8.38-1.227,15.329-5.11,20.847-11.446c5.928-7.153,8.38-15.532,6.54-24.525
		c-2.452-12.467-10.219-20.029-22.072-24.117c-4.7-1.635-9.401-1.635-14.511-1.226c-4.905,0.409-9.606,1.635-14.103,4.292
		c-4.7,2.452-8.584,6.131-12.059,9.81c-4.496,4.905-7.971,10.015-11.241,15.533c-0.204,0.409-0.204,0.614,0,1.022
		c2.658,4.497,5.519,8.789,8.585,12.876c2.861,3.883,6.131,7.767,10.015,10.832C196.797,191.068,203.95,193.521,212.125,193.316z"/>
	<rect x="94.198" y="157.959" style="fill:#00979C;" width="33.927" height="7.562"/>
	<rect x="206.198" y="146.922" style="fill:#00979C;" width="9.811" height="27.795"/>
	<rect x="197.206" y="155.71" style="fill:#00979C;" width="27.795" height="9.81"/>
</g>
<circle style="fill:none;stroke:#424243;stroke-width:12;stroke-miterlimit:10;" cx="162" cy="162" r="142.2"/>
</svg>
