<?xml version="1.0" encoding="utf-8"?>
<!-- Generator: Adobe Illustrator 16.0.0, SVG Export Plug-In . SVG Version: 6.00 Build 0)  -->
<!DOCTYPE svg PUBLIC "-//W3C//DTD SVG 1.1//EN" "http://www.w3.org/Graphics/SVG/1.1/DTD/svg11.dtd">
<svg version="1.1" id="Layer_1" xmlns="http://www.w3.org/2000/svg" xmlns:xlink="http://www.w3.org/1999/xlink" x="0px" y="0px"
	 width="324px" height="324px" viewBox="0 0 324 324" enable-background="new 0 0 324 324" xml:space="preserve">
<circle fill-rule="evenodd" clip-rule="evenodd" fill="none" stroke="#F8991D" stroke-width="12" stroke-miterlimit="10" cx="161.886" cy="161.878" r="142.2"/>
<path fill="#262F3E" d="M122.69,147.259c0,2.217,0.24,4.015,0.659,5.333c0.479,1.318,1.079,2.756,1.918,4.314
	c0.299,0.479,0.419,0.959,0.419,1.378c0,0.6-0.36,1.198-1.138,1.798l-3.775,2.517c-0.54,0.359-1.079,0.539-1.558,0.539
	c-0.599,0-1.198-0.299-1.797-0.838c-0.839-0.899-1.558-1.858-2.157-2.817c-0.599-1.019-1.198-2.157-1.857-3.535
	c-4.674,5.513-10.546,8.269-17.617,8.269c-5.033,0-9.047-1.438-11.984-4.314c-2.936-2.876-4.434-6.711-4.434-11.505
	c0-5.094,1.798-9.228,5.453-12.344c3.655-3.116,8.509-4.673,14.68-4.673c2.038,0,4.135,0.179,6.352,0.479
	c2.217,0.299,4.494,0.779,6.891,1.318v-4.374c0-4.554-0.959-7.729-2.816-9.587c-1.917-1.858-5.153-2.756-9.767-2.756
	c-2.097,0-4.254,0.239-6.472,0.779c-2.217,0.54-4.374,1.198-6.471,2.037c-0.958,0.419-1.678,0.659-2.097,0.779
	c-0.42,0.12-0.719,0.179-0.959,0.179c-0.839,0-1.258-0.599-1.258-1.857v-2.936c0-0.959,0.12-1.678,0.419-2.097
	c0.299-0.419,0.839-0.839,1.678-1.258c2.097-1.079,4.614-1.978,7.55-2.696c2.937-0.779,6.052-1.138,9.348-1.138
	c7.131,0,12.344,1.618,15.699,4.854c3.296,3.236,4.974,8.149,4.974,14.74v19.415L122.69,147.259L122.69,147.259z M98.362,156.366
	c1.978,0,4.015-0.359,6.172-1.078c2.157-0.719,4.075-2.037,5.692-3.835c0.959-1.138,1.678-2.396,2.038-3.834
	c0.359-1.438,0.599-3.176,0.599-5.213v-2.517c-1.738-0.419-3.595-0.779-5.513-1.019c-1.917-0.239-3.775-0.359-5.632-0.359
	c-4.015,0-6.951,0.779-8.928,2.397c-1.978,1.618-2.936,3.895-2.936,6.891c0,2.816,0.719,4.914,2.217,6.351
	C93.509,155.648,95.606,156.367,98.362,156.366L98.362,156.366z M146.478,162.838c-1.079,0-1.797-0.179-2.277-0.6
	c-0.479-0.359-0.899-1.198-1.258-2.337l-14.082-46.319c-0.359-1.198-0.54-1.977-0.54-2.396c0-0.959,0.479-1.499,1.438-1.499h5.872
	c1.138,0,1.918,0.18,2.337,0.599c0.479,0.36,0.839,1.199,1.198,2.337l10.067,39.667l9.348-39.667
	c0.299-1.198,0.659-1.978,1.138-2.337c0.479-0.359,1.318-0.599,2.397-0.599h4.793c1.138,0,1.918,0.18,2.397,0.599
	c0.479,0.36,0.898,1.199,1.138,2.337l9.468,40.147l10.367-40.147c0.359-1.198,0.778-1.978,1.197-2.337
	c0.479-0.359,1.259-0.599,2.338-0.599h5.572c0.959,0,1.498,0.479,1.498,1.499c0,0.299-0.061,0.599-0.12,0.958
	s-0.18,0.839-0.419,1.498l-14.441,46.319c-0.359,1.198-0.778,1.977-1.258,2.337c-0.479,0.359-1.259,0.599-2.277,0.599h-5.153
	c-1.139,0-1.917-0.18-2.396-0.599c-0.479-0.42-0.899-1.198-1.139-2.397l-9.288-38.649l-9.228,38.589
	c-0.299,1.199-0.659,1.977-1.139,2.396s-1.318,0.6-2.396,0.6H146.478L146.478,162.838z M223.477,164.456
	c-3.116,0-6.232-0.359-9.229-1.079c-2.996-0.718-5.332-1.498-6.891-2.396c-0.959-0.54-1.617-1.139-1.857-1.678
	c-0.239-0.54-0.359-1.139-0.359-1.678v-3.056c0-1.258,0.479-1.857,1.378-1.857c0.359,0,0.719,0.06,1.078,0.18
	c0.36,0.12,0.899,0.359,1.498,0.6c2.037,0.899,4.255,1.618,6.592,2.097c2.397,0.479,4.733,0.719,7.131,0.719
	c3.774,0,6.711-0.66,8.748-1.978c2.037-1.318,3.116-3.236,3.116-5.693c0-1.678-0.54-3.056-1.617-4.194
	c-1.079-1.139-3.116-2.157-6.053-3.116l-8.688-2.696c-4.374-1.378-7.61-3.416-9.587-6.112c-1.978-2.637-2.996-5.573-2.996-8.688
	c0-2.517,0.539-4.734,1.618-6.651c1.078-1.918,2.517-3.596,4.313-4.914c1.798-1.378,3.835-2.396,6.232-3.116
	c2.396-0.719,4.913-1.019,7.55-1.019c1.318,0,2.696,0.06,4.016,0.239c1.378,0.18,2.636,0.419,3.895,0.659
	c1.197,0.3,2.337,0.6,3.415,0.959s1.918,0.719,2.517,1.079c0.839,0.479,1.438,0.958,1.798,1.498
	c0.359,0.479,0.539,1.139,0.539,1.978v2.816c0,1.258-0.479,1.918-1.378,1.918c-0.48,0-1.259-0.24-2.277-0.72
	c-3.416-1.558-7.251-2.337-11.505-2.337c-3.415,0-6.112,0.54-7.97,1.678s-2.816,2.876-2.816,5.333c0,1.678,0.599,3.116,1.798,4.254
	c1.198,1.138,3.415,2.277,6.591,3.295l8.509,2.696c4.315,1.378,7.431,3.296,9.288,5.752s2.757,5.273,2.757,8.389
	c0,2.576-0.54,4.914-1.558,6.951c-1.079,2.038-2.517,3.834-4.374,5.273c-1.858,1.498-4.075,2.577-6.652,3.355
	C229.349,164.035,226.533,164.455,223.477,164.456L223.477,164.456z"/>
<g>
	<path fill="#F8991D" d="M234.802,193.578c-19.714,14.561-48.356,22.29-72.983,22.29c-34.515,0-65.613-12.764-89.103-33.975
		c-1.857-1.678-0.179-3.955,2.038-2.637c25.406,14.74,56.745,23.669,89.162,23.669c21.871,0,45.898-4.554,68.01-13.901
		C235.221,187.525,238.037,191.181,234.802,193.578z"/>
	<path fill="#F8991D" d="M243.01,184.23c-2.516-3.236-16.657-1.559-23.068-0.779c-1.918,0.239-2.218-1.438-0.479-2.696
		c11.265-7.91,29.78-5.633,31.938-2.997c2.157,2.697-0.6,21.214-11.145,30.081c-1.618,1.378-3.176,0.659-2.457-1.138
		C240.195,200.769,245.527,187.406,243.01,184.23L243.01,184.23z"/>
</g>
</svg>
