<?xml version="1.0" encoding="utf-8"?>
<!-- Generator: Adobe Illustrator 16.0.0, SVG Export Plug-In . SVG Version: 6.00 Build 0)  -->
<!DOCTYPE svg PUBLIC "-//W3C//DTD SVG 1.1//EN" "http://www.w3.org/Graphics/SVG/1.1/DTD/svg11.dtd">
<svg version="1.1" id="Layer_1" xmlns="http://www.w3.org/2000/svg" xmlns:xlink="http://www.w3.org/1999/xlink" x="0px" y="0px"
	 width="324px" height="324px" viewBox="0 0 324 324" enable-background="new 0 0 324 324" xml:space="preserve">
<g id="Layer_2">
	<path fill="#406BB3" d="M166.244,193.152c-15.038-0.266-26.615-11.782-26.59-26.61c0.025-14.956,11.6-26.485,26.489-26.541
		c14.729-0.055,26.573,11.301,26.646,26.498C192.859,181.214,181.391,192.852,166.244,193.152z"/>
	<circle fill="none" stroke="#FFFFFF" stroke-width="12" stroke-miterlimit="10" cx="161.75" cy="162" r="142.2"/>
</g>
<g id="Layer_1_1_">
	<path fill="#F37127" d="M163.525,101.364c-0.479-0.505-0.756-0.811-1.046-1.102c-7.412-7.415-14.819-14.835-22.245-22.237
		c-1.966-1.959-3.31-4.199-3.583-7.018c-0.515-5.301,3.172-10.276,8.547-11.186c3.931-0.665,7.105,0.786,9.85,3.535
		c18.272,18.295,36.519,36.617,54.882,54.82c3.74,3.708,7.004,7.785,10.238,11.886c1.598,2.026,2.463,4.61,3.838,6.832
		c3.223,5.208,4.436,11.141,6.09,16.891c0.693,2.408,0.473,5.066,0.881,7.574c0.863,5.336-0.147,10.579-0.584,15.855
		c-0.317,3.892-2.033,7.407-2.938,11.14c-1.016,4.197-3.592,7.652-5.4,11.475c-1.928,4.07-5.229,7.102-7.879,10.626
		c-2.615,3.479-6.369,5.685-9.529,8.555c-2.819,2.563-6.42,3.826-9.612,5.765c-4.921,2.99-10.529,4.058-15.933,5.625
		c-2.771,0.806-5.834,0.567-8.731,1.004c-4.847,0.729-9.593-0.193-14.363-0.67c-5.424-0.543-10.533-2.422-15.53-4.426
		c-3.491-1.399-6.739-3.432-10.023-5.313c-2.122-1.215-3.759-3.11-5.751-4.516c-5.161-3.64-8.799-8.709-12.526-13.621
		c-2.133-2.813-3.431-6.25-5.174-9.365c-1.82-3.254-2.317-6.952-3.613-10.379c-1.402-3.703-1.468-7.609-1.896-11.465
		c-0.101-0.899-0.186-1.801-0.281-2.725c-0.507,0.057-0.689,0.441-0.947,0.699c-8.347,8.334-16.685,16.675-25.026,25.016
		c-1.521,1.521-3.235,2.705-5.349,3.299c-3.63,1.018-8.094-0.342-10.479-3.265c-2.788-3.417-3.33-7.815-1.458-11.399
		c0.667-1.275,1.559-2.354,2.563-3.357c18.91-18.912,37.82-37.82,56.725-56.734c0.264-0.264,0.623-0.464,0.734-0.891
		c-0.363-0.243-0.759-0.117-1.127-0.117c-10.802-0.008-21.606-0.023-32.409,0.001c-3.648,0.009-6.579-1.351-8.833-4.23
		c-3.711-4.741-2.036-12.402,3.293-15.221c1.945-1.029,3.99-1.358,6.133-1.359c25.683-0.001,51.365,0,77.046,0
		C162.465,101.364,162.852,101.364,163.525,101.364z M166.193,210.792c24.488-0.532,44.061-18.956,44.164-44.157
		c0.096-24.525-18.902-44.171-44.109-44.201c-24.891-0.029-44.175,19.282-44.161,44.136
		C122.103,191.33,141.257,210.184,166.193,210.792z"/>
	<path fill="#FFFFFF" d="M166.193,210.792c-24.937-0.608-44.091-19.462-44.106-44.222c-0.015-24.854,19.27-44.167,44.161-44.137
		c25.207,0.03,44.205,19.676,44.109,44.201C210.254,191.836,190.682,210.26,166.193,210.792z M166.244,193.152
		c15.146-0.301,26.615-11.938,26.545-26.653c-0.072-15.196-11.916-26.553-26.646-26.498c-14.888,0.055-26.462,11.584-26.488,26.541
		C139.629,181.37,151.207,192.889,166.244,193.152z"/>
</g>
</svg>
