<?xml version="1.0" encoding="utf-8"?>
<!-- Generator: Adobe Illustrator 16.0.0, SVG Export Plug-In . SVG Version: 6.00 Build 0)  -->
<!DOCTYPE svg PUBLIC "-//W3C//DTD SVG 1.1//EN" "http://www.w3.org/Graphics/SVG/1.1/DTD/svg11.dtd">
<svg version="1.1" xmlns="http://www.w3.org/2000/svg" xmlns:xlink="http://www.w3.org/1999/xlink" x="0px" y="0px" width="324px"
	 height="324px" viewBox="0 0 324 324" enable-background="new 0 0 324 324" xml:space="preserve">
<g id="Layer_2">
	<path fill-rule="evenodd" clip-rule="evenodd" fill="#406BB3" d="M166.244,193.152c-15.038-0.265-26.615-11.782-26.59-26.61
		c0.025-14.956,11.6-26.485,26.488-26.541c14.73-0.055,26.574,11.301,26.646,26.498
		C192.859,181.214,181.391,192.852,166.244,193.152z"/>
	
		<circle fill-rule="evenodd" clip-rule="evenodd" fill="none" stroke="#3F6AB3" stroke-width="12" stroke-miterlimit="10" cx="161.75" cy="162" r="142.2"/>
</g>
<g id="Layer_1">
	<path fill-rule="evenodd" clip-rule="evenodd" fill="#F37127" d="M163.525,101.364c-0.479-0.505-0.755-0.811-1.046-1.102
		c-7.412-7.415-14.819-14.835-22.245-22.237c-1.966-1.959-3.31-4.199-3.583-7.018c-0.515-5.301,3.172-10.276,8.547-11.186
		c3.931-0.665,7.105,0.786,9.85,3.535c18.273,18.295,36.519,36.617,54.882,54.82c3.74,3.708,7.004,7.785,10.238,11.886
		c1.598,2.026,2.463,4.61,3.838,6.832c3.223,5.208,4.436,11.141,6.09,16.891c0.693,2.408,0.473,5.066,0.881,7.574
		c0.863,5.337-0.148,10.579-0.584,15.855c-0.318,3.891-2.033,7.407-2.938,11.14c-1.016,4.197-3.592,7.652-5.4,11.474
		c-1.928,4.07-5.23,7.101-7.879,10.626c-2.615,3.479-6.369,5.685-9.529,8.555c-2.82,2.563-6.42,3.826-9.613,5.765
		c-4.92,2.99-10.529,4.057-15.932,5.624c-2.771,0.806-5.834,0.568-8.732,1.004c-4.846,0.729-9.593-0.193-14.363-0.67
		c-5.424-0.542-10.533-2.421-15.53-4.426c-3.491-1.399-6.739-3.431-10.023-5.312c-2.122-1.215-3.759-3.11-5.751-4.516
		c-5.161-3.639-8.799-8.708-12.526-13.621c-2.133-2.812-3.431-6.249-5.174-9.365c-1.82-3.254-2.317-6.952-3.613-10.378
		c-1.402-3.704-1.468-7.61-1.896-11.465c-0.101-0.9-0.186-1.802-0.281-2.725c-0.507,0.056-0.689,0.441-0.947,0.699
		c-8.347,8.334-16.685,16.675-25.026,25.015c-1.521,1.521-3.235,2.706-5.349,3.3c-3.63,1.017-8.094-0.342-10.479-3.265
		c-2.788-3.417-3.33-7.815-1.458-11.399c0.667-1.276,1.559-2.354,2.563-3.358c18.91-18.912,37.82-37.82,56.725-56.734
		c0.264-0.264,0.623-0.464,0.734-0.891c-0.363-0.243-0.759-0.117-1.127-0.117c-10.802-0.008-21.606-0.023-32.409,0.001
		c-3.648,0.009-6.579-1.351-8.833-4.23c-3.711-4.741-2.036-12.402,3.293-15.221c1.945-1.029,3.99-1.358,6.133-1.359
		c25.683-0.001,51.365,0,77.046,0C162.465,101.364,162.852,101.364,163.525,101.364z M166.193,210.792
		c24.488-0.532,44.061-18.956,44.164-44.157c0.096-24.525-18.902-44.171-44.109-44.201c-24.891-0.029-44.175,19.282-44.161,44.137
		C122.103,191.33,141.257,210.183,166.193,210.792z"/>
	<path fill-rule="evenodd" clip-rule="evenodd" fill="#FFFFFF" d="M166.193,210.792c-24.936-0.609-44.091-19.462-44.106-44.222
		c-0.015-24.854,19.27-44.166,44.161-44.137c25.207,0.03,44.205,19.676,44.109,44.201
		C210.254,191.836,190.682,210.26,166.193,210.792z M166.244,193.152c15.146-0.301,26.615-11.938,26.545-26.653
		c-0.072-15.196-11.916-26.553-26.646-26.498c-14.888,0.055-26.463,11.584-26.488,26.541
		C139.629,181.37,151.207,192.888,166.244,193.152z"/>
</g>
</svg>
