<?xml version="1.0" encoding="utf-8"?>
<!-- Generator: Adobe Illustrator 16.0.0, SVG Export Plug-In . SVG Version: 6.00 Build 0)  -->
<!DOCTYPE svg PUBLIC "-//W3C//DTD SVG 1.1//EN" "http://www.w3.org/Graphics/SVG/1.1/DTD/svg11.dtd">
<svg version="1.1" xmlns="http://www.w3.org/2000/svg" xmlns:xlink="http://www.w3.org/1999/xlink" x="0px" y="0px" width="324px"
	 height="324px" viewBox="0 0 324 324" style="enable-background:new 0 0 324 324;" xml:space="preserve">
<style type="text/css">
<![CDATA[
	.st0{fill:none;stroke:#C7BFD3;stroke-width:12;stroke-miterlimit:10;}
	.st1{enable-background:new    ;}
	.st2{fill:#573E7D;}
	.st3{fill:#FFFFFF;}
]]>
</style>
<g id="Layer_1">
	
		<g id="solid" xmlns:inkscape="http://www.inkscape.org/namespaces/inkscape" xmlns:svg="http://www.w3.org/2000/svg" xmlns:sodipodi="http://sodipodi.sourceforge.net/DTD/sodipodi-0.dtd" xmlns:rdf="http://www.w3.org/1999/02/22-rdf-syntax-ns#" xmlns:cc="http://creativecommons.org/ns#" xmlns:dc="http://purl.org/dc/elements/1.1/" inkscape:version="0.48.1 r9760" sodipodi:docname="twitter_bootstrap_logo.svg">
		<path id="bg" class="st2" d="M248,221c0,16.225-12.9,29.5-28.666,29.5H104.667C88.9,250.5,76,237.225,76,221V103
			c0-16.225,12.9-29.5,28.667-29.5h114.667C235.1,73.5,248,86.775,248,103V221z"/>
		<g id="B" class="st1">
			<path class="st3" d="M122.738,111.965h48.761c8.994,0,16.217,2.111,21.641,6.363c5.425,4.251,8.15,10.643,8.15,19.233
				c0,5.207-1.237,9.66-3.71,13.362c-2.473,3.703-6.014,6.594-10.623,8.619v0.289c6.183,1.359,10.877,4.367,14.053,9.022
				c3.176,4.686,4.777,10.528,4.777,17.586c0,4.048-0.703,7.837-2.107,11.337c-1.405,3.528-3.599,6.564-6.605,9.109
				c-3.007,2.546-6.829,4.57-11.522,6.074c-4.694,1.504-10.259,2.256-16.723,2.256h-46.091V111.965L122.738,111.965z
				 M140.303,155.204h28.667c4.216,0,7.729-1.215,10.54-3.703c2.81-2.486,4.216-6.015,4.216-10.643
				c0-5.206-1.266-8.879-3.795-10.991c-2.529-2.11-6.184-3.181-10.961-3.181h-28.667V155.204L140.303,155.204z M140.303,200.466
				h31.055c5.34,0,9.499-1.417,12.423-4.28c2.95-2.834,4.44-6.883,4.44-12.09c0-5.119-1.462-9.022-4.44-11.8
				c-2.979-2.776-7.083-4.106-12.423-4.106h-31.055V200.466z"/>
		</g>
	</g>
</g>
<g id="circle">
	<circle class="st0" cx="164.263" cy="163.59" r="142.2"/>
</g>
</svg>
