<?xml version="1.0" encoding="utf-8"?>
<!-- Generator: Adobe Illustrator 16.0.0, SVG Export Plug-In . SVG Version: 6.00 Build 0)  -->
<!DOCTYPE svg PUBLIC "-//W3C//DTD SVG 1.1//EN" "http://www.w3.org/Graphics/SVG/1.1/DTD/svg11.dtd">
<svg version="1.1" id="Layer_1" xmlns="http://www.w3.org/2000/svg" xmlns:xlink="http://www.w3.org/1999/xlink" x="0px" y="0px"
	 width="324px" height="324px" viewBox="0 0 324 324" enable-background="new 0 0 324 324" xml:space="preserve">
<circle fill="none" stroke="#29357E" stroke-width="12" stroke-miterlimit="10" cx="162" cy="162" r="142.2"/>
<g>
	<g>
		<path fill-rule="evenodd" clip-rule="evenodd" fill="none" d="M247.726,157.217c0,7.877-0.011,15.755,0.019,23.633
			c0.002,0.696-0.116,0.868-0.852,0.867c-56.384-0.022-112.768-0.022-169.151-0.001c-0.759,0-0.916-0.183-0.914-0.923
			c0.026-12.276,0.025-24.553,0-36.83c-0.001-0.732,0.144-0.927,0.911-0.927c56.383,0.021,112.768,0.021,169.151,0
			c0.726,0,0.863,0.158,0.855,0.864c-0.041,4.038-0.02,8.077-0.02,12.116c-0.083,0.004-0.166,0.008-0.249,0.013
			c-0.843-0.949-1.722-0.537-2.396,0.112c-1.417,1.365-2.727,2.841-4.075,4.265c0.229-0.952,0.471-1.953,0.706-2.955
			c0.2-0.854-0.133-1.232-1-1.047c-2.074,0.443-3.666,1.689-5.103,3.159c-0.104,0.106,0.03,0.446,0.054,0.677
			c0.188-0.026,0.428,0.013,0.557-0.089c0.436-0.347,0.8-0.787,1.253-1.105c0.37-0.26,0.827-0.397,1.246-0.588
			c0.01,0.453,0.117,0.929,0.016,1.356c-0.785,3.292-1.615,6.573-2.415,9.862c-0.08,0.328-0.199,0.802-0.04,1.003
			c0.437,0.552,2.334-0.04,2.506-0.739c0.493-2.009,0.851-4.063,1.501-6.02c0.905-2.723,2.635-4.779,5.465-5.754
			c0.616-0.212,1.167-0.618,1.747-0.934l0.113-0.018L247.726,157.217z M160.213,159.692c0.161-0.566,0.291-0.966,0.388-1.373
			c0.597-2.479,1.121-4.978,1.802-7.434c0.534-1.929,1.213-2.253,3.172-1.969c0.707,0.103,1.456,0.23,2.136,0.095
			c0.432-0.086,1.035-0.606,1.076-0.985c0.041-0.375-0.444-1.011-0.848-1.18c-0.506-0.212-1.186-0.176-1.75-0.057
			c-3.385,0.708-5.678,2.72-6.55,6.07c-1.485,5.708-2.834,11.452-4.229,17.182c-0.051,0.211-0.083,0.539,0.034,0.659
			c0.488,0.506,2.364-0.089,2.522-0.773c0.488-2.108,0.972-4.219,1.548-6.722c0.813,1.182,1.519,2.002,1.992,2.94
			c0.895,1.775,1.568,3.664,2.498,5.42c0.738,1.395,1.571,2.798,2.631,3.95c1.607,1.747,3.734,2.223,6.042,1.602
			c1.404-0.378,2.581-1.691,2.491-2.873c-0.037-0.481-0.375-1.045-0.754-1.354c-0.216-0.177-0.956-0.055-1.158,0.187
			c-0.239,0.286-0.284,0.877-0.185,1.278c0.286,1.142-0.031,1.698-1.212,1.849c-1.488,0.189-2.733-0.351-3.54-1.55
			c-0.838-1.246-1.546-2.599-2.168-3.969c-1.223-2.695-2.126-5.586-5.011-7.124c1.278-0.289,2.476-0.452,3.597-0.838
			c1.742-0.599,3.083-1.695,3.453-3.629c0.313-1.631-0.804-2.92-2.438-2.686c-0.878,0.126-1.781,0.479-2.538,0.948
			C162.185,157.998,161.283,158.845,160.213,159.692z M200.918,160.086c-0.06-0.052-0.119-0.104-0.179-0.157
			c0.077-0.344,0.156-0.688,0.232-1.033c0.085-0.388,0.197-0.773,0.247-1.166c0.152-1.207-0.3-1.653-1.493-1.388
			c-2.044,0.455-3.561,1.739-4.867,3.293c-0.112,0.133,0.01,0.537,0.131,0.754c0.04,0.072,0.479,0.029,0.636-0.092
			c0.567-0.439,1.063-0.975,1.645-1.389c0.28-0.199,0.696-0.209,1.05-0.304c0.019,0.333,0.115,0.685,0.042,0.997
			c-1.279,5.474-2.589,10.94-3.87,16.413c-0.306,1.308-0.899,2.273-2.327,2.568c-0.232,0.048-0.391,0.457-0.584,0.699
			c0.236,0.058,0.474,0.169,0.708,0.163c1.437-0.035,2.871-0.13,4.307-0.136c0.915-0.003,1.83,0.161,2.744,0.148
			c0.287-0.003,0.57-0.336,0.855-0.518c-0.222-0.138-0.427-0.333-0.667-0.401c-0.497-0.142-1.015-0.21-1.521-0.317
			c-1.069-0.227-1.454-0.848-1.166-1.925c0.443-1.656,0.85-3.322,1.261-4.986c0.116-0.472,0.291-0.523,0.808-0.43
			c1.034,0.189,2.146,0.386,3.151,0.194c1.671-0.318,2.876-1.495,3.877-2.835c2.2-2.944,3.514-6.169,2.926-9.921
			c-0.249-1.594-1.224-2.309-2.734-1.82c-1.175,0.38-2.254,1.128-3.296,1.832C202.123,158.81,201.552,159.494,200.918,160.086z
			 M119.382,167.881c-0.23,0.819-0.383,1.311-0.506,1.81c-0.335,1.355,0.22,2.026,1.446,1.438c1.733-0.833,3.298-2.02,4.911-3.09
			c0.112-0.075,0.025-0.448,0.03-0.684c-0.225,0.024-0.497-0.024-0.666,0.086c-0.5,0.325-0.93,0.763-1.442,1.063
			c-0.386,0.227-0.856,0.31-1.289,0.457c-0.057-0.447-0.24-0.921-0.151-1.337c0.649-3.038,1.337-6.068,2.043-9.094
			c0.589-2.521,1.169-5.045,1.846-7.542c0.5-1.844,1.061-2.155,2.944-1.972c0.674,0.065,1.347,0.151,2.023,0.195
			c0.853,0.054,1.584-0.228,1.629-1.17c0.044-0.918-0.602-1.329-1.483-1.337c-0.356-0.004-0.72,0.014-1.07,0.079
			c-3.051,0.569-5.228,2.293-6.464,5.118c-0.524,1.196-0.867,2.479-1.206,3.745c-0.165,0.613-0.408,0.72-1.04,0.777
			c-1,0.091-2.118,0.257-2.933,0.784c-3.975,2.571-6.112,6.324-6.369,11.03c-0.151,2.768,1.537,3.744,4.038,2.525
			c0.462-0.226,0.914-0.496,1.315-0.816C117.731,169.352,118.433,168.705,119.382,167.881z M152.96,155.118
			c-0.019,0.359-0.089,0.725-0.042,1.075c0.037,0.271,0.219,0.522,0.336,0.782c0.208-0.252,0.543-0.478,0.604-0.762
			c0.332-1.557,0.621-3.125,0.855-4.699c0.033-0.225-0.267-0.672-0.488-0.731c-0.806-0.214-1.64-0.35-2.472-0.439
			c-2.328-0.25-4.428,0.29-6.227,1.858c-2.988,2.605-3.158,5.874-0.462,8.779c1.085,1.168,2.24,2.294,3.167,3.581
			c1.081,1.499,1.025,3.175-0.025,4.706c-1.365,1.988-3.275,3.037-5.72,2.806c-1.879-0.178-2.54-1.568-2.843-3.211
			c-0.007-0.039-0.029-0.074-0.042-0.112c-0.229-0.7-0.607-1.264-1.439-1.159c-0.889,0.112-1.472,0.784-1.294,1.567
			c0.205,0.906,0.615,1.958,1.289,2.532c2.631,2.244,5.635,1.955,8.557,0.688c5.527-2.397,6.508-7.239,2.449-11.632
			c-0.84-0.908-1.711-1.79-2.516-2.728c-0.872-1.017-1.063-2.201-0.65-3.478c0.651-2.012,2.915-3.419,4.986-3.102
			C152.441,151.663,153.039,152.772,152.96,155.118z M80.212,165.315c0,0.439-0.024,0.88,0.003,1.316
			c0.271,4.309,3.113,7.328,7.128,7.428c3.304,0.082,5.637-1.678,7.408-4.297c0.155-0.229,0.026-0.65,0.029-0.981
			c-0.333,0.12-0.741,0.157-0.983,0.378c-0.469,0.426-0.811,0.988-1.265,1.434c-1.502,1.476-3.227,2.42-5.395,1.747
			c-2.195-0.682-3.223-2.419-3.574-4.545c-0.86-5.201,0.52-9.843,3.966-13.767c0.952-1.084,2.389-1.91,3.764-2.422
			c2.832-1.054,4.915,0.507,5.02,3.524c0.024,0.678-0.046,1.36-0.011,2.037c0.01,0.195,0.238,0.379,0.365,0.568
			c0.192-0.17,0.515-0.315,0.556-0.516c0.339-1.677,0.643-3.362,0.909-5.052c0.035-0.22-0.146-0.625-0.332-0.706
			c-3.393-1.49-6.775-1.841-10.054,0.303C82.867,154.957,80.578,159.612,80.212,165.315z M184.53,156.776
			c-0.418,0-0.703,0.042-0.971-0.007c-1.198-0.222-1.757,0.212-1.981,1.464c-0.309,1.72-0.891,3.388-1.292,5.094
			c-0.536,2.279-1.914,3.918-3.838,5.125c-0.42,0.263-1.015,0.247-1.53,0.359c-0.082-0.548-0.211-1.095-0.229-1.645
			c-0.011-0.347,0.147-0.698,0.227-1.049c0.592-2.644,1.268-5.273,1.742-7.938c0.306-1.709-0.51-2.317-2.061-1.514
			c-1.398,0.724-2.635,1.762-3.924,2.689c-0.106,0.076-0.135,0.492-0.075,0.524c0.229,0.126,0.593,0.3,0.754,0.203
			c0.507-0.307,0.913-0.781,1.421-1.087c0.346-0.209,0.797-0.246,1.2-0.36c0.022,0.379,0.137,0.781,0.052,1.135
			c-0.486,2.013-1.055,4.007-1.526,6.023c-0.307,1.313-0.608,2.647-0.702,3.987c-0.083,1.204,0.588,1.727,1.749,1.424
			c0.906-0.236,1.803-0.642,2.6-1.138c1.017-0.633,1.928-1.433,2.968-2.225c-0.057,0.629-0.133,1.142-0.146,1.656
			c-0.042,1.658,0.954,2.384,2.371,1.53c1.316-0.791,2.452-1.889,3.631-2.895c0.134-0.113,0.03-0.505,0.036-0.768
			c-0.244,0.055-0.545,0.037-0.722,0.178c-0.498,0.396-0.906,0.911-1.426,1.271c-0.318,0.22-0.776,0.238-1.171,0.348
			c-0.043-0.376-0.188-0.773-0.111-1.123c0.302-1.36,0.663-2.708,1.021-4.056C183.227,161.61,183.869,159.24,184.53,156.776z
			 M233.802,162.196c0.023-4.44-1.949-6.303-5.283-5.716c-5.121,0.903-8.284,8.285-6.663,12.435c0.834,2.135,3.489,2.958,5.947,1.76
			C231.598,168.824,233.562,165.679,233.802,162.196z M97.895,166.567c0.048,0.424,0.041,1.076,0.203,1.684
			c0.741,2.764,3.674,3.744,6.638,2.25c3.656-1.843,6.011-6.32,5.455-10.371c-0.366-2.665-2.216-4.187-4.849-3.635
			c-1.341,0.281-2.752,0.932-3.788,1.818C99.14,160.378,98.044,163.18,97.895,166.567z M198.385,146.693
			c-3.131-0.024-6.211,2.105-7.25,5.289c-0.876,2.683-1.547,5.438-2.205,8.186c-0.722,3.02-1.402,6.053-1.947,9.107
			c-0.285,1.599,0.721,2.419,2.122,1.668c1.73-0.927,3.264-2.226,4.856-3.398c0.118-0.086,0.034-0.448,0.044-0.683
			c-0.25,0.026-0.563-0.035-0.739,0.093c-0.838,0.607-1.616,1.298-2.464,1.891c-0.296,0.207-0.728,0.219-1.098,0.32
			c-0.025-0.37-0.142-0.762-0.062-1.106c0.841-3.607,1.702-7.209,2.58-10.808c0.557-2.283,1.137-4.561,1.733-6.833
			c0.277-1.056,0.94-1.631,2.101-1.478c0.711,0.094,1.423,0.18,2.137,0.248c1.206,0.115,1.99-0.344,1.961-1.198
			C200.113,146.854,199.291,146.694,198.385,146.693z M127.123,166.649c-0.004,4.217,1.62,5.395,4.611,4.025
			c1.673-0.767,3.128-2.019,4.649-3.097c0.166-0.118,0.116-0.539,0.167-0.819c-0.279-0.002-0.619-0.109-0.828,0.011
			c-1.07,0.613-2.063,1.376-3.167,1.911c-1.199,0.581-2.078,0.279-2.45-0.613c-0.571-1.371-0.144-2.863,0.893-3.399
			c1.659-0.857,3.353-1.675,4.896-2.711c0.741-0.498,1.352-1.381,1.708-2.222c0.811-1.911-0.235-3.326-2.3-3.365
			c-1.762-0.034-3.216,0.695-4.347,1.942C128.574,160.938,127.185,164.013,127.123,166.649z M216.658,157.461
			c0.404-1.641,0.78-3.169,1.177-4.778c-2.696,0.854-2.79,0.834-3.291,3.207c-0.277,1.311-0.813,1.752-2.13,1.595
			c-1.121-0.134-1.134-0.024-1.244,1.147c0.076,0.019,0.152,0.051,0.229,0.054c2.354,0.089,2.318,0.08,1.781,2.344
			c-0.616,2.593-1.32,5.182-1.685,7.814c-0.303,2.191,0.846,2.947,2.806,1.915c1.752-0.923,3.354-2.138,4.987-3.273
			c0.196-0.137,0.18-0.581,0.261-0.883c-0.321,0.015-0.708-0.081-0.954,0.063c-0.893,0.523-1.704,1.188-2.614,1.673
			c-0.441,0.235-1.032,0.19-1.555,0.272c-0.069-0.526-0.29-1.088-0.18-1.573c0.459-2.019,1.018-4.015,1.541-6.019
			c0.604-2.312,0.606-2.359,2.971-2.299c0.92,0.023,1.338-0.248,1.294-1.261C218.959,157.461,217.858,157.461,216.658,157.461z"/>
		<path fill-rule="evenodd" clip-rule="evenodd" fill="#7B7D7F" d="M247.726,157.217l-0.115-0.002l-0.113,0.018
			c-0.007-0.401-0.014-0.802-0.021-1.203c0.083-0.004,0.166-0.009,0.249-0.013C247.726,156.417,247.726,156.817,247.726,157.217z"/>
		<path fill-rule="evenodd" clip-rule="evenodd" fill="#0C0B0C" d="M160.213,159.692c1.07-0.847,1.972-1.695,3.002-2.334
			c0.757-0.469,1.66-0.822,2.538-0.948c1.634-0.234,2.75,1.054,2.438,2.686c-0.37,1.934-1.711,3.03-3.453,3.629
			c-1.121,0.386-2.319,0.549-3.597,0.838c2.885,1.538,3.788,4.429,5.011,7.124c0.622,1.37,1.33,2.723,2.168,3.969
			c0.807,1.199,2.052,1.739,3.54,1.55c1.181-0.15,1.498-0.707,1.212-1.849c-0.1-0.401-0.055-0.992,0.185-1.278
			c0.202-0.241,0.942-0.363,1.158-0.187c0.379,0.309,0.717,0.872,0.754,1.354c0.09,1.182-1.087,2.495-2.491,2.873
			c-2.308,0.621-4.435,0.146-6.042-1.602c-1.06-1.152-1.893-2.556-2.631-3.95c-0.93-1.756-1.604-3.645-2.498-5.42
			c-0.473-0.938-1.179-1.759-1.992-2.94c-0.576,2.503-1.06,4.613-1.548,6.722c-0.158,0.685-2.034,1.279-2.522,0.773
			c-0.117-0.12-0.085-0.448-0.034-0.659c1.396-5.73,2.744-11.475,4.229-17.182c0.872-3.351,3.165-5.362,6.55-6.07
			c0.564-0.119,1.244-0.155,1.75,0.057c0.403,0.169,0.889,0.805,0.848,1.18c-0.041,0.378-0.645,0.899-1.076,0.985
			c-0.68,0.135-1.429,0.008-2.136-0.095c-1.959-0.284-2.638,0.04-3.172,1.969c-0.681,2.456-1.205,4.955-1.802,7.434
			C160.504,158.727,160.375,159.126,160.213,159.692z M159.544,162.487c0.076,0.111,0.151,0.223,0.227,0.334
			c1.381-0.284,2.785-0.488,4.135-0.878c0.999-0.289,1.747-1.041,1.898-2.11c0.069-0.488-0.075-1.206-0.406-1.494
			c-0.313-0.274-1.146-0.347-1.492-0.118c-1.22,0.804-2.372,1.728-3.458,2.707C160.023,161.31,159.838,161.959,159.544,162.487z"/>
		<path fill-rule="evenodd" clip-rule="evenodd" fill="#0C0B0C" d="M200.918,160.086c0.634-0.592,1.205-1.276,1.914-1.755
			c1.042-0.704,2.121-1.452,3.296-1.832c1.511-0.489,2.485,0.226,2.734,1.82c0.588,3.752-0.726,6.977-2.926,9.921
			c-1.001,1.34-2.206,2.517-3.877,2.835c-1.006,0.191-2.117-0.005-3.151-0.194c-0.517-0.094-0.691-0.042-0.808,0.43
			c-0.411,1.664-0.817,3.33-1.261,4.986c-0.288,1.077,0.097,1.698,1.166,1.925c0.507,0.107,1.024,0.176,1.521,0.317
			c0.24,0.068,0.445,0.264,0.667,0.401c-0.285,0.182-0.568,0.515-0.855,0.518c-0.914,0.013-1.829-0.151-2.744-0.148
			c-1.436,0.006-2.87,0.101-4.307,0.136c-0.234,0.006-0.472-0.105-0.708-0.163c0.193-0.242,0.352-0.651,0.584-0.699
			c1.428-0.295,2.021-1.261,2.327-2.568c1.281-5.473,2.591-10.939,3.87-16.413c0.073-0.312-0.023-0.664-0.042-0.997
			c-0.354,0.095-0.77,0.105-1.05,0.304c-0.582,0.414-1.077,0.95-1.645,1.389c-0.156,0.121-0.596,0.164-0.636,0.092
			c-0.121-0.217-0.243-0.621-0.131-0.754c1.307-1.554,2.823-2.838,4.867-3.293c1.193-0.266,1.646,0.181,1.493,1.388
			c-0.05,0.393-0.162,0.778-0.247,1.166c-0.076,0.345-0.155,0.688-0.232,1.033C200.799,159.981,200.858,160.034,200.918,160.086z
			 M206.827,161.193c-0.368-0.771-0.553-1.758-1.147-2.259c-0.82-0.692-1.738-0.024-2.481,0.53
			c-1.778,1.327-3.105,2.958-3.521,5.224c-0.2,1.097-0.586,2.161-0.753,3.261c-0.061,0.398,0.144,1.01,0.445,1.263
			c1.509,1.263,3.246,1.056,4.486-0.556C205.504,166.512,206.304,164.028,206.827,161.193z"/>
		<path fill-rule="evenodd" clip-rule="evenodd" fill="#0C0C0C" d="M119.382,167.881c-0.949,0.824-1.65,1.471-2.394,2.064
			c-0.401,0.32-0.853,0.591-1.315,0.816c-2.5,1.219-4.189,0.242-4.038-2.525c0.257-4.706,2.395-8.459,6.369-11.03
			c0.814-0.527,1.933-0.693,2.933-0.784c0.632-0.058,0.875-0.164,1.04-0.777c0.339-1.267,0.682-2.549,1.206-3.745
			c1.236-2.825,3.413-4.549,6.464-5.118c0.35-0.065,0.713-0.083,1.07-0.079c0.881,0.009,1.527,0.419,1.483,1.337
			c-0.045,0.942-0.777,1.224-1.629,1.17c-0.676-0.043-1.349-0.129-2.023-0.195c-1.883-0.183-2.444,0.128-2.944,1.972
			c-0.677,2.498-1.257,5.022-1.846,7.542c-0.706,3.025-1.395,6.056-2.043,9.094c-0.089,0.416,0.094,0.89,0.151,1.337
			c0.433-0.147,0.902-0.23,1.289-0.457c0.512-0.3,0.942-0.737,1.442-1.063c0.168-0.11,0.441-0.062,0.666-0.086
			c-0.005,0.235,0.082,0.608-0.03,0.684c-1.612,1.07-3.177,2.257-4.911,3.09c-1.226,0.589-1.781-0.082-1.446-1.438
			C118.999,169.191,119.151,168.7,119.382,167.881z M114.087,167.014c0.22,0.37,0.474,1.312,1.066,1.635
			c0.479,0.263,1.579,0.008,2.024-0.417c0.98-0.933,2.004-2.004,2.493-3.227c0.747-1.867,1.038-3.914,1.561-5.874
			c0.18-0.673-0.165-0.834-0.694-0.929c-1.592-0.283-2.94,0.127-3.891,1.473C115.192,161.734,114.422,164.055,114.087,167.014z"/>
		<path fill-rule="evenodd" clip-rule="evenodd" fill="#0C0C0C" d="M152.962,155.118c0.077-2.346-0.521-3.456-1.978-3.679
			c-2.072-0.318-4.335,1.089-4.986,3.102c-0.413,1.277-0.222,2.461,0.65,3.478c0.805,0.938,1.676,1.82,2.516,2.728
			c4.06,4.393,3.079,9.234-2.449,11.632c-2.922,1.268-5.926,1.557-8.557-0.688c-0.674-0.574-1.084-1.626-1.289-2.532
			c-0.177-0.783,0.406-1.455,1.294-1.567c0.832-0.104,1.211,0.459,1.439,1.159c0.012,0.038,0.034,0.073,0.042,0.112
			c0.303,1.643,0.963,3.033,2.843,3.211c2.445,0.231,4.355-0.817,5.72-2.806c1.051-1.531,1.106-3.207,0.025-4.706
			c-0.927-1.286-2.082-2.412-3.167-3.581c-2.696-2.905-2.526-6.174,0.462-8.779c1.798-1.568,3.898-2.108,6.227-1.858
			c0.832,0.089,1.666,0.225,2.472,0.439c0.222,0.059,0.521,0.506,0.488,0.731c-0.234,1.574-0.524,3.142-0.855,4.699
			c-0.061,0.284-0.396,0.509-0.604,0.762c-0.118-0.26-0.3-0.511-0.336-0.782C152.872,155.843,152.941,155.478,152.962,155.118z"/>
		<path fill-rule="evenodd" clip-rule="evenodd" fill="#0C0B0C" d="M80.212,165.315c0.365-5.703,2.654-10.359,7.536-13.551
			c3.278-2.144,6.661-1.793,10.054-0.303c0.185,0.082,0.366,0.486,0.332,0.706c-0.266,1.69-0.57,3.375-0.909,5.052
			c-0.041,0.201-0.363,0.345-0.556,0.516c-0.127-0.189-0.355-0.373-0.365-0.568c-0.036-0.677,0.035-1.358,0.011-2.037
			c-0.105-3.017-2.188-4.578-5.02-3.524c-1.375,0.512-2.812,1.337-3.764,2.422c-3.446,3.924-4.826,8.566-3.966,13.767
			c0.352,2.126,1.379,3.863,3.574,4.545c2.167,0.673,3.893-0.271,5.395-1.747c0.454-0.445,0.796-1.008,1.265-1.434
			c0.242-0.221,0.65-0.258,0.983-0.378c-0.003,0.331,0.125,0.752-0.029,0.981c-1.771,2.619-4.104,4.379-7.408,4.297
			c-4.015-0.1-6.857-3.119-7.128-7.428C80.188,166.195,80.212,165.755,80.212,165.315z"/>
		<path fill-rule="evenodd" clip-rule="evenodd" fill="#0C0C0C" d="M184.53,156.776c-0.661,2.464-1.304,4.834-1.934,7.208
			c-0.357,1.348-0.719,2.695-1.021,4.056c-0.077,0.35,0.068,0.747,0.111,1.123c0.395-0.109,0.853-0.128,1.171-0.348
			c0.52-0.359,0.928-0.875,1.426-1.271c0.177-0.141,0.478-0.123,0.722-0.178c-0.006,0.263,0.098,0.654-0.036,0.768
			c-1.179,1.006-2.314,2.104-3.631,2.895c-1.417,0.854-2.413,0.128-2.371-1.53c0.013-0.515,0.089-1.027,0.146-1.656
			c-1.04,0.792-1.951,1.592-2.968,2.225c-0.797,0.496-1.693,0.901-2.6,1.138c-1.161,0.303-1.832-0.22-1.749-1.424
			c0.094-1.34,0.396-2.674,0.702-3.987c0.472-2.017,1.04-4.01,1.526-6.023c0.085-0.354-0.029-0.756-0.052-1.135
			c-0.403,0.114-0.854,0.151-1.2,0.36c-0.508,0.307-0.914,0.78-1.421,1.087c-0.161,0.097-0.524-0.077-0.754-0.203
			c-0.06-0.032-0.031-0.448,0.075-0.524c1.289-0.927,2.525-1.966,3.924-2.689c1.551-0.803,2.366-0.195,2.061,1.514
			c-0.475,2.665-1.15,5.294-1.742,7.938c-0.079,0.351-0.237,0.702-0.227,1.049c0.018,0.55,0.146,1.097,0.229,1.645
			c0.516-0.112,1.11-0.097,1.53-0.359c1.924-1.207,3.302-2.846,3.838-5.125c0.401-1.706,0.983-3.374,1.292-5.094
			c0.225-1.252,0.783-1.687,1.981-1.464C183.827,156.819,184.112,156.776,184.53,156.776z"/>
		<path fill-rule="evenodd" clip-rule="evenodd" fill="#0C0C0C" d="M233.802,162.196c-0.24,3.482-2.204,6.628-5.999,8.479
			c-2.458,1.198-5.113,0.375-5.947-1.76c-1.621-4.149,1.542-11.532,6.663-12.435C231.853,155.893,233.825,157.756,233.802,162.196z
			 M230.981,162.299c-0.081-0.671-0.137-1.347-0.249-2.013c-0.192-1.148-0.589-2.235-1.846-2.545
			c-1.22-0.301-2.059,0.501-2.726,1.369c-1.91,2.489-2.118,5.358-1.609,8.309c0.183,1.06,0.625,2.139,1.896,2.366
			c1.272,0.227,2.109-0.537,2.785-1.481C230.514,166.512,230.91,164.46,230.981,162.299z"/>
		<path fill-rule="evenodd" clip-rule="evenodd" fill="#0C0C0C" d="M97.895,166.567c0.149-3.388,1.245-6.189,3.659-8.254
			c1.036-0.886,2.447-1.538,3.788-1.818c2.633-0.552,4.483,0.97,4.849,3.635c0.556,4.051-1.799,8.528-5.455,10.371
			c-2.964,1.494-5.897,0.514-6.638-2.25C97.935,167.644,97.942,166.991,97.895,166.567z M107.451,162.441
			c-0.113-0.866-0.18-1.741-0.352-2.595c-0.197-0.982-0.67-1.848-1.716-2.107c-1.054-0.26-1.848,0.328-2.497,1.084
			c-2.19,2.555-2.387,5.555-1.831,8.682c0.186,1.043,0.642,2.03,1.831,2.276c1.223,0.252,2.052-0.466,2.72-1.365
			C106.92,166.648,107.381,164.618,107.451,162.441z"/>
		<path fill-rule="evenodd" clip-rule="evenodd" fill="#0C0C0C" d="M198.385,146.693c0.906,0.001,1.729,0.161,1.77,1.296
			c0.029,0.854-0.755,1.313-1.961,1.198c-0.714-0.068-1.426-0.154-2.137-0.248c-1.16-0.153-1.823,0.422-2.101,1.478
			c-0.597,2.273-1.177,4.55-1.733,6.833c-0.878,3.599-1.739,7.201-2.58,10.808c-0.08,0.345,0.036,0.736,0.062,1.106
			c0.37-0.102,0.802-0.113,1.098-0.32c0.848-0.593,1.626-1.283,2.464-1.891c0.177-0.128,0.489-0.066,0.739-0.093
			c-0.01,0.234,0.074,0.597-0.044,0.683c-1.593,1.173-3.126,2.472-4.856,3.398c-1.401,0.751-2.407-0.069-2.122-1.668
			c0.545-3.055,1.226-6.088,1.947-9.107c0.658-2.748,1.329-5.502,2.205-8.186C192.174,148.798,195.254,146.668,198.385,146.693z"/>
		<path fill-rule="evenodd" clip-rule="evenodd" fill="#0C0C0C" d="M127.123,166.649c0.062-2.637,1.451-5.712,3.832-8.337
			c1.131-1.248,2.585-1.976,4.347-1.942c2.065,0.039,3.111,1.454,2.3,3.365c-0.356,0.841-0.967,1.724-1.708,2.222
			c-1.544,1.036-3.238,1.854-4.896,2.711c-1.037,0.536-1.464,2.028-0.893,3.399c0.372,0.893,1.25,1.194,2.45,0.613
			c1.104-0.535,2.097-1.298,3.167-1.911c0.209-0.12,0.549-0.013,0.828-0.011c-0.05,0.28-0.001,0.701-0.167,0.819
			c-1.521,1.078-2.976,2.33-4.649,3.097C128.743,172.044,127.119,170.866,127.123,166.649z M130.177,163.652
			c0.149,0.108,0.299,0.216,0.449,0.324c1.25-0.901,2.566-1.727,3.718-2.74c0.476-0.417,0.79-1.221,0.842-1.876
			c0.104-1.31-1.09-1.924-2.202-1.189c-0.421,0.278-0.877,0.654-1.073,1.094C131.272,160.701,130.746,162.187,130.177,163.652z"/>
		<path fill-rule="evenodd" clip-rule="evenodd" fill="#0C0C0C" d="M216.658,157.461c1.2,0,2.301,0,3.394,0
			c0.044,1.013-0.374,1.284-1.294,1.261c-2.364-0.06-2.366-0.013-2.971,2.299c-0.523,2.004-1.082,4-1.541,6.019
			c-0.11,0.485,0.11,1.047,0.18,1.573c0.522-0.082,1.113-0.037,1.555-0.272c0.91-0.485,1.722-1.149,2.614-1.673
			c0.246-0.145,0.633-0.049,0.954-0.063c-0.081,0.302-0.064,0.746-0.261,0.883c-1.634,1.136-3.235,2.351-4.987,3.273
			c-1.96,1.032-3.108,0.276-2.806-1.915c0.364-2.633,1.068-5.222,1.685-7.814c0.537-2.264,0.573-2.254-1.781-2.344
			c-0.076-0.003-0.152-0.036-0.228-0.056c0.109-1.17,0.122-1.28,1.243-1.146c1.316,0.157,1.853-0.284,2.13-1.595
			c0.501-2.373,0.595-2.353,3.291-3.207C217.438,154.292,217.063,155.821,216.658,157.461z"/>
		<path fill-rule="evenodd" clip-rule="evenodd" fill="#0D0C0D" d="M247.477,156.03c0.007,0.401,0.014,0.802,0.021,1.203
			c-0.58,0.316-1.131,0.722-1.747,0.934c-2.83,0.975-4.56,3.031-5.465,5.754c-0.65,1.957-1.008,4.011-1.501,6.02
			c-0.172,0.699-2.069,1.291-2.506,0.739c-0.159-0.201-0.04-0.675,0.04-1.003c0.8-3.289,1.63-6.57,2.415-9.862
			c0.102-0.427-0.006-0.903-0.016-1.356c-0.419,0.191-0.876,0.328-1.246,0.588c-0.453,0.318-0.817,0.759-1.253,1.105
			c-0.129,0.102-0.368,0.063-0.557,0.089c-0.023-0.231-0.158-0.571-0.054-0.677c1.437-1.47,3.028-2.715,5.103-3.159
			c0.867-0.186,1.2,0.193,1,1.047c-0.235,1.002-0.478,2.003-0.706,2.955c1.349-1.424,2.658-2.9,4.075-4.265
			C245.755,155.493,246.634,155.081,247.477,156.03z"/>
		<path fill-rule="evenodd" clip-rule="evenodd" fill="none" d="M159.544,162.487c0.294-0.528,0.479-1.177,0.904-1.56
			c1.087-0.979,2.239-1.903,3.458-2.707c0.347-0.229,1.179-0.156,1.492,0.118c0.331,0.289,0.476,1.006,0.406,1.494
			c-0.151,1.069-0.899,1.821-1.898,2.11c-1.35,0.391-2.754,0.594-4.135,0.878C159.695,162.71,159.62,162.598,159.544,162.487z"/>
		<path fill-rule="evenodd" clip-rule="evenodd" fill="none" d="M206.827,161.193c-0.523,2.835-1.323,5.319-2.972,7.462
			c-1.24,1.611-2.978,1.818-4.486,0.556c-0.302-0.253-0.506-0.864-0.445-1.263c0.167-1.1,0.553-2.164,0.753-3.261
			c0.416-2.266,1.743-3.897,3.521-5.224c0.743-0.554,1.661-1.222,2.481-0.53C206.274,159.435,206.459,160.422,206.827,161.193z"/>
		<path fill-rule="evenodd" clip-rule="evenodd" fill="none" d="M114.087,167.014c0.335-2.959,1.104-5.279,2.56-7.338
			c0.951-1.346,2.299-1.756,3.891-1.473c0.529,0.094,0.874,0.255,0.694,0.929c-0.523,1.96-0.814,4.007-1.561,5.874
			c-0.489,1.223-1.513,2.294-2.493,3.227c-0.445,0.425-1.546,0.68-2.024,0.417C114.562,168.325,114.307,167.384,114.087,167.014z"/>
		<path fill-rule="evenodd" clip-rule="evenodd" fill="none" d="M230.981,162.299c-0.071,2.161-0.468,4.213-1.749,6.005
			c-0.676,0.944-1.513,1.708-2.785,1.481c-1.271-0.228-1.713-1.307-1.896-2.366c-0.509-2.951-0.301-5.82,1.609-8.309
			c0.667-0.868,1.506-1.67,2.726-1.369c1.257,0.31,1.653,1.397,1.846,2.545C230.845,160.952,230.9,161.627,230.981,162.299z"/>
		<path fill-rule="evenodd" clip-rule="evenodd" fill="none" d="M107.451,162.441c-0.07,2.177-0.531,4.207-1.844,5.975
			c-0.668,0.899-1.497,1.617-2.72,1.365c-1.189-0.246-1.646-1.233-1.831-2.276c-0.556-3.127-0.36-6.126,1.831-8.682
			c0.648-0.756,1.443-1.344,2.497-1.084c1.046,0.259,1.519,1.125,1.716,2.107C107.271,160.7,107.338,161.576,107.451,162.441z"/>
		<path fill-rule="evenodd" clip-rule="evenodd" fill="none" d="M130.177,163.652c0.569-1.466,1.095-2.951,1.734-4.387
			c0.196-0.44,0.652-0.816,1.073-1.094c1.112-0.735,2.306-0.121,2.202,1.189c-0.052,0.655-0.366,1.458-0.842,1.876
			c-1.152,1.013-2.468,1.838-3.718,2.74C130.476,163.868,130.326,163.761,130.177,163.652z"/>
	</g>
</g>
</svg>
