<?xml version="1.0" encoding="utf-8"?>
<!-- Generator: Adobe Illustrator 16.0.0, SVG Export Plug-In . SVG Version: 6.00 Build 0)  -->
<!DOCTYPE svg PUBLIC "-//W3C//DTD SVG 1.1//EN" "http://www.w3.org/Graphics/SVG/1.1/DTD/svg11.dtd">
<svg version="1.1" xmlns="http://www.w3.org/2000/svg" xmlns:xlink="http://www.w3.org/1999/xlink" x="0px" y="0px" width="324px"
	 height="324px" viewBox="0 0 324 324" enable-background="new 0 0 324 324" xml:space="preserve">
<g id="Layer_2">
	<circle fill="none" stroke="#A4C340" stroke-width="12" stroke-miterlimit="10" cx="162" cy="162" r="144"/>
</g>
<g id="Layer_1">
	<g>
		<path fill="none" d="M194.615,182.939c0-0.599-0.017-1.197-0.009-1.796C194.599,181.742,194.615,182.341,194.615,182.939
			c0,0.983,0.021,1.964-0.009,2.945C194.636,184.903,194.615,183.923,194.615,182.939z"/>
		<polygon fill="#FFFFFF" points="136.709,150.994 136.716,150.986 136.716,150.986 		"/>
		<path fill="#231F20" d="M154.422,197.961c0.008-0.168,0.215-0.33,0.332-0.496c0.124-0.13,0.248-0.262,0.374-0.393
			c0.022-0.252,0.043-0.504,0.064-0.754c0.256-1.805-0.441-3.174-1.893-4.218c-0.246-0.179-0.426-0.443-0.656-0.646
			c-1.368-1.207-2.33-2.705-3.03-4.369c-0.291-0.695-0.492-1.424-0.734-2.141c0-0.884,0-1.766,0-2.65
			c0.121-0.325,0.281-0.643,0.354-0.979c0.304-1.416,0.93-2.693,1.97-3.666c0.75-0.703,1.041-1.559,1.354-2.449
			c0.136-0.387,0.255-0.777,0.37-1.17c0.275-0.942,0.768-1.604,1.685-2.147c1.712-1.015,3.137-2.414,4.226-4.124
			c1.598-2.504,3.221-4.989,5.668-6.79c0.526-0.385,1.022-0.815,1.551-1.2c1.021-0.744,2.963-3.068,3.388-4.15
			c0.064-0.168-0.021-0.47-0.146-0.624c-1.082-1.357-2.214-2.675-3.278-4.044c-1.57-2.018-3.204-3.998-4.597-6.133
			c-0.757-1.158-1.854-1.532-2.925-2.105c-0.515-0.276-1.021-0.325-1.287,0.133c-0.205,0.356-0.284,1.035-0.078,1.337
			c0.834,1.223,1.701,2.452,2.739,3.497c1.356,1.362,2.768,2.637,3.428,4.52c0.133,0.377,0.441,0.694,0.668,1.038
			c0.011-0.057,0.004-0.131,0.036-0.167c0.07-0.076,0.161-0.13,0.244-0.193c0.142,0.295,0.334,0.581,0.393,0.893
			c0.016,0.083-0.378,0.244-0.585,0.369c-0.038-0.107-0.077-0.212-0.116-0.318c-0.365,0.61-0.637,1.307-1.107,1.818
			c-2.237,2.432-4.538,4.806-6.798,7.218c-0.917,0.98-1.85,1.957-2.666,3.02c-1.141,1.484-2.464,2.845-3.173,4.637
			c-0.405,1.023-1.063,1.882-1.856,2.672c-0.54,0.536-1.156,1.236-1.252,1.93c-0.204,1.48-0.701,2.785-1.458,4.039
			c-0.166,0.275-0.28,0.649-0.253,0.962c0.149,1.809,0.39,3.611,0.515,5.42c0.066,0.958,0.394,1.714,1.004,2.46
			c1.532,1.873,2.799,3.893,3.543,6.251c0.275,0.874,0.224,1.521-0.146,2.227c-1.188,2.267-2.994,3.971-5.084,5.384
			c-1.869,1.261-4.063,1.855-6.164,2.466c-3.104,0.899-6.296,1.559-9.513,2.038c-0.594,0.088-1.134,0.073-1.697-0.04
			c-0.647-0.13-1.3-0.382-1.939-0.351c-0.585,0.031-1.094-0.286-1.535-0.29c-1.508-0.013-2.82-0.628-4.214-0.989
			c-1.273-0.328-2.316-0.941-3.023-2.071c-0.237-0.38-0.466-0.765-0.7-1.149c-0.101,0.109-0.202,0.219-0.303,0.328
			c-0.115-0.551-0.235-1.097-0.332-1.646c-0.005-0.03,0.193-0.093,0.297-0.139c-0.892-1.069-0.931-2.462-1.289-3.71
			c-0.181-0.626,0.287-1.454,0.514-2.174c0.18-0.571,0.522-1.101,0.64-1.681c0.133-0.655,0.484-0.994,0.999-1.399
			c1.053-0.825,2.313-1.46,3.145-2.772c-2.429-0.103-4.517,0.248-6.043,2.128c-0.375,0.462-0.677,0.993-0.956,1.522
			c-0.384,0.728-0.715,1.483-1.068,2.225c-0.175,1.609-0.124,3.201,0.403,4.752c0.194,0.508,0.388,1.017,0.583,1.524l0.121-0.031
			c0.472,0.987,0.439,1.941-0.089,2.584c-0.108,0.002-0.214,0.013-0.32,0.033c-1.57,1.553-3.276,1.441-5.032,0.376
			c-0.328-0.199-0.572-0.535-0.854-0.807c-0.625,0.259-1.25,0.518-1.874,0.775c-0.114,0.235-0.228,0.469-0.342,0.704
			c0.796,0.634,1.583,1.276,2.392,1.896c0.682,0.519,1.575,0.405,2.328,0.725c1.24-0.672,2.666-0.531,3.953-0.887
			c1.57-0.435,2.935-0.09,4.319,0.434c1.148,0.435,2.229,1.041,3.373,1.489c2.878,1.119,5.783,2.14,8.957,1.913
			c2.106-0.151,4.221,0.229,6.333-0.345c3.224-0.876,6.422-1.798,9.42-3.291c2.078-1.034,4.123-2.13,5.721-3.882
			c0.232-0.257,0.663-0.347,0.851-0.618c0.545-0.779,1.776-0.471,2.176-1.43C154.434,199.364,154.398,198.662,154.422,197.961z"/>
		<path fill="#231F20" d="M105.031,196.703c0.688,0.185,0.988-0.33,1.35-0.737c0.681-3.093,1.963-5.838,4.502-7.871
			c0.639-0.513,1.289-1.025,1.844-1.622c1.023-1.097,0.949-2.309-0.108-3.309c-0.623-0.592-1.229-1.201-1.852-1.796
			c-1.231-1.176-2.466-2.344-4.005-3.13c-0.392-0.197-0.737-0.451-0.674-0.977c0.067-0.564-0.224-0.92-0.688-1.176
			c-0.422-0.233-0.851-0.458-1.257-0.715c-0.46-0.292-0.865-0.695-1.355-0.905c-0.343-0.149-0.655-0.143-0.92-0.55
			c-0.276-0.424-0.849-0.659-1.299-0.966c-0.445-0.302-0.972-0.909-1.335-0.827c-0.852,0.195-0.643-0.597-0.975-0.843
			c-1.655-1.221-3.206-2.581-4.799-3.888c-0.422-0.347-0.949-0.599-1.279-1.013c-0.727-0.911-1.657-1.5-2.606-2.146
			c-0.901-0.614-2.021-1.259-2.158-2.571c-0.209-1.978-0.558-3.965,0.92-5.709c0.85-1.003,1.472-2.199,2.326-3.197
			c0.467-0.545,0.885-1.025,1.054-1.75c0.15-0.64,0.489-1.169,1.131-1.565c0.525-0.324,1.04-0.922,1.21-1.501
			c0.243-0.829,0.791-1.335,1.315-1.917c1.609-1.786,3.2-3.588,4.798-5.384c-0.011-0.239-0.021-0.478-0.033-0.717
			c-0.793-0.5-1.491-0.606-2.242,0.188c-0.696,0.736-1.482,1.455-2.367,1.925c-0.64,0.342-0.93,0.653-0.912,1.346
			c0.005,0.186-0.156,0.51-0.295,0.542c-0.832,0.202-1.255,0.955-1.93,1.359c-1.252,0.753-2.47,1.552-2.917,3.072
			c-0.231,0.79-0.733,1.288-1.525,1.514c-0.658,0.188-1.025,0.706-1.363,1.249c-0.187,0.299-0.377,0.595-0.557,0.898
			c-0.937,1.567-2.058,3.061-2.746,4.73c-0.549,1.331-0.59,2.875-0.813,4.333c-0.1,0.655-0.076,1.273,0.743,1.583
			c0.208,0.079,0.347,0.621,0.333,0.943c-0.032,0.771,0.187,1.268,0.994,1.474c0.735,0.188,1.254,0.71,1.72,1.299
			c0.303,0.382,0.628,0.862,1.046,1.013c0.894,0.322,1.164,1.197,1.754,1.688c1.37,1.146,1.918,3.294,4.09,3.482
			c0.094,0.009,0.164,0.183,0.266,0.246c1.886,1.178,3.549,2.625,5.232,4.07c1.599,1.371,3.229,2.756,5.385,3.329
			c0.937,0.25,1.866,0.814,2.596,1.466c0.686,0.611,1.104,1.523,1.639,2.301c0.135,0.199,0.149,1.3,0.013,1.493
			c-0.949,1.347-1.931,2.653-2.448,4.271c-0.71,2.223-1.572,4.396-2.369,6.592C103.835,197.087,104.511,196.564,105.031,196.703z"/>
		<path fill="#1E2120" d="M148.105,134.351c0.707-0.321,1.416-0.339,2.127-0.301c2.92,0.159,5.597-0.81,8.25-1.794
			c1.503-0.558,2.978-0.997,4.6-0.912c0.428,0.022,0.996,0.326,1.322-0.28c-1.085,0-2.171,0-3.257,0
			c1.179-0.392,2.355-0.541,3.539-0.197c0.029,0.01,0.032,0.113,0.045,0.172c1.627-0.119,3.15-0.838,4.816-0.789
			c0.445,0.012,0.916-0.272,1.347-0.478c0.101-0.049,0.09-0.331,0.132-0.506c0.235-0.203,0.443-0.472,0.715-0.595
			c0.818-0.371,2.161-0.276,2.953,0.147c0.765-0.08,1.599,0.314,2.287-0.318c-0.26-0.048-0.522-0.097-0.785-0.146
			c0.63-0.107,1.305-0.66,1.821,0.113c0.858-0.009,1.718-0.023,2.577-0.026c1.084-0.003,1.332,0.28,1.082,1.263
			c-0.076,0.287-0.239,0.551-0.339,0.834c-0.316,0.902-0.628,1.807-0.938,2.711c-1.084,0.306-1.107,1.481-1.754,2.144
			c-1.231,1.26-2.422,2.528-4.309,2.873c-1.111,0.203-2.159,0.745-3.26,1.042c-1.743,0.471-3.483,0.934-5.27,0.014
			c-1.769-0.909-3.595-1.702-5.402-2.526c-0.6-0.272-1.223-0.487-1.84-0.72c-0.604-0.229-1.096,0.104-1.369,0.521
			c-0.174,0.264-0.103,0.813,0.05,1.147c1.175,2.551,1.189,2.544,3.779,3.999c0.103,0.057,0.24,0.067,0.322,0.142
			c1.232,1.131,2.765,1.281,4.327,1.333c0.428,0.015,0.949-0.156,1.275,0.028c1.796,1.021,3.535-0.358,5.3-0.058
			c0.084,0.015,0.188-0.155,0.299-0.201c0.809-0.339,1.63-0.652,2.435-1.003c1.256-0.549,2.537-1.056,3.382-2.239
			c0.174-0.247,0.395-0.498,0.653-0.646c1.235-0.709,2.403-1.475,2.898-2.915c0.949-0.391,1.023-1.295,1.269-2.116
			c0.46-1.518,1.438-2.909,1.109-4.615c0.708-0.871,0.252-1.89,0.343-2.837c0.022-0.265-0.082-0.695-0.27-0.799
			c-0.92-0.516-1.873-1.295-2.838-1.327c-1.384-0.045-2.741-0.536-4.201-0.146c-0.895,0.24-1.712,0.412-2.378,1.082
			c-0.201,0.201-0.504,0.452-0.743,0.435c-1.221-0.093-2.391,0.38-3.571,0.352c-1.608-0.037-3.006,0.634-4.474,1.041
			c-1.131,0.314-2.221,0.711-3.404,0.875c-1.274,0.176-2.563,0.486-3.771,0.864c-1.295,0.405-2.543,0.602-3.867,0.589
			c-0.351-0.004-0.734,0.029-1.05,0.164c-1.35,0.574-2.672,1.206-4.017,1.789c-1.269,0.55-2.386,1.309-3.345,2.292
			C147.002,134.463,147.607,134.577,148.105,134.351z"/>
		<path fill="#252525" d="M79.135,121.654c-0.007,1.208-0.193,2.449,1.031,3.298c0.248,0.172,0.313,0.614,0.449,0.938
			c0.384,0.917,0.657,1.896,1.159,2.742c1.109,1.869,2.153,3.764,3.12,5.711c0.253,0.509,0.576,1.367,1.555,1.153
			c0.169-0.038,0.469,0.164,0.592,0.338c0.539,0.755,1.288,0.813,2.112,0.755c1.266-0.086,2.486,0.042,3.687,0.554
			c0.744,0.315,1.592,0.491,2.4,0.515c0.815,0.025,1.642-0.198,2.456-0.348c0.282-0.052,0.558-0.323,0.814-0.293
			c0.66,0.072,1.23-0.817,1.994-0.104c0.184,0.171,0.921-0.111,1.321-0.334c1.093-0.609,2.074-1.408,3.372-1.629
			c0.516-0.088,1.014-0.391,1.468-0.678c0.218-0.138,0.495-0.555,0.428-0.693c-0.135-0.284-0.455-0.552-0.757-0.66
			c-0.249-0.088-0.591,0.036-0.879,0.116c-0.924,0.257-1.841,0.542-2.765,0.806c-0.615,0.175-1.236,0.331-1.854,0.495
			c0.183,0.014,0.372,0.008,0.548,0.053c0.071,0.018,0.114,0.148,0.169,0.227c-0.613,0.125-1.248,0.41-1.753-0.242
			c-1.109-0.112-2.218-0.225-3.326-0.337c-0.213,0.146-0.447,0.27-0.631,0.444c-0.199,0.188-0.361,0.271-0.535,0.003
			c-0.079-0.12-0.125-0.26-0.187-0.392c0.225-0.039,0.448-0.077,0.671-0.115c-0.592-0.231-1.191-0.446-1.776-0.697
			c-1.095-0.468-2.145-1.104-3.284-1.39c-0.874-0.219-1.439-0.667-1.844-1.346c-0.294-0.493-0.584-0.891-1.147-1.068
			c-1.645-0.515-2.515-1.75-3.104-3.288c-0.257-0.667-0.529-1.505-1.063-1.846c-0.796-0.509-0.771-1.106-0.764-1.837
			c0.014-1.637,0.071-3.262-0.261-4.898c-0.254-1.249-0.073-2.551,0.688-3.66c0.579-0.845,1.215-1.651,1.869-2.534
			c1.255,0.996,2.328,1.972,2.955,3.283c0.519,1.085,1.218,1.999,2.064,2.809c1.708,1.636,3.438,3.253,5.185,4.849
			c0.63,0.576,1.331,1.081,2.273,0.961c0.509-0.868,1.215-0.015,1.81-0.1c-0.5,0.039-1.002,0.077-1.504,0.117
			c0.775,0.241,1.564,0.444,2.32,0.734c0.835,0.32,1.632,0.737,2.459,1.08c0.381,0.157,0.793,0.239,1.191,0.354
			c0.166-0.121,0.329-0.339,0.498-0.345c1.078-0.035,2.157-0.023,3.235-0.027c0.02-0.801-0.127-1.321-1.134-1.511
			c-0.964-0.183-1.865-0.857-2.897-0.667c-1.247,0.23-1.806-1.104-2.924-1.144c-0.517-0.019-1.08-0.129-1.528-0.372
			c-0.931-0.505-2.059-0.455-2.917-1.174c-1.188-0.996-2.443-1.912-3.672-2.859c-0.328-0.252-0.721-0.439-0.994-0.738
			c-0.689-0.753-1.304-1.574-1.994-2.327c-0.458-0.5-0.82-0.931-0.846-1.716c-0.028-0.848-0.405-1.696-0.699-2.52
			c-0.53-1.484-1.589-2.539-2.975-3.21c-0.679-0.328-1.504-0.486-2.156,0.116c-0.482,0.447-0.907,0.972-1.28,1.514
			c-0.601,0.872-1.462,1.729-1.636,2.697c-0.389,2.163-0.972,4.322-0.817,6.569C79.211,119.069,79.144,120.364,79.135,121.654z"/>
		<path fill="#231F20" d="M174.309,176.743c0.477-0.027,0.983,0.046,1.42-0.099c1.059-0.355,1.166-0.563,1.179-1.717
			c0.011-0.858,0.029-1.719-0.006-2.576c-0.036-0.849-0.644-1.489-1.505-1.443c-3.289,0.175-6.552-0.316-9.828-0.378
			c-1.504-0.027-1.938,0.436-1.939,1.943c-0.009,3.99-0.003,7.981-0.003,11.973c0,1.044,0,2.088-0.002,3.132
			c-0.001,0.668,0.333,1.015,0.995,1.022c0.982,0.009,1.964,0.002,2.947,0.002c0.552,0,1.104,0.009,1.657-0.002
			c0.59-0.011,1.178-0.04,1.781-0.063c0-1.319-0.002-2.483,0-3.649c0.006-1.497,0.025-1.455,1.431-1.995
			c0.626-0.239,1.099-0.235,1.694,0.086c0.723,0.391,1.321-0.33,1.998-0.477c0.555-0.122,0.409-0.801,0.412-1.281
			c0.004-0.799,0.017-1.597-0.003-2.395c-0.029-1.091-0.577-1.635-1.672-1.657c-0.98-0.021-1.966,0.012-2.947-0.018
			c-0.181-0.006-0.356-0.208-0.535-0.319c0.011-0.059,0-0.157,0.029-0.17C172.288,176.3,173.343,176.331,174.309,176.743z"/>
		<path fill="#231F20" d="M190.87,175.123c-0.868-0.566-1.891-1.145-2.882-1.228c-2.191-0.183-4.416-0.161-6.611-0.019
			c-1.692,0.108-2.249,0.902-2.256,2.585c0,0.307-0.004,0.613,0,0.92c0.015,1.363,0.015,1.363,1.624,1.851
			c-2.538,0.508-2.763,2.617-3.438,4.398c0.327,1.73,0.909,3.256,2.541,4.264c1.284,0.79,2.63,0.677,4.002,0.715
			c0.929,0.025,1.817-0.021,2.485-0.773c0.243-0.271,0.405-0.321,0.687-0.022c0.275,0.287,0.637,0.493,0.962,0.737
			c0.933-0.436,1.624-0.436,2.565,0c1.842-0.389,2.218-0.788,2.224-2.393c0.005-2.267,0.08-4.538-0.026-6.802
			C192.672,177.745,192.353,176.094,190.87,175.123z M185.268,183.797c-0.177,0.033-0.363,0.006-0.542,0.008
			c-0.139,0-0.313,0.04-0.431,0.023c-0.04-0.006-0.075-0.017-0.099-0.042c-0.13-0.124-0.256-0.433-0.189-0.555
			c0.345-0.628,0.939-0.72,1.469-0.239c0.146,0.137,0.201,0.401,0.233,0.617C185.717,183.652,185.427,183.766,185.268,183.797z"/>
		<path fill="#1C231F" d="M110.2,131.415c1.453,0,2.753-0.119,4.022,0.028c1.831,0.214,3.157-0.607,4.396-1.751
			c0.271-0.25,0.527-0.515,0.782-0.782c0.48-0.502,1.063-0.769,1.756-0.799c0.184-0.005,0.37-0.03,0.55-0.01
			c0.169,0.019,0.333,0.084,0.5,0.13c-0.114,0.084-0.255,0.148-0.334,0.256c-0.124,0.172-0.307,0.386-0.287,0.562
			c0.077,0.698,0.215,1.391,0.358,2.08c0.012,0.057,0.274,0.138,0.348,0.092c0.39-0.242,0.66-0.273,0.766,0.276
			c0.011,0.055,0.256,0.133,0.346,0.094c1.099-0.491,1.996,0.163,2.948,0.498c0.248-0.152,0.514-0.28,0.737-0.461
			c0.784-0.634,1.037-0.608,1.086,0.313c0.042,0.789,0.426,1.22,0.969,1.642c0.225,0.174,0.467,0.361,0.613,0.598
			c0.741,1.201,2.191,1.106,3.413,0.685c1.533-0.528,2.544-1.692,3.67-2.713c0.639-0.578,1.297-0.729,2.132-0.78
			c0.786-0.047,1.164,0.572,1.789,0.718c0.735-0.459,1.285-0.437,1.84,0.077c0.572-0.158,1.167-0.265,1.709-0.496
			c0.215-0.093,0.491-0.538,0.427-0.686c-0.125-0.284-0.444-0.598-0.736-0.663c-0.307-0.069-0.803,0.028-0.991,0.246
			c-0.436,0.505-0.811,0.212-1.271,0.14c-0.887-0.14-1.313-0.718-1.729-1.415c-0.657-1.096-1.301-2.239-2.921-2.004
			c-0.288,0.042-0.622-0.24-1.053-0.423c-0.057,0.418-0.175,0.722-0.124,0.994c0.246,1.327-0.363,2.356-1.123,3.323
			c-0.608,0.772-1.299,1.321-2.375,1.509c-0.963,0.167-1.43,0.179-1.621-0.668c-0.066-0.293-0.053-0.606-0.139-0.892
			c-0.46-1.536-0.459-2.955,0.705-4.253c0.417-0.465,0.757-1.13,0.827-1.739c0.08-0.704,0.291-1.319,0.695-1.828
			c0.553-0.695,0.628-1.392,0.408-2.178c-1.291-0.077-1.275-0.066-1.972,1.056c-0.249,0.401-0.594,0.742-0.896,1.11
			c0.748,0.472,0.157,1.146,0.136,1.74c-0.045-0.277-0.107-0.554-0.128-0.834c-0.023-0.3-0.007-0.604-0.007-0.905
			c-0.11,0.183-0.334,0.38-0.313,0.545c0.141,1.09-0.28,1.873-1.125,2.541c-0.355,0.281-0.637,0.731-0.803,1.163
			c-0.588,1.529-1.81,2.416-3.132,3.197c-0.98,0.58-0.957,0.456-1.338-0.645c-0.548-1.577-0.193-3.004,0.494-4.355
			c0.355-0.697,0.145-1.895,1.405-1.971c-0.108-1.119,0.603-1.93,1.044-2.848c0.075-0.155,0.004-0.509-0.125-0.604
			c-0.214-0.159-0.545-0.28-0.797-0.239c-0.277,0.044-0.561,0.251-0.771,0.458c-0.663,0.652-1.256,1.377-1.947,1.997
			c-0.622,0.557-0.873,1.574-1.963,1.589c-0.175,0.002-0.502,0.325-0.494,0.486c0.069,1.345-1.219,1.363-1.889,1.962
			c-0.533,0.477-1.428,0.7-1.722,1.266c-0.729,1.4-1.944,1.043-3.18,1.334c0.176-0.539,0.368-0.872,0.382-1.213
			c0.072-1.666,0.823-2.981,1.927-4.18c0.481-0.522,0.79-1.204,1.169-1.818c0.309-0.501,0.578-0.951,1.134-1.33
			c1.25-0.851,2.362-1.916,3.479-2.948c0.67-0.62,1-1.738,2.264-1.383c0.088,0.024,0.229-0.067,0.318-0.138
			c0.759-0.603,1.511-1.213,2.267-1.823c-1.44-1.556-1.651-1.579-3.211-0.554c-0.489,0.321-1.11,0.471-1.539,0.85
			c-1.684,1.49-3.311,3.043-4.968,4.563c-0.282,0.259-0.395,0.602-0.746,0.878c-1.619,1.271-3.101,2.717-4.607,4.127
			c-0.297,0.278-0.684,0.673-0.685,1.014c-0.001,0.806-0.377,1.391-0.831,1.95c-0.318,0.393-0.262,0.68-0.094,1.135
			C110.383,129.276,110.794,130.281,110.2,131.415z"/>
		<path fill="#231F20" d="M202.62,173.784c-0.527-0.057-1.287-0.447-1-1.38c0.233-0.763-0.188-1.303-0.76-1.714
			c-0.567-0.41-2.307-0.16-2.882,0.34c-0.771,0.67-1.618,1.261-2.321,1.991c-0.631,0.658-1.899,0.532-2.107,1.516
			c-0.199,0.941-0.071,1.956-0.024,2.937c0.015,0.328,0.128,0.77,0.361,0.95c0.73,0.571,0.781,1.302,0.739,2.123
			c-0.011,0.197-0.018,0.399-0.02,0.597c-0.008,0.599,0.009,1.197,0.009,1.796c0,0.983,0.021,1.964-0.009,2.945
			c-0.015,0.458,0.078,0.817,0.439,1.13c0.416,0.361,0.761,0.807,1.188,1.151c0.261,0.21,0.616,0.409,0.933,0.418
			c1.534,0.042,3.069,0.063,4.603,0c1.055-0.042,1.544-0.649,1.719-1.641c0.161-0.916,0.103-1.796,0.021-2.712
			c-0.071-0.814-0.533-1.435-1.104-1.473c-0.925-0.059-0.765-0.561-0.775-1.086c-0.009-0.491,0.025-0.985-0.009-1.473
			c-0.039-0.636,0.208-0.984,0.832-1.203c1.397-0.487,1.387-0.519,1.391-1.941c0.002-0.552,0.04-1.11-0.013-1.657
			C203.759,174.641,203.738,173.905,202.62,173.784z"/>
		<path fill="#231F20" d="M255.137,174.577c-0.639-0.015-0.928,0.267-1.143,0.893c-0.732,2.155-1.557,4.279-2.369,6.487
			c-0.225-0.24-0.41-0.352-0.469-0.509c-0.779-2.139-1.535-4.285-2.318-6.424c-0.065-0.174-0.268-0.389-0.438-0.42
			c-0.357-0.065-0.745,0.04-1.099-0.035c-0.771-0.164-1.097,0.353-1.305,0.882c-0.888,2.248-1.725,4.512-2.592,6.806
			c-0.767-2.136-1.544-4.274-2.298-6.419c-0.433-1.239-0.414-1.248-1.723-1.254c-0.637-0.005-1.275-0.002-1.993-0.002
			c0.886,2.26,1.727,4.316,2.502,6.397c0.834,2.242,1.598,4.506,2.413,6.756c0.263,0.727,0.962,1.141,1.479,0.845
			c0.277-0.162,0.511-0.502,0.635-0.815c0.521-1.3,0.922-2.653,1.504-3.922c0.555-1.214,0.553-2.678,1.723-3.796
			c0.04,0.396-0.011,0.704,0.109,0.918c0.859,1.551,1.277,3.267,1.92,4.896c0.258,0.658,0.701,1.217,0.695,1.998
			c0,0.246,0.525,0.635,0.867,0.714c0.786,0.188,1.319-0.193,1.63-1.3c0.918-3.269,2.319-6.36,3.374-9.579
			c0.321-0.987,0.754-1.938,1.218-3.112C256.576,174.582,255.857,174.594,255.137,174.577z"/>
		<path fill="#231F20" d="M220.618,169.831c-1.097-0.765-2.433-0.975-3.676-1.107c-3.679-0.384-7.022,0.511-9.621,3.325
			c-0.676,0.733-1.307,1.571-1.714,2.472c-0.63,1.391-0.783,2.937-1.021,4.442c-0.018,0.102,0.082,0.217,0.111,0.328
			c0.088,0.343,0.232,0.683,0.237,1.025c0.033,2.234,1.252,3.966,2.641,5.468c0.972,1.05,2.34,1.789,3.73,2.325
			c1.389,0.535,2.888,0.769,4.327,0.788c0.966,0.01,1.995-0.231,3.006-0.332c0.59-0.057,1.363-0.396,1.653-0.857
			c0.38-0.607,0.413-1.456,0.504-2.21c0.057-0.493-0.414-0.838-0.823-0.563c-1.25,0.842-2.637,0.693-4.382,0.723
			c-1.29,0.159-2.783-0.16-4.254-1.065c-1.248-0.771-2.064-1.836-2.661-3.044c-0.562-1.132-0.571-2.48-0.363-3.72
			c0.128-0.775,0.181-1.62,0.687-2.336c1.311-1.85,2.672-3.583,5.262-3.488c1.477-0.989,2.876,0.093,4.309,0.186
			c0.557,0.033,1.132,0.561,1.636,0.48c0.901-0.146,0.366-1.187,0.744-1.674C221.436,170.377,221.005,170.102,220.618,169.831z"/>
		<path fill="#231F20" d="M236.627,179.348c-0.557-1.849-1.832-3.398-3.493-4.304c-1.975-1.073-4.219-1.22-6.4-0.45
			c-1.321,0.467-2.509,1.228-3.292,2.405c-0.679,1.023-1.437,2.082-1.166,3.454c0,0.76,0,1.521,0,2.283
			c0.093,2.258,2.061,4.724,4.23,5.52c1.189,0.438,2.376,0.301,3.573,0.347c2.771,0.107,4.548-1.413,5.979-3.579
			c0.493-0.75,0.666-1.506,0.63-2.378C236.644,181.543,236.934,180.36,236.627,179.348z M233.348,182.746
			c-0.055,1.133-0.847,1.832-1.646,2.46c-0.349,0.275-0.863,0.339-1.303,0.5c-0.733,0.521-1.466,0.521-2.201,0.002
			c-1.214-0.594-2.103-1.433-2.622-2.754c-0.756-1.905,0.005-4.096,1.761-5.178c1.659-1.025,3.192-0.712,4.678,0.164
			c0.843,0.498,1.143,1.506,1.313,2.426C233.47,181.136,233.386,181.952,233.348,182.746z"/>
		<path fill="#F8DF50" d="M179.771,199.864c0.76-0.414,0.706-0.933,0.42-1.485c-0.311-0.592-0.867-0.564-1.431-0.559
			c-0.935,0.009-1.924,0.179-2.606-0.731c-0.116,0.122-0.235,0.246-0.351,0.368c-0.129,0.124-0.255,0.25-0.383,0.376
			c-0.107,0.241-0.201,0.691-0.321,0.697c-1.025,0.055-2.064,0.111-3.079-0.015c-0.403-0.049-0.427-0.517,0.09-0.701
			c-0.104-0.553-0.567-0.414-0.845-0.324c-0.358,0.113-0.307,0.438-0.075,0.706c0.71,0.815-0.662,0.59-0.555,1.104l-0.002,0.003
			c0.359,0,0.725-0.038,1.077,0.012c0.478,0.069,0.56,0.536,0.195,0.994c-0.002,0.002-0.099-0.049-0.123-0.091
			c-0.03-0.048-0.025-0.115-0.036-0.174c-0.956,0.229-1.819-0.215-2.697-0.425c-0.395-0.097-0.385-0.531,0.111-0.701
			c0-0.235,0-0.471,0-0.708c-0.378-0.059-0.58,0.645-1.075,0.221c-0.151-0.128-0.481-0.044-0.729-0.057
			c0.098,0.252,0.197,0.502,0.291,0.756c0.021,0.055,0.025,0.115,0.036,0.173c0.37,0.285,0.739,0.568,1.451,1.115
			c-1.006-0.186-1.597-0.292-2.188-0.401c-0.138,0.187-0.926-0.336-0.518,0.473c0.024,0.051-0.134,0.277-0.216,0.281
			c-0.479,0.029-0.96,0.015-1.48,0.015c0.145,0.309,0.242,0.521,0.34,0.731c0.244,0.723,0.822,0.774,1.458,0.739
			c0.362-0.019,0.733-0.046,1.085,0.019c0.164,0.031,0.288,0.273,0.429,0.42c-0.558,0.521-0.101,0.905,0.275,1.074
			c1.153,0.51,1.626,1.43,1.814,2.585c0.017,0.114,0.086,0.217,0.133,0.326c0.628,0.441,1.281,0.853,1.869,1.34
			c0.197,0.162,0.319,0.521,0.319,0.79c0.002,0.385-0.141,0.767-0.219,1.151c-0.29-0.223-0.577-0.447-0.863-0.67
			c-0.128,0.113-0.256,0.23-0.382,0.346c0.126,0.202,0.298,0.389,0.372,0.607c0.515,1.513,1.596,2.071,3.13,1.975
			c1.039-0.063,1.031-0.029,0.718-1.17c-0.092-0.341-0.181-0.714-0.135-1.055c0.156-1.137-0.185-2.075-1.22-2.886
			c0.401-0.032,0.59-0.009,0.752-0.063c0.817-0.277,0.849-0.441,0.365-1.022c-0.958-1.144-2.181-1.905-3.659-2.487
			c0.323-0.124,0.548-0.143,0.639-0.261c0.765-0.993,0.867-1.059,1.819-1.025c0.369,0.015,0.739-0.017,1.106,0.007
			c0.874,0.055,1.748,0.128,2.767,0.206c0-0.312-0.021-0.725,0.007-1.135c0.031-0.462,0.502-0.761,0.865-0.519
			c0.601,0.393,1.232,0.779,1.708,1.298c0.493,0.542,1.05,0.542,1.657,0.507c0.168-0.009,0.473-0.104,0.471-0.153
			c-0.003-0.215-0.032-0.503-0.173-0.624C181.422,201.175,180.623,200.556,179.771,199.864z M175.733,200.885
			c-0.082,0.183-0.476,0.225-0.639,0.29c-0.626-0.155-1.162-0.225-1.626-0.441c-0.173-0.079-0.286-0.535-0.235-0.779
			c0.084-0.398,0.317-0.063,0.5-0.008c0.495,0.148,0.998,0.281,1.504,0.407C175.533,200.427,175.903,200.507,175.733,200.885z"/>
		<path fill="#A4C342" d="M87.683,199.255c2.585,0.101,5.165-0.515,7.776-0.345c0.44,0.029,0.902-0.21,1.347-0.349
			c2.195-0.685,4.45-0.245,6.675-0.365c0.12-0.011,0.241-0.015,0.362-0.011c0.017-0.113,0.023-0.227,0.021-0.34
			c0.654-0.551,1.549-0.549,2.2,0c0.011,0.122,0,0.243-0.033,0.361l0.091-0.02c0.44-0.119,0.878-0.325,1.323-0.344
			c1.143-0.047,2.29,0.004,3.434-0.018c0.853-0.015,0.872-0.101,0.337-1.096c-1.371-0.011-2.744-0.062-4.113-0.013
			c-0.623,0.022-0.659-0.332-0.723-0.752c-0.362,0.407-0.662,0.922-1.35,0.737c-0.52-0.139-1.196,0.384-1.567-0.374
			c-0.667,0.006-1.334,0.017-2.001,0.017c-1.153,0.004-2.345-0.188-3.45,0.044c-1.854,0.389-3.701,0.679-5.591,0.719
			c0,0.174,0.015,0.347-0.003,0.517c-0.017,0.164-0.067,0.323-0.104,0.485c-0.132-0.08-0.289-0.135-0.391-0.242
			c-0.108-0.115-0.166-0.279-0.245-0.424c-1.16,0.004-2.32,0.006-3.48,0.013c-0.608,0.002-1.286-0.16-1.809,0.055
			c-1.239,0.502-2.564,0.303-3.818,0.655c-0.899,0.254-1.873,0.237-2.798,0.418c-0.214,0.042-0.555,0.441-0.516,0.595
			c0.127,0.491,0.34,0.993,0.64,1.402c0.398,0.547,0.712-0.153,1.083-0.172c0.365-0.019,0.732-0.006,1.099-0.006
			c0.018-0.06,0.029-0.166,0.055-0.171C83.994,199.983,85.721,199.178,87.683,199.255z"/>
		<path fill="#A5C442" d="M106.852,200.169c0.197-0.189,0.505-0.431-0.099-0.509c-0.116-0.015-0.208-0.227-0.311-0.349l0,0
			c-0.237-0.004-0.473-0.008-0.709-0.011l-0.063-0.021c-0.625,0.55-1.535,0.55-2.143,0.002l-0.059,0.021
			c-0.447,0.378-0.979,0.373-1.524,0.369c-2.014-0.008-4.031,0.063-6.042-0.027c-1.22-0.057-2.398,0.155-3.529,0.454
			c-0.58,0.151-1.142,0.353-1.725,0.294c-1.488-0.151-2.816,0.128-4.003,1.101c-0.878,0.721-2.002,0.885-3.072,1.145
			c-0.113,0.122-0.264,0.368-0.336,0.347c-1.285-0.365-2.283,0.555-3.437,0.767c-0.584,0.105-0.893,0.857-0.638,1.504
			c0.299,0.761,0.644,0.016,0.981-0.044c0.357-0.061,0.734-0.024,1.101-0.006c1.275,0.067,2.441-0.357,3.61-0.773
			c1.097-0.389,2.116-0.928,3.295-1.172c1.014-0.208,2.045-0.473,3.058-0.754c1.083-0.299,2.139-0.733,3.293-0.618
			c1.096,0.109,2.133-0.269,3.194-0.338c1.619-0.109,3.197-0.637,4.847-0.427c0.306,0.04,0.649-0.216,0.975-0.334
			c0.964-0.121,1.927-0.245,2.891-0.367C106.559,200.341,106.733,200.284,106.852,200.169z"/>
		<path fill="#1E2120" d="M137.032,150.615c0.021-1.687,0.014-3.375,0.014-5.186c-0.935,0.146-1.831-0.333-2.429,0.608
			c-0.59-0.613-1.041,0.038-1.422,0.262c-0.502,0.295-0.959,0.779-1.254,1.287c-0.665,1.144-1.165,2.368-1.21,3.726
			c0.611,0.462,0.611,0.697,0,1.163c1.439,2.122,2.579,2.336,4.502,0.832c0.333-0.261,0.638-0.558,0.944-0.85
			c0.419-0.399,0.577-0.901,0.539-1.471c-0.001,0.003-0.005,0.005-0.007,0.007c0-0.005,0-0.011,0-0.016
			c-0.134-0.16-0.367-0.316-0.373-0.48c-0.035-0.975,0.006-1.952-0.019-2.926c-0.013-0.469-0.124-0.934-0.168-1.403
			c-0.011-0.113,0.062-0.235,0.096-0.352c0.148,0.08,0.421,0.152,0.427,0.241c0.039,0.608,0.021,1.219,0.023,1.828
			c0.003,1.031,0.01,2.062,0.015,3.093c0.001,0.003,0.005,0.005,0.007,0.008l0,0C136.83,150.863,137.03,150.74,137.032,150.615z"/>
		<path fill="#FFFFFF" d="M90.65,200.394c0.583,0.059,1.146-0.143,1.725-0.294c1.13-0.299,2.309-0.511,3.529-0.454
			c2.01,0.091,4.028,0.02,6.042,0.027c0.545,0.004,1.077,0.009,1.524-0.369c0.004-0.37,0.008-0.737,0.012-1.107
			c-2.226,0.12-4.48-0.319-6.675,0.365c-0.445,0.139-0.907,0.378-1.347,0.349c-2.611-0.17-5.191,0.445-7.776,0.345
			c-1.962-0.077-3.689,0.729-5.548,0.979c-0.026,0.005-0.037,0.111-0.055,0.171c0.36,0.176,0.722,0.356,1.205,0.597
			c-0.584,0.195-1.079,0.329-1.542,0.533c-0.164,0.071-0.375,0.327-0.356,0.473c0.052,0.387,0.647,0.668,0.953,0.511
			c0.638-0.324,0.638-0.324,1.237,0.121c1.07-0.26,2.194-0.424,3.072-1.145C87.833,200.521,89.162,200.242,90.65,200.394z"/>
		<path fill="#1F2120" d="M126.329,144.337c-1.52-1.089-2.774-1.053-3.969,0.083c-1.139,1.081-1.438,2.48-1.554,3.958
			c0.545,0.576,0.558,1.2,0.039,1.848c0.366,0.358,0.733,0.716,1.099,1.074c0.543-0.465,1.021-0.448,1.475,0.056
			c0.772,0.016,1.168-0.474,1.492-1.087c0.412-0.783,0.879-1.539,1.26-2.338c0.142-0.297,0.105-0.68,0.15-1.024
			C125.865,146.055,125.867,145.158,126.329,144.337z"/>
		<path fill="#22262A" d="M138.648,119.95c2.191,0.319,3.282,1.832,4.123,3.647c0.423,0.915,0.839,1.833,1.258,2.749
			c-0.082-0.811,0.586-1.155,1.032-1.628c0.584-0.621,0.388,0.206,0.583,0.309c0.037,0.019,0.19-0.185,0.289-0.285
			c-0.259-1.055-0.993-1.851-1.538-2.747c-0.159-0.261-0.567-0.481-0.882-0.511c-0.535-0.05-0.583-0.342-0.542-0.731
			c0.059-0.565-0.171-1.058-0.694-1.115c-0.998-0.11-1.725-0.739-2.561-1.148c-0.686-0.334-1.384-0.453-2.09-0.331
			c-0.334,0.058-0.615,0.433-0.919,0.664c0.215,0.171,0.413,0.373,0.65,0.507C137.774,119.564,138.196,119.883,138.648,119.95z"/>
		<path fill="#F8DF51" d="M170.635,208.524c-0.279-0.603-1.022-1.021-0.723-1.848c-1.042-0.087-1.475-0.857-1.903-1.658
			c-0.223-0.413-0.487-0.814-0.799-1.161c-0.257-0.286-0.432-0.17-0.745,0.365c-0.063,0.109-0.215,0.244-0.322,0.242
			c-0.645-0.016-1.866-1.248-1.776-1.819c0.043-0.273,0.242-0.521,0.373-0.779c-0.608-0.261-1.031-1.013-1.856-0.706
			c-0.123,0.37-0.246,0.739-0.368,1.109c-0.197,0.79,0.284,1.26,0.814,1.699c0.597,0.493,1.252,0.933,1.803,1.475
			c0.647,0.635,1.28,1.21,2.198,1.473c0.482,0.141,0.895,0.569,1.304,0.909c0.56,0.464,1.086,0.969,1.626,1.456
			C170.305,208.989,170.118,208.584,170.635,208.524z"/>
		<path fill="#A4C340" d="M104.235,202.315c-0.116-0.033-0.233-0.055-0.353-0.069c-1.055,0.729-2.121,1.443-3.159,2.195
			c-0.577,0.418-1.12,0.884-1.648,1.363c-0.29,0.261-0.498,0.609-0.777,0.884c-0.357,0.354-0.555,1.565-0.171,1.715
			c0.272,0.104,0.568,0.725,1.043,0.22c0.274-0.291,0.732-0.42,0.971-0.729c1.232-1.592,2.865-2.699,4.483-3.831
			c0.114-0.235,0.228-0.469,0.342-0.704C105.29,202.614,104.314,202.777,104.235,202.315z"/>
		<path fill="#F9DE52" d="M165.762,195.974c0.289,0.051,0.616-0.069,0.888,0.013c0.502,0.149-0.108,0.569,0.025,0.603
			c0.45,0.109,0.929,0.102,1.397,0.139c0.363-0.117,0.727-0.232,1.09-0.349c1.104-0.008,2.204-0.017,3.307-0.024
			c0.296,0,0.593,0.006,0.889-0.007c0.323-0.013,0.657,0.044,0.542,0.438c-0.044,0.153-0.452,0.201-0.695,0.296
			c-0.239,0.008-0.481,0.017-0.721,0.025c0,0.235,0,0.473,0,0.708c0.491,0,0.983,0,1.477-0.003c0.124-0.25,0.269-0.493,0.361-0.754
			c0.109-0.307,0.292-0.395,0.359-0.044c0.153,0.801,0.75,0.305,1.122,0.443c0.115-0.122,0.234-0.246,0.351-0.368
			c-0.221-0.705-0.588-1.022-1.431-1.174c-1.221-0.217-2.438-0.298-3.701-0.334c0.141-0.29,0.239-0.498,0.338-0.706
			c-0.739-0.031-1.477,0.372-2.214-0.008c-0.672,0.002-1.34,0.013-2.012,0.004c-0.669-0.009-1.258,0.149-1.671,0.725
			C165.563,195.729,165.645,195.955,165.762,195.974z"/>
		<path fill="#A4C340" d="M158.789,198.939c-0.134-0.075-0.227-0.23-0.338-0.349c-0.478-0.195-1.142,0.319-1.488-0.389l-0.172,0.009
			l-0.173-0.017c-0.458-0.007-0.915-0.02-1.372-0.017c-0.522,0.006-0.453-0.389-0.492-0.713c-0.117,0.166-0.324,0.328-0.332,0.496
			c-0.024,0.701,0.012,1.403,0.024,2.107c0.437-0.162,0.889-0.29,1.301-0.498c0.215-0.107,0.307-0.181,0.581-0.047
			c1.714,0.843,3.603,1.299,5.223,2.359c0.284,0.187,0.641,0.261,0.964,0.387c0.122-0.37,0.245-0.739,0.368-1.109
			C161.517,200.423,160.149,199.688,158.789,198.939z"/>
		<path fill="#211E1F" d="M263.241,171.318c-0.559-0.088-0.681,0.553-0.874,0.98c-0.122,0.268-0.275,0.518-0.437,0.819
			c-0.2-0.453-0.326-0.922-0.591-1.287c-0.191-0.263-0.559-0.521-0.865-0.544c-0.914-0.069-1.838-0.036-2.758-0.009
			c-0.122,0.004-0.319,0.187-0.334,0.307c-0.015,0.126,0.17,0.401,0.23,0.391c0.874-0.145,0.859,0.407,0.834,1.002
			c-0.019,0.429-0.055,0.868,0.015,1.287c0.067,0.422,0.433,0.313,0.729,0.263c0-0.73,0-1.461,0-2.192
			c0.947-0.473,1.155-0.414,1.082,0.349c-0.04,0.397-0.295,0.775-0.33,1.174c-0.017,0.229,0.157,0.619,0.332,0.68
			c0.195,0.067,0.559-0.094,0.723-0.272c0.143-0.153,0.106-0.474,0.172-0.84c0.233,0.399,0.338,0.69,0.533,0.896
			c0.443,0.46,0.604,0.391,0.799-0.279c0.048-0.163,0.101-0.325,0.26-0.848c0.072,0.584,0.047,0.782,0.124,0.925
			c0.093,0.173,0.275,0.294,0.418,0.438c0.1-0.126,0.277-0.246,0.284-0.376c0.035-0.55,0.071-1.11,0.004-1.652
			C263.535,172.108,263.94,171.426,263.241,171.318z"/>
		<path fill="#F5F6EB" d="M110.88,197.826c-1.145,0.021-2.291-0.029-3.434,0.018c-0.445,0.019-0.882,0.225-1.323,0.344
			c-0.13,0.372-0.26,0.742-0.389,1.113c0.236,0.003,0.472,0.007,0.709,0.011c0.233,0.025,0.466,0.036,0.698,0.038
			c1.16,0.019,2.304-0.185,3.454-0.315c0.46-0.053,0.92-0.092,1.383-0.103c0.151-0.009,0.302-0.02,0.453-0.027
			c-0.527-1.551-0.578-3.143-0.403-4.752c-0.144,0.146-0.396,0.282-0.409,0.438c-0.047,0.546,0.021,1.101-0.024,1.648
			c-0.015,0.173-0.245,0.328-0.377,0.492C111.752,197.726,111.733,197.812,110.88,197.826z"/>
		<path fill="#F5F6EB" d="M106.443,199.312L106.443,199.312c-0.237-0.004-0.473-0.008-0.709-0.011
			C105.97,199.304,106.206,199.308,106.443,199.312z"/>
		<path fill="#A6C348" d="M156.5,197.112c0.175,0.019,0.332,0.206,0.498,0.319c0.612,0.015,1.224,0.029,1.837,0.046
			c0.456-0.006,0.917-0.04,1.367,0.007c0.163,0.015,0.306,0.221,0.459,0.34c0.111,0.351,0.309,0.456,0.65,0.261
			c0.395-0.225,0.8-0.433,1.203-0.649c0.002-0.115,0.004-0.232,0.002-0.349c-0.56-0.124-1.128-0.38-1.678-0.347
			c-1.908,0.116-3.768-0.235-5.646-0.422c-0.021,0.25-0.042,0.502-0.064,0.754C155.586,197.081,156.046,197.06,156.5,197.112z"/>
		<path fill="#202427" d="M145.644,125.026c-0.194-0.103,0.001-0.93-0.583-0.309c-0.445,0.473-1.113,0.817-1.032,1.628
			c0.026,0.215,0.054,0.431,0.08,0.647c0.112,0.176,0.308,0.346,0.322,0.53c0.042,0.545,0.013,1.096,0.011,1.645
			c0.568-0.136,1.174-0.193,1.69-0.438c0.318-0.152,0.195-0.508-0.176-0.648c-0.346-0.026-0.981-0.009-0.992-0.086
			c-0.082-0.542-0.179-1.158,0.004-1.647c0.254-0.686,0.804-0.469,1.265-0.104c0.504-0.622,0.238-1.089-0.3-1.502
			C145.834,124.841,145.681,125.045,145.644,125.026z"/>
		<path fill="#1A201E" d="M123.404,131.59c-0.089,0.04-0.335-0.039-0.346-0.094c-0.105-0.549-0.376-0.518-0.766-0.276
			c-0.074,0.046-0.335-0.035-0.348-0.092c-0.143-0.689-0.281-1.382-0.358-2.08c-0.02-0.176,0.163-0.39,0.287-0.562
			c0.079-0.108,0.221-0.172,0.334-0.256c-0.167-0.045-0.331-0.111-0.5-0.13c-0.181-0.02-0.366,0.004-0.55,0.01
			c-0.002,0.484,0.007,0.969-0.01,1.453c-0.072,2.04,0.314,3.239,3.003,2.97c-0.106-0.206-0.213-0.413-0.32-0.619
			c0.215,0.006,0.431-0.006,0.643,0.021c0.523,0.068,1.044,0.156,1.566,0.236l0.168,0.002l0.145-0.086
			C125.399,131.753,124.503,131.099,123.404,131.59z"/>
		<path fill="#292923" d="M106.285,201.072c0.129-0.091,0.087-0.429,0.125-0.649c-0.964,0.122-1.927,0.246-2.891,0.367
			c0.122,0.485,0.243,0.971,0.363,1.456c0.12,0.015,0.237,0.036,0.353,0.069C104.923,201.906,105.626,201.521,106.285,201.072z"/>
		<path fill="#1B1C1C" d="M103.86,125.499c1.234,0.682,2.556,0.32,3.836,0.257c0.311-0.016,0.247-0.456-0.104-0.629
			c-1.078,0.004-2.157-0.008-3.235,0.027C104.189,125.16,104.026,125.378,103.86,125.499z"/>
		<path fill="#171919" d="M171.74,128.671c-0.271,0.123-0.479,0.392-0.715,0.595c1.223-0.144,2.487,0.063,3.668-0.448
			C173.901,128.395,172.559,128.3,171.74,128.671z"/>
		<path fill="#22262A" d="M144.968,126.347c-0.183,0.489-0.086,1.105-0.004,1.647c0.011,0.078,0.646,0.06,0.992,0.086
			c-0.053-0.216-0.042-0.487-0.171-0.639c-0.501-0.585-0.177-0.771,0.372-0.908c0.046-0.012,0.052-0.19,0.076-0.291
			C145.772,125.878,145.223,125.662,144.968,126.347z"/>
		<path fill="#F9DF55" d="M166.336,196.97c0.604,0.092,1.234,0.395,1.736-0.242c-0.469-0.037-0.947-0.029-1.397-0.139
			c-0.134-0.033,0.477-0.453-0.025-0.603c-0.271-0.082-0.599,0.038-0.888-0.013c-0.117-0.019-0.199-0.245-0.299-0.378
			c-0.553-0.021-0.949,0.187-1.105,0.752c0.131,0.002,0.257,0.004,0.385,0.007C165.317,196.446,166.103,195.995,166.336,196.97z"/>
		<path fill="#F8E467" d="M164.742,196.354c-0.128-0.003-0.254-0.005-0.385-0.007c-0.404-0.002-0.813,0.033-1.213-0.008
			c-0.618-0.067-0.637,0.316-0.629,0.747c0.002,0.116,0,0.233-0.002,0.349C163.42,197.415,164.086,196.894,164.742,196.354z"/>
		<path fill="#161717" d="M161.147,131.064c1.086,0,2.172,0,3.257,0l0.166,0.009l0.16-0.035c-0.013-0.059-0.016-0.162-0.045-0.172
			C163.502,130.523,162.326,130.672,161.147,131.064z"/>
		<path fill="#141515" d="M120.806,148.378c-0.402,0.625-0.605,1.245,0.039,1.848C121.364,149.578,121.351,148.954,120.806,148.378z
			"/>
		<path fill="#141A17" d="M140.762,132.089c0.594,0.486,1.2,0.671,1.84,0.077C142.047,131.652,141.497,131.63,140.762,132.089z"/>
		<path fill="#161415" d="M116.121,201.799c0.101-0.109,0.202-0.219,0.303-0.328c0.049-0.23,0.047-0.491,0.158-0.688
			c0.34-0.605,0.03-0.746-0.496-0.769c-0.104,0.046-0.302,0.108-0.297,0.139C115.886,200.702,116.006,201.248,116.121,201.799z"/>
		<path fill="#030303" d="M171.412,176.663c-0.029,0.013-0.019,0.111-0.029,0.17c0.977-0.029,1.951-0.061,2.926-0.09
			C173.343,176.331,172.288,176.3,171.412,176.663z"/>
		<path fill="#141616" d="M126.321,146.905c0.23-0.855,0.251-1.711,0.008-2.568C125.867,145.158,125.865,146.055,126.321,146.905z"
			/>
		<path fill="#040303" d="M148.879,182.295c0,0.885,0,1.767,0,2.65C149.378,184.087,149.378,183.156,148.879,182.295z"/>
		<path fill="#F7DE4D" d="M170.635,208.524c-0.517,0.06-0.33,0.465-0.374,0.757c0.065,0.48,0.445,0.323,0.731,0.356
			c0.126-0.115,0.254-0.232,0.382-0.346C171.126,209.035,170.881,208.781,170.635,208.524z"/>
		<path fill="#101211" d="M121.944,151.299c0.484,0.229,0.956,0.788,1.475,0.056C122.965,150.852,122.488,150.834,121.944,151.299z"
			/>
		<path fill="#1C231F" d="M123.83,131.914c0.107,0.207,0.214,0.413,0.32,0.619c0.627-0.136,1.354,0.255,1.889-0.362
			c-0.522-0.08-1.043-0.167-1.566-0.236C124.261,131.908,124.045,131.92,123.83,131.914z"/>
		<path fill="#F9DF55" d="M171.359,194.875c-0.663-0.521-1.482-0.522-2.214-0.008C169.883,195.247,170.62,194.844,171.359,194.875z"
			/>
		<path fill="#1A1819" d="M187.983,188.551c0.853,0,1.71,0,2.565,0C189.607,188.115,188.916,188.115,187.983,188.551z"/>
		<path fill="#040303" d="M259.54,173.916c-0.111-0.526,0.382-1.194-0.349-1.581c0,0.731,0,1.462,0,2.192
			C259.67,174.533,259.593,174.168,259.54,173.916z"/>
		<path fill="#191617" d="M222.275,182.736c0-0.763,0-1.523,0-2.283C221.717,181.213,221.715,181.974,222.275,182.736z"/>
		<path fill="#22262A" d="M144.432,127.522c-0.015-0.185-0.21-0.354-0.322-0.53c-0.003,0.576-0.032,1.154,0.005,1.729
			c0.01,0.155,0.213,0.298,0.328,0.446C144.444,128.618,144.474,128.067,144.432,127.522z"/>
		<path fill="#141717" d="M130.73,151.313c-0.371,0.387-0.523,0.775,0,1.163C131.341,152.01,131.341,151.775,130.73,151.313z"/>
		<path fill="#181919" d="M101.555,134.615c-0.056-0.079-0.099-0.208-0.169-0.227c-0.176-0.045-0.365-0.039-0.548-0.053
			c-0.346,0.013-0.691,0.025-1.036,0.038C100.307,135.024,100.942,134.74,101.555,134.615z"/>
		<path fill="#1D1E1E" d="M95.31,134.483c0.173,0.268,0.335,0.185,0.535-0.003c0.185-0.174,0.418-0.297,0.631-0.444
			c-0.228-0.019-0.455-0.039-0.682-0.059c-0.223,0.038-0.446,0.076-0.671,0.115C95.184,134.223,95.231,134.363,95.31,134.483z"/>
		<path fill="#1A1718" d="M164.642,153.771c-0.059-0.312-0.251-0.598-0.393-0.893c-0.083,0.063-0.174,0.118-0.244,0.193
			c-0.032,0.036-0.025,0.11-0.036,0.167c-0.01,0.194-0.018,0.388-0.028,0.583c0.039,0.106,0.078,0.211,0.116,0.318
			C164.264,154.014,164.657,153.854,164.642,153.771z"/>
		<path fill="#141616" d="M176.195,128.354c0.263,0.049,0.525,0.097,0.785,0.146c0.345-0.01,0.691-0.021,1.036-0.033
			C177.5,127.694,176.825,128.247,176.195,128.354z"/>
		<path fill="#181919" d="M97.584,123.313c0.102,0.013,0.204,0.018,0.306,0.017c0.502-0.04,1.003-0.078,1.504-0.117
			C98.799,123.299,98.093,122.445,97.584,123.313z"/>
		<path fill="#A4C03D" d="M92.314,198.11c0.036-0.162,0.087-0.321,0.104-0.485c0.018-0.17,0.003-0.343,0.003-0.517
			c-0.302-0.007-0.661-0.144-0.742,0.336c0.08,0.145,0.137,0.309,0.245,0.424C92.026,197.976,92.183,198.03,92.314,198.11z"/>
		<path fill="#D7D6D6" d="M100.199,140.808c0.022,0.042,0.077,0.067,0.118,0.1c0.131-0.207,0.307-0.398,0.38-0.624
			c0.068-0.21,0.028-0.456,0.035-0.686c-0.198,0.107-0.397,0.215-0.596,0.323c0.011,0.239,0.021,0.479,0.033,0.717
			C100.177,140.695,100.173,140.76,100.199,140.808z"/>
		<path fill="#A5C442" d="M112.003,200.79c-0.219-0.039-0.438-0.079-0.659-0.119c0.214-0.336,0.429-0.672,0.644-1.006
			c-0.003-0.244-0.007-0.49-0.011-0.733c-0.462,0.011-0.923,0.05-1.383,0.103c-1.15,0.131-2.294,0.334-3.454,0.315
			c-0.232-0.002-0.465-0.013-0.698-0.038c0.103,0.122,0.194,0.334,0.311,0.349c0.604,0.078,0.295,0.319,0.099,0.509
			c-0.119,0.115-0.293,0.172-0.442,0.254c-0.037,0.221,0.005,0.559-0.125,0.649c-0.659,0.449-1.362,0.834-2.05,1.243
			c0.079,0.462,1.055,0.299,0.731,1.044c0.625-0.258,1.25-0.517,1.874-0.775c0.665-0.529,1.438-0.701,2.268-0.707
			C110.203,201.866,111.164,201.488,112.003,200.79z"/>
		<path fill="#F8F9F7" d="M112.529,200.778h-0.179l-0.173,0.015l-0.174-0.003c-0.839,0.698-1.801,1.076-2.896,1.087
			c-0.83,0.006-1.603,0.178-2.268,0.707c0.282,0.271,0.526,0.607,0.854,0.807c1.755,1.065,3.462,1.177,5.032-0.376
			c-0.005-0.745-0.011-1.491-0.018-2.234L112.529,200.778z"/>
		<path fill="#F9FAF4" d="M156.5,197.112c-0.454-0.053-0.914-0.031-1.372-0.04c-0.126,0.131-0.25,0.263-0.374,0.393
			c0.039,0.324-0.03,0.719,0.492,0.713c0.457-0.003,0.914,0.01,1.372,0.017c0.126-0.254,0.253-0.509,0.38-0.763
			C156.832,197.318,156.675,197.131,156.5,197.112z"/>
		<path fill="#E6EBDB" d="M111.989,199.665c0.662,0.195,0.243,0.741,0.362,1.113h0.179l0.179,0.002
			c0.102-0.118,0.204-0.233,0.305-0.352c-0.194-0.508-0.389-1.017-0.583-1.524c-0.151,0.008-0.302,0.019-0.453,0.027
			C111.981,199.175,111.985,199.421,111.989,199.665z"/>
		<path fill="#D2D3CB" d="M112.726,203.015c0.106-0.021,0.212-0.031,0.32-0.033c0.03-0.863,0.059-1.723,0.089-2.584l-0.121,0.031
			c-0.101,0.118-0.203,0.233-0.305,0.352C112.714,201.523,112.72,202.27,112.726,203.015z"/>
		<path fill="#191515" d="M113.134,200.397c-0.03,0.861-0.059,1.721-0.089,2.584C113.573,202.339,113.606,201.385,113.134,200.397z"
			/>
		<path fill="#FFFFFF" d="M184.007,183.231c-0.066,0.122,0.06,0.431,0.189,0.555c0.023,0.025,0.059,0.036,0.099,0.042
			c0.118,0.017,0.292-0.023,0.431-0.025c0.179,0,0.365,0.027,0.542-0.006c0.159-0.031,0.449-0.145,0.441-0.188
			c-0.032-0.216-0.087-0.48-0.233-0.617C184.946,182.512,184.352,182.604,184.007,183.231z"/>
		<path fill="#FFFFFF" d="M184.726,183.803c-0.139,0.002-0.313,0.042-0.431,0.025c0.118,0.017,0.292-0.023,0.431-0.023
			c0.179-0.002,0.365,0.025,0.542-0.008C185.091,183.83,184.904,183.803,184.726,183.803z"/>
		<path fill="#131917" d="M130.43,124.206c0.021,0.28,0.083,0.557,0.128,0.834c0.021-0.594,0.612-1.268-0.136-1.74v0
			C130.423,123.603,130.407,123.906,130.43,124.206z"/>
		<path fill="#1B1B1B" d="M230.398,185.706c-0.735,0-1.466,0.002-2.201,0.002C228.933,186.228,229.665,186.228,230.398,185.706z"/>
		<path fill="#FCFBF4" d="M169.855,197.894c0.225-0.854,0.872-0.811,1.517-0.819c-0.151-0.648-0.67-0.241-1.008-0.356
			c-0.396-0.135-0.962,0.344-1.202-0.339c-0.363,0.116-0.727,0.231-1.09,0.349c-0.502,0.637-1.133,0.334-1.736,0.242
			c-0.233-0.975-1.019-0.523-1.594-0.615c-0.656,0.539-1.322,1.061-2.229,1.081c-0.402,0.217-0.808,0.425-1.203,0.649
			c-0.341,0.195-0.539,0.09-0.65-0.261c-0.455,0.005-0.912,0.038-1.361-0.006c-0.165-0.02-0.312-0.221-0.465-0.341
			c-0.613-0.017-1.225-0.031-1.837-0.046c-0.127,0.254-0.254,0.509-0.38,0.763l0.173,0.017l0.172-0.009
			c0.186-0.006,0.429,0.06,0.542-0.035c0.64-0.534,0.793-0.073,0.946,0.424c0.111,0.118,0.204,0.273,0.338,0.349
			c1.36,0.748,2.728,1.483,4.094,2.221c0.825-0.307,1.248,0.445,1.856,0.706c0.112-0.118,0.222-0.233,0.334-0.349
			c-0.098-0.21-0.195-0.423-0.34-0.731c0.521,0,1.001,0.015,1.48-0.015c0.082-0.004,0.24-0.23,0.216-0.281
			c-0.408-0.809,0.38-0.286,0.518-0.473c0.098-0.115,0.187-0.244,0.295-0.349c0.139-0.131,0.293-0.244,0.441-0.365
			c-0.011-0.058-0.015-0.118-0.036-0.173c-0.094-0.254-0.193-0.504-0.291-0.756c0.247,0.013,0.577-0.071,0.729,0.057
			c0.495,0.424,0.697-0.279,1.075-0.221C169.402,198.105,169.813,198.049,169.855,197.894z M163.248,199.465
			c-0.438-0.287-1.538-0.011-0.955-1.235c0.168,0.139,0.333,0.265,0.487,0.403c0.281,0.255,0.557,0.515,0.835,0.773
			C163.49,199.432,163.324,199.516,163.248,199.465z M165.669,199.229c-0.083,0.06-0.279,0.095-0.319,0.051
			c-0.222-0.25-0.466-0.507-0.584-0.809c-0.064-0.158,0.111-0.412,0.18-0.622c0.172,0.107,0.393,0.175,0.507,0.325
			c0.169,0.221,0.262,0.5,0.378,0.737C165.771,199.039,165.748,199.171,165.669,199.229z"/>
		<path fill="#FCFAF0" d="M164.366,202.646c-0.09,0.571,1.132,1.804,1.776,1.819c0.107,0.002,0.259-0.133,0.322-0.242
			c0.313-0.535,0.488-0.651,0.745-0.365c0.312,0.347,0.576,0.748,0.799,1.161c0.429,0.801,0.861,1.571,1.903,1.658
			c0.118,0.002,0.237,0.004,0.355,0.004c-0.047-0.109-0.116-0.212-0.133-0.326c-0.188-1.155-0.661-2.075-1.814-2.585
			c-0.376-0.169-0.833-0.553-0.275-1.074c-0.141-0.146-0.265-0.389-0.429-0.42c-0.352-0.064-0.723-0.037-1.085-0.019
			c-0.636,0.035-1.214-0.017-1.458-0.739c-0.112,0.115-0.222,0.23-0.334,0.349C164.608,202.124,164.409,202.372,164.366,202.646z"/>
		<path fill="#FCFAF0" d="M170.635,208.524c0.246,0.257,0.491,0.511,0.739,0.768c0.286,0.223,0.573,0.447,0.863,0.67
			c0.078-0.385,0.221-0.767,0.219-1.151c0-0.269-0.122-0.628-0.319-0.79c-0.588-0.487-1.241-0.898-1.869-1.34
			c-0.118,0-0.237-0.002-0.355-0.004C169.612,207.504,170.355,207.922,170.635,208.524z"/>
		<path fill="#FADF58" d="M172.483,197.106c-0.37-0.011-0.741-0.021-1.111-0.032c-0.645,0.009-1.292-0.035-1.517,0.819
			c-0.042,0.155-0.453,0.212-0.695,0.317c0,0.237,0,0.473,0,0.708c0.491,0.128,0.983,0.256,1.475,0.382
			c-0.107-0.515,1.265-0.289,0.555-1.104c-0.231-0.269-0.283-0.593,0.075-0.706c0.277-0.09,0.74-0.229,0.845,0.324
			c0.124,0,0.25,0,0.374,0C172.483,197.579,172.483,197.342,172.483,197.106z"/>
		<path fill="#FCF3CD" d="M172.483,197.814c-0.124,0-0.25,0-0.374,0c-0.517,0.185-0.493,0.652-0.09,0.701
			c1.015,0.126,2.054,0.069,3.079,0.015c0.12-0.006,0.214-0.456,0.321-0.697c-0.487-0.009-0.973-0.015-1.46-0.021
			C173.467,197.814,172.975,197.814,172.483,197.814z"/>
		<path fill="#FCF6D9" d="M175.237,200.354c-0.506-0.126-1.009-0.259-1.504-0.407c-0.183-0.055-0.416-0.391-0.5,0.008
			c-0.051,0.244,0.063,0.7,0.235,0.779c0.464,0.217,1,0.286,1.626,0.441c0.163-0.065,0.557-0.107,0.639-0.29
			C175.903,200.507,175.533,200.427,175.237,200.354z"/>
		<path fill="#FFF8EC" d="M169.049,199.62c0.878,0.21,1.741,0.653,2.697,0.425c-0.212-0.126-0.427-0.246-0.63-0.38
			c-0.168-0.111-0.321-0.24-0.483-0.361l0.002-0.003c-0.491-0.126-0.983-0.254-1.475-0.382
			C168.664,199.089,168.654,199.523,169.049,199.62z"/>
		<path fill="#FDF8E6" d="M166.947,200.018c0.591,0.109,1.182,0.216,2.188,0.401c-0.712-0.547-1.081-0.83-1.451-1.115
			c-0.148,0.121-0.303,0.234-0.441,0.365C167.134,199.773,167.045,199.902,166.947,200.018z"/>
		<path fill="#F8DE46" d="M174.681,197.014c-0.067-0.351-0.25-0.263-0.359,0.044c-0.093,0.261-0.237,0.504-0.361,0.754
			c0.487,0.007,0.973,0.013,1.46,0.021c0.128-0.126,0.254-0.252,0.383-0.376C175.431,197.318,174.834,197.814,174.681,197.014z"/>
		<path fill="#F8E368" d="M171.746,200.045c0.011,0.059,0.006,0.126,0.036,0.174c0.024,0.042,0.121,0.093,0.123,0.091
			c0.364-0.458,0.282-0.925-0.195-0.994c-0.353-0.05-0.718-0.012-1.077-0.012c0.162,0.121,0.315,0.25,0.483,0.361
			C171.319,199.799,171.534,199.919,171.746,200.045z"/>
		<path fill="#19151E" d="M106.032,198.207c-0.729-0.009-1.458-0.015-2.188-0.021c-0.121-0.004-0.242,0-0.362,0.011
			c-0.004,0.37-0.008,0.737-0.012,1.107l0.059-0.021c0.714,0,1.429-0.002,2.143-0.002l0.063,0.021
			c0.129-0.371,0.259-0.741,0.389-1.113L106.032,198.207z"/>
		<path fill="#393B2F" d="M106.064,197.846c-0.733,0-1.467,0-2.2,0c0.002,0.113-0.004,0.227-0.021,0.34
			c0.729,0.007,1.458,0.013,2.188,0.021C106.064,198.089,106.075,197.968,106.064,197.846z"/>
		<path fill="#ADCC40" d="M103.864,197.846c0.733,0,1.467,0,2.2,0C105.414,197.297,104.519,197.295,103.864,197.846z"/>
		<path fill="#67723D" d="M105.671,199.28c-0.714,0-1.429,0.002-2.143,0.002C104.136,199.83,105.046,199.83,105.671,199.28z"/>
		<path fill="#181B1A" d="M136.709,150.978c0,0.005,0,0.01,0,0.016l0.007-0.007C136.714,150.983,136.71,150.981,136.709,150.978z"/>
		<path fill="#181B1A" d="M136.671,146.057c-0.006-0.089-0.278-0.161-0.427-0.241c-0.034,0.117-0.107,0.239-0.096,0.352
			c0.045,0.469,0.156,0.934,0.168,1.403c0.025,0.975-0.016,1.952,0.019,2.926c0.006,0.164,0.239,0.32,0.373,0.48
			c-0.005-1.031-0.011-2.062-0.015-3.093C136.691,147.276,136.71,146.665,136.671,146.057z"/>
		<path fill="#FCF7E7" d="M170.364,196.718c0.338,0.115,0.856-0.292,1.008,0.356c0.37,0.011,0.741,0.021,1.111,0.032
			c0.239-0.009,0.481-0.018,0.721-0.025c-0.091-0.122-0.164-0.261-0.271-0.363c-0.143-0.137-0.311-0.244-0.464-0.363
			c-1.103,0.008-2.203,0.017-3.307,0.024C169.402,197.062,169.969,196.583,170.364,196.718z"/>
		<path fill="#F9DF55" d="M173.204,197.081c0.243-0.095,0.651-0.143,0.695-0.296c0.115-0.394-0.219-0.45-0.542-0.438
			c-0.296,0.013-0.593,0.007-0.889,0.007c0.153,0.119,0.321,0.227,0.464,0.363C173.04,196.82,173.113,196.959,173.204,197.081z"/>
		<path fill="#F9FAF4" d="M157.505,198.167c-0.113,0.095-0.356,0.029-0.542,0.035c0.347,0.708,1.01,0.193,1.488,0.389
			C158.298,198.094,158.145,197.633,157.505,198.167z"/>
		<path fill="#F9FAF4" d="M160.661,197.824c-0.153-0.119-0.296-0.325-0.459-0.34c-0.45-0.047-0.912-0.013-1.367-0.007
			c0.153,0.12,0.3,0.321,0.465,0.341C159.749,197.862,160.206,197.829,160.661,197.824z"/>
		<path fill="#A5C13C" d="M112.003,200.79l0.174,0.003l0.173-0.015c-0.119-0.372,0.3-0.918-0.362-1.113
			c-0.215,0.334-0.43,0.67-0.644,1.006C111.565,200.711,111.784,200.751,112.003,200.79z"/>
		<path fill="#F2E039" d="M164.945,197.85c-0.068,0.21-0.244,0.464-0.18,0.622c0.118,0.302,0.362,0.559,0.584,0.809
			c0.04,0.044,0.236,0.009,0.319-0.051c0.079-0.059,0.102-0.19,0.161-0.317c-0.116-0.237-0.209-0.517-0.378-0.737
			C165.338,198.024,165.117,197.957,164.945,197.85z"/>
		<path fill="#F8E574" d="M162.293,198.229c-0.583,1.225,0.517,0.948,0.955,1.235c0.076,0.051,0.242-0.033,0.367-0.059
			c-0.278-0.259-0.554-0.519-0.835-0.773C162.626,198.494,162.461,198.368,162.293,198.229z"/>
	</g>
</g>
</svg>
