<?xml version="1.0" encoding="utf-8"?>
<!-- Generator: Adobe Illustrator 16.0.0, SVG Export Plug-In . SVG Version: 6.00 Build 0)  -->
<!DOCTYPE svg PUBLIC "-//W3C//DTD SVG 1.1//EN" "http://www.w3.org/Graphics/SVG/1.1/DTD/svg11.dtd">
<svg version="1.1" id="Layer_1" xmlns="http://www.w3.org/2000/svg" xmlns:xlink="http://www.w3.org/1999/xlink" x="0px" y="0px"
	 width="324px" height="324px" viewBox="0 0 324 324" enable-background="new 0 0 324 324" xml:space="preserve">
<g>
	<path fill-rule="evenodd" clip-rule="evenodd" fill="#070707" d="M143.66,260.98c-2.409-1.573-3.327-3.954-3.95-6.658
		c-3.159-13.715-6.463-27.396-9.61-41.114c-0.391-1.705-1.022-2.584-2.797-2.695c-0.969-0.06-1.938-0.374-2.875-0.675
		c-8.077-2.596-11.497-8.547-9.665-16.882c0.272-1.236,0.213-2.332-0.09-3.588c-1.363-5.632,0.302-10.431,4.561-14.278
		c1.135-1.024,1.396-1.955,1.035-3.418c-1.694-6.873-3.31-13.766-4.873-20.67c-0.349-1.543-0.877-2.4-2.669-2.503
		c-2.119-0.122-4.14-0.902-4.648-3.33c-0.49-2.341,0.188-4.365,2.084-5.97c2.087-1.767,1.832-6.632-0.365-8.215
		c-4.352-3.135-5.565-7.309-3.028-12.059c1.179-2.207,0.855-3.448-0.999-4.848c-1.572-1.187-2.871-2.728-4.406-3.969
		c-6.726-5.441-8.808-12.438-7.133-20.756c0.276-1.372,0.444-2.766,0.66-4.15c1.404-9.021,8.374-13.517,17.205-10.95
		c1.499,0.436,1.474-0.634,1.889-1.263c4.446-6.738,12.986-10.438,20.848-8.876c3.66,0.727,6.899,2.227,8.766,6.071
		c2.537-2.913,5.515-4.773,9.237-5.313c2.525-0.366,4.967-0.119,7.203,1.077c1.063,0.568,1.715,0.55,2.511-0.348
		c1.165-1.313,3.075-1.44,4.37-2.581c1.649,0,3.3,0,4.949,0c0.334,0.778,1.143,0.502,1.71,0.713
		c7.675,2.854,10.727,11.929,6.128,18.721c-0.81,1.196-0.674,1.96-0.086,3.045c1.497,2.761,3.321,5.302,5.134,7.85
		c7.283,10.244,6.476,19.222-2.553,28.004c-0.348,0.338-0.714,0.659-1.042,0.961c0.059,0.219,0.052,0.432,0.136,0.478
		c12.798,6.899,20.33,18.184,25.745,31.151c0.893,2.138,2.036,2.942,4.276,3.057c4.071,0.208,7.966,1.291,11.46,3.478
		c7.428,4.648,7.263,12.229-0.349,16.611c-1.788,1.03-3.677,1.884-5.709,2.273c-1.469,0.282-1.736,0.892-1.447,2.362
		c0.664,3.39,1.165,6.817,1.225,10.292c0.072,4.194-1.279,6.415-5.399,7.79c-4.208,1.405-8.495,2.609-12.808,3.656
		c-2.469,0.599-2.622,1.635-1.733,3.77c2.027,4.872,4.566,9.488,6.817,14.246c2.525,5.336,3.879,10.848,2.869,16.761
		c-1.506,8.821-8.026,14.498-17.492,15.293c-4.667,0.392-9.189-0.433-13.672-1.613c-1.751-0.461-3.501-0.929-5.269-1.32
		c-3.143-0.696-5.975-0.072-8.644,1.814c-4.483,3.168-9.122,6.105-14.042,8.567C145.97,260.98,144.814,260.98,143.66,260.98z
		 M150.363,157.032c3.471-2.665,7.34-4.294,11.725-4.762c8.779-0.935,17.343,3.697,20.229,11.029
		c0.714,1.813,4.294,2.492,5.428,0.874c2.589-3.697,6.34-5.434,10.492-6.405c1.718-0.401,1.668-0.98,0.999-2.242
		c-1.039-1.961-1.942-3.995-2.972-5.962c-5.56-10.632-13.625-18.465-25.12-22.485c-11.213-3.922-22.613-3.854-34.121-1.69
		c-3.308,0.622-3.382,0.846-2.308,4.084c0.628,1.892,2.24,2.069,3.739,2.301c2.846,0.44,5.725,0.664,8.582,1.044
		c1.184,0.157,2.564,0.126,2.718,1.885c0.136,1.561-0.799,2.147-2.061,2.633c-1.762,0.68-3.456,1.536-5.213,2.231
		c-1.441,0.571-1.616,1.137-0.59,2.444c2.639,3.366,5.406,6.643,7.698,10.274c0.844,1.338,1.304,2.64,0.356,4.1
		c-1.988,1.163-3.671,0.139-5.276-0.847c-3.153-1.938-6.235-3.993-9.37-5.963c-0.756-0.475-1.555-1.012-2.506-0.92
		c-1.53,0.149-7.344,7.749-7.014,9.258c0.755,3.454,1.623,6.883,2.43,10.326c0.156,0.667,0.165,1.272,1.214,0.918
		c4.792-1.618,9.765-2.286,14.794-2.563c0.817-0.045,1.189-0.403,1.306-1.158C146.054,162.013,148.048,159.43,150.363,157.032z
		 M186.02,245.283c2.283,0.004,4.171-0.163,5.995-0.738c3.642-1.147,5.699-3.694,6.535-7.368c0.458-2.014,0.128-3.015-2.285-3.308
		c-12.565-1.521-22.437-7.631-29.696-17.983c-1.656-2.359-3.292-4.734-4.985-7.067c-1.144-1.577-1.722-3.208,0.151-4.505
		c1.882-1.303,3.193-0.139,4.276,1.453c2.457,3.611,5.028,7.135,7.826,10.498c5.572,6.7,12.738,10.536,21.243,12.019
		c0.782,0.137,1.965,0.505,2.301,0.146c0.69-0.735-0.178-1.672-0.53-2.43c-2.5-5.367-5.292-10.609-7.568-16.067
		c-3.261-7.814-1.416-11.631,6.624-14.291c3.589-1.188,7.283-2.058,10.938-3.041c1.336-0.358,2.145-0.851,1.791-2.54
		c-0.52-2.494-0.858-5.038-1.077-7.578c-0.131-1.511-0.784-1.851-2.182-1.919c-4.473-0.218-8.844-0.983-12.84-3.168
		c-2.687-1.469-4.823-3.465-5.716-6.502c-0.255-0.871-0.185-1.855-1.575-1.627c-1.118,0.184-2.262,0.032-2.492,1.706
		c-0.163,1.188-0.656,2.405-1.277,3.444c-4.225,7.063-10.847,9.727-18.66,9.224c-7.512-0.484-13.646-3.666-16.736-11.089
		c-0.406-0.977-0.646-1.706-2.014-1.532c-4.166,0.531-8.337,0.936-12.415,2.066c-1.764,0.488-2.088,1.207-1.658,2.948
		c2.311,9.349,4.49,18.73,6.718,28.1c3.6,15.137,7.239,30.264,10.756,45.419c0.41,1.768,0.907,1.758,2.173,0.894
		c1.7-1.159,3.591-2.07,5.171-3.367c6.474-5.313,13.622-5.994,21.401-3.608C179.512,244.481,182.886,245.346,186.02,245.283z
		 M165.167,156.567c-5.268,0.001-9.264,1.474-12.054,4.085c-4.785,4.479-4.568,10.867,0.511,15.027
		c5.504,4.508,14.796,4.72,20.542,0.47c5.96-4.408,6.038-11.779,0.166-16.298C171.346,157.554,167.91,156.62,165.167,156.567z
		 M175.53,76.067c0.006-3.029-1.236-4.98-3.527-5.842c-1.862-0.702-3.547-0.412-4.993,1.034c-4.559,4.555-5.965,14.411-2.697,19.973
		c1.667,2.837,3.616,5.507,5.425,8.262c2.635,4.017,3.737,8.205,1.574,12.838c-0.83,1.778-0.489,3.463,1.2,4.572
		c1.768,1.161,3.719,1.154,5.243-0.34c5.389-5.283,7.811-11.152,2.71-18.202c-2.753-3.804-5.402-7.672-7.418-11.95
		c-1.187-2.518-1.218-4.76,0.856-6.777C175.042,78.527,175.551,77.203,175.53,76.067z M131.782,70.409
		c-5.064,0.308-9.299,2.218-11.926,6.736c-2.576,4.429-1.153,8.596,1.351,12.536c0.97,1.526,2.127,2.932,3.193,4.397
		c1.26,1.73,2.564,3.432,3.759,5.207c2.146,3.188,2.73,6.582,1.542,10.345c-1.134,3.591,0.435,5.303,4.2,4.882
		c1.915-0.214,3.427-1.066,4.415-2.779c1.533-2.662,2.186-5.475,1.642-8.542c-0.939-5.289-3.799-9.589-6.99-13.727
		c-1.813-2.351-3.635-4.694-4.505-7.607c-0.565-1.891-0.223-3.139,1.998-3.593c2.258-0.461,4.473-1.193,6.364-2.59
		c2.063-1.524,1.868-3.175-0.476-4.274C134.911,70.726,133.396,70.366,131.782,70.409z M111.015,84.542
		c0,0.022,0.008-0.39-0.001-0.802c-0.063-3.001-1.095-4.681-3.059-4.99c-2.255-0.354-4.239,1.014-5.202,3.639
		c-0.254,0.692-0.463,1.42-0.558,2.15c-0.444,3.431-0.894,6.864-1.238,10.306c-0.323,3.228,0.687,5.97,3.118,8.224
		c3.264,3.025,6.508,6.079,9.618,9.261c2.321,2.375,2.365,4.324,0.664,7.136c-0.637,1.053-1.317,2.118-1.712,3.27
		c-0.58,1.693,0.125,2.655,1.986,2.798c6.13,0.47,11.11-5.208,9.849-11.233c-0.598-2.858-2.17-5.143-4.137-7.182
		c-1.831-1.898-3.747-3.715-5.641-5.552c-3.015-2.926-4.535-6.412-4.127-10.669C110.764,88.929,110.852,86.951,111.015,84.542z
		 M152.563,117.291c2.237-0.043,4.193-0.835,5.808-2.36c3.325-3.141,3.73-6.969,2.447-11.128c-0.977-3.166-2.651-6.02-4.202-8.915
		c-2.347-4.381-2.643-8.691-0.224-13.173c1.166-2.161,2.146-4.458,2.367-6.972c0.22-2.503-1.134-3.917-3.635-3.8
		c-1.449,0.068-2.899,0.44-3.757,1.601c-3.241,4.382-6.158,8.953-6.804,14.554c-0.203,1.761,0.218,3.412,1.052,4.992
		c2.073,3.927,4.189,7.835,6.1,11.84c1.561,3.271,0.696,5.358-2.548,7.008c-2.452,1.248-2.664,3.292-0.508,5.012
		C149.796,116.857,151.132,117.218,152.563,117.291z M207.315,161.103c-4.517,0.187-8.86,0.607-12.815,2.748
		c-4.875,2.639-5.194,6.894-0.302,9.322c8.702,4.319,17.698,4.359,26.323-0.317c4.437-2.406,4.27-5.77-0.049-8.486
		C216.42,161.82,211.836,161.314,207.315,161.103z M129.239,124.599c-1.336,1.181-1.912,2.408-2.043,3.995
		c-0.276,3.332-1.516,6.146-4.57,7.997c-1.892,1.146-3.624,2.566-5.381,3.922c-0.52,0.401-1.417,0.659-1.106,1.689
		c1.748,0.268,3.44-0.033,5.141-0.368c3.573-0.704,3.682-0.63,2.967,2.991c-0.447,2.263-1.119,4.481-1.691,6.726
		c0.89,0.166,1.235-0.335,1.593-0.779c1.5-1.855,2.971-3.734,4.486-5.577c1.361-1.654,2.795-2.058,4.621-0.495
		c1.934,1.656,4.033,3.12,6.086,4.632c1.138,0.838,2.284,1.71,3.942,1.993c-0.182-1.262-0.765-1.969-1.322-2.647
		c-1.776-2.16-3.604-4.278-5.408-6.416c-2.125-2.517-1.864-3.417,1.16-4.586c1.786-0.69,3.8-0.875,5.315-2.473
		c-2.716-0.268-5.417-0.376-8.104-0.236c-2.355,0.123-3.466-0.997-3.945-3.133C130.448,129.458,129.844,127.098,129.239,124.599z
		 M128.433,206.206c-1.375-5.822-2.754-11.217-3.885-16.662c-0.46-2.216-1.111-1.86-2.369-0.681
		c-3.246,3.048-3.896,6.846-2.854,10.898C120.44,204.105,124.237,205.13,128.433,206.206z M125.33,128.833
		c-1.153,0.587-2.137,1.148-3.169,1.601c-3.129,1.372-3.137,1.355-1.583,4.62C124.096,133.079,125.071,131.865,125.33,128.833z
		 M121.796,178.973c-2.553,2.578-3.113,3.957-2.696,6.53C123.028,182.508,123.028,182.508,121.796,178.973z"/>
	<path fill-rule="evenodd" clip-rule="evenodd" fill="#FDFEFF" d="M186.02,245.283c-3.134,0.063-6.508-0.802-9.805-1.813
		c-7.779-2.386-14.928-1.704-21.401,3.608c-1.58,1.297-3.472,2.208-5.171,3.367c-1.266,0.864-1.763,0.874-2.173-0.894
		c-3.517-15.155-7.156-30.282-10.756-45.419c-2.229-9.369-4.407-18.751-6.718-28.1c-0.431-1.741-0.106-2.46,1.658-2.948
		c4.077-1.131,8.249-1.535,12.415-2.066c1.368-0.174,1.607,0.556,2.014,1.532c3.089,7.423,9.224,10.604,16.736,11.089
		c7.813,0.503,14.435-2.161,18.66-9.224c0.621-1.039,1.114-2.256,1.277-3.444c0.23-1.674,1.374-1.522,2.492-1.706
		c1.391-0.229,1.32,0.756,1.575,1.627c0.893,3.037,3.029,5.033,5.716,6.502c3.996,2.185,8.367,2.95,12.84,3.168
		c1.397,0.068,2.051,0.408,2.182,1.919c0.219,2.54,0.558,5.084,1.077,7.578c0.354,1.689-0.455,2.182-1.791,2.54
		c-3.655,0.983-7.35,1.853-10.938,3.041c-8.04,2.66-9.885,6.477-6.624,14.291c2.276,5.458,5.068,10.7,7.568,16.067
		c0.353,0.758,1.221,1.694,0.53,2.43c-0.336,0.358-1.519-0.01-2.301-0.146c-8.505-1.482-15.671-5.318-21.243-12.019
		c-2.798-3.363-5.369-6.887-7.826-10.498c-1.083-1.592-2.394-2.756-4.276-1.453c-1.873,1.297-1.295,2.928-0.151,4.505
		c1.693,2.333,3.329,4.708,4.985,7.067c7.26,10.353,17.131,16.462,29.696,17.983c2.413,0.293,2.743,1.294,2.285,3.308
		c-0.836,3.674-2.894,6.221-6.535,7.368C190.19,245.12,188.303,245.287,186.02,245.283z"/>
	<path fill-rule="evenodd" clip-rule="evenodd" fill="#FBFCFC" d="M149.943,156.386c0.948-1.46,0.488-2.762-0.356-4.1
		c-2.292-3.632-5.059-6.908-7.698-10.274c-1.025-1.308-0.851-1.874,0.59-2.444c1.757-0.695,3.451-1.551,5.213-2.231
		c1.261-0.486,2.197-1.073,2.061-2.633c-0.153-1.758-1.534-1.728-2.718-1.885c-2.857-0.38-5.735-0.604-8.582-1.044
		c-1.499-0.232-3.111-0.409-3.739-2.301c-1.074-3.238-1-3.462,2.308-4.084c11.508-2.165,22.908-2.232,34.121,1.69
		c11.495,4.02,19.561,11.853,25.12,22.485c1.029,1.968,1.933,4.001,2.972,5.962c0.669,1.262,0.719,1.84-0.999,2.242
		c-4.152,0.971-7.903,2.708-10.492,6.405c-1.134,1.618-4.714,0.939-5.428-0.874c-2.886-7.332-11.449-11.964-20.229-11.029
		c-4.384,0.467-8.254,2.097-11.725,4.762C150.223,156.817,150.083,156.602,149.943,156.386z"/>
	<path fill-rule="evenodd" clip-rule="evenodd" fill="#80BA41" d="M165.167,156.567c2.743,0.053,6.179,0.987,9.166,3.285
		c5.872,4.519,5.794,11.89-0.166,16.298c-5.746,4.25-15.038,4.038-20.542-0.47c-5.079-4.16-5.296-10.548-0.511-15.027
		C155.903,158.041,159.899,156.568,165.167,156.567z"/>
	<path fill-rule="evenodd" clip-rule="evenodd" fill="#EF8124" d="M175.53,76.067c0.021,1.136-0.488,2.46-1.627,3.568
		c-2.074,2.017-2.043,4.259-0.856,6.777c2.016,4.278,4.665,8.146,7.418,11.95c5.101,7.049,2.679,12.918-2.71,18.202
		c-1.524,1.494-3.476,1.5-5.243,0.34c-1.689-1.109-2.03-2.794-1.2-4.572c2.163-4.633,1.061-8.821-1.574-12.838
		c-1.809-2.755-3.758-5.425-5.425-8.262c-3.268-5.563-1.861-15.418,2.697-19.973c1.446-1.445,3.131-1.735,4.993-1.034
		C174.294,71.087,175.536,73.039,175.53,76.067z"/>
	<path fill-rule="evenodd" clip-rule="evenodd" fill="#EF8124" d="M131.782,70.409c1.614-0.043,3.129,0.316,4.564,0.99
		c2.344,1.1,2.539,2.75,0.476,4.274c-1.892,1.397-4.106,2.129-6.364,2.59c-2.22,0.454-2.563,1.702-1.998,3.593
		c0.87,2.913,2.692,5.256,4.505,7.607c3.191,4.138,6.051,8.438,6.99,13.727c0.544,3.067-0.108,5.88-1.642,8.542
		c-0.987,1.713-2.5,2.565-4.415,2.779c-3.765,0.421-5.334-1.291-4.2-4.882c1.188-3.763,0.604-7.157-1.542-10.345
		c-1.195-1.775-2.499-3.476-3.759-5.207c-1.066-1.465-2.223-2.872-3.193-4.397c-2.504-3.939-3.926-8.106-1.351-12.536
		C122.483,72.627,126.717,70.717,131.782,70.409z"/>
	<path fill-rule="evenodd" clip-rule="evenodd" fill="#F08224" d="M111.015,84.542c-0.163,2.408-0.251,4.386-0.44,6.355
		c-0.408,4.258,1.112,7.743,4.127,10.669c1.894,1.837,3.81,3.654,5.641,5.552c1.967,2.039,3.539,4.324,4.137,7.182
		c1.261,6.025-3.719,11.703-9.849,11.233c-1.861-0.143-2.566-1.104-1.986-2.798c0.395-1.151,1.075-2.217,1.712-3.27
		c1.702-2.812,1.658-4.76-0.664-7.136c-3.109-3.182-6.354-6.236-9.618-9.261c-2.432-2.254-3.441-4.997-3.118-8.224
		c0.344-3.442,0.794-6.875,1.238-10.306c0.094-0.729,0.303-1.458,0.558-2.15c0.962-2.625,2.947-3.994,5.202-3.639
		c1.964,0.309,2.995,1.989,3.059,4.99C111.023,84.152,111.015,84.564,111.015,84.542z"/>
	<path fill-rule="evenodd" clip-rule="evenodd" fill="#EF8124" d="M152.562,117.292c-1.43-0.074-2.765-0.435-3.902-1.342
		c-2.156-1.72-1.944-3.764,0.508-5.012c3.244-1.65,4.109-3.737,2.548-7.008c-1.911-4.005-4.027-7.914-6.1-11.84
		c-0.834-1.58-1.255-3.23-1.052-4.992c0.646-5.601,3.563-10.172,6.804-14.554c0.858-1.161,2.308-1.533,3.757-1.601
		c2.501-0.118,3.855,1.297,3.635,3.8c-0.221,2.514-1.201,4.811-2.367,6.972c-2.419,4.482-2.124,8.792,0.224,13.173
		c1.551,2.895,3.225,5.749,4.202,8.915c1.284,4.159,0.878,7.987-2.447,11.128C156.756,116.456,154.801,117.247,152.562,117.292z"/>
	<path fill-rule="evenodd" clip-rule="evenodd" fill="#7FB942" d="M207.315,161.103c4.521,0.211,9.104,0.717,13.157,3.266
		c4.318,2.717,4.485,6.08,0.049,8.486c-8.625,4.677-17.621,4.637-26.323,0.317c-4.893-2.429-4.573-6.684,0.302-9.322
		C198.455,161.71,202.799,161.29,207.315,161.103z"/>
	<path fill-rule="evenodd" clip-rule="evenodd" fill="#FBFCFC" d="M150.363,157.032c-2.315,2.397-4.31,4.981-4.842,8.404
		c-0.117,0.755-0.489,1.113-1.306,1.158c-5.029,0.277-10.001,0.945-14.794,2.563c-1.049,0.354-1.058-0.251-1.214-0.918
		c-0.807-3.442-1.675-6.872-2.43-10.326c-0.33-1.509,5.483-9.109,7.014-9.258c0.951-0.092,1.75,0.445,2.506,0.92
		c3.135,1.97,6.216,4.025,9.37,5.963c1.605,0.986,3.288,2.01,5.276,0.847C150.083,156.602,150.223,156.817,150.363,157.032z"/>
	<path fill-rule="evenodd" clip-rule="evenodd" fill="#F4CA14" d="M129.239,124.599c0.604,2.499,1.208,4.859,1.74,7.235
		c0.479,2.136,1.59,3.256,3.945,3.133c2.688-0.141,5.389-0.032,8.104,0.236c-1.516,1.598-3.529,1.782-5.315,2.473
		c-3.024,1.169-3.285,2.069-1.16,4.586c1.804,2.138,3.632,4.256,5.408,6.416c0.557,0.678,1.14,1.385,1.322,2.647
		c-1.659-0.283-2.804-1.155-3.942-1.993c-2.053-1.512-4.153-2.977-6.086-4.632c-1.826-1.563-3.26-1.16-4.621,0.495
		c-1.515,1.843-2.986,3.722-4.486,5.577c-0.358,0.443-0.703,0.944-1.593,0.779c0.573-2.245,1.245-4.463,1.691-6.726
		c0.715-3.621,0.606-3.694-2.967-2.991c-1.701,0.335-3.393,0.636-5.141,0.368c-0.311-1.03,0.586-1.288,1.106-1.689
		c1.758-1.356,3.489-2.775,5.381-3.922c3.054-1.85,4.293-4.665,4.57-7.997C127.327,127.007,127.903,125.78,129.239,124.599z"/>
	<path fill-rule="evenodd" clip-rule="evenodd" fill="#F4F4F4" d="M128.433,206.206c-4.196-1.076-7.993-2.101-9.108-6.444
		c-1.042-4.053-0.392-7.851,2.854-10.898c1.258-1.18,1.909-1.535,2.369,0.681C125.679,194.989,127.058,200.384,128.433,206.206z"/>
	<path fill-rule="evenodd" clip-rule="evenodd" fill="#ECECEC" d="M125.33,128.833c-0.258,3.032-1.234,4.247-4.752,6.221
		c-1.553-3.265-1.546-3.249,1.583-4.62C123.192,129.981,124.176,129.419,125.33,128.833z"/>
	<path fill-rule="evenodd" clip-rule="evenodd" fill="#EAEAEA" d="M121.796,178.973c1.232,3.535,1.232,3.535-2.696,6.53
		C118.683,182.93,119.243,181.551,121.796,178.973z"/>
</g>
<circle fill-rule="evenodd" clip-rule="evenodd" fill="none" stroke="#64A744" stroke-width="12" stroke-miterlimit="10" cx="162" cy="162" r="142.2"/>
</svg>
