<?xml version="1.0" encoding="utf-8"?>
<!-- Generator: Adobe Illustrator 16.0.0, SVG Export Plug-In . SVG Version: 6.00 Build 0)  -->
<!DOCTYPE svg PUBLIC "-//W3C//DTD SVG 1.1//EN" "http://www.w3.org/Graphics/SVG/1.1/DTD/svg11.dtd">
<svg version="1.1" id="circle" xmlns="http://www.w3.org/2000/svg" xmlns:xlink="http://www.w3.org/1999/xlink" x="0px" y="0px"
	 width="324px" height="324px" viewBox="0 0 324 324" style="enable-background:new 0 0 324 324;" xml:space="preserve">
<style type="text/css">
<![CDATA[
	.st0{fill-rule:evenodd;clip-rule:evenodd;fill:#066735;}
	.st1{fill-rule:evenodd;clip-rule:evenodd;fill:#83B841;}
	.st2{fill:none;stroke:#066735;stroke-width:12;stroke-miterlimit:10;}
]]>
</style>
<circle class="st2" cx="162" cy="162" r="142.2"/>
<g>
	<path class="st1" d="M105.057,89.673c5.126,8.837,10.182,17.551,15.256,26.3c-9.03,15.585-18.026,31.111-27.067,46.715
		c11.552,19.939,23.112,39.892,34.679,59.854c23.122,0,46.197,0,69.345,0c8.964-15.464,17.942-30.949,26.96-46.504
		c9.993,0,19.998,0,30.013,0c-6.376,43.114-41.772,72.716-78.59,77.486c-23.407,3.033-45.096-1.657-64.727-14.706
		c-17.833-11.853-30.266-28.128-36.735-48.583C60.751,147.743,79.829,108.354,105.057,89.673z"/>
	<path class="st0" d="M156.472,69.586c4.111,0.005,8.223,0.01,12.333,0.016c4.494,0.694,9.019,1.224,13.474,2.113
		c13.79,2.753,26.192,8.621,37.271,17.237c17.021,13.239,28.042,30.419,33.307,51.304c0.576,2.283,0.905,4.629,1.382,7.114
		c-10.461,0-20.643,0-31.143,0c-8.558-14.754-17.243-29.729-25.954-44.746c-17.231,0-34.37,0-51.569,0
		c-5.224-9.016-10.416-17.975-15.947-27.52c5.727-1.431,11.073-2.908,16.488-4.068C149.514,70.307,153.016,70.053,156.472,69.586z"
		/>
	<path class="st0" d="M129.454,162.694c-0.491-18.467,14.779-33.249,33.182-33.249c17.612-0.001,34.521,14.219,33.168,35.885
		c-0.946,15.149-14.577,31.699-35.531,30.498C144.511,194.924,128.808,181.147,129.454,162.694z"/>
</g>
</svg>
