<?xml version="1.0" encoding="utf-8"?>
<!-- Generator: Adobe Illustrator 16.0.0, SVG Export Plug-In . SVG Version: 6.00 Build 0)  -->
<!DOCTYPE svg PUBLIC "-//W3C//DTD SVG 1.1//EN" "http://www.w3.org/Graphics/SVG/1.1/DTD/svg11.dtd">
<svg version="1.1" id="Layer_1" xmlns="http://www.w3.org/2000/svg" xmlns:xlink="http://www.w3.org/1999/xlink" x="0px" y="0px"
	 width="324.167px" height="324.167px" viewBox="0 -36.167 324.167 324.167" enable-background="new 0 -36.167 324.167 324.167"
	 xml:space="preserve">
<g id="Layer_1_1_">
	<g>
		<path fill="#E34D26" d="M161.647,218.848c-1.426-0.604-2.946-0.896-4.431-1.309c-19.766-5.484-39.535-10.959-59.31-16.414
			c-0.541-0.148-0.735-0.369-0.78-0.908c-0.296-3.533-0.62-7.064-0.937-10.594c-0.421-4.691-0.844-9.383-1.262-14.074
			c-0.358-4.014-0.71-8.029-1.068-12.043c-0.42-4.717-0.846-9.432-1.266-14.148c-0.359-4.039-0.712-8.078-1.072-12.116
			c-0.416-4.667-0.839-9.334-1.254-14.002c-0.36-4.038-0.714-8.078-1.075-12.117c-0.418-4.691-0.84-9.383-1.259-14.074
			c-0.359-4.015-0.714-8.03-1.072-12.044c-0.421-4.715-0.847-9.431-1.266-14.147c-0.36-4.063-0.712-8.127-1.074-12.19
			c-0.414-4.644-0.838-9.286-1.252-13.929c-0.172-1.904-0.332-3.809-0.5-5.753c52.892,0,105.727,0,158.625,0
			c-0.115,1.378-0.227,2.725-0.346,4.071c-0.371,4.159-0.744,8.318-1.119,12.478c-0.42,4.667-0.846,9.334-1.262,14.001
			c-0.361,4.063-0.713,8.127-1.074,12.19c-0.414,4.644-0.842,9.285-1.258,13.929c-0.361,4.063-0.711,8.126-1.072,12.19
			c-0.416,4.643-0.842,9.285-1.258,13.928c-0.357,4.014-0.711,8.029-1.066,12.044c-0.42,4.69-0.844,9.383-1.264,14.074
			c-0.357,4.014-0.711,8.031-1.068,12.045c-0.422,4.715-0.85,9.432-1.27,14.146c-0.359,4.039-0.709,8.078-1.07,12.117
			c-0.416,4.666-0.855,9.334-1.24,14.002c-0.051,0.617-0.303,0.791-0.832,0.936c-8.324,2.283-16.643,4.59-24.963,6.887
			c-12.762,3.521-25.527,7.035-38.287,10.566c-0.238,0.066-0.54,0.008-0.716,0.258C162.037,218.848,161.842,218.848,161.647,218.848
			z M162.08,163.736c-0.045,0.037-0.09,0.074-0.135,0.109c-7.211-1.938-14.42-3.877-21.633-5.805
			c-0.389-0.104-0.472-0.35-0.502-0.688c-0.251-2.926-0.505-5.852-0.764-8.777c-0.19-2.168-0.39-4.336-0.584-6.498
			c-6.684,0-13.297,0-19.922,0c0.438,4.99,0.865,9.921,1.305,14.853c0.464,5.197,0.949,10.395,1.396,15.592
			c0.045,0.516,0.187,0.734,0.706,0.879c13.385,3.725,26.763,7.471,40.142,11.213c0,6.83,0,13.658,0,20.525
			c1.762-0.49,3.361-0.938,4.965-1.387c4.4-1.225,8.801-2.453,13.203-3.676c4.332-1.201,8.666-2.396,13-3.596
			c4.332-1.201,8.664-2.404,12.996-3.605c2.539-0.705,5.076-1.41,7.619-2.102c0.443-0.119,0.711-0.299,0.738-0.818
			c0.057-1.061,0.176-2.113,0.271-3.17c0.186-1.994,0.379-3.984,0.557-5.979c0.117-1.299,0.199-2.6,0.314-3.898
			c0.182-2.041,0.377-4.082,0.563-6.123c0.109-1.227,0.203-2.453,0.316-3.68c0.182-1.943,0.379-3.887,0.557-5.83
			c0.117-1.299,0.199-2.602,0.313-3.898c0.182-2.041,0.381-4.082,0.563-6.123c0.113-1.275,0.203-2.551,0.318-3.826
			c0.18-1.969,0.377-3.935,0.557-5.904c0.115-1.273,0.199-2.551,0.313-3.824c0.182-2.018,0.379-4.034,0.563-6.051
			c0.111-1.25,0.201-2.502,0.316-3.752c0.18-1.896,0.385-3.791,0.557-5.687c0.121-1.347,0.168-2.701,0.318-4.043
			c0.234-2.062,0.385-4.13,0.566-6.196c0.109-1.25,0.227-2.499,0.318-3.752c0.137-1.875,0.373-3.742,0.545-5.614
			c0.121-1.322,0.197-2.648,0.313-3.971c0.182-2.09,0.379-4.179,0.564-6.269c0.107-1.226,0.199-2.454,0.314-3.679
			c0.18-1.92,0.383-3.838,0.557-5.759c0.121-1.322,0.17-2.651,0.318-3.97c0.238-2.062,0.396-4.129,0.563-6.196
			c0.096-1.203,0.197-2.406,0.313-3.607c0.182-1.92,0.383-3.838,0.557-5.759c0.121-1.322,0.193-2.648,0.313-3.97
			c0.217-2.372,0.451-4.742,0.678-7.098c-0.313-0.188-0.611-0.113-0.895-0.113c-9.793-0.004-19.584-0.004-29.375-0.004
			c-11.248,0-22.498,0.004-33.748-0.012c-0.604-0.001-0.843,0.105-0.84,0.786c0.029,6.341,0.02,12.683,0.021,19.024
			c-0.314,0.009-0.631,0.027-0.945,0.027c-15.956,0.001-31.912,0.001-47.868,0.005c-0.308,0-0.63-0.082-0.985,0.116
			c1.781,19.958,3.564,39.933,5.351,59.943c0.376,0,0.665,0,0.954,0c14.183,0,28.366,0,42.55,0c0.314,0,0.63,0.02,0.945,0.027
			C162.088,142.669,162.084,153.205,162.08,163.736z"/>
		<path fill="#F06529" d="M162.09,72.016c-0.002-6.341,0.009-12.683-0.021-19.024c-0.003-0.681,0.235-0.787,0.841-0.786
			c11.248,0.016,22.498,0.012,33.746,0.012c9.793,0,19.584,0,29.375,0.004c0.283,0,0.582-0.075,0.895,0.113
			c-0.225,2.356-0.461,4.726-0.676,7.098c-0.121,1.322-0.193,2.648-0.313,3.97c-0.174,1.921-0.377,3.839-0.559,5.759
			c-0.113,1.201-0.217,2.404-0.313,3.607c-0.166,2.066-0.322,4.134-0.561,6.196c-0.15,1.318-0.199,2.648-0.318,3.97
			c-0.174,1.92-0.377,3.839-0.559,5.759c-0.113,1.226-0.205,2.454-0.314,3.679c-0.186,2.09-0.383,4.178-0.564,6.269
			c-0.113,1.323-0.189,2.648-0.313,3.971c-0.172,1.872-0.406,3.739-0.543,5.614c-0.094,1.253-0.211,2.501-0.32,3.752
			c-0.182,2.066-0.33,4.134-0.564,6.196c-0.15,1.342-0.197,2.696-0.32,4.043c-0.172,1.896-0.377,3.79-0.555,5.686
			c-0.117,1.25-0.205,2.503-0.318,3.753c-0.182,2.017-0.381,4.032-0.563,6.051c-0.113,1.274-0.197,2.551-0.313,3.825
			c-0.178,1.969-0.377,3.935-0.557,5.904c-0.113,1.273-0.203,2.551-0.316,3.824c-0.184,2.041-0.383,4.082-0.563,6.125
			c-0.115,1.297-0.195,2.598-0.314,3.898c-0.176,1.943-0.373,3.887-0.557,5.83c-0.111,1.227-0.205,2.453-0.316,3.68
			c-0.184,2.041-0.381,4.08-0.563,6.123c-0.113,1.297-0.197,2.6-0.313,3.896c-0.178,1.994-0.371,3.986-0.559,5.979
			c-0.096,1.057-0.215,2.111-0.271,3.172c-0.027,0.52-0.295,0.697-0.736,0.816c-2.543,0.691-5.082,1.396-7.619,2.104
			c-4.334,1.201-8.666,2.404-12.998,3.604s-8.666,2.396-13,3.598c-4.4,1.223-8.803,2.451-13.201,3.676
			c-1.604,0.447-3.205,0.895-4.965,1.387c0-6.867,0-13.695,0-20.525l-0.014-0.055c0.352-0.092,0.703-0.18,1.053-0.277
			c13.004-3.635,26.008-7.273,39.018-10.896c0.449-0.125,0.607-0.303,0.641-0.771c0.123-1.744,0.297-3.482,0.453-5.223
			c0.418-4.641,0.846-9.283,1.26-13.924c0.363-4.061,0.713-8.125,1.074-12.186c0.422-4.713,0.846-9.427,1.271-14.142
			c0.32-3.553,0.646-7.105,0.969-10.66c0.123-1.372,0.234-2.745,0.352-4.106c-0.328-0.161-0.625-0.092-0.908-0.092
			c-14.793-0.003-29.586-0.003-44.379-0.002c-0.268,0-0.532,0.015-0.801,0.022l0.014-0.052c0-6.736,0-13.471,0-20.208l-0.014-0.052
			c0.17,0.008,0.34,0.022,0.51,0.022c15.572,0.001,31.146,0.001,46.721-0.001c0.213,0,0.436,0.056,0.688-0.102
			c0.588-6.58,1.178-13.189,1.775-19.868c-0.334,0-0.596,0-0.859,0c-16.035,0-32.07,0-48.105,0c-0.241,0-0.484,0.016-0.727,0.023
			L162.09,72.016z"/>
		<path fill="#EAEAEA" d="M162.092,132.134c-0.315-0.009-0.631-0.026-0.945-0.026c-14.184-0.002-28.367-0.002-42.55-0.002
			c-0.289,0-0.578,0-0.954,0c-1.786-20.009-3.569-39.984-5.351-59.942c0.355-0.198,0.678-0.116,0.985-0.116
			c15.956-0.004,31.912-0.004,47.868-0.005c0.314,0,0.631-0.018,0.945-0.027l-0.012,0.052c0,6.642,0,13.284,0,19.925l0.012,0.052
			c-0.096-0.009-0.192-0.026-0.289-0.026c-9.11-0.001-18.222-0.002-27.334,0.001c-0.157,0-0.343-0.059-0.466,0.14
			c0.598,6.681,1.197,13.375,1.803,20.122c0.347,0,0.635,0,0.924,0c7.531,0,15.063,0.001,22.597-0.001
			c0.922,0,1.844-0.018,2.768-0.027l-0.014,0.052c0,6.593,0,13.187,0,19.779L162.092,132.134z"/>
		<path fill="#EAEAEA" d="M162.09,184.615c-13.379-3.742-26.757-7.488-40.143-11.213c-0.52-0.145-0.661-0.363-0.706-0.879
			c-0.446-5.199-0.932-10.395-1.396-15.592c-0.439-4.932-0.866-9.863-1.305-14.853c6.625,0,13.238,0,19.922,0
			c0.194,2.16,0.394,4.33,0.584,6.498c0.259,2.926,0.513,5.852,0.764,8.777c0.03,0.338,0.113,0.584,0.502,0.688
			c7.213,1.928,14.422,3.869,21.633,5.805c0.047,0.02,0.096,0.035,0.145,0.053c-0.006,6.889-0.008,13.775-0.012,20.662
			L162.09,184.615z"/>
		<path fill="#F06529" d="M162.08,163.736c0.004-10.533,0.008-21.067,0.012-31.602l-0.014-0.052
			c0.291,0.008,0.582,0.023,0.873,0.023c7.525,0.002,15.053,0,22.578,0c0.285,0,0.568,0,0.912,0
			c-0.018,0.383-0.018,0.691-0.045,0.998c-0.172,1.86-0.357,3.72-0.523,5.58c-0.551,6.234-1.102,12.468-1.637,18.703
			c-0.035,0.42-0.207,0.582-0.59,0.676c-1.014,0.25-2.016,0.537-3.02,0.807c-6.154,1.652-12.309,3.307-18.463,4.959
			C162.137,163.799,162.108,163.768,162.08,163.736z"/>
		<path fill="#F06529" d="M162.09,163.898c-0.049-0.018-0.098-0.035-0.145-0.053c0.045-0.035,0.09-0.072,0.135-0.109
			c0.028,0.031,0.057,0.063,0.084,0.092C162.142,163.854,162.115,163.877,162.09,163.898z"/>
		<path fill="#FEFEFE" d="M162.09,163.898c0.025-0.021,0.052-0.045,0.074-0.07c6.154-1.652,12.311-3.307,18.463-4.959
			c1.006-0.271,2.008-0.559,3.021-0.807c0.383-0.094,0.553-0.256,0.588-0.676c0.535-6.236,1.086-12.469,1.639-18.705
			c0.166-1.859,0.352-3.719,0.521-5.578c0.027-0.308,0.029-0.617,0.047-0.998c-0.344,0-0.629,0-0.914,0
			c-7.525,0-15.051,0-22.578-0.002c-0.289,0-0.58-0.015-0.871-0.022c0-6.592,0-13.186,0-19.779c0.268-0.008,0.533-0.022,0.799-0.022
			c14.793-0.001,29.586-0.001,44.379,0.002c0.285,0,0.58-0.068,0.908,0.092c-0.115,1.361-0.229,2.735-0.352,4.106
			c-0.32,3.554-0.646,7.107-0.967,10.661c-0.428,4.713-0.852,9.428-1.271,14.141c-0.361,4.062-0.711,8.125-1.076,12.185
			c-0.414,4.641-0.84,9.283-1.26,13.924c-0.156,1.74-0.33,3.48-0.451,5.225c-0.033,0.467-0.191,0.646-0.643,0.771
			c-13.008,3.621-26.014,7.26-39.018,10.896c-0.35,0.098-0.7,0.184-1.051,0.275C162.082,177.674,162.084,170.787,162.09,163.898z"/>
		<path fill="#FEFEFE" d="M162.078,91.993c0-6.642,0-13.283,0-19.925c0.242-0.007,0.485-0.023,0.729-0.023
			c16.033,0,32.068,0,48.105,0c0.264,0,0.525,0,0.857,0c-0.598,6.679-1.188,13.289-1.775,19.868
			c-0.25,0.158-0.475,0.102-0.686,0.102c-15.574,0.002-31.148,0.002-46.723,0.001C162.418,92.015,162.248,92,162.078,91.993z"/>
		<path fill="#E34D26" d="M162.092,112.251c-0.924,0.009-1.846,0.027-2.768,0.027c-7.533,0.002-15.065,0.001-22.597,0.001
			c-0.289,0-0.577,0-0.924,0c-0.605-6.747-1.205-13.44-1.803-20.122c0.123-0.198,0.309-0.14,0.466-0.14
			c9.112-0.003,18.224-0.002,27.334-0.001c0.097,0,0.193,0.018,0.289,0.026C162.092,98.781,162.092,105.516,162.092,112.251z"/>
	</g>
</g>
<g id="circle">
	<circle fill="none" stroke="#E34D26" stroke-width="12" stroke-miterlimit="10" cx="162.084" cy="125.917" r="142.2"/>
</g>
</svg>
