<?xml version="1.0" encoding="utf-8"?>
<!-- Generator: Adobe Illustrator 16.0.0, SVG Export Plug-In . SVG Version: 6.00 Build 0)  -->
<!DOCTYPE svg PUBLIC "-//W3C//DTD SVG 1.1//EN" "http://www.w3.org/Graphics/SVG/1.1/DTD/svg11.dtd">
<svg version="1.1" id="Layer_1" xmlns="http://www.w3.org/2000/svg" xmlns:xlink="http://www.w3.org/1999/xlink" x="0px" y="0px"
	 width="324px" height="324px" viewBox="0 -36 324 324" enable-background="new 0 -36 324 324" xml:space="preserve">
<g id="Layer_1_1_">
	<g>
		<path fill="#D5BA33" d="M80.767,40.816c1.712,19.446,3.415,38.893,5.136,58.337c1.827,20.633,3.669,41.262,5.505,61.894
			c1.152,12.963,2.338,25.922,3.432,38.891c0.154,1.828,0.763,2.687,2.648,3.212c20.793,5.779,41.555,11.67,62.315,17.559
			c1.258,0.357,2.405,0.426,3.702,0.061c21.072-5.953,42.154-11.873,63.252-17.738c1.584-0.441,2.098-1.226,2.234-2.792
			c3.037-34.785,6.11-69.565,9.201-104.345c1.635-18.408,3.314-36.812,4.965-55.218H80.8C80.79,40.722,80.78,40.769,80.767,40.816z
			 M161.902,53.991c0-3.326,0.011-3.335,3.269-3.336c20.076-0.003,40.154-0.003,60.229,0c3.138,0,3.39,0.259,3.099,3.44
			c-1.385,15.138-2.824,30.271-4.174,45.413c-1.195,13.407-2.259,26.827-3.447,40.234c-1.19,13.407-2.469,26.805-3.703,40.209
			c-0.342,3.705-0.725,7.408-0.959,11.121c-0.094,1.482-0.575,2.244-2.086,2.656c-16.686,4.547-33.354,9.147-50.016,13.774
			c-1.598,0.443-2.264,0.004-2.212-1.629c0.022-0.713-0.001-1.428-0.001-2.141c-0.001-24.841-0.001-49.679-0.001-74.517
			C161.9,104.143,161.9,79.065,161.902,53.991z M107.835,148.758c0.899-0.244,1.707,0.154,2.533,0.385
			c8.898,2.465,17.795,4.939,26.693,7.402c0.825,0.229,1.631,0.643,2.532,0.363c-0.021-25.652-0.039-51.305-0.058-76.957
			c0-2.059-0.021-4.118,0.021-6.176c0.015-0.724-0.284-1.678,0.899-1.873c4.713-0.207,9.426-0.258,14.138,0.028
			c0.444-0.004,0.606,0.26,0.626,0.661c0.041,0.869,0.115,1.738,0.117,2.607c0.006,34.183,0.006,68.366,0.004,102.547
			c0,3.055-0.002,3.047-2.905,2.236c-13.976-3.895-27.953-7.781-41.927-11.686c-0.907-0.254-1.778-0.635-2.666-0.957
			c-0.723-0.432-0.743-1.143-0.743-1.863c0-4.947,0.002-9.893,0-14.84C107.101,149.912,107.161,149.215,107.835,148.758z"/>
		<path fill="#D5BA33" d="M80.889,40.197c-0.019,0.158-0.05,0.317-0.089,0.477h162.357c0.016-0.159,0.028-0.317,0.043-0.477H80.889z
			"/>
		<path fill="#FED93E" d="M161.9,129.217c0-25.075,0-50.151,0.002-75.227c0-3.326,0.011-3.335,3.269-3.336
			c20.076-0.003,40.154-0.003,60.229,0c3.138,0,3.39,0.259,3.099,3.44c-1.385,15.138-2.824,30.271-4.174,45.413
			c-1.195,13.407-2.259,26.827-3.447,40.234c-1.19,13.407-2.469,26.805-3.703,40.209c-0.342,3.705-0.725,7.408-0.959,11.121
			c-0.094,1.482-0.575,2.244-2.086,2.656c-16.686,4.547-33.354,9.147-50.016,13.774c-1.598,0.443-2.264,0.004-2.212-1.629
			c0.022-0.713-0.001-1.428-0.001-2.141C161.9,178.893,161.9,154.055,161.9,129.217z M168.505,107.016
			c0,11.109,0.035,22.221-0.033,33.331c-0.012,1.852,0.439,2.266,2.308,1.913c9.354-1.762,18.745-3.333,28.103-5.086
			c1.718-0.321,2.076,0.14,1.967,1.731c-0.277,4.037-0.525,8.08-0.618,12.123c-0.039,1.762-0.767,2.426-2.407,2.848
			c-9.144,2.346-18.25,4.834-27.388,7.207c-1.347,0.352-1.993,0.834-1.964,2.373c0.097,5.076,0.084,10.158,0.008,15.234
			c-0.025,1.627,0.371,2.012,2.018,1.572c13.414-3.576,26.846-7.082,40.285-10.564c1.332-0.346,1.934-0.893,2.045-2.375
			c1.192-15.982,2.465-31.958,3.719-47.936c0.26-3.293,0.262-3.309-3.094-2.896c-8.82,1.087-17.645,2.134-26.449,3.321
			c-2.082,0.281-2.767-0.145-2.729-2.373c0.13-7.935,0.121-15.873,0.002-23.806c-0.031-2.09,0.542-2.703,2.653-2.679
			c9.84,0.107,19.681,0.014,29.521,0.079c1.748,0.012,2.526-0.387,2.639-2.323c0.283-4.908,0.748-9.81,1.285-14.698
			c0.203-1.838-0.369-2.307-2.16-2.3c-15.793,0.06-31.586,0.068-47.377-0.008c-1.946-0.009-2.375,0.656-2.363,2.46
			C168.54,85.111,168.505,96.063,168.505,107.016z"/>
		<path fill="#EAEAE9" d="M107.835,148.758c0.899-0.244,1.707,0.154,2.533,0.385c8.898,2.465,17.795,4.939,26.693,7.402
			c0.825,0.229,1.631,0.643,2.532,0.363c1.28-0.826,0.821-2.139,0.821-3.26c0.031-27.248,0.033-54.496,0.041-81.746
			c4.713-0.207,9.426-0.258,14.138,0.028c0.211,0.22,0.417,0.44,0.626,0.66c0.041,0.869,0.115,1.738,0.117,2.607
			c0.006,34.183,0.006,68.366,0.004,102.549c0,3.053-0.002,3.045-2.905,2.234c-13.976-3.895-27.953-7.779-41.927-11.686
			c-0.907-0.252-1.778-0.635-2.666-0.957C107.841,161.146,107.839,154.951,107.835,148.758z"/>
		<path fill="#EBEDF5" d="M140.458,71.903c-0.008,27.25-0.01,54.498-0.041,81.747c0,1.121,0.459,2.432-0.821,3.26
			c-0.021-25.653-0.039-51.306-0.058-76.958c0-2.059-0.021-4.118,0.021-6.176C139.573,73.051,139.273,72.099,140.458,71.903z"/>
		<path fill="#D3B421" d="M107.835,148.758c0.004,6.193,0.006,12.389,0.009,18.582c-0.722-0.43-0.743-1.141-0.743-1.861
			c0-4.947,0.002-9.895,0-14.842C107.101,149.912,107.161,149.215,107.835,148.758z"/>
		<path fill="#EBEDF5" d="M155.221,72.591c-0.209-0.22-0.415-0.44-0.626-0.66C155.04,71.926,155.202,72.19,155.221,72.591z"/>
		<path fill="#FEFEFC" d="M168.505,107.016c0-10.953,0.035-21.904-0.033-32.855c-0.012-1.804,0.417-2.469,2.363-2.46
			c15.791,0.076,31.584,0.068,47.377,0.008c1.791-0.007,2.363,0.461,2.16,2.3c-0.537,4.889-1.002,9.79-1.285,14.698
			c-0.111,1.937-0.891,2.335-2.639,2.323c-9.841-0.065-19.682,0.028-29.521-0.079c-2.111-0.024-2.687,0.588-2.653,2.679
			c0.119,7.934,0.128,15.872-0.002,23.806c-0.037,2.229,0.646,2.654,2.729,2.373c8.806-1.188,17.629-2.234,26.449-3.321
			c3.354-0.413,3.354-0.397,3.094,2.896c-1.254,15.979-2.525,31.955-3.719,47.935c-0.111,1.484-0.713,2.031-2.046,2.375
			c-13.438,3.484-26.87,6.99-40.284,10.564c-1.646,0.439-2.043,0.055-2.018-1.57c0.076-5.078,0.089-10.16-0.008-15.234
			c-0.029-1.539,0.617-2.023,1.964-2.373c9.138-2.373,18.244-4.861,27.388-7.207c1.643-0.422,2.368-1.086,2.407-2.85
			c0.093-4.043,0.341-8.085,0.618-12.121c0.109-1.592-0.249-2.053-1.967-1.732c-9.356,1.753-18.748,3.324-28.103,5.086
			c-1.866,0.354-2.319-0.063-2.308-1.913C168.54,129.237,168.505,118.125,168.505,107.016z"/>
	</g>
</g>
<g id="circle">
	<circle fill="none" stroke="#D5BA33" stroke-width="12" stroke-miterlimit="10" cx="162.001" cy="126" r="142.2"/>
</g>
</svg>
