<?xml version="1.0" encoding="utf-8"?>
<!-- Generator: Adobe Illustrator 16.0.0, SVG Export Plug-In . SVG Version: 6.00 Build 0)  -->
<!DOCTYPE svg PUBLIC "-//W3C//DTD SVG 1.1//EN" "http://www.w3.org/Graphics/SVG/1.1/DTD/svg11.dtd">
<svg version="1.1" xmlns="http://www.w3.org/2000/svg" xmlns:xlink="http://www.w3.org/1999/xlink" x="0px" y="0px" width="324px"
	 height="324px" viewBox="0 0 324 324" style="enable-background:new 0 0 324 324;" xml:space="preserve">
<style type="text/css">
<![CDATA[
	.st0{fill:#D81F2A;}
	.st1{fill:none;stroke:#000000;stroke-width:12;stroke-miterlimit:10;}
]]>
</style>
<g id="Layer_1">
	<path class="st0" d="M155.561,151.548c-1.732,0.031-2.903,0.217-3.511,0.394v10.816c0.721,0.167,1.61,0.225,2.838,0.233
		c4.587,0.028,7.468-2.236,7.468-6.07C162.355,153.474,159.878,151.463,155.561,151.548z"/>
	<path class="st0" d="M225.888,98.158h-46.417c-0.206,0-0.405,0.02-0.609,0.032V85.341L88.266,97.432v128.823l90.595,12.404v-13.236
		c0.204,0.014,0.403,0.031,0.609,0.031h46.417c5.432,0,9.847-4.42,9.847-9.848V108.003
		C235.734,102.575,231.319,98.158,225.888,98.158z M111.005,168.002c0,9.466-4.149,12.556-10.639,12.224
		c-1.502-0.076-3.465-0.463-4.73-1l0.717-5.809c0.891,0.365,2.038,0.643,3.324,0.688c2.773,0.1,4.525-1.244,4.525-6.333v-20.55
		l6.803-0.226V168.002L111.005,168.002z M124.749,181.423c-3.718-0.189-7.318-1.375-9.097-2.508l1.448-6.242
		c1.934,1.115,4.937,2.277,8.088,2.391c3.444,0.123,5.288-1.313,5.288-3.588c0-2.171-1.596-3.44-5.58-4.995
		c-5.387-2.043-8.824-5.175-8.824-10.066c0-5.742,4.531-10.293,12.265-10.56c3.8-0.13,6.64,0.608,8.702,1.489l-1.75,6.483
		c-1.379-0.66-3.805-1.602-7.1-1.538c-3.245,0.061-4.797,1.616-4.797,3.395c0,2.184,1.847,3.144,6.138,4.831
		c6.013,2.31,8.906,5.596,8.906,10.596C138.436,177.062,133.96,181.892,124.749,181.423z M167.57,165.658
		c-3.064,2.703-7.52,3.844-12.624,3.736c-1.118-0.02-2.121-0.096-2.896-0.225v13.099l-8.201-0.406v-35.471
		c2.517-0.511,6.111-0.955,11.265-1.127c5.337-0.182,9.22,0.693,11.863,2.632c2.561,1.851,4.299,4.989,4.299,8.732
		C171.276,160.371,169.955,163.537,167.57,165.658z M230.107,215.606c0,2.328-1.893,4.221-4.22,4.221h-46.417
		c-0.209,0-0.409-0.029-0.609-0.061V185.37c3.158,0.438,7.553,0.693,13.599,0.693c16.803,0,24.177-3.082,25.388-4.383
		c1.211-1.309-0.376-2.338-0.376-2.338s0.559,0.654-0.182,1.402c-0.748,0.742-7.565,2.607-18.488,3.168
		c-7.586,0.391-15.619-0.256-19.942-1.154v-3.139c1.458-0.4,2.864-0.646,2.864-0.646c-0.247,0.027-1.417,0.074-2.864,0.207v-15.348
		c2.424,1.197,7.447,1.892,15.05,1.626c13.287-0.477,14.851-2.978,16.237-4.182c-7.696,2.098-28.136,1.963-28.283,0.421
		c-0.137-1.54,6.301-2.802,6.301-2.802s-6.238,0.005-9.303,1.238v-56.287c0.202-0.03,0.4-0.063,0.609-0.063h46.419
		c2.325,0,4.218,1.894,4.218,4.22V215.606L230.107,215.606z"/>
	<path class="st0" d="M203.709,132.438c3.355-5.462-0.422-10.778-0.422-10.778s0.84,3.919-1.399,7.979
		c-2.238,4.06-10.509,6.444-13.724,13.44c-3.215,7.002,7.141,14.983,7.141,14.983s-3.781-7.284-3.644-12.605
		C191.766,141.653,200.337,137.895,203.709,132.438z"/>
	<path class="st0" d="M209.452,135.94c0,0-12.883,4.899-12.883,10.498c0,5.603,3.5,7.422,4.061,9.239
		c0.562,1.823-0.978,4.902-0.978,4.902s5.041-3.499,4.194-7.563c-0.84-4.061-4.76-5.32-2.519-9.379
		C202.824,140.917,209.452,135.94,209.452,135.94z"/>
	<path class="st0" d="M212.107,159.18c0,0,5.742,0,6.301,3.501c0.557,3.497-7.277,8.675-7.277,8.675s12.34-2.485,11.192-8.813
		C220.924,154.844,212.107,159.18,212.107,159.18z"/>
	<path class="st0" d="M184.661,168.416c-0.551-0.979,0.986-1.537,0.986-1.537c-7.009,1.684-3.18,4.618,5.028,5.185
		c7.037,0.477,14.899-2.106,14.899-2.106l2.424-1.955c0,0-5.547,0.77-9.897,1.258C192.271,169.914,185.224,169.398,184.661,168.416z
		"/>
	<path class="st0" d="M187.051,175.144c-0.286-0.656,0.275-1.023,0.275-1.023s-3.175,0.088-3.358,1.768
		c-0.187,1.672,0.987,2.52,8.841,2.336c9.35-0.223,10.91-1.336,11.873-2.146l2.277-1.719c-6.112,0.795-6.584,1.01-10.048,1.107
		C193.429,175.567,187.326,175.788,187.051,175.144z"/>
	<path class="st0" d="M211.313,187.183c-7.374,1.494-29.766,0.555-29.766,0.555s14.552,3.449,31.167,0.561
		c7.94-1.383,8.403-5.229,8.403-5.229S218.686,185.687,211.313,187.183z"/>
</g>
<g id="circle">
	<circle class="st1" cx="162" cy="162" r="142.2"/>
</g>
</svg>
