<?xml version="1.0" encoding="utf-8"?>
<!-- Generator: Adobe Illustrator 16.0.0, SVG Export Plug-In . SVG Version: 6.00 Build 0)  -->
<!DOCTYPE svg PUBLIC "-//W3C//DTD SVG 1.1//EN" "http://www.w3.org/Graphics/SVG/1.1/DTD/svg11.dtd">
<svg version="1.1" id="Layer_1" xmlns="http://www.w3.org/2000/svg" xmlns:xlink="http://www.w3.org/1999/xlink" x="0px" y="0px"
	 width="324px" height="324px" viewBox="0 0 324 324" enable-background="new 0 0 324 324" xml:space="preserve">
<g>
	<path fill-rule="evenodd" clip-rule="evenodd" fill="#2E83C5" d="M160.826,238.996c-6.01,0.143-10.688-2.396-15.041-5.269
		c-11.923-7.863-23.653-16.021-35.469-24.048c-8.856-6.017-17.753-11.975-26.57-18.048c-1.848-1.272-3.54-2.826-5.108-4.44
		c-3.364-3.464-3.561-8.065-0.18-11.497c4.687-4.757,10.367-8.263,16.248-11.326c3.141-1.637,6.309-0.543,9.129,1.391
		c8.495,5.823,16.986,11.651,25.479,17.479c7.053,4.84,14.056,9.754,21.171,14.5c6.788,4.528,13.94,4.701,20.658,0.204
		c13.841-9.266,27.649-18.589,41.122-28.396c2.295-1.67,4.749-3.137,7.202-4.573c3.139-1.839,6.384-1.778,9.433,0.156
		c4.198,2.665,8.431,5.311,12.4,8.293c6.256,4.698,6.479,10.668,0.19,15.38c-7.885,5.908-16.188,11.258-24.328,16.822
		c-13.953,9.54-27.864,19.143-41.912,28.539C170.819,237.127,166.022,239.568,160.826,238.996z"/>
	<path fill-rule="evenodd" clip-rule="evenodd" fill="#2E83C5" d="M160.739,162.053c-3.101-0.131-5.956-1.077-8.548-2.837
		c-14.511-9.854-29.035-19.69-43.532-29.565c-5.708-3.888-5.749-8.43-0.044-12.346c7.879-5.411,15.855-10.681,23.765-16.048
		c6.229-4.227,12.44-8.482,18.622-12.777c6.421-4.461,12.662-4.66,19.204-0.259c14.39,9.681,28.729,19.439,43.071,29.189
		c5.888,4.002,5.92,8.268,0.044,12.285c-10.37,7.089-20.788,14.107-31.184,21.159c-4.017,2.725-8.026,5.459-12.038,8.192
		C167.283,160.964,164.188,161.997,160.739,162.053z"/>
</g>
<circle fill-rule="evenodd" clip-rule="evenodd" fill="none" stroke="#3E454C" stroke-width="12" stroke-miterlimit="10" cx="162" cy="162" r="142.2"/>
</svg>
