<?xml version="1.0" encoding="utf-8"?>
<!-- Generator: Adobe Illustrator 16.0.0, SVG Export Plug-In . SVG Version: 6.00 Build 0)  -->
<!DOCTYPE svg PUBLIC "-//W3C//DTD SVG 1.1//EN" "http://www.w3.org/Graphics/SVG/1.1/DTD/svg11.dtd">
<svg version="1.1" xmlns="http://www.w3.org/2000/svg" xmlns:xlink="http://www.w3.org/1999/xlink" x="0px" y="0px" width="324px"
	 height="324px" viewBox="0 0 324 324" enable-background="new 0 0 324 324" xml:space="preserve">
<g id="Layer_1">
	<g>
		<path fill-rule="evenodd" clip-rule="evenodd" fill="#1C91E9" d="M135.628,159.648c-6.583,5.903-12.253,12.642-17.836,19.46
			c-8.892,10.859-15.87,22.841-21.257,35.794c-1.35,3.243-3.021,6.41-5.76,8.796c-4.772,4.162-14.651,3.424-17.695-4.725
			c-1.683-4.506-1.414-9.075-0.598-13.618c3.134-17.431,9.84-33.689,16.776-49.838c6.604-15.378,14.532-30.059,24.254-43.723
			c2.521-3.543,5.21-6.97,8.654-9.69c5.797-4.577,13.49-3.282,16.917,2.929c1.799,3.259,1.285,6.748,0.243,10.11
			c-1.492,4.805-4.396,8.905-6.907,13.192c-3.213,5.486-6.359,11.008-9.297,16.646c-0.908,0.931-1.533,1.988-1.569,3.533
			c1.032-0.756,1.843-1.455,2.236-2.537c7.126-8.499,14.207-17.045,22.027-24.92c4.17-4.2,8.526-8.257,13.806-11.093
			c4.156-2.232,8.471-3.74,13.188-1.657c5.251,2.317,7.563,7.481,6.163,13.735c-1.063,4.743-3.487,8.898-5.748,13.113
			c-2.68,4.996-5.456,9.939-8.186,14.909c-0.178,0.324-0.385,0.662-0.113,1.25c1.936-1.445,3.225-3.442,4.846-5.095
			c6.873-7.01,13.466-14.307,20.862-20.787c5.209-4.563,10.219-9.39,16.284-12.884c7.874-4.535,16.132-2.86,20.952,4.345
			c3.305,4.938,2.46,9.978,0.009,14.892c-2.857,5.726-7.026,10.585-10.778,15.715c-6.4,8.754-12.742,17.549-17.878,27.131
			c-1.843,3.438-3.621,6.917-4.347,10.828c-0.798,4.294,1.614,6.61,5.869,5.517c3.882-0.997,6.712-3.578,9.505-6.255
			c9.49-9.094,16.701-19.988,24.276-30.599c1.324-1.854,2.77-3.607,4.683-4.89c4.213-2.822,10.061-1.388,12.171,3.083
			c1.118,2.371,0.859,4.964,0.31,7.42c-1.724,7.701-5.715,14.374-9.99,20.846c-6.233,9.437-13.345,18.185-21.657,25.888
			c-6.89,6.385-14.408,11.872-23.396,14.97c-7.568,2.608-15.109,3.114-22.118-1.612c-5.849-3.946-8.645-9.703-8.945-16.67
			c-0.539-12.511,3.33-23.808,9.683-34.388c1.649-2.747,3.368-5.451,5.07-8.199c-1.021-0.559-1.455,0.243-1.979,0.704
			c-9.785,8.64-17.6,18.868-24.205,30.069c-3.998,6.777-7.531,13.835-12.194,20.211c-1.995,2.728-4.144,5.171-7.661,6.085
			c-6.96,1.807-14.205-3.214-14.981-10.374c-0.668-6.167,1.128-11.78,3.204-17.448c3.532-9.636,8.472-18.546,13.526-27.413
			c1.425-1.801,2.45-3.826,3.404-5.921C137.945,157.325,136.496,158.144,135.628,159.648z"/>
		<path fill-rule="evenodd" clip-rule="evenodd" fill="#D0F1F9" d="M135.628,159.648c0.868-1.504,2.317-2.323,3.822-3.163
			c-0.954,2.095-1.979,4.12-3.404,5.921c-0.104-0.528,0.091-0.917,0.401-1.368C137.06,160.146,136.713,159.636,135.628,159.648z"/>
		<path fill-rule="evenodd" clip-rule="evenodd" fill="#D0F1F9" d="M123.79,145.979c-0.394,1.082-1.204,1.781-2.236,2.537
			c0.036-1.544,0.661-2.602,1.569-3.533C123.133,145.458,123.096,145.963,123.79,145.979z"/>
	</g>
</g>
<g id="circle">
	
		<circle fill-rule="evenodd" clip-rule="evenodd" fill="none" stroke="#1C91E9" stroke-width="12" cx="162" cy="162.776" r="142.2"/>
</g>
</svg>
