<?xml version="1.0" encoding="utf-8"?>
<!-- Generator: Adobe Illustrator 16.0.0, SVG Export Plug-In . SVG Version: 6.00 Build 0)  -->
<!DOCTYPE svg PUBLIC "-//W3C//DTD SVG 1.1//EN" "http://www.w3.org/Graphics/SVG/1.1/DTD/svg11.dtd">
<svg version="1.1" xmlns="http://www.w3.org/2000/svg" xmlns:xlink="http://www.w3.org/1999/xlink" x="0px" y="0px" width="324px"
	 height="324px" viewBox="0 0 324 324" style="enable-background:new 0 0 324 324;" xml:space="preserve">
<style type="text/css">
<![CDATA[
	.st0{fill-rule:evenodd;clip-rule:evenodd;fill:#F26922;}
	.st1{fill-rule:evenodd;clip-rule:evenodd;fill:#FFFFFF;}
	.st2{fill:none;stroke:#F26922;stroke-width:12;stroke-miterlimit:10;}
	.st3{fill-rule:evenodd;clip-rule:evenodd;fill:#010101;}
]]>
</style>
<g id="circle">
	<circle class="st2" cx="162" cy="162" r="142.2"/>
</g>
<g id="maven">
	<g>
		<path class="st3" d="M94,177.017c1.518-8.828,3.014-17.538,4.512-26.246c0.195-1.134,0.313-2.271,0.184-3.422
			c-0.271-2.428-2.055-3.854-4.475-3.58c-2.518,0.286-4.293,1.708-5.645,3.741c-2.058,3.096-2.749,6.648-3.37,10.219
			c-1.052,6.046-2.098,12.093-3.11,18.145c-0.144,0.861-0.424,1.191-1.375,1.171c-3.301-0.072-6.605-0.06-9.908-0.008
			c-0.916,0.014-1.133-0.171-0.963-1.126c1.52-8.521,2.984-17.052,4.452-25.581c0.204-1.18,0.281-2.377-0.003-3.555
			c-0.524-2.175-2.174-3.281-4.402-2.998c-2.352,0.3-4.021,1.656-5.356,3.504c-2.216,3.061-2.981,6.632-3.604,10.261
			c-1.063,6.183-2.178,12.357-3.22,18.543c-0.126,0.752-0.364,0.957-1.104,0.949c-3.395-0.039-6.79-0.043-10.184,0.002
			c-0.818,0.009-0.988-0.203-0.847-1.001c2.366-13.487,4.718-26.977,7.026-40.475c0.143-0.836,0.424-1.024,1.207-1.016
			c3.348,0.039,6.698,0.054,10.046-0.006c0.943-0.018,1.073,0.303,0.903,1.104c-0.326,1.553-0.6,3.116-0.908,4.757
			c0.551-0.142,0.758-0.624,1.066-0.963c2.553-2.804,5.48-4.942,9.311-5.707c4.928-0.984,10.951,1.248,12.42,7.736
			c1.277-1.567,2.529-3.082,4.084-4.309c3.498-2.758,7.383-4.197,11.891-3.439c4.654,0.783,7.777,4.143,8.445,8.871
			c0.564,3.996-0.314,7.852-0.968,11.729c-1.21,7.18-2.505,14.347-3.704,21.527c-0.152,0.913-0.427,1.207-1.361,1.192
			C101.377,176.984,97.713,177.017,94,177.017z"/>
		<path class="st0" d="M139.487,171.573c-2.514,2.649-5.063,4.524-8.293,5.301c-2.315,0.555-4.641,0.595-6.947,0.043
			c-5.11-1.227-7.732-5.584-6.763-11.048c0.83-4.68,3.76-7.492,8.003-9.154c3.023-1.186,6.202-1.595,9.421-1.692
			c2.291-0.069,4.586-0.058,6.878-0.016c0.743,0.014,1.047-0.224,1.163-0.953c0.304-1.884-0.533-3.302-2.553-3.984
			c-2.719-0.918-5.525-0.719-8.31-0.443c-2.976,0.293-5.827,1.112-8.851,2.444c0.552-2.734,1.061-5.251,1.566-7.768
			c0.072-0.358,0.379-0.358,0.633-0.413c6.67-1.469,13.398-2.365,20.155-0.832c6.24,1.415,8.853,5.45,7.764,12.109
			c-1.115,6.819-2.579,13.581-3.866,20.373c-0.137,0.726-0.453,0.935-1.183,0.922c-2.888-0.044-5.778-0.04-8.666-0.002
			c-0.781,0.01-1.047-0.141-0.841-0.984C139.081,174.326,139.22,173.141,139.487,171.573z"/>
		<path class="st3" d="M232.98,166.205c-0.523,2.643-1.002,5.058-1.478,7.473c-0.09,0.453-0.188,0.811-0.742,0.998
			c-6.556,2.204-13.235,3.401-20.129,2.109c-7.819-1.464-11.905-6.934-11.134-14.902c1.324-13.67,13.874-22.188,27.37-18.839
			c6.564,1.63,10.183,7.375,9.347,14.209c-0.177,1.452-0.539,2.882-0.701,4.335c-0.107,0.963-0.559,1.133-1.433,1.13
			c-7.474-0.032-14.948,0.021-22.421-0.057c-1.303-0.014-1.532,0.417-1.458,1.548c0.236,3.573,2.424,5.663,6.302,5.923
			c5.217,0.35,10.05-1.105,14.755-3.153C231.757,166.762,232.249,166.532,232.98,166.205z"/>
		<path class="st3" d="M256.658,147.954c2.668-2.432,5.304-4.366,8.607-5.181c2.503-0.618,4.997-0.651,7.461,0.114
			c4.164,1.293,6.324,5.262,5.597,10.382c-0.846,5.939-2.224,11.783-3.325,17.677c-0.285,1.53-0.66,3.046-0.881,4.583
			c-0.107,0.763-0.389,0.963-1.124,0.952c-2.935-0.039-5.871-0.048-8.805,0.005c-0.887,0.014-0.936-0.281-0.786-1.03
			c1.234-6.195,2.443-12.394,3.632-18.598c0.232-1.209,0.469-2.427,0.168-3.679c-0.329-1.379-1.125-2.298-2.505-2.612
			c-2.942-0.667-5.309,0.402-7.24,2.572c-2.228,2.504-2.903,5.64-3.51,8.805c-0.872,4.54-1.811,9.067-2.658,13.611
			c-0.141,0.756-0.412,0.937-1.135,0.927c-2.934-0.04-5.87-0.032-8.805-0.005c-0.679,0.005-0.968-0.065-0.805-0.884
			c2.076-10.461,4.132-20.926,6.137-31.399c0.167-0.881,0.473-1.088,1.305-1.074c2.843,0.048,5.688,0.063,8.529-0.006
			c1.01-0.023,1.141,0.291,0.905,1.168C257.128,145.384,256.95,146.517,256.658,147.954z"/>
		<path class="st3" d="M161.399,143.14c3.163,0,6.186,0.024,9.205-0.018c0.778-0.011,0.725,0.468,0.815,0.956
			c1.162,6.257,2.333,12.51,3.502,18.764c0.2,1.08,0.403,2.159,0.608,3.26c0.495-0.218,0.579-0.708,0.787-1.092
			c3.769-6.956,7.537-13.911,11.269-20.888c0.401-0.748,0.841-1.02,1.692-1.005c3.156,0.054,6.313,0.021,9.489,0.021
			c0.031,0.56-0.329,0.887-0.55,1.261c-6.07,10.336-12.161,20.66-18.213,31.008c-0.446,0.759-0.874,1.106-1.8,1.085
			c-2.979-0.07-5.965-0.092-8.941,0.008c-1.042,0.036-1.294-0.372-1.466-1.245c-2.035-10.373-4.098-20.743-6.155-31.113
			C161.591,143.874,161.516,143.612,161.399,143.14z"/>
		<path class="st1" d="M132.982,170.174c-2.598,0.013-4.266-1.082-4.594-3.017c-0.42-2.469,0.709-4.323,3.236-5.167
			c3.027-1.014,6.173-0.578,9.275-0.66c0.464-0.013,0.511,0.246,0.458,0.613C140.715,166.41,137.847,170.204,132.982,170.174z"/>
		<path class="st1" d="M211.849,156.107c1.426-4.625,4.911-7.034,9.425-6.635c3.044,0.269,5.099,3.189,4.361,6.107
			c-0.154,0.615-0.515,0.524-0.906,0.525C220.471,156.109,216.215,156.107,211.849,156.107z"/>
	</g>
</g>
</svg>
