<?xml version="1.0" encoding="utf-8"?>
<!-- Generator: Adobe Illustrator 16.0.0, SVG Export Plug-In . SVG Version: 6.00 Build 0)  -->
<!DOCTYPE svg PUBLIC "-//W3C//DTD SVG 1.1//EN" "http://www.w3.org/Graphics/SVG/1.1/DTD/svg11.dtd">
<svg version="1.1" id="Layer_1" xmlns="http://www.w3.org/2000/svg" xmlns:xlink="http://www.w3.org/1999/xlink" x="0px" y="0px"
	 width="324px" height="324px" viewBox="-90 -90 324 324" enable-background="new -90 -90 324 324" xml:space="preserve">
<g>
	<path d="M2.43,48.083h23.443c6.881,0.058,11.867,2.042,14.958,5.948c3.091,3.907,4.111,9.243,3.061,16.008
		c-0.407,3.092-1.312,6.123-2.711,9.098c-1.342,2.974-3.207,5.654-5.599,8.048c-2.917,3.031-6.036,4.956-9.359,5.773
		c-3.325,0.815-6.766,1.224-10.322,1.224H5.404l-3.324,16.62h-12.159L2.43,48.083L2.43,48.083 M12.665,58.056L7.417,84.297
		c0.35,0.059,0.7,0.088,1.049,0.088c0.408,0,0.817,0,1.225,0c5.598,0.058,10.264-0.495,13.996-1.661
		c3.732-1.224,6.241-5.482,7.523-12.771c1.05-6.123,0-9.652-3.149-10.584c-3.091-0.932-6.968-1.37-11.634-1.312
		c-0.7,0.058-1.37,0.087-2.012,0.087c-0.582,0-1.195,0-1.836,0L12.665,58.056"/>
	<path d="M57.744,31.376h12.071l-3.411,16.708H77.25c5.949,0.117,10.381,1.342,13.297,3.674c2.974,2.332,3.85,6.765,2.624,13.296
		l-5.86,29.129H75.064l5.599-27.817c0.582-2.917,0.407-4.986-0.525-6.21s-2.945-1.837-6.037-1.837l-9.709-0.088l-7.173,35.952
		H45.147L57.744,31.376L57.744,31.376"/>
	<path d="M106.133,48.083h23.445c6.88,0.058,11.866,2.042,14.958,5.948c3.09,3.907,4.109,9.243,3.06,16.008
		c-0.407,3.092-1.312,6.123-2.711,9.098c-1.342,2.974-3.207,5.654-5.599,8.048c-2.916,3.031-6.035,4.956-9.359,5.773
		c-3.324,0.815-6.765,1.224-10.322,1.224h-10.496l-3.324,16.62H93.625L106.133,48.083L106.133,48.083 M116.367,58.056l-5.247,26.241
		c0.35,0.059,0.699,0.088,1.049,0.088c0.408,0,0.817,0,1.227,0c5.597,0.058,10.264-0.495,13.995-1.661
		c3.731-1.224,6.24-5.482,7.521-12.771c1.05-6.123,0-9.652-3.148-10.584c-3.091-0.932-6.968-1.37-11.634-1.312
		c-0.699,0.058-1.37,0.087-2.012,0.087c-0.583,0-1.195,0-1.838,0L116.367,58.056"/>
</g>
<g id="circles">
	<g>
		<path fill="#8892BF" d="M71.254-58.506c34.777,0,67.475,13.543,92.064,38.135c24.593,24.591,38.136,57.288,38.136,92.065
			c0,34.779-13.543,67.476-38.136,92.065c-24.592,24.593-57.287,38.136-92.064,38.136c-34.777,0-67.474-13.543-92.065-38.136
			c-24.592-24.59-38.135-57.288-38.135-92.065s13.543-67.473,38.135-92.065C3.781-44.963,36.477-58.506,71.254-58.506
			 M71.254-70.506c-78.535,0-142.2,63.666-142.2,142.2c0,78.535,63.665,142.201,142.2,142.201s142.2-63.666,142.2-142.201
			C213.454-6.84,149.789-70.506,71.254-70.506L71.254-70.506z"/>
	</g>
</g>
</svg>
