<?xml version="1.0" encoding="utf-8"?>
<!-- Generator: Adobe Illustrator 16.0.0, SVG Export Plug-In . SVG Version: 6.00 Build 0)  -->
<!DOCTYPE svg PUBLIC "-//W3C//DTD SVG 1.1//EN" "http://www.w3.org/Graphics/SVG/1.1/DTD/svg11.dtd">
<svg version="1.1" xmlns="http://www.w3.org/2000/svg" xmlns:xlink="http://www.w3.org/1999/xlink" x="0px" y="0px" width="324px"
	 height="324px" viewBox="0 0 324 324" style="enable-background:new 0 0 324 324;" xml:space="preserve">
<style type="text/css">
<![CDATA[
	.st0{fill:none;stroke:#262626;stroke-width:12;stroke-miterlimit:10;}
	.st1{fill:#70CFF0;}
]]>
</style>
<g id="Layer_1">
	<g>
		<path class="st1" d="M256.384,162.558c0-12.508-15.664-24.361-39.678-31.711c5.541-24.476,3.078-43.949-7.773-50.184
			c-2.502-1.462-5.427-2.155-8.621-2.155v8.582c1.771,0,3.194,0.347,4.387,1.001c5.234,3.001,7.505,14.432,5.734,29.132
			c-0.423,3.618-1.115,7.428-1.963,11.314c-7.543-1.847-15.777-3.271-24.438-4.195c-5.195-7.12-10.582-13.585-16.009-19.242
			c12.546-11.661,24.321-18.049,32.327-18.049v-8.582l0,0c-10.584,0-24.438,7.543-38.446,20.627
			c-14.008-13.008-27.863-20.474-38.446-20.474v8.582c7.966,0,19.781,6.35,32.327,17.934c-5.388,5.657-10.775,12.084-15.894,19.204
			c-8.697,0.924-16.933,2.348-24.476,4.233c-0.885-3.848-1.54-7.582-2.001-11.161c-1.809-14.701,0.423-26.131,5.619-29.171
			c1.154-0.693,2.655-1,4.426-1v-8.582l0,0c-3.233,0-6.158,0.692-8.698,2.155c-10.814,6.235-13.238,25.669-7.658,50.068
			c-23.938,7.389-39.523,19.204-39.523,31.673c0,12.507,15.663,24.36,39.677,31.711c-5.542,24.476-3.079,43.949,7.774,50.184
			c2.501,1.462,5.426,2.155,8.659,2.155c10.583,0,24.438-7.543,38.446-20.628c14.008,13.008,27.863,20.474,38.446,20.474
			c3.232,0,6.157-0.692,8.697-2.154c10.814-6.235,13.238-25.67,7.658-50.068C240.798,186.879,256.384,175.026,256.384,162.558z
			 M206.276,136.888c-1.424,4.965-3.193,10.083-5.195,15.202c-1.578-3.079-3.232-6.158-5.041-9.236
			c-1.771-3.079-3.656-6.081-5.542-9.005C195.963,134.656,201.235,135.657,206.276,136.888z M188.651,177.874
			c-3.002,5.195-6.081,10.122-9.275,14.701c-5.734,0.501-11.545,0.77-17.395,0.77c-5.811,0-11.622-0.269-17.318-0.731
			c-3.194-4.579-6.312-9.467-9.313-14.623c-2.925-5.042-5.581-10.16-8.005-15.317c2.386-5.157,5.08-10.314,7.966-15.355
			c3.002-5.195,6.081-10.121,9.275-14.701c5.734-0.5,11.545-0.77,17.395-0.77c5.811,0,11.623,0.27,17.319,0.731
			c3.193,4.58,6.311,9.467,9.313,14.624c2.925,5.042,5.58,10.16,8.005,15.317C194.192,167.676,191.537,172.833,188.651,177.874z
			 M201.081,172.871c2.078,5.157,3.849,10.314,5.311,15.316c-5.041,1.232-10.352,2.271-15.855,3.079
			c1.887-2.963,3.771-6.003,5.542-9.12C197.849,179.067,199.503,175.95,201.081,172.871z M162.058,213.934
			c-3.579-3.693-7.158-7.813-10.699-12.314c3.464,0.154,7.004,0.27,10.583,0.27c3.617,0,7.197-0.077,10.699-0.27
			C169.178,206.121,165.599,210.24,162.058,213.934z M133.426,191.267c-5.465-0.808-10.737-1.809-15.779-3.04
			c1.424-4.965,3.194-10.083,5.196-15.201c1.578,3.078,3.232,6.157,5.041,9.236C129.693,185.34,131.54,188.342,133.426,191.267z
			 M161.866,111.181c3.579,3.695,7.159,7.813,10.699,12.315c-3.464-0.154-7.005-0.269-10.583-0.269
			c-3.617,0-7.196,0.077-10.698,0.269C154.746,118.993,158.325,114.875,161.866,111.181z M133.387,133.848
			c-1.886,2.963-3.771,6.003-5.542,9.121c-1.771,3.079-3.425,6.158-5.003,9.236c-2.079-5.157-3.849-10.314-5.311-15.317
			C122.573,135.695,127.884,134.656,133.387,133.848z M98.559,182.03c-13.624-5.812-22.437-13.431-22.437-19.473
			s8.813-13.701,22.437-19.473c3.31-1.424,6.927-2.694,10.66-3.887c2.193,7.543,5.08,15.394,8.659,23.437
			c-3.541,8.004-6.388,15.817-8.543,23.322C105.524,184.763,101.907,183.455,98.559,182.03z M119.264,237.025
			c-5.234-3.002-7.505-14.432-5.734-29.133c0.423-3.618,1.116-7.428,1.963-11.314c7.543,1.847,15.778,3.271,24.438,4.194
			c5.195,7.12,10.583,13.585,16.009,19.242c-12.546,11.661-24.322,18.05-32.327,18.05
			C121.88,238.025,120.418,237.679,119.264,237.025z M210.548,207.699c1.81,14.701-0.423,26.131-5.618,29.172
			c-1.154,0.692-2.655,1-4.426,1c-7.966,0-19.78-6.35-32.327-17.934c5.389-5.657,10.775-12.084,15.895-19.203
			c8.697-0.924,16.934-2.348,24.477-4.234C209.433,200.388,210.125,204.121,210.548,207.699z M225.364,182.03
			c-3.309,1.425-6.927,2.694-10.66,3.888c-2.193-7.543-5.079-15.395-8.658-23.438c3.541-8.005,6.389-15.817,8.543-23.321
			c3.811,1.193,7.428,2.501,10.814,3.925c13.623,5.811,22.437,13.431,22.437,19.473C247.802,168.6,238.988,176.258,225.364,182.03z"
			/>
		<path class="st1" d="M123.42,78.623L123.42,78.623L123.42,78.623z"/>
		<circle class="st1" cx="161.943" cy="162.557" r="17.587"/>
		<path class="st1" d="M200.272,78.507L200.272,78.507L200.272,78.507z"/>
	</g>
</g>
<g id="circle">
	<circle class="st0" cx="162" cy="162" r="142.2"/>
</g>
</svg>
