<?xml version="1.0" encoding="utf-8"?>
<!-- Generator: Adobe Illustrator 16.0.0, SVG Export Plug-In . SVG Version: 6.00 Build 0)  -->
<!DOCTYPE svg PUBLIC "-//W3C//DTD SVG 1.1//EN" "http://www.w3.org/Graphics/SVG/1.1/DTD/svg11.dtd">
<svg version="1.1" id="Layer_1" xmlns="http://www.w3.org/2000/svg" xmlns:xlink="http://www.w3.org/1999/xlink" x="0px" y="0px"
	 width="324px" height="324px" viewBox="0 0 324 324" enable-background="new 0 0 324 324" xml:space="preserve">
<circle fill-rule="evenodd" clip-rule="evenodd" fill="none" stroke="#23272F" stroke-width="12" stroke-miterlimit="10" cx="161.886" cy="161.878" r="142.2"/>
<g>
	<path fill="#58C4DC" d="M101.376,220.239c0.083-8.448,1.166-15.755,2.899-22.962c0.335-1.395,0.184-1.939-1.306-2.397
		c-10.467-3.223-20.433-7.494-28.976-14.555c-3.409-2.816-6.401-6.015-8.502-9.955c-3.244-6.086-3.043-12.09,0.525-17.975
		c3.032-5.001,7.356-8.701,12.163-11.879c7.593-5.021,15.935-8.392,24.631-10.915c1.596-0.463,1.992-0.992,1.578-2.683
		c-2.243-9.155-3.437-18.436-2.749-27.888c0.325-4.462,1.142-8.824,2.876-12.971c3.767-9.003,11.439-13.14,21.066-11.492
		c8.877,1.52,16.525,5.707,23.771,10.782c4.046,2.833,7.872,5.955,11.425,9.382c1.098,1.06,1.664,0.916,2.695-0.059
		c6.142-5.799,12.72-11.039,20.209-15.025c5.944-3.164,12.13-5.628,19.01-5.543c5.927,0.073,10.681,2.514,14.081,7.436
		c3.23,4.676,4.61,9.997,5.248,15.538c1.168,10.157-0.007,20.16-2.303,30.047c-0.388,1.666,0.027,2.124,1.529,2.576
		c9.427,2.838,18.47,6.547,26.53,12.327c4.036,2.895,7.657,6.225,10.253,10.53c3.642,6.043,3.694,12.146,0.192,18.265
		c-2.528,4.42-6.136,7.847-10.18,10.841c-7.927,5.867-16.853,9.699-26.201,12.603c-1.64,0.51-2.103,1.031-1.661,2.847
		c2.027,8.329,2.976,16.798,2.535,25.383c-0.257,5.005-1.073,9.913-2.963,14.589c-4.118,10.192-11.984,14.432-22.773,12.257
		c-8.69-1.752-16.133-6.102-23.171-11.262c-3.546-2.601-6.913-5.424-10.063-8.487c-1.031-1.003-1.584-1.095-2.695-0.047
		c-6.459,6.09-13.466,11.452-21.46,15.413c-4.771,2.363-9.735,4.088-15.072,4.711c-8.689,1.016-15.507-2.586-19.36-10.421
		C102.053,232.929,101.437,226.127,101.376,220.239z M160.63,193.968c7.113-0.152,12.705-0.242,18.288-0.631
		c0.854-0.059,1.431-0.296,1.917-1.045c6.135-9.432,11.802-19.128,16.787-29.218c0.419-0.846,0.407-1.523-0.016-2.359
		c-5.015-9.938-10.602-19.542-16.731-28.833c-0.547-0.829-1.158-1.192-2.182-1.256c-11.12-0.696-22.233-0.698-33.353-0.001
		c-1.024,0.063-1.631,0.436-2.18,1.262c-6.168,9.27-11.752,18.874-16.664,28.869c-0.445,0.908-0.427,1.629,0.014,2.524
		c4.92,9.991,10.522,19.583,16.695,28.851c0.612,0.92,1.304,1.247,2.356,1.28C151.09,193.587,156.618,193.815,160.63,193.968z
		 M71.511,161.736c-0.002,2.324,0.938,4.322,2.196,6.191c1.972,2.927,4.519,5.301,7.338,7.382
		c7.484,5.524,15.917,9.065,24.739,11.801c0.953,0.296,1.273,0.02,1.534-0.815c2.492-7.974,5.531-15.74,8.992-23.341
		c0.335-0.736,0.229-1.354-0.088-2.052c-3.353-7.386-6.29-14.937-8.743-22.669c-0.302-0.952-0.652-1.262-1.637-0.96
		c-8.409,2.58-16.555,5.743-23.877,10.73c-3.248,2.212-6.213,4.741-8.429,8.04C72.38,157.762,71.546,159.609,71.511,161.736z
		 M122.784,241.512c1.521-0.104,3.941-0.483,6.298-1.257c10.357-3.396,18.782-9.799,26.661-17.069
		c0.899-0.829,0.382-1.271-0.177-1.878c-5.467-5.937-10.518-12.212-15.191-18.79c-0.578-0.813-1.209-1.178-2.201-1.265
		c-8.139-0.719-16.232-1.791-24.221-3.528c-1.182-0.256-1.315,0.27-1.509,1.104c-1.852,7.938-3.052,15.956-2.632,24.13
		c0.229,4.458,0.922,8.852,2.949,12.923C114.629,239.637,117.622,241.565,122.784,241.512z M214.484,218.798
		c-0.059-7.208-1.007-13.736-2.432-20.216c-0.283-1.291-0.749-1.419-1.944-1.152c-7.854,1.758-15.794,2.982-23.816,3.641
		c-1.05,0.086-1.752,0.49-2.355,1.368c-4.539,6.592-9.435,12.91-14.827,18.827c-0.831,0.913-0.68,1.391,0.134,2.145
		c4.595,4.26,9.404,8.239,14.744,11.541c4.357,2.694,8.906,4.969,13.94,6.126c7.422,1.707,11.741-0.623,14.351-7.754
		c0.372-1.014,0.668-2.059,0.936-3.105C214.217,226.285,214.456,222.27,214.484,218.798z M121.055,82.603
		c-3.664-0.266-6.602,1.895-8.456,5.809c-0.803,1.693-1.393,3.457-1.771,5.286c-2.244,10.867-0.583,21.519,1.789,32.132
		c0.224,1.007,0.745,0.97,1.58,0.785c7.923-1.758,15.932-2.971,24.012-3.711c0.879-0.081,1.41-0.441,1.896-1.128
		c4.703-6.623,9.767-12.958,15.292-18.915c0.686-0.74,0.716-1.175-0.045-1.877c-6.386-5.9-13.209-11.186-21.1-14.943
		C130.339,84.177,126.296,82.675,121.055,82.603z M214.201,105.394c-0.104-2.04-0.123-4.088-0.323-6.12
		c-0.422-4.27-1.196-8.465-3.432-12.225c-1.408-2.369-3.337-4.02-6.19-4.49c-3.455-0.57-6.697,0.254-9.859,1.406
		c-9.91,3.61-17.985,10.003-25.613,17.064c-0.844,0.782-0.476,1.256,0.118,1.906c5.438,5.955,10.439,12.26,15.074,18.858
		c0.485,0.693,1.034,1.034,1.906,1.117c8.072,0.777,16.088,1.948,23.992,3.794c1.08,0.253,1.495-0.078,1.725-1.127
		C213.051,118.926,214.059,112.221,214.201,105.394z M252.483,161.316c-0.035-1.97-1.1-3.97-2.48-5.828
		c-2.438-3.282-5.568-5.808-8.972-8.003c-7.022-4.528-14.692-7.594-22.646-10.039c-1.116-0.342-1.438-0.044-1.765,0.975
		c-2.43,7.558-5.303,14.945-8.644,22.147c-0.417,0.899-0.422,1.65,0.004,2.551c3.467,7.341,6.518,14.852,9.019,22.577
		c0.352,1.089,0.845,1.225,1.83,0.904c7.444-2.423,14.665-5.339,21.293-9.573c3.771-2.409,7.264-5.149,9.914-8.818
		C251.428,166.284,252.498,164.217,252.483,161.316z M202.638,171.557c-3.765,7.177-7.583,13.813-11.856,20.678
		c6.234-0.742,12.014-1.663,17.734-2.961c0.779-0.177,0.739-0.666,0.552-1.225C207.243,182.594,205.202,177.226,202.638,171.557z
		 M121.653,172.142c-0.203,0.188-0.329,0.252-0.373,0.351c-2.284,5.163-4.164,10.476-5.942,15.829
		c-0.406,1.222,0.384,1.294,1.164,1.454c5.009,1.032,10.058,1.816,15.136,2.405c0.424,0.051,1.006,0.369,1.287-0.198
		c0.216-0.437-0.251-0.763-0.463-1.1c-2.988-4.728-5.805-9.555-8.485-14.462C123.204,175.009,122.439,173.59,121.653,172.142z
		 M150.369,202.038c3.651,4.875,7.241,9.133,10.952,13.296c0.804,0.901,1.228,0.912,2.024-0.003
		c3.437-3.949,6.746-7.998,9.855-12.211c0.201-0.274,0.527-0.521,0.281-1.094C165.982,202.241,158.419,202.242,150.369,202.038z
		 M202.366,151.806c0.239-0.139,0.395-0.173,0.434-0.26c2.303-5.08,4.181-10.32,5.918-15.615c0.375-1.142-0.544-1.112-1.213-1.26
		c-4.166-0.921-8.359-1.681-12.586-2.26c-1.223-0.168-2.438-0.554-3.941-0.278C195.074,138.634,198.803,145.17,202.366,151.806z
		 M132.95,132.26c-0.705-0.492-1.312-0.232-1.87-0.157c-4.829,0.651-9.626,1.482-14.404,2.446c-1.303,0.263-1.488,0.727-1.083,1.932
		c1.627,4.837,3.36,9.632,5.345,14.335c0.15,0.356,0.187,0.809,0.819,0.906C125.222,145.098,128.965,138.612,132.95,132.26z
		 M150.538,121.655c0.322,0.18,0.424,0.288,0.522,0.285c7.152-0.221,14.304-0.284,21.454,0.018c0.288,0.013,0.642,0.113,0.808-0.208
		c0.214-0.411-0.172-0.665-0.371-0.928c-3.197-4.217-6.56-8.298-10.111-12.223c-0.492-0.544-0.83-0.708-1.413-0.066
		C157.63,112.713,154.014,117.039,150.538,121.655z"/>
	<path fill-rule="evenodd" clip-rule="evenodd" fill="#58C4DC" d="M179.588,161.196c0.566,9.357-7.029,17.618-16.739,18.208
		c-9.521,0.578-17.815-6.947-18.42-16.712c-0.6-9.688,6.966-18.09,17.014-18.448C171.568,143.883,179.308,151.831,179.588,161.196z"
		/>
</g>
</svg>
