<?xml version="1.0" encoding="utf-8"?>
<!-- Generator: Adobe Illustrator 16.0.0, SVG Export Plug-In . SVG Version: 6.00 Build 0)  -->
<!DOCTYPE svg PUBLIC "-//W3C//DTD SVG 1.1//EN" "http://www.w3.org/Graphics/SVG/1.1/DTD/svg11.dtd">
<svg version="1.1" xmlns="http://www.w3.org/2000/svg" xmlns:xlink="http://www.w3.org/1999/xlink" x="0px" y="0px" width="324px"
	 height="324px" viewBox="0 0 324 324" style="enable-background:new 0 0 324 324;" xml:space="preserve">
<style type="text/css">
<![CDATA[
	.st0{fill:none;stroke:#FAAE63;stroke-width:12;stroke-miterlimit:10;}
	.st1{fill-rule:evenodd;clip-rule:evenodd;fill:#FAAE63;}
	.st2{fill-rule:evenodd;clip-rule:evenodd;fill:#FBAF65;}
	.st3{fill-rule:evenodd;clip-rule:evenodd;fill:#FBB068;}
	.st4{fill-rule:evenodd;clip-rule:evenodd;fill:#FBB36C;}
	.st5{fill-rule:evenodd;clip-rule:evenodd;fill:#FBB36D;}
	.st6{fill-rule:evenodd;clip-rule:evenodd;fill:#FBB570;}
	.st7{fill-rule:evenodd;clip-rule:evenodd;fill:#FCBA79;}
	.st8{fill-rule:evenodd;clip-rule:evenodd;fill:#FCBC7D;}
	.st9{fill-rule:evenodd;clip-rule:evenodd;fill:#FCC084;}
	.st10{fill-rule:evenodd;clip-rule:evenodd;fill:#FDC48B;}
	.st11{fill-rule:evenodd;clip-rule:evenodd;fill:#FDCC99;}
	.st12{fill-rule:evenodd;clip-rule:evenodd;fill:#FDCFA2;}
	.st13{fill-rule:evenodd;clip-rule:evenodd;fill:#FDD0A5;}
	.st14{fill-rule:evenodd;clip-rule:evenodd;fill:#FDE3C9;}
	.st15{fill-rule:evenodd;clip-rule:evenodd;fill:#FDE3CB;}
	.st16{fill-rule:evenodd;clip-rule:evenodd;fill:#FDE9D4;}
	.st17{fill-rule:evenodd;clip-rule:evenodd;fill:#FECFA1;}
	.st18{fill-rule:evenodd;clip-rule:evenodd;fill:#FED1A2;}
	.st19{fill-rule:evenodd;clip-rule:evenodd;fill:#FED2A5;}
	.st20{fill-rule:evenodd;clip-rule:evenodd;fill:#FED6AF;}
	.st21{fill-rule:evenodd;clip-rule:evenodd;fill:#FFECDB;}
	.st22{fill-rule:evenodd;clip-rule:evenodd;fill:#FFEEDF;}
	.st23{fill-rule:evenodd;clip-rule:evenodd;fill:#FFEFDF;}
	.st24{fill-rule:evenodd;clip-rule:evenodd;fill:#FFF2E5;}
	.st25{fill-rule:evenodd;clip-rule:evenodd;fill:#FFF4EA;}
	.st26{fill-rule:evenodd;clip-rule:evenodd;fill:#FFF5EC;}
]]>
</style>
<g id="circle">
	<circle class="st0" cx="162" cy="162" r="142.2"/>
</g>
<g id="Layer_2">
	<g>
		<path class="st1" d="M103.764,250.268c-0.56,0-1.121,0-1.681,0c-1.121-0.279-2.242-0.559-3.362-0.838
			c-0.421,0.003-0.843,0.006-1.264,0.009c-0.135-0.012-0.271-0.02-0.406-0.024c-3.088-1.112-6.176-2.225-9.263-3.337h0
			c-1.258-0.844-2.517-1.688-3.775-2.532c-2.237-2.383-4.475-4.767-6.712-7.15c-0.371-0.739-0.728-1.486-1.116-2.217
			c-1.801-3.394-3.277-6.893-3.53-10.793c0.002-3.087,0.003-6.174,0.005-9.261c0.588-2.499,1.177-5,1.765-7.5
			c2.361-3.513,4.722-7.024,7.083-10.537c2.235-1.69,4.471-3.38,6.706-5.069c1.542-0.561,3.083-1.12,4.624-1.68
			c2.521-0.561,5.043-1.12,7.563-1.681c1.569,0.006,3.146-0.085,4.705,0.041c2.317,0.186,4.619,0.538,6.931,0.791
			c0.76,0.084,1.541,0.001,2.291,0.126c2.953,0.493,5.898,1.038,8.848,1.563c2.354,0.421,4.707,0.841,7.061,1.261
			c0.277,0.757,0.692,1.492,0.809,2.271c0.611,4.108,1.279,8.216,1.672,12.347c0.436,4.595,0.676,9.213,0.846,13.826
			c0.073,1.997-0.244,4.009-0.385,6.014c-0.561,1.82-1.121,3.641-1.682,5.461c-0.141,0.28-0.28,0.561-0.42,0.841
			c-0.141,0.28-0.281,0.56-0.422,0.839c-0.695,1.128-1.392,2.256-2.088,3.384c-0.409,0.609-0.752,1.277-1.24,1.816
			c-1.378,1.519-2.815,2.982-4.23,4.47c-0.42,0.279-0.84,0.56-1.26,0.84c-1.261,0.842-2.523,1.684-3.785,2.524
			c-1.121,0.558-2.243,1.115-3.365,1.673c-0.835,0.288-1.67,0.575-2.505,0.862h-0.001
			C109.375,249.16,106.569,249.714,103.764,250.268z"/>
		<path class="st14" d="M194.108,67.479c-0.941,3.553-1.673,7.178-2.862,10.646c-3.565,10.397-7.287,20.74-10.993,31.088
			c-1.195,3.341-2.524,6.636-3.794,9.952c-0.279,0.84-0.56,1.681-0.841,2.521l0,0c-1.161,1.641-1.159,1.863,0.016,2.112
			c-0.318,0.278-0.618,0.582-0.958,0.829c-0.796,0.575-1.611,1.123-2.419,1.682c-2.894,2.152-5.8,4.287-8.679,6.46
			c-3.426,2.588-6.824,5.21-10.234,7.818c-1.122,0.841-2.243,1.682-3.365,2.523c-0.837,0.563-1.674,1.126-2.511,1.69
			c-0.833,0.428-1.668,0.857-2.622,1.348c-0.148-0.479-0.319-0.74-0.29-0.977c0.606-5.029,1.258-10.053,1.853-15.083
			c0.391-3.31,0.716-6.627,1.047-9.944c0.092-0.921-0.084-1.612-1.252-0.979c0.377-0.527,0.699-1.104,1.14-1.57
			c0.989-1.049,2.036-2.043,3.06-3.059c4.541-5.17,9.044-10.376,13.635-15.502c6.219-6.944,12.464-13.863,18.777-20.72
			c2.883-3.129,5.957-6.08,8.935-9.123c0.531-0.545,1.014-1.14,1.518-1.712C193.548,67.479,193.827,67.479,194.108,67.479z"/>
		<path class="st14" d="M197.052,145.639c0.589,0.112,1.27,0.476,1.75,0.298c6.511-2.408,12.985-4.917,19.487-7.347
			c3.966-1.482,7.968-2.871,11.953-4.3c0.841-0.281,1.682-0.562,2.523-0.843l-0.002,0.001c2.383-0.841,4.765-1.682,7.146-2.523
			c3.881-1.225,7.755-2.469,11.651-3.644c0.394-0.119,0.913,0.181,1.375,0.287c0,0.14,0,0.28,0,0.42
			c-5.841,5.662-11.659,11.348-17.531,16.975c-3.213,3.077-6.519,6.056-9.782,9.078c-1.12,0.981-2.24,1.963-3.359,2.945
			c-4.341,3.921-8.682,7.844-13.024,11.766c-1.262,1.12-2.523,2.238-3.786,3.358l0,0c-0.841,0.839-1.683,1.678-2.524,2.518
			c-0.611-0.278-1.239-0.828-1.827-0.788c-2.899,0.202-5.798,0.489-8.679,0.878c-5.622,0.757-11.229,1.604-16.845,2.392
			c-0.21,0.029-0.453-0.179-0.686-0.279c0.564-1.098,1.066-2.069,1.566-3.04c1.821-2.52,3.645-5.039,5.466-7.559
			c0.841-1.122,1.682-2.243,2.521-3.365c3.221-4.343,6.441-8.685,9.662-13.027C195.089,148.439,196.071,147.039,197.052,145.639z"/>
		<path class="st21" d="M150.402,114.535c-1.023,1.016-2.07,2.01-3.06,3.059c-0.44,0.466-0.763,1.043-1.14,1.57l0,0
			c-1.259,1.4-2.52,2.803-3.778,4.205c-3.789,4.417-7.562,8.847-11.372,13.247c-2.625,3.031-5.301,6.018-7.955,9.024
			c-1.322,0.794-1.373-0.406-1.542-1.09c-0.66-2.677-1.237-5.374-1.831-8.067c-0.674-3.063-1.329-6.131-2.018-9.309
			c-0.521,0.318-0.928,0.567-1.334,0.816c0.4-0.613,0.847-1.201,1.193-1.843c1.023-1.896,2.008-3.813,3.008-5.721l0,0
			c0.139-0.141,0.277-0.281,0.417-0.422h-0.001c2.242-3.922,4.483-7.844,6.725-11.765c3.819-6.632,7.538-13.324,11.488-19.877
			c3.307-5.486,6.876-10.813,10.355-16.195c0.256-0.396,0.722-0.658,1.38-0.857c0.569,15.044-1.738,29.805-2.968,45.003
			C148.951,115.595,149.678,115.065,150.402,114.535z"/>
		<path class="st26" d="M120.574,120.426c-1,1.908-1.984,3.826-3.008,5.721c-0.347,0.642-0.793,1.23-1.193,1.843
			c-1.938,3.447-3.916,6.872-5.801,10.349c-4.36,8.042-8.708,16.092-12.998,24.173c-5.421,10.216-10.732,20.49-16.19,30.687
			c-1.759,3.286-3.832,6.404-5.76,9.601c10.44-35.146,19.949-70.583,32.551-105.046c0.3-0.017,0.6-0.035,0.899-0.052
			c0.402,0.715,0.955,1.386,1.182,2.153c1.503,5.072,2.976,10.154,4.379,15.255c0.917,3.335,1.7,6.707,2.646,10.472
			C118.535,123.618,119.555,122.021,120.574,120.426z"/>
		<path class="st15" d="M75.624,202.799c1.929-3.196,4.001-6.314,5.76-9.601c5.458-10.196,10.769-20.471,16.19-30.687
			c4.289-8.081,8.638-16.13,12.998-24.173c1.885-3.477,3.864-6.901,5.801-10.349c0.406-0.249,0.813-0.498,1.334-0.816
			c0.688,3.178,1.344,6.246,2.018,9.309c0.594,2.693,1.171,5.39,1.831,8.067c0.169,0.684,0.22,1.884,1.542,1.09
			c-1.123,1.399-2.244,2.799-3.367,4.198c-2.934,3.425-5.883,6.836-8.796,10.279c-3.412,4.032-6.808,8.079-10.182,12.145
			c-4.173,5.027-8.344,10.058-12.463,15.131c-2.316,2.853-4.524,5.793-6.781,8.694c-2.361,3.513-4.722,7.024-7.083,10.537
			c0,0-0.125-0.098-0.125-0.097c0.017-0.267,0.033-0.534,0.049-0.802l0,0c0.129-0.143,0.259-0.284,0.388-0.428
			c0.015-0.272,0.03-0.546,0.045-0.819c0.273-0.426,0.546-0.851,0.819-1.276C75.611,203.068,75.618,202.934,75.624,202.799z"/>
		<path class="st26" d="M127.715,108.239c-2.241,3.921-4.482,7.843-6.725,11.765c1.338-2.551,2.625-5.129,4.031-7.642
			C125.82,110.932,126.811,109.61,127.715,108.239z"/>
		<path class="st26" d="M75.603,203.202c-0.273,0.426-0.546,0.851-0.819,1.276C75.056,204.053,75.33,203.628,75.603,203.202z"/>
		<path class="st26" d="M120.991,120.004c-0.14,0.141-0.278,0.281-0.417,0.422C120.713,120.285,120.852,120.145,120.991,120.004z"/>
		<path class="st26" d="M74.738,205.298c-0.129,0.144-0.259,0.285-0.388,0.428C74.479,205.583,74.608,205.441,74.738,205.298z"/>
		<path class="st21" d="M202.929,174.628c0.842-0.84,1.684-1.679,2.524-2.518c-0.633,1.168,0.053,1.348,0.979,1.246
			c4.693-0.513,9.381-1.081,14.078-1.563c3.526-0.362,7.062-0.685,10.599-0.913c5.283-0.342,10.57-0.613,15.858-0.839
			c0.806-0.035,1.628,0.337,2.442,0.52c0.049,0.243,0.097,0.485,0.146,0.729c-2.094,1.395-4.188,2.789-6.282,4.185
			c-0.421,0.279-0.842,0.56-1.263,0.839l0,0c-0.42,0.28-0.84,0.56-1.261,0.839c-9.231,5.525-18.452,11.067-27.695,16.571
			c-4.896,2.914-9.829,5.764-14.745,8.643c-1.541,0.84-3.081,1.681-4.621,2.521c0.003-0.255,0.062-0.718,0-0.734
			c-2.31-0.621-4.622-1.233-6.948-1.78c-3.434-0.808-6.89-1.528-10.308-2.395c-0.366-0.093-0.55-0.915-0.817-1.398
			c4.327-3.834,8.647-7.673,12.981-11.499c4.072-3.596,8.156-7.178,12.236-10.767c0.699-0.562,1.398-1.124,2.098-1.686H202.929z"/>
		<path class="st26" d="M193.688,204.887c1.54-0.841,3.08-1.682,4.621-2.521c-0.776,0.673-1.552,1.346-2.488,2.157
			c9.258,2.39,18.552,4.207,27.293,7.794c-0.004,0.257-0.01,0.514-0.016,0.77c-1.359,0.73-2.649,1.66-4.09,2.159
			c-9.439,3.263-18.873,6.551-28.383,9.599c-8.142,2.609-16.392,4.876-24.575,7.358c-5.104,1.548-10.153,3.267-15.256,4.815
			c-5.574,1.694-11.215,3.177-16.768,4.94c-5.994,1.903-12.352,2.754-17.887,6.039c-0.381,0.226-0.95,0.138-1.434,0.194l-0.043-0.05
			c0.019-0.132,0.025-0.264,0.021-0.397c1.122-0.558,2.244-1.115,3.365-1.673c1.262-0.701,2.521-1.403,3.782-2.105
			c0.699-0.423,1.397-0.846,2.097-1.268c0,0,0-0.001,0,0c4.531-2.223,9.115-4.347,13.582-6.692
			c7.067-3.71,14.072-7.541,21.074-11.373c5.56-3.04,11.077-6.158,16.613-9.242c0.42-0.279,0.842-0.559,1.264-0.837
			c0.138-0.001,0.277-0.003,0.414-0.006c0.423-0.279,0.844-0.558,1.264-0.836c0.14-0.002,0.279-0.003,0.418-0.005
			c0.421-0.279,0.842-0.559,1.263-0.837c1.539-0.841,3.08-1.682,4.62-2.523v-0.001c0.981-0.559,1.962-1.119,2.942-1.679
			c0.141-0.14,0.281-0.279,0.422-0.419l0,0c1.54-0.841,3.08-1.682,4.621-2.522l0,0c0.28-0.141,0.561-0.28,0.84-0.421l0,0
			C193.407,205.165,193.548,205.026,193.688,204.887L193.688,204.887z"/>
		<path class="st21" d="M205.453,172.11c1.263-1.12,2.524-2.238,3.786-3.358C207.978,169.872,206.716,170.99,205.453,172.11z"/>
		<path class="st23" d="M222.264,156.986c1.119-0.982,2.239-1.964,3.359-2.945C224.503,155.022,223.383,156.004,222.264,156.986z"/>
		<path class="st25" d="M242.011,176.313c0.421-0.279,0.842-0.56,1.263-0.839C242.853,175.753,242.432,176.033,242.011,176.313z"/>
		<path class="st25" d="M240.75,177.151c0.421-0.279,0.841-0.559,1.261-0.839C241.591,176.593,241.171,176.872,240.75,177.151z"/>
		<path class="st19" d="M197.052,145.639c-0.98,1.4-1.963,2.8-2.943,4.2c0.328-0.765,0.658-1.53,1.16-2.697
			c-3.466,1.433-6.516,2.695-9.566,3.956c-0.7,0.28-1.399,0.56-2.101,0.84c-0.278,0.023-0.582-0.018-0.83,0.081
			c-6.613,2.637-13.217,5.296-19.834,7.921c-0.567,0.225-1.22,0.235-2.184,0.408c4.5-11.681,8.831-22.924,13.247-34.385
			c-0.808,0.159-1.274,0.251-1.744,0.344c0.808-0.559,1.623-1.107,2.419-1.682c0.34-0.247,0.64-0.551,0.958-0.829
			c0.137-0.142,0.272-0.283,0.409-0.424v-0.002c1.121-0.841,2.243-1.681,3.365-2.521c14.005-10.226,28.01-20.451,42.014-30.677
			c2.384-1.68,4.766-3.36,7.147-5.041c4.262-2.899,8.525-5.796,12.781-8.705c0.392-0.269,0.728-0.621,1.089-0.935
			c1.668-0.807,3.337-1.613,5.006-2.419c0.104,0.131,0.21,0.262,0.315,0.392c-0.521,1.084-1.044,2.167-1.565,3.251
			c-1.942,2.793-3.877,5.592-5.829,8.379c-5.397,7.716-10.779,15.444-16.213,23.136c-3.581,5.071-7.229,10.093-10.865,15.125
			c-5.27,7.291-10.553,14.57-15.831,21.854C197.322,145.353,197.187,145.497,197.052,145.639L197.052,145.639z"/>
		<path class="st22" d="M228.569,85.132c-2.382,1.681-4.764,3.361-7.147,5.041C223.806,88.493,226.188,86.813,228.569,85.132z"/>
		<path class="st16" d="M239.91,130.925c-2.382,0.841-4.764,1.682-7.146,2.523C235.146,132.607,237.528,131.767,239.91,130.925z"/>
		<path class="st24" d="M179.408,120.85c-1.122,0.84-2.244,1.68-3.365,2.521C177.164,122.53,178.286,121.69,179.408,120.85z"/>
		<path class="st24" d="M176.043,123.373c-0.137,0.142-0.272,0.283-0.409,0.424c-1.175-0.25-1.177-0.471-0.016-2.112
			C175.76,122.248,175.9,122.81,176.043,123.373z"/>
		<path class="st16" d="M232.766,133.447c-0.842,0.281-1.683,0.562-2.523,0.843C231.083,134.009,231.924,133.728,232.766,133.447z"
			/>
		<path class="st24" d="M175.618,121.685c0.281-0.84,0.562-1.681,0.841-2.521C176.18,120.004,175.899,120.845,175.618,121.685z"/>
		<path class="st14" d="M197.052,145.64c0.135-0.143,0.271-0.287,0.405-0.429C197.322,145.353,197.187,145.497,197.052,145.64z"/>
		<path class="st19" d="M123.096,242.707c1.415-1.487,2.853-2.951,4.23-4.47c0.488-0.539,0.831-1.207,1.24-1.816
			c0.697-0.846,1.395-1.692,2.092-2.538c0.398-0.381,0.854-0.718,1.188-1.149c2.601-3.357,5.188-6.725,7.76-10.104
			c5.988-7.871,11.964-15.75,17.945-23.626c0.525-0.636,1.063-1.263,1.576-1.909c1.16-1.462,2.309-2.933,3.462-4.399
			c-0.724,1.258-1.444,2.516-2.212,3.853c4.523,0.963,8.738,1.86,13.147,2.8c-0.621,0.807-1.151,1.496-1.683,2.187
			c-1.721,1.618-3.38,3.308-5.174,4.841c-6.083,5.195-12.207,10.343-18.33,15.494c-4.789,4.03-9.624,8.007-14.392,12.063
			c-3.38,2.875-6.681,5.842-10.017,8.767v0.001C123.651,242.701,123.374,242.704,123.096,242.707z"/>
		<path class="st13" d="M81.508,196.087c2.256-2.901,4.464-5.842,6.781-8.694c4.119-5.073,8.29-10.104,12.463-15.131
			c3.374-4.065,6.771-8.112,10.182-12.145c2.914-3.443,5.863-6.854,8.796-10.279c0.727-0.533,1.455-1.066,2.568-1.88
			c0.729,3.923,1.49,7.473,2.018,11.057c0.285,1.947,0.492,2.157,2.245,1.102c0.64-0.387,1.332-0.689,1.999-1.03
			c-0.436,0.429-0.844,0.892-1.314,1.277c-1.373,1.129-2.771,2.227-4.16,3.338l0.002-0.002c-0.561,0.422-1.121,0.843-1.682,1.264
			c-0.37,0.169-0.791,0.272-1.104,0.515c-7.619,5.929-15.25,11.843-22.825,17.827c-3.151,2.49-6.179,5.138-9.263,7.713
			C85.979,192.707,83.743,194.396,81.508,196.087z"/>
		<path class="st7" d="M88.214,191.018c3.084-2.575,6.112-5.223,9.263-7.713c7.575-5.984,15.206-11.898,22.825-17.827
			c0.313-0.242,0.733-0.346,1.104-0.515c0.561-0.421,1.121-0.842,1.682-1.264c0,0-0.002,0.002-0.001,0.002
			c0.614-0.23,1.229-0.461,2.229-0.835c0.539,3.292,1.152,6.397,1.511,9.53c0.147,1.288,0.718,1.468,1.729,1.394
			c-1.821,0.841-3.642,1.681-5.463,2.521c-2.703,0.999-5.446,1.906-8.103,3.021c-5.186,2.175-10.339,4.434-15.476,6.725
			c-2.263,1.01-4.454,2.183-6.677,3.281C91.297,189.897,89.756,190.457,88.214,191.018z"/>
		<path class="st4" d="M131.496,231.357c0.561-1.82,1.121-3.641,1.682-5.461c0.27-0.476,0.694-0.924,0.785-1.431
			c0.614-3.472,1.162-6.956,1.727-10.436c0.558-3.439,1.229-6.866,1.636-10.324c0.431-3.653,0.606-7.336,0.896-11.007
			c0.279-0.56,0.561-1.12,0.84-1.681c0.726,0.684,1.34,1.687,2.199,1.986c1.862,0.649,3.85,0.939,5.785,1.375
			c-0.824,2.105-1.621,4.221-2.477,6.313c-2.284,5.59-4.594,11.17-6.893,16.754c-1.104,2.679-2.158,5.38-3.324,8.031
			c-0.877,1.993-1.896,3.924-2.853,5.882L131.496,231.357z"/>
		<path class="st4" d="M92.838,189.338c2.223-1.099,4.414-2.271,6.677-3.281c5.137-2.291,10.29-4.55,15.476-6.725
			c2.656-1.114,5.399-2.021,8.103-3.021c0.896-0.369,1.765-0.889,2.696-1.053c0.58-0.102,1.686,0.185,1.813,0.553
			c0.48,1.401,0.844,2.899,0.906,4.376c0.076,1.8,0.818,2.563,2.569,2.428c-0.841,0.14-1.681,0.28-2.521,0.42
			c-2.894,0.333-5.794,0.622-8.681,1.01c-4.534,0.61-9.073,1.205-13.582,1.971c-2,0.34-3.93,1.082-5.892,1.642
			C97.881,188.218,95.359,188.777,92.838,189.338z"/>
		<path class="st2" d="M100.401,187.657c1.962-0.56,3.892-1.302,5.892-1.642c4.509-0.766,9.048-1.36,13.582-1.971
			c2.887-0.388,5.787-0.677,8.681-1.01c0.278,0.607,0.653,1.191,0.82,1.829c0.604,2.321,1.14,4.662,1.701,6.995
			c-0.28-0.14-0.561-0.28-0.841-0.421c-2.354-0.42-4.707-0.84-7.061-1.261c-2.949-0.524-5.895-1.069-8.848-1.563
			c-0.75-0.125-1.531-0.042-2.291-0.126c-2.312-0.253-4.614-0.605-6.931-0.791C103.547,187.572,101.971,187.663,100.401,187.657z"/>
		<path class="st2" d="M130.236,191.438c0.28,0.141,0.561,0.281,0.841,0.421c2.381,0.28,4.763,0.561,7.144,0.84
			c-0.289,3.671-0.465,7.354-0.896,11.007c-0.407,3.458-1.078,6.885-1.636,10.324c-0.564,3.479-1.112,6.964-1.727,10.436
			c-0.091,0.507-0.516,0.955-0.785,1.431c0.141-2.005,0.458-4.017,0.385-6.014c-0.17-4.613-0.41-9.231-0.846-13.826
			c-0.393-4.131-1.061-8.238-1.672-12.347C130.929,192.931,130.514,192.195,130.236,191.438z"/>
		<path class="st9" d="M121.833,243.966c-1.261,0.702-2.521,1.404-3.782,2.105c1.262-0.841,2.524-1.683,3.785-2.524
			C121.836,243.687,121.834,243.826,121.833,243.966z"/>
		<path class="st17" d="M87.788,246.077c-1.258-0.844-2.517-1.688-3.775-2.532C85.271,244.39,86.53,245.233,87.788,246.077z"/>
		<path class="st5" d="M130.658,233.883c-0.697,0.846-1.395,1.692-2.092,2.538c0.696-1.128,1.393-2.256,2.088-3.384l0.004,0.003
			C130.658,233.321,130.658,233.602,130.658,233.883z"/>
		<path class="st15" d="M121.833,243.966c0.001-0.14,0.003-0.279,0.003-0.419c0.42-0.28,0.84-0.561,1.26-0.84
			c0.278-0.003,0.556-0.006,0.834-0.009C123.23,243.12,122.532,243.543,121.833,243.966z"/>
		<path class="st5" d="M130.654,233.037c0.141-0.279,0.281-0.559,0.422-0.839l0.003,0.003c-0.141,0.28-0.28,0.56-0.421,0.839
			L130.654,233.037z"/>
		<path class="st5" d="M131.076,232.198c0.14-0.28,0.279-0.561,0.42-0.841l0.003,0.003c-0.14,0.28-0.28,0.56-0.42,0.841
			L131.076,232.198z"/>
		<path class="st10" d="M185.702,151.098c3.051-1.261,6.101-2.523,9.566-3.956c-0.502,1.167-0.832,1.932-1.16,2.697
			c-3.221,4.342-6.441,8.685-9.662,13.027c-0.84,1.122-1.681,2.243-2.521,3.365c-1.821,2.52-3.645,5.039-5.466,7.559
			c-0.432,0.44-0.912,0.843-1.285,1.327c-0.721,0.938-1.383,1.921-2.07,2.885c-0.676-0.265-1.391-0.827-2.023-0.747
			c-5.684,0.725-11.354,1.563-17.407,2.421c0.362-1.628,0.649-2.916,0.937-4.204c0.242-0.239,0.599-0.435,0.709-0.725
			c1.178-3.091,2.326-6.194,3.46-9.302c0.476-1.304,0.901-2.625,1.535-4.481c-5.104,2.056-9.606,3.869-14.109,5.683
			c-0.561,0.28-1.121,0.56-1.683,0.84c-0.139,0-0.279,0-0.418,0.001c-0.76,0.127-1.52,0.255-2.145,0.359
			c0.176-1.462,0.344-2.661,0.458-3.865c0.303-3.201,0.567-6.407,0.888-9.607c0.039-0.388,0.424-0.738,0.469-1.126
			c0.205-1.729,1.205-3.555-0.514-5.091c0.365-0.284,0.734-0.564,1.096-0.854c1.039-0.833,2.076-1.669,3.112-2.504
			c0.837-0.563,1.674-1.127,2.511-1.69c1.122-0.841,2.243-1.682,3.365-2.523c3.41-2.607,6.809-5.229,10.234-7.818
			c2.879-2.174,5.785-4.309,8.679-6.46c0.47-0.093,0.937-0.185,1.744-0.344c-4.416,11.461-8.747,22.704-13.247,34.385
			c0.964-0.173,1.616-0.184,2.184-0.408c6.617-2.625,13.221-5.285,19.834-7.921c0.248-0.099,0.552-0.058,0.83-0.081
			C184.303,151.658,185.002,151.378,185.702,151.098z"/>
		<path class="st20" d="M147.468,144.799c-1.036,0.835-2.073,1.671-3.112,2.504c-0.361,0.289-0.73,0.569-1.096,0.854
			c-1.389,1.039-2.775,2.083-4.168,3.118c-3.51,2.606-7.021,5.208-10.531,7.812c-0.667,0.341-1.359,0.644-1.999,1.03
			c-1.753,1.056-1.96,0.846-2.245-1.102c-0.527-3.584-1.288-7.134-2.018-11.057c-1.113,0.814-1.842,1.348-2.568,1.88
			c1.123-1.399,2.244-2.798,3.367-4.198c2.654-3.007,5.33-5.994,7.955-9.024c3.811-4.4,7.583-8.83,11.371-13.247
			c1.26-1.402,2.521-2.804,3.779-4.205l0,0c1.168-0.633,1.344,0.058,1.252,0.979c-0.331,3.317-0.656,6.634-1.047,9.944
			c-0.595,5.03-1.246,10.054-1.853,15.083c-0.029,0.236,0.142,0.498,0.29,0.977C145.8,145.656,146.635,145.227,147.468,144.799z"/>
		<path class="st12" d="M153.344,140.586c-1.122,0.841-2.243,1.682-3.365,2.523C151.101,142.268,152.222,141.427,153.344,140.586z"
			/>
		<path class="st20" d="M173.104,178.002c0.688-0.964,1.35-1.947,2.07-2.885c0.373-0.484,0.854-0.887,1.285-1.327
			c-0.5,0.971-1.002,1.942-1.566,3.04c0.232,0.101,0.476,0.309,0.686,0.279c5.616-0.787,11.223-1.635,16.845-2.392
			c2.881-0.389,5.779-0.676,8.679-0.878c0.588-0.04,1.216,0.51,1.827,0.788h0.002c-0.699,0.562-1.398,1.124-2.098,1.686
			c-4.08,3.589-8.164,7.171-12.236,10.767c-4.334,3.826-8.654,7.665-12.981,11.499c-1.258,0.984-2.516,1.969-3.773,2.954
			c0.531-0.69,1.062-1.38,1.683-2.187c-4.409-0.939-8.624-1.837-13.147-2.8c0.768-1.337,1.488-2.595,2.212-3.853
			C166.094,187.796,169.6,182.899,173.104,178.002z"/>
		<path class="st18" d="M181.925,166.231c0.841-1.122,1.682-2.243,2.521-3.365C183.606,163.988,182.766,165.109,181.925,166.231z"/>
		<path class="st14" d="M146.203,119.164c-1.259,1.4-2.52,2.803-3.779,4.205C143.684,121.967,144.944,120.564,146.203,119.164z"/>
		<path class="st15" d="M171.842,201.533c1.258-0.985,2.516-1.97,3.773-2.954c0.268,0.483,0.451,1.306,0.817,1.398
			c3.418,0.866,6.874,1.587,10.308,2.395c2.326,0.547,4.639,1.159,6.948,1.78c0.062,0.017,0.003,0.479,0,0.734l0,0
			c-0.141,0.14-0.281,0.278-0.422,0.418l0,0c-0.279,0.141-0.56,0.28-0.84,0.421l0,0c-1.541,0.841-3.081,1.682-4.621,2.522l0,0
			c-0.141,0.14-0.281,0.279-0.422,0.419c-0.98,0.56-1.961,1.12-2.942,1.679v0.001c-1.54,0.842-3.081,1.683-4.62,2.523
			c-0.421,0.278-0.842,0.558-1.263,0.837c-0.139,0.002-0.278,0.003-0.418,0.005c-0.42,0.278-0.841,0.557-1.264,0.836
			c-0.137,0.003-0.276,0.005-0.414,0.006c-0.422,0.278-0.844,0.558-1.264,0.837c-5.536,3.084-11.054,6.202-16.613,9.242
			c-7.002,3.832-14.007,7.663-21.074,11.373c-4.467,2.346-9.051,4.47-13.582,6.692c3.336-2.926,6.637-5.893,10.017-8.768
			c4.768-4.056,9.603-8.032,14.392-12.063c6.123-5.151,12.247-10.299,18.33-15.494C168.462,204.841,170.121,203.151,171.842,201.533
			z"/>
		<path class="st14" d="M200.833,176.313c0.699-0.562,1.398-1.124,2.098-1.686C202.231,175.189,201.532,175.752,200.833,176.313z"/>
		<path class="st21" d="M179.821,212.87c1.539-0.841,3.08-1.682,4.62-2.523C182.901,211.188,181.36,212.029,179.821,212.87z"/>
		<path class="st21" d="M187.806,208.248c1.54-0.841,3.08-1.682,4.621-2.522C190.886,206.566,189.346,207.407,187.806,208.248z"/>
		<path class="st21" d="M184.441,210.346c0.981-0.559,1.962-1.119,2.942-1.679C186.403,209.227,185.423,209.787,184.441,210.346z"/>
		<path class="st21" d="M176.877,214.548c0.423-0.279,0.844-0.558,1.264-0.836C177.721,213.99,177.3,214.269,176.877,214.548z"/>
		<path class="st21" d="M175.199,215.391c0.42-0.279,0.842-0.559,1.262-0.837C176.041,214.832,175.619,215.111,175.199,215.391z"/>
		<path class="st21" d="M178.559,213.707c0.421-0.279,0.842-0.559,1.263-0.837C179.4,213.148,178.979,213.428,178.559,213.707z"/>
		<path class="st21" d="M192.427,205.726c0.28-0.141,0.561-0.28,0.84-0.421C192.987,205.445,192.707,205.585,192.427,205.726z"/>
		<path class="st21" d="M187.384,208.667c0.141-0.14,0.281-0.279,0.422-0.419C187.665,208.388,187.524,208.527,187.384,208.667z"/>
		<path class="st21" d="M193.267,205.305c0.141-0.14,0.281-0.278,0.422-0.418C193.548,205.026,193.407,205.165,193.267,205.305z"/>
		<path class="st11" d="M185.702,151.098c-0.7,0.28-1.399,0.56-2.101,0.84C184.303,151.658,185.002,151.378,185.702,151.098z"/>
		<path class="st8" d="M173.104,178.002c-3.504,4.897-7.01,9.794-10.515,14.692c-1.153,1.467-2.302,2.938-3.462,4.399
			c-0.514,0.646-1.051,1.273-1.576,1.909c0.338-0.992,0.676-1.985,1.046-3.07c-3.56-0.887-7.324,0.068-10.563-2.024
			c0.248-1.034,0.471-1.962,0.691-2.89c1.121-2.941,2.242-5.883,3.363-8.824c0.279-0.509,0.636-0.992,0.824-1.533
			c0.599-1.718,1.137-3.458,1.697-5.189c-0.287,1.288-0.574,2.576-0.937,4.204c6.054-0.858,11.724-1.696,17.407-2.421
			C171.713,177.175,172.428,177.737,173.104,178.002z"/>
		<path class="st7" d="M148.725,191.019c-0.221,0.928-0.443,1.855-0.691,2.89c3.239,2.093,7.004,1.138,10.563,2.024
			c-0.37,1.085-0.708,2.078-1.046,3.07c-5.981,7.876-11.957,15.755-17.945,23.626c-2.572,3.38-5.159,6.747-7.76,10.104
			c-0.334,0.432-0.789,0.769-1.188,1.149c0-0.281,0-0.562,0-0.843c0.141-0.279,0.28-0.559,0.421-0.839
			c0.14-0.281,0.28-0.561,0.42-0.841c0.956-1.958,1.976-3.889,2.853-5.882c1.166-2.651,2.221-5.353,3.324-8.031
			c2.299-5.584,4.608-11.164,6.893-16.754c0.855-2.093,1.652-4.208,2.477-6.313C147.605,193.261,148.165,192.14,148.725,191.019z"/>
		<path class="st8" d="M128.561,159.086c3.511-2.604,7.021-5.206,10.531-7.812c1.393-1.035,2.779-2.079,4.168-3.118
			c1.719,1.537,0.719,3.363,0.514,5.091c-0.045,0.389-0.43,0.739-0.469,1.126c-0.32,3.2-0.585,6.406-0.888,9.607
			c-0.114,1.204-0.282,2.403-0.458,3.865c0.625-0.104,1.385-0.232,2.145-0.359c-0.645,0.28-1.268,0.725-1.938,0.813
			c-2.705,0.358-5.207,1.149-7.307,2.97c-2.101,0.841-4.202,1.681-6.304,2.521c-1.011,0.074-1.581-0.105-1.729-1.394
			c-0.358-3.133-0.972-6.238-1.511-9.53c-1,0.374-1.615,0.604-2.229,0.835c1.388-1.111,2.786-2.209,4.159-3.338
			C127.717,159.978,128.125,159.515,128.561,159.086z"/>
		<path class="st8" d="M123.088,163.699c-0.561,0.422-1.121,0.843-1.682,1.264C121.967,164.542,122.527,164.121,123.088,163.699z"/>
		<path class="st6" d="M128.556,173.79c2.102-0.84,4.203-1.68,6.304-2.521c1.328-0.558,2.678-1.072,3.982-1.684
			c2.053-0.961,2.936-0.463,2.717,1.734c-0.247,2.474-0.579,4.944-1.006,7.394c-0.422,2.415,0.139,2.928,2.644,2.477
			c3.021-0.544,6.071-0.933,9.267-1.413c-0.147,0.948-0.261,1.683-0.375,2.417c-1.121,2.941-2.242,5.883-3.363,8.824
			c-0.56,1.121-1.119,2.242-1.68,3.361c-1.936-0.436-3.923-0.726-5.785-1.375c-0.859-0.3-1.474-1.303-2.199-1.986
			c0.28-2.271,0.632-4.534,0.818-6.813c0.184-2.245-0.393-2.737-2.646-2.456c-2.057,0.257-4.104,0.574-6.155,0.865
			c-1.751,0.135-2.493-0.628-2.569-2.428c-0.063-1.477-0.426-2.975-0.906-4.376c-0.127-0.368-1.232-0.654-1.813-0.553
			c-0.932,0.164-1.801,0.684-2.696,1.053C124.914,175.471,126.734,174.631,128.556,173.79z"/>
		<path class="st3" d="M131.077,182.615c2.051-0.291,4.099-0.608,6.155-0.865c2.254-0.281,2.83,0.211,2.646,2.456
			c-0.187,2.278-0.538,4.542-0.818,6.813c-0.279,0.561-0.561,1.121-0.84,1.681c-2.381-0.279-4.763-0.56-7.144-0.84
			c-0.562-2.333-1.097-4.674-1.701-6.995c-0.167-0.638-0.542-1.222-0.82-1.829C129.396,182.896,130.236,182.755,131.077,182.615z"/>
		<path class="st7" d="M152.088,182.194c0.114-0.734,0.228-1.469,0.375-2.417c-3.195,0.48-6.245,0.869-9.267,1.413
			c-2.505,0.451-3.065-0.062-2.644-2.477c0.427-2.449,0.759-4.92,1.006-7.394c0.219-2.197-0.664-2.695-2.717-1.734
			c-1.305,0.611-2.654,1.126-3.982,1.684c2.1-1.82,4.602-2.611,7.307-2.97c0.67-0.088,1.293-0.532,1.938-0.813
			c0.139-0.001,0.279-0.001,0.418-0.001c0.562-0.28,1.122-0.56,1.683-0.84c4.503-1.813,9.005-3.627,14.109-5.683
			c-0.634,1.856-1.06,3.178-1.535,4.481c-1.134,3.107-2.282,6.211-3.46,9.302c-0.11,0.29-0.467,0.485-0.709,0.725
			c-0.561,1.731-1.099,3.472-1.697,5.189C152.724,181.202,152.367,181.686,152.088,182.194z"/>
		<path class="st8" d="M146.204,166.646c-0.561,0.28-1.121,0.56-1.683,0.84C145.083,167.206,145.644,166.927,146.204,166.646z"/>
		<circle class="st1" cx="103.114" cy="219.574" r="32.111"/>
	</g>
</g>
</svg>
