<?xml version="1.0" encoding="utf-8"?>
<!-- Generator: Adobe Illustrator 16.0.0, SVG Export Plug-In . SVG Version: 6.00 Build 0)  -->
<!DOCTYPE svg PUBLIC "-//W3C//DTD SVG 1.1//EN" "http://www.w3.org/Graphics/SVG/1.1/DTD/svg11.dtd">
<svg version="1.1" xmlns="http://www.w3.org/2000/svg" xmlns:xlink="http://www.w3.org/1999/xlink" x="0px" y="0px" width="324px"
	 height="324px" viewBox="0 0 324 324" style="enable-background:new 0 0 324 324;" xml:space="preserve">
<style type="text/css">
<![CDATA[
	.st0{fill:#232D38;}
	.st1{fill:none;stroke:#39C0C4;stroke-width:12;stroke-miterlimit:10;}
]]>
</style>
<g id="Layer_1">
</g>
<g id="circle">
	<circle class="st1" cx="162.001" cy="162" r="142.2"/>
	<g>
		<path class="st0" d="M173.427,162.004l26.711-46.125l12.908,46.125l-12.908,46.114L173.427,162.004L173.427,162.004z
			 M160.406,169.495l26.716,46.118l-46.528-11.92l-33.613-34.198H160.406L160.406,169.495z M187.116,108.383l-26.71,46.125h-53.425
			l33.613-34.201L187.116,108.383L187.116,108.383z M225.25,146.307l-16.297-60.626l-60.825,16.248l-9.004,15.831l-18.271-0.132
			l-44.52,44.381l44.52,44.371h0.002l18.263-0.135l9.016,15.829l60.818,16.246l16.297-60.615l-9.255-15.7L225.25,146.307
			L225.25,146.307z"/>
	</g>
</g>
</svg>
