<?xml version="1.0" encoding="utf-8"?>
<!-- Generator: Adobe Illustrator 16.0.0, SVG Export Plug-In . SVG Version: 6.00 Build 0)  -->
<!DOCTYPE svg PUBLIC "-//W3C//DTD SVG 1.1//EN" "http://www.w3.org/Graphics/SVG/1.1/DTD/svg11.dtd">
<svg version="1.1" id="Layer_1" xmlns="http://www.w3.org/2000/svg" xmlns:xlink="http://www.w3.org/1999/xlink" x="0px" y="0px"
	 width="324px" height="324px" viewBox="0 0 324 324" enable-background="new 0 0 324 324" xml:space="preserve">
<path fill-rule="evenodd" clip-rule="evenodd" fill="#484848" d="M171.625,80.2c3.971,0.361,7.855,1.341,11.737,2.26
	c32.227,7.634,57.127,34.778,61.935,67.475c0.279,1.902,0.745,3.794,0.903,5.705c0,4.483,0.237,8.798,0,13.448
	c-0.022,0.441-0.076,0.545-0.106,0.85c-0.395,3.967-1.288,7.865-2.211,11.742c-7.604,31.945-34.858,56.832-67.418,61.615
	c-1.902,0.279-3.402,0.611-5.705,0.904c-4.482,0-8.072,0.238-13.448,0c-0.441-0.02-0.634-0.107-0.937-0.137
	c-3.967-0.395-7.778-1.256-11.656-2.18c-31.961-7.623-56.84-34.869-61.615-67.422c-0.263-1.793-0.732-3.514-0.904-5.373
	c-0.43-4.65-0.866-10.413-0.122-13.775c0.048-0.218,0.094-0.891,0.094-0.891s1.419-7.825,2.346-11.703
	c7.635-31.975,34.856-56.832,67.418-61.615c1.902-0.28,5.705-0.904,5.705-0.904 M145.967,206.91c0.076-0.148,0.16-0.271,0.206-0.406
	c5.18-15.518,10.353-31.037,15.55-46.55c0.23-0.687,0.126-1.249-0.107-1.887c-3.559-9.729-7.117-19.458-10.618-29.208
	c-0.365-1.016-0.934-1.299-1.908-1.365c-2.179-0.148-4.361-0.32-6.522-0.618c-1.75-0.242-2.72-1.585-2.535-3.216
	c0.194-1.71,1.33-2.772,3.058-2.787c0.873-0.008,1.747,0.075,2.619,0.133c6.217,0.419,12.435,0.869,18.67,0.764
	c5.848-0.099,11.687-0.453,17.518-0.899c1.346-0.103,2.509,0.164,3.237,1.423c1.146,1.979,0.03,4.273-2.373,4.622
	c-2.104,0.305-4.239,0.406-6.364,0.563c-2.02,0.15-2.022,0.131-1.396,1.999c8.456,25.17,16.909,50.341,25.386,75.503
	c0.153,0.453,0.067,1.119,0.739,1.314c3.279-10.818,6.556-21.619,9.821-32.422c0.457-1.514,0.851-3.047,1.291-4.564
	c2.056-7.086,2.396-14.182,0.156-21.298c-1.455-4.621-3.826-8.785-6.364-12.873c-2.046-3.294-4.006-6.634-4.932-10.464
	c-1.517-6.274,0.975-12.513,6.165-15.426c1.933-1.085,4.033-1.497,6.717-1.55c-19.209-16.353-40.75-22.537-65.072-17.552
	c-19.584,4.013-34.79,14.841-46.404,31.655c2.318,0,4.111,0.038,5.902-0.007c5.519-0.14,11.033-0.375,16.537-0.82
	c0.762-0.062,1.529-0.117,2.292-0.103c1.646,0.031,2.714,0.978,2.913,2.52c0.227,1.761-0.572,3.151-2.271,3.414
	c-2.315,0.358-4.665,0.568-7.007,0.658c-1.526,0.059-1.777,0.455-1.283,1.918c8.571,25.361,17.089,50.74,25.635,76.111
	C145.385,205.971,145.359,206.592,145.967,206.91z M165.671,169.191c-0.119,0.008-0.237,0.016-0.355,0.023
	c-1.187,3.451-2.372,6.902-3.561,10.352c-5.948,17.264-11.9,34.527-17.834,51.795c-0.25,0.729-0.935,1.504,0.619,1.916
	c14.428,3.828,28.723,3.531,42.922-1.127c0.843-0.275,1.081-0.459,0.721-1.436c-5.842-15.855-11.625-31.732-17.422-47.604
	C169.064,178.471,167.367,173.832,165.671,169.191z M131.94,228.348c-11.741-32.166-23.356-63.988-35.057-96.042
	C80.438,169.412,97.27,211.816,131.94,228.348z M201.754,225.689c18.521-11.598,30.419-27.807,34.729-49.25
	c3.414-16.982,0.878-33.195-7.215-48.512c-0.114,1.05-0.06,2.079,0.026,3.104c0.293,3.502,0.065,6.988-0.329,10.467
	c-0.788,6.94-3.066,13.463-5.367,20.014c-7.28,20.726-14.409,41.505-21.574,62.269C201.84,224.314,201.406,224.838,201.754,225.689z
	"/>
<circle fill-rule="evenodd" clip-rule="evenodd" fill="none" stroke="#21759C" stroke-width="12" stroke-miterlimit="10" cx="164.2" cy="162.201" r="142.2"/>
</svg>
