<?xml version="1.0" encoding="utf-8"?>
<!-- Generator: Adobe Illustrator 16.0.0, SVG Export Plug-In . SVG Version: 6.00 Build 0)  -->
<!DOCTYPE svg PUBLIC "-//W3C//DTD SVG 1.1 Tiny//EN" "http://www.w3.org/Graphics/SVG/1.1/DTD/svg11-tiny.dtd">
<svg version="1.1" baseProfile="tiny" id="Layer_1" xmlns="http://www.w3.org/2000/svg" xmlns:xlink="http://www.w3.org/1999/xlink"
	 x="0px" y="0px" width="288px" height="288px" viewBox="0 0 288 288" xml:space="preserve">
<g>
	<path fill="#C5C866" d="M50.828,135.296h17.537c0-22.214,0-44.476,0-67.155c25.2,0,50.079,0,75.618,0c0,1.418,0,2.747,0,4.087
		c0,9.418,0,18.847,0.026,28.267c0.021,6.66,3.116,9.715,9.865,9.739c10.283,0.04,20.54,0.014,30.821,0.04
		c0.255,0,0.54,0.092,1.522,0.271c0,3.992,0,8.156,0,12.305c0,3.98,0,7.956,0,12.206l16.872-0.051
		c-0.003-9.323-0.33-18.51,0.13-27.657c0.313-6.454-1.774-11.119-6.439-15.574c-12.37-11.868-24.429-24.109-36.437-36.349
		c-2.988-3.052-6.235-4.354-10.465-4.342c-25.458,0.103-50.928,0.05-76.4,0.05c-1.647,0-3.297,0-5.333,0H51.125
		c0.006,11.901-0.003,23.804-0.104,35.705c-0.006,0.644-0.08,1.311-0.193,1.979v32.949
		C50.828,126.925,50.828,130.945,50.828,135.296z M161.143,80.768c4.226,4.241,8.066,8.079,12.188,12.214c-4.099,0-8.013,0-12.188,0
		C161.143,89.093,161.143,85.24,161.143,80.768z"/>
	<path fill="#DCDEA3" d="M186.218,110.545c-0.982-0.179-1.268-0.271-1.522-0.271c-10.281-0.026-20.538,0-30.821-0.04
		c-6.749-0.023-9.844-3.079-9.865-9.739c-0.026-9.42-0.026-18.849-0.026-28.267c0-1.34,0-2.668,0-4.087c-25.539,0-50.418,0-75.618,0
		c0,22.679,0,44.94,0,67.155c39.398,0,78.422,0,117.853,0c0-0.083,0-0.159,0-0.24c0-4.25,0-8.226,0-12.206
		C186.218,118.701,186.218,114.537,186.218,110.545z"/>
	<path fill="#D1D385" d="M215.361,76.481c-9.408-0.017-18.863,0.267-28.269-0.194c-2.709-0.129-5.695-1.935-7.835-3.814
		c-1.234-1.108-1.392-3.864-1.419-5.888c-0.127-10.643-0.08-21.3-0.08-32.02c-36.792,0-73.139,0-109.614,0
		c0,5.517,0,10.681,0,16.569c2.036,0,3.686,0,5.333,0c25.473,0,50.943,0.052,76.4-0.05c4.229-0.012,7.477,1.29,10.465,4.342
		c12.008,12.24,24.066,24.48,36.437,36.349c4.665,4.455,6.752,9.12,6.439,15.574c-0.46,9.147-0.133,18.334-0.13,27.657l0.489-0.001
		l-0.489,0.001c0,0.08,0.003,0.159,0.003,0.239c5.65,0,10.826,0,16.029,0c0.08,0,0.157,0,0.237,0c0.128,0,0.255,0,0.383,0
		c0-19.699,0-39.052,0-58.763C218.119,76.481,216.754,76.481,215.361,76.481z"/>
	<path fill="#FFFFFF" d="M161.143,80.768c0,4.473,0,8.325,0,12.214c4.176,0,8.09,0,12.188,0
		C169.209,88.846,165.368,85.009,161.143,80.768z"/>
	<path fill="#FFFFFF" d="M41.731,135.412c3.455,0,6.054,0,9.096,0c0-0.039,0-0.077,0-0.116h-0.421h0.421c0-4.351,0-8.371,0-13.529
		C47.489,126.78,44.785,130.84,41.731,135.412z"/>
	<path fill="#FFFFFF" d="M194.976,47.296c0,4.099,0,8.04,0,12.124c4.075,0,7.858,0,11.854,0
		C202.808,55.31,198.974,51.395,194.976,47.296z"/>
	<path fill="#D85005" d="M34.347,253.442c73.338,0,146.25,0,219.148,0c0-33.753,0-67.15,0-100.624c-73.204,0-146.104,0-219.148,0
		C34.347,186.471,34.347,219.79,34.347,253.442z M103.471,194.694c27.022-0.03,54.011-0.03,81.042,0
		c6.34,0,10.254,3.348,10.127,8.627c-0.102,5.105-3.892,8.225-10.127,8.248c-13.503,0.026-27.004,0-40.505,0
		c-13.516,0-27.022,0.026-40.522,0c-6.363,0-10.269-3.375-10.141-8.657C93.449,197.834,97.289,194.694,103.471,194.694z"/>
	<path fill="#B44224" d="M103.486,211.569c13.5,0.026,27.007,0,40.522,0c13.501,0,27.002,0.026,40.505,0
		c6.235-0.023,10.025-3.143,10.127-8.248c0.127-5.279-3.787-8.627-10.127-8.627c-27.031-0.03-54.021-0.03-81.042,0
		c-6.182,0-10.022,3.14-10.126,8.218C93.217,208.194,97.123,211.569,103.486,211.569z"/>
	<path fill="#FFFFFF" d="M237.406,135.244h0.238H237.406h-0.249c0,0.029,0,0.061,0,0.09c2.968,0,5.647,0,9.022,0
		c-3.042-4.548-5.749-8.593-9.022-13.502c0,5.181,0,9.218,0,13.412H237.406z"/>
	<path fill="#B2B533" d="M68.145,34.564c36.475,0,72.822,0,109.614,0c0,10.72-0.047,21.377,0.08,32.02
		c0.027,2.024,0.185,4.78,1.419,5.888c2.14,1.879,5.126,3.685,7.835,3.814c9.405,0.461,18.86,0.178,28.269,0.194
		c1.393,0,2.758,0,4.381,0c0,19.711,0,39.064,0,58.763h17.415c0-4.194,0-8.231,0-13.412V85.696
		c-0.994-4.896-1.154-10.046-0.335-15.542c0.594-3.891-1.157-6.958-3.965-9.729c-13.015-12.858-25.975-25.768-38.784-38.819
		c-3.016-3.067-6.259-4.303-10.459-4.292c-40.691,0.077-81.351,0.039-122.016,0.052c-7.616,0-10.488,2.86-10.488,10.372
		c0,7.799,0.01,15.597,0.015,23.396h17.021C68.145,45.246,68.145,40.082,68.145,34.564z M194.976,47.296
		c3.998,4.099,7.832,8.013,11.854,12.124c-3.995,0-7.778,0-11.854,0C194.976,55.336,194.976,51.395,194.976,47.296z"/>
	<path fill="#A23C04" d="M270.527,146.713c-0.023-3.303-1.234-6.959-2.985-9.77c-6.033-9.662-11.96-19.491-19.021-28.381
		c-5.695-7.181-9.702-14.664-11.364-22.866v36.136c3.273,4.909,5.98,8.954,9.022,13.502c-3.375,0-6.055,0-9.022,0
		c0-0.03,0-0.061,0-0.09h-17.415c-0.128,0-0.255,0-0.383,0c-0.08,0-0.157,0-0.237,0c-5.203,0-10.379,0-16.029,0
		c0-0.081-0.003-0.159-0.003-0.239l-16.872,0.051c0,0.082,0,0.157,0,0.24c-39.431,0-78.455,0-117.853,0H50.828
		c0,0.039,0,0.077,0,0.116c-3.042,0-5.642,0-9.096,0c3.054-4.572,5.757-8.632,9.096-13.645V88.818
		c-0.301,1.782-0.954,3.583-1.881,5.014c-9.381,14.368-19.107,28.514-28.373,42.957c-1.855,2.888-3.078,6.725-3.102,10.129
		c-0.208,37.724-0.13,75.425-0.13,113.146c0,7.809,2.784,10.593,10.667,10.622c38.707,0,77.398,0,116.102,0
		c38.707,0,77.38,0,116.083-0.029c7.604,0,10.465-2.861,10.465-10.385C270.658,222.42,270.735,184.564,270.527,146.713z
		 M253.495,253.442c-72.898,0-145.81,0-219.148,0c0-33.652,0-66.972,0-100.624c73.044,0,145.944,0,219.148,0
		C253.495,186.292,253.495,219.689,253.495,253.442z"/>
</g>
</svg>
