<?xml version="1.0" encoding="utf-8"?>
<!-- Generator: Adobe Illustrator 16.0.0, SVG Export Plug-In . SVG Version: 6.00 Build 0)  -->
<!DOCTYPE svg PUBLIC "-//W3C//DTD SVG 1.1//EN" "http://www.w3.org/Graphics/SVG/1.1/DTD/svg11.dtd">
<svg version="1.1" id="Layer_1" xmlns="http://www.w3.org/2000/svg" xmlns:xlink="http://www.w3.org/1999/xlink" x="0px" y="0px"
	 width="144px" height="144px" viewBox="0 0 144 144" enable-background="new 0 0 144 144" xml:space="preserve">
<path fill-rule="evenodd" clip-rule="evenodd" fill="#196D94" d="M138.923,93.175c0,0.522,0,1.046,0,1.568
	c-0.769,1.782-2.119,2.484-4.047,2.374c-1.731-0.1-3.474-0.021-5.211-0.021c-1.765,0-3.529,0-5.288,0c0,2.873,0,5.581,0,8.361
	c3.564,0,7.035,0.066,10.503-0.025c1.924-0.052,3.279,0.596,4.043,2.383c0,0.522,0,1.045,0,1.568
	c-0.771,1.786-2.127,2.451-4.057,2.377c-2.65-0.101-5.308-0.024-7.963-0.024c-0.852,0-1.703,0-2.652,0
	c0.152,3.723,0.251,7.242-2.566,10.045c-2.809,2.795-6.364,2.561-9.95,2.508c0,3.635-0.068,7.11,0.027,10.582
	c0.053,1.928-0.595,3.283-2.379,4.053c-0.523,0-1.046,0-1.568,0c-1.787-0.763-2.468-2.117-2.38-4.041
	c0.1-2.168,0.026-4.343,0.027-6.516c0.001-1.33,0-2.66,0-3.991c-2.88,0-5.589,0-8.366,0c0,3.563-0.068,7.036,0.027,10.504
	c0.053,1.927-0.601,3.275-2.38,4.044c-0.522,0-1.046,0-1.568,0c-1.786-0.764-2.48-2.115-2.375-4.043
	c0.101-1.819,0.021-3.649,0.021-5.475c0-1.678,0-3.356,0-5.031c-2.874,0-5.584,0-8.364,0c0,3.563-0.071,7.037,0.027,10.505
	c0.056,1.932-0.601,3.275-2.381,4.044c-0.522,0-1.045,0-1.568,0c-1.781-0.766-2.476-2.112-2.375-4.042
	c0.104-1.993,0.022-3.995,0.022-5.994c0-1.504,0-3.009,0-4.512c-2.872,0-5.581,0-8.364,0c0,3.563-0.068,7.036,0.027,10.504
	c0.053,1.927-0.602,3.275-2.381,4.044c-0.522,0-1.045,0-1.568,0c-1.78-0.767-2.491-2.107-2.375-4.041
	c0.106-1.775,0.022-3.562,0.022-5.343c0-1.722,0-3.443,0-5.163c-2.871,0-5.58,0-8.362,0c0,3.563-0.065,7.035,0.026,10.503
	c0.05,1.922-0.602,3.276-2.382,4.044c-0.523,0-1.046,0-1.568,0c-1.783-0.766-2.48-2.112-2.375-4.043
	c0.104-1.906,0.022-3.822,0.022-5.734c0-1.591,0-3.183,0-4.771c-2.875,0-5.584,0-8.367,0c0,3.562-0.068,7.034,0.027,10.503
	c0.053,1.927-0.598,3.277-2.379,4.046c-0.523,0-1.046,0-1.569,0c-1.792-0.764-2.45-2.124-2.382-4.05
	c0.099-2.782,0.028-5.57,0.029-8.355c0-0.722,0-1.442,0-2.234c-1.36,0-2.53,0.008-3.701-0.002c-5.032-0.042-8.832-3.846-8.848-8.855
	c-0.004-1.201,0-2.403,0-3.691c-3.638,0-7.114-0.069-10.586,0.027c-1.929,0.054-3.286-0.588-4.052-2.379c0-0.523,0-1.046,0-1.568
	c0.755-1.801,2.12-2.47,4.041-2.378c1.994,0.095,3.996,0.021,5.995,0.021c1.503,0,3.007,0,4.513,0c0-2.874,0-5.583,0-8.361
	c-3.563,0-7.036-0.068-10.504,0.027c-1.928,0.054-3.281-0.591-4.044-2.38c0-0.522,0-1.046,0-1.568
	c0.76-1.791,2.114-2.487,4.041-2.375c1.688,0.099,3.388,0.02,5.082,0.02c1.809-0.001,3.618,0,5.426,0c0-2.874,0-5.583,0-8.362
	c-3.563,0-7.036-0.066-10.504,0.025c-1.922,0.052-3.284-0.585-4.044-2.379c0-0.522,0-1.045,0-1.568
	c0.758-1.794,2.11-2.481,4.04-2.375c1.863,0.104,3.736,0.022,5.604,0.022c1.635,0,3.27,0,4.906,0c0-2.872,0-5.582,0-8.365
	c-3.561,0-7.034-0.066-10.502,0.026c-1.923,0.051-3.283-0.59-4.047-2.379c0-0.522,0-1.045,0-1.568
	c0.761-1.791,2.118-2.475,4.043-2.375c1.906,0.1,3.821,0.022,5.732,0.022c1.591,0,3.182,0,4.771,0c0-2.87,0-5.579,0-8.361
	c-3.563,0-7.034-0.064-10.501,0.025c-1.92,0.049-3.281-0.595-4.045-2.382c0-0.523,0-1.046,0-1.568
	c0.763-1.791,2.119-2.475,4.045-2.374c1.906,0.1,3.822,0.022,5.734,0.022c1.591,0,3.182,0,4.77,0c0-2.875,0-5.585,0-8.367
	c-3.562,0-7.035-0.068-10.503,0.027c-1.926,0.053-3.28-0.593-4.046-2.378c0-0.523,0-1.046,0-1.569
	c0.761-1.798,2.127-2.449,4.051-2.381c2.738,0.097,5.481,0.027,8.222,0.028c0.765,0,1.53,0,2.366,0c0-1.356-0.01-2.526,0.002-3.695
	c0.05-5.039,3.812-8.801,8.852-8.851c1.201-0.012,2.403-0.002,3.69-0.002c0-3.644,0.066-7.119-0.026-10.59
	c-0.051-1.925,0.591-3.285,2.382-4.05c0.523,0,1.046,0,1.569,0c1.784,0.767,2.475,2.118,2.374,4.045
	c-0.102,1.95-0.022,3.91-0.022,5.865c0,1.547,0,3.095,0,4.638c2.876,0,5.586,0,8.367,0c0-3.563,0.067-7.036-0.027-10.505
	c-0.052-1.925,0.59-3.281,2.379-4.043c0.522,0,1.045,0,1.568,0c1.787,0.764,2.462,2.123,2.379,4.044
	c-0.097,2.254-0.026,4.517-0.027,6.775c-0.001,1.243,0,2.486,0,3.727c2.882,0,5.591,0,8.366,0c0-3.564,0.068-7.037-0.027-10.505
	c-0.052-1.925,0.592-3.279,2.379-4.042c0.523,0,1.046,0,1.568,0c1.787,0.765,2.474,2.121,2.375,4.046
	c-0.098,1.907-0.019,3.823-0.018,5.735c0,1.591,0,3.182,0,4.766c2.873,0,5.583,0,8.361,0c0-3.564,0.071-7.038-0.027-10.507
	c-0.056-1.93,0.59-3.28,2.38-4.04c0.523,0,1.046,0,1.568,0c1.787,0.764,2.473,2.118,2.376,4.044
	c-0.102,1.994-0.022,3.997-0.022,5.995c0,1.504,0,3.008,0,4.508c2.874,0,5.583,0,8.363,0c0-3.565,0.068-7.038-0.026-10.506
	c-0.053-1.926,0.589-3.281,2.381-4.041c0.522,0,1.046,0,1.568,0c1.786,0.765,2.483,2.114,2.375,4.044
	c-0.103,1.819-0.022,3.648-0.022,5.473c0,1.678,0,3.356,0,5.029c2.873,0,5.582,0,8.362,0c0-3.564,0.065-7.037-0.026-10.505
	c-0.051-1.922,0.591-3.281,2.383-4.041c0.522,0,1.045,0,1.568,0c1.791,0.765,2.458,2.122,2.376,4.051
	c-0.102,2.433-0.023,4.873-0.023,7.31c0,1.069,0,2.139,0,3.279c1.306,0,2.432-0.001,3.558,0c5.179,0.004,8.953,3.771,8.988,8.978
	c0.008,1.159,0.001,2.318,0.001,3.566c3.642,0,7.117,0.067,10.589-0.026c1.927-0.052,3.287,0.592,4.052,2.383
	c0,0.523,0,1.046,0,1.569c-0.77,1.781-2.12,2.484-4.049,2.373c-1.732-0.1-3.475-0.021-5.213-0.021c-1.765,0-3.529,0-5.287,0
	c0,2.877,0,5.587,0,8.367c3.563,0,7.037,0.071,10.505-0.028c1.93-0.055,3.277,0.597,4.044,2.38c0,0.522,0,1.045,0,1.568
	c-0.767,1.785-2.124,2.461-4.047,2.379c-2.299-0.098-4.604-0.025-6.906-0.026c-1.199,0-2.398,0-3.594,0c0,2.882,0,5.59,0,8.366
	c3.563,0,7.036,0.072,10.504-0.028c1.934-0.057,3.276,0.599,4.043,2.381c0,0.523,0,1.046,0,1.568
	c-0.769,1.781-2.119,2.486-4.047,2.375c-1.732-0.099-3.475-0.021-5.212-0.021c-1.765,0-3.529,0-5.289,0c0,2.878,0,5.588,0,8.364
	c3.564,0,7.036,0.068,10.505-0.027c1.926-0.053,3.279,0.592,4.043,2.38c0,0.523,0,1.046,0,1.568
	c-0.769,1.781-2.112,2.491-4.046,2.375c-1.732-0.104-3.475-0.021-5.213-0.021c-1.766,0-3.53,0-5.29,0c0,2.876,0,5.585,0,8.365
	c3.563,0,7.035,0.067,10.504-0.027C136.805,90.742,138.159,91.387,138.923,93.175z M32.326,98.137c5.644,0,11.133,0.042,16.62-0.047
	c0.78-0.013,1.614-0.563,2.306-1.037c0.671-0.46,1.196-1.137,1.777-1.727c1.612-1.636,3.559-2.438,5.859-2.422
	c2.832,0.02,5.665-0.048,8.495,0.036c1.173,0.035,1.79-0.203,2.31-1.415c1.74-4.057,6.408-5.909,10.489-4.352
	c4.094,1.561,6.315,6.036,5.072,10.217c-1.258,4.232-5.615,6.763-9.954,5.73c-3.212-0.764-5.154-2.91-6.224-6.011
	c-3.628,0-7.239-0.054-10.845,0.046c-0.699,0.019-1.448,0.544-2.055,0.995c-0.692,0.514-1.25,1.208-1.87,1.821
	c-1.594,1.578-3.506,2.367-5.756,2.359c-3.834-0.013-7.668-0.006-11.502-0.008c-1.555,0-3.111,0-4.697,0c0,3.205,0,6.268,0,9.306
	c21.972,0,43.857,0,65.791,0c0-4.068,0-8.032,0-11.995c0-0.436,0.106-0.907-0.023-1.3c-0.279-0.842-0.535-1.759-1.067-2.434
	c-0.859-1.087-1.942-1.994-2.916-2.992c-1.496-1.535-2.271-3.372-2.268-5.527c0.004-2.395,0.001-4.788,0.001-7.207
	c-0.484-0.205-0.927-0.381-1.359-0.577c-3.414-1.548-5.459-5.301-4.836-8.867c0.682-3.899,3.856-6.839,7.647-7.084
	c3.923-0.252,7.421,2.123,8.615,5.85c1.167,3.646-0.204,7.888-3.681,9.531c-2.133,1.008-2.275,2.301-2.23,4.201
	c0.157,6.712-0.729,4.839,3.974,9.619c1.536,1.563,2.334,3.432,2.328,5.637c-0.008,3.006-0.003,6.013-0.003,9.019
	c0,1.378,0,2.757,0,4.135c3.23,0,6.293,0,9.345,0c0-26.484,0-52.869,0-79.286c-3.133,0-6.195,0-9.345,0c0,0.778,0,1.469,0.001,2.16
	c0,6.1,0.005,12.199-0.002,18.299c-0.003,2.944-1.657,4.588-4.624,4.599c-3.094,0.012-6.188,0.03-9.28-0.002
	c-1.352-0.014-2.441,0.432-3.368,1.417c-1.044,1.11-2.154,2.158-3.227,3.243c-4.078,4.126-3.52,2.779-3.543,8.481
	c-0.01,2.255-0.8,4.158-2.385,5.744c-1.54,1.541-3.1,3.063-4.616,4.627c-1.736,1.791-3.813,2.607-6.316,2.6
	c-10.369-0.035-20.738-0.016-31.107-0.016c-0.504,0-1.009,0-1.53,0C32.326,88.45,32.326,93.226,32.326,98.137z M83.502,32.294
	c0,2.639-0.035,5.157,0.011,7.673c0.044,2.456-0.841,4.475-2.571,6.193c-4.479,4.451-8.926,8.935-13.41,13.381
	c-0.584,0.579-0.81,1.011-0.432,1.874c1.644,3.75,0.346,7.987-3.03,10.237c-3.268,2.177-7.649,1.765-10.456-0.984
	c-2.858-2.8-3.349-7.199-1.176-10.538c2.201-3.382,6.474-4.725,10.219-3.153c0.708,0.297,1.165,0.414,1.794-0.225
	c4.525-4.59,9.114-9.117,13.635-13.711c0.549-0.558,1.111-1.387,1.145-2.115c0.132-2.851,0.054-5.712,0.054-8.567
	c-4.93,0-9.734,0-14.603,0c0,3.358,0.005,6.62-0.001,9.883c-0.006,3.075-1.597,4.7-4.643,4.709
	c-4.573,0.016-9.146,0.008-13.719,0.009c-0.464,0-0.929,0-1.5,0c0,0.584,0,1.011,0,1.438c-0.002,3.876,0.008,7.752-0.008,11.628
	c-0.013,2.967-1.659,4.626-4.593,4.651c-1.96,0.016-3.92,0.006-5.879,0.007c-0.676,0-1.351,0-2.001,0c0,4.974,0,9.748,0,14.636
	c0.582,0,1.094,0,1.606,0c9.277-0.002,18.553,0.009,27.83-0.009c5.976-0.012,4.551,0.6,8.819-3.658c4.009-4,3.49-2.775,3.492-8.364
	c0.001-2.25,0.77-4.165,2.356-5.753c1.97-1.972,3.948-3.935,5.912-5.913c1.622-1.634,3.589-2.399,5.873-2.398
	c2.831,0.001,5.662,0.005,8.493,0.001c0.456-0.001,0.912-0.041,1.316-0.06c0-7.06,0-13.957,0-20.872
	C93.182,32.294,88.438,32.294,83.502,32.294z M40.625,60.438c0-4.011,0.143-7.927-0.037-11.828
	c-0.218-4.749,2.298-6.003,5.818-5.877c4.217,0.151,8.443,0.039,12.665,0.04c0.455,0,0.909,0,1.327,0c0-3.627,0-7.04,0-10.401
	c-9.431,0-18.762,0-28.068,0c0,9.407,0,18.707,0,28.067C35.08,60.438,37.762,60.438,40.625,60.438z M59.504,60.507
	c-2.301-0.021-4.178,1.794-4.226,4.086c-0.048,2.336,1.85,4.27,4.185,4.264c2.271-0.005,4.157-1.887,4.167-4.158
	C63.639,62.417,61.781,60.528,59.504,60.507z M93.939,76.181c2.272,0.01,4.174-1.861,4.2-4.132c0.025-2.282-1.825-4.19-4.099-4.225
	c-2.354-0.036-4.261,1.838-4.258,4.19C89.785,74.293,91.658,76.171,93.939,76.181z M81.409,95.021
	c0.015-2.272-1.856-4.174-4.129-4.198c-2.279-0.023-4.186,1.82-4.233,4.097c-0.049,2.325,1.868,4.276,4.191,4.266
	C79.511,99.176,81.396,97.295,81.409,95.021z"/>
</svg>
