<?xml version="1.0" encoding="utf-8"?>
<!-- Generator: Adobe Illustrator 16.0.0, SVG Export Plug-In . SVG Version: 6.00 Build 0)  -->
<!DOCTYPE svg PUBLIC "-//W3C//DTD SVG 1.1//EN" "http://www.w3.org/Graphics/SVG/1.1/DTD/svg11.dtd">
<svg version="1.1" id="Layer_1" xmlns="http://www.w3.org/2000/svg" xmlns:xlink="http://www.w3.org/1999/xlink" x="0px" y="0px"
	 width="144px" height="144px" viewBox="0 0 144 144" enable-background="new 0 0 144 144" xml:space="preserve">
<g>
	<ellipse fill="#010101" cx="103.826" cy="40.586" rx="11.087" ry="11.818"/>
</g>
<g>
	<path fill="none" d="M47.18,108.996c0,2.451-1.862,4.432-4.16,4.432h-0.715l2.5,6.906l5.656-15.242l-5.445,0.016
		C46.306,105.861,47.18,107.32,47.18,108.996z"/>
	<path fill="#010101" d="M43.02,88.951h20.226c2.775,0,5.023-2.398,5.023-5.355s-2.249-5.352-5.023-5.352H45.971L38.37,63.724
		l7.385,8.756l0.104-6.865c0.073-4.983-3.681-9.073-8.353-9.109l-7.739-0.061c-4.677-0.034-8.486,4.01-8.474,8.991l0.078,30.415
		c0.006,2.385,0.904,4.668,2.496,6.35c1.122,1.182,2.524,1.99,4.036,2.365l17.11,0.541l5.444-0.016l-5.657,15.242l-3.011,8.107
		l-1.743,4.695c-1.226,3.299,0.292,7.029,3.387,8.338c3.095,1.307,6.599-0.311,7.825-3.613l13.682-36.859
		c0.737-1.979,0.503-4.223-0.625-5.984c-1.118-1.746-2.985-2.805-4.98-2.805c-0.005,0-0.011,0-0.019,0
		C39.6,92.277,40.845,92.281,40.645,92.25c-2.413-0.408-4.317-2.17-5.146-4.436l-4.684-16.537l7.814,14.927
		C39.519,87.9,41.198,88.951,43.02,88.951z"/>
	<path fill="#BE1E2D" d="M42.303,113.428h0.715c2.298,0,4.159-1.98,4.159-4.432c0-1.676-0.875-3.135-2.162-3.889l-17.109-0.545
		H17.333l-7.171-38.876c-0.443-2.404-2.628-3.967-4.882-3.493c-2.254,0.471-3.722,2.801-3.278,5.203l7.83,42.451
		c0.383,2.082,2.093,3.58,4.079,3.58h0.716l-8.848,24.449c-0.551,1.523,0.161,3.234,1.59,3.818c1.425,0.588,3.032-0.168,3.584-1.691
		l9.615-26.578h15.791l5.432,15.012l3.011-8.105L42.303,113.428z"/>
</g>
<g>
	<g>
		<ellipse fill="#010101" cx="40.179" cy="40.586" rx="11.087" ry="11.818"/>
	</g>
</g>
<g>
	<g>
		<path fill="#D1D3D4" d="M69.328,2.073c-10.967,0-19.855,6.824-19.855,15.242c0,4.527,2.571,8.589,6.653,11.38l-2.752,5.859
			c-0.28,0.599-0.162,1.322,0.294,1.78c0.456,0.458,1.139,0.547,1.685,0.216l7.803-4.752c1.943,0.489,4.018,0.756,6.173,0.756
			c10.965,0,19.856-6.823,19.856-15.24C89.184,8.896,80.292,2.073,69.328,2.073z"/>
	</g>
</g>
<g>
	<path fill="none" d="M99.202,120.332l2.5-6.904h-0.716c-2.296,0-4.16-1.98-4.16-4.432c0-1.676,0.874-3.135,2.16-3.889l-5.443-0.018
		L99.202,120.332z"/>
	<path fill="#010101" d="M93.543,105.092l5.443,0.016l17.112-0.541c1.514-0.371,2.915-1.18,4.038-2.365
		c1.588-1.682,2.486-3.965,2.493-6.35l0.076-30.415c0.016-4.985-3.795-9.025-8.473-8.988l-7.738,0.058
		c-4.671,0.036-8.423,4.129-8.349,9.109l0.103,6.865l7.385-8.757l-7.601,14.52H80.758c-2.777,0-5.021,2.395-5.021,5.354
		c0,2.957,2.248,5.355,5.021,5.355h20.227c1.819,0,3.498-1.053,4.386-2.748l7.812-14.929c-1.144,5.741-2.785,11.306-4.682,16.538
		c-0.825,2.277-2.691,4.02-5.265,4.457l-18.554-0.057c-1.979-0.016-3.86,1.021-5.001,2.805c-1.125,1.762-1.359,4.004-0.627,5.982
		l13.685,36.861c1.229,3.303,4.73,4.92,7.823,3.613c3.096-1.309,4.613-5.039,3.389-8.338l-1.742-4.699l-3.009-8.105L93.543,105.092z
		"/>
	<path fill="#BE1E2D" d="M134.173,109.854l7.826-42.454c0.444-2.402-1.022-4.731-3.275-5.203c-2.256-0.473-4.439,1.092-4.883,3.491
		l-7.168,38.879h-10.574l-17.112,0.541c-1.286,0.758-2.16,2.213-2.16,3.893c0,2.449,1.86,4.43,4.16,4.43h0.716l-2.5,6.904
		l3.009,8.109l5.433-15.01h15.79l9.612,26.576c0.556,1.525,2.159,2.281,3.585,1.695c1.429-0.588,2.143-2.299,1.591-3.82
		l-8.849-24.451h0.715C132.08,113.428,133.788,111.93,134.173,109.854z"/>
</g>
</svg>
