<?xml version="1.0" encoding="iso-8859-1"?>
<!-- Generator: Adobe Illustrator 16.0.0, SVG Export Plug-In . SVG Version: 6.00 Build 0)  -->
<!DOCTYPE svg PUBLIC "-//W3C//DTD SVG 1.1//EN" "http://www.w3.org/Graphics/SVG/1.1/DTD/svg11.dtd">
<svg version="1.1" id="Layer_1" xmlns="http://www.w3.org/2000/svg" xmlns:xlink="http://www.w3.org/1999/xlink" x="0px" y="0px"
	 width="144px" height="144px" viewBox="0 0 144 144" style="enable-background:new 0 0 144 144;" xml:space="preserve">
<path style="fill:#4DA146;" d="M141.586,98.649c0,9.188-3.241,14.996-10.12,18.4c-0.83,0.411-1.713,0.606-2.598,0.606
	c-1.403,0-2.791-0.502-3.896-1.476l-17.99-15.889c-3.233-2.856-6.043-5.811-13.91-5.811H51.207c-7.872,0-10.689,2.95-13.915,5.811
	l-17.997,15.889c-1.091,0.971-2.485,1.476-3.893,1.476c-0.88,0-1.775-0.195-2.599-0.606C5.921,113.646,2.68,107.832,2.68,98.652
	c0-11.934,5.468-31.604,15.517-57.046c4.757-12.055,13.266-16.551,21.385-16.551c3.799,0,7.509,0.981,10.726,2.636
	c14.029,7.231,29.92,7.08,43.661,0c3.199-1.655,6.915-2.636,10.713-2.636c8.12,0,16.635,4.498,21.39,16.551
	C136.118,67.044,141.586,86.716,141.586,98.649z"/>
<path style="fill:#CDCCCC;" d="M77.925,48.205c0-3.196-2.59-5.789-5.789-5.789c-3.199,0-5.789,2.593-5.789,5.789
	s2.59,5.789,5.789,5.789C75.335,53.993,77.925,51.4,77.925,48.205z"/>
<path style="fill:#425EAB;" d="M98.177,62.674c0-2.402-1.942-4.34-4.34-4.34c-2.396,0-4.34,1.939-4.34,4.34s1.944,4.34,4.34,4.34
	C96.234,67.014,98.177,65.078,98.177,62.674z"/>
<path style="fill:#8EC641;" d="M108.308,72.806c0-2.402-1.943-4.34-4.338-4.34c-2.397,0-4.342,1.938-4.342,4.34
	c0,2.4,1.944,4.34,4.342,4.34C106.364,77.144,108.308,75.206,108.308,72.806z"/>
<path style="fill:#ECC23B;" d="M108.308,52.368c0-2.4-1.943-4.341-4.338-4.341c-2.397,0-4.342,1.941-4.342,4.341
	c0,2.402,1.944,4.34,4.342,4.34C106.364,56.708,108.308,54.762,108.308,52.368z"/>
<path style="fill:#BE202E;" d="M118.345,62.674c0-2.402-1.944-4.34-4.342-4.34c-2.395,0-4.338,1.939-4.338,4.34
	s1.943,4.34,4.338,4.34C116.398,67.016,118.345,65.078,118.345,62.674z"/>
<path style="fill:#676767;" d="M48.985,62.674c0,4.787-3.896,8.681-8.683,8.681c-4.784,0-8.683-3.895-8.683-8.681
	c0-4.787,3.899-8.681,8.683-8.681C45.089,53.993,48.985,57.889,48.985,62.674z"/>
</svg>
