<?xml version="1.0" encoding="utf-8"?>
<!-- Generator: Adobe Illustrator 16.0.0, SVG Export Plug-In . SVG Version: 6.00 Build 0)  -->
<!DOCTYPE svg PUBLIC "-//W3C//DTD SVG 1.1//EN" "http://www.w3.org/Graphics/SVG/1.1/DTD/svg11.dtd">
<svg version="1.1" id="Layer_1" xmlns="http://www.w3.org/2000/svg" xmlns:xlink="http://www.w3.org/1999/xlink" x="0px" y="0px"
	 width="144px" height="144px" viewBox="0 0 144 144" style="enable-background:new 0 0 144 144;" xml:space="preserve">
<style type="text/css">
<![CDATA[
	.st0{fill:#4DA146;}
	.st1{fill:#ECC23B;}
	.st2{fill:#8EC641;}
	.st3{fill:#BE202E;}
	.st4{fill:#676767;}
	.st5{fill:#CDCCCC;}
	.st6{fill:#425EAB;}
]]>
</style>
<path class="st0" d="M115.533,88.411c0,5.741-2.025,9.371-6.324,11.498c-0.519,0.257-1.07,0.379-1.623,0.379
	c-0.877,0-1.744-0.313-2.435-0.922l-11.242-9.929c-2.021-1.785-3.776-3.631-8.692-3.631h-26.16c-4.919,0-6.68,1.844-8.695,3.631
	l-11.246,9.929c-0.682,0.606-1.553,0.922-2.433,0.922c-0.55,0-1.109-0.122-1.624-0.379c-4.301-2.127-6.326-5.76-6.326-11.496
	c0-7.457,3.417-19.749,9.696-35.647c2.973-7.533,8.29-10.343,13.363-10.343c2.374,0,4.692,0.613,6.702,1.647
	c8.767,4.519,18.697,4.424,27.283,0c1.999-1.034,4.321-1.647,6.694-1.647c5.074,0,10.395,2.811,13.366,10.343
	C112.116,68.661,115.533,80.954,115.533,88.411z"/>
<path class="st5" d="M75.752,56.889c0-1.997-1.618-3.617-3.617-3.617s-3.617,1.62-3.617,3.617s1.618,3.617,3.617,3.617
	S75.752,58.886,75.752,56.889z"/>
<path class="st6" d="M88.407,65.931c0-1.501-1.214-2.712-2.712-2.712c-1.497,0-2.712,1.212-2.712,2.712s1.215,2.712,2.712,2.712
	C87.193,68.643,88.407,67.433,88.407,65.931z"/>
<path class="st2" d="M94.738,72.262c0-1.501-1.215-2.712-2.711-2.712c-1.498,0-2.713,1.211-2.713,2.712
	c0,1.5,1.215,2.712,2.713,2.712C93.523,74.973,94.738,73.762,94.738,72.262z"/>
<path class="st1" d="M94.738,59.49c0-1.5-1.215-2.713-2.711-2.713c-1.498,0-2.713,1.213-2.713,2.713
	c0,1.501,1.215,2.712,2.713,2.712C93.523,62.202,94.738,60.986,94.738,59.49z"/>
<path class="st3" d="M101.01,65.931c0-1.501-1.215-2.712-2.713-2.712c-1.496,0-2.711,1.212-2.711,2.712s1.215,2.712,2.711,2.712
	C99.794,68.644,101.01,67.433,101.01,65.931z"/>
<path class="st4" d="M57.668,65.931c0,2.991-2.435,5.425-5.426,5.425c-2.989,0-5.426-2.434-5.426-5.425s2.437-5.425,5.426-5.425
	C55.233,60.506,57.668,62.94,57.668,65.931z"/>
</svg>
