<?xml version="1.0" encoding="utf-8"?>
<!-- Generator: Adobe Illustrator 16.0.0, SVG Export Plug-In . SVG Version: 6.00 Build 0)  -->
<!DOCTYPE svg PUBLIC "-//W3C//DTD SVG 1.1//EN" "http://www.w3.org/Graphics/SVG/1.1/DTD/svg11.dtd">
<svg version="1.1" id="Layer_1" xmlns="http://www.w3.org/2000/svg" xmlns:xlink="http://www.w3.org/1999/xlink" x="0px" y="0px"
	 width="144px" height="144px" viewBox="0 0 144 144" enable-background="new 0 0 144 144" xml:space="preserve">
<path fill="#482249" d="M62.662,20.963c26.099,0,47.334,17.002,47.334,37.901c0,23.274-24.355,37.681-46.912,37.681
	c-9.168,0-16.012-1.88-20.798-3.047c-4.733,2.905-7.548,4.908-20.221,8.615c2.534-6.499,3.423-13.005,2.85-20.189
	c-3.965-4.731-9.584-11.361-9.584-23.06C15.325,37.966,36.559,20.963,62.662,20.963z M62.662,11.497
	c-30.001,0-56.803,20.004-56.803,47.368c0,9.7,3.493,19.233,9.689,26.625c0.262,8.661-4.842,21.092-9.433,30.141
	c12.317-2.226,29.824-7.136,37.764-12.002c6.711,1.633,13.134,2.381,19.211,2.381c33.531,0,56.375-22.896,56.375-47.149
	C119.462,31.354,92.473,11.497,62.662,11.497z M62.662,77.762H38.993V73.03h23.668V77.762z M86.325,63.565H38.993v-4.734h47.332
	V63.565z M86.325,49.366H38.993v-4.735h47.332V49.366z"/>
<path fill="#898889" d="M123.303,67.346c-0.97,2.938-2.173,5.784-3.62,8.52c10.098,7.594,13.587,19.415,2.799,32.288
	c-0.132,4.484-0.294,6.312,0.828,11.223c-5.365-1.845-5.895-2.361-10.021-4.895c-12.798,3.12-25.67,4.19-36.641-5.144
	c-3.378,0.953-6.894,1.671-10.472,2.188c9.104,11.294,25.863,17.437,45.596,12.642c5.502,3.371,17.649,6.781,26.188,8.332
	c-3.187-6.289-6.724-14.924-6.547-20.94C141.979,98.94,140.697,78.854,123.303,67.346z"/>
</svg>
