<svg class="brxe-svg" id="brxe-ioxthy" xmlns="http://www.w3.org/2000/svg" width="132" height="60" viewBox="0 0 132 60" fill="none"><g clip-path="url(#clip0_3973_2964)"><path d="M126 0H6C2.68629 0 0 2.68629 0 6V40C0 43.3137 2.68629 46 6 46H126C129.314 46 132 43.3137 132 40V6C132 2.68629 129.314 0 126 0Z" fill="#03A96F"></path><path d="M37.0597 60C36.7835 60 36.5403 59.8883 36.3693 59.7236L18 46H28.4667L37.8289 58.6711C37.8289 58.6711 38.0064 58.9651 37.9998 59.1592C37.9998 59.6178 37.579 59.9941 37.0662 59.9941" fill="#03A96F"></path><path d="M60.0643 26.0126C59.5585 25.5701 58.949 25.1854 58.2359 24.8504C57.5228 24.5195 56.7102 24.1804 55.7981 23.8371C55.1099 23.5931 54.517 23.3573 54.0236 23.1381C53.5303 22.9189 53.1198 22.679 52.784 22.4185C52.4523 22.162 52.2036 21.8725 52.046 21.5541C51.8843 21.2356 51.8056 20.8675 51.8056 20.4456C51.8056 19.635 52.1621 19.0394 52.8794 18.6589C53.5925 18.2784 54.4299 18.0881 55.3918 18.0881C56.4988 18.0881 57.4482 18.1915 58.2359 18.4025C59.0236 18.6134 59.6041 18.8161 59.9731 19.0104L60.5991 16.0615C60.4001 15.9871 60.1265 15.9002 59.7699 15.8051C59.4134 15.7058 58.9988 15.6148 58.5344 15.528C58.0659 15.4411 57.5601 15.3708 57.0212 15.3088C56.478 15.2467 55.9349 15.2178 55.3959 15.2178C53.2276 15.2178 51.5153 15.7141 50.2591 16.7109C49.0029 17.7076 48.3727 19.0518 48.3727 20.7475C48.3727 21.6078 48.522 22.3316 48.8163 22.9231C49.1107 23.5145 49.5046 24.0191 49.9979 24.4368C50.4913 24.8545 51.0759 25.2144 51.7517 25.5246C52.4275 25.8306 53.1364 26.1325 53.8744 26.4262C55.4001 27.0425 56.4988 27.5925 57.1621 28.0847C57.8255 28.5769 58.1613 29.2386 58.1613 30.0741C58.1613 30.9096 57.8213 31.4762 57.1455 31.8443C56.4656 32.2124 55.4291 32.3944 54.0236 32.3944C52.6182 32.3944 51.449 32.2496 50.5867 31.956C49.7243 31.6582 49.0983 31.439 48.7044 31.2901L48.0742 34.239C48.4183 34.3879 49.0734 34.603 50.0352 34.8842C50.9971 35.1654 52.3279 35.3061 54.0236 35.3061C56.4614 35.3061 58.3396 34.8511 59.658 33.9412C60.9764 33.0313 61.6356 31.6913 61.6356 29.9252C61.6356 29.0153 61.4988 28.2501 61.2293 27.6215C60.9556 26.997 60.5701 26.4634 60.0643 26.0209" fill="white"></path><path d="M64.5547 34.8593H67.9875V14.8496L64.5547 15.47V34.8593Z" fill="white"></path><path d="M82.9341 26.0126C82.4283 25.5701 81.8189 25.1854 81.1058 24.8504C80.3927 24.5195 79.5801 24.1804 78.668 23.8371C77.9797 23.5931 77.3869 23.3573 76.8935 23.1381C76.4001 22.9189 75.9855 22.679 75.6539 22.4185C75.3222 22.162 75.0734 21.8725 74.9159 21.5541C74.7542 21.2356 74.6754 20.8675 74.6754 20.4456C74.6754 19.635 75.032 19.0394 75.7451 18.6589C76.4623 18.2784 77.2957 18.0881 78.2575 18.0881C79.3645 18.0881 80.3139 18.1915 81.1016 18.4025C81.8894 18.6134 82.4698 18.8161 82.8388 19.0104L83.4648 16.0615C83.2658 15.9871 82.9922 15.9002 82.6356 15.8051C82.2791 15.7058 81.8645 15.6148 81.4001 15.528C80.9316 15.4411 80.4258 15.3708 79.8827 15.3088C79.3396 15.2467 78.8006 15.2178 78.2575 15.2178C76.0892 15.2178 74.3769 15.7141 73.1207 16.7109C71.8645 17.7076 71.2343 19.0518 71.2343 20.7475C71.2343 21.6078 71.3835 22.3316 71.6779 22.9231C71.9723 23.5145 72.3661 24.0191 72.8595 24.4368C73.3529 24.8545 73.9374 25.2144 74.6132 25.5246C75.289 25.8306 75.998 26.1325 76.736 26.4262C78.2658 27.0425 79.3603 27.5925 80.0237 28.0847C80.687 28.5769 81.0187 29.2386 81.0187 30.0741C81.0187 30.9096 80.6787 31.4762 80.003 31.8443C79.323 32.2124 78.2865 32.3944 76.8811 32.3944C75.4756 32.3944 74.3064 32.2496 73.4441 31.956C72.5817 31.6582 71.9557 31.439 71.5618 31.2901L70.9316 34.239C71.2758 34.3879 71.9308 34.603 72.8885 34.8842C73.8504 35.1654 75.1771 35.3061 76.8811 35.3061C79.3189 35.3061 81.197 34.8511 82.5154 33.9412C83.8338 33.0313 84.493 31.6913 84.493 29.9252C84.493 29.0153 84.3562 28.2501 84.0867 27.6215C83.8131 26.997 83.4275 26.4634 82.9217 26.0209" fill="white"></path><path d="M96.6766 31.8934C96.0505 32.125 95.2172 32.2449 94.1849 32.2449C93.592 32.2449 93.0738 32.1705 92.6343 32.0216C92.1907 31.8768 91.8217 31.6245 91.5232 31.2647C91.2288 30.909 91.0049 30.4168 90.8598 29.7923C90.7147 29.1636 90.6401 28.3737 90.6401 27.4141V18.6294H97.6384V15.4819H90.6401V12.2393L87.2031 12.8308V27.4514C87.2031 28.7294 87.3068 29.8543 87.5182 30.8263C87.7296 31.7941 88.0903 32.613 88.6086 33.2789C89.1268 33.9406 89.8068 34.4411 90.6608 34.772C91.5107 35.1028 92.5845 35.2683 93.8946 35.2683C95.0016 35.2683 95.9883 35.1401 96.8507 34.8836C97.7131 34.6231 98.3142 34.408 98.6625 34.2384L97.9991 31.4012C97.7545 31.5004 97.315 31.6659 96.689 31.8975" fill="white"></path><path d="M112.196 30.4176C111.222 31.6832 109.899 32.316 108.224 32.316C106.549 32.316 105.227 31.6832 104.252 30.4176C103.282 29.152 102.793 27.4397 102.793 25.2766C102.793 23.1135 103.278 21.4012 104.252 20.1356C105.227 18.87 106.549 18.2372 108.224 18.2372C109.899 18.2372 111.222 18.87 112.196 20.1356C113.166 21.4012 113.655 23.1177 113.655 25.2766C113.655 27.4356 113.17 29.152 112.196 30.4176ZM116.574 21.1655C116.13 19.9247 115.509 18.8618 114.708 17.9767C113.908 17.0916 112.955 16.4133 111.848 15.9335C110.737 15.4538 109.53 15.2139 108.228 15.2139C106.927 15.2139 105.716 15.4538 104.605 15.9335C103.498 16.4133 102.544 17.0916 101.74 17.9767C100.94 18.8618 100.318 19.9247 99.8743 21.1655C99.4307 22.4063 99.2109 23.7753 99.2109 25.2766C99.2109 26.778 99.4307 28.1759 99.8743 29.4043C100.318 30.6327 100.94 31.6915 101.74 32.5766C102.54 33.4617 103.494 34.1441 104.605 34.6197C105.716 35.0995 106.922 35.3394 108.228 35.3394C109.534 35.3394 110.741 35.0995 111.848 34.6197C112.955 34.14 113.908 33.4575 114.708 32.5766C115.509 31.6915 116.13 30.6368 116.574 29.4043C117.018 28.1759 117.237 26.8028 117.237 25.2766C117.237 23.7505 117.014 22.4104 116.574 21.1655Z" fill="white"></path><path d="M20.8411 18.5713C21.0152 18.5713 21.1686 18.4927 21.2764 18.3769L32.8601 8.72363H26.2598L20.356 17.6366C20.356 17.6366 20.244 17.8434 20.2482 17.9799C20.2482 18.3025 20.5135 18.5672 20.8369 18.5672" fill="#1C2029"></path><path d="M13 8.72363V34.8587H16.437V24.8414L25.2886 34.8752H30.1393L20.5 23.948H16.437V8.72363H13Z" fill="white"></path><path d="M41.9816 32.134C41.5629 32.2333 41.0405 32.2995 40.4103 32.3367C39.7801 32.3739 39.0629 32.3904 38.2503 32.3904C36.8945 32.3904 35.8249 32.1506 35.0372 31.6708C34.2494 31.191 33.8556 30.339 33.8556 29.1106C33.8556 28.4448 34.0131 27.9112 34.3365 27.5059C34.6557 27.1006 35.0579 26.7821 35.5388 26.5464C36.0197 26.3147 36.5504 26.1617 37.1267 26.0873C37.703 26.0128 38.2544 25.9756 38.7685 25.9756C39.5562 25.9756 40.2279 26.017 40.7834 26.1038C41.339 26.1907 41.737 26.2941 41.9857 26.4181V32.1299L41.9816 32.134ZM43.7353 17.2612C43.1549 16.6077 42.392 16.1031 41.4468 15.7474C40.4973 15.3917 39.3323 15.2139 37.9559 15.2139C36.7494 15.2139 35.63 15.3049 34.5935 15.491C33.8638 15.6192 33.2834 15.7557 32.8481 15.8922V18.8783C33.2668 18.717 33.8763 18.5598 34.6847 18.4068C35.5347 18.2496 36.5255 18.1669 37.6574 18.1669C38.5446 18.1669 39.2619 18.2951 39.8174 18.5557C40.373 18.8121 40.8083 19.1596 41.1275 19.5897C41.4468 20.0198 41.6707 20.512 41.7909 21.0662C41.9153 21.6204 41.9774 22.1788 41.9774 22.7413V23.7008C41.8779 23.676 41.7038 23.6388 41.4592 23.5892C41.2146 23.5395 40.9244 23.4858 40.5927 23.4237C40.261 23.3617 39.9086 23.312 39.5396 23.2748C39.1707 23.2376 38.8141 23.2211 38.4658 23.2211C37.3837 23.2211 36.3473 23.3327 35.3605 23.5519C34.3738 23.7753 33.5156 24.1186 32.7735 24.5859C32.0355 25.0533 31.4509 25.6695 31.0197 26.4305C30.5886 27.1916 30.373 28.1015 30.373 29.1603C30.373 30.2191 30.5554 31.2117 30.9285 31.9975C31.2975 32.7834 31.8158 33.4162 32.4791 33.8959C33.1425 34.3757 33.9343 34.7231 34.8423 34.9465C35.7544 35.1657 36.7494 35.2773 37.8357 35.2773C38.5985 35.2773 39.3697 35.2442 40.1449 35.1863C40.9202 35.1243 41.6416 35.0581 42.305 34.9837C42.9683 34.9092 43.5653 34.8307 44.096 34.7438C44.6267 34.6569 45.0413 34.5908 45.3357 34.5411V22.5634C45.3357 21.484 45.2113 20.4955 44.9667 19.598C44.7179 18.7005 44.3075 17.927 43.7312 17.2777" fill="white"></path></g><defs><clipPath id="clip0_3973_2964"><rect width="132" height="60" fill="white"></rect></clipPath></defs></svg>