<?xml version="1.0" encoding="utf-8"?>
<!-- Generator: Adobe Illustrator 16.0.0, SVG Export Plug-In . SVG Version: 6.00 Build 0)  -->
<!DOCTYPE svg PUBLIC "-//W3C//DTD SVG 1.1//EN" "http://www.w3.org/Graphics/SVG/1.1/DTD/svg11.dtd">
<svg version="1.1" id="brxe-ioxthy" xmlns="http://www.w3.org/2000/svg" xmlns:xlink="http://www.w3.org/1999/xlink" x="0px"
	 y="0px" width="288px" height="288px" viewBox="-78 -114 288 288" enable-background="new -78 -114 288 288" xml:space="preserve">
<g>
	<defs>
		<rect id="SVGID_1_" x="-60.5" y="-27.5" width="253" height="115"/>
	</defs>
	<clipPath id="SVGID_2_">
		<use xlink:href="#SVGID_1_"  overflow="visible"/>
	</clipPath>
	<g clip-path="url(#SVGID_2_)">
		<path fill="#03A96F" d="M181-27.5H-49c-6.351,0-11.5,5.149-11.5,11.5v65.167c0,6.351,5.149,11.5,11.5,11.5h230
			c6.353,0,11.5-5.149,11.5-11.5V-16C192.5-22.351,187.353-27.5,181-27.5z"/>
		<path fill="#03A96F" d="M10.531,87.5c-0.529,0-0.995-0.213-1.323-0.529L-26,60.667h20.062l17.944,24.285
			c0,0,0.34,0.563,0.328,0.937c0,0.878-0.807,1.6-1.79,1.6"/>
		<path fill="#FFFFFF" d="M54.624,22.357c-0.97-0.848-2.138-1.585-3.505-2.227c-1.366-0.635-2.924-1.284-4.672-1.943
			c-1.319-0.467-2.456-0.919-3.402-1.339c-0.945-0.42-1.732-0.88-2.375-1.379c-0.637-0.491-1.113-1.046-1.415-1.657
			c-0.31-0.611-0.461-1.315-0.461-2.124c0-1.555,0.684-2.695,2.058-3.425c1.367-0.729,2.972-1.094,4.815-1.094
			c2.123,0,3.942,0.198,5.452,0.603c1.51,0.404,2.623,0.793,3.33,1.166l1.2-5.652c-0.382-0.142-0.906-0.309-1.589-0.491
			c-0.683-0.19-1.478-0.365-2.369-0.532c-0.897-0.167-1.867-0.301-2.9-0.42c-1.041-0.119-2.081-0.174-3.114-0.174
			c-4.156,0-7.438,0.951-9.846,2.862c-2.408,1.91-3.616,4.486-3.616,7.737c0,1.649,0.287,3.036,0.851,4.169
			c0.564,1.134,1.318,2.101,2.265,2.902c0.945,0.8,2.065,1.49,3.361,2.084c1.296,0.587,2.654,1.165,4.069,1.729
			c2.923,1.181,5.03,2.236,6.301,3.179c1.272,0.943,1.915,2.211,1.915,3.813c0,1.602-0.651,2.688-1.947,3.392
			c-1.303,0.707-3.29,1.056-5.984,1.056c-2.693,0-4.934-0.277-6.587-0.841c-1.653-0.571-2.853-0.99-3.607-1.276l-1.208,5.652
			c0.66,0.285,1.915,0.698,3.759,1.237c1.843,0.539,4.395,0.809,7.644,0.809c4.673,0,8.273-0.872,10.8-2.616
			c2.527-1.745,3.791-4.313,3.791-7.698c0-1.745-0.262-3.211-0.779-4.416c-0.525-1.197-1.263-2.22-2.233-3.068"/>
		<path fill="#FFFFFF" d="M63.23,39.313h6.579V0.962L63.23,2.15V39.313z"/>
		<path fill="#FFFFFF" d="M98.456,22.357c-0.97-0.848-2.138-1.585-3.504-2.227c-1.366-0.635-2.924-1.284-4.672-1.943
			c-1.319-0.467-2.456-0.919-3.401-1.339s-1.74-0.88-2.375-1.379c-0.637-0.491-1.113-1.046-1.415-1.657
			c-0.311-0.611-0.46-1.315-0.46-2.124c0-1.555,0.683-2.695,2.049-3.425c1.376-0.729,2.973-1.094,4.816-1.094
			c2.121,0,3.941,0.198,5.45,0.603s2.623,0.793,3.33,1.166l1.2-5.652c-0.382-0.142-0.906-0.309-1.59-0.491
			c-0.683-0.19-1.479-0.365-2.367-0.532c-0.898-0.167-1.868-0.301-2.909-0.42c-1.04-0.119-2.073-0.174-3.114-0.174
			c-4.155,0-7.438,0.951-9.846,2.862c-2.408,1.91-3.616,4.486-3.616,7.737c0,1.649,0.285,3.036,0.851,4.169
			c0.564,1.134,1.319,2.101,2.265,2.902c0.946,0.8,2.066,1.49,3.361,2.084c1.295,0.587,2.654,1.165,4.069,1.729
			c2.931,1.181,5.029,2.236,6.3,3.179c1.273,0.943,1.907,2.211,1.907,3.813c0,1.602-0.651,2.688-1.946,3.392
			c-1.303,0.707-3.288,1.056-5.983,1.056c-2.694,0-4.935-0.277-6.587-0.841c-1.653-0.571-2.854-0.99-3.607-1.276l-1.209,5.652
			c0.659,0.285,1.915,0.698,3.751,1.237c1.844,0.539,4.388,0.809,7.652,0.809c4.672,0,8.272-0.872,10.8-2.616
			c2.526-1.745,3.79-4.313,3.79-7.698c0-1.745-0.262-3.211-0.778-4.416c-0.526-1.197-1.264-2.22-2.233-3.068"/>
		<path fill="#FFFFFF" d="M124.797,33.629c-1.199,0.444-2.798,0.674-4.774,0.674c-1.138,0-2.13-0.144-2.973-0.428
			c-0.85-0.277-1.558-0.761-2.13-1.451c-0.565-0.682-0.994-1.625-1.272-2.822c-0.277-1.205-0.42-2.719-0.42-4.559V8.207h13.413
			V2.174h-13.413v-6.215l-6.588,1.134v28.022c0,2.45,0.198,4.606,0.603,6.469c0.406,1.854,1.097,3.425,2.091,4.701
			c0.993,1.268,2.296,2.228,3.933,2.86c1.63,0.635,3.688,0.952,6.199,0.952c2.122,0,4.013-0.245,5.665-0.737
			c1.653-0.499,2.806-0.911,3.473-1.237l-1.271-5.438c-0.47,0.189-1.312,0.508-2.51,0.951"/>
		<path fill="#FFFFFF" d="M154.541,30.8c-1.864,2.427-4.402,3.64-7.61,3.64c-3.212,0-5.746-1.213-7.614-3.64
			c-1.858-2.425-2.797-5.708-2.797-9.854s0.929-7.427,2.797-9.853s4.402-3.639,7.614-3.639c3.208,0,5.746,1.213,7.61,3.639
			c1.86,2.426,2.797,5.715,2.797,9.853C157.338,25.085,156.409,28.375,154.541,30.8z M162.934,13.067
			c-0.852-2.378-2.042-4.416-3.576-6.112c-1.533-1.696-3.36-2.997-5.482-3.916c-2.131-0.92-4.443-1.379-6.938-1.379
			s-4.815,0.459-6.943,1.379c-2.123,0.919-3.951,2.22-5.492,3.916c-1.535,1.697-2.725,3.734-3.575,6.112
			c-0.852,2.378-1.272,5.002-1.272,7.879c0,2.878,0.421,5.557,1.272,7.912c0.851,2.354,2.04,4.384,3.575,6.079
			c1.533,1.698,3.361,3.006,5.492,3.916c2.128,0.921,4.439,1.381,6.943,1.381c2.503,0,4.816-0.46,6.938-1.381
			c2.122-0.917,3.949-2.228,5.482-3.916c1.534-1.695,2.725-3.717,3.576-6.079c0.85-2.355,1.27-4.986,1.27-7.912
			C164.203,18.022,163.776,15.453,162.934,13.067z"/>
		<path fill="#1C2029" d="M-20.554,8.095c0.333,0,0.627-0.15,0.834-0.372L2.481-10.78h-12.65L-21.484,6.304
			c0,0-0.214,0.396-0.207,0.658c0,0.619,0.509,1.126,1.129,1.126"/>
		<path fill="#FFFFFF" d="M-35.583-10.78v50.093h6.588V20.112l16.965,19.231h9.297l-18.475-20.943h-7.787V-10.78H-35.583z"/>
		<path fill="#FFFFFF" d="M19.964,34.09c-0.802,0.19-1.803,0.316-3.012,0.39c-1.207,0.07-2.582,0.103-4.139,0.103
			c-2.599,0-4.649-0.461-6.159-1.38c-1.509-0.919-2.265-2.553-2.265-4.907c0-1.276,0.302-2.299,0.922-3.075
			c0.612-0.777,1.383-1.387,2.304-1.839c0.922-0.444,1.939-0.737,3.043-0.879c1.105-0.144,2.162-0.214,3.147-0.214
			c1.509,0,2.797,0.08,3.861,0.246c1.065,0.166,1.828,0.364,2.305,0.602v10.948L19.964,34.09z M23.326,5.584
			c-1.113-1.252-2.575-2.22-4.387-2.901C17.119,2,14.887,1.66,12.249,1.66c-2.313,0-4.458,0.174-6.445,0.531
			C4.406,2.437,3.293,2.699,2.459,2.96v5.724c0.802-0.31,1.971-0.611,3.52-0.904c1.63-0.302,3.528-0.459,5.698-0.459
			c1.701,0,3.075,0.245,4.14,0.745c1.065,0.491,1.899,1.158,2.511,1.982c0.612,0.823,1.042,1.768,1.272,2.83
			c0.238,1.062,0.357,2.132,0.357,3.21v1.839c-0.191-0.048-0.525-0.119-0.994-0.213c-0.468-0.095-1.024-0.198-1.66-0.317
			c-0.635-0.119-1.311-0.214-2.019-0.285c-0.707-0.071-1.391-0.103-2.058-0.103c-2.074,0-4.061,0.213-5.952,0.633
			c-1.89,0.429-3.536,1.087-4.958,1.982C0.902,20.519-0.22,21.7-1.046,23.159c-0.826,1.458-1.239,3.203-1.239,5.231
			c0,2.03,0.349,3.933,1.065,5.44c0.707,1.504,1.7,2.717,2.971,3.639c1.272,0.919,2.789,1.583,4.53,2.012
			c1.748,0.421,3.655,0.635,5.738,0.635c1.461,0,2.939-0.064,4.426-0.175c1.486-0.119,2.868-0.245,4.14-0.387
			c1.271-0.145,2.416-0.296,3.433-0.461c1.017-0.168,1.812-0.294,2.376-0.39V15.747c0-2.069-0.239-3.963-0.708-5.684
			c-0.478-1.72-1.264-3.204-2.368-4.447"/>
	</g>
</g>
</svg>
