<?xml version="1.0" encoding="utf-8"?>
<!-- Generator: Adobe Illustrator 16.0.0, SVG Export Plug-In . SVG Version: 6.00 Build 0)  -->
<!DOCTYPE svg PUBLIC "-//W3C//DTD SVG 1.1//EN" "http://www.w3.org/Graphics/SVG/1.1/DTD/svg11.dtd">
<svg version="1.1" id="Layer_1" xmlns="http://www.w3.org/2000/svg" xmlns:xlink="http://www.w3.org/1999/xlink" x="0px" y="0px"
	 width="144px" height="144px" viewBox="0 0 144 144" enable-background="new 0 0 144 144" xml:space="preserve">
<path fill-rule="evenodd" clip-rule="evenodd" fill="#F0A6B0" d="M70.92,134.401c13.691,0.001,27.383-0.038,41.074,0.018
	c6.653,0.026,12.251-2.296,16.738-7.177c3.191-3.471,5.125-7.583,5.463-12.316c0.461-6.49,0.14-12.996,0.178-19.495
	c0.052-8.65,0.018-17.301,0.009-25.952c-0.004-5.994-2.054-11.224-6.219-15.502c-3.699-3.799-8.252-6.034-13.602-6.437
	c-5.064-0.38-10.136-0.104-15.205-0.153c-4.813-0.047-9.628-0.086-14.438,0.015c-6.109,0.129-12.173,0.716-18.007,2.708
	c-4.515,1.542-8.602,3.844-12.005,7.217c-4.203,4.167-6.718,9.255-7.941,15.02c-0.439,2.069-0.652,4.157-0.766,6.261
	c-0.035,0.648,0.16,0.967,0.866,0.948c0.943-0.026,1.87,0.156,2.792,0.346c0.482,0.101,0.783,0.067,0.833-0.568
	c0.348-4.462,2.292-8.271,4.912-11.787c1.049-1.408,2.248-2.686,3.503-3.917c0.543-0.533,0.849-0.44,1.346,0.033
	c1.56,1.484,2.961,3.1,4.189,4.863c0.32,0.459,0.505,0.518,0.964,0.145c3.81-3.095,8.261-4.495,13.085-4.96
	c1.334-0.129,2.656-0.107,3.985-0.146c0.557-0.017,0.775,0.131,0.83,0.75c0.19,2.15-0.041,4.265-0.386,6.376
	c-0.097,0.589-0.097,0.998,0.687,1.056c3.765,0.282,7.074,1.809,10.176,3.845c1.989,1.307,3.768,2.869,5.411,4.591
	c0.379,0.397,0.462,0.626,0.062,1.11c-1.402,1.699-3.122,3.022-4.886,4.297c-0.488,0.352-0.646,0.562-0.196,1.12
	c3.124,3.876,4.507,8.403,4.933,13.297c0.104,1.201,0.108,2.396,0.153,3.596c0.028,0.703-0.175,0.971-0.924,0.962
	c-2.079-0.027-4.155,0.021-6.211-0.39c-0.419-0.084-0.997-0.306-1.053,0.539c-0.245,3.705-1.753,6.961-3.713,10.029
	c-1.367,2.138-2.971,4.092-4.901,5.768c-0.39,0.338-0.565,0.295-0.936-0.02c-1.679-1.414-3.063-3.084-4.308-4.873
	c-0.349-0.501-0.601-0.631-1.138-0.201c-3.969,3.181-8.603,4.537-13.593,4.957c-1.104,0.092-2.201,0.127-3.303,0.125
	c-0.546,0-0.85-0.17-0.942-0.827c-0.295-2.096,0.077-4.14,0.378-6.186c0.119-0.809,0.053-1.099-0.889-1.194
	c-3.804-0.387-7.175-1.96-10.29-4.102c-1.901-1.309-3.701-2.741-5.191-4.534c-0.335-0.404-0.281-0.608,0.042-0.962
	c1.479-1.613,3.131-3.025,4.916-4.28c0.466-0.326,0.629-0.524,0.214-1.037c-3.631-4.492-4.812-9.793-5.167-15.411
	c-0.349-5.501,0.378-10.824,2.447-15.912c4.21-10.36,11.916-16.862,22.535-20.051c3.99-1.198,8.067-1.883,12.222-2.171
	c5.49-0.381,10.982-0.142,16.474-0.187c5.593-0.046,11.188-0.048,16.78,0.007c7.844,0.078,14.24,3.262,19.303,9.201
	c3.294,3.866,5.151,8.373,5.832,13.375c0.127,0.928,0.071,1.883,0.071,2.826c0.003,14.796,0.027,29.592-0.011,44.389
	c-0.015,5.804-2.051,10.925-5.7,15.394c-4.256,5.213-9.788,8.21-16.418,9.205c-0.959,0.145-1.938,0.218-2.908,0.219
	c-28,0.011-56,0.116-84-0.049c-9.702-0.059-17.124-4.653-22.035-13.073c-2.235-3.833-3.243-8.012-3.229-12.473
	c0.046-14.505,0.06-29.01,0.014-43.513c-0.013-4.155,1.051-8.029,2.665-11.776c1.92-4.457,4.469-8.533,8.192-11.717
	c2.686-2.296,5.529-4.409,8.306-6.598c5.173-4.078,10.35-8.151,15.524-12.227c6.755-5.32,13.495-10.658,20.269-15.954
	c2.918-2.282,6.292-3.41,9.97-3.759c5.028-0.477,9.633,0.664,13.684,3.655c3.025,2.234,5.892,4.682,8.834,7.029
	c3.778,3.016,7.557,6.031,11.344,9.035c0.724,0.573,1.108,1.26,0.944,2.198c-0.133,0.763-0.647,1.161-1.329,1.415
	c-0.747,0.277-1.344-0.053-1.886-0.487c-6.639-5.312-13.239-10.672-19.916-15.935c-3.404-2.684-7.378-3.457-11.658-3.079
	c-3.886,0.343-6.942,2.278-9.87,4.648c-4.69,3.798-9.466,7.492-14.205,11.23c-6.088,4.801-12.177,9.603-18.265,14.404
	c-2.777,2.19-5.557,4.377-8.332,6.57c-2.61,2.062-4.66,4.598-6.3,7.477c-1.895,3.326-3.285,6.844-3.936,10.626
	c-0.225,1.306-0.22,2.636-0.162,3.962c0.064,1.461-0.099,2.921-0.103,4.378c-0.037,13.008-0.147,26.018,0.015,39.023
	c0.109,8.78,5.631,16.544,14.036,19.742c2.512,0.956,5.11,1.399,7.804,1.396C43.278,134.392,57.099,134.401,70.92,134.401z
	 M71.026,85.969c-3.206-0.258-6.219,2.75-6.136,6.055c0.087,3.475,2.633,6.076,6.137,6.08c3.388,0.003,6.015-2.657,6.015-6.089
	C77.041,88.571,74.455,85.971,71.026,85.969z M46.989,83.277c-0.516-0.066-0.63,0.225-0.578,0.648
	c0.051,0.418,0.117,0.833,0.181,1.249c0.479,3.173,1.36,6.21,3.257,8.851c1.546,2.152,1.576,2.112,4.014,1.048
	c0.443-0.192,0.53-0.295,0.239-0.729c-1.956-2.922-2.895-6.195-3.242-9.661c-0.046-0.459-0.173-0.79-0.718-0.868
	C49.086,83.665,48.04,83.46,46.989,83.277z M62.327,115.908c-0.139,0.539-0.043,0.705,0.389,0.659
	c3.786-0.409,7.391-1.326,10.543-3.603c1.783-1.287,1.796-1.269,0.995-3.241c-0.073-0.179-0.139-0.364-0.191-0.55
	c-0.146-0.528-0.367-0.543-0.819-0.242c-2.903,1.93-6.155,2.854-9.587,3.206c-0.524,0.054-0.807,0.177-0.901,0.767
	C62.586,113.959,62.39,115.008,62.327,115.908z M59.336,108.64c0.962,0.276,0.977-0.725,1.244-1.343
	c0.665-1.533,0.638-1.548-0.932-1.944c-2.95-0.743-5.509-2.245-7.867-4.11c-0.609-0.482-1.123-0.542-1.731-0.052
	c-0.655,0.529-1.315,1.061-2.02,1.518c-0.598,0.387-0.458,0.685-0.001,1.016c0.917,0.666,1.814,1.364,2.766,1.977
	C53.341,107.341,56.111,108.367,59.336,108.64z M94.661,100.678c0.635,0.155,0.995,0.055,0.882-0.733
	c-0.559-3.891-1.535-7.611-4.033-10.787c-0.637-0.81-1.202-1.326-2.234-0.657c-0.345,0.223-0.776,0.319-1.177,0.452
	c-0.382,0.126-0.54,0.291-0.271,0.688c1.975,2.916,2.889,6.193,3.269,9.65c0.059,0.525,0.257,0.895,0.886,0.96
	C92.881,100.345,93.769,100.531,94.661,100.678z M79.618,68.495c0.03-1.132-0.019-1.173-1.163-0.96
	c-0.223,0.042-0.445,0.079-0.67,0.112c-3.251,0.475-6.314,1.454-9.028,3.368c-1.783,1.258-1.78,1.262-1.056,3.323
	c0.076,0.214,0.155,0.427,0.227,0.642c0.136,0.405,0.296,0.483,0.691,0.2c2.767-1.988,5.954-2.805,9.265-3.239
	c0.778-0.102,1.353-0.306,1.412-1.237C79.344,69.963,79.507,69.23,79.618,68.495z M87.591,103.719
	c0.145-0.567-0.22-0.973-0.98-1.172c-0.402-0.104-0.789-0.312-1.146-0.531c-0.633-0.388-0.855-0.098-0.965,0.499
	c-0.508,2.773-1.825,5.184-3.38,7.486c-1.598,2.369-1.597,2.372,0.262,4.616c0.104,0.125,0.231,0.233,0.322,0.366
	c0.387,0.571,0.707,0.377,1.024-0.071c0.637-0.9,1.325-1.768,1.913-2.697C86.24,109.688,87.338,106.972,87.591,103.719z
	 M54.364,80.271c-0.165,0.587,0.241,0.979,0.96,1.207c0.43,0.138,0.851,0.327,1.246,0.546c0.474,0.26,0.689,0.275,0.819-0.37
	c0.611-3.046,2.044-5.718,3.857-8.205c1.156-1.585,1.155-1.585-0.057-3.187c-1.429-1.888-1.452-1.905-2.841-0.007
	C56.204,73.18,54.729,76.388,54.364,80.271z M82.937,75.438c-0.361,0.114-0.901-0.218-1.172,0.344
	c-0.324,0.672-0.616,1.358-0.922,2.038c-0.126,0.279-0.136,0.493,0.249,0.563c3.607,0.659,6.64,2.487,9.488,4.683
	c0.273,0.211,0.513,0.236,0.796,0.058c0.933-0.59,1.834-1.22,2.677-1.935c0.387-0.328,0.295-0.522-0.061-0.822
	c-0.773-0.646-1.58-1.241-2.43-1.779C88.933,76.92,86.156,75.646,82.937,75.438z M65.118,81.264
	c0.102-1.014-0.023-2.083-0.264-3.122c-0.16-0.69-0.022-1.771-0.748-1.93c-0.485-0.107-0.754,0.995-1.152,1.533
	c-0.019,0.025-0.04,0.051-0.055,0.08c-1.022,1.896-1.956,3.82-1.871,6.055c0.063,1.661,1.666,2.756,3.225,2.231
	c0.322-0.107,0.438-0.306,0.496-0.631C64.995,84.105,65.175,82.728,65.118,81.264z M81.553,86.181
	c1.755,0.046,3.376-0.179,4.957-0.717c0.464-0.158,0.55-0.32,0.113-0.605c-0.462-0.299-0.918-0.61-1.398-0.875
	c-1.939-1.073-3.922-2.021-6.224-1.897c-1.613,0.086-2.725,1.854-2.118,3.329c0.141,0.34,0.421,0.349,0.712,0.395
	C78.938,86.014,80.28,86.209,81.553,86.181z M54.978,98.796c0.477,0.58,1.057,0.829,1.581,1.124c1.84,1.036,3.707,2.039,5.9,2.065
	c1.87,0.022,2.708-0.888,2.66-2.782c-0.015-0.568-0.162-0.86-0.789-0.981c-2.091-0.402-4.197-0.438-6.298-0.265
	C57.02,98.039,55.983,98.252,54.978,98.796z M82.064,89.976c-0.926,0.153-1.692,0.742-2.17,1.553
	c-0.353,0.599,0.374,1.002,0.685,1.454s0.648,0.889,1.009,1.304c1.391,1.599,2.918,3.038,4.835,4.001
	c0.192,0.098,0.398,0.279,0.623,0.113c0.147-0.107,0.074-0.293,0.042-0.452c-0.453-2.237-1.153-4.384-2.465-6.281
	C84.021,90.798,83.273,90.089,82.064,89.976z M77.799,108.125c1.58-2.386,2.998-4.685,3.12-7.506
	c0.089-2.018-0.929-2.892-2.951-2.725c-0.456,0.038-0.677,0.181-0.766,0.669c-0.37,2.018-0.487,4.051-0.327,6.086
	C76.966,105.786,77.225,106.921,77.799,108.125z M54.783,85.443c0.473,2.779,1.223,5.294,2.955,7.425
	c1.194,1.469,2.709,1.502,3.986,0.114c0.446-0.485,0.505-0.873,0.086-1.433c-1.054-1.412-2.219-2.718-3.522-3.896
	C57.286,86.748,56.185,85.974,54.783,85.443z M76.996,75.872c-0.34,0.077-0.626,0.131-0.907,0.205
	c-2.229,0.595-4.444,1.241-6.165,2.896c-1.332,1.281-1.197,2.782,0.248,3.899c0.426,0.329,0.722,0.361,1.174,0.025
	c1.436-1.063,2.805-2.202,3.988-3.54c0.771-0.872,1.438-1.832,1.954-2.887C77.473,76.095,77.461,75.838,76.996,75.872z
	 M72.949,103.224c0.013-0.659-0.371-1.2-0.815-1.737c-0.552-0.667-1.031-0.772-1.781-0.195c-1.421,1.091-2.729,2.293-3.925,3.614
	c-0.717,0.791-1.318,1.683-1.755,2.67c-0.143,0.322-0.304,0.663,0.319,0.535c2.492-0.511,4.917-1.187,6.872-2.941
	C72.418,104.67,72.94,104.128,72.949,103.224z"/>
<path fill-rule="evenodd" clip-rule="evenodd" fill="#F0A6B0" d="M106.026,38.57c-2.73-0.001-5.463-0.007-8.193,0.001
	c-0.846,0.002-1.438-0.38-1.761-1.139c-0.292-0.69-0.144-1.333,0.353-1.896c0.354-0.401,0.812-0.496,1.319-0.495
	c5.495,0.004,10.989-0.001,16.483,0.007c1.153,0.001,1.948,0.702,1.991,1.7c0.041,0.995-0.818,1.804-1.999,1.815
	c-2.146,0.021-4.292,0.007-6.438,0.008C107.197,38.571,106.611,38.571,106.026,38.57z"/>
</svg>
