<?xml version="1.0" encoding="utf-8"?>
<!-- Generator: Adobe Illustrator 16.0.0, SVG Export Plug-In . SVG Version: 6.00 Build 0)  -->
<!DOCTYPE svg PUBLIC "-//W3C//DTD SVG 1.1//EN" "http://www.w3.org/Graphics/SVG/1.1/DTD/svg11.dtd">
<svg version="1.1" id="Layer_1" xmlns="http://www.w3.org/2000/svg" xmlns:xlink="http://www.w3.org/1999/xlink" x="0px" y="0px"
	 width="144px" height="144px" viewBox="0 0 144 144" enable-background="new 0 0 144 144" xml:space="preserve">
<path fill-rule="evenodd" clip-rule="evenodd" fill="#222222" d="M72.84,90.497c1.482-2.504,1.37-4.382-0.227-5.864
	c-1.518-1.408-3.462-1.407-5.777,0.099c-0.834-1.048-1.681-2.111-2.579-3.238c1.629-1.653,2.315-3.498,1.032-5.561
	c-1.152-1.85-2.946-2.184-5.101-1.637c-0.596-1.606-1.183-3.188-1.781-4.803c2.063-1.02,3.164-2.474,2.785-4.687
	c-0.341-1.994-1.584-2.954-4.354-3.443c-0.075-1.624-0.151-3.28-0.23-5.02c2.323-0.379,3.985-1.471,4.184-3.876
	c0.178-2.152-1.058-3.512-3.127-4.325c0.48-1.661,0.939-3.25,1.421-4.915c2.335,0.429,4.205-0.152,5.158-2.362
	c0.865-2.008,0.109-3.664-1.618-5.061c0.984-1.427,1.943-2.82,2.883-4.184c2.646,1.049,4.364,0.834,5.653-0.633
	c1.28-1.457,1.338-3.071,0.116-5.357c1.052-0.828,2.127-1.675,3.318-2.612c0.857,1.34,1.996,2.285,3.568,2.248
	c0.835-0.02,1.762-0.291,2.47-0.731c1.767-1.1,2.147-3.006,1.174-5.536c1.576-0.587,3.15-1.174,4.717-1.758
	c1.305,2.847,2.795,3.838,4.984,3.41c2.155-0.421,3.181-1.932,3.325-5.018c1.612,0,3.234,0,4.976,0
	c0.032,1.415,0.283,2.89,1.623,3.759c0.709,0.459,1.596,0.813,2.429,0.88c1.98,0.162,3.425-1.167,4.224-3.726
	c0.785,0.189,1.591,0.359,2.379,0.583c0.804,0.227,1.591,0.507,2.493,0.801c-0.494,1.409-0.72,2.836,0.205,4.066
	c0.505,0.672,1.216,1.304,1.973,1.651c1.92,0.878,3.658,0.146,5.335-2.147c0.672,0.428,1.368,0.852,2.044,1.309
	c0.691,0.468,1.361,0.969,2.138,1.524c-0.919,1.235-1.591,2.569-1.052,4.064c0.284,0.788,0.793,1.595,1.421,2.142
	c1.55,1.345,3.466,1.149,5.645-0.49c0.841,1.057,1.685,2.12,2.519,3.17c-2.152,2.543-2.479,4.022-1.334,5.851
	c1.072,1.712,2.719,2.19,5.494,1.501c0.566,1.527,1.142,3.072,1.706,4.592c-2.807,1.757-3.619,3.148-3.105,5.198
	c0.478,1.91,1.92,2.872,4.72,3.093c0.063,1.233,0.134,2.481,0.19,3.729c0.018,0.409,0.003,0.82,0.003,1.206
	c-2.984,0.541-4.281,1.63-4.521,3.713c-0.243,2.089,0.774,3.499,3.48,4.637c-0.447,1.558-0.903,3.14-1.259,4.381
	c-1.527,0.277-2.863,0.339-4.041,0.804c-0.678,0.268-1.254,1.11-1.602,1.827c-0.888,1.831-0.266,3.471,1.881,5.294
	c-0.436,0.675-0.868,1.375-1.334,2.055c-0.471,0.687-0.976,1.352-1.456,2.014c-2.903-1.27-4.588-1.136-5.979,0.441
	c-1.316,1.492-1.292,3.285,0.146,5.644c-0.523,0.428-1.058,0.881-1.609,1.309c-0.525,0.409-1.071,0.793-1.6,1.181
	c-2.198-2.108-3.848-2.514-5.714-1.434c-1.805,1.044-2.355,2.846-1.589,5.562c-1.522,0.571-3.064,1.147-4.695,1.759
	c-0.978-2.379-2.557-3.716-5.171-3.136c-1.921,0.424-2.83,1.846-3.115,4.731c-1.639,0-3.29,0-4.94,0
	c-0.475-2.823-1.649-4.179-3.825-4.429c-1.928-0.22-3.407,0.902-4.563,3.549c-1.571-0.452-3.161-0.91-4.736-1.362
	c0.462-2.992-0.21-4.653-2.159-5.527c-1.884-0.844-3.587-0.274-5.463,1.915C75.641,92.397,74.272,91.47,72.84,90.497z
	 M125.063,57.434c0-14.459-11.734-26.213-26.209-26.254c-14.556-0.041-26.397,11.702-26.4,26.182
	C72.45,71.828,84.182,83.58,98.654,83.606C113.229,83.635,125.062,71.907,125.063,57.434z"/>
<path fill-rule="evenodd" clip-rule="evenodd" fill="#505050" d="M9.67,117.192c-0.813-1.124-1.639-2.268-2.269-3.14
	c0.757-1.262,1.592-2.271,1.972-3.427c0.241-0.729-0.026-1.757-0.365-2.519c-0.831-1.869-2.618-2.489-5.337-1.934
	c-0.391-1.587-0.784-3.182-1.171-4.754c3.01-1.229,4.057-2.459,3.94-4.514c-0.113-2.008-1.383-3.239-4.142-3.953
	c0.045-0.512,0.059-1.046,0.144-1.569c0.171-1.066,0.38-2.127,0.592-3.293c2.562,0.373,4.605-0.25,5.414-2.892
	c0.572-1.865-0.217-3.399-2.442-4.935c0.863-1.384,1.733-2.778,2.43-3.896c1.485,0.243,2.735,0.664,3.945,0.569
	c0.807-0.063,1.7-0.725,2.302-1.356c1.354-1.42,1.232-3.338-0.237-5.538c1.127-0.823,2.264-1.651,3.087-2.252
	c1.364,0.781,2.454,1.623,3.687,2.026c0.725,0.237,1.762-0.051,2.513-0.407c1.811-0.857,2.375-2.635,1.806-5.386
	c1.594-0.382,3.195-0.766,4.774-1.144c1.137,3.084,2.395,4.15,4.581,4.002c2.084-0.142,3.294-1.425,3.901-4.286
	c1.617,0.256,3.243,0.514,4.856,0.771c-0.246,3.16,0.526,4.735,2.588,5.459c1.99,0.699,3.64-0.037,5.32-2.461
	c1.399,0.877,2.804,1.757,4.205,2.635c-1.492,2.541-1.424,4.405,0.135,5.914c1.57,1.521,3.446,1.502,5.894-0.106
	c0.329,0.416,0.681,0.826,0.995,1.262c0.51,0.707,0.996,1.433,1.53,2.206c-1.852,1.441-2.738,3.193-1.681,5.395
	c1.002,2.087,2.834,2.576,5.178,2.092c0.406,1.649,0.799,3.244,1.209,4.912c-2.382,0.643-3.84,1.981-3.676,4.462
	c0.149,2.258,1.643,3.355,3.939,3.817c-0.267,1.664-0.528,3.29-0.8,4.98c-2.418-0.284-4.324,0.313-5.134,2.693
	c-0.75,2.201,0.273,3.792,2.17,5.061c-0.919,1.446-1.808,2.846-2.685,4.225c-2.689-1.206-4.391-1.04-5.765,0.48
	c-1.327,1.468-1.359,3.174-0.031,5.551c-1.126,0.813-2.267,1.634-3.482,2.51c-1.548-1.838-3.387-2.639-5.577-1.493
	c-1.924,1.007-2.41,2.764-1.958,4.958c-1.661,0.404-3.269,0.795-4.945,1.202c-0.727-2.311-2.074-3.729-4.58-3.559
	c-1.813,0.124-2.98,1.297-3.786,3.825c-1.613-0.26-3.25-0.523-4.948-0.796c0.243-2.331-0.406-4.146-2.614-4.97
	c-2.169-0.809-3.818,0.126-5.161,2.018c-1.436-0.899-2.841-1.778-4.311-2.699c1.192-2.085,1.23-4.006-0.544-5.659
	C13.724,115.97,12.085,115.956,9.67,117.192z M52.343,95.985c-0.008-9.188-7.466-16.61-16.659-16.58
	c-9.103,0.029-16.582,7.509-16.58,16.577c0.002,9.101,7.45,16.535,16.575,16.547C44.934,112.54,52.351,105.177,52.343,95.985z"/>
<path fill-rule="evenodd" clip-rule="evenodd" fill="#343434" d="M36.833,64.196c-1.702,0-3.317,0-5.01,0
	c0.082-2.366-0.688-4.203-3.035-4.81c-2.252-0.583-3.899,0.442-4.985,2.646c-1.512-0.9-2.924-1.741-4.325-2.575
	c1.331-2.61,1.243-4.36-0.195-5.789c-1.428-1.419-3.203-1.528-5.613-0.227c-0.732-1.273-1.47-2.554-2.266-3.938
	c2.276-1.091,3.565-2.728,2.818-5.224c-0.678-2.265-2.481-3.005-4.846-2.842c0-1.664,0-3.267,0-4.981
	c2.521,0.155,4.47-0.627,5.058-3.17c0.531-2.293-0.678-3.827-2.84-4.869c0.867-1.452,1.696-2.838,2.583-4.322
	c2.129,1.495,4.179,1.76,6.051-0.156c1.411-1.443,1.403-3.204,0.01-5.576c1.288-0.727,2.573-1.454,3.845-2.172
	c1.816,2.525,3.294,3.234,5.281,2.618c1.845-0.572,2.732-1.979,2.85-4.643c1.636,0,3.28,0,5.021,0
	c-0.064,2.394,0.764,4.219,3.233,4.857c1.812,0.469,3.352-0.376,4.849-2.644c1.414,0.83,2.836,1.666,4.244,2.492
	c-1.282,2.922-1.165,4.591,0.345,5.947c1.469,1.32,3.116,1.387,5.44,0.158c0.392,0.616,0.814,1.228,1.18,1.871
	c0.368,0.647,0.679,1.327,1.046,2.056c-2.026,1.105-3.033,2.696-2.478,4.977c0.442,1.812,1.873,2.751,4.554,3.028
	c0,1.633,0,3.28,0,5.005c-2.397-0.009-4.108,0.87-4.737,3.199c-0.472,1.749,0.331,3.298,2.502,4.804
	c-0.86,1.432-1.728,2.876-2.59,4.312c-2.48-1.251-4.145-1.168-5.584,0.198c-1.435,1.362-1.59,2.956-0.47,5.542
	c-1.247,0.708-2.509,1.425-3.836,2.18c-1.155-2.105-2.714-3.318-5.149-2.647C37.862,60.03,37.035,61.366,36.833,64.196z
	 M21.487,39.103c-0.051,7.171,5.766,13.017,12.986,13.049c7.083,0.032,12.991-5.733,13.048-12.734
	c0.061-7.306-5.679-13.191-12.922-13.252C27.422,26.105,21.54,31.91,21.487,39.103z"/>
<path fill-rule="evenodd" clip-rule="evenodd" fill="#222222" d="M74.839,57.417c-0.017-13.212,10.684-23.872,23.926-23.835
	c13.31,0.037,23.916,10.623,23.908,23.857c-0.008,13.208-10.666,23.762-23.994,23.76C85.479,81.197,74.854,70.599,74.839,57.417z
	 M98.725,73.944c9.156,0.02,16.579-7.313,16.656-16.456c0.076-9.138-7.375-16.605-16.599-16.635
	c-9.189-0.029-16.678,7.419-16.662,16.576C82.135,66.532,89.567,73.925,98.725,73.944z"/>
</svg>
