<?xml version="1.0" encoding="utf-8"?>
<!-- Generator: Adobe Illustrator 16.0.0, SVG Export Plug-In . SVG Version: 6.00 Build 0)  -->
<!DOCTYPE svg PUBLIC "-//W3C//DTD SVG 1.1//EN" "http://www.w3.org/Graphics/SVG/1.1/DTD/svg11.dtd">
<svg version="1.1" id="Layer_1" xmlns="http://www.w3.org/2000/svg" xmlns:xlink="http://www.w3.org/1999/xlink" x="0px" y="0px"
	 width="144px" height="144px" viewBox="0 0 144 144" enable-background="new 0 0 144 144" xml:space="preserve">
<g>
	<defs>
		<path id="SVGID_1_" d="M29.118,29.108C8.34,38.064-1.65,63.386,7.871,84.158c9.562,15.183,26.504,29.439,46.886,32.765
			c-12.739-6.697-20.77-17.921-26.068-30.953c-1.11-2.223-1.713-4.685-1.728-7.212c-0.009-1.954,0.316-3.939,1.05-5.875
			c3.199-8.432,12.629-12.675,21.061-9.476c4.309,1.635,7.514,4.901,9.201,8.825c0.148,0.454,0.315,0.899,0.511,1.333
			c1.324,2.917,3.754,5.331,6.986,6.558c5.899,2.238,12.419-0.265,15.41-5.61c0.3-0.536,0.578-1.092,0.803-1.684
			c0.016-0.043,0.025-0.088,0.042-0.132c5.772-11.054,18.952-16.326,30.826-11.822c12.818,4.863,19.24,19.268,14.345,32.171
			c-0.272,0.715-0.583,1.401-0.908,2.075c-0.178,0.369-0.378,0.718-0.572,1.075c-0.029,0.052-0.06,0.104-0.09,0.157
			c-0.31,0.558-0.629,1.107-0.977,1.634c-4.105,6.665-9.548,12.194-15.831,16.364c8.018-3.153,15.237-7.281,21.263-12.643
			c13.817-16.028,12.598-40.445-1.735-55.442c-10.747-11.244-21.189-7.756-32.354-4.269C89.116,44.144,81.969,46.292,74.309,45
			c-15.139-2.548-22.546-17.923-36.217-17.924C35.383,27.077,32.428,27.681,29.118,29.108"/>
	</defs>
	<clipPath id="SVGID_2_">
		<use xlink:href="#SVGID_1_"  overflow="visible"/>
	</clipPath>
	
		<linearGradient id="SVGID_3_" gradientUnits="userSpaceOnUse" x1="-76.9922" y1="241.082" x2="-75.9576" y2="241.082" gradientTransform="matrix(-318.0804 33.4316 33.4316 318.0804 -32441.25 -74041)">
		<stop  offset="0" style="stop-color:#E50572"/>
		<stop  offset="1" style="stop-color:#733147"/>
	</linearGradient>
	<polygon clip-path="url(#SVGID_2_)" fill="url(#SVGID_3_)" points="153.239,115.941 -0.06,132.052 -10.99,28.058 142.309,11.946 	
		"/>
</g>
</svg>
