<?xml version="1.0" encoding="utf-8"?>
<!-- Generator: Adobe Illustrator 16.0.0, SVG Export Plug-In . SVG Version: 6.00 Build 0)  -->
<!DOCTYPE svg PUBLIC "-//W3C//DTD SVG 1.1//EN" "http://www.w3.org/Graphics/SVG/1.1/DTD/svg11.dtd">
<svg version="1.1" id="Layer_1" xmlns="http://www.w3.org/2000/svg" xmlns:xlink="http://www.w3.org/1999/xlink" x="0px" y="0px"
	 width="288px" height="288px" viewBox="0 0 288 288" enable-background="new 0 0 288 288" xml:space="preserve">
<g>
	<path fill="#C7F2F9" d="M159.606,212.815c0.797-5.255,1.815-10.46,3.879-15.392c0.324-0.775,0.795-1.488,1.195-2.233
		c0.84-0.692,1.854-0.673,2.854-0.673c21.43-0.012,42.859-0.02,64.284,0.01c2.98,0.002,3.498,0.518,3.506,3.524
		c0.036,12.643,0.03,25.285,0.005,37.927c0,0.789-0.04,1.573-0.306,2.322c-1.054,2.03-3.093,3.056-4.707,4.514
		c-1.834,1.662-1.864,1.57-0.232,3.572c0.981,1.209,2.089,2.316,2.934,3.629c0.515,0.803,0.785,1.588-0.537,1.914
		c-0.923,0.195-1.853,0.164-2.781,0.164c-18.987,0.004-37.975,0.004-56.964,0.004c-1.287,0-2.584,0.069-3.733-0.674
		c-4.358-6.458-7.042-13.597-8.548-21.204c-0.33-1.659-0.558-3.345-0.832-5.014c0.295-1.701,0.318-3.398-0.017-5.096
		c0-1.586,0-3.175,0-4.761C159.922,214.505,159.918,213.662,159.606,212.815z"/>
	<path fill="#F1CDA4" d="M29.633,114.112c-9.042-7.604-15.388-17-18.908-28.302c-1.186-3.803-1.89-7.69-2.43-11.617
		c0.108-1.545,0.266-3.094-0.082-4.632c-0.607-12.96,3.15-24.657,10.255-35.383c0.073-0.11,0.218-0.172,0.333-0.255
		c2.286,0.275,4.043,1.75,5.921,2.827c4.799,2.754,9.521,3.768,14.477,0.516c0.291-0.191,0.658-0.273,1.003-0.374
		c3.743-0.934,7.556-0.434,11.209,0.125c3.786,0.582,5.726,3.739,6.723,7.289c0.91,3.235,1.189,6.582,1.261,9.929
		c0.1,4.77-0.065,9.541,0.063,14.307c0.074,0.229,0.112,0.463,0.128,0.7c-0.085,1.612-0.677,3.138-0.84,4.738
		c-0.186,1.851-0.622,3.672-0.62,5.544c0.21,2.084-0.639,4.089-0.449,6.172c0.031,0.722-0.032,1.438-0.166,2.145
		c-0.375,1.541-0.267,3.165-0.769,4.684c-0.342,1.232-0.813,2.413-1.403,3.547c-0.887,1.553-1.556,3.229-2.583,4.71
		c-0.106,0.171-0.229,0.331-0.361,0.481c-3.667,3.04-7.182,6.293-11.258,8.798C37.612,112.222,33.915,114.03,29.633,114.112z"/>
	<path fill="#BD4E58" d="M8.244,220.104c0.006-0.728,0.012-1.458,0.019-2.186c0.765-0.715,1.727-0.577,2.642-0.59
		c2.715-0.029,5.43-0.047,8.142,0.005c1.671,0.027,2.828-0.63,3.735-2.021c2.224-3.414,4.547-6.759,6.744-10.183
		c1.069-1.669,2.395-2.433,4.411-2.418c7.857,0.062,15.714,0.063,23.569-0.002c2.096-0.019,3.49,0.786,4.593,2.518
		c2.073,3.251,4.319,6.392,6.381,9.651c1.112,1.748,2.498,2.504,4.596,2.47c6.068-0.088,12.14-0.042,18.21-0.028
		c3.431,0.008,3.715,0.279,3.723,3.613c0.018,6.074,0.022,12.144-0.002,18.217c-0.012,3.05-0.384,3.408-3.496,3.429
		c-4.072,0.023-8.143,0.004-12.213,0.004c-4.01,0.004-4.118,0.008-3.988,3.932c0.2,6.08-1.485,11.592-4.81,16.598
		c-4.146,6.242-9.843,10.43-17.091,12.493c-1.183,0.337-2.425,0.082-3.563,0.57c-13.812-4.469-24.581-12.883-32.481-25.02
		c-0.263-0.406-0.437-0.87-0.651-1.309c-0.654-1.468-0.571-3.026-0.559-4.58c0.019-2.537,0.017-2.537-2.437-2.703
		c-0.284-0.018-0.553-0.102-0.831-0.153c-2.378-5.43-4.004-11.055-4.317-17.013C8.104,223.656,8.68,221.852,8.244,220.104z"/>
	<path fill="#BD1E2D" d="M49.843,276.177c0.706-1.235,2.061-0.845,3.084-1.094c12.126-2.927,21.971-14.974,21.766-27.646
		c-0.087-5.475,0.002-5.477,5.386-5.477c4,0,8.001-0.071,12,0.038c1.697,0.044,2.378-0.335,2.345-2.211
		c-0.114-6.569-0.093-13.141-0.008-19.713c0.023-1.669-0.426-2.215-2.154-2.188c-6.713,0.095-13.428-0.015-20.143,0.069
		c-1.713,0.025-2.749-0.573-3.657-1.998c-2.416-3.782-5.006-7.452-7.447-11.221c-0.667-1.028-1.428-1.422-2.629-1.414
		c-8.428,0.035-16.857,0.044-25.285-0.008c-1.236-0.011-1.935,0.434-2.586,1.441c-2.472,3.833-5.057,7.59-7.541,11.418
		c-0.821,1.264-1.82,1.815-3.357,1.777c-3.784-0.088-7.57-0.03-11.355-0.032c-0.303-3.358,0.146-6.641,0.912-9.899
		c1.389-0.853,2.937-0.534,4.402-0.465c1.927,0.094,3.259-0.514,4.23-2.23c0.983-1.739,2.199-3.341,3.284-5.022
		c1.815-2.263,2.968-5.008,5.099-7.051c0.726-0.371,1.514-0.425,2.3-0.425c11.563-0.021,23.129-0.034,34.692,0.004
		c0.428,0.002,0.856,0.038,1.274,0.122c1.799,0.43,2.342,2.109,3.294,3.372c0.467,0.619,0.877,1.279,1.294,1.929
		c1.306,2.043,2.647,4.058,4.057,6.035c1.204,2.575,3.176,3.602,6.02,3.231c1.466-0.193,2.98-0.042,4.477-0.063
		c3.678-0.063,7.354-0.077,11.027-0.002c0.271,0,0.541,0.002,0.81-0.006c2.121-0.1,4.241-0.048,6.357-0.021
		c0.778,0.01,1.564,0.05,2.193,0.619c0.596,0.9,0.43,1.92,0.437,2.904c0.044,7.322-0.055,14.646,0.065,21.968
		c-0.13,9.899,0.016,19.8-0.045,29.7c0.074,1.318,0.061,2.636-0.235,3.936c-6.949,5.674-14.945,9.096-23.65,10.996
		C70.196,279.81,59.966,279.177,49.843,276.177z"/>
	<path fill="#22D588" d="M232.061,126.296c-14.352,3.47-28.055,1.369-40.948-5.452c-12.956-6.853-22.056-17.367-27.51-30.99
		c-0.259-0.651-0.391-1.356-0.581-2.038c0.807-0.602,1.757-0.522,2.677-0.525c23.677-0.014,47.357-0.016,71.034,0
		c2.888,0.002,3.115,0.212,3.238,2.376c-0.828,3.713-1.398,7.478-2.175,11.203c-0.793,4.188-1.86,8.316-2.562,12.521
		c-0.598,3.704-1.446,7.355-2.243,11.021C232.832,125.126,232.505,125.734,232.061,126.296z"/>
	<path fill="#D5D5D5" d="M234.206,238.829c0.594-0.743,0.438-1.626,0.438-2.471c0.004-12.776,0-25.551,0-38.329
		c0-2.814,0-2.816-2.729-2.816c-22.409-0.008-44.821-0.014-67.232-0.022c0.788-3.067,2.489-5.645,4.366-8.127
		c0.933-0.638,1.992-0.701,3.073-0.701c22.607-0.002,45.208-0.008,67.813,0.012c1.057,0,2.168-0.105,3.019,0.762
		c0.552,0.876,0.5,1.853,0.464,2.828c0.032,1.44,0.048,2.881-0.004,4.322c0.025,1.277,0.042,2.556-0.008,3.833
		c0.025,0.765,0.033,1.529,0,2.295c0.048,1.282,0.038,2.558,0.008,3.84c0.05,1.554,0.048,3.105,0.004,4.659
		c0.044,1.431,0.046,2.861,0,4.293c0.044,1.435,0.046,2.868,0,4.307c0.05,1.572,0.05,3.144,0,4.717
		c0.056,1.716,0.056,3.427,0.004,5.14c0.052,1.721,0.056,3.437,0,5.153c0.056,2.356,0.06,4.715-0.012,7.071
		c0.04,1.239,0.056,2.48-0.146,3.709c-0.414,1.174-0.552,2.479-1.528,3.396c-0.74,0.335-1.286-0.107-1.673-0.586
		C238.099,243.695,235.817,241.53,234.206,238.829z"/>
	<path fill="#FB5E03" d="M168.882,36.053c2.688-4.537,6.008-8.542,10.02-11.974c0.822-0.3,1.681-0.284,2.537-0.282
		c24.725,0.017,49.447,0.006,74.167,0c1.291,0,2.572,0.042,3.835,0.307c3.605,3.078,6.621,6.655,9.119,10.68
		c-1.084,0.981-2.424,0.689-3.675,0.689c-19.169,0.023-38.34,0.006-57.507,0.033c-1.474,0.002-2.995-0.298-4.406,0.437
		c-8.908-0.068-17.815-0.035-26.729-0.039c-1.923,0-3.851-0.1-5.743,0.402C169.947,36.455,169.367,36.498,168.882,36.053z"/>
	<path fill="#F65007" d="M278.332,61.817c0.415,3.755,0.865,7.509,0.124,11.275c-1.701-0.247-3.408-0.289-5.124-0.287
		c-36.325,0.006-72.643,0.006-108.969-0.002c-1.342,0-2.717,0.179-4.023-0.341c-1.163-1.085-0.14-2.568-0.68-3.768
		c0.007-0.72,0.011-1.438,0.019-2.156c0.749-0.751,1.717-0.598,2.629-0.598c20.334-0.012,40.666-0.016,60.998-0.002
		c2.749,0.002,2.777,0.041,3.371,2.668c0.155,0.677,0.422,1.387,1.092,1.425c2.232,0.132,4.51,0.747,6.658-0.401
		c0.777-1.551,0.271-3.204,0.409-4.802c0.098-1.105-0.168-2.287,0.711-3.221c0.978-0.588,2.069-0.479,3.131-0.479
		c12.13-0.012,24.265-0.015,36.394,0.004C276.193,61.13,277.384,60.94,278.332,61.817z"/>
	<path fill="#22D588" d="M235.461,61.817c-0.169,2.793-0.207,5.584,0.014,8.377c-2.025,0.895-4.148,0.293-6.227,0.379
		c-2.847,0.121-2.974,0.027-2.918-2.7c0.035-1.72-0.933-1.565-2.036-1.565c-17.127,0.008-34.258,0.022-51.383-0.006
		c-4.418-0.007-8.84,0.188-13.257-0.125c-0.227-3.011,0.128-5.965,0.856-8.883c0.881-1.189,2.189-0.877,3.358-0.881
		c10.642-0.033,21.285-0.017,31.924-0.019c11.573,0,23.143,0,34.712,0c0.642,0,1.287-0.008,1.929,0.011
		C236.031,56.512,237.154,58.523,235.461,61.817z"/>
	<path fill="#F54D09" d="M160.065,72.112c38.574,0,77.148-0.004,115.721,0.029c0.925,0,2.255-0.671,2.668,0.952
		c0,2.896-0.423,5.728-1.331,8.48c-0.479,0.143-0.964,0.249-1.47,0.247c-13.818-0.052-27.639,0.073-41.455-0.062
		c-4.849,0.142-9.699,0.054-14.548,0.058c-18.324,0.012-36.649,0.01-54.976-0.009c-1.26,0-2.594,0.268-3.697-0.652
		c-0.153-0.866-0.303-1.734-0.454-2.598c1.087-0.975,2.434-0.686,3.688-0.688c21.366-0.019,42.732-0.013,64.098-0.015
		c0.858,0,1.716-0.016,2.574-0.026c1.521-0.019,2.326-0.934,2.301-2.274c-0.03-1.573-1.46-1.01-2.303-1.012
		c-22.153-0.032-44.306-0.026-66.456-0.028c-1.002,0-2.002,0.049-2.998-0.085c-0.904-0.123-1.718-0.374-1.618-1.555
		C159.786,72.583,159.87,72.33,160.065,72.112z"/>
	<path fill="#FA5A04" d="M202.906,35.62c0.617-1.165,1.728-0.812,2.675-0.812c20.992-0.018,41.987-0.018,62.982-0.02
		c2.333,3.003,4.018,6.361,5.414,9.875c-1.083,0.975-2.426,0.675-3.677,0.677c-18.888,0.021-37.78,0.013-56.666,0.015
		c-4.023,0-4.004,0.006-4.041,3.958c-0.017,1.335,0.238,2.723-0.534,3.965c-3.303,0.889-6.594,1.316-9.841-0.247
		c-0.645-2.406-0.605-4.822-0.041-7.237c1.125-0.702,1.107,0.32,1.225,0.894c0.221,1.124,0.138,2.281,0.109,3.418
		c-0.038,1.399,0.465,2.116,1.98,2.102c6.221-0.063,5.288,0.596,5.376-5.136c0.012-0.928-0.04-1.86,0.008-2.785
		c0.149-3.047-1.107-5.382-3.527-7.157C203.781,36.709,203.098,36.4,202.906,35.62z"/>
	<path fill="#F75406" d="M199.466,52.812c2.032,0.918,4.172,0.235,6.251,0.415c1.056,0.089,2.128,0.014,3.191,0.014
		c0.661-0.356,1.385-0.284,2.094-0.284c20.706,0.037,41.411-0.002,62.117,0.035c1.366,0.002,2.922-0.399,3.902,1.095
		c0.721,2.53,1.193,5.1,1.307,7.733c-14.29,0-28.581,0-42.871,0c-0.379-4.531-0.379-4.531-5.147-4.531
		c-23.266,0.002-46.534,0.004-69.803,0.007c0.618-4.235,1.917-8.273,3.515-12.229c1.063,0.502,0.82,1.507,0.894,2.375
		c0.13,1.53-0.192,3.085,0.262,4.589c0.336,0.581,0.892,0.645,1.478,0.62c2.18-0.098,4.377,0.264,6.546-0.255
		c0.251-0.073,0.502-0.123,0.761-0.161c7.771-0.227,15.539-0.072,23.311-0.088C198.063,52.145,198.843,52.239,199.466,52.812z"/>
	<path fill="#F4490A" d="M234.091,81.179c13.82-0.021,27.646-0.041,41.467-0.058c0.56,0,1.157-0.098,1.565,0.453
		c-0.504,3.303-1.584,6.417-3.014,9.422c-10.412-0.402-20.828-0.069-31.24-0.196c-1.182-0.014-2.452,0.263-3.468-0.673
		c0.605-2.027-0.289-2.38-2.184-2.375c-24.732,0.07-49.465,0.058-74.196,0.065c-0.351-0.985-0.697-1.971-1.048-2.956
		c0.732-1.228,1.976-0.971,3.067-0.979c5.642-0.042,11.282-0.02,16.924-0.02c15.641,0,31.282-0.039,46.919,0.039
		C231.238,83.917,233.099,83.513,234.091,81.179z"/>
	<path fill="#FC6201" d="M259.442,24.106c-0.774,0.493-1.644,0.396-2.496,0.396c-25.187,0-50.369,0-75.556,0.002
		c-0.856,0-1.717,0.057-2.489-0.424c3.514-3.535,7.562-6.322,11.983-8.587c0.962-0.353,1.964-0.265,2.95-0.265
		c16.899,0.01,33.8,0.004,50.699,0.002c0.982,0,1.99-0.103,2.942,0.275C251.902,17.766,255.919,20.596,259.442,24.106z"/>
	<path fill="#F85705" d="M277.025,54.084c-0.832-0.573-1.782-0.414-2.697-0.414c-20.836-0.006-41.668-0.004-62.502-0.006
		c-0.99,0-2.006,0.146-2.918-0.424c0-2.285,0.054-4.57-0.021-6.851c-0.039-1.281,0.379-1.787,1.71-1.748
		c2.709,0.078,5.426,0.022,8.135,0.022c18.414,0,36.832,0,55.243,0C275.356,47.684,276.414,50.813,277.025,54.084z"/>
	<path fill="#135362" d="M65.284,193.474c-12.485-0.012-24.969-0.023-37.452-0.038c-0.718-0.002-1.43-0.037-2.003,0.513
		c-0.586,0.45-1.261,0.625-1.985,0.637c-2.687,0.044-5.373,0.052-8.059-0.004c-0.706-0.02-1.424-0.075-1.952-0.655
		c0.864-2.142,1.931-4.169,3.334-6.012c0.567-0.368,1.191-0.385,1.851-0.381c31.985,0.256,63.971,0.046,95.957,0.128
		c1.256,0.004,2.564-0.502,3.774,0.259c1.158,1.578,2.112,3.271,2.834,5.092c-1.057,1.048-2.41,0.737-3.657,0.737
		c-16.143,0.025-32.286,0.027-48.428-0.004C68.098,193.74,66.645,194.19,65.284,193.474z"/>
	<path fill="#D5D5D5" d="M169.003,251.424c21.476-0.008,42.953-0.021,64.431-0.031c2.29,1.119,3.705,2.956,4.414,5.382
		c-0.375,1.287-0.622,2.653-2.08,3.251c-0.979,0.273-1.983,0.217-2.979,0.217c-17.832,0.007-35.664,0.004-53.499,0.002
		c-1.278,0-2.583,0.112-3.727-0.665C172.66,257.436,170.905,254.372,169.003,251.424z"/>
	<path fill="#FDD83E" d="M164.304,52.798c-0.171-2.575,0.335-5.171-0.278-7.729c1.242-3.209,2.591-6.36,4.856-9.016
		c2.445-0.977,5.008-0.877,7.569-0.872c7.412,0.017,14.822,0.019,22.23-0.004c1.432-0.004,2.84,0.068,4.223,0.442
		c4.065,1.891,5.942,5.048,5.669,9.548c-0.123,2.055-0.058,4.123-0.008,6.185c0.028,1.089-0.362,1.538-1.48,1.503
		c-1.918-0.059-3.842-0.061-5.759,0.002c-1.127,0.037-1.43-0.422-1.487-1.499c-0.105-1.956,0.479-3.959-0.36-5.868
		c-1.653-0.527-3.349-0.625-5.072-0.615c-5.784,0.035-11.573-0.006-17.357,0.021c-2.726,0.014-2.984,0.365-3.104,3.125
		c-0.068,1.6,0.476,3.309-0.688,4.755l0.042-0.008C170.304,53.197,167.304,53.148,164.304,52.798z"/>
	<path fill="#6D373E" d="M39.93,37.464c-0.681,0.353-1.377,0.68-2.04,1.061c-3.044,1.744-6.174,1.884-9.396,0.568
		c-3.408-1.392-6.629-3.132-9.693-5.17c5.633-8.096,12.799-14.457,21.562-19.003c2.811-0.565,4.52,1.479,6.554,2.76
		c1.671,1.639,3.305,3.307,4.494,5.351c0.566,0.863,1.036,1.767,1.146,2.813c-0.082,0.862-0.675,1.415-1.259,1.924
		C47.544,31.038,43.973,34.529,39.93,37.464z"/>
	<path fill="#145564" d="M118.75,187.92c-1.808,0.526-3.66,0.429-5.508,0.429c-29.903,0-59.806-0.002-89.709,0.002
		c-2.131,0-4.268,0.092-6.364-0.437c0.667-1.42,1.577-2.679,2.624-3.845c0.926-0.659,1.991-0.711,3.073-0.711
		c30.065-0.004,60.127-0.004,90.19,0c1.079,0,2.151,0.016,3.071,0.705C117.142,185.253,118.042,186.521,118.75,187.92z"/>
	<path fill="#155A69" d="M107.381,174.576c1.837,1.309,3.435,2.862,4.771,4.683c-0.36,0.856-1.127,1.024-1.921,1.128
		c-0.781,0.109-1.567,0.083-2.352,0.083c-26.618,0-53.232,0.009-79.849-0.016c-1.516-0.004-3.196,0.389-4.368-1.1
		c1.357-1.797,2.943-3.362,4.755-4.707c0.802-0.393,1.667-0.301,2.513-0.301c23.784,0.03,47.565-0.008,71.349,0.03
		C103.979,174.377,105.705,173.952,107.381,174.576z"/>
	<path fill="#145766" d="M23.663,179.354c1.098,0.339,2.213,0.431,3.366,0.431c27.334-0.017,54.67-0.012,82.007-0.012
		c1.067,0,2.148,0.087,3.116-0.515c1.524,1.437,2.857,3.032,3.972,4.805c-32.11,0.002-64.223,0.004-96.334,0.006
		C20.844,182.303,22.197,180.781,23.663,179.354z"/>
	<path fill="#D5D5D5" d="M222.73,278.762c-1.472,0.017-2.946,0.036-4.422,0.052c-1.688-0.307-3.377-0.278-5.066-0.023
		c-4.46-0.805-8.939-1.496-13.254-2.96c-6.255-2.128-11.984-5.22-17.213-9.245c-0.209-0.163-0.324-0.456-0.48-0.688
		c-0.979-2.525-0.43-3.523,2.224-3.563c6.533-0.102,13.075-0.094,19.608-0.002c2.26,0.032,2.646,0.582,2.825,2.82
		c0.123,1.507-0.546,3.14,0.627,4.494c1.285,0.646,2.657,0.339,3.988,0.364c2.908,0.05,5.818-0.027,8.727,0.042
		c1.116,0.024,2.341-0.039,2.813,1.375C223.263,273.886,223.784,276.363,222.73,278.762z"/>
	<path fill="#F3460B" d="M239.401,90.125c10.69,0,21.382-0.006,32.07,0.01c0.95,0,2.062-0.345,2.64,0.857
		c-1.354,3.698-3.165,7.151-5.54,10.303c-0.688,0.196-1.395,0.267-2.115,0.263c-8.713-0.049-17.43-0.002-26.143-0.033
		c-1.06-0.004-2.167,0.128-3.054-0.681C237.784,97.236,238.477,93.658,239.401,90.125z"/>
	<path fill="#165C6C" d="M107.381,174.576c-1.232,0.406-2.495,0.49-3.79,0.49c-23.935-0.021-47.87-0.019-71.805-0.003
		c-1.15,0-2.272-0.071-3.37-0.416c1.832-1.906,3.949-3.444,6.209-4.795c0.602-0.255,1.228-0.342,1.88-0.334
		c19.845,0.265,39.69,0.033,59.537,0.14c1.763,0.012,3.562-0.53,5.298,0.213C103.522,171.226,105.635,172.666,107.381,174.576z"/>
	<path fill="#F1410D" d="M237.258,100.849c9.542,0,19.079,0.002,28.621-0.003c0.926,0,1.858-0.069,2.692,0.453
		c-3.129,4.959-7.006,9.243-11.621,12.857c-6.322-0.408-12.65-0.082-18.979-0.2c-1.115-0.023-2.299,0.207-3.247-0.667
		C235.568,109.141,236.413,104.995,237.258,100.849z"/>
	<path fill="#ADACAC" d="M159.974,72.6c-0.044,0.619,0.004,1.168,0.836,1.16c0.574-0.004,1.146,0.01,1.718,0.01
		c23.083,0,46.166,0,69.249,0c0.848,0,1.692,0,2.563,0c-0.659,4.718-0.659,4.718-4.998,4.718c-22.012,0-44.024,0-66.036,0.002
		c-0.926,0-1.856,0.045-2.782,0.068c-0.038-0.261-0.072-0.522-0.11-0.781c-0.412-0.688,0.05-1.514-0.346-2.203
		c-0.241-0.977-0.662-1.93-0.361-2.972C159.79,72.351,159.882,72.361,159.974,72.6z"/>
	<path fill="#B0B84A" d="M57.568,79.379c0.084-1.876,0.166-3.754,0.767-5.561c0.83-0.718,1.848-0.685,2.848-0.685
		c21.132-0.012,42.269-0.012,63.4,0c0.995,0,2.017-0.037,2.844,0.694c0.026,1.935-0.205,3.833-0.823,5.674
		c-1.699-0.226-3.406-0.273-5.12-0.271c-19.531,0.008-39.062,0.014-58.593-0.013C61.113,79.216,59.347,79.439,57.568,79.379z"/>
	<path fill="#AEB647" d="M57.568,79.379c0.551-0.826,1.371-0.846,2.26-0.846c21.581,0.015,43.16,0.009,64.738,0.023
		c0.79,0,1.816-0.347,2.038,0.944c-0.028,1.318-0.289,2.585-0.847,3.782c-1.221,0.769-2.592,0.673-3.944,0.673
		c-19.537,0-39.072,0.016-58.606-0.023c-2.267-0.004-4.486-0.154-6.079,1.881C57.274,83.669,57.421,81.524,57.568,79.379z"/>
	<path fill="#B2BA4D" d="M127.427,73.828c-23.031-0.002-46.061-0.006-69.09-0.009c-0.13-1.633,0.658-3.116,0.781-4.707
		c1.088-0.977,2.433-0.692,3.688-0.694c20.229-0.02,40.459-0.016,60.691-0.01c4.408,0,4.533,0.16,3.957,4.687
		C127.444,73.338,127.437,73.583,127.427,73.828z"/>
	<path fill="#8DDAD5" d="M171.196,184.065c0.677-1.133,1.37-2.253,2.47-3.039c1.026-0.598,2.151-0.672,3.307-0.674
		c28.397-0.008,56.795,0.03,85.192-0.018c0.722-0.002,1.421,0.081,2.114,0.269c1.188,0.958,1.989,2.237,2.854,3.462
		c-0.622,0.827-1.55,0.954-2.479,1.058c-0.78,0.084-1.567,0.063-2.351,0.063c-28.76,0.002-57.516,0.008-86.276-0.015
		C174.361,185.169,172.561,185.514,171.196,184.065z"/>
	<path fill="#ACB444" d="M57.128,85.815c0.105-2.474,1.629-2.605,3.687-2.596c21.647,0.079,43.294,0.059,64.942,0.064
		c-0.665,1.836-0.656,3.882-1.764,5.577c-6.695-0.385-13.395-0.152-20.094-0.169c-14.397-0.042-28.793-0.004-43.19-0.028
		c-1.251-0.002-2.593,0.292-3.674-0.69C57.066,87.254,57.097,86.536,57.128,85.815z"/>
	<path fill="#B7C056" d="M126.504,55.805c0.486,1.678,0.788,3.389,0.836,5.139c-1.15,0.733-2.458,0.69-3.735,0.692
		c-18.548,0.022-37.096,0.018-55.642,0c-1.344,0-2.749,0.093-3.751-1.115c-0.358-2.063-0.247-3.989,1.624-5.388
		c19.595-0.037,39.191,0.028,58.787-0.033C125.325,55.101,126.08,55.027,126.504,55.805z"/>
	<path fill="#94DDD9" d="M257.862,174.168c1.409,0.997,2.819,1.989,3.781,3.468c-0.383,0.858-1.167,0.97-1.962,1.058
		c-0.711,0.08-1.429,0.06-2.14,0.06c-25.583,0-51.162,0.012-76.742-0.021c-1.421-0.002-3.074,0.485-4.094-1.122
		c1.232-1.518,2.592-2.902,4.282-3.92c0.919-0.107,1.833-0.207,2.761-0.207c23.318,0.016,46.637,0.008,69.95,0.012
		C255.126,173.494,256.568,173.398,257.862,174.168z"/>
	<path fill="#12505E" d="M65.284,193.474c1.1-0.335,2.218-0.422,3.37-0.422c17.642,0,35.286-0.024,52.93-0.042
		c0.977,1.64,1.671,3.402,2.277,5.205c-1.22,1.358-2.871,1.104-4.412,1.107c-12.863,0.027-25.726,0.016-38.588,0.016
		c-3.003,0-6.003,0-9.006-0.004c-1.079,0-2.154-0.008-3.076-0.697C67.614,196.918,66.449,195.197,65.284,193.474z"/>
	<path fill="#A6AF3B" d="M52.348,100.846c0.849-1.577,1.695-3.153,2.542-4.73c0.502-0.351,1.068-0.343,1.648-0.337
		c19.863,0.182,39.728,0.031,59.592,0.082c0.857,0.002,1.723-0.061,2.568,0.093c0.661,0.121,1.496,0.109,1.487,1.141
		c-0.591,1.563-1.45,2.962-2.562,4.208c-1.024,0.605-2.15,0.679-3.307,0.679c-19.261-0.004-38.521,0.006-57.78-0.018
		C55.065,101.96,53.495,102.146,52.348,100.846z"/>
	<path fill="#BAC25A" d="M126.504,55.805c-3.194,0.002-6.391,0.008-9.585,0.008c-16.288,0-32.575,0.004-48.862-0.015
		c-0.813,0-1.734,0.334-2.421-0.45c-0.806-2.016-0.395-4.19,1.012-5.358c18.89-0.041,37.781,0.021,56.67-0.031
		c0.702,0,1.458-0.071,1.89,0.695C125.864,52.313,126.304,54.03,126.504,55.805z"/>
	<path fill="#C8CF6F" d="M51.067,23.215c-1.434-1.714-2.869-3.427-4.302-5.142c0.884-1.473,2.372-1.105,3.665-1.109
		c11.137-0.037,22.274-0.013,33.414-0.023c4.355-0.004,8.71,0.042,13.067-0.031c0.777-0.012,1.573-0.073,2.323,0.245
		c2.896,1.412,5.399,3.366,7.707,5.59c-0.942,1.321-2.382,1.143-3.711,1.152c-7.288,0.039-14.576,0.016-21.862,0.016
		c-8.93,0-17.86,0-26.793,0C53.36,23.912,52.134,23.963,51.067,23.215z"/>
	<path fill="#FD6500" d="M247.48,15.504c-1.096,0.331-2.211,0.433-3.362,0.431c-16.621-0.018-33.246-0.018-49.865,0.002
		c-1.153,0.002-2.265-0.123-3.364-0.444c7.824-4.417,16.263-6.727,25.2-7.194c10.686-0.56,20.799,1.677,30.332,6.531
		C246.791,15.019,247.13,15.278,247.48,15.504z"/>
	<path fill="#A4AD38" d="M52.348,100.846c2.097,0.537,4.237,0.433,6.368,0.433c19.635,0.006,39.272,0.016,58.907,0.024
		c-1.256,2.028-2.538,4.033-4.325,5.652c-1.625-0.284-3.268-0.269-4.909-0.269c-18.63-0.01-37.259,0.027-55.886-0.012
		c-1.29-0.372-1.136-1.442-1.105-2.399c0.039-1.197,0.394-2.338,0.849-3.443L52.348,100.846z"/>
	<path fill="#165F6F" d="M101.344,169.871c-2.091,0.585-4.233,0.464-6.366,0.464c-17.995,0-35.988,0-53.982,0
		c-2.134,0-4.278,0.132-6.367-0.482c2.954-2.143,6.073-3.983,9.538-5.183c15.892,0.454,31.782,0.402,47.674,0.027
		C95.298,165.887,98.402,167.729,101.344,169.871z"/>
	<path fill="#CBD273" d="M99.234,17.154c-1.228,0.418-2.486,0.498-3.782,0.498c-15.258-0.021-30.517-0.015-45.775-0.013
		c-0.989,0-2.005-0.137-2.912,0.433c-2.069-1.187-3.878-2.893-6.401-3.156c2.642-1.266,5.238-2.631,8.119-3.308
		c13.018-0.382,26.036-0.385,39.053,0.002C91.713,12.873,95.695,14.546,99.234,17.154z"/>
	<path fill="#AAB341" d="M57.033,87.973c21.485,0.003,42.97-0.002,64.455,0.039c0.854,0,2.095-0.656,2.503,0.851
		c-0.327,1.417-0.806,2.766-1.654,3.964c-1.349,0.146-2.701,0.145-4.055,0.145c-19.905-0.002-39.809-0.012-59.711,0
		c-0.777,0-1.575,0.123-2.307-0.279C56.62,91.133,56.424,89.487,57.033,87.973z"/>
	<path fill="#B6BE53" d="M64.287,59.949c0.638,0.975,1.627,1.016,2.647,1.016c19.173-0.004,38.348-0.014,57.52,0.031
		c0.965,0.002,1.919-0.745,2.886-0.05c0.351,2.273,0.639,4.55,0.432,6.856c-1.491-2.084-3.684-1.88-5.87-1.876
		c-18.94,0.022-37.875,0.02-56.812,0c-1.401-0.002-2.888,0.279-4.101-0.778c-0.575-0.738-0.481-1.513,0.086-2.149
		C62.055,61.895,62.845,60.571,64.287,59.949z"/>
	<path fill="#99DFDB" d="M257.862,174.168c-24.965,0.008-49.937,0.02-74.905,0.02c-0.684,0-1.454,0.221-1.971-0.496
		c1.532-1.51,3.229-2.801,5.122-3.83c0.912-0.199,1.836-0.233,2.769-0.231c20.21,0.018,40.421,0.016,60.632,0
		c0.932,0,1.856,0.023,2.765,0.247C254.315,171.074,256.289,172.36,257.862,174.168z"/>
	<path fill="#A8B13E" d="M56.264,92.69c0.767-0.506,1.635-0.42,2.489-0.42c20.404,0,40.808-0.004,61.211,0.014
		c0.808,0,1.742-0.333,2.374,0.541c-0.753,1.406-1.028,3.051-2.154,4.269c-0.718-0.899-1.723-0.516-2.598-0.518
		c-19.707-0.023-39.41-0.023-59.117-0.004c-1.224,0-2.413-0.085-3.577-0.457C55.349,94.974,55.805,93.832,56.264,92.69z"/>
	<path fill="#C4CC68" d="M111.914,27.524c1.507,1.397,2.831,2.947,3.914,4.7c-1.028,1.375-2.55,1.101-3.937,1.104
		c-13.342,0.028-26.687,0.022-40.029,0.008c-2.28-0.002-4.564,0.117-6.841-0.101c-2.427-0.777-3.502-3.112-5.275-4.648
		c-0.471-0.408-0.082-0.89,0.4-1.17c1.188-0.625,2.482-0.599,3.765-0.601c14.909-0.01,29.816-0.006,44.723-0.004
		C109.778,26.813,110.931,26.78,111.914,27.524z"/>
	<path fill="#90DCD7" d="M176.706,177.609c0.772,0.479,1.629,0.448,2.492,0.448c26.65-0.004,53.301-0.004,79.951-0.002
		c0.858,0,1.722,0.062,2.494-0.42c1.163,0.739,1.781,1.958,2.636,2.968c-0.64,0.368-1.325,0.464-2.061,0.464
		c-29.519-0.02-59.031-0.031-88.553-0.041C174.433,179.665,175.475,178.554,176.706,177.609z"/>
	<path fill="#B4BC50" d="M60.934,64.394c0.587,1.193,1.699,0.845,2.646,0.845c20.175,0.012,40.353,0.038,60.529-0.035
		c2.05-0.006,3.587,0.102,3.665,2.595c0.002,1.77,0.318,3.562-0.318,5.294c-0.126-3.985-0.126-3.985-4.167-3.985
		c-21.389,0-42.777,0-64.169,0.002l0.023-0.074C58.972,67.193,59.108,65.467,60.934,64.394z"/>
	<path fill="#9EE1DD" d="M252.275,169.875c-0.831,0.538-1.769,0.46-2.695,0.46c-20.26,0-40.517,0-60.775,0
		c-0.93,0-1.862,0.069-2.692-0.472c2.286-1.701,4.649-3.27,7.352-4.247c1.329-0.224,2.672-0.265,4.015-0.265
		c14.481,0.006,28.957,0.006,43.437,0.004c1.345-0.004,2.684,0.029,4.012,0.267C247.634,166.59,249.988,168.174,252.275,169.875z"/>
	<path fill="#A0A932" d="M109.394,111.045c-1.727,1.732-3.324,3.614-5.574,4.729c-1.489-0.243-2.988-0.062-4.479-0.066
		c-14.421-0.022-28.845-0.006-43.264-0.022c-1.269-0.002-2.586,0.21-3.76-0.539c-0.838-1.658-0.81-3.323-0.032-4.992
		c0.805-0.589,1.75-0.561,2.671-0.561c17.192-0.016,34.385-0.014,51.576-0.004c0.714,0,1.44-0.016,2.118,0.237
		C109.178,110.028,109.785,110.252,109.394,111.045z"/>
	<path fill="#A2AB35" d="M109.394,111.045c-0.454-1.32-1.577-0.73-2.382-0.732c-18.221-0.037-36.442-0.028-54.664-0.028
		c-0.845-1.28-0.834-2.559-0.002-3.84c0.621-0.724,1.462-0.436,2.209-0.436c18.835-0.017,37.67-0.019,56.506,0.006
		c0.818,0,1.966-0.489,2.237,0.94C112.142,108.459,111.046,110.017,109.394,111.045z"/>
	<path fill="#C0C862" d="M119.3,37.356c1.046,1.471,2.015,2.983,2.552,4.727c-0.802,0.797-1.839,0.687-2.822,0.687
		c-16.462,0.018-32.926,0.018-49.387,0.004c-0.783,0-1.571,0-2.326-0.27c-0.561-0.218-0.89-0.659-1.129-1.185
		c-0.286-1.306-0.975-2.609-0.031-3.927c0.893-0.763,1.989-0.711,3.049-0.714c15.749-0.02,31.496-0.014,47.248-0.006
		C117.45,36.679,118.464,36.659,119.3,37.356z"/>
	<path fill="#89D9D3" d="M171.196,184.065c2.023,0.552,4.096,0.423,6.159,0.423c28.089,0.002,56.178,0,84.267,0.002
		c1.85,0,3.702,0.096,5.512-0.425c0.723,0.935,1.525,1.819,1.928,2.962c-0.582,0.666-1.387,0.689-2.163,0.697
		c-7.621,0.07-15.242-0.01-22.862,0.044c-0.432,0.004-0.853-0.071-1.236-0.28c-0.722-0.712-1.628-0.396-2.446-0.396
		c-23.769-0.024-47.538-0.026-71.305-0.03C169.762,186.067,170.479,185.063,171.196,184.065z"/>
	<path fill="#BCC45C" d="M66.592,41.228c0.119,0.286,0.237,0.571,0.355,0.857c0.181,0.222,0.356,0.454,0.442,0.728
		c0.901,2.859,0.899,2.87,3.842,2.87c16.219,0.004,32.436-0.004,48.653,0.011c1.267,0,2.595-0.219,3.709,0.681
		c0.906,1.287,1.309,2.764,1.616,4.279c-5.253,0.004-10.506,0.01-15.757,0.01c-13.537,0.003-27.072,0.007-40.608-0.012
		c-0.808,0-1.738,0.337-2.38-0.516C65.519,47.151,65.311,44.18,66.592,41.228z"/>
	<path fill="#C2CA65" d="M119.3,37.356c-16.822,0.005-33.643,0.007-50.465,0.015c-0.916,0-1.864-0.151-2.692,0.424
		c-1.296-1.454-1.96-3.144-1.911-5.1c16.003-0.017,32.008-0.037,48.014-0.035c1.221,0,2.415-0.066,3.582-0.438
		C117.187,33.799,118.413,35.464,119.3,37.356z"/>
	<path fill="#AEA9A8" d="M234.091,81.179c0.029,2.601-0.586,3.239-3.167,3.239c-22.1,0.002-44.198-0.002-66.297,0.014
		c-0.893,0.002-1.869-0.317-2.653,0.43c-0.608-1.164-0.812-2.435-1-3.71c0.713,0.033,1.426,0.092,2.139,0.092
		c23.087,0.004,46.181,0.004,69.268,0C232.951,81.246,233.521,81.201,234.091,81.179z"/>
	<path fill="#124E5B" d="M68.781,198.641c17.169,0,34.338-0.012,51.506,0.028c1.232,0.004,2.38-0.325,3.574-0.454
		c0.59,1.537,1.356,3.02,1.403,4.719c-0.969,0.831-2.15,0.663-3.278,0.667c-7.435,0.019-14.87,0.004-22.303,0.013
		c-3.221,0.002-3.221,0.008-3.872,3.207c-0.086,0.422-0.212,0.832-0.566,1.123c-0.142,0.012-0.285,0.024-0.426,0.038
		c-0.622-0.607-0.656-1.412-0.605-2.178c0.121-1.813-0.781-2.351-2.443-2.259c-1.553,0.084-3.124,0.146-4.664-0.014
		c-1.964-0.205-3.27,0.385-3.771,2.376c-2.578-2.146-5.645-1.416-8.58-1.443c-0.771-0.009-1.56,0.229-2.286-0.224
		C71.239,202.37,70.009,200.506,68.781,198.641z"/>
	<path fill="#C6CE6C" d="M111.914,27.524c-16.341-0.008-32.681-0.002-49.022-0.044c-1.172-0.002-2.225,0.463-3.363,0.508
		c-2.554-0.179-4.845-1.246-7.176-2.165c-0.428-0.868-0.856-1.74-1.285-2.606c17.36,0,34.721-0.007,52.081,0.012
		c1.296,0,2.559-0.078,3.792-0.483C108.81,24.12,110.556,25.617,111.914,27.524z"/>
	<path fill="#BEC65F" d="M123.592,46.376c-17.754,0-35.507,0.008-53.261-0.006c-3.84-0.003-3.35,0.497-3.394-3.429
		c-0.002-0.286,0.004-0.572,0.006-0.856c18.303,0,36.604,0,54.905,0C122.588,43.451,123.437,44.773,123.592,46.376z"/>
	<path fill="#176172" d="M91.84,164.695c-0.897,0.863-2.025,0.923-3.175,0.923c-13.779-0.004-27.558-0.002-41.338-0.002
		c-1.148,0-2.276-0.06-3.16-0.946c9-4.211,18.501-5.55,28.337-4.876C79.239,160.258,85.727,161.75,91.84,164.695z"/>
	<path fill="#9EA72F" d="M52.348,115.003c16.365,0,32.73-0.009,49.095,0.028c0.806,0,1.932-0.589,2.376,0.741
		c-1.896,1.464-3.613,3.21-6.017,3.895c-6.527,0.647-13.073,0.169-19.609,0.298c-5.046,0.101-10.094-0.12-15.137,0.093
		c-1.917,0.483-3.617-0.574-5.44-0.774c-1.232-0.366-2.425-0.854-3.69-1.117c-0.871-0.184-1.65-0.498-1.96-1.446
		C51.828,116.09,51.838,115.49,52.348,115.003z"/>
	<path fill="#2EB4AB" d="M206.772,270.627c-0.805-1.98-0.286-4.044-0.334-6.067c-0.028-1.307-0.435-1.726-1.735-1.716
		c-6.926,0.05-13.849,0.063-20.774,0.004c-2.684-0.025-1.203,1.98-1.638,3.05c-2.514-1.816-4.844-3.832-6.73-6.318
		c20.219,0.004,40.435,0.012,60.653,0.016c0.375,1.563-0.215,2.67-1.598,3.407c-2.84,0.443-5.701,0.175-8.549,0.205
		c-4.853,0.046-9.711,0.014-14.565,0.014c-3.96,0.002-3.96,0.004-4.115,3.92C207.345,268.332,207.671,269.589,206.772,270.627z"/>
	<path fill="#EF3C0F" d="M234.724,113.287c6.718,0,13.431-0.014,20.147,0.019c0.753,0.004,1.813-0.467,2.081,0.849
		c-7.272,6.137-15.551,10.227-24.888,12.142C232.951,121.96,233.836,117.624,234.724,113.287z"/>
	<path fill="#114B59" d="M95.244,207.941c0.082-5.755-0.775-4.978,4.978-5c8.346-0.038,16.695-0.01,25.04-0.01
		c0.871,2.207,1.421,4.49,1.648,6.853c-0.525,0.297-1.102,0.267-1.671,0.263c-6.141-0.028-12.283,0.008-18.425-0.02
		c-0.714,0-1.432,0-2.115-0.255c-0.837-0.299-0.567-1.092-0.743-1.686C101.052,208.039,98.149,207.991,95.244,207.941z"/>
	<path fill="#59C5BE" d="M242.823,227.381c0-1.717,0-3.432,0-5.146c0.745-0.707,1.693-0.688,2.613-0.69
		c10.107-0.024,20.213-0.036,30.32,0.008c2.627,0.01,2.893,0.318,2.675,2.498c-0.02,1.29,0.172,2.605-0.408,3.836
		c-0.699,0.176-1.41,0.205-2.127,0.203c-9.862-0.031-19.723,0-29.587-0.027C245.118,228.059,243.857,228.279,242.823,227.381z"/>
	<path fill="#303030" d="M273.705,242.9c-0.728,2.697-2.484,4.862-3.775,7.269c-1.238,0.076-2.263-0.434-3.2-1.177
		c-0.658-0.988-0.147-1.898,0.159-2.839c0.269-0.828,0.906-1.594,0.533-2.904c-1.169,1.277-1.328,2.753-2.01,3.944
		c-0.391,0.715-0.96,1.075-1.793,0.896c-3.091-0.467-3.069-2.556-2.045-5.339c-1.6,1.04-1.387,2.839-2.695,3.084
		c-1.207,0.23-2.327-0.51-3.433-0.996c-0.862-0.701-0.496-1.514-0.229-2.331c0.351-1.065,0.948-2.048,1.223-3.493
		c-1.14,0.844-1.265,1.939-1.699,2.84c-0.862,1.781-1.548,2.088-3.376,1.311c-1.829-0.776-3.701-1.456-5.53-2.244
		c-0.872-0.381-1.688-0.812-1.681-1.956c0.772-2.273,1.402-4.612,2.856-6.588c0.41-0.239,0.849-0.269,1.301-0.176
		c3.934,1.519,7.822,3.138,11.759,4.651c3.916,1.602,7.804,3.266,11.74,4.819C272.514,241.952,273.32,242.107,273.705,242.9z"/>
	<path fill="#E3C09B" d="M52.25,116.691c1.454,1.496,3.679,0.979,5.304,2.036c-0.321,3.205-2.322,5.356-4.599,7.337
		c-5.88-1.524-11.46-3.735-16.511-7.17c0.076-0.281,0.199-0.553,0.448-0.701c4.624-2.756,8.275-6.693,12.333-10.136
		c0.216-0.184,0.433-0.37,0.661-0.541c0.572-0.426,1.201-1.018,1.903-0.679c0.677,0.327,0.312,1.157,0.334,1.763
		C52.22,111.296,51.988,113.999,52.25,116.691z"/>
	<path fill="#5FC8C1" d="M278.432,224.051c0.172-1.566-0.647-1.849-2.044-1.845c-11.187,0.048-22.377,0.029-33.564,0.031
		c0-1.573,0-3.145,0-4.717c0.814-0.757,1.845-0.685,2.835-0.685c9.985-0.019,19.972-0.028,29.957,0.004
		c2.673,0.008,2.757,0.115,3.136,2.374C278.751,220.831,279.067,222.471,278.432,224.051z"/>
	<path fill="#53C3BC" d="M248.266,232.568c-0.395-0.012-0.789-0.03-1.184-0.044c-1.418,1.147-2.836,0.705-4.255,0.002
		c0-1.713,0-3.433-0.004-5.146c10.932,0,21.864-0.008,32.796,0.012c0.811,0,1.737-0.322,2.404,0.494
		c-0.025,1.605-0.259,3.176-0.9,4.665c-0.412,0.112-0.822,0.233-1.257,0.229c-9.065-0.042-18.135,0.08-27.198-0.069
		C248.53,232.712,248.396,232.622,248.266,232.568z"/>
	<path fill="#6FCFC8" d="M242.819,208.936c0-1.572,0-3.144,0-4.717c0.682-0.646,1.552-0.672,2.408-0.678
		c10.058-0.071,20.113,0.076,30.171-0.082c0.432-0.006,0.856,0.038,1.207,0.335c0.644,1.946,1.077,3.938,1.293,5.979
		c-10.674-0.327-21.353-0.064-32.027-0.16C244.813,209.604,243.71,209.736,242.819,208.936z"/>
	<path fill="#A3E3DF" d="M244.927,165.62c-1.1,0.324-2.211,0.44-3.362,0.438c-14.912-0.021-29.822-0.021-44.735,0
		c-1.153,0.002-2.266-0.118-3.362-0.444c2.991-1.526,5.999-2.992,9.386-3.456c1.1-0.423,2.247-0.247,3.376-0.247
		c9.078-0.008,18.153,0.098,27.229-0.05c0.705-0.012,1.423,0.033,2.098,0.301C238.931,162.626,241.943,164.086,244.927,165.62z"/>
	<path fill="#65CAC3" d="M278.751,219.21c-0.351-1.339-1.126-1.747-2.576-1.739c-11.113,0.082-22.232,0.046-33.352,0.046
		c0-1.43,0-2.86-0.004-4.29c0.753-0.706,1.701-0.678,2.621-0.682c10.402-0.032,20.803,0.006,31.207-0.02
		c0.569,0,1.143-0.009,1.661,0.292C278.416,214.955,278.968,217.055,278.751,219.21z"/>
	<path fill="#6ACCC6" d="M278.311,212.819c-0.839,0.554-1.791,0.402-2.707,0.405c-10.926,0.004-21.854,0.004-32.78,0.004
		c0-1.431,0-2.859,0-4.293c10.801,0,21.605,0,32.405,0.004c0.973,0,2.03-0.239,2.674,0.833
		C278.02,210.792,278.478,211.764,278.311,212.819z"/>
	<path fill="#104754" d="M104.3,209.365c6.708,0,13.417-0.004,20.126,0c0.853,0,1.724-0.107,2.487,0.419
		c0.43,1.956,0.667,3.934,0.579,5.944c-0.555,0.696-1.362,0.729-2.139,0.734c-6.333,0.058-12.669,0.042-19.004,0.01
		c-0.712-0.004-1.43-0.052-2.034-0.516C103.867,213.764,103.887,211.564,104.3,209.365z"/>
	<path fill="#9CA52C" d="M62.598,119.875c0.461-0.785,1.238-0.575,1.924-0.575c10.488-0.011,20.975-0.008,31.463,0
		c0.623,0,1.299-0.18,1.819,0.371c-4.451,3.015-9.385,4.894-14.562,6.199c-4.712-0.391-9.095-2.145-13.621-3.305
		c-1.718-0.44-3.419-0.96-5.125-1.456C63.791,120.808,62.899,120.793,62.598,119.875z"/>
	<path fill="#0F4551" d="M104.3,215.8c7.73-0.024,15.458-0.048,23.189-0.071l-0.026,0.008c0.409,1.135-0.085,2.349,0.3,3.485
		c0.049,1.63,0.224,3.268-0.288,4.86c-0.858-1.78-2.325-2.104-4.188-2.067c-5.321,0.107-10.649,0.048-15.978,0.028
		c-1.048-0.004-2.147,0.147-3.076-0.566C103.954,219.58,103.864,217.688,104.3,215.8z"/>
	<path fill="#303030" d="M234.979,262.552c0.413-0.988,0.825-1.971,1.237-2.952c0.477-1.04,0.95-2.084,1.425-3.126
		c1.856,0.371,2.414,1.977,3.194,3.368c-0.705,2.002,1.153,1.906,2.104,2.55c0.321,0.271,0.538,0.602,0.618,1.017
		c0.083,0.585-0.172,1.1-0.339,1.641c-0.523,1.651-1.431,2.398-3.163,1.475c-0.354-0.188-0.785-0.375-1.327,0.063
		c0.777,1.147,3.12,1.117,2.653,3.215c-0.983,2.458-0.983,2.458-4.888,2.345c0.241,0.938,1.191,0.904,1.784,1.329
		c0.835,0.596,1.277,1.179,0.247,1.978c-3.02,1.347-6.238,1.918-9.47,2.458c-0.751-1.008,0.04-1.851,0.314-2.732
		c0.355-1.13,0.973-2.157,1.359-3.277c0.721-1.518,1.163-3.147,1.809-4.697C233.355,265.652,233.62,263.813,234.979,262.552z"/>
	<path fill="#0E424D" d="M104.3,221.375c6.762,0,13.525,0.086,20.285-0.05c2.154-0.042,3.229,0.467,2.893,2.757
		c0.018,1.301,0.08,2.605-0.437,3.847c-6.485-0.631-12.983-0.134-19.475-0.301c-1.125-0.029-2.303,0.184-3.314-0.556
		C103.936,225.17,103.858,223.27,104.3,221.375z"/>
	<path fill="#75D1CB" d="M276.605,203.796c-1.024,0.321-2.068,0.44-3.149,0.435c-10.213-0.02-20.426-0.012-30.641-0.01
		c0-1.289,0-2.576,0-3.862c0.816-0.753,1.849-0.689,2.839-0.689c8.989-0.022,17.985-0.019,26.977-0.008
		c1.004,0,2.011,0.012,2.869,0.653C276.083,201.41,276.414,202.577,276.605,203.796z"/>
	<path fill="#82D6D0" d="M242.812,194.356c0-1.433,0-2.858,0-4.293c0.82-0.749,1.853-0.686,2.845-0.689
		c7.506-0.016,15.011-0.012,22.515-0.004c1.01,0,2.006,0.048,2.858,0.697c0.739,1.219,1.479,2.44,1.889,3.82
		c-0.686,1.05-1.789,1.116-2.854,1.124c-8.351,0.063-16.702,0.048-25.049,0.014C244.22,195.021,243.435,194.941,242.812,194.356z"/>
	<path fill="#D3AF8B" d="M52.25,116.691c-0.739-2.223-0.161-4.51-0.323-6.762c-0.063-0.894-0.008-1.799-0.008-3.178
		c-5.664,3.894-9.526,9.387-15.476,12.143c-2.528-1.23-4.604-3.099-6.809-4.783c1.719-1.014,3.745-0.975,5.592-1.664
		c4.439-1.653,8.099-4.43,11.731-7.299c1.785-1.41,3.527-2.876,5.288-4.317c0.501,1.863-0.969,3.762,0.1,5.613
		c0,1.281,0.002,2.56,0.002,3.84c0,1.572,0,3.145,0,4.718C52.315,115.568,52.283,116.128,52.25,116.691z"/>
	<path fill="#7BD3CE" d="M242.812,194.356c8.776-0.002,17.547-0.015,26.32,0.01c1.292,0.002,2.554-0.074,3.782-0.479
		c0.811,1.184,1.331,2.492,1.657,3.879c-0.54,1.113-1.605,1.105-2.59,1.111c-8.989,0.052-17.979,0.046-26.971,0.008
		c-0.795-0.004-1.576-0.081-2.199-0.671C242.815,196.93,242.815,195.643,242.812,194.356z"/>
	<path fill="#4DC1B9" d="M248.266,232.568c1.159-0.369,2.341-0.49,3.565-0.484c7.695,0.03,15.39,0.006,23.085,0.026
		c0.749,0,1.588-0.281,2.205,0.441c-0.104,1.66-0.632,3.197-1.297,4.701c-4.803,0.435-9.609,0.251-14.416,0.088
		c-0.49-0.016-0.979-0.088-1.479-0.052C255.967,235.913,252.059,234.377,248.266,232.568z"/>
	<path fill="#0D3D47" d="M104.3,221.375c0,1.858,0,3.715-0.002,5.576c0.385,0.454,0.501,0.998,0.588,1.571
		c0.382,2.433,0.391,2.454,2.964,2.464c4.977,0.024,9.956,0.002,14.933,0.01c0.782,0.002,1.576-0.046,2.335,0.158
		c0.692,0.185,1.451,0.386,1.023,1.406c-0.095,1.659-0.636,3.188-1.298,4.688c-5.701-0.393-11.413-0.107-17.118-0.199
		c-1.065-0.018-2.147,0.104-3.169-0.326c-1-1.1-0.35-2.406-0.441-3.617c-0.39-5.626-0.084-11.259-0.167-16.889
		c-0.039-2.709,0-5.422,0.006-8.131c0.115,0.426,0.227,0.853,0.341,1.278c0,2.147,0,4.293,0.002,6.435
		C104.3,217.658,104.3,219.515,104.3,221.375z"/>
	<path fill="#CDD476" d="M87.534,11.611c-0.544,0.679-1.31,0.442-1.993,0.442c-11.69,0.012-23.38,0.012-35.07,0
		c-0.681,0-1.448,0.234-1.993-0.444c3.623-1.547,7.439-2.419,11.314-2.903c8.804-1.1,17.496-0.481,26.005,2.14
		C86.4,11.031,86.959,11.354,87.534,11.611z"/>
	<path fill="#0E3F4A" d="M126.142,232.564c-0.249-1.309-1.3-0.873-2.061-0.879c-5.695-0.029-11.39-0.016-17.085-0.018
		c-2.746,0-2.748-0.002-2.739-2.797c0.002-0.638,0.026-1.281,0.043-1.92c6.836,0,13.674-0.013,20.511,0.016
		c0.833,0.008,1.96-0.446,2.232,0.962C127.02,229.526,126.747,231.076,126.142,232.564z"/>
	<path fill="#3AB9B0" d="M266.774,248.826c1.112,0.308,2.189,0.691,3.16,1.339c-0.594,1.215-1.212,2.414-2.281,3.299
		c-5.468-0.239-10.934-0.063-16.397-0.121c-0.923-0.011-1.851,0.041-2.755-0.188c-1.239-0.554-2.258-1.556-3.642-1.837
		c-0.307-0.165-0.534-0.404-0.661-0.73c-0.212-1.446,0.541-2.498,1.832-1.965c1.689,0.701,2.787-0.035,4.05-0.732
		c4.025-0.259,8.05-0.168,12.071-0.058c0.576,0.018,1.119,0.062,1.644-0.214c0.617,0.299,0.868-0.213,1.203-0.546
		C267.071,246.161,266.326,248.096,266.774,248.826z"/>
	<path fill="#0C3A45" d="M104.3,236.389c6.042,0,12.085-0.004,18.127,0.004c0.894,0.004,1.905-0.243,2.419,0.86
		c-0.336,1.659-0.864,3.251-1.715,4.722c-5.265-0.391-10.538-0.11-15.806-0.208c-1.055-0.02-2.156,0.156-3.089-0.56
		C103.961,239.598,103.869,237.99,104.3,236.389z"/>
	<path fill="#0C3841" d="M104.3,241.105c5.472,0,10.943-0.004,16.416,0.006c0.893,0.002,1.903-0.242,2.415,0.863
		c-0.537,1.504-1.045,3.023-2.018,4.326c-0.851,0.379-1.713,0.647-2.668,0.647c-3.91,0.002-7.818,0.044-11.727-0.018
		c-2.47-0.044-2.702-0.291-2.657-2.691C104.081,243.193,103.767,242.113,104.3,241.105z"/>
	<path fill="#7392FD" d="M64.309,120.7c4.519,0.775,8.82,2.371,13.247,3.494c1.913,0.485,3.792,1.112,5.687,1.672
		c-7.341,1.973-14.771,2.642-22.319,1.522C61.667,124.965,62.71,122.69,64.309,120.7z"/>
	<path fill="#0B353F" d="M104.3,241.105c-0.176,5.147-0.176,5.144,4.839,5.147c3.992,0.008,7.982,0.03,11.974,0.046
		c-1.04,1.743-1.572,3.778-3.06,5.261c-3.354,0.123-6.707,0.032-10.061,0.056c-3.039,0.024-3.067,0.048-3.091,3.144
		c-0.002,0.426,0,0.853-0.033,1.283c0.044,1.556,0.044,3.111-0.002,4.661c-0.024,0.761,0.035,1.583-0.745,2.091
		c-0.394-2.838-0.177-5.692-0.161-8.535c0.045-7.052-0.239-14.107,0.15-21.157c0.062,1.096,0.123,2.188,0.184,3.279
		C104.3,237.96,104.3,239.532,104.3,241.105z"/>
	<path fill="#85D7D2" d="M271.029,190.067c-9.405,0-18.812,0-28.218,0c-0.004-0.86-0.008-1.719-0.012-2.577
		c0.836-0.53,1.776-0.429,2.701-0.429c7.852-0.012,15.706-0.021,23.561-0.034C269.96,187.882,270.54,188.948,271.029,190.067z"/>
	<path fill="#34B7AE" d="M247.793,252.646c5.787,0.014,11.58,0.02,17.368,0.05c0.893,0.004,1.908-0.285,2.492,0.769
		c-1.165,1.45-1.826,3.283-3.389,4.435c-4.42-0.467-8.842-0.463-13.258-0.032c-2.542-0.159-3.07-2.354-4.094-4.052
		C246.947,253.229,247.146,252.769,247.793,252.646z"/>
	<path fill="#12505D" d="M13.833,193.926c3.998,0.008,7.996,0.014,11.994,0.024c-1.236,2.272-2.674,4.41-4.288,6.432
		c-3.431,1.008-6.859,0.946-10.285-0.032C11.844,198.102,12.75,195.978,13.833,193.926z"/>
	<path fill="#A8E5E1" d="M235.553,162.162c-10.902,0.727-21.8,0.727-32.7-0.002c2.502-1.281,5.263-1.678,7.972-2.012
		c7.721-0.954,15.418-0.728,22.991,1.278C234.417,161.586,234.975,161.913,235.553,162.162z"/>
	<path fill="#124D5A" d="M11.257,200.354c3.427,0.009,6.855,0.021,10.283,0.03c-1.458,2.272-2.939,4.53-4.364,6.818
		c-0.448,0.722-1.052,0.843-1.805,0.833c-2.066-0.024-4.13-0.01-6.197-0.012C9.709,205.422,10.231,202.816,11.257,200.354z"/>
	<path fill="#78D2CC" d="M242.815,198.215c9.688,0,19.374,0,29.063,0c0.925,0,1.856,0.075,2.693-0.448
		c0.582,0.753,0.777,1.644,0.927,2.55c-10.896,0.014-21.79,0.029-32.683,0.042C242.815,199.645,242.815,198.93,242.815,198.215z"/>
	<path fill="#0A333C" d="M104.298,256.117c-0.167-5.147-0.167-5.147,5.023-5.147c2.274,0,4.547-0.01,6.819,0.008
		c0.683,0.004,1.452-0.188,1.913,0.584c-1.14,1.902-2.264,3.816-3.953,5.309c-2.396-0.159-4.799-0.092-7.198-0.123
		C105.992,256.734,105.048,256.813,104.298,256.117z"/>
	<path fill="#0A3038" d="M104.298,256.117c2.589,0,5.178,0.004,7.769-0.004c0.778,0,1.567-0.062,2.034,0.757
		c-2.741,3.791-6.123,6.935-9.893,9.681c-0.458-1.238-0.312-2.495-0.085-3.755C104.181,260.571,104.238,258.345,104.298,256.117z"/>
	<path fill="#1649FD" d="M64.309,120.7c-0.851,2.369-1.868,4.658-3.39,6.688c-2.711-0.111-5.297-0.961-7.966-1.324
		c1.528-2.448,3.713-4.484,4.598-7.337c1.763,0.029,3.328,0.93,5.046,1.148C63.169,120.151,63.738,120.424,64.309,120.7z"/>
	<path fill="#48BEB6" d="M259.931,237.287c0.102-0.098,0.197-0.277,0.303-0.285c5.091-0.314,10.183-0.274,15.276-0.02
		c0.109,0.004,0.209,0.175,0.314,0.267c-0.479,1.971-1.05,3.904-2.121,5.649C269.054,241.174,264.433,239.377,259.931,237.287z"/>
	<path fill="#2FB5AB" d="M250.521,257.811c0.092-0.761,0.625-0.837,1.239-0.837c3.701,0.006,7.403,0.008,11.103,0
		c0.689-0.004,1.305,0.052,1.4,0.925c-1.173,1.491-2.253,3.079-3.908,4.115c-2.069-0.249-4.141-0.235-6.213-0.002
		C252.12,261.314,250.902,259.922,250.521,257.811z"/>
	<path fill="#1CADA3" d="M231.158,271.974c-0.446,2.071-1.78,3.822-2.1,5.938c-2.107,0.285-4.217,0.564-6.328,0.851
		c-0.014-2.4-0.026-4.801-0.042-7.199C225.557,270.704,228.422,270.067,231.158,271.974z"/>
	<path fill="#24B0A6" d="M241.011,269.734c0.351-1.885-1.339-1.621-2.271-2.159c-0.502-0.291-1.305-0.331-0.857-1.316
		c0.352-0.773,0.827-0.799,1.534-0.608c2.745,0.749,2.749,0.733,3.908-2.314c2.01,0.444,2.534,2.458,3.813,3.676
		c0.803,0.755,1.425,1.717,2.291,2.439c0.203,0.229,0.377,0.469,0.217,0.799c-0.432,0.264-0.866,0.528-1.301,0.795
		c-1.822-0.269-3.661-0.012-5.479-0.189C242.126,270.784,241.066,271.027,241.011,269.734z"/>
	<path fill="#F55008" d="M159.654,66.179c21.42,0,42.838,0.026,64.258-0.05c1.995-0.008,2.972,0.381,2.558,2.522
		c-0.327,1.682,0.487,2.12,2.023,1.948c2.318-0.259,4.693,0.413,6.981-0.402c-0.316,0.812-1.035,0.614-1.646,0.625
		c-1.357,0.021-2.716,0.021-4.074,0.002c-1.065-0.016-2.299,0.243-3.161-0.2c-1.084-0.555-0.406-1.942-0.518-2.957
		c-0.088-0.81-0.446-1.143-1.226-1.126c-0.567,0.012-1.142-0.002-1.713-0.002c-21.152,0-42.308,0-63.458,0
		C159.619,66.419,159.61,66.3,159.654,66.179z"/>
	<path fill="#1FAEA4" d="M241.011,269.734c1.283,1.098,2.801,0.368,4.207,0.514c1.096,0.113,2.247-0.107,3.132,0.797
		c-3.168,1.713-6.295,3.506-9.821,4.408c0.329-0.709,0.437-1.32-0.535-1.625c-0.604-0.188-1.186-0.446-1.77-0.693
		c-0.607-0.255-0.882-0.665-0.585-1.335c0.284-0.64,0.799-0.898,1.353-0.518C239.139,272.771,240.338,271.974,241.011,269.734z"/>
	<path fill="#2CB2A8" d="M249.646,270.252c-0.153-0.144-0.305-0.286-0.46-0.43c0.184-1.54,1.709-1.908,2.546-2.877
		c0.45-0.523,1.078-0.893,1.638-1.318c1.092-0.825,1.677-1.671,0.502-2.889c-0.243-0.259-0.239-0.647-0.07-0.994
		c2.212-0.543,4.423-1.117,6.554,0.27C257.189,265.288,253.703,268.139,249.646,270.252z"/>
	<path fill="#BC202F" d="M12.884,242.416c1.061-0.897,2.308-0.318,3.466-0.414c0.51-0.042,0.699,0.311,0.596,0.853
		c-0.44,2.319-0.047,4.669-0.235,6.998C15.102,247.544,13.9,245.026,12.884,242.416z"/>
	<path fill="#BBECF0" d="M159.606,220.11c0.649,1.695,0.632,3.395,0.013,5.096C159.615,223.505,159.61,221.808,159.606,220.11z"/>
	<path fill="#AB505A" d="M8.244,220.104c0.753,1.727,0.214,3.527,0.322,5.295C7.896,223.67,8.23,221.877,8.244,220.104z"/>
	<path fill="#B9D2D0" d="M213.242,278.794c1.689-0.582,3.379-0.622,5.064,0.02C216.621,278.806,214.932,278.798,213.242,278.794z"/>
	<path fill="#E7CFA1" d="M8.215,69.558c0.653,1.532,0.545,3.081,0.08,4.632C8.269,72.647,8.242,71.103,8.215,69.558z"/>
	<path fill="#F55008" d="M159.974,72.6l-0.134-0.029c0,0-0.134,0.029-0.134,0.031c-0.012-1.302-0.027-2.604-0.044-3.908
		c0.729,1.068,0.147,2.294,0.405,3.418C160.033,72.275,160.003,72.437,159.974,72.6z"/>
	<path fill="#104754" d="M127.765,219.222c-0.694-1.111-0.243-2.322-0.3-3.485C127.948,216.863,127.783,218.047,127.765,219.222z"/>
	<path fill="#BAEBEE" d="M159.606,212.815c0.618,0.847,0.618,1.689,0,2.534C159.606,214.505,159.606,213.662,159.606,212.815z"/>
	<path fill="#CAA79A" d="M160.067,75.574c0.643,0.65,0.292,1.457,0.346,2.2C159.798,77.12,160.029,76.33,160.067,75.574z"/>
	<path fill="#FEDD17" d="M253.801,261.744c0.138,1.134,1.952,1.642,1.58,2.496c-0.46,1.048-1.757,1.729-2.701,2.554
		c-1.159,1.017-2.331,2.021-3.494,3.028c-2.338-1.817-3.673-4.538-5.864-6.486c-0.171-0.197-0.339-0.393-0.506-0.59
		c-0.864-0.856-2.169-1.351-2.267-2.82c-0.969-1.151-1.938-2.303-2.908-3.454c-1.262-1.813-2.676-3.498-4.207-5.079
		c-1.598-1.975-3.153-3.99-4.817-5.908c-0.801-0.913-0.705-1.446,0.22-2.17c1.836-1.436,3.585-2.981,5.37-4.485
		c2.151,1.456,3.318,3.799,5.084,5.604c0.738,0.755,1.414,1.565,2.121,2.354c1.4,0.868,2.452,2.02,2.938,3.625
		c0.171,0.199,0.342,0.398,0.514,0.598c1.171,0.536,1.918,1.422,2.235,2.673c1.143,1.377,2.282,2.753,3.422,4.128
		C251.502,259.215,252.546,260.569,253.801,261.744z"/>
	<path fill="#BCBFC1" d="M207.717,217.505c-3.494,0-6.983-0.016-10.478,0.008c-0.958,0.004-1.669-0.088-1.644-1.347
		c0.024-1.144,0.676-1.225,1.542-1.223c7.129,0.012,14.261,0.012,21.39,0c0.874-0.002,1.512,0.096,1.536,1.23
		c0.023,1.264-0.705,1.339-1.653,1.335C214.849,217.491,211.282,217.505,207.717,217.505z"/>
	<path fill="#BCBFC1" d="M180.963,232.522c-3.429,0-6.856-0.006-10.287,0.004c-0.912,0.004-1.707,0.006-1.696-1.291
		c0.006-1.309,0.826-1.269,1.725-1.269c6.926,0.006,13.856,0.006,20.782,0c0.841,0,1.552,0.018,1.586,1.188
		c0.041,1.234-0.628,1.384-1.609,1.378C187.963,232.507,184.463,232.522,180.963,232.522z"/>
	<path fill="#BCBFC2" d="M181.028,237.249c-2.784,0-5.571,0-8.36,0c-0.743,0.004-1.47,0.026-1.488-1.035
		c-0.012-0.959,0.385-1.5,1.375-1.5c5.646-0.004,11.29-0.004,16.936-0.002c0.988,0.002,1.395,0.537,1.379,1.493
		c-0.015,1.059-0.731,1.048-1.48,1.048C186.602,237.249,183.817,237.249,181.028,237.249z"/>
	<path fill="#BBBFC1" d="M203.629,208.529c2.71,0,5.423,0.016,8.134-0.008c0.928-0.009,1.479,0.217,1.476,1.303
		c0,1.113-0.609,1.267-1.508,1.263c-5.422-0.017-10.846-0.012-16.269-0.002c-0.836,0-1.548-0.015-1.577-1.188
		c-0.036-1.233,0.623-1.393,1.611-1.38C198.203,208.547,200.912,208.525,203.629,208.529z"/>
	<path fill="#030303" d="M226.614,242.931c-0.288-2.817-0.535-5.255-0.807-7.922c2.607,0.811,4.973,1.543,7.565,2.35
		C231.083,239.245,228.967,240.986,226.614,242.931z"/>
	<path fill="#EA098F" d="M207.267,226.505c1.325,0.229,2.347,0.845,2.435,2.422c0.025,0.431,0.131,0.9,0.004,1.283
		c-0.51,1.498,3.044,1.247,1.395,2.727c-1.157,1.036-1.358,1.966-1.427,3.265c-0.06,1.168-0.884,1.771-1.968,1.896
		c-0.552,0.063-1.435,0.534-1.617-0.374c-0.16-0.809,0.725-0.697,1.234-0.789c0.881-0.157,1.197-0.688,1.144-1.516
		c-0.06-0.95,0.02-1.851,0.733-2.592c0.232-0.239,0.474-0.488,0.018-0.833c-0.771-0.585-0.795-1.462-0.747-2.338
		c0.06-1.076-0.326-1.791-1.504-1.929c-0.498-0.056-1.092-0.219-0.893-0.904C206.229,226.3,206.789,226.528,207.267,226.505z"/>
	<path fill="#EA098F" d="M202.5,238.189c-1.576-0.142-2.816-0.853-2.482-2.532c0.365-1.826-2.113-2.354-1.667-3.439
		c0.427-1.036,1.835-1.546,1.671-3.199c-0.175-1.779,1.182-2.429,2.791-2.52c0.337-0.021,0.755-0.07,0.816,0.436
		c0.055,0.446-0.267,0.693-0.623,0.722c-1.649,0.127-1.663,1.223-1.881,2.537c-0.244,1.477-0.655,2.718-0.05,4.327
		c0.459,1.215,0.212,2.527,2.028,2.562c0.379,0.008,0.651,0.368,0.49,0.772C203.387,238.383,202.876,238.146,202.5,238.189z"/>
	<path fill="#E90B90" d="M188.061,214.995c-1.092-1.659-4.08-0.895-3.919-3.937c1.853,0.895,3.534,1.653,5.161,2.51
		c1.361,0.718,1.398,1.771,0.084,2.502c-1.307,0.724-2.677,1.333-4.027,1.965c-0.395,0.183-0.915,0.727-1.212-0.061
		c-0.177-0.47-0.067-0.989,0.492-1.267C185.781,216.143,186.913,215.568,188.061,214.995z"/>
	<path fill="#EA098F" d="M178.011,210.991c-0.149,2.981-2.964,2.408-4.078,3.979c1.147,0.572,2.275,1.14,3.402,1.705
		c0.618,0.313,0.823,0.896,0.53,1.435c-0.364,0.653-0.87,0.096-1.274-0.092c-1.293-0.594-2.576-1.217-3.854-1.845
		c-0.574-0.282-1.149-0.543-1.092-1.386c0.046-0.709,0.512-0.95,1.037-1.203C174.346,212.784,176.001,211.974,178.011,210.991z"/>
	<path fill="#EA078F" d="M179.532,220.935c-0.807,0.036-0.741-0.514-0.619-1.004c0.849-3.438,1.729-6.87,2.586-10.306
		c0.161-0.647,0.533-1.063,1.201-0.881c0.854,0.233,0.443,0.908,0.316,1.404c-0.789,3.159-1.602,6.314-2.414,9.472
		C180.451,220.22,180.438,220.949,179.532,220.935z"/>
	<path fill="#452228" d="M52.352,25.823c2.608,0.004,4.858,1.191,7.176,2.165c1.775,1.362,3.416,2.857,4.704,4.71
		c0.636,1.699,1.272,3.4,1.911,5.1c0.15,1.144,0.3,2.287,0.45,3.43c-0.043,2.97-0.088,5.94-0.128,8.908
		c-0.483,1.704-0.683,3.453-0.826,5.212c-0.449,1.534-0.897,3.067-1.349,4.601c-0.798,1.724-2.896,2.464-3.354,4.445
		c-0.81,1.464-1.738,2.886-1.793,4.642c-0.636-0.578-0.338-1.336-0.361-2.016c-0.207-6.044,0.255-12.102-0.419-18.137
		c-0.223-1.985-0.56-3.935-1.292-5.797c-1.604-4.07-4.504-5.997-8.875-5.86c-2.756,0.087-5.532-0.579-8.263,0.237
		c1.45-2.172,3.745-3.451,5.573-5.228C47.745,30.057,50.394,28.31,52.352,25.823z"/>
	<path fill="#A17164" d="M39.703,93.373c-0.746,2.986-5.33,5.474-10.417,5.301c-5.02-0.169-11.092-2.859-11.99-8.006
		C24.424,96.026,32.057,94.748,39.703,93.373z"/>
	<path fill="#C4C8C6" d="M65.203,246.596c-0.021,10.842-8.851,19.813-19.566,19.685c-10.292-0.119-19.205-8.135-19.302-19.73
		c-0.092-10.834,8.602-19.173,19.456-19.165C56.669,227.389,65.223,235.856,65.203,246.596z"/>
	<path fill="#1C74BA" d="M83.188,205.916c0.111-2.937,0.111-2.937,3.041-2.937c2.203,0,4.41,0.092,6.607-0.03
		c1.595-0.087,2.221,0.442,2.04,2.048c-0.114,0.982-0.042,1.99-0.056,2.982c-3.851-0.006-7.7-0.01-11.548-0.015
		C82.676,207.306,82.616,206.625,83.188,205.916z"/>
	<path fill="#124B58" d="M83.188,205.916c0.028,0.683,0.055,1.366,0.083,2.049c-1.347,0.022-2.719-0.121-4.033,0.094
		c-3.344,0.554-5.563-0.687-6.768-3.822c2.984-0.862,6.038-0.301,9.058-0.426C83.013,203.748,82.539,205.282,83.188,205.916z"/>
	<path fill="#42BCB4" d="M244.449,238.969c-0.052,0.579,0.238,0.926,0.753,1.137c2.37,0.96,4.748,1.896,7.101,2.9
		c0.879,0.377,1.331,0.088,1.64-0.717c0.427-1.124,0.895-2.228,1.295-3.358c0.255-0.729,0.636-0.562,1.267-0.482
		c1.068,0.136,0.602,0.741,0.467,1.144c-0.406,1.188-0.837,2.374-1.395,3.498c-0.287,0.577-0.492,1.002,0.075,1.47
		c-0.251,1.188-1.257,0.921-2.031,0.988c-1.402,0.128-2.845-0.126-4.188,0.5c-2.51-0.018-4.697-0.922-6.655-2.452
		c0.019-1.259,0.034-2.518,0.046-3.781C243.2,239.205,243.616,238.684,244.449,238.969z"/>
	<path fill="#303131" d="M242.779,243.596c2.147,0.747,4.295,1.496,6.442,2.243c1.841,0.642,1.259,1.554,0.272,2.506
		c-0.476,1.638-1.432,1.813-2.79,0.964c-1.312-0.814-2.144-0.474-2.351,1.107c-1.064-1.146-2.155-2.261-2.94-3.627
		C241.867,245.723,242.325,244.659,242.779,243.596z"/>
	<path fill="#4CC0B8" d="M244.449,238.969c-0.542,0.282-1.08,0.563-1.622,0.844c0-2.428,0-4.854,0-7.284
		c1.419,0,2.837,0,4.255-0.002C246.206,234.676,245.327,236.819,244.449,238.969z"/>
	<path fill="#F95805" d="M173.262,52.779c0-1.995,0.038-3.992-0.014-5.984c-0.044-1.765,0.685-2.658,2.51-2.654
		c7.127,0.018,14.253,0,21.378,0.012c1.012,0.002,2.042,0.054,2.343,1.339c-0.004,2.441-0.009,4.881-0.013,7.32
		C190.735,52.802,181.999,52.792,173.262,52.779z"/>
	<path fill="#F95805" d="M164.304,52.798c2.998-0.008,5.996-0.019,8.996-0.027C170.304,53.544,167.304,53.505,164.304,52.798z"/>
	<path fill="#22B0A6" d="M231.158,271.974c-2.784-0.875-5.651-0.207-8.468-0.411c-0.255-1.155-1.189-0.784-1.898-0.794
		c-4.673-0.068-9.346-0.098-14.02-0.142c0.008-1.115,0.017-2.233,0.026-3.349c0.811-0.761,1.834-0.693,2.822-0.695
		c6.833-0.02,13.657-0.023,20.487,0.002c0.979,0.004,2.017-0.109,2.817,0.684C232.517,268.905,231.987,270.495,231.158,271.974z"/>
	<path fill="#28B2A8" d="M232.923,267.269c-8.708,0.004-17.417,0.006-26.126,0.01c-0.096-4.727-0.096-4.727,4.641-4.727
		c7.849,0,15.693,0,23.541,0C234.481,264.203,233.8,265.778,232.923,267.269z"/>
	<path fill="#3FBAB2" d="M249.494,248.343c0.068-0.853,1.082-1.807-0.272-2.504c0.438-0.986,1.322-0.811,2.155-0.889
		c1.424-0.132,2.92,0.438,4.274-0.395c0.343,0.068,0.745,0.046,1.021,0.222c1.898,1.194,2.912,0.607,3.37-1.496
		c0.13-0.602,0.283-1.492,1.404-0.973c0.97,0.454,0.659,1.056,0.416,1.753c-0.88,2.515-0.688,2.849,1.933,3.554
		c-0.398,0.749-1.088,0.787-1.82,0.783C257.815,248.372,253.655,248.364,249.494,248.343z"/>
	<path fill="#49BCB4" d="M249.62,235.521c1.138,0.215,1.797,0.876,1.745,2.025c-0.056,1.265-0.829,1.937-2.084,1.858
		c-1.169-0.071-1.767-0.86-1.765-1.976C247.524,236.094,248.488,235.688,249.62,235.521z"/>
	<path fill="#3FB7AF" d="M266.774,248.826c-0.545-0.633-0.318-2.041-1.776-1.753c0.464-1.19,0.94-2.374,1.383-3.571
		c0.247-0.667,0.481-1.111,1.366-0.755c0.854,0.339,0.778,0.765,0.534,1.482C267.757,245.751,266.688,247.102,266.774,248.826z"/>
	<path fill="#35AD9C" d="M240.549,259.926c0.836,0.877,1.732,1.701,2.263,2.82c-0.534-0.187-1.06-0.41-1.602-0.556
		C239.722,261.79,239.656,261.006,240.549,259.926z"/>
	<path fill="#353D37" d="M247.099,253.683c-0.923-0.742-1.594-1.694-2.235-2.673c1.195,0.151,2.521,0.067,2.93,1.636
		C247.561,252.992,247.329,253.337,247.099,253.683z"/>
	<path fill="#FEFEFE" d="M38.757,246.295c-3.338-0.008-4.895-1.521-4.889-4.769c0.008-3.783,3.896-7.647,7.729-7.684
		c2.764-0.025,5.208,2.414,5.165,5.153C46.704,242.847,42.916,246.301,38.757,246.295z"/>
</g>
</svg>
