<?xml version="1.0" encoding="utf-8"?>
<!-- Generator: Adobe Illustrator 16.0.0, SVG Export Plug-In . SVG Version: 6.00 Build 0)  -->
<!DOCTYPE svg PUBLIC "-//W3C//DTD SVG 1.1//EN" "http://www.w3.org/Graphics/SVG/1.1/DTD/svg11.dtd">
<svg version="1.1" id="Layer_1" xmlns="http://www.w3.org/2000/svg" xmlns:xlink="http://www.w3.org/1999/xlink" x="0px" y="0px"
	 width="144px" height="144px" viewBox="0 0 144 144" enable-background="new 0 0 144 144" xml:space="preserve">
<polygon fill="#BE202E" points="43.44,99.318 40.758,95.291 30.021,95.291 27.338,99.318 19.286,99.318 19.286,122.129 
	51.492,122.129 51.492,99.318 "/>
<path fill="#BF4F59" d="M48.809,108.71h-5.475c0.782,5.037-3.102,9.395-7.943,9.395c-4.847,0-8.726-4.359-7.947-9.395h-5.475V102
	h6.805l2.686-4.025h7.863l2.682,4.027h6.804L48.809,108.71L48.809,108.71z"/>
<path fill="#C5C9C7" d="M35.391,104.683c-3.01,0-5.369,2.323-5.369,5.286c0,3.003,2.409,5.452,5.369,5.452
	c2.958,0,5.367-2.446,5.367-5.452C40.758,107.007,38.399,104.683,35.391,104.683z"/>
<path fill="#FFFFFF" d="M34.805,109.453c-0.849,0.678-1.96,0.673-2.486-0.005c-0.522-0.68-0.261-1.778,0.588-2.454
	c0.848-0.673,1.958-0.668,2.484,0.01C35.915,107.682,35.652,108.778,34.805,109.453z"/>
<g id="circle">
	<circle fill="none" stroke="#CDCCCC" stroke-width="2.0881" stroke-miterlimit="10" cx="35.391" cy="109.526" r="26.403"/>
</g>
<rect x="45.74" y="97.975" fill="#2075BC" width="3.251" height="1.342"/>
<g id="Layer_1_2_">
	<g id="Layer_1_1_">
		<path fill="#6E383F" d="M27.388,28.438c0,0.44,0,0.881,0,1.321C27.25,29.507,27.25,28.689,27.388,28.438z"/>
		<path fill="#EFCC9B" d="M35.064,37.845c0.302-0.135,1.179-0.135,1.484,0C36.053,37.845,35.559,37.845,35.064,37.845z"/>
		<path fill="#B58E7D" d="M34.734,37.845c0.11,0,0.217,0,0.331,0c0.494,0,0.989,0,1.484,0c0.166,0,0.331,0,0.497,0
			C36.465,37.983,35.311,37.983,34.734,37.845z"/>
		<g id="XMLID_1_">
			<g>
				<path fill="#F2CEA5" d="M28.049,37.268c0.183,0.311,0.269,0.721,0.413,1.075C28.23,38.076,28.118,37.689,28.049,37.268z"/>
			</g>
		</g>
		<path fill="#788CC6" d="M44.884,44.696c2.155,0.566,4.216,1.23,6.438,1.732c-0.469,1.13-1.884,2.021-2.806,2.97
			c-3.213,2.399-7.617,4.591-13.206,4.538c-5.498-0.05-9.943-2.082-13.04-4.622c-1.013-0.831-2.319-1.801-2.807-2.887
			c2.22-0.509,4.285-1.166,6.44-1.734C27.822,51.839,42.963,51.833,44.884,44.696z"/>
		<path fill="#452328" d="M41.663,19.771c0.083,0,0.167,0,0.25,0c2.151,0.411,3.421,1.698,3.548,4.129c0,0.521,0,1.042,0,1.566
			c-0.111,1.318-0.281,2.58-0.742,3.549c-0.37,0.154-0.633,0.411-0.742,0.825c-0.156,0.449-0.43,0.781-0.497,1.322
			c-0.178,0.012-0.035-0.294-0.08-0.415c-0.182-3.283,0.661-7.593-2.394-8.004c-0.305-0.137-1.18-0.137-1.485,0
			c-0.584-0.034-0.967,0.138-1.404,0.246C39.291,21.908,40.567,20.929,41.663,19.771z"/>
		<path fill="#6E383F" d="M26.729,20.019c0.117-0.294,0.333-0.49,0.576-0.661C27.11,19.575,27.001,19.881,26.729,20.019z"/>
		<path fill="#452328" d="M43.976,29.841c0.111-0.414,0.375-0.67,0.742-0.825C44.411,29.231,44.176,29.52,43.976,29.841z"/>
		<path fill="#A17165" d="M37.042,37.845c0.485-0.09,0.94-0.215,1.405-0.329c-0.061,1.015-1.59,1.27-2.724,1.485
			c-1.703-0.167-2.965-0.775-3.385-2.229c0.731,0.428,1.365,0.949,2.394,1.075C35.311,37.983,36.465,37.983,37.042,37.845z"/>
		<path fill="#F2CEA5" d="M27.388,28.438c0.155-3.752,1.489-6.324,5.117-6.603c1.698,0.515,3.485,2.591,5.612,1.154
			c0.439-0.108,0.818-0.28,1.404-0.247c0.494,0,0.991,0,1.485,0c3.055,0.412,2.212,4.722,2.395,8.006
			c-0.139,0.056-0.166,0.972,0.083,0.66c-0.545,1.686-0.354,4.104-0.744,5.943c-0.272,0.826-0.711,1.489-1.07,2.228
			c-2.015,1.607-4.383,4.277-8.169,3.054c-1.643-0.835-3.026-1.929-4.376-3.054c-0.061-0.544-0.416-0.794-0.66-1.155
			c0-0.027,0-0.056,0-0.083c-0.143-0.353-0.226-0.764-0.41-1.073c-0.359-1.759-0.259-3.979-0.662-5.694
			c0.136-0.011,0.136-0.566,0-0.577c0-0.412,0-0.825,0-1.238C27.388,29.318,27.388,28.878,27.388,28.438z M34.734,37.845
			c-1.032-0.123-1.665-0.646-2.396-1.07c0.42,1.45,1.683,2.061,3.385,2.228c1.135-0.215,2.666-0.47,2.724-1.486
			c-0.464,0.113-0.918,0.237-1.402,0.33c-0.166,0-0.331,0-0.497,0c-0.306-0.136-1.182-0.136-1.487,0
			C34.951,37.845,34.844,37.845,34.734,37.845z"/>
		<path fill="#452328" d="M39.518,22.742c0.306-0.136,1.179-0.136,1.486,0C40.511,22.742,40.014,22.742,39.518,22.742z"/>
		<path fill="#6E383F" d="M41.382,19.131c-0.154-0.171-0.279-0.373-0.374-0.584c-0.307-0.252-0.585-0.528-0.83-0.836
			c-0.908-0.772-2.194-1.163-3.714-1.321h-1.4c-0.636,0.138-1.843,0.138-2.478,0c-0.948-0.017-1.754-0.173-2.557-0.331
			c-0.023,0.683,0.258,1.062,0.331,1.651c-1.318,0.251-2.243,0.893-3.056,1.649c-0.197,0.217-0.304,0.52-0.578,0.661
			c-0.812,0.893-1.154,2.255-1.402,3.713v1.65c0.201,0.862,0.183,1.939,0.396,2.786c0.175,0.191,0.341,0.396,0.497,0.608
			c0.115,0.165,0.215,0.337,0.319,0.51c0.006,0.01,0.012,0.02,0.018,0.031c0.108,0.102,0.192,0.222,0.265,0.35
			c0.077,0.108,0.127,0.232,0.165,0.364c0.001,0.005,0.002,0.008,0.005,0.016c0.051,0.134,0.071,0.266,0.071,0.389
			c0.077,0.249,0.146,0.503,0.248,0.724c0.065-0.019,0.098-0.07,0.082-0.164v-1.238c-0.136-0.25-0.136-1.069,0-1.321
			c0.155-3.75,1.489-6.323,5.117-6.601c1.699,0.515,3.486,2.592,5.612,1.156c1.177-1.082,2.45-2.063,3.548-3.218
			C41.633,19.5,41.469,19.353,41.382,19.131z"/>
		<path fill="#F2CEA5" d="M27.388,31.575c-0.071-0.097-0.109-0.222-0.082-0.413c0.065-0.021,0.095-0.071,0.082-0.166
			C27.522,31.007,27.522,31.563,27.388,31.575z"/>
		<path fill="#F2CEA5" d="M43.48,31.408c-0.245,0.312-0.221-0.604-0.083-0.66c0.048,0.122-0.094,0.426,0.083,0.413
			C43.48,31.245,43.48,31.326,43.48,31.408z"/>
		<path fill="#D4B08C" d="M29.122,39.579c1.349,1.126,2.732,2.219,4.373,3.054c3.788,1.224,6.156-1.448,8.169-3.054
			c0,0.439,0,0.88,0,1.32c0,0.027,0,0.054,0,0.082c-1.973,1.358-3.253,3.714-6.27,3.714c-3.046,0-4.247-2.311-6.273-3.631
			C29.122,40.569,29.122,40.074,29.122,39.579z"/>
		<path fill="#E4C19C" d="M42.488,44.038c0.204,0.073,0.357,0.19,0.66,0.163c-1.165,2.63-3.638,3.953-7.18,4.21
			c-0.383,0-0.77,0-1.154,0c-3.546-0.254-6.014-1.582-7.182-4.21c0.303,0.027,0.458-0.09,0.661-0.163
			c0.33,0,0.496-0.167,0.827-0.167c0-0.935,0-1.871,0-2.806c2.028,1.321,3.227,3.631,6.271,3.631c3.017,0,4.295-2.356,6.271-3.713
			c0,0.908,0,1.815,0,2.724C41.742,44.013,42.199,43.941,42.488,44.038z"/>
		<path fill="#6E383F" d="M33.171,17.575c0.8,0,1.597,0,2.397,0C34.955,17.711,33.784,17.711,33.171,17.575z"/>
		<g id="XMLID_2_">
			<g>
				<path fill="#425EAB" d="M43.148,44.199c0.55,0.198,1.167,0.322,1.735,0.497c-1.921,7.137-17.063,7.143-18.981,0
					c0.566-0.177,1.182-0.299,1.732-0.497c1.169,2.631,3.634,3.958,7.181,4.21c0.194,0.138,0.958,0.138,1.152,0
					C39.511,48.152,41.985,46.834,43.148,44.199z"/>
				<path fill="#425EAB" d="M34.817,48.411h1.153C35.775,48.547,35.012,48.547,34.817,48.411z"/>
			</g>
		</g>
	</g>
</g>
<g id="circle_1_">
	<circle fill="none" stroke="#CDCCCC" stroke-width="2.0893" stroke-miterlimit="10" cx="35.395" cy="35" r="26.403"/>
</g>
<g id="circle_4_">
	<circle fill="none" stroke="#CCCCCC" stroke-width="2.0893" stroke-miterlimit="10" cx="107.629" cy="35" r="26.402"/>
</g>
<path fill="#FED93E" d="M103.122,18.171c-1.659,0-3.005,1.347-3.005,3.006v3.001h3.005v-2.25c0-0.414,0.337-0.751,0.75-0.751h7.512
	c0.415,0,0.753,0.337,0.753,0.751v2.25h3.002v-3.001c0-1.659-1.349-3.006-3.002-3.006H103.122z"/>
<polygon fill="#1C194F" points="121.988,38.974 120.188,47.991 95.07,47.991 93.267,38.974 "/>
<polygon fill="#22D689" points="125.655,35.973 89.602,35.973 92.606,50.994 122.651,50.994 "/>
<polygon fill="#22D689" points="124.153,25.683 124.153,30.189 121.152,30.189 121.152,28.687 94.107,28.687 94.107,30.189 
	91.104,30.189 91.104,25.683 "/>
<polygon fill="#ADADAD" points="123.438,32.81 91.463,32.81 91.057,31.229 123.913,31.229 "/>
<polygon fill="#ADADAD" points="123.438,34.827 91.463,34.827 91.057,33.793 123.913,33.793 "/>
<g id="circle_2_">
	<circle fill="none" stroke="#CDCCCB" stroke-width="2.0893" stroke-miterlimit="10" cx="107.629" cy="109.959" r="26.402"/>
</g>
<g>
	<path fill="#754C28" d="M96.78,120.979c0,0.461-0.373,0.838-0.836,0.838c-0.464,0-0.837-0.377-0.837-0.838
		c0-0.463,0.373-0.836,0.837-0.836C96.407,120.143,96.78,120.516,96.78,120.979z M94.271,117.633h3.347v-1.674h-1.673v-0.838h1.673
		v-1.674h-1.673v-0.836h1.673v-1.672h-1.673v-0.838h1.673v-1.674h-1.673v-0.836h1.673v-1.674h-3.347V117.633z M111.006,119.307
		h-1.674v2.51h-0.836v-2.51h-1.676v1.672h-0.836v-1.672h-1.674v2.51h-0.836v-2.51h-1.674v1.672h-0.836v-1.672h-1.674v2.51h-0.837
		v-2.51h-4.184v3.346h16.735V119.307z"/>
	<polygon fill="#754C28" points="94.271,107.571 97.617,107.571 97.617,105.898 95.944,105.898 95.944,105.061 97.617,105.061 
		97.617,103.387 95.944,103.387 95.944,102.551 97.617,102.551 97.617,100.877 95.944,100.877 95.944,100.041 97.617,100.041 
		97.617,98.367 95.944,98.367 95.944,97.531 97.617,97.531 97.617,95.857 94.271,95.857 	"/>
</g>
<g>
	<g>
		<polygon fill="#FFDD15" points="118.773,119.057 118.891,118.996 118.773,119.055 		"/>
		<polygon fill="#231F20" points="113.275,104.13 112.889,107.125 115.887,105.647 		"/>
		<polygon fill="#FFDD15" points="118.758,119.064 118.773,119.057 118.773,119.055 118.891,118.996 118.912,118.986 
			118.891,118.996 121.758,117.586 116.17,106.238 113.17,107.715 		"/>
	</g>
	
		<rect x="119.115" y="118.789" transform="matrix(0.8938 -0.4484 0.4484 0.8938 -40.7101 66.8253)" fill="#CF65A6" width="3.302" height="1.191"/>
</g>
<g>
	<path fill="#928F8F" d="M120.174,100.203c-0.809,0.19-1.68,0.051-2.39-0.387l-8.567-5.281c-0.633-0.392-1.526-0.173-1.91,0.463
		c-0.191,0.321-0.246,0.699-0.151,1.062c0.089,0.347,0.306,0.642,0.612,0.829l8.566,5.281c0.787,0.483,1.32,1.287,1.465,2.2
		c0.174,1.108,0.818,2.077,1.771,2.665c0.734,0.453,1.582,0.639,2.428,0.541l-2.092-1.289c-0.377-0.79-0.504-1.652,0.084-2.884
		c0.609-1.274,1.611-2.216,3.078-2.243l2.09,1.289c-0.289-0.789-0.834-1.473-1.572-1.927c-0.953-0.588-2.111-0.729-3.176-0.386
		L120.174,100.203z"/>
	
		<rect x="123.174" y="100.006" transform="matrix(-0.5422 0.8403 -0.8403 -0.5422 275.9763 53.1182)" fill="#928F8F" width="0.688" height="3.471"/>
	
		<rect x="120.314" y="104.678" transform="matrix(-0.5032 0.8642 -0.8642 -0.5032 273.3297 55.6869)" fill="#928F8F" width="0.687" height="3.473"/>
</g>
</svg>
