<?xml version="1.0" encoding="utf-8"?>
<!-- Generator: Adobe Illustrator 16.0.0, SVG Export Plug-In . SVG Version: 6.00 Build 0)  -->
<!DOCTYPE svg PUBLIC "-//W3C//DTD SVG 1.1//EN" "http://www.w3.org/Graphics/SVG/1.1/DTD/svg11.dtd">
<svg version="1.1" id="Layer_1" xmlns="http://www.w3.org/2000/svg" xmlns:xlink="http://www.w3.org/1999/xlink" x="0px" y="0px"
	 width="144px" height="144px" viewBox="0 0 144 144" enable-background="new 0 0 144 144" xml:space="preserve">
<polygon fill="#BE202E" points="48.826,93.509 46.611,90.184 37.747,90.184 35.531,93.509 28.883,93.509 28.883,112.34 
	55.474,112.34 55.474,93.509 "/>
<path fill="#BF4F59" d="M53.258,101.263h-4.52c0.646,4.159-2.561,7.756-6.558,7.756c-4.002,0-7.205-3.599-6.562-7.756h-4.52v-5.54
	h5.618l2.218-3.323h6.492l2.214,3.324h5.617L53.258,101.263L53.258,101.263z"/>
<path fill="#C5C9C7" d="M42.18,97.938c-2.485,0-4.433,1.918-4.433,4.364c0,2.479,1.989,4.501,4.433,4.501
	c2.442,0,4.431-2.02,4.431-4.501C46.611,99.856,44.664,97.938,42.18,97.938z"/>
<path fill="#FFFFFF" d="M41.696,101.876c-0.701,0.56-1.618,0.556-2.053-0.004c-0.432-0.562-0.215-1.469,0.485-2.025
	c0.7-0.557,1.617-0.552,2.051,0.008C42.612,100.413,42.396,101.319,41.696,101.876z"/>
<g id="circle_7_">
	<circle fill="none" stroke="#CDCCCC" stroke-width="1.724" stroke-miterlimit="10" cx="42.18" cy="101.937" r="21.798"/>
</g>
<rect x="50.725" y="92.399" fill="#2075BC" width="2.684" height="1.107"/>
<g id="Layer_1_5_">
	<g id="Layer_1_6_">
		<path fill="#6E383F" d="M35.573,36.297c0,0.363,0,0.727,0,1.09C35.458,37.18,35.458,36.505,35.573,36.297z"/>
		<path fill="#EFCC9B" d="M41.91,44.063c0.25-0.111,0.973-0.111,1.226,0C42.727,44.063,42.318,44.063,41.91,44.063z"/>
		<path fill="#B58E7D" d="M41.637,44.063c0.091,0,0.179,0,0.273,0c0.408,0,0.816,0,1.226,0c0.137,0,0.273,0,0.41,0
			C43.066,44.178,42.113,44.178,41.637,44.063z"/>
		<g id="XMLID_4_">
			<g>
				<path fill="#F2CEA5" d="M36.118,43.587c0.151,0.257,0.222,0.596,0.341,0.888C36.268,44.254,36.175,43.935,36.118,43.587z"/>
			</g>
		</g>
		<path fill="#788CC6" d="M50.017,49.72c1.779,0.468,3.481,1.016,5.315,1.43c-0.387,0.933-1.556,1.669-2.317,2.452
			c-2.652,1.981-6.288,3.79-10.903,3.746c-4.538-0.041-8.209-1.718-10.765-3.815c-0.836-0.686-1.915-1.487-2.317-2.383
			c1.833-0.42,3.538-0.962,5.317-1.432C35.931,55.616,48.431,55.612,50.017,49.72z"/>
		<path fill="#452328" d="M47.357,29.143c0.069,0,0.137,0,0.206,0c1.776,0.339,2.824,1.402,2.929,3.409c0,0.43,0,0.86,0,1.293
			c-0.092,1.088-0.232,2.13-0.612,2.93c-0.305,0.127-0.522,0.339-0.613,0.681c-0.129,0.37-0.355,0.645-0.411,1.091
			c-0.147,0.01-0.029-0.243-0.066-0.342c-0.15-2.71,0.546-6.268-1.977-6.607c-0.252-0.113-0.974-0.113-1.226,0
			c-0.482-0.028-0.798,0.113-1.159,0.203C45.399,30.906,46.453,30.098,47.357,29.143z"/>
		<path fill="#6E383F" d="M35.029,29.347c0.096-0.243,0.275-0.405,0.475-0.546C35.343,28.98,35.253,29.233,35.029,29.347z"/>
		<path fill="#452328" d="M49.268,37.456c0.091-0.342,0.309-0.554,0.613-0.681C49.626,36.952,49.433,37.19,49.268,37.456z"/>
		<path fill="#A17165" d="M43.543,44.063c0.4-0.074,0.776-0.178,1.16-0.271c-0.05,0.838-1.313,1.049-2.249,1.227
			c-1.406-0.138-2.448-0.64-2.795-1.84c0.604,0.353,1.127,0.783,1.977,0.887C42.113,44.178,43.066,44.178,43.543,44.063z"/>
		<path fill="#F2CEA5" d="M35.573,36.297c0.128-3.098,1.229-5.221,4.224-5.451c1.402,0.425,2.877,2.139,4.634,0.953
			c0.363-0.089,0.675-0.231,1.159-0.204c0.407,0,0.817,0,1.226,0c2.522,0.34,1.826,3.898,1.977,6.609
			c-0.115,0.046-0.137,0.802,0.068,0.545c-0.45,1.392-0.292,3.388-0.615,4.906c-0.224,0.682-0.587,1.229-0.883,1.839
			c-1.664,1.327-3.618,3.531-6.745,2.521c-1.356-0.689-2.498-1.592-3.613-2.521c-0.05-0.449-0.343-0.655-0.545-0.953
			c0-0.022,0-0.046,0-0.068c-0.118-0.292-0.186-0.631-0.338-0.886c-0.296-1.452-0.214-3.284-0.546-4.701
			c0.112-0.009,0.112-0.467,0-0.477c0-0.34,0-0.681,0-1.022C35.573,37.024,35.573,36.661,35.573,36.297z M41.637,44.063
			c-0.852-0.102-1.375-0.534-1.978-0.884c0.347,1.197,1.39,1.701,2.795,1.839c0.937-0.178,2.201-0.388,2.249-1.227
			c-0.383,0.093-0.758,0.196-1.157,0.272c-0.137,0-0.273,0-0.41,0c-0.252-0.112-0.976-0.112-1.228,0
			C41.816,44.063,41.728,44.063,41.637,44.063z"/>
		<path fill="#452328" d="M45.587,31.595c0.252-0.112,0.973-0.112,1.227,0C46.407,31.595,45.997,31.595,45.587,31.595z"/>
		<path fill="#6E383F" d="M47.126,28.614c-0.127-0.141-0.23-0.308-0.309-0.482c-0.253-0.208-0.483-0.436-0.685-0.691
			c-0.749-0.637-1.812-0.96-3.066-1.09H41.91c-0.525,0.113-1.522,0.113-2.046,0c-0.783-0.014-1.448-0.143-2.11-0.273
			c-0.02,0.564,0.213,0.877,0.273,1.364c-1.088,0.208-1.852,0.737-2.523,1.362c-0.163,0.179-0.251,0.43-0.478,0.545
			c-0.67,0.737-0.953,1.862-1.158,3.065v1.362c0.166,0.711,0.151,1.601,0.327,2.3c0.145,0.158,0.281,0.326,0.41,0.502
			c0.095,0.136,0.178,0.278,0.264,0.421c0.005,0.008,0.009,0.017,0.014,0.025c0.09,0.084,0.159,0.184,0.219,0.29
			c0.063,0.089,0.104,0.191,0.136,0.3c0.001,0.004,0.002,0.006,0.004,0.013c0.042,0.111,0.059,0.22,0.059,0.321
			c0.063,0.206,0.121,0.416,0.204,0.597c0.054-0.015,0.081-0.058,0.068-0.135v-1.022c-0.112-0.206-0.112-0.882,0-1.09
			c0.128-3.097,1.229-5.221,4.224-5.45c1.403,0.425,2.878,2.14,4.634,0.954c0.972-0.894,2.022-1.703,2.929-2.657
			C47.333,28.918,47.197,28.797,47.126,28.614z"/>
		<path fill="#F2CEA5" d="M35.573,38.887c-0.059-0.08-0.09-0.184-0.068-0.341c0.054-0.017,0.079-0.058,0.068-0.137
			C35.684,38.418,35.684,38.877,35.573,38.887z"/>
		<path fill="#F2CEA5" d="M48.858,38.749c-0.203,0.257-0.182-0.499-0.069-0.545c0.04,0.101-0.077,0.353,0.069,0.341
			C48.858,38.615,48.858,38.681,48.858,38.749z"/>
		<path fill="#D4B08C" d="M37.004,45.495c1.114,0.93,2.255,1.833,3.61,2.521c3.127,1.011,5.082-1.195,6.744-2.521
			c0,0.363,0,0.727,0,1.09c0,0.022,0,0.045,0,0.068c-1.629,1.121-2.685,3.066-5.176,3.066c-2.515,0-3.505-1.908-5.179-2.998
			C37.004,46.313,37.004,45.903,37.004,45.495z"/>
		<path fill="#E4C19C" d="M48.039,49.176c0.168,0.061,0.295,0.157,0.545,0.135c-0.961,2.171-3.003,3.263-5.927,3.476
			c-0.316,0-0.636,0-0.953,0c-2.927-0.21-4.965-1.306-5.929-3.476c0.25,0.022,0.378-0.074,0.546-0.135
			c0.272,0,0.409-0.137,0.683-0.137c0-0.771,0-1.545,0-2.316c1.674,1.09,2.664,2.997,5.177,2.997c2.491,0,3.546-1.945,5.178-3.065
			c0,0.749,0,1.498,0,2.248C47.423,49.156,47.8,49.096,48.039,49.176z"/>
		<path fill="#6E383F" d="M40.347,27.329c0.661,0,1.318,0,1.979,0C41.819,27.442,40.853,27.442,40.347,27.329z"/>
		<g id="XMLID_3_">
			<g>
				<path fill="#425EAB" d="M48.584,49.31c0.455,0.164,0.963,0.266,1.433,0.41c-1.586,5.892-14.087,5.897-15.67,0
					c0.467-0.146,0.976-0.247,1.43-0.41c0.966,2.172,3,3.267,5.929,3.476c0.16,0.113,0.791,0.113,0.951,0
					C45.581,52.573,47.624,51.485,48.584,49.31z"/>
				<path fill="#425EAB" d="M41.706,52.787h0.952C42.497,52.899,41.867,52.899,41.706,52.787z"/>
			</g>
		</g>
	</g>
</g>
<g id="circle_6_">
	<circle fill="none" stroke="#CDCCCC" stroke-width="1.7249" stroke-miterlimit="10" cx="42.183" cy="41.715" r="21.798"/>
</g>
<g id="circle_5_">
	<circle fill="none" stroke="#CCCCCC" stroke-width="1.7249" stroke-miterlimit="10" cx="101.822" cy="41.715" r="21.798"/>
</g>
<path fill="#FED93E" d="M98.102,27.82c-1.37,0-2.481,1.112-2.481,2.482v2.478h2.481v-1.858c0-0.342,0.277-0.62,0.619-0.62h6.201
	c0.344,0,0.622,0.278,0.622,0.62v1.858h2.479v-2.478c0-1.37-1.113-2.482-2.479-2.482H98.102z"/>
<polygon fill="#1C194F" points="113.677,44.996 112.19,52.44 91.454,52.44 89.966,44.996 "/>
<polygon fill="#22D689" points="116.704,42.518 86.938,42.518 89.42,54.92 114.225,54.92 "/>
<polygon fill="#22D689" points="115.464,34.022 115.464,37.743 112.987,37.743 112.987,36.502 90.659,36.502 90.659,37.743 
	88.179,37.743 88.179,34.022 "/>
<polygon fill="#ADADAD" points="114.874,39.906 88.476,39.906 88.141,38.602 115.267,38.602 "/>
<polygon fill="#ADADAD" points="114.874,41.572 88.476,41.572 88.141,40.718 115.267,40.718 "/>
<g id="circle_4_">
	<circle fill="none" stroke="#CDCCCB" stroke-width="1.725" stroke-miterlimit="10" cx="101.822" cy="102.286" r="21.798"/>
</g>
<g>
	<path fill="#754C28" d="M92.865,111.384c0,0.38-0.309,0.691-0.69,0.691c-0.383,0-0.69-0.312-0.69-0.691
		c0-0.383,0.308-0.69,0.69-0.69C92.557,110.693,92.865,111.001,92.865,111.384z M90.793,108.621h2.764v-1.382h-1.382v-0.691h1.382
		v-1.382h-1.382v-0.69h1.382v-1.38h-1.382v-0.691h1.382v-1.383h-1.382v-0.69h1.382v-1.382h-2.764V108.621z M104.61,110.003h-1.382
		v2.072h-0.69v-2.072h-1.384v1.381h-0.689v-1.381h-1.383v2.072h-0.689v-2.072H97.01v1.381H96.32v-1.381h-1.383v2.072h-0.69v-2.072
		h-3.454v2.763h13.817V110.003z"/>
	<polygon fill="#754C28" points="90.793,100.314 93.557,100.314 93.557,98.934 92.175,98.934 92.175,98.242 93.557,98.242 
		93.557,96.859 92.175,96.859 92.175,96.17 93.557,96.17 93.557,94.788 92.175,94.788 92.175,94.098 93.557,94.098 93.557,92.716 
		92.175,92.716 92.175,92.026 93.557,92.026 93.557,90.643 90.793,90.643 	"/>
</g>
<g>
	<g>
		<polygon fill="#FFDD15" points="111.023,109.797 111.12,109.746 111.023,109.795 		"/>
		<polygon fill="#231F20" points="106.484,97.474 106.165,99.946 108.641,98.726 		"/>
		<polygon fill="#FFDD15" points="111.011,109.803 111.023,109.797 111.023,109.795 111.12,109.746 111.139,109.738 111.12,109.746 
			113.488,108.583 108.874,99.214 106.396,100.434 		"/>
	</g>
	
		<rect x="111.306" y="109.576" transform="matrix(0.894 -0.4481 0.4481 0.894 -37.3748 62.1513)" fill="#CF65A6" width="2.727" height="0.983"/>
</g>
<g>
	<path fill="#928F8F" d="M112.18,94.231c-0.668,0.157-1.387,0.042-1.973-0.319l-7.074-4.36c-0.521-0.323-1.26-0.142-1.576,0.383
		c-0.158,0.265-0.203,0.577-0.125,0.876c0.072,0.285,0.252,0.529,0.505,0.685l7.073,4.36c0.649,0.399,1.09,1.063,1.209,1.816
		c0.144,0.915,0.676,1.715,1.463,2.2c0.606,0.374,1.307,0.527,2.004,0.446l-1.727-1.064c-0.312-0.651-0.416-1.363,0.069-2.381
		c0.503-1.052,1.33-1.829,2.542-1.852l1.725,1.064c-0.238-0.651-0.688-1.216-1.298-1.592c-0.787-0.484-1.743-0.602-2.622-0.317
		L112.18,94.231z"/>
	
		<rect x="114.656" y="94.069" transform="matrix(-0.5415 0.8407 -0.8407 -0.5415 257.4709 50.5917)" fill="#928F8F" width="0.568" height="2.866"/>
	
		<rect x="112.295" y="97.926" transform="matrix(-0.5041 0.8637 -0.8637 -0.5041 255.1399 52.216)" fill="#928F8F" width="0.568" height="2.867"/>
</g>
</svg>
