<?xml version="1.0" encoding="utf-8"?>
<!-- Generator: Adobe Illustrator 16.0.0, SVG Export Plug-In . SVG Version: 6.00 Build 0)  -->
<!DOCTYPE svg PUBLIC "-//W3C//DTD SVG 1.1//EN" "http://www.w3.org/Graphics/SVG/1.1/DTD/svg11.dtd">
<svg version="1.1" id="Layer_1" xmlns="http://www.w3.org/2000/svg" xmlns:xlink="http://www.w3.org/1999/xlink" x="0px" y="0px"
	 width="131.352px" height="131.352px" viewBox="0 0 131.352 131.352" style="enable-background:new 0 0 131.352 131.352;"
	 xml:space="preserve">
<style type="text/css">
<![CDATA[
	.st0{fill:#22D689;}
	.st1{fill:#999999;}
	.st2{fill:#FE802D;}
	.st3{fill:#FED93E;}
	.st4{fill:#A98422;}
]]>
</style>
<g id="Layer_1_2_">
	<g id="Layer_1_1_">
		<path class="st4" d="M71.417,81.758l-9.646,10.408c-0.442,0.459-0.692,1.086-0.692,1.737c0,0.776,0.371,1.441,0.918,1.896h2.906
			c0.069-0.061,0.156-0.086,0.223-0.156l9.646-10.407L71.417,81.758z"/>
		<path class="st2" d="M56.637,47.599h-6.023v-6.024c0-3.326,2.698-6.024,6.023-6.024h18.076c3.326,0,6.023,2.698,6.023,6.024v6.024
			h-6.023v-4.548c0-0.814-0.667-1.476-1.475-1.476H58.114c-0.813,0-1.474,0.662-1.474,1.476L56.637,47.599L56.637,47.599z"/>
		<rect x="29.525" y="50.612" class="st0" width="72.303" height="18.075"/>
		<path class="st1" d="M79.719,85.702l4.113-4.276l-1.285-1.337c0,0-1.036,0.724-1.877-0.156c-0.922-0.951-0.646-2.37-2.686-3.968
			c-1.208-0.943-2.627-1.256-3.971-1.256c-2.65,0-5.025,1.214-5.025,1.214c4.299,0.447,5.91,2.215,4.135,4.06l-1.039,1.076
			l3.354,3.478l1.013-1.054c0.54-0.555,1.349-1.178,1.945-0.555c0.667,0.686,0.034,1.431,0.034,1.431L79.719,85.702z"/>
		<path class="st1" d="M60.855,82.544c-0.563-0.561-0.843-1.335-0.79-2.125c0.114-1.489-0.396-3.021-1.537-4.16
			c-1.03-1.038-2.384-1.547-3.734-1.547c-0.512,0-1.021,0.069-1.516,0.216l3.186,3.185c0.348,1.599-1.964,3.938-3.579,3.583
			l-3.185-3.187c-0.147,0.493-0.22,1.004-0.22,1.515c0,1.353,0.512,2.702,1.545,3.735c1.14,1.141,2.671,1.653,4.164,1.537
			c0.787-0.06,1.563,0.226,2.122,0.79l0.111,0.111l3.539-3.54L60.855,82.544z"/>
		<polygon class="st3" points="68.088,89.776 61.633,83.323 58.092,86.864 61.003,89.776 		"/>
		<polygon class="st0" points="92.788,74.712 92.788,89.776 75.243,89.776 68.157,89.776 38.563,89.776 38.563,74.712 
			32.535,74.712 32.535,95.801 98.814,95.801 98.814,74.712 		"/>
	</g>
</g>
</svg>
