<?xml version="1.0" encoding="utf-8"?>
<!-- Generator: Adobe Illustrator 16.0.0, SVG Export Plug-In . SVG Version: 6.00 Build 0)  -->
<!DOCTYPE svg PUBLIC "-//W3C//DTD SVG 1.1//EN" "http://www.w3.org/Graphics/SVG/1.1/DTD/svg11.dtd">
<svg version="1.1" id="Layer_1" xmlns="http://www.w3.org/2000/svg" xmlns:xlink="http://www.w3.org/1999/xlink" x="0px" y="0px"
	 width="144px" height="144px" viewBox="0 0 144 144" enable-background="new 0 0 144 144" xml:space="preserve">
<g>
	<path fill="#C7F2F9" d="M79.496,104.235c0.371-2.444,0.844-4.867,1.805-7.163c0.151-0.361,0.37-0.691,0.557-1.04
		c0.391-0.322,0.862-0.313,1.328-0.313c9.973-0.006,19.945-0.01,29.915,0.005c1.388,0.001,1.629,0.241,1.632,1.639
		c0.018,5.884,0.014,11.768,0.002,17.651c0,0.367-0.02,0.731-0.141,1.079c-0.492,0.946-1.44,1.424-2.191,2.102
		c-0.854,0.773-0.867,0.731-0.107,1.664c0.456,0.563,0.971,1.077,1.363,1.688c0.241,0.373,0.367,0.738-0.248,0.891
		c-0.43,0.091-0.864,0.076-1.295,0.076c-8.837,0.002-17.673,0.002-26.51,0.002c-0.6,0-1.202,0.032-1.738-0.313
		c-2.026-3.005-3.276-6.328-3.978-9.868c-0.153-0.771-0.259-1.557-0.388-2.335c0.139-0.79,0.148-1.581-0.007-2.371
		c0-0.738,0-1.477,0-2.215C79.643,105.021,79.641,104.63,79.496,104.235z"/>
	<path fill="#F1CDA4" d="M19.01,58.301c-4.209-3.539-7.162-7.911-8.799-13.171c-0.551-1.77-0.879-3.578-1.131-5.406
		c0.051-0.719,0.125-1.44-0.039-2.156c-0.282-6.031,1.468-11.475,4.772-16.466c0.034-0.052,0.102-0.08,0.156-0.119
		c1.063,0.128,1.881,0.815,2.755,1.316c2.233,1.282,4.431,1.753,6.736,0.24c0.136-0.088,0.307-0.126,0.467-0.173
		c1.742-0.435,3.516-0.202,5.216,0.059c1.761,0.27,2.665,1.74,3.128,3.391c0.424,1.506,0.554,3.063,0.586,4.621
		c0.047,2.22-0.03,4.44,0.028,6.658c0.035,0.106,0.054,0.216,0.06,0.326c-0.041,0.75-0.314,1.46-0.391,2.205
		c-0.086,0.862-0.29,1.709-0.288,2.581c0.098,0.97-0.297,1.903-0.21,2.872c0.015,0.336-0.015,0.668-0.076,0.999
		c-0.174,0.717-0.125,1.473-0.358,2.18c-0.159,0.574-0.378,1.123-0.652,1.65c-0.413,0.723-0.725,1.503-1.203,2.193
		c-0.05,0.079-0.106,0.153-0.167,0.223c-1.708,1.415-3.343,2.928-5.24,4.094C22.724,57.423,21.001,58.264,19.01,58.301z"/>
	<path fill="#BD4E58" d="M9.056,107.628c0.004-0.338,0.005-0.679,0.009-1.017c0.355-0.333,0.804-0.268,1.23-0.275
		c1.263-0.014,2.527-0.02,3.79,0.004c0.777,0.011,1.316-0.294,1.738-0.94c1.035-1.59,2.115-3.145,3.138-4.739
		c0.498-0.777,1.115-1.132,2.053-1.125c3.656,0.028,7.313,0.029,10.969-0.001c0.976-0.009,1.624,0.367,2.138,1.172
		c0.964,1.512,2.011,2.974,2.969,4.491c0.518,0.814,1.163,1.166,2.14,1.15c2.823-0.041,5.649-0.02,8.475-0.015
		c1.596,0.004,1.729,0.13,1.732,1.683c0.007,2.827,0.01,5.651-0.002,8.477c-0.005,1.42-0.178,1.587-1.627,1.596
		c-1.896,0.011-3.79,0.002-5.683,0.002c-1.866,0.002-1.916,0.004-1.856,1.829c0.093,2.83-0.691,5.396-2.238,7.725
		c-1.93,2.904-4.58,4.853-7.954,5.813c-0.55,0.156-1.129,0.037-1.659,0.266c-6.427-2.081-11.44-5.996-15.115-11.646
		c-0.124-0.188-0.205-0.404-0.303-0.609c-0.304-0.683-0.265-1.408-0.26-2.131c0.009-1.181,0.008-1.181-1.135-1.258
		c-0.132-0.009-0.256-0.048-0.386-0.07c-1.106-2.528-1.864-5.146-2.01-7.918C8.991,109.281,9.258,108.44,9.056,107.628z"/>
	<path fill="#BD1E2D" d="M28.415,133.723c0.33-0.574,0.959-0.393,1.436-0.509c5.643-1.361,10.225-6.968,10.13-12.866
		c-0.041-2.547,0.001-2.547,2.505-2.547c1.862,0,3.724-0.034,5.584,0.017c0.79,0.021,1.108-0.155,1.091-1.027
		c-0.054-3.059-0.043-6.116-0.004-9.174c0.011-0.777-0.198-1.031-1.002-1.02c-3.123,0.045-6.249-0.007-9.374,0.032
		c-0.797,0.013-1.279-0.266-1.701-0.93c-1.125-1.76-2.33-3.467-3.467-5.222c-0.31-0.479-0.663-0.661-1.222-0.657
		c-3.922,0.017-7.845,0.02-11.768-0.004c-0.574-0.005-0.9,0.201-1.203,0.671c-1.15,1.784-2.353,3.532-3.509,5.313
		c-0.382,0.589-0.846,0.845-1.563,0.826c-1.76-0.04-3.522-0.013-5.284-0.013c-0.141-1.564,0.069-3.091,0.424-4.608
		c0.646-0.396,1.367-0.248,2.048-0.215c0.897,0.042,1.517-0.24,1.969-1.04c0.458-0.809,1.024-1.553,1.528-2.337
		c0.845-1.053,1.381-2.331,2.374-3.281c0.337-0.173,0.705-0.197,1.07-0.197c5.381-0.011,10.764-0.016,16.145,0.002
		c0.2,0.001,0.399,0.018,0.593,0.058c0.837,0.199,1.089,0.981,1.533,1.568c0.217,0.288,0.409,0.595,0.602,0.897
		c0.609,0.951,1.233,1.889,1.889,2.809c0.56,1.199,1.477,1.676,2.8,1.505c0.684-0.091,1.388-0.021,2.084-0.028
		c1.712-0.029,3.422-0.036,5.131-0.002c0.127,0,0.252,0.002,0.377-0.002c0.987-0.047,1.974-0.021,2.959-0.011
		c0.363,0.005,0.728,0.022,1.02,0.287c0.278,0.42,0.201,0.895,0.204,1.354c0.021,3.408-0.024,6.815,0.03,10.224
		c-0.061,4.606,0.008,9.213-0.02,13.821c0.034,0.612,0.028,1.226-0.109,1.831c-3.234,2.641-6.955,4.233-11.006,5.118
		C37.887,135.412,33.125,135.119,28.415,133.723z"/>
	<path fill="#22D588" d="M113.215,63.973c-6.68,1.614-13.058,0.636-19.057-2.538c-6.03-3.189-10.265-8.083-12.803-14.421
		c-0.12-0.304-0.182-0.631-0.27-0.949c0.374-0.28,0.816-0.243,1.244-0.244c11.02-0.006,22.04-0.007,33.059,0
		c1.343,0.001,1.449,0.098,1.506,1.105c-0.386,1.728-0.649,3.48-1.013,5.214c-0.368,1.949-0.865,3.871-1.191,5.828
		c-0.277,1.724-0.673,3.422-1.043,5.129C113.573,63.428,113.421,63.71,113.215,63.973z"/>
	<path fill="#D5D5D5" d="M114.212,116.342c0.276-0.347,0.204-0.758,0.204-1.15c0.002-5.946,0-11.891,0-17.836
		c0-1.312,0-1.313-1.271-1.313c-10.428-0.004-20.857-0.007-31.286-0.011c0.367-1.428,1.158-2.627,2.031-3.782
		c0.435-0.296,0.928-0.327,1.431-0.327c10.521,0,21.038-0.003,31.558,0.007c0.492,0,1.009-0.05,1.405,0.354
		c0.257,0.409,0.233,0.863,0.216,1.316c0.016,0.67,0.021,1.341-0.002,2.012c0.012,0.596,0.02,1.189-0.003,1.784
		c0.011,0.355,0.015,0.711,0,1.068c0.021,0.598,0.018,1.19,0.003,1.787c0.023,0.724,0.021,1.444,0.002,2.169
		c0.02,0.665,0.021,1.331,0,1.998c0.02,0.666,0.021,1.333,0,2.003c0.023,0.731,0.023,1.464,0,2.196
		c0.025,0.797,0.025,1.594,0.002,2.39c0.023,0.803,0.025,1.601,0,2.399c0.025,1.096,0.027,2.194-0.005,3.291
		c0.019,0.575,0.024,1.155-0.068,1.725c-0.193,0.547-0.257,1.155-0.711,1.582c-0.345,0.155-0.6-0.05-0.779-0.271
		C116.024,118.607,114.962,117.599,114.212,116.342z"/>
	<path fill="#FB5E03" d="M83.813,21.976c1.25-2.112,2.796-3.976,4.663-5.572c0.381-0.139,0.781-0.132,1.181-0.131
		c11.505,0.008,23.01,0.002,34.515,0c0.601,0,1.197,0.02,1.784,0.143c1.677,1.432,3.082,3.097,4.245,4.969
		c-0.505,0.457-1.128,0.32-1.71,0.32c-8.922,0.01-17.843,0.003-26.763,0.016c-0.687,0-1.396-0.139-2.051,0.203
		c-4.146-0.032-8.292-0.017-12.439-0.019c-0.896,0-1.792-0.046-2.673,0.187C84.308,22.162,84.039,22.183,83.813,21.976z"/>
	<path fill="#F65007" d="M134.748,33.965c0.191,1.748,0.402,3.495,0.057,5.247c-0.791-0.114-1.587-0.133-2.384-0.132
		c-16.905,0.003-33.807,0.003-50.712-0.001c-0.623,0-1.264,0.083-1.871-0.158c-0.541-0.505-0.064-1.195-0.317-1.754
		c0.004-0.334,0.006-0.669,0.01-1.003c0.348-0.35,0.799-0.278,1.224-0.278c9.463-0.005,18.925-0.007,28.387-0.001
		c1.278,0.001,1.292,0.019,1.568,1.242c0.071,0.314,0.197,0.645,0.508,0.664c1.039,0.061,2.099,0.348,3.099-0.187
		c0.362-0.722,0.127-1.491,0.189-2.234c0.046-0.515-0.078-1.065,0.332-1.5c0.454-0.274,0.963-0.223,1.456-0.223
		c5.646-0.005,11.292-0.006,16.938,0.002C133.752,33.646,134.306,33.557,134.748,33.965z"/>
	<path fill="#22D588" d="M114.796,33.965c-0.079,1.3-0.097,2.599,0.007,3.899c-0.943,0.417-1.931,0.137-2.898,0.176
		c-1.324,0.057-1.383,0.013-1.357-1.257c0.018-0.8-0.435-0.728-0.946-0.728c-7.97,0.003-15.944,0.01-23.912-0.003
		c-2.058-0.003-4.115,0.087-6.17-0.058c-0.105-1.402,0.06-2.776,0.398-4.134c0.41-0.553,1.02-0.408,1.563-0.411
		c4.953-0.015,9.905-0.007,14.856-0.008c5.387,0,10.771,0,16.155,0c0.298,0,0.599-0.004,0.896,0.004
		C115.063,31.497,115.584,32.433,114.796,33.965z"/>
	<path fill="#F54D09" d="M79.709,38.756c17.952,0,35.902-0.001,53.854,0.014c0.431,0,1.05-0.312,1.242,0.442
		c0,1.348-0.197,2.666-0.62,3.947c-0.223,0.066-0.448,0.116-0.684,0.115c-6.432-0.023-12.863,0.034-19.292-0.029
		c-2.259,0.066-4.515,0.025-6.771,0.027c-8.527,0.006-17.056,0.005-25.584-0.004c-0.586,0-1.207,0.125-1.721-0.303
		c-0.071-0.403-0.141-0.808-0.213-1.209c0.507-0.454,1.135-0.319,1.718-0.32c9.944-0.009,19.886-0.006,29.83-0.007
		c0.399,0,0.799-0.007,1.198-0.012c0.709-0.009,1.081-0.435,1.071-1.059c-0.015-0.733-0.68-0.471-1.073-0.472
		c-10.31-0.015-20.618-0.012-30.927-0.013c-0.466,0-0.932,0.022-1.394-0.04c-0.422-0.058-0.801-0.174-0.754-0.724
		C79.579,38.975,79.618,38.858,79.709,38.756z"/>
	<path fill="#FA5A04" d="M99.646,21.773c0.286-0.542,0.804-0.378,1.244-0.378c9.769-0.008,19.54-0.008,29.311-0.009
		c1.085,1.397,1.87,2.959,2.52,4.595c-0.504,0.454-1.129,0.314-1.71,0.315c-8.79,0.009-17.582,0.006-26.371,0.006
		c-1.871,0-1.864,0.003-1.882,1.842c-0.007,0.621,0.111,1.267-0.248,1.846c-1.536,0.413-3.068,0.612-4.58-0.115
		c-0.3-1.12-0.28-2.244-0.019-3.368c0.524-0.327,0.516,0.148,0.569,0.416c0.102,0.522,0.064,1.061,0.052,1.59
		c-0.019,0.651,0.215,0.984,0.921,0.978c2.896-0.029,2.461,0.277,2.501-2.39c0.006-0.432-0.019-0.865,0.005-1.296
		c0.069-1.417-0.515-2.504-1.642-3.331C100.055,22.281,99.736,22.137,99.646,21.773z"/>
	<path fill="#F75406" d="M98.045,29.775c0.946,0.427,1.941,0.109,2.91,0.193c0.491,0.041,0.99,0.005,1.484,0.005
		c0.308-0.166,0.646-0.132,0.974-0.132c9.637,0.018,19.272-0.001,28.908,0.017c0.636,0.001,1.358-0.186,1.816,0.51
		c0.336,1.177,0.556,2.374,0.608,3.598c-6.651,0-13.3,0-19.952,0c-0.176-2.107-0.176-2.107-2.396-2.107
		c-10.825,0.001-21.655,0.002-32.483,0.003c0.288-1.971,0.892-3.851,1.635-5.692c0.495,0.234,0.382,0.702,0.416,1.106
		c0.06,0.711-0.09,1.436,0.121,2.136c0.158,0.271,0.415,0.3,0.688,0.289c1.014-0.045,2.037,0.123,3.046-0.119
		c0.116-0.034,0.233-0.057,0.354-0.075c3.616-0.105,7.231-0.034,10.849-0.041C97.393,29.463,97.756,29.508,98.045,29.775z"/>
	<path fill="#F4490A" d="M114.159,42.975c6.431-0.009,12.865-0.019,19.298-0.026c0.26,0,0.538-0.046,0.728,0.21
		c-0.234,1.538-0.736,2.987-1.401,4.385c-4.847-0.188-9.693-0.032-14.539-0.092c-0.55-0.005-1.142,0.123-1.612-0.313
		c0.279-0.943-0.136-1.107-1.019-1.105c-11.509,0.033-23.019,0.026-34.527,0.03c-0.164-0.458-0.326-0.917-0.489-1.375
		c0.342-0.571,0.922-0.452,1.428-0.455c2.626-0.02,5.251-0.008,7.876-0.008c7.279,0,14.558-0.019,21.834,0.018
		C112.832,44.25,113.697,44.062,114.159,42.975z"/>
	<path fill="#FC6201" d="M125.957,16.416c-0.361,0.229-0.767,0.184-1.162,0.184c-11.722,0-23.44,0-35.161,0.001
		c-0.399,0-0.801,0.026-1.158-0.197c1.634-1.645,3.518-2.942,5.577-3.997c0.446-0.164,0.913-0.123,1.371-0.123
		c7.865,0.004,15.73,0.002,23.594,0.001c0.458,0,0.926-0.048,1.37,0.128C122.447,13.465,124.317,14.782,125.957,16.416z"/>
	<path fill="#F85705" d="M134.14,30.367c-0.388-0.267-0.83-0.192-1.256-0.192c-9.696-0.003-19.39-0.002-29.086-0.003
		c-0.46,0-0.933,0.068-1.357-0.197c0-1.063,0.024-2.126-0.01-3.188c-0.018-0.596,0.178-0.832,0.796-0.813
		c1.261,0.036,2.526,0.01,3.785,0.01c8.57,0,17.143,0,25.709,0C133.363,27.388,133.854,28.844,134.14,30.367z"/>
	<path fill="#135362" d="M35.602,95.234c-5.81-0.006-11.62-0.012-17.43-0.019c-0.334-0.001-0.666-0.019-0.932,0.238
		c-0.272,0.211-0.586,0.292-0.923,0.296c-1.25,0.021-2.5,0.024-3.751-0.002c-0.329-0.009-0.663-0.034-0.909-0.304
		c0.403-0.998,0.898-1.94,1.551-2.799c0.264-0.171,0.554-0.178,0.862-0.177c14.885,0.119,29.771,0.021,44.655,0.06
		c0.584,0.002,1.194-0.234,1.757,0.119c0.539,0.735,0.983,1.522,1.317,2.371c-0.491,0.488-1.121,0.342-1.702,0.342
		c-7.513,0.013-15.024,0.014-22.537-0.003C36.909,95.357,36.234,95.568,35.602,95.234z"/>
	<path fill="#D5D5D5" d="M83.868,122.204c9.995-0.005,19.989-0.012,29.985-0.017c1.065,0.521,1.725,1.377,2.055,2.504
		c-0.175,0.601-0.291,1.235-0.969,1.514c-0.454,0.127-0.922,0.1-1.386,0.1c-8.3,0.005-16.598,0.002-24.897,0.002
		c-0.595,0-1.202,0.053-1.734-0.309C85.57,125.001,84.753,123.575,83.868,122.204z"/>
	<path fill="#FDD83E" d="M81.683,29.769c-0.079-1.199,0.156-2.408-0.131-3.598c0.579-1.493,1.207-2.959,2.261-4.195
		c1.138-0.455,2.331-0.408,3.521-0.406c3.449,0.007,6.898,0.008,10.347-0.001c0.666-0.002,1.32,0.032,1.965,0.205
		c1.892,0.88,2.766,2.349,2.639,4.444c-0.058,0.956-0.026,1.918-0.004,2.877c0.013,0.507-0.169,0.716-0.688,0.7
		c-0.893-0.026-1.788-0.027-2.681,0.001c-0.524,0.018-0.666-0.196-0.692-0.698c-0.048-0.91,0.223-1.842-0.167-2.731
		c-0.77-0.245-1.56-0.291-2.361-0.286c-2.691,0.017-5.386-0.003-8.078,0.009c-1.269,0.007-1.388,0.171-1.442,1.455
		c-0.032,0.745,0.22,1.54-0.319,2.212l0.019-0.004C84.474,29.954,83.078,29.931,81.683,29.769z"/>
	<path fill="#6D373E" d="M23.801,22.632c-0.316,0.164-0.641,0.316-0.949,0.494c-1.416,0.812-2.873,0.877-4.373,0.265
		c-1.586-0.648-3.084-1.458-4.51-2.407c2.621-3.768,5.956-6.727,10.034-8.844c1.31-0.263,2.104,0.688,3.05,1.285
		c0.778,0.763,1.538,1.539,2.092,2.491c0.263,0.402,0.482,0.822,0.533,1.309c-0.038,0.4-0.314,0.658-0.586,0.895
		C27.345,19.642,25.683,21.267,23.801,22.632z"/>
	<path fill="#145564" d="M60.482,92.649c-0.842,0.245-1.704,0.2-2.563,0.2c-13.917,0-27.832-0.001-41.749,0.001
		c-0.992,0-1.986,0.042-2.963-0.205c0.312-0.658,0.734-1.245,1.221-1.787c0.432-0.306,0.927-0.332,1.431-0.332
		c13.992-0.001,27.982-0.001,41.972,0c0.501,0,1.001,0.008,1.43,0.329C59.733,91.409,60.153,91.999,60.482,92.649z"/>
	<path fill="#155A69" d="M55.192,86.439c0.855,0.609,1.599,1.333,2.219,2.18c-0.167,0.399-0.525,0.478-0.892,0.525
		c-0.365,0.052-0.73,0.038-1.096,0.038c-12.387,0-24.772,0.004-37.159-0.005c-0.706-0.002-1.487,0.179-2.033-0.513
		c0.632-0.837,1.371-1.566,2.213-2.192c0.373-0.182,0.775-0.138,1.169-0.138c11.069,0.015,22.135-0.004,33.205,0.015
		C53.608,86.348,54.411,86.149,55.192,86.439z"/>
	<path fill="#145766" d="M16.231,88.665c0.511,0.157,1.03,0.199,1.566,0.199c12.721-0.008,25.442-0.006,38.164-0.006
		c0.496,0,1,0.041,1.45-0.239c0.709,0.67,1.33,1.411,1.849,2.236c-14.943,0.001-29.887,0.002-44.831,0.003
		C14.918,90.036,15.548,89.328,16.231,88.665z"/>
	<path fill="#D5D5D5" d="M108.871,134.926c-0.685,0.008-1.37,0.018-2.058,0.022c-0.785-0.142-1.571-0.129-2.357-0.009
		c-2.076-0.376-4.16-0.698-6.169-1.379c-2.91-0.99-5.577-2.429-8.009-4.302c-0.099-0.076-0.151-0.213-0.225-0.321
		c-0.456-1.174-0.199-1.638,1.035-1.657c3.041-0.048,6.085-0.044,9.126-0.002c1.051,0.016,1.231,0.271,1.315,1.313
		c0.058,0.701-0.255,1.461,0.292,2.092c0.598,0.301,1.237,0.157,1.855,0.169c1.354,0.024,2.708-0.013,4.063,0.02
		c0.519,0.012,1.089-0.019,1.31,0.64C109.12,132.656,109.363,133.809,108.871,134.926z"/>
	<path fill="#F3460B" d="M116.632,47.139c4.974,0,9.949-0.002,14.924,0.004c0.441,0,0.959-0.16,1.228,0.399
		c-0.63,1.72-1.473,3.328-2.577,4.794c-0.32,0.091-0.648,0.124-0.984,0.122c-4.057-0.022-8.11,0-12.167-0.015
		c-0.491-0.001-1.007,0.06-1.42-0.316C115.878,50.449,116.201,48.784,116.632,47.139z"/>
	<path fill="#165C6C" d="M55.192,86.439c-0.573,0.189-1.161,0.229-1.764,0.229c-11.138-0.009-22.278-0.009-33.417-0.002
		c-0.533,0-1.057-0.031-1.567-0.193c0.852-0.887,1.838-1.602,2.889-2.231c0.28-0.117,0.571-0.158,0.876-0.154
		c9.236,0.123,18.471,0.016,27.706,0.064c0.82,0.005,1.659-0.248,2.466,0.1C53.396,84.881,54.379,85.552,55.192,86.439z"/>
	<path fill="#F1410D" d="M115.633,52.13c4.44,0,8.879,0.001,13.319-0.001c0.431,0,0.865-0.032,1.253,0.211
		c-1.456,2.309-3.261,4.301-5.408,5.984c-2.942-0.191-5.886-0.039-8.832-0.094c-0.52-0.01-1.07,0.096-1.512-0.31
		C114.847,55.989,115.239,54.059,115.633,52.13z"/>
	<path fill="#ADACAC" d="M79.666,38.983c-0.02,0.288,0.004,0.543,0.39,0.54c0.268-0.002,0.533,0.004,0.8,0.004
		c10.742,0,21.483,0,32.227,0c0.394,0,0.788,0,1.193,0c-0.308,2.196-0.308,2.196-2.326,2.196c-10.243,0-20.489,0-30.732,0
		c-0.431,0-0.864,0.021-1.295,0.032c-0.019-0.121-0.033-0.243-0.051-0.364c-0.192-0.319,0.021-0.704-0.162-1.025
		c-0.112-0.454-0.308-0.898-0.168-1.382C79.582,38.867,79.623,38.872,79.666,38.983z"/>
	<path fill="#B0B84A" d="M32.01,42.138c0.039-0.874,0.077-1.748,0.357-2.588c0.385-0.333,0.859-0.319,1.325-0.319
		c9.834-0.004,19.67-0.004,29.505,0c0.463,0,0.938-0.017,1.323,0.324c0.013,0.9-0.095,1.784-0.383,2.64
		c-0.79-0.105-1.585-0.127-2.382-0.126c-9.09,0.004-18.177,0.006-27.267-0.006C33.66,42.062,32.838,42.167,32.01,42.138z"/>
	<path fill="#AEB647" d="M32.01,42.138c0.255-0.384,0.638-0.394,1.051-0.394c10.044,0.007,20.087,0.005,30.127,0.011
		c0.369,0,0.845-0.161,0.949,0.439c-0.013,0.613-0.135,1.203-0.394,1.76c-0.567,0.357-1.206,0.313-1.835,0.313
		c-9.092,0-18.183,0.007-27.274-0.01c-1.054-0.002-2.088-0.071-2.828,0.876C31.874,44.135,31.942,43.136,32.01,42.138z"/>
	<path fill="#B2BA4D" d="M64.52,39.556c-10.719-0.001-21.435-0.003-32.153-0.005c-0.06-0.76,0.307-1.45,0.364-2.191
		c0.506-0.454,1.131-0.322,1.716-0.322c9.413-0.009,18.83-0.008,28.244-0.005c2.051,0,2.109,0.075,1.842,2.181
		C64.529,39.326,64.525,39.44,64.52,39.556z"/>
	<path fill="#8DDAD5" d="M84.89,90.856c0.314-0.528,0.637-1.048,1.15-1.414c0.477-0.279,1.001-0.313,1.537-0.313
		c13.218-0.004,26.433,0.014,39.647-0.009c0.336-0.001,0.661,0.038,0.983,0.125c0.554,0.446,0.927,1.041,1.329,1.611
		c-0.29,0.385-0.722,0.443-1.154,0.491c-0.362,0.039-0.729,0.029-1.093,0.029c-13.385,0-26.767,0.004-40.15-0.007
		C86.362,91.37,85.524,91.53,84.89,90.856z"/>
	<path fill="#ACB444" d="M31.805,45.134c0.048-1.151,0.758-1.213,1.716-1.208c10.074,0.037,20.146,0.028,30.222,0.03
		c-0.309,0.854-0.306,1.806-0.82,2.595c-3.116-0.179-6.234-0.072-9.352-0.078c-6.7-0.02-13.4-0.002-20.099-0.014
		c-0.582-0.001-1.206,0.136-1.71-0.321C31.776,45.802,31.791,45.469,31.805,45.134z"/>
	<path fill="#B7C056" d="M64.09,31.167c0.227,0.781,0.367,1.578,0.389,2.391c-0.534,0.342-1.144,0.322-1.738,0.323
		c-8.632,0.01-17.263,0.008-25.895,0c-0.626,0-1.279,0.043-1.746-0.519c-0.167-0.96-0.116-1.856,0.755-2.507
		c9.119-0.018,18.239,0.013,27.358-0.016C63.542,30.839,63.893,30.805,64.09,31.167z"/>
	<path fill="#94DDD9" d="M125.221,86.251c0.655,0.463,1.314,0.925,1.76,1.612c-0.177,0.4-0.543,0.452-0.913,0.493
		c-0.332,0.036-0.665,0.026-0.996,0.026c-11.905,0-23.81,0.006-35.714-0.01c-0.661-0.001-1.431,0.227-1.905-0.521
		c0.573-0.707,1.207-1.353,1.993-1.825c0.428-0.051,0.854-0.097,1.285-0.097c10.852,0.007,21.703,0.002,32.553,0.005
		C123.946,85.937,124.618,85.891,125.221,86.251z"/>
	<path fill="#12505E" d="M35.602,95.234c0.512-0.156,1.032-0.197,1.567-0.197c8.21,0,16.423-0.011,24.632-0.019
		c0.455,0.763,0.778,1.582,1.061,2.422c-0.568,0.632-1.336,0.514-2.053,0.516c-5.988,0.013-11.973,0.007-17.959,0.007
		c-1.397,0-2.794,0-4.191-0.002c-0.501,0-1.002-0.004-1.431-0.325C36.685,96.838,36.143,96.036,35.602,95.234z"/>
	<path fill="#A6AF3B" d="M29.581,52.128c0.395-0.733,0.789-1.468,1.183-2.201c0.234-0.163,0.498-0.159,0.767-0.156
		c9.246,0.084,18.489,0.015,27.733,0.039c0.398,0.001,0.802-0.028,1.196,0.043c0.307,0.057,0.696,0.051,0.69,0.531
		c-0.275,0.727-0.674,1.378-1.192,1.958c-0.477,0.282-1.001,0.316-1.54,0.316c-8.963-0.002-17.927,0.002-26.889-0.008
		C30.845,52.646,30.114,52.733,29.581,52.128z"/>
	<path fill="#BAC25A" d="M64.09,31.167c-1.485,0.001-2.973,0.004-4.46,0.004c-7.58,0-15.16,0.001-22.739-0.007
		c-0.378,0-0.806,0.156-1.125-0.209c-0.375-0.939-0.184-1.95,0.47-2.494c8.791-0.02,17.582,0.009,26.374-0.016
		c0.326,0,0.679-0.033,0.879,0.324C63.792,29.543,63.998,30.341,64.09,31.167z"/>
	<path fill="#C8CF6F" d="M28.985,16c-0.667-0.797-1.335-1.595-2.002-2.393c0.412-0.686,1.104-0.515,1.706-0.517
		c5.182-0.016,10.365-0.005,15.549-0.01c2.027-0.001,4.054,0.02,6.081-0.014c0.361-0.004,0.73-0.034,1.08,0.114
		c1.348,0.657,2.513,1.567,3.587,2.602c-0.438,0.615-1.108,0.531-1.727,0.537c-3.392,0.018-6.784,0.006-10.174,0.006
		c-4.155,0-8.312,0-12.469,0C30.052,16.325,29.481,16.349,28.985,16z"/>
	<path fill="#FD6500" d="M120.391,12.413c-0.511,0.154-1.029,0.202-1.565,0.201c-7.735-0.008-15.472-0.008-23.206,0.001
		c-0.535,0-1.053-0.058-1.564-0.208c3.641-2.055,7.567-3.13,11.727-3.348c4.972-0.26,9.68,0.78,14.116,3.04
		C120.069,12.187,120.228,12.307,120.391,12.413z"/>
	<path fill="#A4AD38" d="M29.581,52.128c0.976,0.25,1.972,0.202,2.964,0.202c9.138,0.002,18.277,0.008,27.414,0.011
		c-0.583,0.944-1.18,1.876-2.013,2.631c-0.757-0.133-1.521-0.125-2.285-0.125c-8.669-0.005-17.339,0.012-26.007-0.006
		c-0.601-0.172-0.53-0.671-0.515-1.116c0.018-0.557,0.183-1.089,0.396-1.603L29.581,52.128z"/>
	<path fill="#165F6F" d="M52.382,84.252c-0.972,0.271-1.97,0.216-2.963,0.216c-8.373,0-16.749,0-25.121,0
		c-0.994,0-1.99,0.06-2.963-0.225c1.374-0.998,2.827-1.854,4.438-2.412c7.396,0.21,14.79,0.187,22.186,0.012
		C49.568,82.396,51.013,83.253,52.382,84.252z"/>
	<path fill="#CBD273" d="M51.399,13.181c-0.57,0.195-1.157,0.232-1.76,0.232c-7.1-0.011-14.201-0.008-21.301-0.007
		c-0.46,0-0.933-0.063-1.355,0.202c-0.962-0.553-1.805-1.347-2.98-1.469c1.23-0.589,2.438-1.225,3.779-1.54
		c6.059-0.177,12.117-0.179,18.174,0.001C47.901,11.188,49.753,11.966,51.399,13.181z"/>
	<path fill="#AAB341" d="M31.762,46.137c9.999,0.001,19.996,0,29.995,0.019c0.398,0,0.976-0.306,1.165,0.396
		c-0.152,0.659-0.375,1.288-0.769,1.845c-0.627,0.068-1.258,0.067-1.887,0.067c-9.263-0.001-18.526-0.006-27.788,0
		c-0.362,0-0.731,0.056-1.073-0.13C31.568,47.608,31.478,46.842,31.762,46.137z"/>
	<path fill="#B6BE53" d="M35.137,33.097c0.297,0.453,0.758,0.472,1.232,0.472c8.923-0.002,17.846-0.006,26.768,0.014
		c0.45,0.001,0.892-0.347,1.343-0.023c0.163,1.057,0.297,2.118,0.202,3.19c-0.693-0.97-1.714-0.876-2.731-0.873
		c-8.815,0.01-17.626,0.009-26.439,0c-0.652-0.001-1.344,0.13-1.908-0.362c-0.267-0.343-0.224-0.704,0.041-1
		C34.098,34.001,34.466,33.386,35.137,33.097z"/>
	<path fill="#99DFDB" d="M125.221,86.251c-11.618,0.004-23.238,0.008-34.857,0.008c-0.318,0-0.678,0.104-0.918-0.229
		c0.713-0.703,1.503-1.304,2.384-1.783c0.425-0.093,0.854-0.108,1.288-0.107c9.405,0.008,18.811,0.007,28.217,0
		c0.434,0,0.864,0.011,1.286,0.114C123.57,84.811,124.489,85.41,125.221,86.251z"/>
	<path fill="#A8B13E" d="M31.404,48.333c0.356-0.235,0.762-0.195,1.158-0.195c9.495,0,18.99-0.002,28.486,0.006
		c0.375,0,0.81-0.154,1.105,0.252c-0.35,0.653-0.478,1.419-1.002,1.986c-0.333-0.418-0.802-0.24-1.208-0.241
		c-9.171-0.011-18.341-0.011-27.512-0.001c-0.569,0-1.123-0.04-1.665-0.213C30.977,49.396,31.189,48.864,31.404,48.333z"/>
	<path fill="#C4CC68" d="M57.301,18.007c0.701,0.65,1.317,1.371,1.822,2.187c-0.478,0.639-1.187,0.512-1.832,0.514
		c-6.209,0.013-12.419,0.01-18.629,0.003c-1.061-0.001-2.125,0.055-3.183-0.047c-1.13-0.361-1.63-1.449-2.455-2.162
		c-0.219-0.191-0.038-0.414,0.187-0.545c0.553-0.292,1.155-0.278,1.751-0.279c6.938-0.004,13.876-0.002,20.813-0.001
		C56.307,17.675,56.844,17.66,57.301,18.007z"/>
	<path fill="#90DCD7" d="M87.454,87.852c0.359,0.222,0.758,0.209,1.159,0.209c12.402-0.002,24.804-0.002,37.207-0.001
		c0.399,0,0.803,0.028,1.16-0.196c0.541,0.344,0.829,0.912,1.227,1.382c-0.297,0.172-0.615,0.216-0.958,0.216
		c-13.737-0.01-27.473-0.014-41.211-0.019C86.396,88.809,86.88,88.291,87.454,87.852z"/>
	<path fill="#B4BC50" d="M33.576,35.165c0.272,0.556,0.79,0.393,1.23,0.393c9.389,0.006,18.78,0.018,28.169-0.016
		c0.954-0.003,1.67,0.047,1.706,1.207c0.001,0.824,0.147,1.657-0.148,2.464c-0.059-1.854-0.059-1.854-1.94-1.854
		c-9.954,0-19.908,0-29.863,0.001l0.011-0.035C32.664,36.468,32.726,35.665,33.576,35.165z"/>
	<path fill="#9EE1DD" d="M122.621,84.252c-0.386,0.251-0.822,0.216-1.254,0.216c-9.429,0-18.855,0-28.284,0
		c-0.433,0-0.866,0.03-1.252-0.22c1.063-0.793,2.163-1.521,3.421-1.977c0.618-0.104,1.242-0.123,1.868-0.123
		c6.738,0.002,13.477,0.002,20.214,0.002c0.626-0.002,1.249,0.014,1.867,0.123C120.461,82.724,121.558,83.461,122.621,84.252z"/>
	<path fill="#A0A932" d="M56.128,56.875c-0.803,0.806-1.547,1.682-2.594,2.201c-0.692-0.113-1.391-0.029-2.084-0.031
		c-6.71-0.01-13.423-0.003-20.134-0.01c-0.59-0.001-1.204,0.098-1.749-0.251c-0.391-0.772-0.377-1.547-0.016-2.322
		c0.374-0.274,0.814-0.262,1.243-0.262c8-0.007,16.002-0.006,24.002-0.001c0.333,0,0.67-0.008,0.985,0.11
		C56.028,56.401,56.31,56.506,56.128,56.875z"/>
	<path fill="#A2AB35" d="M56.128,56.875c-0.212-0.613-0.732-0.339-1.109-0.34c-8.479-0.017-16.958-0.013-25.438-0.013
		c-0.393-0.595-0.388-1.19-0.001-1.787c0.29-0.336,0.681-0.203,1.027-0.203c8.766-0.007,17.532-0.008,26.297,0.003
		c0.38,0,0.915-0.228,1.041,0.438C57.408,55.672,56.898,56.396,56.128,56.875z"/>
	<path fill="#C0C862" d="M60.739,22.582c0.487,0.685,0.938,1.388,1.188,2.2c-0.374,0.37-0.856,0.319-1.313,0.319
		c-7.661,0.008-15.323,0.008-22.983,0.002c-0.365,0-0.731,0-1.082-0.125c-0.261-0.102-0.414-0.307-0.526-0.551
		c-0.134-0.608-0.453-1.214-0.015-1.827c0.416-0.355,0.926-0.332,1.419-0.333c7.33-0.009,14.657-0.007,21.988-0.003
		C59.877,22.267,60.35,22.257,60.739,22.582z"/>
	<path fill="#89D9D3" d="M84.89,90.856c0.941,0.256,1.905,0.196,2.865,0.196c13.072,0.001,26.145,0,39.216,0.001
		c0.862,0,1.724,0.045,2.566-0.197c0.336,0.436,0.71,0.845,0.897,1.379c-0.271,0.31-0.646,0.32-1.008,0.324
		c-3.547,0.033-7.092-0.004-10.64,0.021c-0.2,0.001-0.396-0.033-0.574-0.131c-0.335-0.333-0.759-0.185-1.14-0.185
		c-11.06-0.011-22.122-0.013-33.182-0.015C84.222,91.788,84.555,91.32,84.89,90.856z"/>
	<path fill="#BCC45C" d="M36.209,24.384c0.055,0.133,0.11,0.266,0.166,0.399c0.084,0.103,0.166,0.211,0.205,0.338
		c0.42,1.33,0.419,1.335,1.789,1.335c7.548,0.002,15.094-0.002,22.642,0.005c0.589,0,1.208-0.102,1.725,0.316
		c0.421,0.599,0.609,1.286,0.753,1.991c-2.445,0.002-4.891,0.004-7.333,0.004c-6.301,0.001-12.598,0.003-18.899-0.005
		c-0.375,0-0.808,0.158-1.108-0.241C35.71,27.141,35.612,25.757,36.209,24.384z"/>
	<path fill="#C2CA65" d="M60.739,22.582c-7.829,0.002-15.657,0.003-23.485,0.007c-0.426,0-0.868-0.071-1.253,0.197
		c-0.604-0.677-0.913-1.463-0.889-2.374c7.448-0.008,14.896-0.017,22.344-0.016c0.569,0,1.124-0.031,1.667-0.205
		C59.755,20.927,60.326,21.701,60.739,22.582z"/>
	<path fill="#AEA9A8" d="M114.159,42.975c0.013,1.211-0.272,1.508-1.474,1.508c-10.284,0-20.568,0-30.853,0.006
		c-0.415,0.001-0.87-0.148-1.235,0.2c-0.283-0.542-0.377-1.133-0.465-1.727c0.332,0.016,0.664,0.043,0.995,0.043
		c10.744,0.002,21.491,0.002,32.234,0C113.629,43.007,113.894,42.986,114.159,42.975z"/>
	<path fill="#124E5B" d="M37.227,97.639c7.991,0,15.98-0.005,23.97,0.014c0.573,0.002,1.107-0.151,1.664-0.211
		c0.274,0.715,0.631,1.405,0.653,2.195c-0.452,0.387-1.002,0.31-1.526,0.311c-3.459,0.01-6.92,0.002-10.379,0.006
		c-1.499,0.002-1.499,0.004-1.801,1.493c-0.041,0.195-0.098,0.387-0.263,0.522c-0.066,0.005-0.133,0.012-0.199,0.019
		c-0.289-0.284-0.305-0.657-0.282-1.014c0.057-0.845-0.363-1.094-1.137-1.051c-0.723,0.039-1.454,0.067-2.169-0.007
		c-0.915-0.096-1.522,0.179-1.755,1.105c-1.199-0.998-2.626-0.658-3.992-0.672c-0.359-0.004-0.726,0.106-1.064-0.104
		C38.372,99.375,37.799,98.507,37.227,97.639z"/>
	<path fill="#C6CE6C" d="M57.301,18.007c-7.604-0.004-15.209-0.001-22.813-0.021c-0.547-0.001-1.037,0.216-1.565,0.236
		c-1.189-0.083-2.256-0.58-3.34-1.007c-0.2-0.404-0.399-0.81-0.598-1.213c8.078,0,16.158-0.002,24.237,0.006
		c0.603,0,1.19-0.036,1.765-0.226C55.855,16.422,56.668,17.119,57.301,18.007z"/>
	<path fill="#BEC65F" d="M62.736,26.78c-8.263,0-16.523,0.004-24.787-0.003c-1.787-0.001-1.559,0.232-1.58-1.596
		c-0.001-0.133,0.002-0.266,0.003-0.397c8.517,0,17.033,0,25.55,0C62.268,25.418,62.665,26.033,62.736,26.78z"/>
	<path fill="#176172" d="M47.959,81.843c-0.417,0.401-0.942,0.429-1.478,0.429c-6.412-0.002-12.824-0.002-19.238-0.002
		c-0.533,0-1.059-0.026-1.471-0.44c4.188-1.958,8.61-2.583,13.187-2.268C42.095,79.776,45.115,80.471,47.959,81.843z"/>
	<path fill="#9EA72F" d="M29.581,58.717c7.616,0,15.232-0.004,22.847,0.013c0.375,0,0.899-0.274,1.106,0.345
		c-0.883,0.68-1.681,1.493-2.801,1.813c-3.039,0.302-6.084,0.078-9.125,0.139c-2.349,0.046-4.698-0.056-7.045,0.042
		c-0.892,0.225-1.683-0.267-2.533-0.36c-0.572-0.17-1.128-0.397-1.717-0.521c-0.405-0.084-0.768-0.231-0.913-0.673
		C29.338,59.223,29.344,58.942,29.581,58.717z"/>
	<path fill="#2EB4AB" d="M101.446,131.141c-0.376-0.924-0.135-1.883-0.156-2.824c-0.013-0.608-0.203-0.804-0.808-0.799
		c-3.223,0.022-6.444,0.029-9.667,0.002c-1.25-0.013-0.561,0.922-0.764,1.418c-1.169-0.845-2.254-1.783-3.132-2.938
		c9.408,0.002,18.818,0.006,28.226,0.007c0.176,0.728-0.099,1.241-0.743,1.586c-1.32,0.206-2.652,0.081-3.978,0.096
		c-2.259,0.021-4.521,0.006-6.778,0.006c-1.843,0.001-1.843,0.002-1.915,1.826C101.713,130.071,101.864,130.657,101.446,131.141z"/>
	<path fill="#EF3C0F" d="M114.453,57.918c3.127,0,6.25-0.006,9.375,0.008c0.352,0.002,0.846-0.217,0.969,0.396
		c-3.385,2.856-7.237,4.759-11.582,5.651C113.629,61.954,114.039,59.937,114.453,57.918z"/>
	<path fill="#114B59" d="M49.543,101.968c0.038-2.679-0.361-2.316,2.317-2.327c3.884-0.019,7.77-0.006,11.652-0.006
		c0.405,1.028,0.662,2.091,0.767,3.19c-0.245,0.138-0.514,0.124-0.778,0.122c-2.858-0.014-5.716,0.004-8.575-0.01
		c-0.332,0-0.667,0-0.984-0.118c-0.389-0.139-0.264-0.508-0.346-0.784C52.246,102.014,50.895,101.989,49.543,101.968z"/>
	<path fill="#59C5BE" d="M118.223,111.015c0-0.799,0-1.597,0-2.394c0.346-0.33,0.788-0.322,1.216-0.323
		c4.703-0.011,9.407-0.017,14.11,0.004c1.223,0.005,1.347,0.148,1.245,1.162c-0.009,0.601,0.08,1.214-0.189,1.786
		c-0.326,0.081-0.657,0.096-0.991,0.094c-4.59-0.015-9.179,0-13.769-0.013C119.29,111.329,118.704,111.433,118.223,111.015z"/>
	<path fill="#303030" d="M132.594,118.236c-0.338,1.256-1.156,2.264-1.757,3.383c-0.576,0.035-1.053-0.201-1.489-0.547
		c-0.306-0.46-0.067-0.885,0.074-1.321c0.125-0.385,0.421-0.741,0.248-1.352c-0.543,0.595-0.616,1.28-0.936,1.835
		c-0.181,0.333-0.447,0.5-0.834,0.416c-1.438-0.216-1.428-1.189-0.951-2.483c-0.745,0.484-0.646,1.32-1.255,1.435
		c-0.562,0.106-1.082-0.237-1.597-0.464c-0.401-0.326-0.23-0.705-0.107-1.085c0.165-0.495,0.443-0.953,0.57-1.626
		c-0.531,0.394-0.59,0.903-0.792,1.321c-0.4,0.83-0.721,0.972-1.57,0.61c-0.852-0.361-1.723-0.679-2.573-1.046
		c-0.406-0.177-0.786-0.376-0.782-0.909c0.36-1.057,0.651-2.146,1.329-3.065c0.191-0.112,0.395-0.125,0.605-0.083
		c1.83,0.707,3.641,1.46,5.472,2.165c1.823,0.746,3.633,1.521,5.465,2.242C132.04,117.795,132.415,117.868,132.594,118.236z"/>
	<path fill="#E3C09B" d="M29.536,59.503c0.676,0.696,1.711,0.455,2.467,0.947c-0.149,1.492-1.08,2.493-2.141,3.415
		c-2.735-0.709-5.333-1.738-7.684-3.337c0.035-0.131,0.094-0.257,0.209-0.327c2.152-1.283,3.851-3.114,5.739-4.717
		c0.101-0.085,0.203-0.171,0.308-0.251c0.267-0.199,0.56-0.473,0.886-0.316c0.315,0.152,0.144,0.539,0.156,0.82
		C29.521,56.992,29.413,58.25,29.536,59.503z"/>
	<path fill="#5FC8C1" d="M134.794,109.464c0.08-0.729-0.301-0.859-0.952-0.857c-5.205,0.021-10.413,0.015-15.619,0.015
		c0-0.731,0-1.464,0-2.194c0.379-0.352,0.857-0.32,1.317-0.32c4.649-0.008,9.295-0.013,13.943,0.003
		c1.242,0.004,1.282,0.054,1.458,1.105C134.941,107.966,135.09,108.729,134.794,109.464z"/>
	<path fill="#53C3BC" d="M120.756,113.428c-0.185-0.005-0.367-0.015-0.551-0.02c-0.661,0.533-1.32,0.329-1.981,0.002
		c0-0.799,0-1.599-0.001-2.396c5.087,0,10.175-0.004,15.262,0.005c0.376,0,0.808-0.15,1.12,0.23
		c-0.013,0.748-0.122,1.478-0.42,2.171c-0.191,0.053-0.383,0.108-0.584,0.106c-4.22-0.02-8.439,0.037-12.658-0.031
		C120.879,113.496,120.816,113.454,120.756,113.428z"/>
	<path fill="#6FCFC8" d="M118.221,102.431c0-0.732,0-1.465,0-2.195c0.317-0.301,0.722-0.313,1.121-0.315
		c4.68-0.033,9.36,0.036,14.04-0.038c0.201-0.003,0.398,0.018,0.562,0.156c0.3,0.904,0.502,1.832,0.602,2.781
		c-4.967-0.152-9.936-0.03-14.903-0.074C119.15,102.74,118.637,102.803,118.221,102.431z"/>
	<path fill="#A3E3DF" d="M119.202,82.271c-0.513,0.151-1.029,0.206-1.565,0.205c-6.939-0.01-13.88-0.01-20.819,0
		c-0.536,0.001-1.054-0.056-1.564-0.207c1.394-0.711,2.792-1.394,4.369-1.609c0.512-0.196,1.045-0.114,1.57-0.114
		c4.226-0.003,8.448,0.047,12.671-0.022c0.329-0.007,0.662,0.016,0.977,0.139C116.41,80.879,117.813,81.559,119.202,82.271z"/>
	<path fill="#65CAC3" d="M134.941,107.211c-0.162-0.622-0.524-0.813-1.198-0.81c-5.17,0.039-10.346,0.021-15.521,0.021
		c0-0.665,0-1.331-0.002-1.996c0.35-0.328,0.792-0.316,1.22-0.318c4.841-0.014,9.681,0.004,14.523-0.009
		c0.265,0,0.531-0.003,0.772,0.137C134.786,105.231,135.043,106.209,134.941,107.211z"/>
	<path fill="#6ACCC6" d="M134.738,104.237c-0.392,0.258-0.835,0.187-1.261,0.188c-5.085,0.002-10.17,0.002-15.255,0.002
		c0-0.664,0-1.329,0-1.996c5.025,0,10.055,0,15.081,0.002c0.452,0,0.944-0.111,1.243,0.387
		C134.603,103.294,134.816,103.748,134.738,104.237z"/>
	<path fill="#104754" d="M53.757,102.63c3.122,0,6.244-0.002,9.367,0c0.396,0,0.802-0.05,1.157,0.195
		c0.201,0.91,0.311,1.83,0.27,2.767c-0.258,0.324-0.634,0.339-0.995,0.341c-2.948,0.028-5.896,0.021-8.845,0.006
		c-0.332-0.002-0.666-0.023-0.947-0.241C53.557,104.677,53.565,103.653,53.757,102.63z"/>
	<path fill="#9CA52C" d="M34.35,60.984c0.216-0.366,0.576-0.268,0.896-0.268c4.881-0.004,9.76-0.002,14.642,0
		c0.29,0,0.604-0.083,0.846,0.173c-2.071,1.403-4.369,2.277-6.776,2.885c-2.193-0.182-4.232-0.999-6.339-1.538
		c-0.8-0.205-1.591-0.447-2.385-0.678C34.905,61.418,34.492,61.412,34.35,60.984z"/>
	<path fill="#0F4551" d="M53.757,105.625c3.597-0.012,7.194-0.021,10.792-0.033l-0.013,0.004c0.19,0.529-0.04,1.092,0.139,1.622
		c0.022,0.759,0.104,1.521-0.134,2.261c-0.4-0.828-1.082-0.978-1.948-0.963c-2.477,0.051-4.957,0.024-7.437,0.015
		c-0.488-0.002-0.999,0.067-1.431-0.263C53.597,107.384,53.555,106.504,53.757,105.625z"/>
	<path fill="#303030" d="M114.572,127.382c0.192-0.459,0.384-0.917,0.575-1.375c0.221-0.482,0.442-0.969,0.663-1.454
		c0.863,0.174,1.122,0.92,1.485,1.567c-0.327,0.932,0.537,0.886,0.979,1.187c0.149,0.129,0.251,0.281,0.287,0.474
		c0.039,0.272-0.079,0.512-0.156,0.765c-0.245,0.768-0.666,1.115-1.474,0.687c-0.164-0.087-0.365-0.175-0.618,0.029
		c0.363,0.534,1.453,0.52,1.236,1.496c-0.457,1.144-0.457,1.144-2.274,1.091c0.112,0.437,0.555,0.42,0.83,0.619
		c0.39,0.276,0.595,0.549,0.115,0.92c-1.404,0.627-2.903,0.892-4.406,1.144c-0.35-0.469,0.019-0.861,0.146-1.271
		c0.165-0.527,0.452-1.004,0.633-1.524c0.335-0.706,0.542-1.466,0.843-2.187C113.816,128.824,113.939,127.968,114.572,127.382z"/>
	<path fill="#0E424D" d="M53.757,108.219c3.146,0,6.294,0.04,9.44-0.023c1.002-0.019,1.502,0.218,1.346,1.283
		c0.009,0.606,0.037,1.213-0.202,1.791c-3.018-0.294-6.042-0.063-9.064-0.14c-0.523-0.015-1.071,0.085-1.543-0.259
		C53.588,109.985,53.553,109.1,53.757,108.219z"/>
	<path fill="#75D1CB" d="M133.943,100.038c-0.476,0.149-0.963,0.205-1.466,0.202c-4.752-0.009-9.505-0.005-14.259-0.005
		c0-0.601,0-1.199,0-1.797c0.379-0.351,0.859-0.321,1.32-0.321c4.184-0.011,8.371-0.008,12.555-0.002
		c0.466,0,0.936,0.004,1.334,0.303C133.7,98.928,133.854,99.471,133.943,100.038z"/>
	<path fill="#82D6D0" d="M118.217,95.646c0-0.667,0-1.33,0-1.998c0.381-0.348,0.861-0.319,1.323-0.321
		c3.493-0.007,6.985-0.005,10.478-0.002c0.47,0,0.934,0.023,1.331,0.325c0.343,0.567,0.688,1.136,0.879,1.778
		c-0.32,0.49-0.833,0.52-1.327,0.523c-3.887,0.029-7.773,0.021-11.658,0.006C118.872,95.954,118.507,95.919,118.217,95.646z"/>
	<path fill="#D3AF8B" d="M29.536,59.503c-0.345-1.034-0.076-2.1-0.151-3.147c-0.028-0.416-0.003-0.838-0.003-1.479
		c-2.635,1.812-4.433,4.368-7.202,5.651c-1.176-0.572-2.143-1.442-3.168-2.226c0.8-0.471,1.743-0.453,2.603-0.773
		c2.065-0.769,3.769-2.063,5.459-3.397c0.831-0.656,1.642-1.338,2.461-2.009c0.233,0.866-0.452,1.75,0.046,2.612
		c0,0.596,0.001,1.191,0.001,1.787c0,0.731,0,1.464,0,2.196C29.564,58.979,29.55,59.24,29.536,59.503z"/>
	<path fill="#7BD3CE" d="M118.217,95.646c4.083,0,8.167-0.007,12.249,0.005c0.602,0.001,1.189-0.035,1.76-0.223
		c0.376,0.551,0.619,1.159,0.771,1.805c-0.251,0.519-0.747,0.516-1.205,0.517c-4.183,0.024-8.366,0.021-12.551,0.004
		c-0.37-0.002-0.733-0.037-1.023-0.311C118.219,96.842,118.219,96.245,118.217,95.646z"/>
	<path fill="#4DC1B9" d="M120.756,113.428c0.538-0.173,1.089-0.228,1.658-0.226c3.583,0.016,7.164,0.003,10.743,0.015
		c0.349,0,0.739-0.132,1.026,0.204c-0.048,0.772-0.294,1.487-0.603,2.188c-2.236,0.202-4.473,0.116-6.71,0.042
		c-0.228-0.009-0.456-0.042-0.688-0.024C124.338,114.985,122.521,114.271,120.756,113.428z"/>
	<path fill="#0D3D47" d="M53.757,108.219c0,0.865,0,1.729-0.001,2.596c0.178,0.211,0.233,0.464,0.273,0.731
		c0.177,1.131,0.182,1.142,1.38,1.146c2.316,0.013,4.633,0.001,6.949,0.005c0.364,0.001,0.733-0.021,1.086,0.073
		c0.323,0.087,0.676,0.18,0.477,0.655c-0.045,0.771-0.295,1.483-0.605,2.182c-2.652-0.183-5.31-0.051-7.965-0.094
		c-0.496-0.008-0.999,0.048-1.474-0.151c-0.466-0.512-0.163-1.119-0.206-1.683c-0.182-2.618-0.039-5.242-0.077-7.86
		c-0.019-1.261,0-2.523,0.002-3.785c0.054,0.199,0.105,0.398,0.158,0.596c0,1.001,0,1.997,0.002,2.995
		C53.757,106.489,53.757,107.354,53.757,108.219z"/>
	<path fill="#CDD476" d="M45.955,10.601c-0.253,0.316-0.609,0.206-0.926,0.206c-5.44,0.005-10.881,0.005-16.321,0
		c-0.317,0-0.674,0.109-0.928-0.207c1.687-0.72,3.464-1.125,5.266-1.352c4.099-0.511,8.144-0.224,12.104,0.996
		C45.428,10.331,45.688,10.48,45.955,10.601z"/>
	<path fill="#0E3F4A" d="M63.923,113.426c-0.116-0.609-0.605-0.406-0.959-0.408c-2.651-0.015-5.301-0.009-7.952-0.009
		c-1.277,0-1.279-0.001-1.275-1.302c0.001-0.297,0.013-0.596,0.02-0.894c3.181,0,6.364-0.006,9.545,0.008
		c0.388,0.004,0.913-0.208,1.039,0.448C64.331,112.013,64.204,112.734,63.923,113.426z"/>
	<path fill="#3AB9B0" d="M129.368,120.995c0.519,0.143,1.02,0.322,1.471,0.624c-0.275,0.565-0.563,1.121-1.062,1.533
		c-2.543-0.11-5.087-0.029-7.632-0.056c-0.428-0.006-0.859,0.02-1.281-0.088c-0.574-0.258-1.05-0.725-1.693-0.854
		c-0.145-0.077-0.249-0.188-0.309-0.34c-0.099-0.673,0.253-1.162,0.854-0.914c0.786,0.326,1.297-0.018,1.884-0.34
		c1.873-0.122,3.747-0.079,5.618-0.027c0.267,0.008,0.521,0.029,0.764-0.1c0.289,0.138,0.405-0.1,0.562-0.254
		C129.507,119.754,129.16,120.654,129.368,120.995z"/>
	<path fill="#0C3A45" d="M53.757,115.206c2.811,0,5.624-0.002,8.435,0.001c0.416,0.002,0.887-0.112,1.126,0.401
		c-0.156,0.771-0.403,1.513-0.799,2.197c-2.45-0.182-4.902-0.051-7.355-0.097c-0.491-0.01-1.003,0.071-1.438-0.261
		C53.6,116.699,53.558,115.951,53.757,115.206z"/>
	<path fill="#0C3841" d="M53.757,117.401c2.546,0,5.092-0.002,7.639,0.003c0.416,0.001,0.885-0.113,1.123,0.401
		c-0.249,0.699-0.487,1.407-0.938,2.015c-0.397,0.176-0.798,0.3-1.242,0.3c-1.82,0.001-3.637,0.021-5.458-0.008
		c-1.15-0.02-1.257-0.136-1.237-1.253C53.655,118.371,53.51,117.871,53.757,117.401z"/>
	<path fill="#7392FD" d="M35.146,61.368c2.102,0.361,4.104,1.104,6.164,1.626c0.891,0.226,1.766,0.518,2.648,0.778
		c-3.417,0.918-6.875,1.229-10.388,0.708C33.917,63.354,34.403,62.294,35.146,61.368z"/>
	<path fill="#0B353F" d="M53.757,117.401c-0.082,2.396-0.082,2.395,2.253,2.396c1.857,0.004,3.713,0.015,5.572,0.021
		c-0.484,0.811-0.731,1.758-1.424,2.449c-1.561,0.056-3.122,0.014-4.682,0.025c-1.414,0.01-1.428,0.021-1.438,1.462
		c-0.001,0.198,0,0.397-0.016,0.598c0.02,0.724,0.02,1.447-0.001,2.168c-0.011,0.354,0.017,0.738-0.346,0.974
		c-0.183-1.32-0.082-2.649-0.075-3.973c0.02-3.281-0.112-6.564,0.07-9.845c0.028,0.51,0.057,1.017,0.084,1.525
		C53.757,115.938,53.757,116.668,53.757,117.401z"/>
	<path fill="#85D7D2" d="M131.35,93.649c-4.379,0-8.756,0-13.133,0c-0.002-0.4-0.004-0.8-0.006-1.198
		c0.389-0.247,0.827-0.199,1.258-0.199c3.652-0.008,7.309-0.011,10.964-0.017C130.853,92.633,131.121,93.129,131.35,93.649z"/>
	<path fill="#34B7AE" d="M120.535,122.771c2.693,0.007,5.389,0.01,8.082,0.022c0.416,0.002,0.888-0.133,1.16,0.358
		c-0.543,0.674-0.85,1.526-1.578,2.063c-2.057-0.217-4.114-0.217-6.17-0.016c-1.184-0.074-1.429-1.096-1.905-1.886
		C120.141,123.042,120.234,122.83,120.535,122.771z"/>
	<path fill="#12505D" d="M11.656,95.445c1.862,0.004,3.721,0.007,5.583,0.011c-0.576,1.058-1.245,2.054-1.996,2.993
		c-1.596,0.47-3.193,0.441-4.786-0.014C10.731,97.389,11.153,96.4,11.656,95.445z"/>
	<path fill="#A8E5E1" d="M114.838,80.662c-5.073,0.339-10.144,0.339-15.217,0c1.163-0.597,2.447-0.78,3.711-0.937
		c3.592-0.444,7.174-0.338,10.699,0.595C114.31,80.396,114.57,80.546,114.838,80.662z"/>
	<path fill="#124D5A" d="M10.458,98.438c1.594,0.003,3.191,0.008,4.785,0.014c-0.679,1.057-1.368,2.107-2.031,3.173
		c-0.208,0.336-0.49,0.392-0.839,0.388c-0.963-0.012-1.922-0.005-2.886-0.006C9.737,100.796,9.98,99.582,10.458,98.438z"/>
	<path fill="#78D2CC" d="M118.219,97.441c4.509,0,9.016,0,13.525,0c0.431,0,0.864,0.034,1.253-0.209
		c0.271,0.35,0.361,0.765,0.431,1.186c-5.069,0.007-10.14,0.016-15.209,0.02C118.219,98.106,118.219,97.773,118.219,97.441z"/>
	<path fill="#0A333C" d="M53.756,124.387c-0.078-2.395-0.078-2.395,2.337-2.395c1.058,0,2.116-0.005,3.173,0.003
		c0.317,0.001,0.676-0.087,0.89,0.272c-0.531,0.885-1.053,1.775-1.839,2.471c-1.116-0.075-2.232-0.043-3.351-0.06
		C54.544,124.675,54.106,124.71,53.756,124.387z"/>
	<path fill="#0A3038" d="M53.756,124.387c1.205,0,2.41,0.002,3.616-0.001c0.361,0,0.729-0.029,0.946,0.353
		c-1.276,1.764-2.85,3.227-4.604,4.505c-0.214-0.576-0.146-1.161-0.04-1.748C53.703,126.459,53.729,125.424,53.756,124.387z"/>
	<path fill="#1649FD" d="M35.146,61.368c-0.396,1.103-0.869,2.168-1.578,3.112c-1.261-0.052-2.465-0.447-3.707-0.615
		c0.71-1.139,1.727-2.087,2.14-3.415c0.819,0.013,1.549,0.433,2.348,0.534C34.617,61.113,34.882,61.24,35.146,61.368z"/>
	<path fill="#48BEB6" d="M126.184,115.624c0.048-0.046,0.092-0.128,0.141-0.132c2.368-0.147,4.738-0.13,7.109-0.011
		c0.051,0.002,0.098,0.081,0.146,0.125c-0.224,0.917-0.489,1.816-0.988,2.628C130.429,117.434,128.278,116.597,126.184,115.624z"/>
	<path fill="#2FB5AB" d="M121.805,125.175c0.043-0.354,0.291-0.389,0.576-0.389c1.724,0.002,3.445,0.003,5.166,0
		c0.322-0.001,0.608,0.023,0.651,0.431c-0.545,0.694-1.048,1.434-1.818,1.914c-0.963-0.115-1.928-0.109-2.892-0.001
		C122.549,126.808,121.981,126.158,121.805,125.175z"/>
	<path fill="#1CADA3" d="M112.793,131.768c-0.208,0.962-0.828,1.778-0.978,2.762c-0.979,0.134-1.961,0.263-2.944,0.396
		c-0.007-1.119-0.011-2.234-0.02-3.351C110.188,131.176,111.52,130.879,112.793,131.768z"/>
	<path fill="#24B0A6" d="M117.379,130.725c0.164-0.877-0.622-0.754-1.057-1.005c-0.232-0.136-0.607-0.154-0.397-0.612
		c0.164-0.359,0.384-0.371,0.712-0.283c1.278,0.349,1.28,0.342,1.82-1.078c0.935,0.208,1.179,1.146,1.774,1.711
		c0.373,0.352,0.662,0.799,1.065,1.136c0.096,0.106,0.177,0.217,0.102,0.372c-0.201,0.123-0.403,0.246-0.606,0.37
		c-0.849-0.126-1.703-0.006-2.55-0.089C117.898,131.213,117.405,131.327,117.379,130.725z"/>
	<path fill="#F55008" d="M79.519,35.995c9.967,0,19.935,0.012,29.904-0.024c0.929-0.003,1.383,0.177,1.19,1.175
		c-0.152,0.782,0.228,0.986,0.941,0.906c1.08-0.121,2.185,0.192,3.249-0.188c-0.146,0.378-0.482,0.286-0.767,0.292
		c-0.632,0.009-1.265,0.009-1.896,0.001c-0.496-0.008-1.072,0.113-1.474-0.093c-0.504-0.258-0.188-0.903-0.239-1.376
		c-0.042-0.377-0.21-0.532-0.57-0.524c-0.265,0.005-0.532-0.001-0.798-0.001c-9.843,0-19.689,0-29.532,0
		C79.502,36.106,79.498,36.052,79.519,35.995z"/>
	<path fill="#1FAEA4" d="M117.379,130.725c0.599,0.511,1.304,0.172,1.958,0.239c0.51,0.052,1.046-0.051,1.457,0.371
		c-1.474,0.797-2.928,1.631-4.57,2.052c0.153-0.331,0.203-0.614-0.249-0.756c-0.282-0.089-0.553-0.208-0.823-0.322
		c-0.283-0.12-0.411-0.312-0.272-0.622c0.133-0.298,0.372-0.418,0.63-0.241C116.507,132.137,117.066,131.768,117.379,130.725z"/>
	<path fill="#2CB2A8" d="M121.398,130.966c-0.073-0.065-0.143-0.134-0.216-0.2c0.085-0.717,0.796-0.888,1.186-1.34
		c0.208-0.243,0.501-0.415,0.763-0.611c0.508-0.385,0.78-0.779,0.231-1.347c-0.112-0.119-0.11-0.3-0.031-0.462
		c1.029-0.253,2.059-0.52,3.051,0.125C124.908,128.655,123.286,129.982,121.398,130.966z"/>
	<path fill="#BC202F" d="M11.215,118.013c0.493-0.418,1.076-0.149,1.613-0.193c0.237-0.02,0.326,0.144,0.278,0.396
		c-0.205,1.081-0.021,2.175-0.109,3.257C12.247,120.397,11.688,119.226,11.215,118.013z"/>
	<path fill="#BBECF0" d="M79.496,107.631c0.301,0.788,0.294,1.581,0.006,2.371C79.5,109.212,79.498,108.42,79.496,107.631z"/>
	<path fill="#AB505A" d="M9.056,107.628c0.352,0.804,0.1,1.642,0.15,2.464C8.894,109.287,9.05,108.453,9.056,107.628z"/>
	<path fill="#B9D2D0" d="M104.456,134.941c0.786-0.272,1.572-0.29,2.357,0.009C106.028,134.945,105.242,134.941,104.456,134.941z"/>
	<path fill="#E7CFA1" d="M9.042,37.567c0.304,0.713,0.254,1.434,0.037,2.156C9.067,39.005,9.056,38.287,9.042,37.567z"/>
	<path fill="#F55008" d="M79.666,38.983l-0.061-0.013c0,0-0.063,0.013-0.063,0.014c-0.006-0.606-0.013-1.212-0.021-1.819
		c0.34,0.497,0.07,1.068,0.188,1.591C79.695,38.833,79.679,38.907,79.666,38.983z"/>
	<path fill="#104754" d="M64.678,107.216c-0.324-0.517-0.114-1.079-0.14-1.621C64.762,106.119,64.686,106.67,64.678,107.216z"/>
	<path fill="#BAEBEE" d="M79.496,104.235c0.288,0.395,0.288,0.786,0,1.181C79.496,105.021,79.496,104.63,79.496,104.235z"/>
	<path fill="#CAA79A" d="M79.711,40.367c0.298,0.303,0.136,0.678,0.16,1.023C79.585,41.086,79.693,40.72,79.711,40.367z"/>
	<path fill="#FEDD17" d="M123.331,127.006c0.064,0.528,0.909,0.765,0.734,1.162c-0.214,0.487-0.817,0.805-1.257,1.189
		c-0.539,0.471-1.084,0.938-1.626,1.408c-1.088-0.845-1.708-2.111-2.73-3.02c-0.079-0.091-0.156-0.183-0.235-0.274
		c-0.401-0.398-1.008-0.628-1.054-1.312c-0.45-0.535-0.902-1.072-1.354-1.608c-0.586-0.843-1.244-1.627-1.957-2.364
		c-0.744-0.918-1.469-1.857-2.242-2.748c-0.373-0.425-0.329-0.674,0.102-1.01c0.855-0.669,1.669-1.388,2.5-2.088
		c1.001,0.678,1.544,1.769,2.365,2.607c0.343,0.352,0.657,0.729,0.987,1.098c0.651,0.403,1.142,0.938,1.367,1.686
		c0.08,0.093,0.16,0.185,0.24,0.279c0.545,0.248,0.891,0.66,1.04,1.242c0.532,0.641,1.063,1.281,1.592,1.921
		C122.262,125.828,122.748,126.459,123.331,127.006z"/>
	<path fill="#BCBFC1" d="M101.885,106.419c-1.626,0-3.25-0.008-4.877,0.004c-0.444,0.002-0.775-0.042-0.765-0.628
		c0.012-0.53,0.314-0.569,0.719-0.569c3.318,0.006,6.637,0.006,9.953,0c0.408,0,0.704,0.045,0.716,0.573
		c0.011,0.587-0.328,0.622-0.77,0.62C105.204,106.412,103.544,106.419,101.885,106.419z"/>
	<path fill="#BCBFC1" d="M89.435,113.407c-1.596,0-3.192-0.003-4.787,0.003c-0.425,0.001-0.796,0.001-0.79-0.603
		c0.003-0.609,0.384-0.59,0.804-0.59c3.222,0.003,6.447,0.003,9.671,0c0.393,0,0.723,0.008,0.738,0.552
		c0.02,0.574-0.292,0.644-0.749,0.642C92.692,113.399,91.064,113.407,89.435,113.407z"/>
	<path fill="#BCBFC2" d="M89.465,115.607c-1.297,0-2.593,0-3.891,0c-0.346,0.001-0.685,0.012-0.693-0.482
		c-0.005-0.447,0.18-0.698,0.642-0.698c2.627-0.002,5.254-0.002,7.881-0.001c0.46,0.001,0.649,0.251,0.642,0.694
		c-0.007,0.493-0.341,0.488-0.688,0.488C92.059,115.607,90.763,115.607,89.465,115.607z"/>
	<path fill="#BBBFC1" d="M99.982,102.241c1.262,0,2.524,0.008,3.786-0.004c0.432-0.004,0.688,0.102,0.687,0.606
		c0,0.52-0.283,0.589-0.702,0.587c-2.522-0.007-5.046-0.005-7.57-0.001c-0.389,0-0.72-0.006-0.732-0.551
		c-0.017-0.574,0.291-0.648,0.749-0.644C97.458,102.25,98.718,102.239,99.982,102.241z"/>
	<path fill="#030303" d="M110.68,118.25c-0.135-1.312-0.249-2.445-0.376-3.686c1.214,0.377,2.314,0.718,3.521,1.093
		C112.758,116.535,111.773,117.346,110.68,118.25z"/>
	<path fill="#EA098F" d="M101.675,110.606c0.616,0.106,1.094,0.394,1.134,1.128c0.011,0.199,0.06,0.418,0.002,0.597
		c-0.237,0.697,1.416,0.58,0.648,1.27c-0.539,0.481-0.633,0.914-0.664,1.519c-0.026,0.542-0.411,0.824-0.918,0.883
		c-0.255,0.029-0.666,0.248-0.751-0.175c-0.075-0.376,0.337-0.324,0.573-0.366c0.41-0.074,0.558-0.32,0.531-0.707
		c-0.026-0.442,0.011-0.86,0.343-1.205c0.107-0.111,0.22-0.228,0.007-0.388c-0.356-0.272-0.37-0.682-0.347-1.088
		c0.026-0.501-0.152-0.833-0.699-0.896c-0.232-0.026-0.509-0.103-0.416-0.421C101.192,110.512,101.453,110.618,101.675,110.606z"/>
	<path fill="#EA098F" d="M99.457,116.044c-0.733-0.064-1.312-0.396-1.155-1.178c0.17-0.85-0.983-1.096-0.776-1.601
		c0.199-0.481,0.854-0.72,0.778-1.488c-0.081-0.827,0.549-1.13,1.3-1.173c0.156-0.01,0.35-0.033,0.379,0.203
		c0.025,0.209-0.125,0.323-0.291,0.336c-0.768,0.059-0.772,0.568-0.875,1.18c-0.113,0.688-0.305,1.265-0.024,2.015
		c0.215,0.566,0.099,1.176,0.945,1.192c0.177,0.004,0.303,0.172,0.228,0.359C99.87,116.135,99.631,116.024,99.457,116.044z"/>
	<path fill="#E90B90" d="M92.737,105.25c-0.508-0.771-1.899-0.416-1.824-1.832c0.862,0.416,1.645,0.77,2.403,1.167
		c0.632,0.335,0.649,0.825,0.038,1.166c-0.608,0.336-1.246,0.619-1.874,0.913c-0.184,0.086-0.426,0.338-0.565-0.026
		c-0.083-0.219-0.029-0.461,0.23-0.59C91.677,105.784,92.204,105.517,92.737,105.25z"/>
	<path fill="#EA098F" d="M88.061,103.387c-0.069,1.389-1.379,1.119-1.898,1.852c0.533,0.268,1.06,0.531,1.584,0.794
		c0.288,0.146,0.382,0.417,0.246,0.669c-0.168,0.303-0.404,0.044-0.593-0.043c-0.602-0.277-1.197-0.566-1.792-0.859
		c-0.269-0.131-0.536-0.252-0.51-0.645c0.021-0.331,0.239-0.442,0.483-0.561C86.354,104.221,87.125,103.845,88.061,103.387z"/>
	<path fill="#EA078F" d="M88.769,108.015c-0.374,0.018-0.345-0.239-0.289-0.468c0.396-1.599,0.806-3.197,1.203-4.796
		c0.075-0.301,0.25-0.493,0.559-0.41c0.399,0.108,0.208,0.422,0.148,0.653c-0.368,1.47-0.745,2.938-1.124,4.408
		C89.196,107.682,89.19,108.021,88.769,108.015z"/>
	<path fill="#452228" d="M29.583,17.215c1.214,0.002,2.26,0.554,3.34,1.007c0.825,0.634,1.589,1.33,2.188,2.191
		c0.296,0.791,0.592,1.583,0.889,2.374c0.07,0.532,0.139,1.064,0.21,1.596c-0.02,1.382-0.042,2.765-0.06,4.145
		c-0.224,0.793-0.317,1.607-0.384,2.427c-0.208,0.713-0.417,1.427-0.627,2.141c-0.372,0.802-1.349,1.146-1.56,2.068
		c-0.377,0.682-0.809,1.344-0.835,2.161c-0.295-0.269-0.158-0.622-0.169-0.938c-0.096-2.813,0.119-5.632-0.195-8.441
		c-0.103-0.924-0.259-1.832-0.6-2.698c-0.748-1.894-2.098-2.79-4.131-2.727c-1.282,0.041-2.574-0.269-3.844,0.11
		c0.674-1.01,1.742-1.606,2.593-2.433C27.439,19.185,28.672,18.372,29.583,17.215z"/>
	<path fill="#A17164" d="M23.695,48.651c-0.346,1.39-2.48,2.548-4.848,2.467c-2.337-0.08-5.163-1.331-5.58-3.726
		C16.585,49.886,20.138,49.29,23.695,48.651z"/>
	<path fill="#C4C8C6" d="M35.563,119.957c-0.01,5.046-4.118,9.218-9.106,9.16c-4.789-0.056-8.936-3.786-8.982-9.181
		c-0.043-5.043,4.003-8.924,9.054-8.92C31.592,111.019,35.572,114.958,35.563,119.957z"/>
	<path fill="#1C74BA" d="M43.933,101.024c0.052-1.366,0.052-1.366,1.415-1.366c1.025,0,2.052,0.043,3.075-0.015
		c0.742-0.039,1.034,0.206,0.949,0.954c-0.054,0.456-0.02,0.926-0.026,1.388c-1.791-0.001-3.583-0.003-5.374-0.007
		C43.695,101.673,43.666,101.356,43.933,101.024z"/>
	<path fill="#124B58" d="M43.933,101.024c0.013,0.318,0.025,0.637,0.039,0.954c-0.626,0.011-1.265-0.057-1.876,0.044
		c-1.556,0.258-2.588-0.32-3.15-1.779c1.389-0.4,2.809-0.139,4.216-0.198C43.851,100.016,43.63,100.73,43.933,101.024z"/>
	<path fill="#42BCB4" d="M118.979,116.407c-0.023,0.269,0.112,0.431,0.352,0.528c1.103,0.447,2.21,0.884,3.305,1.352
		c0.409,0.175,0.618,0.04,0.763-0.335c0.199-0.523,0.415-1.037,0.604-1.563c0.118-0.34,0.295-0.261,0.59-0.224
		c0.495,0.063,0.278,0.343,0.217,0.531c-0.189,0.552-0.39,1.104-0.648,1.628c-0.134,0.269-0.23,0.466,0.034,0.685
		c-0.116,0.552-0.585,0.429-0.946,0.459c-0.652,0.06-1.323-0.059-1.948,0.231c-1.167-0.007-2.186-0.429-3.097-1.139
		c0.009-0.586,0.017-1.172,0.021-1.761C118.397,116.518,118.592,116.274,118.979,116.407z"/>
	<path fill="#303131" d="M118.202,118.562c1.001,0.348,1.999,0.695,2.999,1.043c0.856,0.299,0.585,0.722,0.126,1.166
		c-0.22,0.762-0.665,0.843-1.298,0.448c-0.61-0.379-0.997-0.22-1.094,0.516c-0.494-0.533-1.002-1.053-1.369-1.688
		C117.776,119.55,117.99,119.055,118.202,118.562z"/>
	<path fill="#4CC0B8" d="M118.979,116.407c-0.252,0.131-0.5,0.261-0.755,0.392c0-1.129,0-2.259,0-3.389c0.659,0,1.32,0,1.981-0.002
		C119.797,114.409,119.388,115.406,118.979,116.407z"/>
	<path fill="#F95805" d="M85.851,29.759c0-0.929,0.018-1.858-0.008-2.785c-0.02-0.821,0.319-1.238,1.169-1.236
		c3.316,0.009,6.633,0,9.948,0.006c0.471,0.001,0.951,0.025,1.091,0.623c-0.002,1.136-0.005,2.272-0.007,3.407
		C93.982,29.77,89.917,29.765,85.851,29.759z"/>
	<path fill="#F95805" d="M81.683,29.769c1.395-0.004,2.789-0.01,4.186-0.014C84.474,30.115,83.078,30.097,81.683,29.769z"/>
	<path fill="#22B0A6" d="M112.793,131.768c-1.296-0.409-2.629-0.099-3.94-0.192c-0.119-0.537-0.554-0.366-0.883-0.369
		c-2.177-0.032-4.35-0.047-6.525-0.065c0.004-0.521,0.008-1.042,0.012-1.56c0.377-0.354,0.854-0.322,1.315-0.323
		c3.178-0.01,6.355-0.011,9.532,0.001c0.456,0.002,0.939-0.051,1.313,0.318C113.426,130.339,113.18,131.078,112.793,131.768z"/>
	<path fill="#28B2A8" d="M113.614,129.577c-4.053,0.001-8.105,0.002-12.158,0.004c-0.044-2.199-0.044-2.199,2.16-2.199
		c3.652,0,7.305,0,10.956,0C114.341,128.149,114.023,128.884,113.614,129.577z"/>
	<path fill="#3FBAB2" d="M121.326,120.769c0.031-0.396,0.505-0.84-0.127-1.164c0.204-0.458,0.615-0.377,1.004-0.414
		c0.661-0.061,1.358,0.205,1.988-0.183c0.16,0.032,0.348,0.021,0.475,0.102c0.884,0.559,1.355,0.284,1.568-0.694
		c0.062-0.281,0.132-0.695,0.654-0.452c0.45,0.212,0.306,0.491,0.193,0.814c-0.41,1.171-0.321,1.324,0.898,1.654
		c-0.185,0.348-0.507,0.366-0.848,0.364C125.2,120.782,123.264,120.778,121.326,120.769z"/>
	<path fill="#49BCB4" d="M121.385,114.802c0.531,0.101,0.838,0.407,0.813,0.942c-0.026,0.589-0.387,0.9-0.97,0.865
		c-0.545-0.033-0.822-0.401-0.821-0.921C120.409,115.068,120.859,114.88,121.385,114.802z"/>
	<path fill="#3FB7AF" d="M129.368,120.995c-0.253-0.295-0.147-0.95-0.826-0.815c0.216-0.555,0.438-1.106,0.644-1.663
		c0.115-0.309,0.223-0.518,0.637-0.352c0.396,0.158,0.361,0.357,0.247,0.69C129.826,119.563,129.328,120.191,129.368,120.995z"/>
	<path fill="#35AD9C" d="M117.164,126.16c0.389,0.408,0.806,0.792,1.053,1.312c-0.249-0.086-0.493-0.189-0.746-0.257
		C116.779,127.027,116.749,126.662,117.164,126.16z"/>
	<path fill="#353D37" d="M120.213,123.254c-0.43-0.345-0.742-0.788-1.041-1.242c0.557,0.068,1.173,0.03,1.363,0.76
		C120.427,122.933,120.319,123.094,120.213,123.254z"/>
	<path fill="#FEFEFE" d="M23.255,119.816c-1.553-0.004-2.277-0.709-2.275-2.218c0.003-1.762,1.813-3.56,3.597-3.577
		c1.286-0.012,2.423,1.124,2.404,2.398C26.954,118.211,25.191,119.818,23.255,119.816z"/>
</g>
</svg>
