<?xml version="1.0" encoding="utf-8"?>
<!-- Generator: Adobe Illustrator 16.0.0, SVG Export Plug-In . SVG Version: 6.00 Build 0)  -->
<!DOCTYPE svg PUBLIC "-//W3C//DTD SVG 1.1//EN" "http://www.w3.org/Graphics/SVG/1.1/DTD/svg11.dtd">
<svg version="1.1" id="Layer_1" xmlns="http://www.w3.org/2000/svg" xmlns:xlink="http://www.w3.org/1999/xlink" x="0px" y="0px"
	 width="131.352px" height="131.352px" viewBox="0 0 131.352 131.352" enable-background="new 0 0 131.352 131.352"
	 xml:space="preserve">
<g id="Layer_1_2_">
	<g id="Layer_1_1_">
		<path fill="#A98422" d="M75.387,92.879L59.07,110.485c-0.747,0.776-1.169,1.837-1.169,2.938c0,1.313,0.628,2.438,1.553,3.208
			h4.915c0.117-0.104,0.264-0.146,0.378-0.265l16.316-17.604L75.387,92.879z"/>
		<path fill="#FE802D" d="M50.386,35.098H40.197V24.909c0-5.626,4.564-10.19,10.189-10.19h30.576c5.626,0,10.188,4.564,10.188,10.19
			v10.188H80.962v-7.693c0-1.377-1.128-2.496-2.496-2.496H52.884c-1.375,0-2.493,1.118-2.493,2.496L50.386,35.098L50.386,35.098z"/>
		<rect x="4.525" y="40.194" fill="#22D689" width="122.304" height="30.575"/>
		<path fill="#999999" d="M89.43,99.551l6.958-7.233l-2.175-2.262c0,0-1.752,1.225-3.175-0.264c-1.559-1.609-1.093-4.01-4.544-6.712
			c-2.043-1.596-4.443-2.124-6.717-2.124c-4.483,0-8.5,2.053-8.5,2.053c7.272,0.757,9.997,3.747,6.995,6.867l-1.758,1.82
			l5.673,5.884l1.715-1.784c0.913-0.938,2.281-1.992,3.289-0.938c1.128,1.159,0.058,2.42,0.058,2.42L89.43,99.551z"/>
		<path fill="#999999" d="M57.52,94.209c-0.951-0.95-1.425-2.259-1.336-3.595c0.193-2.52-0.669-5.111-2.6-7.037
			c-1.741-1.756-4.032-2.616-6.315-2.616c-0.866,0-1.728,0.117-2.565,0.365l5.39,5.387c0.588,2.705-3.322,6.662-6.054,6.061
			l-5.387-5.391c-0.25,0.835-0.374,1.698-0.374,2.563c0,2.289,0.867,4.57,2.613,6.318c1.93,1.93,4.518,2.797,7.044,2.6
			c1.331-0.102,2.645,0.382,3.589,1.337l0.188,0.188l5.986-5.988L57.52,94.209z"/>
		<polygon fill="#FED93E" points="69.756,106.442 58.837,95.528 52.847,101.517 57.771,106.442 		"/>
		<polygon fill="#22D689" points="111.537,80.961 111.537,106.442 81.86,106.442 69.873,106.442 19.813,106.442 19.813,80.961 
			9.617,80.961 9.617,116.633 121.729,116.633 121.729,80.961 		"/>
	</g>
</g>
</svg>
