<?xml version="1.0" encoding="utf-8"?>
<!-- Generator: Adobe Illustrator 16.0.0, SVG Export Plug-In . SVG Version: 6.00 Build 0)  -->
<!DOCTYPE svg PUBLIC "-//W3C//DTD SVG 1.1//EN" "http://www.w3.org/Graphics/SVG/1.1/DTD/svg11.dtd">
<svg version="1.1" id="Layer_1" xmlns="http://www.w3.org/2000/svg" xmlns:xlink="http://www.w3.org/1999/xlink" x="0px" y="0px"
	 width="144px" height="144px" viewBox="0 0 144 144" enable-background="new 0 0 144 144" xml:space="preserve">
<g id="Layer_1_1_">
	<g>
		<path fill="#989898" d="M110.655,71.959c0,13.539,0.013,27.087-0.003,40.629c-0.004,4.502-2.686,8.015-6.908,9.063
			c-0.79,0.196-1.628,0.292-2.44,0.292c-18.849,0.019-37.698,0.023-56.546,0.011c-5.444-0.007-9.31-3.887-9.313-9.369
			c-0.013-25.701-0.01-51.404-0.003-77.104c0-2.008-0.135-4.047,0.15-6.02c0.607-4.21,4.194-7.254,8.481-7.479
			c0.265-0.014,0.527-0.017,0.792-0.017c18.814,0,37.63-0.003,56.447,0.003c4.061,0.001,7.512,2.291,8.789,5.979
			c0.401,1.153,0.54,2.45,0.542,3.68c0.035,13.444,0.025,26.887,0.025,40.332C110.662,71.959,110.657,71.959,110.655,71.959z
			 M40.409,71.875c0,13.445,0,26.888,0.001,40.331c0,3.355,1.549,4.923,4.861,4.923c18.554,0,37.104,0,55.655,0
			c3.086,0,4.758-1.675,4.758-4.76c0.002-26.857-0.021-53.708,0.042-80.563c0.007-2.642-1.51-5.098-5.034-5.063
			c-11.039,0.111-22.078,0.042-33.117,0.042c-7.577,0.001-15.156-0.009-22.736,0.009c-2.75,0.007-4.39,1.69-4.428,4.455
			c-0.005,0.361-0.004,0.724-0.004,1.085C40.409,45.514,40.409,58.694,40.409,71.875z"/>
		<path fill="#CDCCCC" d="M40.409,71.875c0-13.181,0-26.361,0.001-39.541c0-0.363-0.001-0.726,0.004-1.085
			c0.035-2.765,1.677-4.449,4.427-4.455c7.579-0.019,15.158-0.008,22.737-0.009c11.035,0,22.077,0.071,33.114-0.042
			c3.524-0.034,5.043,2.422,5.035,5.063c-0.06,26.854-0.036,53.706-0.039,80.563c0,3.085-1.675,4.76-4.761,4.76
			c-18.55,0-37.102,0-55.652,0c-3.313,0-4.862-1.568-4.862-4.923C40.409,98.764,40.409,85.32,40.409,71.875z M70.816,69.328
			c-0.08,0.013-0.16,0.025-0.241,0.037c-1.482-4.844-2.965-9.685-4.529-14.79c-1.925,0.617-3.863,1.113-5.691,1.873
			c-1.061,0.439-1.621,1.478-1.697,2.71c-0.172,2.827-0.399,5.648-0.551,8.476c-0.021,0.389,0.18,0.909,0.46,1.174
			c7.848,7.437,20.921,7.448,28.752,0.016c0.321-0.306,0.553-0.899,0.53-1.346c-0.138-2.893-0.358-5.784-0.557-8.675
			c-0.077-1.085-0.687-1.966-1.589-2.348c-1.766-0.742-3.628-1.25-5.557-1.893c-1.577,5.116-3.073,9.971-4.569,14.827
			c-0.212-0.194-0.264-0.351-0.275-0.509c-0.093-1.546-0.299-3.096-0.246-4.633c0.06-1.813-0.299-3.384-1.717-4.607
			c-0.033-0.031-0.02-0.123-0.02-0.149c0.356-0.372,0.695-0.726,1.038-1.082c1.174-1.227,0.813-2.707-0.824-3.233
			c-1.041-0.335-1.533,0.512-2.102,1.127c-0.524,0.568-0.417,1.122,0.083,1.657c0.484,0.517,0.954,1.048,1.514,1.666
			c-1.851,1.19-1.983,2.951-1.968,4.832C71.078,66.079,70.906,67.703,70.816,69.328z M73.053,86.323c3.524,0,7.051,0.002,10.574,0
			c3.522,0,7.049,0.015,10.571-0.017c1.871-0.021,2.866-1.533,2.111-3.163c-0.463-0.998-1.33-1.254-2.363-1.254
			c-9.879,0.014-19.763,0.006-29.645,0.006c-4.115,0-8.232-0.01-12.35,0.008c-1.73,0.006-2.762,1.395-2.276,2.985
			c0.308,0.995,1.061,1.432,2.527,1.435C59.154,86.325,66.103,86.323,73.053,86.323z M72.952,96.645c1.15,0,2.305,0,3.458,0
			c5.893,0,11.791,0.006,17.686-0.005c1.35,0,2.153-0.607,2.383-1.754c0.33-1.628-0.688-2.661-2.634-2.661
			c-11.856,0-23.711,0-35.57,0c-2.141,0-4.281-0.005-6.423,0.022c-1.32,0.02-2.079,0.638-2.254,1.755
			c-0.239,1.535,0.744,2.636,2.405,2.638C58.983,96.65,65.966,96.645,72.952,96.645z M73.012,106.75c1.94,0,3.887,0.002,5.83,0
			c5.136,0,10.275,0.002,15.414-0.004c1.243-0.001,2.024-0.596,2.231-1.655c0.292-1.492-0.656-2.692-2.202-2.697
			c-4.642-0.02-9.287-0.014-13.93-0.014c-9.42-0.002-18.838-0.006-28.257,0.016c-0.536,0-1.131,0.112-1.591,0.37
			c-0.815,0.453-1.123,1.575-0.836,2.53c0.287,0.951,1.025,1.452,2.197,1.452C58.915,106.755,65.961,106.75,73.012,106.75z
			 M79.763,42.123c0-0.296,0.016-0.594-0.002-0.888c-0.198-3.397-2.76-6.015-6.107-6.25c-4.038-0.283-7.001,1.679-7.623,5.267
			c-0.647,3.717,0.375,7.074,2.914,9.855c2.416,2.643,5.483,2.555,7.872-0.133C78.794,47.746,79.704,45.083,79.763,42.123z"/>
		<path fill="#11163E" d="M70.816,69.328c0.088-1.622,0.262-3.249,0.246-4.872c-0.016-1.88,0.117-3.643,1.968-4.832
			c-0.56-0.617-1.032-1.148-1.514-1.666c-0.501-0.536-0.608-1.088-0.083-1.658c0.569-0.614,1.061-1.462,2.102-1.128
			c1.637,0.526,1.996,2.009,0.824,3.234c-0.343,0.356-0.682,0.708-1.038,1.08c0,0.027-0.016,0.119,0.02,0.149
			c1.418,1.221,1.776,2.792,1.717,4.607c-0.053,1.54,0.153,3.088,0.246,4.634c0.012,0.157,0.063,0.313,0.275,0.508
			c1.493-4.855,2.991-9.71,4.569-14.826c1.928,0.643,3.791,1.151,5.557,1.893c0.902,0.383,1.512,1.263,1.589,2.348
			c0.198,2.892,0.419,5.782,0.557,8.673c0.022,0.447-0.209,1.042-0.53,1.348c-7.829,7.431-20.905,7.421-28.752-0.017
			c-0.283-0.266-0.481-0.784-0.46-1.175c0.15-2.826,0.379-5.649,0.551-8.476c0.076-1.231,0.636-2.272,1.697-2.709
			c1.828-0.759,3.767-1.255,5.691-1.873c1.564,5.104,3.048,9.945,4.529,14.79C70.657,69.352,70.736,69.341,70.816,69.328z"/>
		<path fill="#11163E" d="M73.053,86.323c-6.949,0-13.898,0.002-20.851,0c-1.466-0.003-2.22-0.439-2.527-1.435
			c-0.487-1.591,0.546-2.98,2.276-2.986c4.117-0.021,8.235-0.008,12.35-0.008c9.881,0,19.762,0.008,29.643-0.006
			c1.036,0,1.903,0.254,2.365,1.253c0.756,1.63-0.239,3.145-2.112,3.161c-3.523,0.03-7.049,0.018-10.572,0.018
			C80.101,86.325,76.575,86.323,73.053,86.323z"/>
		<path fill="#11163E" d="M72.952,96.645c-6.986,0-13.966,0.006-20.95-0.005c-1.658-0.002-2.644-1.103-2.401-2.638
			c0.173-1.121,0.932-1.737,2.254-1.755c2.14-0.027,4.282-0.022,6.422-0.022c11.857,0,23.712,0,35.571,0
			c1.944,0,2.96,1.033,2.634,2.661c-0.23,1.145-1.033,1.754-2.384,1.754c-5.896,0.011-11.792,0.005-17.686,0.005
			C75.259,96.645,74.102,96.645,72.952,96.645z"/>
		<path fill="#11163E" d="M73.012,106.75c-7.048,0-14.096,0.005-21.145,0c-1.173,0-1.912-0.503-2.197-1.454
			c-0.287-0.955,0.022-2.075,0.835-2.529c0.46-0.258,1.056-0.369,1.592-0.369c9.42-0.023,18.838-0.02,28.258-0.018
			c4.642,0,9.286-0.006,13.929,0.014c1.544,0.007,2.495,1.201,2.203,2.697c-0.207,1.063-0.988,1.654-2.233,1.657
			c-5.139,0.005-10.278,0.003-15.414,0.003C76.896,106.752,74.95,106.75,73.012,106.75z"/>
		<path fill="#F2CEA5" d="M79.763,42.123c-0.059,2.96-0.969,5.624-2.946,7.851c-2.389,2.688-5.458,2.776-7.873,0.133
			c-2.538-2.781-3.561-6.137-2.914-9.855c0.621-3.588,3.586-5.55,7.624-5.267c3.348,0.236,5.909,2.853,6.104,6.25
			C79.778,41.531,79.763,41.827,79.763,42.123z"/>
	</g>
</g>
</svg>
