<?xml version="1.0" encoding="utf-8"?>
<!-- Generator: Adobe Illustrator 16.0.0, SVG Export Plug-In . SVG Version: 6.00 Build 0)  -->
<!DOCTYPE svg PUBLIC "-//W3C//DTD SVG 1.1//EN" "http://www.w3.org/Graphics/SVG/1.1/DTD/svg11.dtd">
<svg version="1.1" id="Layer_1" xmlns="http://www.w3.org/2000/svg" xmlns:xlink="http://www.w3.org/1999/xlink" x="0px" y="0px"
	 width="144px" height="144px" viewBox="72 72 144 144" enable-background="new 72 72 144 144" xml:space="preserve">
<path fill="none" d="M149.124,128.792"/>
<g>
	<path fill="none" d="M128.719,96.971c-2.883-0.561-5.305,0.656-6.472,3.286c-0.718,1.62-0.861,3.299-0.487,5.039
		c0.479,2.234,1.735,3.809,3.887,4.583c0.848,0.305,1.763,0.423,2.647,0.626c4.056-0.068,6.314-2.948,6.317-6.489
		C134.613,100.793,131.884,97.589,128.719,96.971z"/>
	<path fill="none" d="M156.925,97.199c-2.58,1.529-3.966,3.852-3.926,6.848c0.038,2.796,1.522,4.962,4.146,5.773
		c4.45,1.377,8.913-1.907,8.989-6.576c-0.107-0.684-0.163-1.382-0.335-2.05C164.619,96.581,159.891,95.442,156.925,97.199z"/>
	<path fill="#A390A7" d="M139.4,130.563c-3.938,11.246-7.886,22.49-11.781,33.752c-0.975,2.819-1.157,5.73-0.367,8.647
		c0.57,2.102,1.7,3.86,3.375,5.375c4.496-12.001,8.969-23.938,13.482-35.985l-4.625-12.38
		C139.502,130.164,139.475,130.352,139.4,130.563z"/>
	<path fill="#A35BB5" d="M168.811,100.881c-0.714-3.231-2.53-5.727-5.681-6.997c-5.168-2.086-11.479,1.452-12.689,7.065
		c-0.476,2.204-0.364,4.44-0.279,6.674c0.101,2.67,0.231,5.342-0.268,7.994c-0.643,3.418-2.35,6.107-5.36,7.924
		c-0.271,0.163-0.47,0.165-0.741,0.007c-2.681-1.551-4.547-3.754-5.462-6.738c-0.864-2.816-0.844-5.706-0.686-8.6
		c0.148-2.734-0.077-5.409-1.047-7.993c-1.75-4.663-5.765-7.129-10.512-6.319c-3.09,0.527-5.478,2.128-6.703,5.127
		c-0.854,2.089-1.122,4.27-0.702,6.513c0.44,2.354,1.405,4.445,3.261,6.002c2.641,2.217,5.609,2.559,8.795,1.318
		c0.73-0.285,1.46-0.588,2.215-0.792c0.777-0.209,1.395,0.15,1.634,0.911c0.202,0.643,0.357,1.306,0.467,1.972
		c0.829,5.042,2.214,9.916,4.317,14.577c0.071,0.158,0.106,0.302,0.117,0.447l4.625,12.38c4.671,11.917,9.299,23.724,13.946,35.574
		c0.117-0.083,0.18-0.121,0.233-0.167c0.11-0.097,0.219-0.194,0.323-0.297c2.048-2.021,2.953-4.536,3.135-7.348
		c0.182-2.806-0.378-5.488-1.371-8.105c-3.95-10.426-7.89-20.855-11.82-31.289l-4.446-7.061l4.446,7.061
		c-0.085-0.227-0.121-0.558-0.019-0.755c2.11-4.001,3.164-8.319,3.884-12.744c0.235-1.44,0.496-2.885,0.878-4.292
		c0.343-1.267,1.156-1.525,2.323-0.901c0.096,0.052,0.188,0.113,0.283,0.168c2.981,1.743,7.054,1.417,9.647-0.868
		C168.739,108.523,169.707,104.938,168.811,100.881z M128.293,110.505c-0.884-0.203-1.799-0.32-2.647-0.626
		c-2.152-0.774-3.408-2.349-3.887-4.583c-0.375-1.74-0.231-3.419,0.487-5.039c1.167-2.63,3.588-3.847,6.472-3.286
		c3.166,0.618,5.895,3.822,5.892,7.045C134.608,107.557,132.349,110.437,128.293,110.505z M157.146,109.82
		c-2.623-0.811-4.107-2.977-4.146-5.773c-0.04-2.996,1.347-5.319,3.926-6.848c2.966-1.757,7.694-0.618,8.876,3.995
		c0.172,0.667,0.227,1.366,0.335,2.05C166.059,107.914,161.596,111.197,157.146,109.82z"/>
</g>
<g>
	<path fill="#506270" d="M91.268,186.594c-0.07-0.42-0.167-0.745-0.171-1.073c-0.046-3.415-1.31-6.463-2.877-9.406
		c-0.437-0.82-0.438-1.464,0.286-2.098c1-0.879,1.097-1.757,0.69-3.157c-0.386-1.323,0.125-2.953,0.436-4.407
		c0.093-0.427,0.803-0.814,1.31-1.045c1.442-0.656,2.925-1.224,4.467-1.856c-0.229-0.646-0.358-1.229-0.628-1.737
		c-1.323-2.498-1.286-5.162-0.957-7.845c0.054-0.437,0.495-0.833,0.784-1.228c0.092-0.128,0.361-0.166,0.395-0.288
		c0.434-1.569,1.861-1.292,2.961-1.607c1.084-0.311,2.184-0.57,3.266-0.889c0.267-0.079,0.644-0.245,0.714-0.457
		c0.462-1.39,1.661-1.309,2.754-1.481c3.318-0.524,6.648-0.987,9.945-1.623c1.822-0.353,3.379,0.057,4.83,1.055
		c0.884,0.608,1.707,0.971,2.873,0.836c1.913-0.222,3.861-0.146,5.793-0.194c1.089-0.027,1.772,0.462,2.204,1.488
		c0.169,0.402,0.698,0.677,1.108,0.942c0.192,0.124,0.49,0.119,0.739,0.114c4.381-0.086,7.063,2.888,9.88,5.558
		c0.464,0.442,0.615,1.251,0.827,1.917c0.495,1.55,0.717,3.232,1.454,4.651c1.127,2.174,1.762,4.344,1.79,6.82
		c0.019,1.723-0.447,2.938-1.553,4.253c-2.044,2.431-4.434,4.283-7.253,5.697c-2.287,1.146-4.546,2.374-6.711,3.735
		c-2.542,1.599-5.255,2.473-8.224,2.857c-4.288,0.555-8.538,1.406-12.825,1.953c-1.597,0.203-3.262-0.026-4.886-0.174
		C100.254,187.504,95.826,187.043,91.268,186.594z M110.416,177.053c-3.495-3.997-6.944-7.945-10.396-11.892
		c-0.332-0.38-0.61-0.848-1.019-1.104c-0.311-0.194-0.847-0.264-1.189-0.135c-2.16,0.808-4.297,1.678-6.432,2.551
		c-0.291,0.118-0.741,0.347-0.757,0.554c-0.11,1.429-0.813,2.83-0.075,4.304c1.164,2.325,2.285,4.673,3.335,7.052
		c0.35,0.792,0.786,0.994,1.612,0.988c3.753-0.026,7.559-0.597,11.189,0.948c0.25,0.107,0.76-0.038,0.966-0.247
		C108.588,179.123,109.461,178.107,110.416,177.053z M142.636,163.146c-0.055-7.382-6.135-11.396-11.285-10.936
		c0.249,1.734,0.498,3.466,0.76,5.289c-3.895,0.676-7.68,1.333-11.552,2.005c0.106,0.238,0.143,0.404,0.239,0.522
		c1.822,2.257,3.629,4.527,5.506,6.737c0.239,0.282,0.888,0.412,1.287,0.326c1.518-0.321,3.01-0.759,4.512-1.155
		C135.623,165.002,139.143,164.07,142.636,163.146z M106.901,160.344c2.124,2.589,4.131,5.054,6.174,7.489
		c0.162,0.194,0.603,0.338,0.834,0.262c2.859-0.947,5.703-1.94,8.68-2.965c-1.275-1.895-2.475-3.705-3.711-5.489
		c-0.176-0.252-0.52-0.41-0.813-0.557c-1.312-0.656-2.618-1.326-3.961-1.913c-0.36-0.157-0.919-0.192-1.253-0.022
		C110.911,158.136,109.01,159.2,106.901,160.344z M113.5,152.006c2.259,1.488,4.314,2.854,6.389,4.194
		c0.224,0.144,0.561,0.225,0.821,0.184c3.264-0.51,6.524-1.049,9.876-1.596c-0.566-1.909-1.096-3.693-1.571-5.296
		C123.527,148.665,118.624,150.266,113.5,152.006z M119.228,149.237c-1.434-1.17-2.731-2.314-4.877-1.647
		c-1.706,0.53-3.541,0.646-5.318,0.942c-2.044,0.342-4.088,0.681-6.241,1.038c1.058,2.188,2.035,4.21,3.035,6.276
		c2.549-1.505,4.979-2.91,7.378-4.367c1.789-1.088,3.51-2.314,5.774-2.045C119.033,149.44,119.1,149.342,119.228,149.237z
		 M95.82,152.474c0.928,1.703,1.767,3.275,2.651,4.822c0.119,0.209,0.449,0.359,0.707,0.415c1.39,0.298,2.784,0.719,4.186,0.752
		c0.561,0.012,1.2-0.809,1.682-1.357c0.171-0.193,0.105-0.785-0.068-1.06c-0.894-1.414-1.838-2.798-2.814-4.157
		c-0.176-0.243-0.613-0.488-0.884-0.444C99.52,151.73,97.772,152.096,95.82,152.474z"/>
	<path fill="#57768D" d="M110.416,177.053c-0.955,1.055-1.827,2.07-2.766,3.02c-0.207,0.209-0.716,0.354-0.967,0.247
		c-3.63-1.545-7.436-0.975-11.188-0.948c-0.827,0.006-1.262-0.196-1.612-0.988c-1.05-2.379-2.171-4.727-3.335-7.052
		c-0.738-1.474-0.036-2.875,0.075-4.305c0.016-0.206,0.467-0.435,0.757-0.553c2.135-0.873,4.272-1.743,6.432-2.552
		c0.342-0.128,0.877-0.059,1.189,0.136c0.41,0.256,0.688,0.724,1.02,1.103C103.47,169.107,106.92,173.056,110.416,177.053z"/>
	<path fill="#57768D" d="M142.636,163.146c-3.493,0.925-7.013,1.856-10.534,2.789c-1.501,0.396-2.994,0.834-4.512,1.155
		c-0.398,0.085-1.047-0.044-1.287-0.326c-1.876-2.21-3.684-4.48-5.506-6.737c-0.096-0.118-0.132-0.284-0.239-0.522
		c3.872-0.672,7.658-1.329,11.552-2.005c-0.262-1.822-0.511-3.555-0.76-5.289C136.501,151.749,142.58,155.764,142.636,163.146z"/>
	<path fill="#749DBD" d="M106.901,160.344c2.108-1.144,4.009-2.208,5.949-3.195c0.334-0.17,0.892-0.135,1.252,0.022
		c1.343,0.587,2.649,1.257,3.961,1.913c0.294,0.146,0.638,0.304,0.813,0.557c1.237,1.784,2.437,3.595,3.711,5.489
		c-2.977,1.024-5.821,2.018-8.68,2.965c-0.23,0.076-0.672-0.067-0.834-0.262C111.033,165.397,109.025,162.933,106.901,160.344z"/>
	<path fill="#ABC4D7" d="M113.5,152.006c5.125-1.74,10.028-3.341,15.516-2.514c0.475,1.603,1.005,3.388,1.571,5.297
		c-3.353,0.546-6.612,1.085-9.876,1.595c-0.26,0.042-0.598-0.04-0.821-0.184C117.814,154.86,115.758,153.494,113.5,152.006z"/>
	<path fill="#C7D8E4" d="M119.228,149.237c-0.128,0.104-0.195,0.203-0.249,0.197c-2.264-0.27-3.985,0.957-5.774,2.045
		c-2.399,1.459-4.83,2.863-7.378,4.368c-1-2.067-1.977-4.089-3.035-6.276c2.152-0.358,4.196-0.697,6.241-1.039
		c1.778-0.297,3.612-0.412,5.318-0.942C116.497,146.923,117.793,148.067,119.228,149.237z"/>
	<path fill="#749DBD" d="M95.82,152.474c1.951-0.378,3.699-0.743,5.459-1.029c0.271-0.044,0.708,0.201,0.884,0.444
		c0.976,1.359,1.92,2.743,2.814,4.157c0.173,0.274,0.239,0.866,0.068,1.06c-0.482,0.549-1.121,1.37-1.682,1.357
		c-1.401-0.033-2.795-0.454-4.186-0.752c-0.258-0.056-0.588-0.206-0.707-0.415C97.587,155.749,96.749,154.177,95.82,152.474z"/>
</g>
<path fill="#0F5963" stroke="#DBDBDB" stroke-width="0.25" stroke-miterlimit="10" d="M194.765,167.512
	c-0.017,0.154-0.034,0.193-0.021,0.216c0.882,1.684,0.727,3.378,0.021,5.058c-0.252,0.599-0.128,0.996,0.366,1.396
	c0.708,0.574,1.343,1.237,2.047,1.816c0.511,0.42,0.625,0.87,0.266,1.407c-1.188,1.778-1.182,3.622-0.395,5.549
	c0.254,0.62,0.357,1.3,0.54,1.95c0.185,0.657,0.007,1.083-0.73,1.105c-4.971,0.144-9.729,1.497-14.542,2.535
	c-0.367,0.079-0.812,0.038-1.165-0.095c-2.149-0.804-4.318-1.574-6.407-2.517c-1.059-0.476-1.964-1.291-3.05-2.028
	c-0.903,1.138-1.849,2.271-2.721,3.459c-0.477,0.649-0.954,0.701-1.727,0.556c-1.962-0.366-3.471-1.305-4.665-2.899
	c-0.786-1.05-1.742-1.975-2.639-2.94c-0.621-0.669-1.117-1.29-1.165-2.345c-0.034-0.74-0.847-1.416-1.189-2.175
	c-0.723-1.598-1.966-2.186-3.653-2.337c-2-0.178-3.077-1.609-2.951-3.654c0.298-4.857,0.671-9.705,2.228-14.365
	c0.141-0.422,0.363-0.953,0.71-1.149c3.937-2.245,6.621-5.828,9.666-9.016c1.377-1.441,2.835-2.632,4.741-3.317
	c1.936-0.696,3.808-1.567,5.696-2.382c0.657-0.284,1.022-0.057,1.568,0.4c1.485,1.246,3.026,2.476,4.704,3.431
	c2.65,1.511,5.612,2.261,8.541,3.086c1.995,0.563,3.929,0.879,5.921,0.162c0.694-0.25,1.044,0.016,1.326,0.655
	c1.244,2.844,2.547,5.665,3.776,8.516c0.2,0.465,0.268,1.063,0.182,1.563c-0.342,1.995-0.736,3.984-1.19,5.957
	c-0.088,0.38-0.47,0.808-0.829,0.989C196.976,166.627,195.868,167.043,194.765,167.512z M189.102,158.439
	c1.59,2.692,3.18,5.384,4.795,8.122c0.579-0.255,1.064-0.468,1.634-0.717c-1.215-1.752-2.425-3.41-3.537-5.133
	c-0.71-1.1-1.692-1.788-2.829-2.33c-2.549-1.745-5.099-3.489-7.828-5.357c0,0.523-0.006,0.876,0.002,1.229
	c0.013,0.606,0.057,1.214,0.037,1.82c-0.006,0.131-0.21,0.302-0.359,0.362c-0.074,0.029-0.335-0.153-0.337-0.244
	c-0.021-1.426-0.016-2.849-0.016-4.42c0.406,0.188,0.628,0.254,0.812,0.379c3.273,2.214,6.549,4.427,9.805,6.666
	c0.375,0.258,0.687,0.642,0.954,1.019c1.343,1.895,2.66,3.806,3.949,5.654c1.171-0.146,1.633-0.732,1.768-1.8
	c0.182-1.438,0.6-2.843,0.815-4.278c0.085-0.563,0.031-1.224-0.188-1.745c-1.021-2.427-2.146-4.809-3.177-7.229
	c-0.307-0.717-0.67-0.829-1.397-0.647c-0.864,0.217-1.843,0.494-2.658,0.294c-3.93-0.968-7.902-1.831-11.521-3.76
	c-0.107-0.059-0.243-0.067-0.446-0.118c-0.544,1.451-1.058,2.875-1.622,4.277c-0.096,0.238-0.407,0.39-0.618,0.58
	c-0.02-0.268-0.125-0.565-0.043-0.798c0.442-1.275,0.947-2.529,1.394-3.803c0.088-0.248,0.128-0.695-0.008-0.808
	c-0.602-0.491-1.275-0.894-2.089-1.441c0,1.736,0.046,3.188-0.015,4.636c-0.059,1.409,0.218,2.72,0.695,4.047
	c1.303,3.618,2.496,7.274,3.764,10.905c0.274,0.786,0.262,1.407-0.678,1.83c0.4,0.11,0.656,0.223,0.921,0.247
	c4.268,0.395,7.738,2.309,10.562,5.484c0.246,0.276,0.547,0.503,0.83,0.745c0.295,0.252,0.598,0.493,0.922,0.76
	c0.972-2.382,0.822-4.441-0.436-6.527c-1.532-2.539-3.075-5.069-4.691-7.731C188.621,158.537,188.861,158.487,189.102,158.439z
	 M196.31,184.841c-0.384-1.454-0.686-2.77-1.094-4.049c-0.15-0.472-0.464-0.979-0.853-1.269c-2.575-1.92-5.196-3.776-7.783-5.682
	c-0.255-0.189-0.374-0.565-0.557-0.856c0.337,0.104,0.729,0.131,1.003,0.324c2.509,1.78,4.997,3.591,7.493,5.389
	c0.237,0.172,0.492,0.32,0.793,0.513c0.286-0.638,0.601-1.171,0.753-1.748c0.08-0.302-0.011-0.8-0.223-1.005
	c-2.025-1.974-4.151-3.847-6.134-5.86c-1.91-1.939-4.052-3.292-6.817-3.566c-0.8-0.079-1.591-0.315-2.365-0.546
	c-0.35-0.104-0.648-0.373-1.121-0.657c-0.449,0.348-1.057,0.723-1.547,1.214c-2.418,2.414-4.762,4.901-7.221,7.271
	c-0.96,0.925-1.597,1.751-0.876,3.096c0.101,0.189-0.107,0.544-0.172,0.821c-0.105-0.019-0.213-0.036-0.318-0.054
	c-0.146-0.48-0.24-0.985-0.451-1.438c-0.431-0.919-0.12-1.524,0.574-2.198c2.132-2.075,4.179-4.237,6.276-6.348
	c1.234-1.239,2.355-2.615,4.061-3.297c0.216-0.087,0.444-0.594,0.385-0.835c-0.278-1.111-0.616-2.213-1.007-3.29
	c-1.928-5.32-4.21-10.551-3.434-16.453c0.165-1.259-1.038-1.958-2.198-1.467c-1.183,0.5-2.33,1.104-3.545,1.499
	c-2.59,0.841-4.665,2.356-6.352,4.465c-0.464,0.578-1.016,1.087-1.516,1.636c-2.124,2.336-4.604,4.406-5.701,7.515
	c-0.149,0.424-0.237,0.907-0.197,1.35c0.137,1.479,0.362,2.951,0.505,4.432c0.025,0.25-0.187,0.522-0.29,0.784
	c-0.112-0.038-0.226-0.077-0.339-0.114c-0.102-2.843-1.555-5.752,0.493-8.491c0.007-0.009-0.032-0.051-0.205-0.311
	c-0.698,0.728-1.653,1.309-1.965,2.137c-0.662,1.757-0.999,3.64-1.443,5.479c-0.076,0.316-0.12,0.691-0.026,0.991
	c0.823,2.671,1.238,5.486,2.712,7.931c0.935,1.55,2.04,3.009,2.841,4.622c0.925,1.86,2.241,2.319,4.267,2.292
	c4.698-0.063,9.401,0.216,13.738-2.112c0.61-0.326,0.998-0.16,1.132,0.592c0.17,0.962,0.514,1.9,0.624,2.866
	c0.135,1.177,0.698,1.429,1.808,1.355c1.737-0.114,3.488-0.03,5.232-0.03c-0.226,0.329-0.561,0.555-0.906,0.572
	c-1.654,0.083-3.324,0-4.963,0.194c-1.171,0.139-1.552-0.27-1.724-1.332c-0.19-1.179-0.541-2.329-0.838-3.559
	c-0.635,0.227-1.159,0.364-1.641,0.593c-2.716,1.292-5.563,1.718-8.56,1.54c-2.15-0.127-4.313-0.023-6.742-0.023
	c0.274,0.511,0.394,0.882,0.63,1.15c1.139,1.297,2.36,2.521,3.447,3.856c0.785,0.967,1.714,1.538,2.914,1.836
	c0.715,0.177,1.149,0.127,1.604-0.507c1.485-2.066,3.034-4.087,4.608-6.191c0.024,0.104,0.186,0.384,0.116,0.586
	c-0.182,0.541-0.43,1.065-0.714,1.563c-0.269,0.473-0.241,0.806,0.249,1.089c1.332,0.772,2.617,1.644,4.001,2.314
	c1.424,0.688,2.932,1.213,4.425,1.748c0.411,0.147,0.921,0.171,1.354,0.089c3.713-0.702,7.416-1.457,11.129-2.159
	C194.462,184.939,195.31,184.933,196.31,184.841z M155.63,174.318c-1.045-2.664-2.03-5.18-3.029-7.727
	c-0.139,1.738-0.298,3.451-0.392,5.169c-0.021,0.405,0.119,0.851,0.288,1.23C153.117,174.371,154.472,173.977,155.63,174.318z"/>
<path fill="#CAE1E8" stroke="#DBDBDB" stroke-width="0.25" stroke-miterlimit="10" d="M196.31,184.841
	c-0.999,0.092-1.848,0.099-2.669,0.256c-3.712,0.7-7.415,1.456-11.128,2.159c-0.433,0.081-0.94,0.058-1.354-0.09
	c-1.492-0.535-3.001-1.059-4.425-1.748c-1.383-0.671-2.668-1.542-4.002-2.314c-0.489-0.283-0.517-0.616-0.247-1.089
	c0.282-0.496,0.53-1.021,0.714-1.563c0.068-0.202-0.094-0.481-0.117-0.585c-1.574,2.104-3.123,4.124-4.608,6.19
	c-0.455,0.634-0.89,0.685-1.605,0.507c-1.199-0.298-2.127-0.868-2.913-1.836c-1.087-1.335-2.31-2.561-3.447-3.856
	c-0.236-0.268-0.355-0.639-0.63-1.15c2.429,0,4.592-0.103,6.742,0.023c2.996,0.178,5.843-0.247,8.561-1.54
	c0.48-0.229,1.004-0.366,1.64-0.593c0.297,1.229,0.647,2.381,0.838,3.559c0.172,1.063,0.552,1.471,1.724,1.332
	c1.639-0.194,3.308-0.111,4.963-0.194c0.346-0.018,0.68-0.242,0.906-0.572c-1.744,0-3.495-0.084-5.231,0.03
	c-1.111,0.074-1.674-0.18-1.809-1.354c-0.111-0.966-0.454-1.905-0.625-2.867c-0.133-0.751-0.521-0.918-1.131-0.591
	c-4.337,2.327-9.04,2.048-13.739,2.111c-2.024,0.025-3.342-0.431-4.267-2.292c-0.801-1.613-1.906-3.073-2.84-4.621
	c-1.474-2.444-1.888-5.26-2.713-7.932c-0.093-0.3-0.049-0.675,0.027-0.991c0.445-1.839,0.782-3.721,1.443-5.479
	c0.312-0.827,1.269-1.409,1.965-2.138c0.173,0.261,0.212,0.303,0.205,0.312c-2.048,2.738-0.595,5.648-0.493,8.491
	c0.113,0.038,0.227,0.076,0.339,0.114c0.104-0.262,0.315-0.535,0.291-0.784c-0.145-1.479-0.369-2.952-0.505-4.432
	c-0.042-0.441,0.046-0.926,0.196-1.35c1.097-3.108,3.576-5.178,5.701-7.515c0.5-0.549,1.052-1.058,1.516-1.635
	c1.687-2.109,3.762-3.624,6.352-4.465c1.215-0.395,2.362-1,3.544-1.499c1.161-0.491,2.363,0.208,2.199,1.466
	c-0.776,5.902,1.506,11.133,3.434,16.453c0.391,1.078,0.729,2.179,1.007,3.29c0.06,0.242-0.169,0.749-0.384,0.835
	c-1.707,0.681-2.828,2.058-4.061,3.297c-2.099,2.111-4.146,4.273-6.277,6.347c-0.695,0.676-1.005,1.281-0.575,2.199
	c0.212,0.452,0.306,0.957,0.452,1.438c0.105,0.018,0.213,0.036,0.318,0.054c0.063-0.277,0.272-0.632,0.172-0.821
	c-0.721-1.346-0.084-2.171,0.876-3.096c2.459-2.369,4.803-4.857,7.22-7.271c0.491-0.491,1.098-0.866,1.548-1.214
	c0.473,0.284,0.771,0.553,1.12,0.657c0.775,0.23,1.566,0.468,2.366,0.546c2.765,0.274,4.906,1.627,6.816,3.565
	c1.983,2.015,4.108,3.889,6.135,5.861c0.212,0.205,0.303,0.703,0.223,1.006c-0.152,0.576-0.468,1.109-0.753,1.747
	c-0.301-0.192-0.556-0.341-0.793-0.512c-2.497-1.799-4.984-3.608-7.494-5.39c-0.272-0.193-0.664-0.22-1.002-0.323
	c0.182,0.29,0.301,0.667,0.558,0.855c2.585,1.905,5.207,3.762,7.782,5.682c0.388,0.289,0.701,0.797,0.853,1.269
	C195.624,182.071,195.926,183.387,196.31,184.841z M160.304,164.955c0.602,0.524,0.729,0.121,0.889-0.344
	c0.656-1.913,1.298-3.833,2.029-5.718c0.168-0.431,0.608-0.886,1.032-1.063c2.338-0.966,4.713-1.837,7.062-2.775
	c0.229-0.093,0.358-0.43,0.536-0.653c-0.259-0.019-0.551-0.124-0.771-0.041c-2.52,0.963-5.033,1.943-7.534,2.954
	c-0.307,0.124-0.661,0.405-0.771,0.697C161.922,160.316,161.12,162.639,160.304,164.955z"/>
<path fill="#CAE1E8" stroke="#DBDBDB" stroke-width="0.25" stroke-miterlimit="10" d="M189.102,158.439
	c-0.24,0.048-0.48,0.098-0.836,0.171c1.615,2.662,3.158,5.192,4.69,7.731c1.258,2.086,1.407,4.146,0.436,6.527
	c-0.323-0.267-0.627-0.508-0.922-0.76c-0.283-0.242-0.585-0.469-0.83-0.745c-2.823-3.176-6.294-5.09-10.562-5.484
	c-0.265-0.024-0.521-0.137-0.921-0.247c0.939-0.423,0.953-1.044,0.678-1.83c-1.268-3.631-2.461-7.287-3.764-10.905
	c-0.478-1.326-0.754-2.638-0.694-4.047c0.061-1.448,0.014-2.9,0.014-4.636c0.813,0.546,1.487,0.95,2.089,1.441
	c0.136,0.112,0.096,0.561,0.009,0.809c-0.447,1.272-0.951,2.526-1.396,3.802c-0.081,0.232,0.024,0.53,0.044,0.798
	c0.211-0.19,0.523-0.342,0.618-0.58c0.564-1.402,1.078-2.826,1.622-4.277c0.202,0.051,0.339,0.061,0.446,0.118
	c3.619,1.929,7.593,2.792,11.521,3.76c0.816,0.2,1.795-0.077,2.658-0.294c0.728-0.182,1.091-0.069,1.396,0.647
	c1.032,2.421,2.157,4.802,3.178,7.229c0.22,0.521,0.273,1.182,0.188,1.745c-0.217,1.436-0.635,2.841-0.815,4.278
	c-0.136,1.069-0.597,1.653-1.77,1.8c-1.288-1.85-2.605-3.76-3.948-5.654c-0.267-0.377-0.578-0.761-0.953-1.019
	c-3.256-2.239-6.532-4.452-9.806-6.666c-0.184-0.125-0.405-0.191-0.812-0.379c0,1.571-0.007,2.996,0.017,4.42
	c0.001,0.091,0.262,0.273,0.336,0.244c0.149-0.061,0.354-0.231,0.359-0.362c0.021-0.606-0.024-1.214-0.037-1.82
	c-0.008-0.353-0.002-0.705-0.002-1.229c2.729,1.868,5.279,3.612,7.829,5.357L189.102,158.439z"/>
<path fill="none" d="M143.983,142.694"/>
<path fill="#98A9AE" stroke="#DBDBDB" stroke-width="0.25" stroke-miterlimit="10" d="M189.164,158.381
	c1.137,0.542,2.119,1.231,2.829,2.331c1.112,1.721,2.322,3.38,3.537,5.133c-0.569,0.249-1.055,0.462-1.634,0.717
	c-1.615-2.738-3.205-5.43-4.795-8.123L189.164,158.381z"/>
<path fill="#CAE1E8" stroke="#DBDBDB" stroke-width="0.25" stroke-miterlimit="10" d="M155.63,174.318
	c-1.159-0.342-2.513,0.053-3.133-1.327c-0.169-0.38-0.31-0.826-0.288-1.23c0.095-1.719,0.253-3.431,0.392-5.169
	C153.6,169.139,154.585,171.654,155.63,174.318z"/>
<path fill="#78939C" stroke="#DBDBDB" stroke-width="0.25" stroke-miterlimit="10" d="M160.304,164.955
	c0.816-2.316,1.618-4.639,2.473-6.942c0.109-0.292,0.464-0.573,0.771-0.697c2.501-1.011,5.015-1.991,7.534-2.954
	c0.22-0.083,0.512,0.022,0.771,0.041c-0.178,0.224-0.307,0.561-0.536,0.653c-2.349,0.938-4.724,1.81-7.062,2.775
	c-0.424,0.176-0.864,0.632-1.032,1.063c-0.731,1.885-1.373,3.805-2.029,5.718C161.032,165.076,160.905,165.479,160.304,164.955z"/>
</svg>
