<?xml version="1.0" encoding="utf-8"?>
<!-- Generator: Adobe Illustrator 16.0.0, SVG Export Plug-In . SVG Version: 6.00 Build 0)  -->
<!DOCTYPE svg PUBLIC "-//W3C//DTD SVG 1.1//EN" "http://www.w3.org/Graphics/SVG/1.1/DTD/svg11.dtd">
<svg version="1.1" id="Layer_1" xmlns="http://www.w3.org/2000/svg" xmlns:xlink="http://www.w3.org/1999/xlink" x="0px" y="0px"
	 width="288px" height="288px" viewBox="0 0 288 288" enable-background="new 0 0 288 288" xml:space="preserve">
<path fill="none" d="M156.364,111.637"/>
<g>
	<path fill="none" d="M107.124,34.849c-6.959-1.354-12.801,1.582-15.619,7.929c-1.733,3.908-2.078,7.961-1.175,12.159
		c1.157,5.393,4.187,9.193,9.38,11.061c2.045,0.735,4.253,1.021,6.387,1.509c9.788-0.163,15.238-7.114,15.245-15.658
		C121.348,44.072,114.762,36.339,107.124,34.849z"/>
	<path fill="none" d="M175.188,35.399c-6.225,3.69-9.572,9.296-9.474,16.524c0.093,6.749,3.675,11.974,10.006,13.933
		c10.741,3.323,21.508-4.602,21.693-15.869c-0.261-1.651-0.394-3.336-0.807-4.948C193.756,33.908,182.346,31.159,175.188,35.399z"/>
	<path fill="#919191" d="M132.9,115.911c-9.502,27.139-19.03,54.271-28.428,81.449c-2.353,6.803-2.792,13.827-0.885,20.866
		c1.375,5.071,4.103,9.316,8.145,12.971c10.85-28.959,21.643-57.766,32.535-86.835l-11.161-29.875
		C133.145,114.946,133.079,115.402,132.9,115.911z"/>
	<path fill="#737373" d="M203.871,44.285c-1.722-7.798-6.107-13.821-13.707-16.886c-12.473-5.034-27.704,3.503-30.624,17.049
		c-1.146,5.318-0.879,10.715-0.674,16.105c0.246,6.444,0.559,12.892-0.645,19.291c-1.55,8.248-5.67,14.737-12.936,19.12
		c-0.652,0.394-1.133,0.397-1.788,0.017c-6.469-3.743-10.972-9.059-13.181-16.258c-2.085-6.796-2.038-13.769-1.655-20.752
		c0.359-6.599-0.186-13.053-2.526-19.289c-4.223-11.252-13.914-17.204-25.368-15.25c-7.458,1.272-13.22,5.137-16.175,12.374
		c-2.06,5.042-2.708,10.304-1.695,15.716c1.062,5.679,3.389,10.728,7.869,14.485c6.374,5.35,13.536,6.175,21.223,3.181
		c1.764-0.688,3.524-1.421,5.347-1.913c1.874-0.505,3.366,0.363,3.944,2.199c0.488,1.552,0.862,3.153,1.126,4.759
		c2.001,12.165,5.343,23.927,10.418,35.175c0.172,0.381,0.254,0.73,0.282,1.078l11.161,29.875
		c11.272,28.756,22.441,57.247,33.651,85.844c0.284-0.2,0.435-0.29,0.564-0.404c0.267-0.23,0.53-0.467,0.782-0.715
		c4.941-4.877,7.125-10.946,7.564-17.73c0.438-6.771-0.913-13.246-3.308-19.56c-9.536-25.158-19.039-50.328-28.525-75.505
		l-10.729-17.038l10.729,17.038c-0.205-0.546-0.293-1.347-0.043-1.823c5.092-9.656,7.632-20.074,9.37-30.752
		c0.567-3.476,1.198-6.962,2.119-10.358c0.829-3.056,2.789-3.682,5.607-2.175c0.231,0.126,0.453,0.273,0.683,0.406
		c7.195,4.206,17.021,3.419,23.28-2.094C203.699,62.725,206.032,54.073,203.871,44.285z M106.097,67.507
		c-2.133-0.488-4.342-0.773-6.387-1.509c-5.193-1.868-8.223-5.668-9.38-11.061c-0.903-4.198-0.558-8.251,1.175-12.159
		c2.818-6.347,8.659-9.283,15.619-7.929c7.638,1.49,14.224,9.223,14.217,17C121.335,60.393,115.885,67.344,106.097,67.507z
		 M175.721,65.856c-6.331-1.958-9.913-7.184-10.006-13.933c-0.099-7.229,3.249-12.834,9.474-16.524
		c7.157-4.241,18.567-1.492,21.419,9.64c0.413,1.612,0.546,3.297,0.807,4.948C197.229,61.254,186.462,69.179,175.721,65.856z"/>
</g>
<g>
	<path fill-rule="evenodd" clip-rule="evenodd" fill="#1E1E1E" d="M16.749,251.12c-0.168-1.014-0.402-1.8-0.413-2.588
		c-0.112-8.244-3.161-15.598-6.945-22.702c-1.054-1.979-1.058-3.53,0.689-5.063c2.413-2.119,2.649-4.238,1.665-7.617
		c-0.93-3.193,0.301-7.126,1.054-10.633c0.222-1.033,1.937-1.967,3.16-2.524c3.479-1.584,7.057-2.951,10.779-4.479
		c-0.553-1.561-0.866-2.966-1.516-4.192c-3.192-6.028-3.104-12.455-2.309-18.932c0.129-1.052,1.195-2.009,1.892-2.962
		c0.223-0.305,0.872-0.398,0.953-0.693c1.047-3.788,4.492-3.119,7.146-3.879c2.617-0.749,5.27-1.378,7.881-2.146
		c0.645-0.19,1.555-0.592,1.725-1.102c1.115-3.353,4.008-3.158,6.646-3.574c8.007-1.266,16.044-2.384,24-3.918
		c4.396-0.85,8.154,0.136,11.655,2.545c2.133,1.469,4.119,2.344,6.933,2.018c4.616-0.535,9.316-0.352,13.981-0.469
		c2.628-0.066,4.277,1.115,5.319,3.592c0.408,0.97,1.685,1.634,2.673,2.272c0.464,0.299,1.183,0.29,1.783,0.278
		c10.572-0.208,17.043,6.966,23.842,13.412c1.122,1.064,1.485,3.017,1.997,4.623c1.193,3.742,1.729,7.8,3.506,11.226
		c2.723,5.247,4.254,10.482,4.318,16.457c0.045,4.159-1.079,7.09-3.747,10.263c-4.932,5.865-10.698,10.338-17.5,13.748
		c-5.52,2.769-10.972,5.729-16.196,9.014c-6.134,3.857-12.681,5.967-19.846,6.896c-10.347,1.34-20.601,3.393-30.949,4.714
		c-3.853,0.491-7.872-0.065-11.791-0.421C38.435,253.317,27.75,252.205,16.749,251.12z M62.955,228.097
		c-8.433-9.647-16.758-19.174-25.085-28.697c-0.8-0.916-1.472-2.046-2.46-2.663c-0.75-0.469-2.044-0.635-2.868-0.326
		c-5.213,1.949-10.37,4.051-15.522,6.156c-0.701,0.285-1.789,0.838-1.827,1.335c-0.266,3.447-1.961,6.831-0.181,10.387
		c2.808,5.61,5.513,11.278,8.048,17.017c0.844,1.913,1.896,2.399,3.889,2.386c9.058-0.064,18.24-1.44,27.001,2.289
		c0.604,0.258,1.834-0.093,2.332-0.597C58.546,233.091,60.652,230.642,62.955,228.097z M140.707,194.537
		c-0.134-17.813-14.804-27.504-27.232-26.389c0.601,4.184,1.203,8.364,1.835,12.763c-9.4,1.632-18.534,3.216-27.878,4.837
		c0.257,0.576,0.345,0.977,0.576,1.262c4.397,5.445,8.757,10.924,13.287,16.257c0.577,0.68,2.142,0.994,3.104,0.789
		c3.662-0.777,7.265-1.833,10.888-2.791C123.783,199.018,132.278,196.769,140.707,194.537z M54.475,187.776
		c5.125,6.246,9.971,12.193,14.899,18.074c0.391,0.466,1.455,0.813,2.012,0.628c6.899-2.285,13.763-4.681,20.946-7.154
		c-3.075-4.573-5.97-8.94-8.955-13.244c-0.424-0.611-1.254-0.99-1.963-1.346c-3.165-1.582-6.318-3.199-9.559-4.615
		c-0.869-0.38-2.217-0.464-3.023-0.054C64.15,182.447,59.563,185.016,54.475,187.776z M70.398,167.655
		c5.449,3.59,10.411,6.888,15.416,10.12c0.541,0.349,1.354,0.544,1.983,0.445c7.876-1.231,15.742-2.531,23.833-3.851
		c-1.366-4.605-2.644-8.913-3.791-12.781C94.596,159.593,82.764,163.455,70.398,167.655z M84.22,160.974
		c-3.46-2.821-6.59-5.585-11.769-3.976c-4.117,1.279-8.544,1.559-12.834,2.275c-4.933,0.824-9.866,1.642-15.06,2.505
		c2.553,5.279,4.912,10.158,7.324,15.146c6.15-3.632,12.016-7.021,17.805-10.539c4.316-2.625,8.47-5.584,13.933-4.936
		C83.75,161.465,83.911,161.226,84.22,160.974z M27.735,168.784c2.24,4.108,4.265,7.904,6.398,11.638
		c0.286,0.503,1.083,0.864,1.706,0.998c3.354,0.721,6.718,1.736,10.099,1.815c1.353,0.031,2.896-1.95,4.059-3.273
		c0.412-0.469,0.253-1.895-0.165-2.557c-2.156-3.412-4.434-6.753-6.791-10.032c-0.424-0.589-1.48-1.18-2.132-1.074
		C36.662,166.989,32.445,167.871,27.735,168.784z"/>
	<path fill-rule="evenodd" clip-rule="evenodd" fill="#8B8B8B" d="M62.955,228.097c-2.302,2.545-4.408,4.994-6.674,7.286
		c-0.498,0.504-1.728,0.854-2.332,0.597c-8.761-3.729-17.943-2.354-27.001-2.289c-1.993,0.014-3.045-0.473-3.889-2.386
		c-2.535-5.738-5.24-11.406-8.048-17.017c-1.78-3.556-0.085-6.939,0.181-10.387c0.038-0.497,1.126-1.05,1.827-1.335
		c5.153-2.105,10.31-4.207,15.522-6.156c0.824-0.309,2.117-0.143,2.868,0.326c0.989,0.617,1.66,1.747,2.46,2.663
		C46.196,208.923,54.521,218.449,62.955,228.097z"/>
	<path fill-rule="evenodd" clip-rule="evenodd" fill="#6A6A6A" d="M140.707,194.537c-8.428,2.231-16.924,4.48-25.42,6.728
		c-3.623,0.958-7.226,2.014-10.888,2.791c-0.961,0.205-2.526-0.109-3.104-0.789c-4.529-5.333-8.89-10.812-13.287-16.257
		c-0.231-0.285-0.319-0.686-0.576-1.262c9.344-1.621,18.478-3.205,27.878-4.837c-0.632-4.398-1.234-8.579-1.835-12.763
		C125.903,167.033,140.572,176.725,140.707,194.537z"/>
	<path fill-rule="evenodd" clip-rule="evenodd" fill="#D8D8D8" d="M54.475,187.776c5.088-2.761,9.675-5.329,14.356-7.711
		c0.807-0.41,2.154-0.326,3.023,0.054c3.24,1.416,6.394,3.033,9.559,4.615c0.709,0.355,1.54,0.734,1.963,1.346
		c2.985,4.304,5.88,8.671,8.955,13.244c-7.184,2.474-14.047,4.869-20.946,7.154c-0.557,0.185-1.621-0.162-2.012-0.628
		C64.446,199.97,59.6,194.022,54.475,187.776z"/>
	<path fill-rule="evenodd" clip-rule="evenodd" fill="#DCDCDC" d="M70.398,167.655c12.366-4.2,24.198-8.063,37.441-6.066
		c1.147,3.868,2.425,8.176,3.791,12.781c-8.091,1.319-15.957,2.619-23.833,3.851c-0.629,0.099-1.443-0.097-1.983-0.445
		C80.809,174.543,75.847,171.245,70.398,167.655z"/>
	<path fill-rule="evenodd" clip-rule="evenodd" fill="#FFFFFF" d="M84.22,160.974c-0.309,0.252-0.47,0.491-0.601,0.476
		c-5.463-0.648-9.617,2.311-13.933,4.936c-5.789,3.518-11.654,6.907-17.805,10.539c-2.412-4.987-4.771-9.866-7.324-15.146
		c5.193-0.863,10.127-1.681,15.06-2.505c4.29-0.717,8.717-0.996,12.834-2.275C77.63,155.389,80.759,158.152,84.22,160.974z"/>
	<path fill-rule="evenodd" clip-rule="evenodd" fill="#FFFFFF" d="M27.735,168.784c4.709-0.913,8.927-1.795,13.174-2.485
		c0.652-0.105,1.708,0.485,2.132,1.074c2.356,3.279,4.635,6.62,6.791,10.032c0.418,0.662,0.577,2.088,0.165,2.557
		c-1.163,1.323-2.706,3.305-4.059,3.273c-3.381-0.079-6.745-1.095-10.099-1.815c-0.624-0.134-1.42-0.495-1.706-0.998
		C32,176.688,29.975,172.893,27.735,168.784z"/>
</g>
<path fill-rule="evenodd" clip-rule="evenodd" fill="#444444" stroke="#DBDBDB" stroke-width="1.1005" stroke-miterlimit="10" d="
	M266.5,205.07c-0.039,0.376-0.08,0.469-0.05,0.524c2.13,4.061,1.754,8.15,0.053,12.206c-0.606,1.444-0.308,2.401,0.885,3.368
	c1.707,1.387,3.241,2.985,4.94,4.383c1.231,1.013,1.507,2.1,0.641,3.398c-2.865,4.29-2.854,8.737-0.953,13.388
	c0.612,1.496,0.862,3.137,1.303,4.705c0.444,1.587,0.017,2.616-1.765,2.668c-11.994,0.346-23.474,3.613-35.091,6.119
	c-0.885,0.191-1.958,0.09-2.811-0.23c-5.187-1.94-10.42-3.798-15.461-6.071c-2.554-1.15-4.739-3.117-7.359-4.896
	c-2.179,2.747-4.463,5.479-6.565,8.346c-1.15,1.569-2.303,1.691-4.168,1.344c-4.734-0.886-8.372-3.149-11.256-6.999
	c-1.898-2.533-4.204-4.765-6.368-7.095c-1.499-1.614-2.695-3.114-2.813-5.657c-0.082-1.786-2.042-3.417-2.87-5.251
	c-1.742-3.854-4.742-5.272-8.813-5.636c-4.826-0.432-7.426-3.884-7.124-8.821c0.717-11.72,1.62-23.419,5.375-34.663
	c0.341-1.019,0.879-2.3,1.714-2.776c9.5-5.417,15.979-14.062,23.323-21.754c3.325-3.48,6.844-6.352,11.446-8.007
	c4.668-1.679,9.185-3.781,13.746-5.747c1.584-0.684,2.466-0.138,3.783,0.967c3.585,3.005,7.302,5.972,11.352,8.277
	c6.396,3.646,13.543,5.457,20.61,7.45c4.813,1.358,9.479,2.121,14.287,0.389c1.676-0.604,2.521,0.037,3.198,1.582
	c3.007,6.863,6.148,13.67,9.115,20.548c0.485,1.122,0.646,2.566,0.439,3.772c-0.824,4.816-1.776,9.614-2.873,14.375
	c-0.212,0.918-1.134,1.949-2.001,2.388C271.835,202.938,269.163,203.941,266.5,205.07z M252.837,183.179
	c3.836,6.498,7.672,12.995,11.569,19.601c1.398-0.615,2.568-1.129,3.943-1.73c-2.934-4.23-5.854-8.232-8.536-12.387
	c-1.714-2.652-4.085-4.316-6.826-5.623c-6.152-4.211-12.304-8.419-18.891-12.929c0,1.264-0.015,2.113,0.003,2.964
	c0.032,1.466,0.139,2.932,0.09,4.394c-0.011,0.318-0.505,0.73-0.866,0.875c-0.178,0.07-0.809-0.372-0.812-0.589
	c-0.054-3.438-0.038-6.874-0.038-10.665c0.979,0.451,1.515,0.612,1.958,0.913c7.899,5.344,15.803,10.683,23.66,16.086
	c0.905,0.623,1.657,1.548,2.302,2.459c3.24,4.569,6.42,9.182,9.529,13.646c2.826-0.354,3.941-1.767,4.267-4.344
	c0.438-3.47,1.446-6.861,1.967-10.324c0.205-1.36,0.077-2.955-0.452-4.212c-2.463-5.855-5.178-11.603-7.669-17.444
	c-0.737-1.729-1.614-2.002-3.37-1.561c-2.084,0.521-4.444,1.192-6.416,0.709c-9.479-2.334-19.068-4.421-27.801-9.075
	c-0.261-0.14-0.589-0.161-1.077-0.285c-1.313,3.503-2.553,6.938-3.915,10.323c-0.229,0.574-0.981,0.939-1.491,1.399
	c-0.048-0.646-0.303-1.363-0.106-1.926c1.071-3.076,2.288-6.101,3.366-9.174c0.21-0.6,0.309-1.679-0.021-1.949
	c-1.45-1.187-3.077-2.158-5.041-3.478c0,4.188,0.113,7.694-0.032,11.188c-0.143,3.402,0.523,6.563,1.676,9.765
	c3.143,8.732,6.024,17.556,9.084,26.318c0.662,1.894,0.628,3.393-1.636,4.415c0.966,0.265,1.582,0.537,2.22,0.596
	c10.298,0.952,18.676,5.571,25.487,13.235c0.593,0.667,1.32,1.213,2.003,1.797c0.712,0.608,1.442,1.191,2.224,1.834
	c2.345-5.747,1.986-10.719-1.05-15.751c-3.697-6.126-7.421-12.234-11.319-18.656C251.675,183.417,252.256,183.297,252.837,183.179z
	 M270.229,246.891c-0.927-3.51-1.654-6.683-2.639-9.773c-0.362-1.135-1.119-2.362-2.058-3.061
	c-6.213-4.632-12.54-9.111-18.78-13.709c-0.618-0.455-0.903-1.366-1.344-2.065c0.813,0.25,1.76,0.314,2.419,0.782
	c6.055,4.297,12.058,8.664,18.082,13.004c0.573,0.413,1.188,0.77,1.915,1.236c0.689-1.539,1.45-2.826,1.817-4.217
	c0.192-0.731-0.026-1.931-0.537-2.427c-4.889-4.762-10.018-9.281-14.804-14.144c-4.609-4.679-9.778-7.941-16.449-8.604
	c-1.931-0.191-3.84-0.761-5.711-1.317c-0.841-0.252-1.563-0.901-2.703-1.587c-1.085,0.841-2.55,1.743-3.735,2.93
	c-5.832,5.825-11.489,11.828-17.423,17.546c-2.315,2.232-3.853,4.226-2.113,7.471c0.243,0.456-0.26,1.312-0.416,1.982
	c-0.255-0.043-0.511-0.087-0.766-0.13c-0.354-1.16-0.581-2.379-1.091-3.467c-1.04-2.218-0.289-3.678,1.386-5.307
	c5.146-5.006,10.085-10.225,15.148-15.316c2.976-2.992,5.683-6.314,9.798-7.957c0.52-0.208,1.071-1.432,0.927-2.014
	c-0.672-2.683-1.486-5.339-2.429-7.94c-4.652-12.838-10.159-25.459-8.287-39.703c0.398-3.037-2.504-4.724-5.305-3.54
	c-2.854,1.206-5.621,2.665-8.554,3.617c-6.25,2.031-11.256,5.688-15.327,10.775c-1.118,1.396-2.449,2.622-3.656,3.948
	c-5.128,5.636-11.112,10.631-13.758,18.134c-0.36,1.02-0.573,2.188-0.475,3.255c0.328,3.572,0.873,7.123,1.219,10.695
	c0.06,0.602-0.453,1.26-0.701,1.892c-0.272-0.093-0.544-0.186-0.816-0.277c-0.248-6.859-3.755-13.881,1.189-20.488
	c0.016-0.021-0.079-0.125-0.496-0.752c-1.683,1.756-3.991,3.161-4.741,5.156c-1.598,4.243-2.41,8.786-3.484,13.223
	c-0.185,0.764-0.289,1.666-0.064,2.391c1.989,6.445,2.989,13.24,6.544,19.138c2.255,3.738,4.922,7.261,6.855,11.153
	c2.231,4.492,5.411,5.595,10.296,5.53c11.339-0.15,22.688,0.522,33.155-5.094c1.471-0.789,2.407-0.387,2.729,1.427
	c0.411,2.321,1.239,4.585,1.507,6.917c0.324,2.837,1.685,3.447,4.363,3.27c4.191-0.275,8.415-0.073,12.624-0.073
	c-0.544,0.795-1.353,1.339-2.187,1.38c-3.992,0.202-8.021,0-11.976,0.469c-2.826,0.335-3.745-0.649-4.159-3.214
	c-0.459-2.842-1.306-5.62-2.022-8.587c-1.532,0.546-2.796,0.879-3.957,1.432c-6.556,3.117-13.426,4.142-20.658,3.714
	c-5.188-0.305-10.407-0.058-16.269-0.058c0.662,1.236,0.95,2.132,1.52,2.779c2.746,3.127,5.696,6.083,8.318,9.305
	c1.898,2.334,4.137,3.712,7.031,4.43c1.727,0.428,2.775,0.308,3.876-1.223c3.583-4.987,7.319-9.861,11.12-14.94
	c0.057,0.251,0.445,0.926,0.281,1.414c-0.439,1.305-1.039,2.572-1.723,3.77c-0.649,1.14-0.582,1.943,0.597,2.627
	c3.219,1.863,6.319,3.968,9.657,5.584c3.437,1.664,7.075,2.928,10.679,4.22c0.993,0.354,2.22,0.412,3.265,0.215
	c8.959-1.694,17.896-3.517,26.854-5.21C265.771,247.129,267.817,247.11,270.229,246.891z M172.063,221.498
	c-2.52-6.429-4.898-12.497-7.309-18.646c-0.333,4.194-0.719,8.329-0.945,12.474c-0.053,0.978,0.286,2.053,0.696,2.97
	C166.001,221.625,169.269,220.675,172.063,221.498z"/>
<path fill-rule="evenodd" clip-rule="evenodd" fill="#D6D6D6" stroke="#DBDBDB" stroke-width="1.1005" stroke-miterlimit="10" d="
	M270.229,246.891c-2.411,0.22-4.458,0.238-6.44,0.615c-8.958,1.693-17.895,3.516-26.854,5.21c-1.045,0.197-2.271,0.14-3.265-0.215
	c-3.604-1.292-7.242-2.556-10.679-4.22c-3.338-1.616-6.438-3.721-9.657-5.584c-1.179-0.684-1.246-1.487-0.597-2.627
	c0.684-1.197,1.283-2.465,1.723-3.77c0.164-0.488-0.225-1.163-0.281-1.414c-3.801,5.079-7.537,9.953-11.12,14.94
	c-1.101,1.53-2.149,1.65-3.876,1.223c-2.895-0.718-5.133-2.096-7.031-4.43c-2.622-3.222-5.572-6.178-8.318-9.305
	c-0.569-0.647-0.857-1.543-1.52-2.779c5.861,0,11.081-0.247,16.269,0.058c7.232,0.428,14.103-0.597,20.658-3.714
	c1.161-0.553,2.425-0.886,3.957-1.432c0.717,2.967,1.563,5.745,2.022,8.587c0.414,2.564,1.333,3.549,4.159,3.214
	c3.954-0.469,7.983-0.267,11.976-0.469c0.834-0.041,1.643-0.585,2.187-1.38c-4.209,0-8.433-0.202-12.624,0.073
	c-2.679,0.178-4.039-0.433-4.363-3.27c-0.268-2.332-1.096-4.596-1.507-6.917c-0.322-1.813-1.259-2.216-2.729-1.427
	c-10.468,5.616-21.816,4.943-33.155,5.094c-4.885,0.064-8.064-1.038-10.296-5.53c-1.934-3.893-4.601-7.415-6.855-11.153
	c-3.555-5.897-4.555-12.692-6.544-19.138c-0.225-0.725-0.12-1.627,0.064-2.391c1.074-4.437,1.887-8.979,3.484-13.223
	c0.75-1.995,3.059-3.4,4.741-5.156c0.417,0.627,0.512,0.73,0.496,0.752c-4.944,6.607-1.438,13.629-1.189,20.488
	c0.272,0.092,0.544,0.185,0.816,0.277c0.248-0.632,0.761-1.29,0.701-1.892c-0.346-3.572-0.891-7.123-1.219-10.695
	c-0.099-1.066,0.114-2.235,0.475-3.255c2.646-7.503,8.63-12.498,13.758-18.134c1.207-1.326,2.538-2.552,3.656-3.948
	c4.071-5.088,9.077-8.744,15.327-10.775c2.933-0.952,5.7-2.411,8.554-3.617c2.801-1.184,5.703,0.503,5.305,3.54
	c-1.872,14.244,3.635,26.865,8.287,39.703c0.942,2.602,1.757,5.258,2.429,7.94c0.145,0.582-0.407,1.806-0.927,2.014
	c-4.115,1.643-6.822,4.965-9.798,7.957c-5.063,5.092-10.002,10.311-15.148,15.316c-1.675,1.629-2.426,3.089-1.386,5.307
	c0.51,1.088,0.736,2.307,1.091,3.467c0.255,0.043,0.511,0.087,0.766,0.13c0.156-0.671,0.659-1.526,0.416-1.982
	c-1.739-3.245-0.202-5.238,2.113-7.471c5.934-5.718,11.591-11.721,17.423-17.546c1.186-1.187,2.65-2.089,3.735-2.93
	c1.14,0.686,1.862,1.335,2.703,1.587c1.871,0.557,3.78,1.126,5.711,1.317c6.671,0.662,11.84,3.925,16.449,8.604
	c4.786,4.862,9.915,9.382,14.804,14.144c0.511,0.496,0.729,1.695,0.537,2.427c-0.367,1.391-1.128,2.678-1.817,4.217
	c-0.727-0.467-1.342-0.823-1.915-1.236c-6.024-4.34-12.027-8.707-18.082-13.004c-0.659-0.468-1.605-0.532-2.419-0.782
	c0.44,0.699,0.726,1.61,1.344,2.065c6.24,4.598,12.567,9.077,18.78,13.709c0.938,0.698,1.695,1.926,2.058,3.061
	C268.574,240.208,269.302,243.381,270.229,246.891z M183.341,198.903c1.453,1.267,1.761,0.293,2.146-0.829
	c1.584-4.617,3.133-9.251,4.898-13.799c0.403-1.039,1.466-2.139,2.492-2.563c5.639-2.33,11.371-4.432,17.038-6.699
	c0.553-0.222,0.867-1.036,1.293-1.576c-0.623-0.043-1.328-0.299-1.858-0.097c-6.08,2.323-12.147,4.688-18.182,7.128
	c-0.74,0.299-1.596,0.978-1.857,1.683C187.247,187.71,185.313,193.315,183.341,198.903z"/>
<path fill-rule="evenodd" clip-rule="evenodd" fill="#D3D3D3" stroke="#DBDBDB" stroke-width="1.1005" stroke-miterlimit="10" d="
	M252.837,183.179c-0.581,0.118-1.162,0.238-2.019,0.415c3.898,6.422,7.622,12.53,11.319,18.656
	c3.036,5.032,3.395,10.004,1.05,15.751c-0.781-0.643-1.512-1.226-2.224-1.834c-0.683-0.584-1.41-1.13-2.003-1.797
	c-6.812-7.664-15.189-12.283-25.487-13.235c-0.638-0.059-1.254-0.331-2.22-0.596c2.264-1.022,2.298-2.521,1.636-4.415
	c-3.06-8.763-5.941-17.586-9.084-26.318c-1.152-3.201-1.818-6.362-1.676-9.765c0.146-3.493,0.032-6.999,0.032-11.188
	c1.964,1.319,3.591,2.291,5.041,3.478c0.33,0.271,0.231,1.35,0.021,1.949c-1.078,3.073-2.295,6.098-3.366,9.174
	c-0.196,0.563,0.059,1.28,0.106,1.926c0.51-0.46,1.262-0.825,1.491-1.399c1.362-3.386,2.602-6.82,3.915-10.323
	c0.488,0.124,0.816,0.146,1.077,0.285c8.732,4.654,18.322,6.741,27.801,9.075c1.972,0.483,4.332-0.188,6.416-0.709
	c1.756-0.441,2.633-0.168,3.37,1.561c2.491,5.842,5.206,11.589,7.669,17.444c0.529,1.257,0.657,2.852,0.452,4.212
	c-0.521,3.463-1.529,6.854-1.967,10.324c-0.325,2.577-1.44,3.989-4.267,4.344c-3.109-4.465-6.289-9.077-9.529-13.646
	c-0.645-0.911-1.396-1.836-2.302-2.459c-7.857-5.403-15.761-10.742-23.66-16.086c-0.443-0.301-0.979-0.462-1.958-0.913
	c0,3.791-0.016,7.228,0.038,10.665c0.003,0.217,0.634,0.659,0.812,0.589c0.361-0.145,0.855-0.557,0.866-0.875
	c0.049-1.462-0.058-2.928-0.09-4.394c-0.018-0.851-0.003-1.7-0.003-2.964c6.587,4.51,12.738,8.718,18.891,12.929L252.837,183.179z"
	/>
<path fill="none" d="M143.959,145.184"/>
<path fill-rule="evenodd" clip-rule="evenodd" fill="#444444" stroke="#DBDBDB" stroke-width="1.1005" stroke-miterlimit="10" d="
	M252.987,183.039c2.741,1.307,5.112,2.971,6.826,5.623c2.683,4.154,5.603,8.156,8.536,12.387c-1.375,0.602-2.545,1.115-3.943,1.73
	c-3.897-6.605-7.733-13.103-11.569-19.601L252.987,183.039z"/>
<path fill-rule="evenodd" clip-rule="evenodd" fill="#D6D6D6" stroke="#DBDBDB" stroke-width="1.1005" stroke-miterlimit="10" d="
	M172.063,221.498c-2.795-0.823-6.063,0.127-7.558-3.203c-0.41-0.917-0.749-1.992-0.696-2.97c0.227-4.145,0.612-8.279,0.945-12.474
	C167.165,209.001,169.544,215.069,172.063,221.498z"/>
<path fill-rule="evenodd" clip-rule="evenodd" fill="#444444" stroke="#DBDBDB" stroke-width="1.1005" stroke-miterlimit="10" d="
	M183.341,198.903c1.973-5.588,3.906-11.193,5.97-16.752c0.262-0.705,1.117-1.384,1.857-1.683c6.034-2.44,12.102-4.805,18.182-7.128
	c0.53-0.202,1.235,0.054,1.858,0.097c-0.426,0.54-0.74,1.354-1.293,1.576c-5.667,2.268-11.399,4.369-17.038,6.699
	c-1.026,0.424-2.089,1.523-2.492,2.563c-1.766,4.548-3.314,9.182-4.898,13.799C185.102,199.196,184.794,200.17,183.341,198.903z"/>
</svg>
