<?xml version="1.0" encoding="utf-8"?>
<!-- Generator: Adobe Illustrator 16.0.0, SVG Export Plug-In . SVG Version: 6.00 Build 0)  -->
<!DOCTYPE svg PUBLIC "-//W3C//DTD SVG 1.1//EN" "http://www.w3.org/Graphics/SVG/1.1/DTD/svg11.dtd">
<svg version="1.1" id="Layer_1" xmlns="http://www.w3.org/2000/svg" xmlns:xlink="http://www.w3.org/1999/xlink" x="0px" y="0px"
	 width="144px" height="72px" viewBox="0 -7.2 144 72" enable-background="new 0 -7.2 144 72" xml:space="preserve">
<g>
	<path fill="#ADADAD" d="M1.196,53.089c0.051-0.273,0.328-0.258,0.508-0.331c10.271-4.246,20.671-8.14,31.251-11.559
		c6.902-2.229,13.855-4.288,20.877-6.102c8.066-2.083,16.197-3.869,24.402-5.313c6.279-1.104,12.59-1.983,18.926-2.695
		c10.307-1.16,20.645-1.533,31.006-1.264c4.791,0.124,9.568,0.506,14.309,1.261c0.096,0.015,0.189,0.048,0.328,0.082
		c-0.197,0.562-0.671,0.859-1.063,1.207c-4.739,4.194-9.756,8.048-14.741,11.937c-0.511,0.396-1.101,0.721-1.515,1.199
		c-0.758,0.874-1.666,0.79-2.639,0.631c-3.574-0.583-7.171-1-10.779-1.313c-5.369-0.469-10.746-0.789-16.135-0.92
		c-5.314-0.127-10.627-0.012-15.936,0.272c-5.924,0.314-11.834,0.81-17.722,1.55c-6.347,0.796-12.667,1.771-18.961,2.91
		c-6.823,1.238-13.607,2.661-20.391,4.09c-4.58,0.967-9.152,1.972-13.734,2.929c-2.57,0.533-5.154,1.006-7.732,1.503
		C1.364,53.184,1.266,53.221,1.196,53.089z"/>
	<path fill="#F7DD46" d="M44.712,4.417c0,1.494,0.002,2.87,0,4.248c-0.005,4.843-0.013,9.687-0.018,14.53
		c0,0.218-0.052,0.487,0.214,0.581c0.276,0.098,0.576-0.06,0.75-0.208c1.271-1.084,2.741-1.884,4.151-2.725
		c2.66-1.588,5.191-3.372,7.873-4.922c1.51-0.872,2.946-1.87,4.418-2.805c0.288-0.183,0.592-0.343,0.896-0.496
		c0.177-0.088,0.405-0.19,0.555-0.03c0.17,0.183-0.03,0.331-0.136,0.5c-0.737,1.174-1.701,2.168-2.554,3.249
		c-1.731,2.193-3.51,4.347-5.268,6.518c-1.256,1.553-2.513,3.105-3.769,4.657c-0.101,0.125-0.337,0.216-0.2,0.417
		c0.105,0.153,0.322,0.105,0.486,0.084c1.997-0.256,4.005-0.45,5.986-0.804c2.099-0.375,4.219-0.628,6.304-1.1
		c0.786-0.178,1.611-0.148,2.42-0.296c1.085-0.194,2.167-0.493,3.286-0.458c0.179,0.005,0.439-0.111,0.503,0.165
		c0.066,0.282-0.209,0.288-0.379,0.355c-1.418,0.563-2.835,1.188-4.161,1.893c-1.485,0.787-3.048,1.395-4.537,2.159
		c-1.566,0.806-3.185,1.558-4.846,2.196c-0.843,0.325-1.64,0.815-2.464,1.221c-0.473,0.23-0.993,0.391-1.457,0.438
		c-1.259,0.129-2.449,0.544-3.686,0.756c-1.007,0.171-2.015,0.554-3.017,0.857c-1.075,0.326-2.19,0.521-3.267,0.843
		c-1.491,0.44-2.941,1.029-4.448,1.396c-1.549,0.377-3.045,0.904-4.55,1.396c-2.119,0.688-4.236,1.396-6.331,2.17
		c-1.701,0.627-3.496,0.925-5.317,1.093c-2.424,0.223-4.82,0.694-7.25,0.906c-0.9,0.076-1.789,0.292-2.685,0.438
		c-0.138,0.021-0.33,0.071-0.382-0.105c-0.052-0.177,0.052-0.37,0.214-0.431c1.877-0.694,3.442-1.97,5.258-2.794
		c1.465-0.666,2.809-1.6,4.195-2.432c0.221-0.134,0.401-0.327-0.036-0.503c-0.596-0.241-1.2-0.431-1.832-0.534
		c-2.18-0.364-4.33-0.89-6.505-1.283c-1.289-0.231-2.566-0.595-3.861-0.843c-0.766-0.147-1.505-0.429-2.25-0.67
		C6.874,34,6.662,33.926,6.733,33.684c0.058-0.199,0.237-0.148,0.371-0.148c1.761,0.021,3.499-0.286,5.236-0.475
		c1.925-0.207,3.863-0.364,5.782-0.682c1.061-0.177,2.168-0.102,3.233-0.347c0.191-0.046,0.431-0.043,0.506-0.248
		c0.103-0.281-0.209-0.284-0.343-0.396c-1.521-1.29-3.26-2.296-4.777-3.576c-1.095-0.924-2.277-1.729-3.38-2.643
		c-0.897-0.745-1.946-1.367-2.911-2.063c-0.602-0.434-1.276-0.797-1.751-1.404c-0.115-0.145-0.264-0.27-0.156-0.441
		c0.09-0.145,0.269-0.064,0.411-0.025c0.803,0.215,1.61,0.412,2.406,0.647c2.014,0.595,4.001,1.271,6.032,1.813
		c1.174,0.315,2.34,0.698,3.454,1.18c0.742,0.322,1.526,0.308,2.278,0.536c0.811,0.249,1.544,0.72,2.413,0.813
		c0.359,0.038,0.772,0.309,1.056,0.054c0.312-0.28,0.066-0.72-0.06-1.047c-0.788-2.047-1.301-4.179-1.975-6.263
		c-0.816-2.527-1.522-5.091-2.377-7.604c-0.202-0.597-0.305-1.209-0.507-1.799c-0.062-0.179-0.146-0.447,0.027-0.559
		c0.196-0.128,0.427,0.007,0.591,0.179c0.459,0.482,0.957,0.934,1.365,1.454c1.137,1.449,2.469,2.716,3.707,4.071
		c1.567,1.713,3.23,3.348,4.682,5.152c0.875,1.086,1.861,2.036,2.817,3.031c0.313,0.326,0.468,0.295,0.712-0.09
		c0.913-1.445,1.438-3.073,2.234-4.571c1.069-2.014,1.988-4.104,2.984-6.151c0.863-1.776,1.697-3.582,2.497-5.396
		C43.619,5.942,43.859,5.053,44.712,4.417z"/>
	<path fill="#78B0F4" d="M90.313,26.084c1.049-1.431,2.334-2.421,3.711-3.296c3.681-2.338,7.643-4.086,11.768-5.469
		c3.266-1.094,6.572-2.043,9.968-2.657c1.155-0.208,1.263-0.182,1.858,0.821c1.523,2.553,2.775,5.248,4.135,7.89
		c0.275,0.542,0.098,0.57-0.419,0.549c-4.993-0.206-9.978-0.036-14.949,0.449c-3.308,0.323-6.618,0.623-9.926,0.973
		c-1.772,0.188-3.538,0.467-5.308,0.697C90.913,26.073,90.672,26.067,90.313,26.084z"/>
	<path fill="#595959" d="M70.833,29.241c1.937-3.108,4.007-6.084,7.097-8.602c1.364-1.108,2.875-2.071,4.916-2.375
		c1.934-0.288,3.254,0.256,3.911,1.623c0.839,1.727,0.623,3.528,0.36,5.313c-0.26,1.764-0.313,1.765-2.807,2.081
		c-4.416,0.559-8.83,1.104-13.164,1.986C71.09,29.281,71.019,29.26,70.833,29.241z"/>
	<path fill="#595959" d="M92.105,15.735c0.004,1.997-1.518,3.548-3.488,3.558c-1.924,0.009-3.502-1.563-3.501-3.481
		c0.001-2.025,1.485-3.533,3.497-3.545C90.563,12.255,92.104,13.784,92.105,15.735z"/>
</g>
</svg>
