<?xml version="1.0" encoding="iso-8859-1"?>
<!-- Generator: Adobe Illustrator 16.0.0, SVG Export Plug-In . SVG Version: 6.00 Build 0)  -->
<!DOCTYPE svg PUBLIC "-//W3C//DTD SVG 1.1//EN" "http://www.w3.org/Graphics/SVG/1.1/DTD/svg11.dtd">
<svg version="1.1" id="Layer_1" xmlns="http://www.w3.org/2000/svg" xmlns:xlink="http://www.w3.org/1999/xlink" x="0px" y="0px"
	 width="144px" height="144px" viewBox="0 0 144 144" style="enable-background:new 0 0 144 144;" xml:space="preserve">
<g>
	<path style="fill-rule:evenodd;clip-rule:evenodd;fill:#ADADAD;" d="M3.362,95.546c0.049-0.265,0.318-0.25,0.493-0.32
		c9.958-4.116,20.039-7.892,30.295-11.205c6.691-2.162,13.431-4.157,20.239-5.914c7.819-2.02,15.701-3.751,23.656-5.15
		c6.088-1.07,12.204-1.922,18.347-2.613c9.991-1.124,20.012-1.486,30.058-1.226c4.644,0.12,9.276,0.491,13.869,1.223
		c0.093,0.015,0.185,0.046,0.319,0.08c-0.192,0.545-0.65,0.833-1.031,1.17c-4.594,4.066-9.456,7.802-14.29,11.571
		c-0.494,0.385-1.065,0.698-1.467,1.163c-0.736,0.847-1.616,0.766-2.559,0.611c-3.466-0.565-6.951-0.97-10.449-1.273
		c-5.205-0.453-10.418-0.765-15.643-0.892c-5.151-0.123-10.302-0.011-15.447,0.265c-5.742,0.306-11.472,0.784-17.18,1.503
		c-6.152,0.771-12.279,1.715-18.381,2.821c-6.614,1.2-13.19,2.579-19.767,3.965c-4.439,0.936-8.872,1.91-13.314,2.838
		c-2.491,0.518-4.997,0.975-7.495,1.457C3.525,95.638,3.43,95.674,3.362,95.546z"/>
	<path style="fill-rule:evenodd;clip-rule:evenodd;fill:#F7DD46;" d="M45.547,48.363c0,1.448,0.002,2.782,0,4.118
		c-0.005,4.694-0.013,9.39-0.018,14.086c0,0.21-0.051,0.472,0.208,0.563c0.268,0.094,0.559-0.058,0.727-0.201
		c1.232-1.051,2.658-1.826,4.024-2.642c2.579-1.54,5.033-3.269,7.632-4.771c1.463-0.845,2.855-1.813,4.283-2.719
		c0.279-0.177,0.574-0.332,0.868-0.48c0.171-0.086,0.393-0.184,0.538-0.029c0.166,0.177-0.029,0.321-0.132,0.485
		c-0.715,1.138-1.649,2.102-2.476,3.15c-1.678,2.125-3.402,4.214-5.107,6.318c-1.218,1.505-2.437,3.011-3.654,4.515
		c-0.098,0.121-0.327,0.21-0.193,0.405c0.102,0.149,0.312,0.102,0.471,0.082c1.936-0.248,3.883-0.437,5.803-0.779
		c2.035-0.363,4.09-0.609,6.111-1.065c0.762-0.172,1.562-0.144,2.346-0.287c1.052-0.189,2.101-0.479,3.186-0.444
		c0.173,0.005,0.426-0.109,0.488,0.159c0.064,0.274-0.203,0.279-0.367,0.345c-1.375,0.547-2.749,1.152-4.034,1.834
		c-1.439,0.763-2.955,1.352-4.398,2.094c-1.518,0.78-3.088,1.51-4.698,2.129c-0.817,0.315-1.59,0.791-2.388,1.184
		c-0.459,0.223-0.963,0.378-1.412,0.423c-1.22,0.125-2.375,0.527-3.573,0.732c-0.977,0.166-1.954,0.537-2.925,0.832
		c-1.042,0.316-2.123,0.506-3.167,0.816c-1.446,0.428-2.851,0.999-4.313,1.354c-1.501,0.365-2.952,0.877-4.411,1.353
		c-2.054,0.669-4.106,1.355-6.137,2.104c-1.649,0.608-3.389,0.896-5.155,1.06c-2.35,0.216-4.673,0.673-7.029,0.879
		c-0.873,0.074-1.734,0.283-2.602,0.425c-0.134,0.021-0.32,0.069-0.371-0.104c-0.05-0.17,0.05-0.358,0.208-0.416
		c1.82-0.674,3.337-1.909,5.098-2.709c1.42-0.646,2.723-1.55,4.067-2.356c0.214-0.13,0.389-0.317-0.035-0.488
		c-0.578-0.233-1.164-0.416-1.776-0.518c-2.113-0.354-4.197-0.862-6.307-1.244c-1.249-0.225-2.487-0.576-3.743-0.816
		c-0.742-0.144-1.459-0.416-2.182-0.649c-0.136-0.045-0.342-0.117-0.273-0.352c0.056-0.193,0.23-0.145,0.359-0.145
		c1.708,0.02,3.392-0.277,5.076-0.459c1.866-0.201,3.745-0.354,5.605-0.661c1.028-0.172,2.102-0.098,3.134-0.336
		c0.185-0.044,0.418-0.042,0.491-0.241c0.1-0.272-0.203-0.275-0.332-0.383c-1.475-1.251-3.161-2.226-4.631-3.466
		c-1.061-0.896-2.207-1.677-3.276-2.562c-0.87-0.722-1.886-1.325-2.822-1.999c-0.583-0.421-1.237-0.773-1.698-1.362
		c-0.111-0.14-0.256-0.261-0.151-0.428c0.087-0.141,0.261-0.062,0.398-0.024c0.778,0.208,1.561,0.399,2.333,0.627
		c1.952,0.577,3.879,1.233,5.847,1.759c1.138,0.306,2.269,0.676,3.349,1.143c0.719,0.312,1.479,0.298,2.208,0.519
		c0.786,0.241,1.497,0.698,2.339,0.788c0.348,0.037,0.749,0.298,1.023,0.053c0.302-0.272,0.064-0.698-0.058-1.016
		c-0.764-1.984-1.262-4.051-1.915-6.071c-0.792-2.45-1.476-4.935-2.305-7.372c-0.195-0.578-0.295-1.172-0.492-1.743
		c-0.06-0.174-0.141-0.434,0.026-0.542c0.19-0.125,0.415,0.007,0.573,0.174c0.445,0.467,0.927,0.904,1.324,1.409
		c1.103,1.405,2.394,2.633,3.594,3.947c1.519,1.661,3.131,3.245,4.539,4.994c0.849,1.053,1.804,1.974,2.731,2.939
		c0.303,0.315,0.453,0.286,0.69-0.087c0.885-1.4,1.395-2.979,2.166-4.431c1.037-1.953,1.927-3.978,2.893-5.964
		c0.837-1.721,1.646-3.472,2.421-5.231C44.487,49.842,44.72,48.98,45.547,48.363z"/>
	<path style="fill-rule:evenodd;clip-rule:evenodd;fill:#78B0F4;" d="M89.752,69.368c1.017-1.386,2.262-2.347,3.598-3.195
		c3.567-2.267,7.408-3.961,11.406-5.301c3.166-1.06,6.372-1.98,9.663-2.576c1.12-0.202,1.224-0.176,1.802,0.796
		c1.477,2.474,2.69,5.087,4.008,7.648c0.269,0.525,0.094,0.554-0.405,0.532c-4.841-0.2-9.672-0.035-14.492,0.436
		c-3.206,0.314-6.417,0.604-9.622,0.943c-1.719,0.183-3.43,0.452-5.146,0.675C90.335,69.356,90.101,69.351,89.752,69.368z"/>
	<path style="fill-rule:evenodd;clip-rule:evenodd;fill:#595959;" d="M70.869,72.428c1.877-3.013,3.884-5.897,6.879-8.337
		c1.323-1.075,2.786-2.008,4.765-2.303c1.875-0.279,3.154,0.248,3.793,1.573c0.813,1.673,0.604,3.42,0.349,5.151
		c-0.251,1.71-0.302,1.711-2.72,2.017c-4.28,0.542-8.561,1.07-12.761,1.926C71.118,72.467,71.049,72.446,70.869,72.428z"/>
	<path style="fill-rule:evenodd;clip-rule:evenodd;fill:#595959;" d="M91.491,59.335c0.004,1.936-1.471,3.438-3.383,3.448
		c-1.863,0.009-3.395-1.515-3.394-3.375c0.001-1.964,1.441-3.425,3.391-3.437C89.994,55.961,91.487,57.444,91.491,59.335z"/>
</g>
</svg>
