<?xml version="1.0" encoding="utf-8"?>
<!-- Generator: Adobe Illustrator 16.0.0, SVG Export Plug-In . SVG Version: 6.00 Build 0)  -->
<!DOCTYPE svg PUBLIC "-//W3C//DTD SVG 1.1//EN" "http://www.w3.org/Graphics/SVG/1.1/DTD/svg11.dtd">
<svg version="1.1" id="Layer_1" xmlns="http://www.w3.org/2000/svg" xmlns:xlink="http://www.w3.org/1999/xlink" x="0px" y="0px"
	 width="144px" height="144px" viewBox="0 0 144 144" style="enable-background:new 0 0 144 144;" xml:space="preserve">
<style type="text/css">
<![CDATA[
	.st0{fill-rule:evenodd;clip-rule:evenodd;fill:#78B0F4;}
	.st1{fill-rule:evenodd;clip-rule:evenodd;fill:#ADADAD;}
	.st2{fill-rule:evenodd;clip-rule:evenodd;fill:#595959;}
	.st3{fill-rule:evenodd;clip-rule:evenodd;fill:#F7DD46;}
]]>
</style>
<g>
	<path class="st1" d="M16.431,84.943c0.042-0.224,0.269-0.211,0.416-0.271c8.41-3.478,16.925-6.665,25.587-9.464
		c5.651-1.826,11.344-3.511,17.094-4.995c6.604-1.705,13.26-3.168,19.979-4.35c5.142-0.904,10.308-1.624,15.495-2.207
		c8.439-0.95,16.902-1.255,25.386-1.035c3.923,0.101,7.835,0.414,11.715,1.033c0.078,0.012,0.156,0.039,0.27,0.067
		c-0.162,0.46-0.55,0.704-0.871,0.988c-3.88,3.435-7.986,6.589-12.069,9.773c-0.417,0.324-0.9,0.59-1.239,0.981
		c-0.621,0.717-1.365,0.647-2.16,0.518c-2.927-0.478-5.871-0.819-8.826-1.076c-4.396-0.383-8.799-0.646-13.21-0.753
		c-4.352-0.104-8.701-0.009-13.047,0.224c-4.851,0.258-9.689,0.662-14.51,1.269c-5.196,0.652-10.371,1.449-15.525,2.383
		c-5.586,1.014-11.141,2.18-16.695,3.349c-3.75,0.791-7.493,1.614-11.245,2.397c-2.104,0.438-4.22,0.823-6.331,1.23
		C16.568,85.021,16.487,85.052,16.431,84.943z"/>
	<path class="st3" d="M52.06,45.093c0,1.223,0.001,2.35,0,3.478c-0.004,3.965-0.011,7.931-0.015,11.897
		c0,0.178-0.043,0.399,0.175,0.476c0.226,0.08,0.472-0.049,0.614-0.17c1.04-0.888,2.245-1.542,3.398-2.231
		c2.178-1.3,4.25-2.761,6.446-4.03c1.236-0.713,2.412-1.531,3.618-2.296c0.235-0.149,0.484-0.28,0.733-0.406
		c0.145-0.073,0.332-0.155,0.455-0.024c0.14,0.149-0.024,0.271-0.111,0.41c-0.604,0.961-1.393,1.775-2.091,2.66
		c-1.417,1.795-2.874,3.56-4.313,5.337c-1.029,1.271-2.058,2.542-3.086,3.813c-0.083,0.102-0.276,0.177-0.164,0.342
		c0.086,0.125,0.264,0.086,0.398,0.069c1.635-0.209,3.28-0.369,4.901-0.658c1.719-0.307,3.455-0.515,5.161-0.9
		c0.644-0.146,1.319-0.122,1.981-0.242c0.889-0.16,1.774-0.404,2.69-0.375c0.146,0.004,0.359-0.092,0.412,0.135
		c0.055,0.231-0.171,0.235-0.311,0.291c-1.161,0.462-2.321,0.973-3.406,1.549c-1.216,0.644-2.496,1.141-3.715,1.768
		c-1.282,0.66-2.608,1.275-3.968,1.799c-0.69,0.266-1.343,0.668-2.018,0.999c-0.387,0.188-0.813,0.319-1.192,0.357
		c-1.03,0.105-2.005,0.445-3.018,0.618c-0.825,0.141-1.65,0.453-2.47,0.703c-0.88,0.268-1.793,0.428-2.675,0.689
		c-1.221,0.361-2.408,0.844-3.642,1.144c-1.268,0.31-2.493,0.741-3.726,1.144c-1.735,0.564-3.468,1.144-5.184,1.776
		c-1.393,0.514-2.862,0.757-4.354,0.895c-1.985,0.183-3.947,0.568-5.937,0.742c-0.737,0.063-1.465,0.239-2.198,0.358
		c-0.113,0.019-0.27,0.059-0.313-0.087c-0.042-0.144,0.042-0.303,0.175-0.352c1.537-0.569,2.818-1.612,4.305-2.287
		c1.199-0.546,2.3-1.31,3.435-1.991c0.181-0.109,0.328-0.268-0.03-0.412c-0.488-0.197-0.982-0.352-1.5-0.438
		c-1.786-0.298-3.545-0.729-5.327-1.05c-1.055-0.191-2.101-0.487-3.162-0.69c-0.626-0.121-1.232-0.351-1.842-0.549
		c-0.115-0.037-0.289-0.098-0.231-0.297c0.047-0.162,0.194-0.122,0.303-0.121c1.442,0.016,2.865-0.235,4.287-0.389
		c1.576-0.17,3.163-0.298,4.734-0.558c0.869-0.145,1.775-0.083,2.647-0.284c0.156-0.037,0.353-0.035,0.415-0.203
		c0.084-0.23-0.171-0.232-0.281-0.324c-1.246-1.056-2.669-1.88-3.911-2.927c-0.896-0.756-1.865-1.416-2.768-2.164
		c-0.734-0.61-1.593-1.12-2.383-1.688c-0.493-0.355-1.045-0.653-1.435-1.151c-0.093-0.118-0.216-0.22-0.127-0.361
		c0.074-0.119,0.22-0.052,0.336-0.021c0.657,0.175,1.318,0.337,1.97,0.53c1.648,0.487,3.276,1.042,4.938,1.486
		c0.961,0.258,1.917,0.571,2.828,0.965c0.607,0.263,1.25,0.252,1.865,0.438c0.664,0.204,1.264,0.59,1.976,0.666
		c0.293,0.031,0.632,0.252,0.864,0.044c0.256-0.23,0.055-0.59-0.049-0.857c-0.645-1.676-1.065-3.422-1.617-5.127
		c-0.668-2.069-1.247-4.168-1.946-6.226c-0.166-0.488-0.25-0.99-0.416-1.473c-0.05-0.146-0.119-0.367,0.022-0.458
		c0.16-0.105,0.35,0.006,0.484,0.147c0.375,0.395,0.783,0.764,1.118,1.19c0.931,1.187,2.021,2.224,3.035,3.333
		c1.283,1.403,2.645,2.741,3.833,4.218c0.717,0.889,1.523,1.667,2.307,2.482c0.256,0.267,0.383,0.242,0.583-0.074
		c0.748-1.183,1.178-2.516,1.829-3.742c0.875-1.649,1.628-3.359,2.444-5.037c0.707-1.454,1.39-2.933,2.044-4.418
		C51.165,46.342,51.361,45.614,52.06,45.093z"/>
	<path class="st0" d="M89.395,62.833c0.859-1.17,1.911-1.982,3.039-2.699c3.013-1.914,6.256-3.346,9.633-4.478
		c2.674-0.896,5.382-1.672,8.162-2.176c0.945-0.171,1.032-0.148,1.521,0.673c1.247,2.089,2.271,4.296,3.385,6.459
		c0.227,0.443,0.08,0.468-0.343,0.45c-4.088-0.168-8.168-0.03-12.239,0.368c-2.709,0.266-5.42,0.51-8.127,0.796
		c-1.451,0.154-2.896,0.382-4.346,0.571C89.887,62.824,89.689,62.819,89.395,62.833z"/>
	<path class="st2" d="M73.445,65.417c1.586-2.544,3.281-4.98,5.812-7.041c1.116-0.908,2.353-1.696,4.023-1.945
		c1.583-0.236,2.664,0.209,3.203,1.329c0.687,1.414,0.511,2.888,0.295,4.351c-0.212,1.444-0.255,1.445-2.297,1.704
		c-3.615,0.457-7.23,0.903-10.778,1.626C73.656,65.451,73.599,65.433,73.445,65.417z"/>
	<path class="st2" d="M90.863,54.36c0.004,1.635-1.242,2.904-2.856,2.912c-1.574,0.007-2.867-1.279-2.866-2.851
		c0.001-1.658,1.217-2.892,2.862-2.902C89.599,51.51,90.86,52.763,90.863,54.36z"/>
</g>
</svg>
