<?xml version="1.0" encoding="utf-8"?>
<!-- Generator: Adobe Illustrator 16.0.0, SVG Export Plug-In . SVG Version: 6.00 Build 0)  -->
<!DOCTYPE svg PUBLIC "-//W3C//DTD SVG 1.1//EN" "http://www.w3.org/Graphics/SVG/1.1/DTD/svg11.dtd">
<svg version="1.1" id="Layer_1" xmlns="http://www.w3.org/2000/svg" xmlns:xlink="http://www.w3.org/1999/xlink" x="0px" y="0px"
	 width="144px" height="144px" viewBox="0 0 144 144" enable-background="new 0 0 144 144" xml:space="preserve">
<rect fill="#FFFFFF" width="144" height="144"/>
<g>
	<defs>
		<rect id="SVGID_1_" width="144" height="144"/>
	</defs>
	<clipPath id="SVGID_2_">
		<use xlink:href="#SVGID_1_"  overflow="visible"/>
	</clipPath>
	<path clip-path="url(#SVGID_2_)" fill="#FFFFFF" d="M144,72c0,39.765-32.235,72-72,72S0,111.765,0,72S32.235,0,72,0
		S144,32.235,144,72"/>
	<path clip-path="url(#SVGID_2_)" fill="#0F2C89" d="M129.271,133.405H94.13c-1.136-4.865-1.702-11.268-1.702-19.212
		c-6.152,8.753-12.281,14.571-18.393,17.45c-6.111,2.874-13.05,4.314-20.821,4.314c-11.494,0-20.78-3.121-27.861-9.362
		c-7.083-6.24-10.623-14.633-10.623-25.169c0-7.702,2.063-14.794,6.191-21.28c4.127-6.483,10.763-11.571,19.91-15.262
		c9.145-3.687,25.817-6.422,50.016-8.205v-7.053c0-11.916-5.94-17.874-17.818-17.874c-12.689,0-19.759,5.958-21.213,17.874
		l-33.438-3.162c2.188-13.94,8.794-23.831,19.819-29.669c11.023-5.835,23.508-8.754,37.451-8.754c8.35,0,16.212,0.973,23.59,2.919
		c7.374,1.942,13.131,4.861,17.266,8.753c4.134,3.889,6.931,8.006,8.391,12.342s2.188,11.896,2.188,22.677v55.688
		C127.081,121.123,127.812,128.785,129.271,133.405 M90.847,74.555C65.556,77.066,52.91,84.729,52.91,97.534
		c0,4.299,1.331,8.006,4,11.127c2.667,3.12,6.465,4.681,11.394,4.681c6.383,0,11.734-2.656,16.058-7.965
		c4.322-5.31,6.485-11.854,6.485-19.639V74.555z"/>
</g>
</svg>
