<?xml version="1.0" encoding="iso-8859-1"?>
<!-- Generator: Adobe Illustrator 16.0.0, SVG Export Plug-In . SVG Version: 6.00 Build 0)  -->
<!DOCTYPE svg PUBLIC "-//W3C//DTD SVG 1.1//EN" "http://www.w3.org/Graphics/SVG/1.1/DTD/svg11.dtd">
<svg version="1.1" id="Layer_1" xmlns="http://www.w3.org/2000/svg" xmlns:xlink="http://www.w3.org/1999/xlink" x="0px" y="0px"
	 width="144px" height="144px" viewBox="0 0 144 144" style="enable-background:new 0 0 144 144;" xml:space="preserve">
<rect x="1.666" y="2.018" style="fill:#00A79D;" width="140.667" height="138.649"/>
<rect x="95.449" y="13.573" style="fill:#A7A9AC;" width="11.72" height="11.547"/>
<rect x="72" y="13.573" style="fill:#A7A9AC;" width="11.726" height="11.547"/>
<rect x="13.39" y="36.679" style="fill:#FFFFFF;" width="117.224" height="92.438"/>
<rect x="118.165" y="13.598" style="fill:#ED1C24;" width="11.722" height="11.547"/>
<path style="fill:#EC008C;" d="M65.221,61.323v3.354l-12.819,6.25v-3.529l9.05-4.394l-9.05-4.419v-3.504L65.221,61.323z
	 M39.582,67.398l-9.033-4.394l9.033-4.419v-3.504l-12.823,6.242v3.354l12.823,6.25V67.398z M50.872,50.364h-3.319l-6.437,25.281
	h3.328L50.872,50.364z"/>
<path style="fill:#EC008C;" d="M109.189,97.884v2.889c-1.953,0-3.748,1.62-3.748,3.518c0,2.689,1.602,7.352-7.496,7.352v-2.47
	c6.144,0,4.95-1.96,4.95-4.882c0-2.577,1.518-4.31,2.844-4.956c-1.326-0.663-2.844-1.777-2.844-4.073
	c0-2.926,1.182-5.779-4.95-5.779v-2.459c9.105,0,7.496,5.536,7.496,8.238C105.441,97.15,107.236,97.884,109.189,97.884z
	 M85.463,95.261c0-2.702-1.615-8.238,7.496-8.238v2.459c-6.132-0.004-4.955,2.85-4.955,5.779c0,2.296-1.521,3.41-2.853,4.073
	c1.331,0.646,2.853,2.379,2.853,4.956c0,2.922-1.194,4.882,4.955,4.882v2.47c-9.103,0-7.496-4.662-7.496-7.352
	c0-1.897-1.8-3.518-3.753-3.518v-2.889C83.663,97.884,85.463,97.15,85.463,95.261z"/>
<rect x="20.7" y="94.622" style="fill:#BCBEC0;" width="50.582" height="4.985"/>
<rect x="25.764" y="104.589" style="fill:#BCBEC0;" width="40.458" height="4.989"/>
<rect x="76.302" y="63.327" style="fill:#BCBEC0;" width="50.581" height="4.987"/>
<rect x="72.759" y="50.152" style="fill:#BCBEC0;" width="40.459" height="4.986"/>
</svg>
