<?xml version="1.0" encoding="utf-8"?>
<!-- Generator: Adobe Illustrator 16.0.0, SVG Export Plug-In . SVG Version: 6.00 Build 0)  -->
<!DOCTYPE svg PUBLIC "-//W3C//DTD SVG 1.1//EN" "http://www.w3.org/Graphics/SVG/1.1/DTD/svg11.dtd">
<svg version="1.1" id="Layer_1" xmlns="http://www.w3.org/2000/svg" xmlns:xlink="http://www.w3.org/1999/xlink" x="0px" y="0px"
	 width="144px" height="144px" viewBox="0 0 144 144" enable-background="new 0 0 144 144" xml:space="preserve">
<rect x="1.666" y="2.018" fill="#40045B" width="140.667" height="138.649"/>
<rect x="95.449" y="13.573" fill="#A7A9AC" width="11.72" height="11.547"/>
<rect x="72" y="13.573" fill="#A7A9AC" width="11.727" height="11.547"/>
<rect x="13.39" y="36.679" fill="#FFFFFF" width="117.223" height="92.438"/>
<rect x="118.165" y="13.598" fill="#1FE5EA" width="11.722" height="11.547"/>
<path fill="#EC008C" d="M65.221,61.323v3.354l-12.819,6.25v-3.529l9.05-4.394l-9.05-4.419v-3.504L65.221,61.323z M39.582,67.398
	l-9.033-4.394l9.033-4.419v-3.504l-12.823,6.242v3.354l12.823,6.25V67.398z M50.872,50.364h-3.319l-6.437,25.28h3.328L50.872,50.364
	z"/>
<path fill="#EC008C" d="M109.189,97.884v2.89c-1.953,0-3.748,1.619-3.748,3.518c0,2.689,1.602,7.352-7.496,7.352v-2.47
	c6.144,0,4.949-1.96,4.949-4.882c0-2.577,1.519-4.311,2.844-4.956c-1.325-0.663-2.844-1.776-2.844-4.073
	c0-2.926,1.183-5.779-4.949-5.779v-2.459c9.104,0,7.496,5.537,7.496,8.238C105.441,97.15,107.236,97.884,109.189,97.884z
	 M85.463,95.261c0-2.702-1.615-8.237,7.496-8.237v2.459c-6.132-0.004-4.955,2.85-4.955,5.778c0,2.296-1.521,3.41-2.854,4.073
	c1.332,0.646,2.854,2.379,2.854,4.956c0,2.922-1.193,4.882,4.955,4.882v2.471c-9.104,0-7.496-4.662-7.496-7.353
	c0-1.897-1.8-3.519-3.753-3.519v-2.889C83.663,97.884,85.463,97.15,85.463,95.261z"/>
<rect x="20.7" y="94.622" fill="#BCBEC0" width="50.582" height="4.985"/>
<rect x="25.764" y="104.589" fill="#BCBEC0" width="40.458" height="4.989"/>
<rect x="76.302" y="63.327" fill="#BCBEC0" width="50.581" height="4.987"/>
<rect x="72.759" y="50.152" fill="#BCBEC0" width="40.459" height="4.986"/>
</svg>
