<?xml version="1.0" encoding="utf-8"?>
<!-- Generator: Adobe Illustrator 16.0.0, SVG Export Plug-In . SVG Version: 6.00 Build 0)  -->
<!DOCTYPE svg PUBLIC "-//W3C//DTD SVG 1.1//EN" "http://www.w3.org/Graphics/SVG/1.1/DTD/svg11.dtd">
<svg version="1.1" id="Layer_1" xmlns="http://www.w3.org/2000/svg" xmlns:xlink="http://www.w3.org/1999/xlink" x="0px" y="0px"
	 width="144px" height="144px" viewBox="0 0 144 144" enable-background="new 0 0 144 144" xml:space="preserve">
<rect x="31.079" y="31.666" fill="#00A79D" width="81.843" height="80.668"/>
<rect x="85.644" y="38.389" fill="#A7A9AC" width="6.82" height="6.718"/>
<rect x="72.001" y="38.389" fill="#A7A9AC" width="6.822" height="6.718"/>
<rect x="37.899" y="51.832" fill="#FFFFFF" width="68.204" height="53.782"/>
<rect x="98.86" y="38.403" fill="#ED1C24" width="6.82" height="6.718"/>
<path fill="#EC008C" d="M68.057,66.17v1.951l-7.458,3.636v-2.053l5.265-2.557l-5.265-2.571v-2.039L68.057,66.17z M53.138,69.705
	l-5.254-2.557l5.254-2.571v-2.039l-7.46,3.632v1.951l7.46,3.636V69.705z M59.708,59.794h-1.931l-3.745,14.708h1.935L59.708,59.794z"
	/>
<path fill="#EC008C" d="M93.639,87.442v1.681c-1.138,0-2.182,0.942-2.182,2.046c0,1.566,0.932,4.277-4.36,4.277v-1.436
	c3.573,0,2.878-1.141,2.878-2.842c0-1.499,0.886-2.508,1.656-2.883c-0.771-0.385-1.656-1.033-1.656-2.37
	c0-1.702,0.69-3.361-2.878-3.361v-1.431c5.297,0,4.36,3.221,4.36,4.792C91.457,87.015,92.501,87.442,93.639,87.442z M79.832,85.916
	c0-1.572-0.939-4.792,4.363-4.792v1.431c-3.568-0.003-2.883,1.656-2.883,3.361c0,1.336-0.886,1.983-1.66,2.369
	c0.774,0.376,1.66,1.385,1.66,2.884c0,1.7-0.696,2.841,2.883,2.841v1.437c-5.297,0-4.363-2.711-4.363-4.277
	c0-1.104-1.047-2.047-2.182-2.047v-1.68C78.785,87.442,79.832,87.015,79.832,85.916z"/>
<rect x="42.153" y="85.544" fill="#BCBEC0" width="29.43" height="2.9"/>
<rect x="45.1" y="91.344" fill="#BCBEC0" width="23.539" height="2.902"/>
<rect x="74.503" y="67.336" fill="#BCBEC0" width="29.431" height="2.901"/>
<rect x="72.442" y="59.67" fill="#BCBEC0" width="23.538" height="2.902"/>
</svg>
