<?xml version="1.0" encoding="utf-8"?>
<!-- Generator: Adobe Illustrator 16.0.0, SVG Export Plug-In . SVG Version: 6.00 Build 0)  -->
<!DOCTYPE svg PUBLIC "-//W3C//DTD SVG 1.1//EN" "http://www.w3.org/Graphics/SVG/1.1/DTD/svg11.dtd">
<svg version="1.1" id="Layer_1" xmlns="http://www.w3.org/2000/svg" xmlns:xlink="http://www.w3.org/1999/xlink" x="0px" y="0px"
	 width="144px" height="144px" viewBox="0 0 144 144" style="enable-background:new 0 0 144 144;" xml:space="preserve">
<style type="text/css">
<![CDATA[
	.st0{fill:#EC008C;}
	.st1{fill:#ED1C24;}
	.st2{fill:#BCBEC0;}
	.st3{fill:#FFFFFF;}
	.st4{fill:#00A79D;}
	.st5{fill:#A7A9AC;}
]]>
</style>
<rect x="39.325" y="38.669" class="st4" width="65.349" height="65.346"/>
<rect x="82.894" y="44.115" class="st5" width="5.444" height="5.442"/>
<rect x="72" y="44.115" class="st5" width="5.447" height="5.442"/>
<rect x="44.771" y="55.005" class="st3" width="54.458" height="43.567"/>
<rect x="93.446" y="44.127" class="st1" width="5.445" height="5.442"/>
<path class="st0" d="M68.851,66.62v1.581l-5.955,2.945v-1.663l4.204-2.071l-4.204-2.083v-1.651L68.851,66.62z M56.939,69.483
	l-4.196-2.071l4.196-2.083v-1.651l-5.957,2.942v1.581l5.957,2.945V69.483z M62.185,61.455h-1.542l-2.99,11.915h1.546L62.185,61.455z
	"/>
<path class="st0" d="M89.276,83.852v1.361c-0.907,0-1.741,0.764-1.741,1.658c0,1.268,0.744,3.465-3.482,3.465v-1.164
	c2.854,0,2.3-0.924,2.3-2.301c0-1.215,0.705-2.031,1.321-2.336c-0.616-0.313-1.321-0.838-1.321-1.92c0-1.379,0.549-2.724-2.3-2.724
	v-1.159c4.23,0,3.482,2.609,3.482,3.883C87.535,83.506,88.369,83.852,89.276,83.852z M78.254,82.615c0-1.273-0.75-3.883,3.482-3.883
	v1.159c-2.849-0.002-2.302,1.343-2.302,2.724c0,1.082-0.707,1.607-1.325,1.92c0.618,0.305,1.325,1.121,1.325,2.336
	c0,1.377-0.555,2.301,2.302,2.301v1.164c-4.229,0-3.482-2.197-3.482-3.465c0-0.895-0.836-1.658-1.743-1.658v-1.361
	C77.418,83.852,78.254,83.506,78.254,82.615z"/>
<rect x="48.167" y="82.314" class="st2" width="23.499" height="2.35"/>
<rect x="50.52" y="87.012" class="st2" width="18.795" height="2.352"/>
<rect x="73.998" y="67.565" class="st2" width="23.498" height="2.35"/>
<rect x="72.353" y="61.355" class="st2" width="18.796" height="2.35"/>
</svg>
