<?xml version="1.0" encoding="utf-8"?>
<!-- Generator: Adobe Illustrator 16.0.0, SVG Export Plug-In . SVG Version: 6.00 Build 0)  -->
<!DOCTYPE svg PUBLIC "-//W3C//DTD SVG 1.1//EN" "http://www.w3.org/Graphics/SVG/1.1/DTD/svg11.dtd">
<svg version="1.1" id="Layer_1" xmlns="http://www.w3.org/2000/svg" xmlns:xlink="http://www.w3.org/1999/xlink" x="0px" y="0px"
	 width="144px" height="144px" viewBox="0 0 144 144" style="enable-background:new 0 0 144 144;" xml:space="preserve">
<style type="text/css">
<![CDATA[
	.st0{fill:none;stroke:#D1D3D4;stroke-width:4;stroke-miterlimit:10;}
	.st1{fill:#ED1C24;}
	.st2{fill:none;stroke:#1C75BC;stroke-width:0.75;stroke-miterlimit:10;}
	.st3{fill:#39B54A;}
]]>
</style>
<line class="st0" x1="45.735" y1="12.425" x2="45.735" y2="130.334"/>
<line class="st0" x1="133.13" y1="45.261" x2="11.407" y2="45.261"/>
<g>
	<path class="st1" d="M85.227,13.507c0,0-0.355,0.471-1.001,1.271c-0.325,0.399-0.719,0.883-1.171,1.439
		c-0.226,0.278-0.466,0.573-0.72,0.885c-0.256,0.31-0.587,0.572-0.888,0.891c-2.48,2.48-5.786,5.786-9.093,9.092
		s-6.613,6.613-9.093,9.092c-0.321,0.299-0.58,0.634-0.896,0.883c-0.312,0.253-0.607,0.494-0.885,0.72
		c-0.555,0.452-1.039,0.847-1.438,1.171c-0.807,0.639-1.269,1.004-1.269,1.004s0.365-0.461,1.005-1.269
		c0.325-0.398,0.719-0.882,1.171-1.438c0.226-0.278,0.467-0.573,0.721-0.884c0.249-0.316,0.584-0.575,0.883-0.896
		c2.48-2.48,5.787-5.786,9.093-9.092s6.612-6.613,9.093-9.092c0.319-0.301,0.581-0.632,0.891-0.888
		c0.312-0.253,0.607-0.494,0.885-0.72c0.556-0.452,1.04-0.846,1.439-1.17C84.755,13.862,85.227,13.507,85.227,13.507z"/>
</g>
<g>
	<path class="st1" d="M84.511,39.957c0,0-0.472-0.355-1.271-1.001c-0.399-0.324-0.884-0.718-1.439-1.17
		c-0.277-0.226-0.573-0.466-0.885-0.72c-0.31-0.256-0.571-0.587-0.891-0.888c-2.48-2.479-5.786-5.786-9.093-9.092
		s-6.613-6.612-9.093-9.092c-0.299-0.321-0.634-0.58-0.883-0.896c-0.254-0.311-0.495-0.606-0.721-0.884
		c-0.452-0.555-0.846-1.039-1.171-1.438c-0.64-0.807-1.005-1.269-1.005-1.269s0.461,0.365,1.269,1.004
		c0.398,0.325,0.882,0.719,1.438,1.171c0.278,0.226,0.573,0.467,0.885,0.72c0.316,0.249,0.575,0.584,0.896,0.883
		c2.479,2.479,5.786,5.786,9.093,9.092s6.612,6.612,9.093,9.092c0.301,0.319,0.632,0.582,0.888,0.891
		c0.254,0.312,0.494,0.607,0.72,0.885c0.452,0.556,0.846,1.04,1.171,1.439C84.155,39.486,84.511,39.957,84.511,39.957z"/>
</g>
<g>
	<path class="st1" d="M129.621,55.226c0,0-0.355,0.471-1.001,1.271c-0.325,0.399-0.719,0.883-1.171,1.439
		c-0.226,0.278-0.466,0.573-0.72,0.885c-0.256,0.31-0.587,0.572-0.888,0.891c-2.479,2.479-5.786,5.786-9.092,9.092
		c-3.307,3.306-6.613,6.613-9.093,9.092c-0.32,0.299-0.58,0.635-0.896,0.883c-0.312,0.254-0.607,0.494-0.885,0.721
		c-0.555,0.453-1.039,0.848-1.438,1.172c-0.808,0.639-1.269,1.004-1.269,1.004s0.365-0.461,1.005-1.268
		c0.324-0.398,0.719-0.883,1.171-1.438c0.227-0.277,0.467-0.574,0.721-0.885c0.249-0.316,0.584-0.576,0.883-0.896
		c2.479-2.479,5.786-5.786,9.092-9.092c3.307-3.306,6.613-6.612,9.093-9.092c0.319-0.301,0.582-0.632,0.891-0.888
		c0.312-0.253,0.607-0.494,0.886-0.72c0.555-0.452,1.039-0.846,1.438-1.17C129.149,55.581,129.621,55.226,129.621,55.226z"/>
</g>
<g>
	<path class="st1" d="M128.905,81.676c0,0-0.472-0.355-1.271-1c-0.399-0.326-0.884-0.719-1.438-1.172
		c-0.278-0.225-0.573-0.465-0.886-0.719c-0.309-0.256-0.571-0.588-0.891-0.889c-2.479-2.479-5.786-5.786-9.093-9.092
		c-3.306-3.307-6.612-6.613-9.092-9.092c-0.299-0.321-0.634-0.58-0.883-0.896c-0.254-0.312-0.494-0.606-0.721-0.884
		c-0.452-0.555-0.847-1.039-1.171-1.438c-0.64-0.807-1.005-1.269-1.005-1.269s0.461,0.365,1.269,1.004
		c0.398,0.325,0.883,0.719,1.438,1.171c0.277,0.226,0.573,0.467,0.885,0.72c0.315,0.249,0.575,0.584,0.896,0.883
		c2.479,2.479,5.786,5.786,9.093,9.092c3.306,3.307,6.612,6.614,9.092,9.092c0.301,0.32,0.632,0.582,0.888,0.891
		c0.254,0.313,0.494,0.607,0.72,0.887c0.452,0.555,0.846,1.039,1.171,1.438C128.55,81.205,128.905,81.676,128.905,81.676z"/>
</g>
<circle class="st2" cx="27.045" cy="26.732" r="11.443"/>
<line class="st0" x1="132.067" y1="92.855" x2="10.344" y2="92.855"/>
<line class="st0" x1="95.817" y1="12.425" x2="95.817" y2="130.334"/>
<circle class="st2" cx="115.681" cy="113.004" r="11.442"/>
<circle class="st2" cx="71.691" cy="70.315" r="11.443"/>
<g>
	<path class="st1" d="M85.852,100.768c0,0-0.355,0.473-1.001,1.271c-0.325,0.4-0.719,0.883-1.171,1.439
		c-0.226,0.277-0.466,0.572-0.72,0.885c-0.255,0.309-0.587,0.572-0.888,0.891c-2.479,2.48-5.786,5.787-9.092,9.092
		c-3.307,3.307-6.613,6.613-9.092,9.092c-0.321,0.299-0.58,0.635-0.896,0.883c-0.312,0.254-0.606,0.496-0.884,0.721
		c-0.555,0.453-1.039,0.848-1.438,1.172c-0.807,0.639-1.269,1.004-1.269,1.004s0.365-0.461,1.004-1.268
		c0.325-0.398,0.719-0.883,1.171-1.438c0.226-0.277,0.467-0.574,0.72-0.885c0.249-0.316,0.584-0.574,0.883-0.896
		c2.479-2.479,5.786-5.785,9.092-9.092c3.306-3.307,6.612-6.611,9.092-9.092c0.319-0.301,0.582-0.633,0.891-0.887
		c0.313-0.254,0.607-0.494,0.886-0.721c0.555-0.451,1.039-0.846,1.438-1.17C85.38,101.123,85.852,100.768,85.852,100.768z"/>
</g>
<g>
	<path class="st1" d="M85.135,127.217c0,0-0.472-0.355-1.271-1c-0.399-0.326-0.883-0.719-1.438-1.172
		c-0.278-0.225-0.573-0.465-0.885-0.719c-0.31-0.256-0.572-0.588-0.892-0.889c-2.479-2.479-5.786-5.785-9.092-9.092
		c-3.306-3.305-6.612-6.611-9.092-9.092c-0.299-0.32-0.634-0.58-0.883-0.896c-0.253-0.311-0.494-0.605-0.72-0.883
		c-0.452-0.555-0.847-1.039-1.171-1.438c-0.639-0.809-1.004-1.27-1.004-1.27s0.461,0.365,1.269,1.006
		c0.398,0.324,0.882,0.719,1.438,1.17c0.277,0.227,0.573,0.467,0.884,0.721c0.316,0.248,0.575,0.584,0.896,0.883
		c2.479,2.48,5.786,5.785,9.092,9.092c3.307,3.307,6.612,6.613,9.092,9.092c0.301,0.32,0.633,0.582,0.888,0.893
		c0.254,0.311,0.494,0.605,0.72,0.885c0.452,0.555,0.846,1.039,1.171,1.438C84.779,126.746,85.135,127.217,85.135,127.217z"/>
</g>
<g>
	<path class="st3" d="M10.144,8.637c0,0,2.049,1.817,5.586,5.045c1.766,1.617,3.91,3.581,6.37,5.833
		c1.23,1.126,2.539,2.325,3.918,3.588c1.375,1.268,2.695,2.727,4.164,4.157c11.598,11.598,27.063,27.063,42.526,42.526
		c15.464,15.465,30.929,30.928,42.526,42.528c1.428,1.471,2.894,2.783,4.147,4.172c1.264,1.381,2.463,2.688,3.589,3.918
		c2.253,2.459,4.217,4.602,5.835,6.367c3.215,3.551,5.052,5.58,5.052,5.58s-2.029-1.838-5.58-5.053
		c-1.765-1.617-3.908-3.582-6.367-5.834c-1.229-1.127-2.537-2.326-3.917-3.59c-1.389-1.254-2.701-2.719-4.173-4.146
		c-11.599-11.6-27.063-27.063-42.526-42.527C55.829,55.737,40.365,40.272,28.767,28.674c-1.431-1.468-2.89-2.788-4.157-4.164
		c-1.263-1.379-2.462-2.688-3.588-3.918c-2.252-2.459-4.215-4.604-5.833-6.37C11.96,10.687,10.144,8.637,10.144,8.637z"/>
</g>
</svg>
