<?xml version="1.0" encoding="utf-8"?>
<!-- Generator: Adobe Illustrator 16.0.0, SVG Export Plug-In . SVG Version: 6.00 Build 0)  -->
<!DOCTYPE svg PUBLIC "-//W3C//DTD SVG 1.1//EN" "http://www.w3.org/Graphics/SVG/1.1/DTD/svg11.dtd">
<svg version="1.1" xmlns="http://www.w3.org/2000/svg" xmlns:xlink="http://www.w3.org/1999/xlink" x="0px" y="0px"
	viewBox="0 0 288 288" style="enable-background:new 0 0 288 288;" xml:space="preserve">
<style type="text/css">
<![CDATA[
	.st0{fill:#E6E7E8;}
	.st1{fill:#B3B3B3;}
	.st2{fill:#BE1E2D;}
	.st3{fill:none;stroke:#000000;stroke-width:2;stroke-miterlimit:10;}
	.st4{fill:#D1D3D4;}
]]>
</style>
<g id="doors">
	<rect x="143.966" y="55.563" class="st2" width="116.993" height="232.438"/>
	<line class="st3" x1="143.966" y1="55.563" x2="143.966" y2="288"/>
	<g>
		<path class="st2" d="M26.973,55.563V288h116.993V55.563H26.973z M139.001,226.159v61.567H31.938v-61.567v-61.567h107.063V226.159z
			"/>
		<rect x="31.938" y="226.159" class="st1" width="107.063" height="61.567"/>
		<rect x="31.938" y="164.592" class="st4" width="107.063" height="61.567"/>
	</g>
	<g>
		<rect x="148.932" y="226.159" class="st1" width="107.063" height="61.567"/>
		<rect x="148.932" y="164.592" class="st4" width="107.063" height="61.567"/>
	</g>
</g>
<g id="windows">
	<g>
		<path class="st0" d="M100.369,102.297c-11.335-7.889-27.171-5.485-35.407,5.373c-8.236,10.858-5.727,26.028,5.608,33.916
			l14.899-19.644L100.369,102.297z"/>
		<path class="st4" d="M100.369,102.297l-14.899,19.645L70.57,141.585c11.335,7.89,27.171,5.486,35.407-5.372
			C114.212,125.354,111.704,110.186,100.369,102.297z"/>
	</g>
	<g>
		<path class="st0" d="M217.361,102.297c-11.335-7.889-27.172-5.485-35.406,5.373c-8.236,10.858-5.728,26.028,5.608,33.916
			l14.899-19.644L217.361,102.297z"/>
		<path class="st4" d="M217.361,102.297l-14.898,19.645l-14.899,19.644c11.335,7.889,27.172,5.486,35.406-5.372
			C231.206,125.354,228.697,110.186,217.361,102.297z"/>
	</g>
</g>
</svg>
