<?xml version="1.0" encoding="utf-8"?>
<!-- Generator: Adobe Illustrator 16.0.0, SVG Export Plug-In . SVG Version: 6.00 Build 0)  -->
<!DOCTYPE svg PUBLIC "-//W3C//DTD SVG 1.1//EN" "http://www.w3.org/Graphics/SVG/1.1/DTD/svg11.dtd">
<svg version="1.1" xmlns="http://www.w3.org/2000/svg" xmlns:xlink="http://www.w3.org/1999/xlink" x="0px" y="0px" width="288px"
	 height="288px" viewBox="0 0 288 288" style="enable-background:new 0 0 288 288;" xml:space="preserve">
<style type="text/css">
<![CDATA[
	.st0{fill-rule:evenodd;clip-rule:evenodd;fill:#DEDEDE;}
	.st1{fill-rule:evenodd;clip-rule:evenodd;fill:#FEFEFE;}
	.st2{fill-rule:evenodd;clip-rule:evenodd;fill:#9E74D9;}
	.st3{fill-rule:evenodd;clip-rule:evenodd;fill:#34037C;}
	.st4{fill-rule:evenodd;clip-rule:evenodd;fill:none;stroke:#000000;stroke-width:3;}
]]>
</style>
<g id="Layer_1">
	<g>
		<path class="st0" d="M45.263,144.388c-0.002-13.122,0.172-26.248-0.051-39.366C44.997,92.35,50.644,83.784,61.677,77.68
			c21.996-12.169,43.787-24.721,65.452-37.472c11.993-7.059,23.203-6.182,34.895,0.708c22.998,13.556,46.289,26.613,69.331,40.096
			c7.842,4.588,11.231,12.279,11.303,21.006c0.231,28.326,0.231,56.656,0.019,84.983c-0.093,12.423-7.572,19.658-18.021,25.397
			c-21.938,12.051-43.396,24.972-65.177,37.315c-12.369,7.01-24.051,4.542-35.839-2.521c-21.651-12.973-43.637-25.389-65.586-37.856
			c-8.853-5.028-12.442-12.966-12.691-22.459C44.989,172.724,45.265,158.553,45.263,144.388z M240.839,144.601
			c0-13.641,0.155-27.284-0.056-40.922c-0.134-8.612-2.93-16.275-10.78-20.861c-22.774-13.307-45.753-26.267-68.465-39.676
			c-9.917-5.854-19.764-8.618-30.444-2.54C107.716,53.905,84.413,67.34,61.017,80.613c-8.799,4.992-13.744,12.329-13.797,22.438
			c-0.142,27.594-0.194,55.19,0.029,82.784c0.08,10.022,4.529,17.651,13.67,22.774c21.74,12.184,43.346,24.617,64.8,37.3
			c10.595,6.264,21.08,8.57,32.294,2.13c22.783-13.084,45.382-26.502,68.378-39.2c10.955-6.05,14.587-15.107,14.476-26.751
			C240.746,169.595,240.839,157.098,240.839,144.601z"/>
		<path class="st1" d="M240.839,144.601c0,12.497-0.093,24.994,0.027,37.488c0.111,11.644-3.521,20.701-14.476,26.751
			c-22.996,12.698-45.595,26.116-68.378,39.2c-11.214,6.44-21.699,4.134-32.294-2.13c-21.454-12.684-43.06-25.116-64.8-37.3
			c-9.141-5.124-13.59-12.752-13.67-22.774c-0.224-27.593-0.171-55.189-0.029-82.784c0.053-10.11,4.998-17.446,13.797-22.438
			c23.396-13.273,46.699-26.708,70.077-40.012c10.681-6.078,20.527-3.314,30.444,2.54c22.712,13.41,45.69,26.37,68.465,39.676
			c7.851,4.586,10.646,12.25,10.78,20.861C240.994,117.317,240.839,130.96,240.839,144.601z M56.757,194.422
			c2.23,2.327,4.079,5.303,6.752,6.877c20.68,12.186,41.429,24.259,62.365,35.996c5.735,3.216,12.035,6.591,18.345,7.219
			c4.497,0.448,9.667-3.171,14.146-5.675c22.258-12.455,44.393-25.134,66.56-37.75c5.754-3.274,8.714-8.412,8.741-14.88
			c0.119-27.803,0.141-55.607-0.1-83.41c-0.024-2.926-2.001-5.836-3.073-8.754c-1.791-1.905-3.258-4.366-5.423-5.631
			c-22.711-13.267-45.588-26.249-68.295-39.524c-7.426-4.341-14.396-6.611-22.69-1.728C110.08,61.297,85.683,74.771,61.878,89.226
			c-3.648,2.216-6.932,8.203-7.056,12.542c-0.796,27.961-0.75,55.947-0.718,83.924C54.108,188.603,55.831,191.511,56.757,194.422z"
			/>
		<path class="st3" d="M230.492,94.046c1.072,2.917,3.049,5.828,3.073,8.754c0.24,27.802,0.219,55.606,0.1,83.41
			c-0.027,6.468-2.987,11.606-8.741,14.88c-22.167,12.616-44.302,25.294-66.56,37.75c-4.479,2.504-9.648,6.123-14.146,5.675
			c-6.31-0.628-12.609-4.003-18.345-7.219c-20.937-11.736-41.686-23.81-62.365-35.996c-2.673-1.575-4.521-4.551-6.751-6.877
			c3.337-1.847,6.671-3.699,10.011-5.54c8.486-4.676,16.977-9.348,25.465-14.022c13.706,21.118,33.145,31.205,58.208,28.77
			c19.725-1.918,34.656-12.204,45.356-29.253c-8.824-5.112-17.298-10.021-25.91-15.009c-5.585,8.588-13.122,13.609-23.062,14.773
			c-11.573,1.356-26.149-6.454-28.608-15.318c0.491-0.124,1.042-0.141,1.463-0.385c16.667-9.642,33.322-19.303,49.979-28.961
			c8.642-4.968,17.282-9.937,25.924-14.904c1.444-0.814,2.904-1.603,4.332-2.446C210.111,106.105,220.302,100.074,230.492,94.046z
			 M189.884,159.737c1.728,0,3.202,0,4.753,0c0.364-2.854,0.7-5.485,1.034-8.099c1.675-0.13,2.991-0.232,4.337-0.338
			c0-1.547,0-2.912,0-4.296c-1.38-0.118-2.492-0.215-3.958-0.342c0.262-2.298,0.502-4.397,0.741-6.507
			c1.738-0.126,3.153-0.228,4.608-0.333c0-1.568,0-2.87,0-4.261c-1.45-0.188-2.732-0.354-4.05-0.525
			c0.155-2.598,0.294-4.917,0.431-7.201c-1.804,0-3.195,0-4.679,0c-0.33,2.546-0.633,4.879-0.936,7.21c-1.973,0-3.661,0-5.414,0
			c0.164-2.588,0.311-4.913,0.457-7.224c-1.792,0-3.187,0-4.654,0c-0.376,2.616-0.724,5.031-1.059,7.361
			c-1.686,0.125-2.987,0.221-4.22,0.312c0,1.648,0,2.943,0,4.376c1.313,0.098,2.412,0.18,3.864,0.289
			c-0.234,2.308-0.447,4.406-0.66,6.508c-1.772,0.153-3.171,0.275-4.521,0.391c0,1.616,0,2.911,0,4.21
			c1.411,0.174,2.598,0.321,3.986,0.493c-0.226,2.785-0.431,5.329-0.651,8.052c1.711,0,3.116,0,4.784,0
			c0.313-2.735,0.617-5.381,0.929-8.094c1.927,0,3.613,0,5.528,0C190.309,154.522,190.102,157.07,189.884,159.737z"/>
		<path class="st2" d="M230.492,94.046c-10.19,6.028-20.381,12.06-30.577,18.081c-1.428,0.843-2.888,1.632-4.333,2.445
			c-12.424-20.049-30.419-29.966-54.012-29.45c-30.913,0.676-57.152,25.493-58.031,57.879c-0.309,11.357,2.967,22.011,8.694,31.859
			c-8.488,4.674-16.979,9.347-25.465,14.022c-3.34,1.841-6.674,3.692-10.011,5.54c-0.927-2.911-2.649-5.819-2.653-8.73
			c-0.032-27.977-0.078-55.963,0.718-83.924c0.124-4.338,3.407-10.325,7.056-12.542c23.805-14.455,48.202-27.929,72.206-42.062
			c8.295-4.884,15.265-2.614,22.69,1.728c22.707,13.275,45.584,26.257,68.295,39.524C227.234,89.68,228.701,92.141,230.492,94.046z"
			/>
		<path class="st1" d="M92.233,174.86c-5.728-9.848-9.003-20.501-8.694-31.859c0.879-32.387,27.118-57.203,58.031-57.879
			c23.593-0.516,41.588,9.401,54.012,29.45c-8.641,4.969-17.281,9.937-25.923,14.905c-11.223-17.439-33.891-19.848-47.784-5.079
			c-8.82,9.377-10.618,26.304-3.657,34.424c2.459,8.865,17.035,16.675,28.608,15.318c9.939-1.164,17.477-6.186,23.062-14.773
			c8.612,4.988,17.086,9.896,25.91,15.009c-10.7,17.049-25.632,27.334-45.356,29.253C125.378,206.065,105.939,195.978,92.233,174.86
			z"/>
		<path class="st2" d="M118.218,158.823c-6.961-8.12-5.163-25.047,3.657-34.424c13.894-14.77,36.562-12.361,47.784,5.079
			c-16.656,9.658-33.312,19.319-49.979,28.961C119.26,158.682,118.709,158.699,118.218,158.823z"/>
		<path class="st1" d="M189.884,159.737c0.218-2.667,0.425-5.215,0.652-8.018c-1.915,0-3.602,0-5.528,0
			c-0.312,2.713-0.615,5.359-0.929,8.094c-1.668,0-3.073,0-4.784,0c0.221-2.723,0.426-5.267,0.651-8.052
			c-1.389-0.171-2.575-0.318-3.986-0.493c0-1.299,0-2.594,0-4.21c1.35-0.116,2.748-0.238,4.521-0.391
			c0.213-2.102,0.426-4.201,0.66-6.508c-1.452-0.108-2.552-0.19-3.864-0.289c0-1.433,0-2.728,0-4.376
			c1.232-0.091,2.534-0.187,4.22-0.312c0.335-2.331,0.683-4.745,1.059-7.361c1.468,0,2.862,0,4.654,0
			c-0.146,2.311-0.293,4.636-0.457,7.224c1.753,0,3.441,0,5.414,0c0.303-2.332,0.605-4.665,0.936-7.21c1.483,0,2.875,0,4.679,0
			c-0.137,2.284-0.275,4.604-0.431,7.201c1.317,0.171,2.6,0.337,4.05,0.525c0,1.392,0,2.693,0,4.261
			c-1.455,0.106-2.87,0.208-4.608,0.333c-0.239,2.11-0.479,4.208-0.741,6.507c1.466,0.127,2.578,0.224,3.958,0.342
			c0,1.385,0,2.75,0,4.296c-1.346,0.105-2.662,0.208-4.337,0.338c-0.334,2.614-0.67,5.246-1.034,8.099
			C193.086,159.737,191.611,159.737,189.884,159.737z M186.132,140.171c-0.22,2.292-0.413,4.306-0.619,6.452
			c2.032,0,3.719,0,5.644,0c0.173-2.226,0.33-4.245,0.501-6.452C189.735,140.171,188.119,140.171,186.132,140.171z"/>
		<path class="st3" d="M186.132,140.171c1.987,0,3.604,0,5.525,0c-0.171,2.208-0.328,4.226-0.501,6.452c-1.925,0-3.611,0-5.644,0
			C185.719,144.477,185.912,142.463,186.132,140.171z"/>
	</g>
</g>
<g id="circles">
	<circle class="st4" cx="144" cy="144.604" r="142.2"/>
</g>
</svg>
