<?xml version="1.0" encoding="utf-8"?>
<!-- Generator: Adobe Illustrator 16.0.0, SVG Export Plug-In . SVG Version: 6.00 Build 0)  -->
<!DOCTYPE svg PUBLIC "-//W3C//DTD SVG 1.1//EN" "http://www.w3.org/Graphics/SVG/1.1/DTD/svg11.dtd">
<svg version="1.1" id="Layer_1" xmlns="http://www.w3.org/2000/svg" xmlns:xlink="http://www.w3.org/1999/xlink" x="0px" y="0px"
	 width="324px" height="324px" viewBox="0 0 324 324" enable-background="new 0 0 324 324" xml:space="preserve">
<g id="Layer_1_1_">
	<g>
		<path fill="#DEDEDE" d="M76.75,150.507c-0.002-11.497,0.15-22.996-0.045-34.489c-0.188-11.102,4.759-18.606,14.425-23.954
			c19.271-10.661,38.361-21.658,57.342-32.829c10.507-6.185,20.328-5.417,30.57,0.62c20.148,11.876,40.555,23.315,60.742,35.128
			c6.871,4.02,9.839,10.757,9.902,18.403c0.202,24.817,0.202,49.636,0.017,74.453c-0.08,10.884-6.632,17.223-15.787,22.251
			c-19.22,10.558-38.019,21.877-57.103,32.69c-10.838,6.141-21.071,3.979-31.397-2.209c-18.968-11.365-38.23-22.243-57.459-33.164
			c-7.756-4.403-10.901-11.359-11.119-19.676C76.51,175.332,76.752,162.916,76.75,150.507z M248.093,150.694
			c0-11.952,0.137-23.904-0.048-35.851c-0.118-7.545-2.567-14.259-9.445-18.277c-19.951-11.658-40.084-23.012-59.981-34.759
			c-8.688-5.129-17.316-7.551-26.672-2.226c-20.481,11.654-40.897,23.424-61.394,35.053c-7.709,4.374-12.042,10.801-12.087,19.657
			c-0.125,24.176-0.171,48.352,0.025,72.528c0.07,8.779,3.968,15.464,11.976,19.951c19.047,10.675,37.976,21.568,56.771,32.679
			c9.282,5.488,18.468,7.507,28.293,1.865c19.959-11.462,39.759-23.218,59.905-34.342c9.598-5.301,12.78-13.235,12.684-23.437
			C248.013,172.591,248.093,161.642,248.093,150.694z"/>
		<path fill="#FEFEFE" d="M248.093,150.694c0,10.948-0.08,21.897,0.025,32.842c0.096,10.2-3.085,18.137-12.683,23.436
			c-20.146,11.126-39.947,22.881-59.907,34.344c-9.825,5.642-19.011,3.621-28.293-1.867c-18.795-11.11-37.724-22.002-56.771-32.679
			c-8.008-4.487-11.906-11.172-11.976-19.951c-0.196-24.174-0.15-48.351-0.025-72.526c0.047-8.857,4.378-15.285,12.087-19.658
			c20.498-11.628,40.913-23.398,61.394-35.054c9.358-5.325,17.984-2.904,26.673,2.226c19.897,11.748,40.027,23.102,59.98,34.759
			c6.88,4.018,9.328,10.732,9.445,18.277C248.229,126.79,248.093,138.742,248.093,150.694z M86.82,194.34
			c1.954,2.04,3.574,4.647,5.915,6.025c18.118,10.677,36.296,21.255,54.639,31.537c5.024,2.818,10.543,5.774,16.072,6.324
			c3.939,0.394,8.47-2.778,12.394-4.972c19.5-10.912,38.892-22.021,58.313-33.073c5.042-2.869,7.634-7.369,7.657-13.036
			c0.105-24.358,0.124-48.717-0.087-73.075c-0.021-2.563-1.753-5.114-2.692-7.67c-1.568-1.669-2.855-3.825-4.751-4.933
			c-19.896-11.623-39.939-22.997-59.833-34.627c-6.505-3.803-12.612-5.792-19.879-1.514c-21.03,12.383-42.404,24.188-63.26,36.852
			c-3.196,1.941-6.073,7.187-6.182,10.988c-0.697,24.497-0.657,49.015-0.629,73.524C84.499,189.244,86.009,191.791,86.82,194.34z"/>
		<path fill="#34037C" d="M239.029,106.402c0.939,2.555,2.671,5.106,2.69,7.669c0.211,24.357,0.193,48.716,0.089,73.076
			c-0.023,5.666-2.617,10.166-7.658,13.034c-19.421,11.055-38.813,22.161-58.313,33.073c-3.924,2.194-8.453,5.365-12.395,4.974
			c-5.527-0.552-11.045-3.508-16.071-6.325c-18.343-10.282-36.521-20.86-54.639-31.536c-2.341-1.38-3.96-3.987-5.914-6.025
			c2.924-1.618,5.845-3.239,8.771-4.854c7.435-4.096,14.874-8.188,22.31-12.283c12.008,18.5,29.038,27.339,50.996,25.206
			c17.281-1.681,30.362-10.692,39.734-25.629c-7.729-4.479-15.153-8.779-22.698-13.148c-4.895,7.523-11.495,11.922-20.205,12.941
			c-10.139,1.187-22.909-5.655-25.064-13.419c0.431-0.109,0.914-0.124,1.283-0.338c14.601-8.449,29.192-16.911,43.786-25.373
			c7.57-4.353,15.141-8.707,22.712-13.058c1.265-0.713,2.543-1.404,3.795-2.143C221.173,116.967,230.102,111.684,239.029,106.402z
			 M203.451,163.953c1.514,0,2.806,0,4.164,0c0.319-2.5,0.614-4.804,0.906-7.094c1.468-0.115,2.621-0.203,3.8-0.297
			c0-1.355,0-2.549,0-3.764c-1.209-0.103-2.184-0.188-3.467-0.299c0.229-2.013,0.439-3.852,0.648-5.701
			c1.522-0.11,2.763-0.2,4.037-0.292c0-1.374,0-2.514,0-3.732c-1.271-0.166-2.394-0.311-3.547-0.46
			c0.134-2.276,0.257-4.308,0.376-6.309c-1.579,0-2.799,0-4.099,0c-0.288,2.23-0.556,4.275-0.821,6.317c-1.73,0-3.208,0-4.742,0
			c0.143-2.268,0.272-4.304,0.399-6.329c-1.569,0-2.792,0-4.076,0c-0.33,2.292-0.635,4.408-0.929,6.45
			c-1.479,0.109-2.617,0.193-3.697,0.273c0,1.444,0,2.579,0,3.833c1.15,0.086,2.113,0.158,3.384,0.253
			c-0.204,2.021-0.391,3.859-0.578,5.702c-1.551,0.134-2.777,0.24-3.96,0.343c0,1.415,0,2.55,0,3.688
			c1.236,0.152,2.276,0.282,3.492,0.433c-0.198,2.438-0.377,4.667-0.569,7.054c1.497,0,2.729,0,4.19,0
			c0.274-2.395,0.54-4.714,0.813-7.092c1.688,0,3.165,0,4.843,0C203.824,159.385,203.643,161.618,203.451,163.953z"/>
		<path fill="#9E74D9" d="M239.029,106.402c-8.928,5.281-17.856,10.566-26.789,15.841c-1.252,0.739-2.529,1.43-3.796,2.142
			c-10.885-17.565-26.65-26.253-47.32-25.801c-27.082,0.592-50.071,22.334-50.84,50.708c-0.271,9.949,2.599,19.284,7.617,27.91
			c-7.437,4.098-14.875,8.19-22.31,12.284c-2.926,1.614-5.847,3.235-8.771,4.854c-0.812-2.551-2.321-5.097-2.324-7.648
			c-0.028-24.51-0.068-49.027,0.629-73.524c0.109-3.8,2.985-9.045,6.182-10.988c20.855-12.664,42.229-24.469,63.259-36.85
			c7.268-4.279,13.375-2.291,19.878,1.514c19.895,11.63,39.938,23.003,59.833,34.627
			C236.174,102.578,237.46,104.734,239.029,106.402z"/>
		<path fill="#FEFEFE" d="M117.9,177.202c-5.018-8.627-7.888-17.96-7.617-27.91c0.77-28.375,23.758-50.115,50.84-50.708
			c20.67-0.452,36.436,8.236,47.32,25.801c-7.569,4.353-15.141,8.705-22.711,13.058c-9.834-15.278-29.693-17.389-41.863-4.45
			c-7.728,8.215-9.303,23.044-3.205,30.159c2.155,7.766,14.924,14.607,25.063,13.42c8.709-1.021,15.312-5.42,20.206-12.942
			c7.544,4.369,14.969,8.669,22.698,13.148c-9.374,14.937-22.455,23.946-39.736,25.629
			C146.938,204.541,129.908,195.704,117.9,177.202z"/>
		<path fill="#9E74D9" d="M140.666,163.154c-6.099-7.115-4.523-21.944,3.205-30.159c12.173-12.94,32.031-10.83,41.863,4.45
			c-14.593,8.462-29.185,16.925-43.786,25.373C141.578,163.029,141.096,163.046,140.666,163.154z"/>
		<path fill="#FEFEFE" d="M203.451,163.953c0.191-2.335,0.373-4.568,0.572-7.023c-1.678,0-3.156,0-4.843,0
			c-0.274,2.377-0.539,4.694-0.814,7.091c-1.461,0-2.692,0-4.192,0c0.194-2.387,0.374-4.615,0.571-7.055
			c-1.217-0.149-2.256-0.278-3.492-0.432c0-1.138,0-2.272,0-3.688c1.184-0.103,2.408-0.208,3.961-0.343
			c0.187-1.842,0.374-3.681,0.578-5.702c-1.271-0.095-2.236-0.167-3.384-0.253c0-1.255,0-2.39,0-3.833
			c1.077-0.08,2.219-0.164,3.697-0.273c0.293-2.042,0.599-4.158,0.929-6.45c1.286,0,2.506,0,4.076,0
			c-0.129,2.025-0.257,4.062-0.401,6.329c1.536,0,3.014,0,4.744,0c0.267-2.042,0.529-4.087,0.821-6.317c1.298,0,2.519,0,4.099,0
			c-0.121,2.001-0.241,4.034-0.376,6.309c1.151,0.15,2.276,0.295,3.546,0.46c0,1.219,0,2.359,0,3.732
			c-1.275,0.093-2.514,0.182-4.036,0.292c-0.209,1.849-0.419,3.687-0.649,5.701c1.284,0.111,2.259,0.196,3.468,0.299
			c0,1.214,0,2.41,0,3.764c-1.18,0.091-2.332,0.183-3.801,0.297c-0.291,2.29-0.587,4.596-0.905,7.094
			C206.257,163.953,204.965,163.953,203.451,163.953z M200.165,146.812c-0.192,2.008-0.362,3.772-0.542,5.653
			c1.779,0,3.258,0,4.946,0c0.151-1.951,0.287-3.719,0.438-5.653C203.321,146.812,201.905,146.812,200.165,146.812z"/>
		<path fill="#34037C" d="M200.165,146.812c1.74,0,3.158,0,4.841,0c-0.149,1.934-0.287,3.702-0.438,5.653c-1.688,0-3.165,0-4.947,0
			C199.803,150.585,199.973,148.82,200.165,146.812z"/>
	</g>
</g>
<g id="circles">
	<g>
		<path fill="#34037C" d="M163.254,20.494c34.777,0,67.475,13.543,92.064,38.135c24.593,24.591,38.136,57.288,38.136,92.065
			c0,34.778-13.543,67.476-38.136,92.065c-24.592,24.592-57.287,38.136-92.064,38.136c-34.777,0-67.474-13.543-92.065-38.136
			c-24.592-24.59-38.135-57.289-38.135-92.065c0-34.777,13.543-67.473,38.135-92.065C95.781,34.037,128.477,20.494,163.254,20.494
			 M163.254,8.494c-78.535,0-142.2,63.666-142.2,142.2c0,78.535,63.665,142.201,142.2,142.201s142.2-63.666,142.2-142.201
			C305.454,72.16,241.789,8.494,163.254,8.494L163.254,8.494z"/>
	</g>
</g>
</svg>
