<?xml version="1.0" encoding="utf-8"?>
<!-- Generator: Adobe Illustrator 16.0.0, SVG Export Plug-In . SVG Version: 6.00 Build 0)  -->
<!DOCTYPE svg PUBLIC "-//W3C//DTD SVG 1.1//EN" "http://www.w3.org/Graphics/SVG/1.1/DTD/svg11.dtd">
<svg version="1.1" xmlns="http://www.w3.org/2000/svg" xmlns:xlink="http://www.w3.org/1999/xlink" x="0px" y="0px" width="288px"
	 height="288px" viewBox="0 0 288 288" style="enable-background:new 0 0 288 288;" xml:space="preserve">
<style type="text/css">
<![CDATA[
	.st0{fill-rule:evenodd;clip-rule:evenodd;fill:#1673B5;}
	.st1{fill-rule:evenodd;clip-rule:evenodd;fill:#EAEAEA;}
	.st2{fill-rule:evenodd;clip-rule:evenodd;fill:#FDFDFD;}
	.st3{fill-rule:evenodd;clip-rule:evenodd;fill:#35A8DA;}
	.st4{fill-rule:evenodd;clip-rule:evenodd;fill:none;stroke:#000000;stroke-width:3;}
]]>
</style>
<g id="Layer_1">
	<g>
		<path class="st0" d="M63.294,60.367c0-0.606,0-1.21,0-1.816c30.918-0.001,61.835-0.005,92.754-0.005
			c22.885,0,45.772,0.004,68.657,0.005c0,0.606,0,1.21,0,1.816c-0.337,0.203-0.19,0.543-0.218,0.82
			c-0.431,4.719-0.851,9.438-1.274,14.158c-0.578,6.459-1.159,12.917-1.734,19.377c-0.5,5.589-0.994,11.18-1.492,16.769
			c-0.579,6.46-1.161,12.918-1.737,19.378c-0.5,5.589-0.991,11.179-1.492,16.77c-0.576,6.46-1.16,12.918-1.737,19.378
			c-0.499,5.588-0.989,11.179-1.491,16.768c-0.573,6.427-1.159,12.852-1.732,19.276c-0.565,6.361-1.133,12.72-1.673,19.081
			c-0.068,0.808-0.348,1.185-1.181,1.416c-21.417,5.902-42.825,11.84-64.229,17.782c-0.574,0.161-1.096,0.148-1.663-0.011
			c-21.176-5.889-42.355-11.768-63.533-17.652c-1.594-0.442-1.559-0.454-1.699-2.138c-0.34-4.118-0.709-8.235-1.076-12.349
			c-0.575-6.428-1.162-12.853-1.735-19.28c-0.571-6.392-1.125-12.787-1.697-19.179c-0.64-7.162-1.293-14.323-1.932-21.486
			c-0.569-6.393-1.122-12.789-1.69-19.181c-0.64-7.162-1.299-14.324-1.938-21.486c-0.637-7.164-1.26-14.327-1.896-21.489
			c-0.651-7.331-1.29-14.663-1.98-21.988C63.721,63.522,63.793,61.907,63.294,60.367z M143.993,131.607
			c-0.401,0.021-0.804,0.058-1.204,0.059c-7.194,0.002-14.387,0-21.58,0.008c-0.387,0-0.802-0.122-1.229,0.178
			c0.599,6.648,1.199,13.321,1.807,20.053c0.508,0,0.871,0,1.238,0c5.211,0,10.421-0.004,15.629,0.003
			c1.781,0.002,3.562,0.034,5.341,0.052c0.002,10.7,0.004,21.402,0.005,32.103c-0.133-0.004-0.271,0.019-0.397-0.014
			c-7.158-1.929-14.311-3.87-21.472-5.783c-0.558-0.149-0.653-0.47-0.693-0.934c-0.28-3.314-0.565-6.626-0.857-9.937
			c-0.156-1.766-0.326-3.529-0.497-5.329c-6.779,0-13.48,0-20.2,0c0,0.354-0.024,0.65,0.002,0.943
			c0.448,5.082,0.901,10.168,1.358,15.25c0.443,4.882,0.905,9.763,1.319,14.648c0.055,0.66,0.324,0.88,0.921,1.044
			c8.731,2.402,17.456,4.827,26.181,7.256c4.78,1.332,9.555,2.686,14.331,4.03c0,7.375,0,14.745,0,22.025
			c0.447,0.202,0.664,0.099,0.89,0.035c3.848-1.062,7.696-2.111,11.543-3.18c13.345-3.702,26.685-7.417,40.037-11.099
			c0.753-0.207,1.117-0.498,1.014-1.287c-0.028-0.198,0.012-0.403,0.031-0.604c0.32-3.532,0.647-7.065,0.967-10.595
			c0.158-1.734,0.295-3.47,0.453-5.204c0.247-2.699,0.513-5.396,0.755-8.096c0.227-2.533,0.426-5.069,0.65-7.604
			c0.247-2.766,0.516-5.529,0.763-8.296c0.225-2.535,0.422-5.071,0.646-7.605c0.247-2.8,0.517-5.598,0.769-8.398
			c0.156-1.733,0.294-3.468,0.452-5.203c0.248-2.698,0.513-5.396,0.754-8.094c0.229-2.535,0.426-5.071,0.654-7.606
			c0.243-2.732,0.516-5.463,0.759-8.195c0.227-2.568,0.424-5.139,0.648-7.707c0.246-2.8,0.515-5.598,0.768-8.396
			c0.222-2.469,0.43-4.937,0.652-7.403c0.249-2.734,0.514-5.464,0.755-8.198c0.229-2.568,0.426-5.137,0.657-7.705
			c0.24-2.701,0.514-5.397,0.756-8.096c0.163-1.799,0.264-3.607,0.457-5.404c0.138-1.268,0.187-1.264-1.092-1.264
			c-21.186,0-42.369,0.005-63.552-0.018c-0.896,0-1.213,0.196-1.205,1.16c0.046,5.85,0.023,11.702,0.025,17.552
			c-0.437,0.019-0.87,0.052-1.306,0.052c-15.962,0.001-31.925,0-47.886,0.007c-0.422,0.002-0.871-0.127-1.342,0.185
			c0.595,6.618,1.188,13.264,1.783,19.875c0.469,0.208,0.876,0.124,1.271,0.124c15.425,0.006,30.849,0.004,46.272,0.007
			c0.403,0,0.806,0.026,1.207,0.039C143.999,117.897,143.997,124.753,143.993,131.607z"/>
		<path class="st3" d="M144,90.754c0-5.85,0.022-11.702-0.023-17.552c-0.008-0.964,0.31-1.16,1.205-1.16
			c21.183,0.023,42.366,0.018,63.552,0.018c1.278,0,1.229-0.004,1.092,1.264c-0.193,1.797-0.294,3.605-0.457,5.404
			c-0.242,2.699-0.516,5.395-0.756,8.096c-0.231,2.568-0.429,5.137-0.657,7.705c-0.241,2.734-0.506,5.463-0.755,8.198
			c-0.223,2.466-0.431,4.934-0.652,7.403c-0.253,2.798-0.521,5.596-0.768,8.396c-0.225,2.568-0.422,5.139-0.648,7.707
			c-0.243,2.732-0.516,5.463-0.759,8.195c-0.229,2.535-0.426,5.071-0.654,7.606c-0.241,2.698-0.506,5.396-0.754,8.094
			c-0.158,1.735-0.296,3.47-0.452,5.203c-0.252,2.8-0.521,5.598-0.769,8.398c-0.225,2.535-0.422,5.071-0.646,7.605
			c-0.247,2.767-0.516,5.53-0.763,8.296c-0.225,2.535-0.424,5.071-0.65,7.604c-0.242,2.701-0.508,5.397-0.755,8.096
			c-0.158,1.734-0.295,3.47-0.453,5.204c-0.319,3.53-0.646,7.063-0.967,10.595c-0.02,0.2-0.06,0.405-0.031,0.604
			c0.104,0.789-0.261,1.08-1.014,1.287c-13.353,3.682-26.692,7.396-40.037,11.099c-3.847,1.068-7.695,2.118-11.543,3.18
			c-0.226,0.063-0.442,0.167-0.89-0.035c0-7.28,0-14.65,0-22.025c0.073-0.05,0.146-0.102,0.219-0.151
			c0.23-0.044,0.467-0.074,0.69-0.136c7.085-1.966,14.166-3.936,21.25-5.902c6.145-1.704,12.294-3.4,18.44-5.104
			c0.435-0.12,0.905-0.13,0.96-0.805c0.317-3.885,0.674-7.766,1.018-11.647c0.427-4.821,0.843-9.64,1.281-14.458
			c0.487-5.352,1.008-10.701,1.484-16.054c0.461-5.154,0.869-10.312,1.327-15.463c0.635-7.163,1.298-14.32,1.942-21.482
			c0.598-6.624,1.188-13.25,1.778-19.876c0.097-1.086,0.167-2.177,0.255-3.352c-0.425,0-0.722,0-1.019,0
			c-16.24,0-32.48,0-48.722,0.001c-0.302,0-0.604,0.033-0.903,0.05C143.997,90.825,143.999,90.79,144,90.754z"/>
		<path class="st1" d="M144.214,205.087c-0.073,0.049-0.146,0.101-0.219,0.151c-4.776-1.344-9.551-2.698-14.331-4.03
			c-8.725-2.43-17.449-4.854-26.181-7.256c-0.597-0.164-0.866-0.385-0.921-1.044c-0.414-4.885-0.876-9.766-1.319-14.648
			c-0.457-5.082-0.91-10.168-1.358-15.25c-0.026-0.293-0.002-0.59-0.002-0.943c6.72,0,13.421,0,20.2,0
			c0.171,1.799,0.341,3.563,0.497,5.329c0.292,3.311,0.577,6.623,0.857,9.937c0.04,0.464,0.136,0.784,0.693,0.934
			c7.161,1.913,14.313,3.854,21.472,5.783c0.126,0.033,0.265,0.01,0.397,0.014c0.068,0.026,0.139,0.052,0.207,0.077
			C144.21,191.123,144.21,198.106,144.214,205.087z"/>
		<path class="st1" d="M144.002,111.043c-0.401-0.013-0.804-0.039-1.207-0.039c-15.424-0.003-30.848-0.001-46.272-0.007
			c-0.395,0-0.802,0.084-1.271-0.124c-0.595-6.611-1.188-13.257-1.783-19.875c0.471-0.312,0.92-0.183,1.342-0.185
			c15.961-0.007,31.924-0.005,47.886-0.007c0.436,0,0.869-0.034,1.304-0.052c-0.001,0.035-0.003,0.07-0.003,0.105
			c-0.002,6.699-0.002,13.397-0.004,20.096L144.002,111.043z"/>
		<path class="st3" d="M144.207,184.14c-0.068-0.025-0.139-0.051-0.207-0.077c-0.001-10.701-0.003-21.402-0.005-32.103
			c0-0.052-0.005-0.102-0.008-0.153c0.387,0.169,0.796,0.095,1.194,0.095c7.491,0.005,14.984,0.002,22.476,0.009
			c0.388,0.002,0.806-0.118,1.17,0.159c0,0.338,0.023,0.672-0.005,1.002c-0.262,3.01-0.534,6.02-0.806,9.028
			c-0.45,4.98-0.932,9.959-1.324,14.944c-0.07,0.899-0.457,1.153-1.212,1.356C158.384,180.296,151.297,182.223,144.207,184.14z"/>
		<path class="st3" d="M143.993,131.607c0.004-6.854,0.006-13.71,0.009-20.564l-0.009-0.087c0.401,0.015,0.805,0.044,1.207,0.044
			c8.703,0.002,17.408,0,26.111,0.007c0.396,0,0.807-0.092,1.23,0.112c-0.011,0.155-0.014,0.315-0.027,0.478
			c-0.557,6.319-1.14,12.639-1.653,18.965c-0.07,0.87-0.304,1.118-1.182,1.115c-8.132-0.034-16.265-0.021-24.398-0.016
			c-0.431,0-0.874-0.084-1.291,0.104C143.987,131.712,143.99,131.661,143.993,131.607z"/>
		<path class="st1" d="M143.995,151.96c-1.779-0.019-3.56-0.05-5.341-0.052c-5.208-0.007-10.418-0.003-15.629-0.003
			c-0.367,0-0.73,0-1.238,0c-0.607-6.731-1.208-13.405-1.807-20.053c0.427-0.3,0.842-0.178,1.229-0.178
			c7.193-0.008,14.386-0.005,21.58-0.008c0.4-0.001,0.803-0.039,1.204-0.059c-0.003,0.054-0.006,0.105-0.003,0.157
			c-0.003,6.683-0.003,13.364-0.003,20.043C143.99,151.858,143.995,151.908,143.995,151.96z"/>
		<path class="st2" d="M143.987,151.807c0-6.68,0-13.36,0.003-20.043c0.417-0.186,0.86-0.102,1.291-0.102
			c8.134-0.005,16.267-0.018,24.398,0.016c0.878,0.003,1.111-0.246,1.182-1.115c0.514-6.326,1.097-12.646,1.653-18.965
			c0.014-0.163,0.017-0.323,0.027-0.478c-0.424-0.205-0.835-0.112-1.23-0.112C162.608,111,153.903,111.002,145.2,111
			c-0.402,0-0.806-0.03-1.207-0.044c0.002-6.699,0.002-13.397,0.004-20.096c0.3-0.017,0.602-0.05,0.903-0.05
			c16.241-0.001,32.481-0.001,48.722-0.001c0.297,0,0.594,0,1.019,0c-0.088,1.175-0.158,2.266-0.255,3.352
			c-0.59,6.626-1.181,13.252-1.778,19.876c-0.645,7.162-1.308,14.319-1.942,21.482c-0.458,5.152-0.866,10.31-1.327,15.463
			c-0.477,5.353-0.997,10.702-1.484,16.054c-0.438,4.818-0.854,9.637-1.281,14.458c-0.344,3.881-0.7,7.762-1.018,11.647
			c-0.055,0.674-0.525,0.685-0.96,0.805c-6.146,1.704-12.296,3.4-18.44,5.104c-7.084,1.966-14.165,3.936-21.25,5.902
			c-0.224,0.062-0.46,0.092-0.69,0.136c-0.004-6.981-0.004-13.964-0.007-20.948c7.09-1.917,14.177-3.844,21.273-5.739
			c0.755-0.203,1.142-0.457,1.212-1.356c0.393-4.985,0.874-9.964,1.324-14.944c0.271-3.008,0.544-6.018,0.806-9.028
			c0.028-0.33,0.005-0.664,0.005-1.002c-0.364-0.276-0.782-0.156-1.17-0.159c-7.491-0.007-14.984-0.004-22.476-0.009
			C144.783,151.902,144.374,151.977,143.987,151.807z"/>
	</g>
</g>
<g id="circle">
	<circle class="st4" cx="144" cy="144" r="142.2"/>
</g>
</svg>
