<?xml version="1.0" encoding="utf-8"?>
<!-- Generator: Adobe Illustrator 16.0.0, SVG Export Plug-In . SVG Version: 6.00 Build 0)  -->
<!DOCTYPE svg PUBLIC "-//W3C//DTD SVG 1.1//EN" "http://www.w3.org/Graphics/SVG/1.1/DTD/svg11.dtd">
<svg version="1.1" id="Layer_1" xmlns="http://www.w3.org/2000/svg" xmlns:xlink="http://www.w3.org/1999/xlink" x="0px" y="0px"
	 width="324.082px" height="324.082px" viewBox="0 0 324.082 324.082" enable-background="new 0 0 324.082 324.082"
	 xml:space="preserve">
<g id="Layer_1_1_">
	<g>
		<path fill="#020101" d="M126.871,95.101c-0.228,0.204-0.43,0.367-0.612,0.551c-19.035,19.029-38.079,38.05-57.092,57.098
			c-5.318,5.329-5.253,12.9,0.061,18.22c2.68,2.684,5.37,5.356,8.052,8.037c25.338,25.335,50.674,50.671,76.016,76.001
			c0.47,0.468,0.958,0.928,1.491,1.319c5.174,3.81,11.854,3.241,16.503-1.406c27.931-27.925,55.861-55.854,83.791-83.781
			c5.031-5.032,5.066-12.765,0.047-17.788c-28.009-28.026-56.027-56.043-84.046-84.062c-0.352-0.353-0.705-0.709-1.086-1.03
			c-2.816-2.367-6.041-3.356-9.713-2.913c-3.001,0.363-5.461,1.726-7.571,3.845c-5.515,5.542-11.054,11.06-16.578,16.593
			c-0.203,0.203-0.484,0.359-0.54,0.799c7.212,7.189,14.472,14.421,21.714,21.667c0.385,0.386,0.733,0.338,1.163,0.205
			c1.872-0.579,3.803-0.706,5.722-0.484c9.032,1.041,14.954,9.776,12.607,18.587c-0.199,0.746-0.096,1.191,0.447,1.731
			c6.723,6.688,13.427,13.394,20.112,20.118c0.475,0.479,0.874,0.521,1.478,0.354c9.04-2.496,17.895,3.667,18.747,13.029
			c0.869,9.499-7.589,17.44-16.996,15.961c-9.218-1.45-14.813-10.741-11.777-19.602c0.211-0.613,0.077-0.947-0.349-1.372
			c-6.247-6.223-12.476-12.461-18.715-18.691c-0.17-0.168-0.287-0.464-0.634-0.413c-0.02,0.1-0.054,0.192-0.054,0.284
			c-0.003,17.134,0,34.269-0.018,51.401c0,0.568,0.266,0.786,0.701,1.051c5.416,3.29,8.023,8.089,7.488,14.435
			c-0.752,8.875-9.51,15.081-18.184,12.967c-6.11-1.491-10.624-6.598-11.339-12.831c-0.704-6.141,2.553-12.122,8.212-14.917
			c0.762-0.378,0.956-0.789,0.955-1.571c-0.019-16.934-0.022-33.869,0.004-50.805c0.002-0.874-0.227-1.314-1.046-1.724
			c-6.671-3.326-9.807-11.048-7.361-18.06c0.245-0.706,0.142-1.122-0.379-1.64c-6.837-6.807-13.652-13.638-20.473-20.461
			C127.389,95.571,127.143,95.354,126.871,95.101z"/>
		<path fill="#F05333" d="M126.871,95.101c0.271,0.252,0.518,0.47,0.749,0.701c6.821,6.824,13.636,13.655,20.474,20.461
			c0.522,0.519,0.625,0.934,0.379,1.64c-2.446,7.012,0.69,14.734,7.361,18.06c0.819,0.41,1.048,0.849,1.046,1.724
			c-0.027,16.936-0.023,33.871-0.004,50.805c0,0.782-0.193,1.195-0.955,1.571c-5.66,2.795-8.917,8.776-8.212,14.917
			c0.715,6.233,5.229,11.341,11.34,12.831c8.673,2.114,17.432-4.092,18.182-12.967c0.536-6.346-2.072-11.145-7.487-14.435
			c-0.435-0.265-0.7-0.482-0.7-1.051c0.018-17.133,0.014-34.267,0.018-51.401c0-0.092,0.033-0.185,0.053-0.284
			c0.347-0.052,0.465,0.244,0.635,0.413c6.238,6.23,12.468,12.468,18.714,18.691c0.426,0.425,0.559,0.759,0.35,1.372
			c-3.038,8.86,2.559,18.151,11.776,19.602c9.408,1.479,17.865-6.462,16.996-15.961c-0.854-9.362-9.707-15.524-18.746-13.029
			c-0.605,0.167-1.005,0.124-1.479-0.354c-6.685-6.725-13.389-13.432-20.111-20.118c-0.543-0.541-0.646-0.986-0.448-1.731
			c2.349-8.811-3.573-17.546-12.605-18.587c-1.92-0.222-3.851-0.095-5.723,0.484c-0.43,0.133-0.777,0.181-1.163-0.205
			c-7.243-7.247-14.502-14.478-21.714-21.667c0.055-0.44,0.335-0.597,0.539-0.799c5.524-5.533,11.063-11.05,16.578-16.593
			c2.111-2.12,4.57-3.481,7.571-3.845c3.671-0.443,6.897,0.545,9.714,2.913c0.38,0.321,0.733,0.677,1.085,1.03
			c28.018,28.019,56.038,56.036,84.047,84.062c5.02,5.024,4.982,12.756-0.049,17.788c-27.929,27.928-55.859,55.856-83.79,83.781
			c-4.648,4.647-11.329,5.216-16.502,1.406c-0.532-0.392-1.022-0.852-1.491-1.319c-25.342-25.331-50.679-50.666-76.017-76.001
			c-2.683-2.681-5.372-5.354-8.052-8.037c-5.315-5.319-5.379-12.891-0.061-18.22c19.013-19.048,38.058-38.069,57.092-57.098
			C126.441,95.468,126.644,95.305,126.871,95.101z"/>
	</g>
</g>
<g id="circle">
	<circle fill="none" stroke="#020101" stroke-width="12" stroke-miterlimit="10" cx="162.041" cy="162.04" r="142.2"/>
</g>
</svg>
