<?xml version="1.0" encoding="utf-8"?>
<!-- Generator: Adobe Illustrator 16.0.0, SVG Export Plug-In . SVG Version: 6.00 Build 0)  -->
<!DOCTYPE svg PUBLIC "-//W3C//DTD SVG 1.1//EN" "http://www.w3.org/Graphics/SVG/1.1/DTD/svg11.dtd">
<svg version="1.1" xmlns="http://www.w3.org/2000/svg" xmlns:xlink="http://www.w3.org/1999/xlink" x="0px" y="0px"
	 width="324.081px" height="324.081px" viewBox="0 0 324.081 324.081" style="enable-background:new 0 0 324.081 324.081;"
	 xml:space="preserve">
<style type="text/css">
<![CDATA[
	.st0{fill-rule:evenodd;clip-rule:evenodd;fill:none;stroke:#020101;stroke-width:12;stroke-miterlimit:10;}
	.st1{fill-rule:evenodd;clip-rule:evenodd;fill:#F05333;}
	.st2{fill-rule:evenodd;clip-rule:evenodd;fill:#020101;}
]]>
</style>
<g id="Layer_1">
	<g>
		<path class="st2" d="M121.422,84.731c-0.263,0.236-0.496,0.424-0.707,0.636c-21.983,21.977-43.977,43.944-65.936,65.943
			c-6.143,6.155-6.067,14.898,0.07,21.042c3.095,3.099,6.202,6.186,9.299,9.282c29.263,29.26,58.524,58.52,87.792,87.773
			c0.542,0.541,1.107,1.072,1.722,1.525c5.975,4.4,13.689,3.744,19.059-1.625c32.258-32.25,64.515-64.504,96.77-96.759
			c5.811-5.812,5.853-14.742,0.056-20.543c-32.349-32.368-64.708-64.725-97.066-97.084c-0.406-0.408-0.813-0.82-1.254-1.19
			c-3.253-2.734-6.978-3.876-11.218-3.364c-3.466,0.419-6.307,1.993-8.744,4.441c-6.369,6.401-12.766,12.773-19.146,19.163
			c-0.234,0.234-0.559,0.415-0.623,0.923c8.329,8.303,16.714,16.655,25.078,25.023c0.445,0.446,0.847,0.39,1.343,0.237
			c2.162-0.669,4.392-0.815,6.609-0.559c10.431,1.202,17.271,11.291,14.559,21.466c-0.229,0.862-0.11,1.376,0.517,2
			c7.764,7.723,15.507,15.468,23.227,23.234c0.549,0.553,1.01,0.603,1.708,0.41c10.44-2.882,20.665,4.235,21.651,15.048
			c1.003,10.97-8.764,20.142-19.629,18.433c-10.646-1.675-17.108-12.405-13.602-22.638c0.243-0.708,0.089-1.094-0.403-1.585
			c-7.214-7.186-14.408-14.391-21.613-21.586c-0.197-0.195-0.332-0.536-0.733-0.477c-0.022,0.115-0.061,0.222-0.061,0.328
			c-0.004,19.789,0,39.577-0.02,59.364c0,0.656,0.306,0.908,0.809,1.213c6.255,3.799,9.267,9.342,8.647,16.67
			c-0.866,10.25-10.982,17.418-20.999,14.975c-7.057-1.721-12.27-7.619-13.096-14.818c-0.813-7.092,2.948-14,9.484-17.227
			c0.88-0.436,1.104-0.912,1.103-1.816c-0.022-19.557-0.026-39.115,0.005-58.674c0.002-1.009-0.262-1.518-1.208-1.991
			c-7.704-3.841-11.326-12.76-8.501-20.858c0.283-0.815,0.164-1.295-0.438-1.894c-7.897-7.861-15.767-15.75-23.645-23.631
			C122.02,85.274,121.736,85.023,121.422,84.731z"/>
		<path class="st1" d="M121.422,84.731c0.313,0.292,0.598,0.543,0.865,0.81c7.878,7.881,15.748,15.77,23.645,23.631
			c0.603,0.599,0.722,1.079,0.438,1.894c-2.825,8.098,0.797,17.017,8.501,20.858c0.946,0.473,1.21,0.981,1.208,1.991
			c-0.031,19.559-0.027,39.117-0.005,58.674c0.001,0.904-0.223,1.381-1.103,1.816c-6.536,3.227-10.298,10.135-9.484,17.227
			c0.826,7.199,6.039,13.098,13.096,14.818c10.017,2.443,20.133-4.725,20.999-14.975c0.619-7.328-2.393-12.871-8.647-16.67
			c-0.503-0.305-0.809-0.557-0.809-1.213c0.02-19.788,0.016-39.576,0.02-59.364c0-0.106,0.038-0.213,0.061-0.328
			c0.401-0.06,0.536,0.281,0.733,0.477c7.205,7.195,14.399,14.4,21.613,21.586c0.492,0.491,0.646,0.877,0.403,1.585
			c-3.507,10.233,2.955,20.963,13.602,22.638c10.865,1.709,20.632-7.463,19.629-18.433c-0.986-10.813-11.211-17.93-21.651-15.048
			c-0.698,0.193-1.159,0.143-1.708-0.41c-7.72-7.766-15.463-15.512-23.227-23.234c-0.627-0.625-0.745-1.139-0.517-2
			c2.712-10.175-4.128-20.264-14.559-21.466c-2.218-0.256-4.447-0.11-6.609,0.559c-0.496,0.153-0.897,0.209-1.343-0.237
			c-8.364-8.369-16.749-16.72-25.078-25.023c0.064-0.508,0.388-0.689,0.623-0.923c6.38-6.39,12.777-12.762,19.146-19.163
			c2.438-2.448,5.278-4.021,8.744-4.441c4.24-0.512,7.965,0.63,11.218,3.364c0.44,0.37,0.848,0.782,1.254,1.19
			c32.358,32.359,64.718,64.716,97.066,97.084c5.797,5.802,5.755,14.732-0.056,20.543c-32.255,32.255-64.512,64.509-96.77,96.759
			c-5.369,5.369-13.084,6.025-19.059,1.625c-0.614-0.453-1.18-0.984-1.722-1.525c-29.268-29.254-58.529-58.514-87.792-87.773
			c-3.098-3.096-6.204-6.184-9.299-9.282c-6.138-6.144-6.213-14.887-0.07-21.042c21.959-21.999,43.953-43.966,65.936-65.943
			C120.926,85.155,121.159,84.967,121.422,84.731z"/>
	</g>
</g>
<g id="circle">
	<circle class="st0" cx="162.041" cy="162.04" r="142.2"/>
</g>
</svg>
