<?xml version="1.0" encoding="utf-8"?>
<!-- Generator: Adobe Illustrator 16.0.0, SVG Export Plug-In . SVG Version: 6.00 Build 0)  -->
<!DOCTYPE svg PUBLIC "-//W3C//DTD SVG 1.1//EN" "http://www.w3.org/Graphics/SVG/1.1/DTD/svg11.dtd">
<svg version="1.1" xmlns="http://www.w3.org/2000/svg" xmlns:xlink="http://www.w3.org/1999/xlink" x="0px" y="0px" width="288px"
	 height="288px" viewBox="0 0 288 288" style="enable-background:new 0 0 288 288;" xml:space="preserve">
<style type="text/css">
<![CDATA[
	.st0{fill-rule:evenodd;clip-rule:evenodd;fill:#E34D26;}
	.st1{fill-rule:evenodd;clip-rule:evenodd;fill:#EAEAEA;}
	.st2{fill-rule:evenodd;clip-rule:evenodd;fill:#F06529;}
	.st3{fill-rule:evenodd;clip-rule:evenodd;fill:#FEFEFE;}
	.st4{fill-rule:evenodd;clip-rule:evenodd;fill:none;stroke:#000000;stroke-width:3;}
]]>
</style>
<g id="Layer_1">
	<g>
		<path class="st0" d="M143.564,236.932c-1.426-0.605-2.946-0.898-4.43-1.309c-19.767-5.484-39.536-10.959-59.311-16.414
			c-0.541-0.148-0.735-0.369-0.78-0.908c-0.296-3.533-0.62-7.064-0.937-10.594c-0.421-4.692-0.844-9.383-1.262-14.074
			c-0.358-4.015-0.71-8.029-1.068-12.044c-0.42-4.716-0.846-9.432-1.266-14.147c-0.359-4.039-0.712-8.078-1.072-12.117
			c-0.416-4.667-0.839-9.334-1.254-14.002c-0.36-4.038-0.714-8.078-1.075-12.117c-0.418-4.691-0.84-9.383-1.259-14.074
			c-0.359-4.015-0.714-8.03-1.072-12.044c-0.421-4.715-0.847-9.431-1.266-14.147c-0.36-4.063-0.712-8.127-1.074-12.19
			c-0.414-4.644-0.838-9.286-1.252-13.929c-0.172-1.904-0.332-3.809-0.5-5.753c52.892,0,105.726,0,158.625,0
			c-0.116,1.378-0.227,2.725-0.346,4.071c-0.371,4.159-0.744,8.318-1.119,12.478c-0.419,4.667-0.846,9.334-1.262,14.001
			c-0.362,4.063-0.712,8.127-1.074,12.19c-0.415,4.644-0.842,9.285-1.257,13.929c-0.362,4.063-0.712,8.126-1.074,12.19
			c-0.415,4.643-0.841,9.285-1.256,13.928c-0.359,4.014-0.711,8.029-1.068,12.044c-0.419,4.691-0.843,9.383-1.263,14.074
			c-0.358,4.015-0.711,8.031-1.069,12.045c-0.421,4.715-0.848,9.431-1.268,14.146c-0.36,4.039-0.71,8.078-1.071,12.118
			c-0.417,4.666-0.856,9.333-1.24,14.002c-0.051,0.617-0.303,0.791-0.832,0.936c-8.324,2.283-16.643,4.59-24.964,6.887
			c-12.762,3.521-25.527,7.035-38.287,10.566c-0.237,0.066-0.539,0.008-0.715,0.258
			C143.953,236.932,143.758,236.932,143.564,236.932z M143.997,181.821c-0.045,0.037-0.09,0.073-0.135,0.109
			c-7.211-1.938-14.42-3.877-21.633-5.805c-0.389-0.104-0.472-0.35-0.502-0.688c-0.251-2.926-0.505-5.852-0.764-8.777
			c-0.19-2.169-0.39-4.337-0.584-6.498c-6.684,0-13.297,0-19.922,0c0.438,4.99,0.865,9.922,1.305,14.853
			c0.464,5.198,0.949,10.394,1.396,15.593c0.045,0.515,0.187,0.734,0.706,0.879c13.385,3.724,26.764,7.47,40.143,11.212
			c0,6.83,0,13.659,0,20.526c1.76-0.49,3.361-0.939,4.964-1.387c4.4-1.225,8.801-2.453,13.203-3.676
			c4.333-1.201,8.667-2.396,13-3.596c4.332-1.201,8.664-2.404,12.997-3.605c2.538-0.705,5.076-1.411,7.619-2.102
			c0.442-0.12,0.71-0.298,0.737-0.818c0.057-1.06,0.176-2.114,0.272-3.171c0.186-1.993,0.379-3.984,0.557-5.978
			c0.116-1.298,0.199-2.6,0.314-3.898c0.181-2.042,0.378-4.082,0.562-6.123c0.11-1.227,0.204-2.454,0.317-3.679
			c0.182-1.944,0.379-3.887,0.556-5.831c0.118-1.299,0.199-2.601,0.314-3.898c0.18-2.042,0.38-4.083,0.562-6.124
			c0.113-1.274,0.203-2.551,0.318-3.825c0.179-1.969,0.377-3.936,0.556-5.904c0.115-1.274,0.199-2.551,0.313-3.825
			c0.181-2.018,0.38-4.034,0.562-6.051c0.113-1.25,0.201-2.502,0.318-3.752c0.178-1.896,0.383-3.79,0.555-5.686
			c0.122-1.347,0.169-2.701,0.32-4.043c0.234-2.062,0.384-4.13,0.565-6.196c0.109-1.25,0.228-2.499,0.319-3.752
			c0.137-1.875,0.372-3.742,0.544-5.614c0.122-1.322,0.199-2.648,0.313-3.971c0.181-2.09,0.379-4.179,0.564-6.269
			c0.109-1.226,0.2-2.454,0.315-3.679c0.18-1.92,0.383-3.838,0.557-5.759c0.12-1.322,0.169-2.651,0.319-3.97
			c0.237-2.062,0.395-4.129,0.561-6.196c0.096-1.203,0.198-2.406,0.313-3.607c0.181-1.92,0.383-3.838,0.557-5.759
			c0.12-1.322,0.193-2.648,0.313-3.97c0.216-2.372,0.451-4.742,0.677-7.098c-0.313-0.188-0.611-0.113-0.895-0.113
			c-9.792-0.004-19.583-0.004-29.375-0.004c-11.248,0-22.498,0.004-33.747-0.012c-0.604-0.001-0.843,0.105-0.84,0.786
			c0.029,6.341,0.02,12.683,0.021,19.024c-0.314,0.009-0.631,0.027-0.945,0.027c-15.956,0.001-31.912,0.001-47.868,0.005
			c-0.308,0-0.63-0.082-0.985,0.116c1.781,19.958,3.564,39.933,5.351,59.943c0.376,0,0.665,0,0.954,0c14.183,0,28.366,0,42.55,0.001
			c0.314,0,0.63,0.019,0.945,0.027C144.004,160.753,144,171.288,143.997,181.821z"/>
		<path class="st2" d="M144.007,90.099c-0.002-6.341,0.008-12.683-0.021-19.024c-0.003-0.681,0.235-0.787,0.84-0.786
			c11.249,0.016,22.499,0.012,33.747,0.012c9.792,0,19.583,0,29.375,0.004c0.283,0,0.582-0.075,0.895,0.113
			c-0.226,2.356-0.461,4.726-0.677,7.098c-0.12,1.322-0.193,2.648-0.313,3.97c-0.174,1.921-0.376,3.839-0.557,5.759
			c-0.114,1.201-0.217,2.404-0.313,3.607c-0.166,2.066-0.323,4.134-0.561,6.196c-0.15,1.318-0.199,2.648-0.319,3.97
			c-0.174,1.92-0.377,3.839-0.557,5.759c-0.115,1.226-0.206,2.454-0.315,3.679c-0.186,2.09-0.384,4.178-0.564,6.269
			c-0.114,1.323-0.191,2.648-0.313,3.971c-0.172,1.872-0.407,3.739-0.544,5.614c-0.092,1.253-0.21,2.501-0.319,3.752
			c-0.182,2.066-0.331,4.134-0.565,6.196c-0.151,1.342-0.198,2.696-0.32,4.043c-0.172,1.896-0.377,3.79-0.555,5.686
			c-0.117,1.25-0.205,2.502-0.318,3.752c-0.182,2.017-0.381,4.033-0.562,6.051c-0.114,1.274-0.198,2.551-0.313,3.825
			c-0.179,1.969-0.377,3.936-0.556,5.904c-0.115,1.274-0.205,2.551-0.318,3.825c-0.182,2.041-0.382,4.082-0.562,6.124
			c-0.115,1.297-0.196,2.599-0.314,3.898c-0.177,1.944-0.374,3.887-0.556,5.831c-0.113,1.226-0.207,2.453-0.317,3.679
			c-0.184,2.041-0.381,4.081-0.562,6.123c-0.115,1.298-0.198,2.6-0.314,3.898c-0.178,1.993-0.371,3.985-0.557,5.978
			c-0.097,1.057-0.216,2.111-0.272,3.171c-0.027,0.52-0.295,0.698-0.737,0.818c-2.543,0.691-5.081,1.396-7.619,2.102
			c-4.333,1.201-8.665,2.404-12.997,3.605c-4.333,1.199-8.667,2.395-13,3.596c-4.402,1.223-8.803,2.451-13.203,3.676
			c-1.603,0.447-3.204,0.896-4.964,1.387c0-6.867,0-13.696,0-20.526l-0.013-0.054c0.351-0.092,0.702-0.179,1.052-0.277
			c13.004-3.635,26.008-7.274,39.017-10.896c0.45-0.125,0.609-0.304,0.642-0.772c0.122-1.744,0.296-3.483,0.452-5.223
			c0.419-4.641,0.846-9.283,1.26-13.924c0.364-4.061,0.714-8.124,1.075-12.186c0.421-4.713,0.846-9.427,1.271-14.141
			c0.321-3.553,0.647-7.106,0.968-10.66c0.123-1.372,0.235-2.745,0.352-4.106c-0.328-0.161-0.624-0.092-0.908-0.092
			c-14.793-0.003-29.586-0.003-44.379-0.002c-0.267,0-0.532,0.015-0.8,0.022l0.013-0.052c0-6.736,0-13.471,0-20.208l-0.013-0.052
			c0.169,0.008,0.339,0.022,0.509,0.022c15.573,0.001,31.147,0.001,46.721-0.001c0.212,0,0.436,0.056,0.687-0.102
			c0.588-6.58,1.179-13.189,1.775-19.868c-0.333,0-0.595,0-0.858,0c-16.036,0-32.071,0-48.106,0c-0.241,0-0.484,0.016-0.727,0.023
			L144.007,90.099z"/>
		<path class="st1" d="M144.008,150.218c-0.315-0.009-0.631-0.027-0.945-0.027c-14.184-0.001-28.367-0.001-42.55-0.001
			c-0.289,0-0.578,0-0.954,0c-1.786-20.01-3.569-39.985-5.351-59.943c0.355-0.198,0.678-0.116,0.985-0.116
			c15.956-0.004,31.912-0.004,47.868-0.005c0.314,0,0.631-0.018,0.945-0.027l-0.012,0.052c0,6.642,0,13.284,0,19.925l0.013,0.052
			c-0.096-0.009-0.193-0.026-0.289-0.026c-9.111-0.001-18.223-0.002-27.335,0.001c-0.157,0-0.343-0.059-0.466,0.14
			c0.598,6.681,1.197,13.375,1.803,20.122c0.347,0,0.635,0,0.924,0c7.531,0,15.063,0.001,22.596-0.001
			c0.923,0,1.845-0.018,2.768-0.027l-0.013,0.052c0,6.593,0,13.187,0,19.779L144.008,150.218z"/>
		<path class="st1" d="M144.007,202.699c-13.379-3.742-26.758-7.488-40.143-11.212c-0.52-0.145-0.661-0.364-0.706-0.879
			c-0.446-5.2-0.932-10.396-1.396-15.593c-0.439-4.931-0.866-9.863-1.305-14.853c6.625,0,13.238,0,19.922,0
			c0.194,2.16,0.394,4.329,0.584,6.498c0.259,2.925,0.513,5.851,0.764,8.777c0.03,0.339,0.113,0.585,0.502,0.688
			c7.213,1.928,14.422,3.868,21.633,5.805c0.047,0.018,0.095,0.035,0.144,0.053c-0.005,6.887-0.008,13.774-0.012,20.661
			L144.007,202.699z"/>
		<path class="st2" d="M143.997,181.821c0.003-10.534,0.007-21.068,0.011-31.603l-0.013-0.052c0.291,0.008,0.582,0.023,0.872,0.023
			c7.526,0.002,15.053,0.001,22.578,0.001c0.285,0,0.569,0,0.913,0c-0.017,0.382-0.018,0.691-0.046,0.998
			c-0.171,1.86-0.356,3.719-0.522,5.579c-0.552,6.235-1.103,12.469-1.638,18.704c-0.035,0.419-0.206,0.582-0.589,0.676
			c-1.013,0.249-2.015,0.536-3.02,0.806c-6.154,1.653-12.309,3.307-18.463,4.959C144.053,181.882,144.025,181.852,143.997,181.821z"
			/>
		<path class="st2" d="M144.006,181.983c-0.049-0.018-0.097-0.036-0.144-0.053c0.045-0.036,0.09-0.072,0.135-0.109
			c0.028,0.03,0.056,0.061,0.084,0.09C144.058,181.937,144.032,181.961,144.006,181.983z"/>
		<path class="st3" d="M144.006,181.983c0.026-0.022,0.052-0.046,0.075-0.072c6.154-1.652,12.309-3.306,18.463-4.959
			c1.005-0.27,2.007-0.557,3.02-0.806c0.383-0.094,0.554-0.256,0.589-0.676c0.535-6.235,1.086-12.469,1.638-18.704
			c0.166-1.86,0.352-3.719,0.522-5.579c0.028-0.307,0.029-0.616,0.046-0.998c-0.344,0-0.628,0-0.913,0
			c-7.525,0-15.052,0.001-22.578-0.001c-0.29,0-0.581-0.015-0.872-0.023c0-6.592,0-13.186,0-19.779
			c0.268-0.008,0.533-0.022,0.8-0.022c14.793-0.001,29.586-0.001,44.379,0.002c0.284,0,0.58-0.068,0.908,0.092
			c-0.116,1.361-0.229,2.735-0.352,4.106c-0.32,3.554-0.646,7.107-0.968,10.66c-0.426,4.714-0.851,9.428-1.271,14.141
			c-0.361,4.062-0.711,8.125-1.075,12.186c-0.414,4.641-0.841,9.283-1.26,13.924c-0.156,1.739-0.33,3.479-0.452,5.223
			c-0.032,0.468-0.191,0.647-0.642,0.772c-13.009,3.622-26.013,7.261-39.017,10.896c-0.35,0.098-0.701,0.185-1.052,0.277
			C143.998,195.757,144.001,188.87,144.006,181.983z"/>
		<path class="st3" d="M143.995,110.076c0-6.642,0-13.283,0-19.925c0.242-0.007,0.485-0.023,0.727-0.023c16.035,0,32.07,0,48.106,0
			c0.264,0,0.525,0,0.858,0c-0.597,6.679-1.188,13.289-1.775,19.868c-0.251,0.158-0.475,0.102-0.687,0.102
			c-15.573,0.002-31.147,0.002-46.721,0.001C144.334,110.098,144.164,110.083,143.995,110.076z"/>
		<path class="st0" d="M144.008,130.335c-0.923,0.009-1.845,0.027-2.768,0.027c-7.532,0.002-15.064,0.001-22.596,0.001
			c-0.289,0-0.577,0-0.924,0c-0.605-6.747-1.205-13.44-1.803-20.122c0.123-0.198,0.309-0.14,0.466-0.14
			c9.112-0.003,18.224-0.002,27.335-0.001c0.096,0,0.193,0.018,0.289,0.026C144.008,116.864,144.008,123.599,144.008,130.335z"/>
	</g>
</g>
<g id="circle">
	<circle class="st4" cx="144" cy="144" r="142.2"/>
</g>
</svg>
