<?xml version="1.0" encoding="utf-8"?>
<!-- Generator: Adobe Illustrator 16.0.0, SVG Export Plug-In . SVG Version: 6.00 Build 0)  -->
<!DOCTYPE svg PUBLIC "-//W3C//DTD SVG 1.1//EN" "http://www.w3.org/Graphics/SVG/1.1/DTD/svg11.dtd">
<svg version="1.1" xmlns="http://www.w3.org/2000/svg" xmlns:xlink="http://www.w3.org/1999/xlink" x="0px" y="0px" width="288px"
	 height="288px" viewBox="0 0 288 288" style="enable-background:new 0 0 288 288;" xml:space="preserve">
<style type="text/css">
<![CDATA[
	.st0{fill-rule:evenodd;clip-rule:evenodd;fill:#442405;}
	.st1{fill-rule:evenodd;clip-rule:evenodd;fill:#AA7E28;}
	.st2{fill-rule:evenodd;clip-rule:evenodd;fill:#B8A575;}
	.st3{fill:#FEBB2A;}
	.st4{fill-rule:evenodd;clip-rule:evenodd;fill:#FEBB2A;}
	.st5{fill-rule:evenodd;clip-rule:evenodd;fill:none;stroke:#000000;stroke-width:3;}
	.st6{fill:#442405;}
]]>
</style>
<g id="Layer_1">
	<g>
		<g>
			<path class="st4" d="M59.251,226.605c0-55.201,0-110.402,0-165.637c56.451,0,112.904,0,169.497,0c0,55.189,0,110.414,0,165.637
				c-0.919,0.012-1.838,0.031-2.757,0.031c-49.075,0.004-98.149,0.004-147.225,0C72.262,226.637,65.756,226.617,59.251,226.605z
				 M72.46,73.847c0,47.125,0,94.146,0,141.196c47.71,0,95.246,0,142.798,0c0-47.111,0-94.089,0-141.196
				C167.591,73.847,120.062,73.847,72.46,73.847z"/>
			<path class="st2" d="M59.251,226.605c6.505,0.012,13.011,0.031,19.516,0.031c49.075,0.004,98.149,0.004,147.225,0
				c0.919,0,1.838-0.02,2.757-0.031c-0.565,0.143-1.131,0.406-1.696,0.406c-24.255,0.021-48.51,0.02-72.764,0.02
				c-31.043,0-62.086,0.002-93.128-0.02C60.523,227.012,59.887,226.748,59.251,226.605z"/>
			<path class="st0" d="M72.46,73.847c47.602,0,95.131,0,142.798,0c0,47.107,0,94.085,0,141.196c-47.552,0-95.088,0-142.798,0
				C72.46,167.993,72.46,120.973,72.46,73.847z M187.176,177.43l0.041-0.041c0.052-0.181,0.104-0.362,0.156-0.545
				c0.022-14.883,0.046-29.766,0.069-44.65c0.105-0.036,0.209-0.073,0.313-0.109c-0.104-0.036-0.209-0.071-0.314-0.106
				c-0.019-1.03-0.036-2.061-0.053-3.09c0-1.123,0.001-2.246,0.002-3.369c-0.051-1.46-0.104-2.921-0.156-4.38
				c-0.198-0.067-0.396-0.134-0.596-0.201c-4.756,0-9.514,0-14.31,0c0,19.119,0,37.719,0,56.319
				c0.275,0.107,0.552,0.214,0.826,0.322c4.491,0,8.983,0,13.474,0C186.812,177.528,186.994,177.479,187.176,177.43z
				 M122.261,105.153c-0.202,0.794-0.478,1.564-0.587,2.357c-0.354,2.538-0.439,5.13-1.011,7.614
				c-0.85,3.689-1.999,7.311-3.069,10.948c-2.234,7.591-4.514,15.17-6.749,22.762c-2.591,8.794-5.171,17.592-7.705,26.402
				c-0.206,0.709-0.028,1.529-0.028,2.246c5.173,0,10.001,0,14.678,0c1.664-6.042,3.26-11.841,4.834-17.555
				c6.482,0,12.491,0,18.489,0c0.333,0.653,0.751,1.239,0.948,1.892c1.378,4.584,2.684,9.188,4.085,13.764
				c0.248,0.806,0.834,1.508,1.156,2.071c5.094,0,9.828,0,14.855,0c0-0.851,0.151-1.664-0.03-2.393
				c-0.499-2-1.146-3.965-1.726-5.947c-1.866-6.378-3.735-12.756-5.593-19.136c-1.137-3.902-2.225-7.817-3.393-11.709
				c-2.207-7.35-4.468-14.684-6.681-22.032c-1.133-3.76-2.21-7.536-3.306-11.284C134.971,105.153,128.823,105.153,122.261,105.153z"
				/>
			<g id="XMLID_1_">
				<g>
					<path class="st6" d="M178.762,98.332c4.733,0.233,7.924,4.214,7.618,8.505c-0.187,4.168-3.845,7.762-7.736,7.609
						c-4.683-0.187-8.748-4.219-8.544-8.472C170.304,101.73,174.382,98.119,178.762,98.332z"/>
				</g>
				<g>
				</g>
			</g>
			<path class="st4" d="M122.261,105.153c6.563,0,12.71,0,19.169,0c1.096,3.748,2.173,7.523,3.306,11.284
				c2.213,7.348,4.474,14.682,6.681,22.032c1.168,3.892,2.256,7.807,3.393,11.709c1.857,6.38,3.727,12.758,5.593,19.136
				c0.579,1.981,1.227,3.946,1.726,5.947c0.182,0.729,0.03,1.542,0.03,2.393c-5.027,0-9.762,0-14.855,0
				c-0.322-0.563-0.908-1.265-1.156-2.071c-1.401-4.576-2.707-9.18-4.085-13.764c-0.197-0.653-0.615-1.239-0.948-1.892
				c-5.998,0-12.007,0-18.489,0c-1.574,5.714-3.17,11.513-4.834,17.555c-4.677,0-9.505,0-14.678,0c0-0.717-0.178-1.537,0.028-2.246
				c2.534-8.811,5.114-17.608,7.705-26.402c2.235-7.591,4.515-15.17,6.749-22.762c1.07-3.637,2.22-7.259,3.069-10.948
				c0.571-2.483,0.657-5.076,1.011-7.614C121.783,106.717,122.059,105.948,122.261,105.153z M138.025,146.121
				c-2.19-8.192-3.482-16.557-6.1-24.594c-0.29,0.006-0.579,0.012-0.868,0.019c-2.3,8.065-4.601,16.132-7.007,24.576
				C128.591,146.121,132.964,146.121,138.025,146.121z"/>
			<path class="st4" d="M172.329,177.257c0-18.6,0-37.2,0-56.319c4.796,0,9.554,0,14.31,0c0.199,0.067,0.397,0.134,0.596,0.201
				c0.052,1.459,0.105,2.92,0.156,4.38c-0.001,1.123-0.002,2.246-0.002,3.369c0.017,1.029,0.034,2.06,0.053,3.09
				c-0.079,0.072-0.079,0.145,0.001,0.216c-0.023,14.884-0.047,29.767-0.069,44.651c-0.052,0.182-0.104,0.363-0.156,0.544
				l-0.041,0.041c-0.183,0.049-0.364,0.099-0.547,0.148c-4.49,0-8.982,0-13.474,0C172.881,177.471,172.604,177.364,172.329,177.257z
				"/>
			<path class="st1" d="M187.389,128.889c0-1.123,0.001-2.246,0.002-3.369C187.39,126.643,187.389,127.766,187.389,128.889z"/>
			<path class="st1" d="M172.329,177.257c0.275,0.107,0.552,0.214,0.826,0.322C172.881,177.471,172.604,177.364,172.329,177.257z"/>
			<path class="st1" d="M187.234,121.139c-0.198-0.067-0.396-0.134-0.596-0.201C186.838,121.005,187.036,121.072,187.234,121.139z"
				/>
			<path class="st1" d="M187.442,132.194c-0.08-0.071-0.08-0.144-0.001-0.216c0.105,0.035,0.21,0.071,0.314,0.107
				C187.651,132.122,187.548,132.158,187.442,132.194z"/>
			<path class="st1" d="M187.217,177.389c0.052-0.181,0.104-0.362,0.156-0.544C187.32,177.027,187.269,177.208,187.217,177.389z"/>
			<path class="st1" d="M186.629,177.578c0.183-0.05,0.364-0.1,0.547-0.148C186.994,177.479,186.812,177.528,186.629,177.578z"/>
			<path class="st0" d="M138.025,146.121c-5.062,0-9.435,0-13.975,0c2.406-8.444,4.707-16.511,7.007-24.576
				c0.289-0.006,0.578-0.012,0.868-0.019C134.543,129.563,135.835,137.929,138.025,146.121z"/>
		</g>
		<circle class="st3" cx="179.887" cy="107.867" r="8.072"/>
	</g>
</g>
<g id="circle">
	<circle class="st5" cx="144" cy="144" r="142.2"/>
</g>
</svg>
