<?xml version="1.0" encoding="utf-8"?>
<!-- Generator: Adobe Illustrator 16.0.0, SVG Export Plug-In . SVG Version: 6.00 Build 0)  -->
<!DOCTYPE svg PUBLIC "-//W3C//DTD SVG 1.1//EN" "http://www.w3.org/Graphics/SVG/1.1/DTD/svg11.dtd">
<svg version="1.1" xmlns="http://www.w3.org/2000/svg" xmlns:xlink="http://www.w3.org/1999/xlink" x="0px" y="0px" width="288px"
	 height="288px" viewBox="0 0 288 288" style="enable-background:new 0 0 288 288;" xml:space="preserve">
<style type="text/css">
<![CDATA[
	.st0{fill-rule:evenodd;clip-rule:evenodd;fill:#E27A28;}
	.st1{fill-rule:evenodd;clip-rule:evenodd;}
	.st2{fill-rule:evenodd;clip-rule:evenodd;fill:#F63361;}
	.st3{fill-rule:evenodd;clip-rule:evenodd;fill:#2A72E4;}
	.st4{fill-rule:evenodd;clip-rule:evenodd;fill:#FEFEFE;}
	.st5{fill-rule:evenodd;clip-rule:evenodd;fill:#9C519C;}
	.st6{fill-rule:evenodd;clip-rule:evenodd;fill:none;stroke:#000000;stroke-width:3;}
]]>
</style>
<g id="Layer_1">
	<g>
		<path class="st3" d="M157.214,80.712c7.16-8.211,14.32-16.423,21.632-24.807c5.937,4.949,11.688,9.736,17.433,14.533
			c11.661,9.739,23.278,19.532,35.014,29.181c1.978,1.627,2.683,3.187,2.587,5.804c-0.614,16.661-0.964,33.331-1.447,49.996
			c-0.465,16.016-1.007,32.028-1.445,48.045c-0.042,1.51-0.487,2.267-1.919,2.861c-21.781,9.038-43.54,18.131-65.291,27.245
			c-1.222,0.512-2.177,0.51-3.317-0.262c-11.727-7.934-23.486-15.816-35.236-23.713c3.845-2.246,8.188-3.24,12.31-4.772
			c2.482-0.922,4.347-2.268,5.627-4.518c18.776,0,37.554,0,56.44,0c0-37.336,0-74.255,0-111.482c-11.719,0-23.278,0-34.839,0
			C162.246,86.12,159.729,83.417,157.214,80.712z"/>
		<path class="st2" d="M157.214,80.712c2.516,2.704,5.032,5.407,7.547,8.11c-25.369,0-50.739,0-76.42,0c0,13.457,0,26.509,0,39.561
			c-4.755-0.523-9.511-1.047-14.265-1.57c-6.507-0.707-13.015-1.413-19.964-2.168C62.89,100.952,71.541,77.6,80.258,54.073
			c5.009,0.651,9.926,1.174,14.839,1.768c5.097,0.617,10.298,0.85,15.444,1.354c8.009,0.784,16.008,1.652,24.021,2.382
			c1.936,0.177,3.161,1.18,4.423,2.486C145.023,68.315,151.131,74.501,157.214,80.712z"/>
		<path class="st5" d="M143.161,200.305c-1.282,2.25-3.146,3.596-5.629,4.518c-4.122,1.532-8.465,2.526-12.31,4.772
			c-2.501-0.053-4.623,1.235-6.863,2.031c-15.772,5.6-31.516,11.278-47.822,17.131c0.772-2.906,1.425-5.418,2.105-7.92
			c3.498-12.851,7.007-25.7,10.492-38.554c0.189-0.702,0.205-1.452,0.301-2.18c0.164-0.316,0.383-0.617,0.484-0.952
			c1.544-5.08,2.5-10.328,4.414-15.302c0,12.067,0,24.135,0,36.351c1.599,0,2.698-0.002,3.798,0.001
			C109.142,200.235,126.151,200.27,143.161,200.305z"/>
		<path class="st0" d="M88.334,163.85c-1.914,4.974-2.87,10.222-4.414,15.302c-0.102,0.335-0.32,0.636-0.484,0.952
			c-7.827-6.757-15.628-13.545-23.51-20.238c-1.277-1.085-1.215-1.9-0.529-3.252c4.594-9.062,9.109-18.164,13.634-27.262
			c0.406-0.816,0.698-1.691,1.044-2.539c4.756,0.523,9.512,1.047,14.267,1.57C88.339,140.206,88.336,152.028,88.334,163.85z"/>
		<path class="st1" d="M88.334,163.85c0.002-11.822,0.005-23.645,0.007-35.467c0-13.052,0-26.104,0-39.561
			c25.681,0,51.051,0,76.42,0c11.561,0,23.12,0,34.839,0c0,37.228,0,74.146,0,111.482c-18.887,0-37.664,0-56.44,0
			c-17.008-0.035-34.018-0.07-51.027-0.104c-1.1-0.003-2.199-0.001-3.798-0.001C88.334,187.985,88.334,175.917,88.334,163.85z
			 M122.809,140.995c0-9.903,0-19.406,0-29.186c2.12,0,4.108,0,6.138,0c0-2.922,0-5.567,0-8.252c-7.747,0-15.38,0-23.001,0
			c0,2.818,0,5.46,0,8.303c2.164,0,4.172,0,6.279,0c0,9.796,0,19.39,0,29.173c-2.161,0-4.18,0-6.289,0c0,2.911,0,5.633,0,8.347
			c7.791,0,15.425,0,23.024,0c0-2.854,0-5.521,0-8.385C126.943,140.995,125.021,140.995,122.809,140.995z M136.001,143.142
			c1.646,2.247,3.678,3.684,5.858,4.91c12.298,6.913,25.593-0.697,25.593-14.637c0.001-6.946,0-13.894,0-20.84
			c0-3.022,0-6.044,0-8.981c-3.672,0-7.036,0-10.479,0c0,1.314,0.001,2.42,0,3.524c-0.001,8.8,0.014,17.598-0.015,26.397
			c-0.008,2.598-0.546,5.068-3.086,6.398c-2.739,1.435-5.4,0.813-7.843-0.841c-1.279-0.865-2.441-1.902-3.755-2.939
			C140.192,138.46,138.166,140.723,136.001,143.142z M99.075,186.13c13.839,0,27.416,0,40.952,0c0-2.428,0-4.694,0-6.916
			c-13.739,0-27.316,0-40.952,0C99.075,181.574,99.075,183.774,99.075,186.13z"/>
		<path class="st4" d="M122.809,140.995c2.213,0,4.135,0,6.151,0c0,2.864,0,5.53,0,8.385c-7.6,0-15.233,0-23.024,0
			c0-2.714,0-5.436,0-8.347c2.109,0,4.128,0,6.289,0c0-9.783,0-19.377,0-29.173c-2.107,0-4.115,0-6.279,0c0-2.843,0-5.484,0-8.303
			c7.621,0,15.254,0,23.001,0c0,2.685,0,5.33,0,8.252c-2.029,0-4.018,0-6.138,0C122.809,121.588,122.809,131.091,122.809,140.995z"
			/>
		<path class="st4" d="M136.001,143.142c2.165-2.419,4.191-4.682,6.274-7.008c1.313,1.037,2.476,2.074,3.755,2.939
			c2.442,1.653,5.104,2.275,7.843,0.841c2.54-1.33,3.078-3.801,3.086-6.398c0.028-8.8,0.014-17.598,0.015-26.397
			c0.001-1.104,0-2.21,0-3.524c3.442,0,6.807,0,10.479,0c0,2.938,0,5.959,0,8.981c0,6.946,0.001,13.894,0,20.84
			c0,13.939-13.295,21.55-25.593,14.637C139.679,146.826,137.647,145.389,136.001,143.142z"/>
		<path class="st4" d="M99.075,186.13c0-2.356,0-4.557,0-6.916c13.636,0,27.213,0,40.952,0c0,2.222,0,4.488,0,6.916
			C126.491,186.13,112.914,186.13,99.075,186.13z"/>
	</g>
</g>
<g id="circle">
	<circle class="st6" cx="144" cy="144" r="142.2"/>
</g>
</svg>
