<?xml version="1.0" encoding="utf-8"?>
<!-- Generator: Adobe Illustrator 16.0.0, SVG Export Plug-In . SVG Version: 6.00 Build 0)  -->
<!DOCTYPE svg PUBLIC "-//W3C//DTD SVG 1.1//EN" "http://www.w3.org/Graphics/SVG/1.1/DTD/svg11.dtd">
<svg version="1.1" xmlns="http://www.w3.org/2000/svg" xmlns:xlink="http://www.w3.org/1999/xlink" x="0px" y="0px" width="288px"
	 height="288px" viewBox="0 0 288 288" style="enable-background:new 0 0 288 288;" xml:space="preserve">
<style type="text/css">
<![CDATA[
	.st0{fill-rule:evenodd;clip-rule:evenodd;fill:#D54E1C;}
	.st1{fill-rule:evenodd;clip-rule:evenodd;fill:#F2F2F2;}
	.st2{fill-rule:evenodd;clip-rule:evenodd;fill:#FE802D;}
	.st3{fill-rule:evenodd;clip-rule:evenodd;fill:#6565F3;}
	.st4{fill-rule:evenodd;clip-rule:evenodd;fill:none;stroke:#000000;stroke-width:3;}
]]>
</style>
<g id="Layer_1">
	<g>
		<path class="st0" d="M247.305,144.035c-0.421,57.826-46.584,103.314-103.405,103.242c-57.15-0.072-103.364-45.838-103.202-103.332
			C40.862,84.61,88.641,40.657,144.003,40.723C201.311,40.79,247.101,86.907,247.305,144.035z M144.003,235.068
			c50.244-0.007,91.105-40.891,91.052-91.088c-0.061-49.898-40.05-91.068-91.137-91.057c-50.448,0.009-91.065,40.75-91.005,91.129
			C52.974,195.126,94.272,234.996,144.003,235.068z"/>
		<path class="st1" d="M144.003,235.068c-49.73-0.072-91.029-39.942-91.09-91.016c-0.061-50.379,40.557-91.12,91.005-91.129
			c51.087-0.012,91.076,41.158,91.137,91.057C235.108,194.178,194.247,235.062,144.003,235.068z M118.141,159.779
			c-2.044,0.529-3.953,1.359-5.575,2.723c-1.302,1.089-1.641,2.479-0.871,3.483c0.741,0.967,1.73,1.724,2.846,2.151
			c5.693,2.176,11.688,2.928,17.704,3.054c9.173,0.194,18.312-0.518,27.312-2.44c2.638-0.565,5.246-1.264,8.301-2.009
			c-2.32-1.057-4.147-1.953-5.632-3.379c-0.459-0.432-0.92-0.244-1.426-0.155c-7.37,1.322-14.77,2.321-22.272,2.513
			c-4.753,0.121-9.466-0.344-14.187-0.681c-1.819-0.125-3.668-0.275-5.393-0.948c-1.763-0.685-2.08-1.744-1.116-3.36
			c0.154-0.265,0.319-0.517,0.482-0.775c0.05-0.084,0.102-0.176,0.152-0.258C118.357,159.725,118.248,159.749,118.141,159.779z
			 M141.531,141.546c0.049,0.061,0.097,0.126,0.146,0.186c0.018-0.06,0.036-0.114,0.054-0.174c-0.066,0-0.139,0-0.204,0
			c-0.217-1.858-1.494-3.175-2.441-4.635c-2.163-3.33-4.587-6.493-6.466-10.009c-3.287-6.149-2.93-12.065,1.074-17.791
			c2.272-3.249,5.186-5.846,8.205-8.341c5.525-4.557,10.834-9.318,14.633-15.492c2.723-4.431,4.448-9.159,3.956-14.473
			c-0.296-3.208-1.413-6.093-3.614-8.79c0.019,0.436,0,0.635,0.043,0.821c1.815,8.028-0.349,14.98-5.615,21.139
			c-3.408,3.982-7.49,7.196-11.561,10.433c-4.306,3.426-8.765,6.691-12.365,10.908c-1.759,2.056-3.596,4.079-4.226,6.881
			c-0.894,3.961-0.064,7.604,1.913,11.019C129.265,130.479,135.323,136.087,141.531,141.546z M111.104,186.789
			c-1.479-0.673-2.615-0.853-3.771-0.817c-3.218,0.101-6.33,0.794-9.394,1.749c-3.406,1.064-6.641,2.445-9.227,5.013
			c-1.561,1.545-1.355,2.923,0.608,3.944c1.294,0.68,2.646,1.231,4.083,1.484c7.014,1.245,14.089,2.034,21.172,2.743
			c4.015,0.401,8.07,0.535,12.113,0.588c8.735,0.102,17.47,0.241,26.198-0.523c5.26-0.463,10.496-1.076,15.703-1.953
			c5.085-0.86,10.081-2.097,14.884-3.968c1.918-0.752,3.824-1.648,5.309-3.21c0.654-0.69,1.076-1.425,0.732-2.32
			c-0.372-0.961-1.076-1.641-2.272-1.731c0.745,1.666,0.446,2.687-1.021,3.679c-2.337,1.569-5.036,2.164-7.726,2.723
			c-11.169,2.328-22.512,2.947-33.862,3.29c-10.292,0.306-20.592,0.282-30.852-0.854c-4.653-0.519-9.306-1.09-13.747-2.688
			c-1.077-0.391-2.619-0.51-2.757-1.833c-0.147-1.443,1.41-1.875,2.448-2.392C103.157,188.009,106.833,187.143,111.104,186.789z
			 M147.923,146.554c0.541-0.145,0.812-0.15,1.01-0.278c3.366-2.188,6.438-4.695,8.446-8.253c2.019-3.59,2.014-7.19-0.24-10.688
			c-1.299-2.015-2.729-3.937-4.022-5.952c-1.243-1.93-2.333-3.95-2.429-6.342c-0.187-4.428,2.466-7.413,5.375-10.139
			c4.922-4.61,10.641-8.139,16.399-11.587c0.408-0.246,0.979-0.348,1.172-1.168c-1.749,0.577-3.385,1.073-4.995,1.656
			c-8.241,2.993-16.069,6.708-22.117,13.328c-3.51,3.838-4.796,8.379-3.835,13.495c0.733,3.913,2.784,7.184,5.224,10.237
			c1.046,1.312,2.182,2.573,2.844,4.149C152.6,139.429,150.897,143.02,147.923,146.554z M122.226,175.469
			c-2.038,0.655-3.821,1.155-5.344,2.273c-1.546,1.13-1.711,3.355-0.249,4.539c1.557,1.268,3.3,2.279,5.241,2.838
			c4.694,1.347,9.443,2.337,14.376,2.337c3.762,0,7.536,0.15,11.252-0.354c3.943-0.542,7.874-1.323,11.691-2.543
			c1.918-0.609,3.789-1.36,5.874-2.117c-2.297-1.147-4.384-2.098-6.372-3.223c-1.147-0.649-2.248-0.757-3.5-0.529
			c-3.154,0.565-6.311,1.113-9.51,1.438c-5.138,0.523-10.273,0.432-15.396-0.061c-2.404-0.233-4.857-0.269-7.181-1.128
			C120.976,178.158,120.723,177.471,122.226,175.469z M124.592,142.646c-4.419,0-8.732,0.648-12.965,1.87
			c-3.63,1.045-7.139,2.392-10.469,4.183c-0.725,0.393-1.485,0.915-1.473,1.816c0.013,0.993,0.886,1.431,1.675,1.798
			c1.578,0.733,3.264,1.136,4.966,1.472c6.419,1.269,12.937,1.527,19.453,1.713c5.657,0.163,11.307-0.096,16.956-0.463
			c7.832-0.5,15.616-1.389,23.233-3.366c2.243-0.583,4.003-2.206,6.421-3.271c-1.028-0.203-1.617-0.053-2.212,0.036
			c-3.174,0.47-6.344,0.963-9.522,1.377c-6.313,0.823-12.661,1.329-19.021,1.624c-8.403,0.389-16.808,0.583-25.204-0.156
			c-1.609-0.145-3.237-0.423-4.754-1.053c-0.547-0.222-1.232-0.396-1.359-1.1c-0.142-0.787,0.484-1.179,1.025-1.558
			c1.094-0.763,2.323-1.25,3.559-1.743C118.063,144.57,121.352,143.709,124.592,142.646z M107.717,204.577
			c0.617,0.301,1.202,0.722,1.854,0.872c4.992,1.166,9.979,2.356,15.152,2.511c4.839,0.145,9.673,0.506,14.515,0.62
			c5.605,0.125,11.221,0.023,16.824-0.325c4.417-0.27,8.866-0.384,13.255-0.943c4.239-0.542,8.434-1.467,12.577-2.567
			c3.678-0.98,7.249-2.267,10.435-4.425c2.231-1.515,3.511-3.354,3.511-5.11c-2.83,2.237-5.999,3.709-9.359,4.84
			c-5.44,1.827-11.038,2.994-16.688,3.877c-6.024,0.937-12.085,1.508-18.162,1.94c-3.462,0.248-6.918,0.192-10.376,0.398
			c-5.505,0.324-11.021,0.012-16.517-0.241C119.085,205.768,113.425,205.294,107.717,204.577z M176.712,143.74
			c0.733-0.174,1.461-0.389,2.2-0.517c3.649-0.643,6.792,0.331,9.198,3.174c2.278,2.688,2.327,5.748,1.082,8.904
			c-1.054,2.668-2.904,4.76-4.979,6.672c-2.975,2.748-6.396,4.858-9.925,6.812c-0.438,0.246-1.088,0.341-1.118,1.196
			c5.044-1.353,9.829-3.114,14.218-5.88c2.477-1.557,4.677-3.427,6.407-5.819c3.427-4.75,3.043-10.34-1.172-14.031
			c-3.187-2.795-7.063-3.482-11.164-2.851C179.682,141.679,177.836,141.954,176.712,143.74z M172.625,148.154
			c0.041,0.011,0.082,0.022,0.125,0.036c-0.023-0.036-0.054-0.08-0.079-0.116C172.653,148.098,172.635,148.128,172.625,148.154z"/>
		<path class="st2" d="M141.531,141.546c-6.208-5.458-12.267-11.067-16.469-18.317c-1.978-3.414-2.807-7.058-1.913-11.019
			c0.63-2.802,2.467-4.825,4.226-6.881c3.601-4.217,8.06-7.481,12.365-10.908c4.07-3.237,8.152-6.451,11.561-10.433
			c5.267-6.159,7.431-13.111,5.615-21.139c-0.043-0.186-0.024-0.385-0.043-0.821c2.201,2.697,3.318,5.582,3.614,8.79
			c0.492,5.314-1.233,10.042-3.956,14.473c-3.799,6.174-9.107,10.935-14.633,15.492c-3.02,2.495-5.933,5.092-8.205,8.341
			c-4.004,5.726-4.361,11.641-1.074,17.791c1.879,3.517,4.303,6.679,6.466,10.009c0.947,1.46,2.225,2.777,2.441,4.635
			L141.531,141.546z"/>
		<path class="st3" d="M111.104,186.789c-4.271,0.354-7.947,1.22-11.378,2.922c-1.038,0.517-2.596,0.949-2.448,2.392
			c0.138,1.323,1.68,1.443,2.757,1.833c4.441,1.599,9.094,2.17,13.747,2.688c10.26,1.135,20.56,1.159,30.852,0.854
			c11.351-0.343,22.693-0.962,33.862-3.29c2.689-0.559,5.389-1.154,7.726-2.723c1.468-0.992,1.767-2.013,1.021-3.679
			c1.196,0.09,1.9,0.77,2.272,1.731c0.344,0.896-0.078,1.63-0.732,2.32c-1.484,1.563-3.391,2.458-5.309,3.21
			c-4.803,1.871-9.799,3.108-14.884,3.968c-5.207,0.877-10.443,1.49-15.703,1.953c-8.729,0.764-17.463,0.625-26.198,0.523
			c-4.043-0.053-8.099-0.187-12.113-0.588c-7.083-0.709-14.158-1.498-21.172-2.743c-1.438-0.253-2.789-0.804-4.083-1.484
			c-1.964-1.021-2.169-2.399-0.608-3.944c2.586-2.568,5.82-3.949,9.227-5.013c3.063-0.955,6.176-1.648,9.394-1.749
			C108.489,185.936,109.625,186.116,111.104,186.789z"/>
		<path class="st2" d="M147.923,146.554c2.975-3.535,4.677-7.125,2.831-11.542c-0.662-1.577-1.798-2.838-2.844-4.149
			c-2.439-3.054-4.49-6.324-5.224-10.237c-0.961-5.116,0.325-9.657,3.835-13.495c6.048-6.62,13.876-10.335,22.117-13.328
			c1.61-0.583,3.246-1.08,4.995-1.656c-0.192,0.82-0.764,0.922-1.172,1.168c-5.759,3.448-11.478,6.977-16.399,11.587
			c-2.909,2.726-5.562,5.711-5.375,10.139c0.096,2.392,1.186,4.412,2.429,6.342c1.293,2.015,2.724,3.937,4.022,5.952
			c2.254,3.499,2.259,7.099,0.24,10.688c-2.008,3.558-5.08,6.065-8.446,8.253C148.734,146.404,148.464,146.41,147.923,146.554z"/>
		<path class="st3" d="M122.226,175.469c-1.503,2.002-1.25,2.689,0.884,3.47c2.323,0.859,4.776,0.896,7.181,1.128
			c5.122,0.493,10.258,0.584,15.396,0.061c3.199-0.325,6.355-0.872,9.51-1.438c1.252-0.228,2.353-0.12,3.5,0.529
			c1.988,1.125,4.075,2.075,6.372,3.223c-2.085,0.757-3.956,1.507-5.874,2.117c-3.817,1.22-7.748,2.001-11.691,2.543
			c-3.716,0.504-7.49,0.354-11.252,0.354c-4.933,0-9.682-0.991-14.376-2.337c-1.941-0.559-3.685-1.57-5.241-2.838
			c-1.462-1.184-1.297-3.409,0.249-4.539C118.404,176.624,120.188,176.124,122.226,175.469z"/>
		<path class="st3" d="M124.592,142.646c-3.24,1.063-6.529,1.923-9.691,3.18c-1.235,0.493-2.465,0.98-3.559,1.743
			c-0.541,0.378-1.167,0.771-1.025,1.558c0.127,0.704,0.813,0.878,1.359,1.1c1.517,0.63,3.145,0.908,4.754,1.053
			c8.396,0.738,16.801,0.545,25.204,0.156c6.36-0.295,12.708-0.801,19.021-1.624c3.179-0.415,6.349-0.907,9.522-1.377
			c0.595-0.089,1.184-0.238,2.212-0.036c-2.418,1.065-4.178,2.688-6.421,3.271c-7.617,1.977-15.401,2.867-23.233,3.366
			c-5.649,0.367-11.299,0.626-16.956,0.463c-6.517-0.186-13.034-0.444-19.453-1.713c-1.702-0.336-3.388-0.739-4.966-1.472
			c-0.789-0.368-1.662-0.805-1.675-1.798c-0.013-0.901,0.748-1.423,1.473-1.816c3.33-1.791,6.839-3.137,10.469-4.183
			C115.859,143.295,120.173,142.646,124.592,142.646z"/>
		<path class="st3" d="M118.313,159.955c-0.163,0.258-0.328,0.51-0.482,0.775c-0.964,1.616-0.646,2.675,1.116,3.36
			c1.725,0.673,3.573,0.824,5.393,0.948c4.721,0.337,9.434,0.802,14.187,0.681c7.503-0.191,14.902-1.191,22.272-2.513
			c0.506-0.089,0.967-0.276,1.426,0.155c1.484,1.426,3.312,2.322,5.632,3.379c-3.055,0.746-5.663,1.444-8.301,2.009
			c-9,1.922-18.139,2.634-27.312,2.44c-6.016-0.126-12.011-0.877-17.704-3.054c-1.115-0.427-2.104-1.184-2.846-2.151
			c-0.77-1.004-0.431-2.394,0.871-3.483c1.622-1.363,3.531-2.193,5.575-2.723C118.195,159.838,118.252,159.893,118.313,159.955z"/>
		<path class="st3" d="M107.717,204.577c5.708,0.717,11.368,1.191,17.021,1.448c5.495,0.253,11.012,0.565,16.517,0.241
			c3.458-0.206,6.914-0.15,10.376-0.398c6.077-0.432,12.138-1.003,18.162-1.94c5.649-0.884,11.247-2.05,16.688-3.877
			c3.36-1.13,6.529-2.603,9.359-4.84c0,1.755-1.279,3.595-3.511,5.11c-3.186,2.158-6.757,3.444-10.435,4.425
			c-4.144,1.1-8.338,2.025-12.577,2.567c-4.389,0.559-8.838,0.673-13.255,0.943c-5.604,0.348-11.219,0.45-16.824,0.325
			c-4.842-0.114-9.676-0.475-14.515-0.62c-5.173-0.155-10.16-1.346-15.152-2.511C108.919,205.299,108.334,204.878,107.717,204.577z"
			/>
		<path class="st3" d="M176.712,143.74c1.124-1.786,2.97-2.061,4.748-2.339c4.102-0.632,7.978,0.055,11.164,2.851
			c4.215,3.69,4.599,9.281,1.172,14.031c-1.73,2.392-3.931,4.262-6.407,5.819c-4.389,2.766-9.174,4.527-14.218,5.88
			c0.03-0.855,0.68-0.951,1.118-1.196c3.529-1.954,6.95-4.064,9.925-6.812c2.074-1.912,3.925-4.003,4.979-6.672
			c1.245-3.157,1.196-6.216-1.082-8.904c-2.406-2.844-5.549-3.817-9.198-3.174C178.173,143.351,177.445,143.566,176.712,143.74z"/>
		<path class="st3" d="M172.625,148.154c0.01-0.025,0.028-0.056,0.046-0.08c0.025,0.036,0.056,0.08,0.079,0.116
			C172.707,148.176,172.666,148.165,172.625,148.154z"/>
		<path class="st2" d="M141.526,141.558c0.065,0,0.138,0,0.204,0c-0.018,0.06-0.036,0.114-0.054,0.174
			c-0.049-0.06-0.097-0.125-0.146-0.186L141.526,141.558z"/>
		<path class="st3" d="M118.141,159.779c0.107-0.03,0.217-0.054,0.325-0.083c-0.051,0.083-0.103,0.174-0.152,0.258
			C118.252,159.893,118.195,159.838,118.141,159.779z"/>
	</g>
</g>
<g id="circle">
	<circle class="st4" cx="144.001" cy="144" r="142.2"/>
</g>
</svg>
