<?xml version="1.0" encoding="utf-8"?>
<!-- Generator: Adobe Illustrator 16.0.0, SVG Export Plug-In . SVG Version: 6.00 Build 0)  -->
<!DOCTYPE svg PUBLIC "-//W3C//DTD SVG 1.1//EN" "http://www.w3.org/Graphics/SVG/1.1/DTD/svg11.dtd">
<svg version="1.1" xmlns="http://www.w3.org/2000/svg" xmlns:xlink="http://www.w3.org/1999/xlink" x="0px" y="0px" width="288px"
	 height="288px" viewBox="0 0 288 288" style="enable-background:new 0 0 288 288;" xml:space="preserve">
<style type="text/css">
<![CDATA[
	.st0{fill-rule:evenodd;clip-rule:evenodd;fill:#D5BA33;}
	.st1{fill-rule:evenodd;clip-rule:evenodd;fill:#EAEAE9;}
	.st2{fill-rule:evenodd;clip-rule:evenodd;fill:#EBEDF5;}
	.st3{fill:none;stroke:#000000;stroke-width:3;}
	.st4{fill-rule:evenodd;clip-rule:evenodd;fill:#FED93E;}
	.st5{fill-rule:evenodd;clip-rule:evenodd;fill:#FEFEFC;}
	.st6{fill-rule:evenodd;clip-rule:evenodd;fill:#D3B421;}
]]>
</style>
<g id="Layer_1">
	<g>
		<path class="st0" d="M63.205,58.816c1.712,19.446,3.415,38.893,5.136,58.337c1.827,20.633,3.669,41.262,5.504,61.893
			c1.153,12.963,2.338,25.922,3.433,38.892c0.154,1.828,0.762,2.686,2.648,3.211c20.793,5.779,41.554,11.67,62.315,17.559
			c1.258,0.357,2.406,0.426,3.702,0.059c21.072-5.953,42.154-11.873,63.252-17.738c1.585-0.441,2.098-1.225,2.234-2.791
			c3.038-34.785,6.111-69.565,9.202-104.345c1.635-18.408,3.315-36.812,4.965-55.218H63.239
			C63.228,58.721,63.219,58.768,63.205,58.816z M144.341,71.99c0-3.326,0.01-3.335,3.269-3.336c20.076-0.003,40.153-0.003,60.229,0
			c3.137,0,3.389,0.259,3.098,3.44c-1.384,15.138-2.824,30.271-4.174,45.413c-1.194,13.407-2.258,26.827-3.447,40.234
			c-1.19,13.407-2.469,26.806-3.703,40.209c-0.341,3.706-0.725,7.409-0.959,11.122c-0.093,1.482-0.575,2.245-2.086,2.657
			c-16.685,4.546-33.353,9.146-50.015,13.773c-1.598,0.443-2.264,0.004-2.212-1.629c0.023-0.713-0.001-1.428-0.001-2.141
			c-0.001-24.839-0.001-49.677-0.001-74.516C144.339,122.142,144.339,97.065,144.341,71.99z M90.273,166.757
			c0.9-0.244,1.707,0.155,2.533,0.385c8.899,2.465,17.795,4.94,26.694,7.402c0.825,0.229,1.631,0.643,2.532,0.364
			c-0.021-25.652-0.039-51.305-0.058-76.957c0-2.059-0.021-4.118,0.021-6.176c0.015-0.724-0.284-1.678,0.899-1.873
			c4.713-0.207,9.426-0.258,14.138,0.028c0.444-0.004,0.607,0.26,0.626,0.661c0.041,0.869,0.115,1.738,0.117,2.607
			c0.006,34.183,0.006,68.366,0.004,102.548c0,3.054-0.002,3.046-2.905,2.236c-13.976-3.895-27.953-7.781-41.927-11.686
			c-0.907-0.253-1.778-0.635-2.666-0.957c-0.722-0.431-0.743-1.142-0.743-1.862c0-4.947,0.002-9.894,0-14.841
			C89.539,167.912,89.6,167.215,90.273,166.757z"/>
		<path class="st0" d="M63.327,58.197c-0.019,0.158-0.049,0.317-0.088,0.477h162.357c0.015-0.159,0.028-0.317,0.042-0.477H63.327z"
			/>
		<path class="st4" d="M144.339,147.217c0-25.075,0-50.151,0.002-75.227c0-3.326,0.01-3.335,3.269-3.336
			c20.076-0.003,40.153-0.003,60.229,0c3.137,0,3.389,0.259,3.098,3.44c-1.384,15.138-2.824,30.271-4.174,45.413
			c-1.194,13.407-2.258,26.827-3.447,40.234c-1.19,13.407-2.469,26.806-3.703,40.209c-0.341,3.706-0.725,7.409-0.959,11.122
			c-0.093,1.482-0.575,2.245-2.086,2.657c-16.685,4.546-33.353,9.146-50.015,13.773c-1.598,0.443-2.264,0.004-2.212-1.629
			c0.023-0.713-0.001-1.428-0.001-2.141C144.339,196.893,144.339,172.055,144.339,147.217z M150.944,125.015
			c0,11.109,0.035,22.221-0.034,33.331c-0.012,1.851,0.44,2.266,2.308,1.913c9.354-1.762,18.745-3.333,28.102-5.086
			c1.718-0.321,2.076,0.14,1.967,1.732c-0.277,4.036-0.525,8.079-0.618,12.122c-0.039,1.761-0.766,2.426-2.407,2.848
			c-9.144,2.346-18.25,4.833-27.388,7.207c-1.347,0.351-1.993,0.834-1.964,2.373c0.097,5.076,0.084,10.158,0.008,15.235
			c-0.025,1.626,0.371,2.01,2.017,1.571c13.414-3.575,26.846-7.082,40.285-10.564c1.333-0.345,1.935-0.893,2.045-2.375
			c1.193-15.982,2.466-31.958,3.72-47.936c0.259-3.293,0.261-3.309-3.094-2.896c-8.82,1.087-17.645,2.134-26.449,3.321
			c-2.083,0.281-2.767-0.145-2.729-2.373c0.13-7.935,0.121-15.873,0.002-23.806c-0.032-2.09,0.542-2.703,2.653-2.679
			c9.84,0.107,19.681,0.014,29.521,0.079c1.748,0.012,2.526-0.387,2.638-2.323c0.284-4.908,0.749-9.81,1.286-14.698
			c0.202-1.838-0.369-2.307-2.161-2.3c-15.792,0.06-31.585,0.068-47.377-0.008c-1.946-0.009-2.375,0.656-2.363,2.46
			C150.979,103.111,150.944,114.063,150.944,125.015z"/>
		<path class="st1" d="M90.273,166.757c0.9-0.244,1.707,0.155,2.533,0.385c8.899,2.465,17.795,4.94,26.694,7.402
			c0.825,0.229,1.631,0.643,2.532,0.364c1.28-0.827,0.822-2.138,0.822-3.259c0.031-27.249,0.033-54.497,0.04-81.747
			c4.713-0.207,9.426-0.258,14.138,0.028c0.211,0.22,0.417,0.44,0.626,0.66c0.041,0.869,0.115,1.738,0.117,2.607
			c0.006,34.183,0.006,68.366,0.004,102.548c0,3.054-0.002,3.046-2.905,2.236c-13.976-3.895-27.953-7.781-41.927-11.686
			c-0.907-0.253-1.778-0.635-2.666-0.957C90.279,179.146,90.277,172.951,90.273,166.757z"/>
		<path class="st2" d="M122.896,89.903c-0.007,27.25-0.009,54.498-0.04,81.747c0,1.121,0.458,2.432-0.822,3.259
			c-0.021-25.652-0.039-51.305-0.058-76.957c0-2.059-0.021-4.118,0.021-6.176C122.011,91.051,121.712,90.098,122.896,89.903z"/>
		<path class="st6" d="M90.273,166.757c0.004,6.194,0.006,12.389,0.009,18.583c-0.722-0.431-0.743-1.142-0.743-1.862
			c0-4.947,0.002-9.894,0-14.841C89.539,167.912,89.6,167.215,90.273,166.757z"/>
		<path class="st2" d="M137.659,90.591c-0.209-0.22-0.415-0.44-0.626-0.66C137.478,89.926,137.641,90.19,137.659,90.591z"/>
		<path class="st5" d="M150.944,125.015c0-10.953,0.035-21.904-0.034-32.855c-0.012-1.804,0.417-2.469,2.363-2.46
			c15.792,0.076,31.585,0.068,47.377,0.008c1.792-0.007,2.363,0.461,2.161,2.3c-0.537,4.889-1.002,9.79-1.286,14.698
			c-0.111,1.937-0.89,2.335-2.638,2.323c-9.841-0.065-19.682,0.028-29.521-0.079c-2.111-0.024-2.686,0.588-2.653,2.679
			c0.119,7.934,0.128,15.872-0.002,23.806c-0.037,2.229,0.646,2.654,2.729,2.373c8.805-1.188,17.629-2.234,26.449-3.321
			c3.354-0.413,3.353-0.397,3.094,2.896c-1.254,15.978-2.526,31.954-3.72,47.936c-0.11,1.483-0.712,2.03-2.045,2.375
			c-13.439,3.483-26.871,6.99-40.285,10.564c-1.646,0.439-2.042,0.055-2.017-1.571c0.076-5.077,0.089-10.159-0.008-15.235
			c-0.029-1.538,0.617-2.022,1.964-2.373c9.138-2.373,18.244-4.86,27.388-7.207c1.642-0.421,2.368-1.086,2.407-2.848
			c0.093-4.043,0.341-8.086,0.618-12.122c0.109-1.592-0.249-2.053-1.967-1.732c-9.356,1.753-18.747,3.324-28.102,5.086
			c-1.867,0.353-2.319-0.063-2.308-1.913C150.979,147.236,150.944,136.125,150.944,125.015z"/>
	</g>
</g>
<g id="circle">
	<circle class="st3" cx="144.439" cy="144" r="142.2"/>
</g>
</svg>
