<?xml version="1.0" encoding="utf-8"?>
<!-- Generator: Adobe Illustrator 16.0.0, SVG Export Plug-In . SVG Version: 6.00 Build 0)  -->
<!DOCTYPE svg PUBLIC "-//W3C//DTD SVG 1.1//EN" "http://www.w3.org/Graphics/SVG/1.1/DTD/svg11.dtd">
<svg version="1.1" xmlns="http://www.w3.org/2000/svg" xmlns:xlink="http://www.w3.org/1999/xlink" x="0px" y="0px" width="288px"
	 height="288px" viewBox="0 0 288 288" style="enable-background:new 0 0 288 288;" xml:space="preserve">
<style type="text/css">
<![CDATA[
	.st0{fill-rule:evenodd;clip-rule:evenodd;fill:#AEC2C9;}
	.st1{fill-rule:evenodd;clip-rule:evenodd;fill:#134E61;}
	.st2{fill-rule:evenodd;clip-rule:evenodd;fill:#E77912;}
	.st3{fill-rule:evenodd;clip-rule:evenodd;fill:#85A3AD;}
	.st4{fill-rule:evenodd;clip-rule:evenodd;fill:#F6CDA8;}
	.st5{fill-rule:evenodd;clip-rule:evenodd;fill:#F6F8F9;}
	.st6{fill-rule:evenodd;clip-rule:evenodd;fill:#FDFBF8;}
	.st7{fill-rule:evenodd;clip-rule:evenodd;fill:#FEFEFE;}
	.st8{fill-rule:evenodd;clip-rule:evenodd;fill:none;stroke:#000000;stroke-width:3;}
]]>
</style>
<g id="Layer_1">
	<g>
		<path class="st1" d="M43.43,144.201C43.428,88.66,88.678,43.41,144.202,43.429c55.121,0.019,100.384,45.438,100.368,100.713
			c-0.016,55.241-45.438,100.463-100.871,100.428C88.783,244.533,43.432,199.138,43.43,144.201z"/>
		<path class="st7" d="M144.723,237.265c-52.271-0.247-91.712-39.4-94.17-88.442c-2.761-55.081,40.485-96.827,89.998-98.005
			c54.868-1.307,94.903,39.503,96.961,89.467C239.726,194.057,196.859,237.042,144.723,237.265z"/>
		<path class="st1" d="M139.557,57.617c-7.034,2.989-13.041,7.366-17.792,13.371c-6.947,8.783-10.541,18.719-10.723,30.009
			c-0.221,13.708,4.733,25.283,14.063,34.979c5.057,5.253,11.414,8.823,18.293,11.308c7.383,2.667,13.18,7.419,17.887,13.548
			c8.653,11.275,11.181,23.907,6.928,37.429c-5.249,16.685-17.011,26.424-34.128,29.513c-7.646,1.381-15.074,0.011-22.277-2.939
			c-17.517-7.174-31.612-18.463-41.688-34.543c-7.243-11.563-11.655-24.135-13.049-37.78c-1.81-17.702,1.754-34.313,10.113-49.867
			c7.154-13.31,17.339-23.894,30.109-32.042c10.458-6.67,21.788-10.879,34.007-12.761c2.428-0.375,4.896-0.503,7.345-0.745
			C139.129,56.954,139.616,56.806,139.557,57.617z"/>
		<path class="st2" d="M147.688,230.951c12.5-5.58,21.332-14.555,26.168-27.315c2.116-5.586,3.261-11.375,3.177-17.411
			c-0.166-11.822-3.987-22.227-11.543-31.327c-5.664-6.822-12.944-11.259-21.085-14.314c-7.301-2.739-13.106-7.351-17.739-13.433
			c-8.485-11.144-10.926-23.542-7.053-37.085c3.43-11.994,11.11-20.532,22.052-26.029c9.56-4.803,19.677-5.566,29.965-2.341
			c11.063,3.467,20.839,9.202,29.638,16.736c12.604,10.792,21.172,24.225,26.125,39.947c3.945,12.53,5.042,25.315,2.997,38.407
			c-2.051,13.11-6.676,25.186-14.126,36.045c-8.404,12.25-19.36,21.777-32.633,28.635
			C172.31,227.313,160.281,230.248,147.688,230.951z"/>
		<path class="st0" d="M139.557,57.617c-0.079-0.569-0.605-0.351-0.912-0.521c0.693-0.569,1.48-0.332,2.3-0.282
			C140.626,57.406,140.151,57.61,139.557,57.617z"/>
		<path class="st7" d="M129.91,156.934c0.279-1.711,0.415-3.462,0.865-5.125c0.916-3.386,4.262-4.412,6.917-2.065
			c3.447,3.045,4.68,7.187,5.316,11.58c0.83,5.725-0.357,11.215-1.843,16.675c-0.168,0.615-0.541,1.129,0.054,1.779
			c3.683,4.037,5.232,9.14,6.733,14.188c0.986,3.326,3.029,5.877,5.013,8.529c1.349,1.8,2.761,3.54,3.253,5.822
			c0.883,4.093-1.486,7.172-5.643,7.006c-4.26-0.168-7.99-1.946-11.341-4.473c-1.369-1.035-2.729-1.781-4.497-1.809
			c-8.541-0.133-14.896-4.998-21.152-9.962c-8.735-6.931-14.508-15.939-18.469-26.286c-1.546-4.042-3.744-7.832-5.615-11.751
			c-0.563-1.185-1.455-1.922-2.658-2.379c-7.577-2.875-14.019-7.426-19.566-13.291c-0.345-0.366-0.641-0.784-0.927-1.2
			c-0.686-0.998-0.654-1.564,0.731-1.994c3.546-1.102,7.336-0.917,10.835-2.188c0.324-0.119,0.666-0.186,1.206-0.332
			c-1.27-2.07-3.236-3.027-5.063-4.055c-4.205-2.366-7.175-6.027-10.296-9.533c-0.495-0.557-1.083-1.6-0.555-2.107
			c0.742-0.711,1.359,0.298,1.94,0.796c2.255,1.931,4.66,3.62,7.382,4.858c4.239,1.931,8.308,4.131,11.238,7.929
			c0.177,0.229,0.367,0.451,0.523,0.693c1.924,2.978,1.646,3.706-1.602,4.904c-3.626,1.339-7.413,1.587-11.867,1.704
			c5.675,3.72,10.268,8.104,16.513,9.435c3.839,0.821,6.047,3.111,7.463,6.483c2.32,5.523,4.881,10.947,7.427,16.355
			c5.981,12.711,15.423,22.005,28.671,27.181c2.368,0.926,4.881,0.477,7.298,0.977c1.025,0.213,1.9,0.424,2.704,1.125
			c2.539,2.212,5.61,3.47,8.7,4.671c0.983,0.382,1.99,0.614,2.771-0.39c0.702-0.904,0.32-1.816-0.172-2.629
			c-0.599-0.984-1.231-1.965-1.985-2.828c-3.567-4.069-5.595-8.883-7.066-14.01c-1.006-3.501-2.484-6.776-5.169-9.385
			c-1.579-1.534-1.034-3.396-0.431-5.098c0.995-2.797,2.026-5.561,2.234-8.563c0.317-4.567-0.301-8.958-2.386-13.074
			c-0.415-0.819-0.881-1.675-2.061-2.103c-0.789,1.873-0.686,3.897-1.003,5.814c-0.439,2.664-1.527,4.939-3.319,6.918
			c-0.878,0.97-1.475,1.004-1.977-0.385c-2.378-6.569-5.883-12.534-9.867-18.24c-0.474-0.679-1.068-1.349-0.909-2.705
			c5.059,2.978,8.529,7.012,10.821,12.133c0.277,0.4,0.536,0.813,0.814,1.775c-0.037-0.228,0.31-0.531,0.03-0.474
			c-0.129,0.025-0.201-0.167-0.204-0.325C129.717,157.291,129.749,157.092,129.91,156.934z"/>
		<path class="st5" d="M135.698,199.688c-1.566-0.297-2.502-1.188-3.13-2.487c-0.618-1.283-0.143-2.391,0.563-3.421
			c0.553-0.807,1.05-0.573,1.388,0.24c0.553,1.336,1.312,2.54,2.248,3.652c0.333,0.398,0.953,0.953,0.438,1.487
			C136.858,199.515,136.167,199.536,135.698,199.688z"/>
		<path class="st3" d="M129.91,156.934c-0.041,0.329-0.083,0.658-0.123,0.987c-0.499-0.332-0.664-0.83-0.705-1.39
			C129.357,156.666,129.636,156.799,129.91,156.934z"/>
		<path class="st7" d="M211.907,148.237c3.879,2.998,8.543,5.005,11.625,8.994c1.393,1.803,3.747,3.004,3.942,5.781
			c-0.354-0.037-0.619,0.018-0.741-0.089c-5.317-4.672-12.408-6.52-17.753-11.13c-1.592-1.374-2.835-3.013-3.657-5.023
			c-0.582-1.42-0.132-1.933,1.104-2.428c4.069-1.626,8.327-2.173,12.76-2.429c-4.62-2.933-8.445-7.259-13.908-8.462
			c-5.868-1.291-8.623-5.04-10.936-10.192c-3.038-6.773-5.373-13.934-9.623-20.119c-6.371-9.272-14.38-16.578-25.146-20.509
			c-2.323-0.849-4.738-0.479-7.086-0.904c-0.88-0.158-1.751-0.244-2.4-0.854c-2.487-2.34-5.603-3.547-8.662-4.85
			c-1.089-0.464-2.287-0.792-3.233,0.241c-0.989,1.077-0.118,2.101,0.426,2.959c1.083,1.704,2.281,3.342,3.528,4.931
			c2.365,3.014,3.737,6.455,4.794,10.1c1.125,3.894,2.469,7.709,5.531,10.646c1.608,1.544,1.207,3.492,0.525,5.288
			c-1.589,4.185-2.548,8.434-2.169,12.956c0.257,3.075,1.113,5.957,2.353,8.742c0.409,0.926,1.069,1.704,2.211,2.16
			c0.387-2.356,0.819-4.657,1.127-6.976c0.322-2.436,1.765-4.236,3.216-6.043c0.816-1.017,1.487-0.765,1.856,0.375
			c2.25,6.97,6.077,13.081,10.266,19.003c0.494,0.7,0.81,1.525,1.217,2.312c-3.847-1.092-7.563-5.045-11.996-12.789
			c-0.927,1.293-0.657,2.779-0.944,4.11c-0.374,1.738-0.677,3.521-2.691,4.095c-2.045,0.58-3.83,0.134-5.296-1.551
			c-3.259-3.741-4.363-8.234-4.763-13.015c-0.426-5.086,0.816-9.927,2.101-14.762c0.152-0.572,0.432-1.014-0.073-1.574
			c-3.55-3.938-5.194-8.854-6.639-13.769c-0.976-3.319-2.822-5.971-4.849-8.607c-1.759-2.286-3.712-4.444-3.636-7.647
			c0.089-3.654,2.007-5.705,5.692-5.59c4.524,0.141,8.377,2.19,11.871,4.839c1.118,0.849,2.178,1.404,3.492,1.422
			c6.277,0.087,11.579,2.658,16.625,6.153c8.051,5.574,14.871,12.34,19.369,21.04c3.146,6.086,5.643,12.517,8.633,18.707
			c1.195,2.474,2.622,4.232,5.303,5.189c6.377,2.278,11.526,6.551,16.554,10.909c1.193,1.034,2.997,2.428,2.52,4.023
			c-0.502,1.674-2.814,1.382-4.364,1.65c-2.421,0.419-4.858,0.714-7.229,1.396C212.403,147.332,211.061,147.068,211.907,148.237z"/>
		<path class="st6" d="M158.273,91.236c-0.071,0.26-0.138,0.86-0.402,1.349c-0.227,0.418-0.636,0.921-1.046,1.01
			c-0.61,0.132-0.704-0.601-0.903-1.023c-0.589-1.249-1.262-2.438-2.222-3.445c-1.088-1.144-0.511-1.516,0.734-1.684
			C156.33,87.188,158.253,88.905,158.273,91.236z"/>
		<path class="st4" d="M211.907,148.237c-0.407-0.181-0.887-0.458-0.682-0.917c0.29-0.645,0.981-0.372,1.527-0.375
			C212.387,147.32,211.654,147.456,211.907,148.237z"/>
	</g>
</g>
<g id="circle">
	<circle class="st8" cx="144" cy="144.776" r="142.2"/>
</g>
</svg>
