<?xml version="1.0" encoding="utf-8"?>
<!-- Generator: Adobe Illustrator 16.0.0, SVG Export Plug-In . SVG Version: 6.00 Build 0)  -->
<!DOCTYPE svg PUBLIC "-//W3C//DTD SVG 1.1//EN" "http://www.w3.org/Graphics/SVG/1.1/DTD/svg11.dtd">
<svg version="1.1" xmlns="http://www.w3.org/2000/svg" xmlns:xlink="http://www.w3.org/1999/xlink" x="0px" y="0px" width="288px"
	 height="288px" viewBox="0 0 288 288" style="enable-background:new 0 0 288 288;" xml:space="preserve">
<style type="text/css">
<![CDATA[
	.st0{fill-rule:evenodd;clip-rule:evenodd;fill:#90C4FB;}
	.st1{fill-rule:evenodd;clip-rule:evenodd;fill:#2D2668;}
	.st2{fill-rule:evenodd;clip-rule:evenodd;fill:none;stroke:#000000;stroke-width:3;}
]]>
</style>
<g id="Layer_1">
	<g>
		<path class="st0" d="M62.981,62.95c54.153,0,107.948,0,162.038,0c0,54.018,0,107.896,0,162.1c-53.884,0-107.845,0-162.038,0
			C62.981,171.092,62.981,117.214,62.981,62.95z M77.718,77.675c0,44.473,0,88.634,0,132.699c44.433,0,88.593,0,132.688,0
			c0-44.379,0-88.458,0-132.699C166.12,77.675,122.043,77.675,77.718,77.675z"/>
		<path class="st1" d="M77.718,77.675c44.325,0,88.402,0,132.688,0c0,44.242,0,88.32,0,132.699c-44.096,0-88.256,0-132.688,0
			C77.718,166.309,77.718,122.147,77.718,77.675z M113.794,152.202c8.378,0.592,16.166,0.278,23.406-3.321
			c8.4-4.178,12.229-11.279,12.239-20.43c0.007-8.183-3.118-15.014-10.725-18.671c-12.322-5.926-25.193-3.456-37.881-2.279
			c0,24.302,0,47.941,0,71.549c4.396,0,8.532,0,12.96,0C113.794,170.088,113.794,161.375,113.794,152.202z M150.981,176.917
			c9.494,4.015,18.759,5.129,28.122,1.142c5.438-2.315,8.67-6.561,9.142-12.628c0.491-6.326-2.001-11.243-7.467-14.33
			c-3.429-1.937-7.215-3.236-10.812-4.883c-2.761-1.267-5.417-2.875-4.679-6.472c0.791-3.843,4.024-4.548,7.317-4.59
			c3.768-0.046,7.279,1.263,11.027,2.839c0.876-3.187,1.688-6.149,2.532-9.224c-7.002-3.281-13.958-3.951-21.074-2.144
			c-7.123,1.811-11.97,7.31-12.599,13.842c-0.716,7.41,3.477,11.764,9.447,14.873c2.367,1.23,4.955,2.028,7.415,3.089
			c3.432,1.479,6.991,3.185,5.948,7.775c-1.026,4.526-4.977,4.599-8.697,4.649c-4.607,0.064-8.745-1.81-13.068-3.408
			C152.678,170.633,151.894,173.541,150.981,176.917z"/>
		<path class="st0" d="M113.794,152.202c0,9.173,0,17.886,0,26.848c-4.428,0-8.564,0-12.96,0c0-23.607,0-47.247,0-71.549
			c12.688-1.177,25.559-3.646,37.881,2.279c7.606,3.657,10.731,10.489,10.725,18.671c-0.01,9.151-3.839,16.251-12.239,20.43
			C129.96,152.479,122.172,152.793,113.794,152.202z M113.969,141.239c7.553,2.29,16.66,0.121,19.938-4.961
			c3.112-4.823,3.286-9.967,0.081-14.822c-3.225-4.887-12.083-6.61-20.02-4.146C113.969,125.282,113.969,133.287,113.969,141.239z"
			/>
		<path class="st0" d="M150.981,176.917c0.912-3.376,1.696-6.283,2.556-9.468c4.323,1.598,8.461,3.472,13.068,3.408
			c3.721-0.051,7.671-0.123,8.697-4.649c1.043-4.59-2.517-6.296-5.948-7.775c-2.46-1.061-5.048-1.859-7.415-3.089
			c-5.971-3.109-10.163-7.463-9.447-14.873c0.629-6.533,5.476-12.032,12.599-13.842c7.116-1.808,14.072-1.137,21.074,2.144
			c-0.844,3.075-1.656,6.037-2.532,9.224c-3.748-1.577-7.26-2.886-11.027-2.839c-3.293,0.042-6.526,0.747-7.317,4.59
			c-0.738,3.597,1.918,5.205,4.679,6.472c3.597,1.647,7.383,2.946,10.812,4.883c5.466,3.087,7.958,8.004,7.467,14.33
			c-0.472,6.067-3.704,10.313-9.142,12.628C169.74,182.045,160.476,180.931,150.981,176.917z"/>
		<path class="st1" d="M113.969,141.239c0-7.952,0-15.958,0-23.93c7.937-2.464,16.795-0.741,20.02,4.146
			c3.205,4.855,3.031,9.999-0.081,14.822C130.629,141.36,121.521,143.529,113.969,141.239z"/>
	</g>
</g>
<g id="circle">
	<circle class="st2" cx="144" cy="144" r="142.2"/>
</g>
</svg>
