<?xml version="1.0" encoding="utf-8"?>
<!-- Generator: Adobe Illustrator 16.0.0, SVG Export Plug-In . SVG Version: 6.00 Build 0)  -->
<!DOCTYPE svg PUBLIC "-//W3C//DTD SVG 1.1//EN" "http://www.w3.org/Graphics/SVG/1.1/DTD/svg11.dtd">
<svg version="1.1" xmlns="http://www.w3.org/2000/svg" xmlns:xlink="http://www.w3.org/1999/xlink" x="0px" y="0px" width="288px"
	 height="288px" viewBox="0 0 288 288" style="enable-background:new 0 0 288 288;" xml:space="preserve">
<style type="text/css">
<![CDATA[
	.st0{fill-rule:evenodd;clip-rule:evenodd;fill:#0EC8D7;}
	.st1{fill-rule:evenodd;clip-rule:evenodd;fill:#22D689;}
	.st2{fill-rule:evenodd;clip-rule:evenodd;fill:#FAF74B;}
	.st3{fill-rule:evenodd;clip-rule:evenodd;fill:#FEFEFE;}
	.st4{fill-rule:evenodd;clip-rule:evenodd;fill:#000101;}
	.st5{fill-rule:evenodd;clip-rule:evenodd;fill:none;stroke:#000000;stroke-width:3;}
]]>
</style>
<g id="Layer_1">
	<g>
		<path class="st4" d="M193.697,85.117c2.85,0,5.7,0,9.049,0c0,4.565,0,8.946,0,13.327c0.002,11.067,0.004,22.133,0.007,33.201
			c0,23.682,0,47.365,0,71.234c-32.528,0-64.562,0-96.597,0c-6.883,0-13.768,0-20.729,0c0-39.44,0-78.426,0-117.74
			c13.719,0,27.244,0,40.77,0c8.045,0.007,16.09,0.014,24.135,0.021C164.787,85.146,179.242,85.131,193.697,85.117z
			 M106.818,134.517c4.262,0,8.127,0.305,11.928-0.059c10.145-0.97,16.211-8.143,15.736-18.212
			c-0.426-9.043-7.423-15.395-17.225-15.545c-4.842-0.076-9.686-0.014-14.529-0.014c-2.229,0-4.457,0-6.596,0
			c0,16.465,0,32.519,0,48.513c3.628,0,7.048,0,10.686,0C106.818,144.437,106.818,139.824,106.818,134.517z M183.114,107.517
			c-9.235-10.3-27.802-10.367-37.601-0.222c-9.963,10.315-9.148,27.865,1.722,37.11c10.493,8.924,28.405,7.405,36.239-3.24
			c-2.258-2.136-4.541-4.295-6.83-6.461c-9.484,6.743-16.991,7.21-22.511,1.368c-5.308-5.618-5.727-14.787-0.954-20.984
			c2.004-2.604,4.615-4.263,7.834-4.934c6.045-1.262,10.902,1.299,15.374,5.141C178.754,112.557,180.939,110.032,183.114,107.517z
			 M96.009,188.991c14.687,0,29.155,0,43.64,0c0-2.132,0-4.131,0-6.093c-14.654,0-29.107,0-43.64,0
			C96.009,184.966,96.009,186.824,96.009,188.991z"/>
		<path class="st1" d="M126.197,85.139c-13.525,0-27.051,0-40.77,0c0,39.313,0,78.299,0,117.74c6.961,0,13.846,0,20.728,0
			c-0.946,4.771-1.892,9.545-2.865,14.461c7.868,2.296,15.56,4.543,23.253,6.788c-4.203,4.927-8.407,9.854-12.709,14.894
			c-8.763-5.124-17.449-10.2-26.132-15.282c-12.181-7.128-24.33-14.311-36.572-21.331c-1.801-1.033-2.131-2.094-1.954-3.992
			c1.198-12.883,2.229-25.782,3.405-38.67c1.406-15.417,2.917-30.827,4.354-46.242c0.954-10.231,1.94-20.46,2.733-30.704
			c0.22-2.845,1.097-4.45,3.959-5.63c21.175-8.731,42.258-17.69,63.376-26.563c0.887-0.373,1.705-1.026,2.766-0.841
			c-0.565,4.863-1.32,9.712-1.648,14.592C127.652,71.303,126.129,78.147,126.197,85.139z"/>
		<path class="st2" d="M126.543,224.128c-7.693-2.245-15.385-4.492-23.253-6.788c0.974-4.916,1.919-9.689,2.865-14.461
			c32.036,0,64.069,0,96.598,0c0-23.869,0-47.553,0-71.234c3.688-1.209,7.374-2.417,11.163-3.659
			c2.639,9.389,5.211,18.541,7.783,27.692c4.372,16.178,8.74,32.354,13.119,48.53c1.336,4.939,2.701,9.871,4.049,14.791
			c-1.023,1.284-2.492,1.325-3.756,1.738c-17.98,5.906-35.975,11.768-53.949,17.69c-1.588,0.524-2.896-0.142-4.283-0.52
			C160.098,233.329,143.32,228.727,126.543,224.128z"/>
		<path class="st0" d="M221.699,155.678c-2.572-9.151-5.145-18.303-7.783-27.692c-3.789,1.241-7.476,2.45-11.163,3.659
			c-0.003-11.068-0.005-22.134-0.007-33.201c10.668,8.781,21.335,17.565,32.01,26.339c0.953,0.782,1.77,1.454,1.021,2.928
			C231.049,137.015,226.385,146.352,221.699,155.678z"/>
		<path class="st0" d="M126.197,85.139c-0.068-6.992,1.455-13.836,1.924-20.782c0.328-4.879,1.083-9.729,1.648-14.592
			c11.305,7.411,22.607,14.822,33.909,22.23c-0.777,0.872-1.532,1.766-2.333,2.618c-3.486,3.708-7.758,6.598-11.014,10.547
			C142.287,85.153,134.242,85.146,126.197,85.139z"/>
		<path class="st1" d="M150.332,85.16c3.256-3.949,7.527-6.839,11.014-10.547c0.801-0.852,1.556-1.746,2.333-2.618
			c2.1-0.972,3.577-2.717,5.216-4.25c6.533-6.104,13.045-12.23,20.01-18.767c0.73,5.179,1.43,9.866,2.047,14.565
			c0.945,7.188,1.835,14.382,2.747,21.574C179.242,85.131,164.787,85.146,150.332,85.16z"/>
		<path class="st3" d="M106.818,134.517c0,5.307,0,9.92,0,14.683c-3.638,0-7.058,0-10.686,0c0-15.994,0-32.047,0-48.513
			c2.139,0,4.367,0,6.596,0c4.844,0,9.688-0.062,14.529,0.014c9.802,0.151,16.799,6.502,17.225,15.545
			c0.475,10.069-5.592,17.242-15.736,18.212C114.945,134.821,111.08,134.517,106.818,134.517z M106.92,125.12
			c2.646,0,5.192,0.015,7.738-0.007c0.887-0.008,1.789-0.021,2.658-0.179c3.668-0.669,6.09-3.326,6.302-6.833
			c0.195-3.23-1.634-6.17-4.747-7.054c-3.934-1.118-7.945-0.4-11.951-0.586C106.92,115.593,106.92,120.21,106.92,125.12z"/>
		<path class="st3" d="M183.114,107.517c-2.175,2.515-4.36,5.04-6.727,7.777c-4.472-3.842-9.329-6.403-15.374-5.141
			c-3.219,0.671-5.83,2.331-7.834,4.934c-4.772,6.198-4.354,15.367,0.954,20.984c5.52,5.842,13.026,5.375,22.511-1.368
			c2.289,2.167,4.572,4.325,6.83,6.461c-7.834,10.646-25.746,12.164-36.239,3.24c-10.87-9.245-11.685-26.794-1.722-37.11
			C155.313,97.15,173.879,97.217,183.114,107.517z"/>
		<path class="st3" d="M96.009,188.991c0-2.167,0-4.025,0-6.093c14.532,0,28.985,0,43.64,0c0,1.962,0,3.961,0,6.093
			C125.164,188.991,110.695,188.991,96.009,188.991z"/>
		<path class="st4" d="M106.92,125.12c0-4.91,0-9.527,0-14.659c4.006,0.186,8.018-0.532,11.951,0.586
			c3.113,0.884,4.942,3.824,4.747,7.054c-0.212,3.507-2.634,6.164-6.302,6.833c-0.869,0.159-1.771,0.171-2.658,0.179
			C112.112,125.134,109.566,125.12,106.92,125.12z"/>
	</g>
</g>
<g id="circle">
	<circle class="st5" cx="144" cy="144" r="142.2"/>
</g>
</svg>
