<?xml version="1.0" encoding="utf-8"?>
<!-- Generator: Adobe Illustrator 16.0.0, SVG Export Plug-In . SVG Version: 6.00 Build 0)  -->
<!DOCTYPE svg PUBLIC "-//W3C//DTD SVG 1.1//EN" "http://www.w3.org/Graphics/SVG/1.1/DTD/svg11.dtd">
<svg version="1.1" xmlns="http://www.w3.org/2000/svg" xmlns:xlink="http://www.w3.org/1999/xlink" x="0px" y="0px" width="288px"
	 height="288px" viewBox="0 0 288 288" style="enable-background:new 0 0 288 288;" xml:space="preserve">
<style type="text/css">
<![CDATA[
	.st0{fill-rule:evenodd;clip-rule:evenodd;}
	.st1{fill-rule:evenodd;clip-rule:evenodd;fill:#FFFFFF;}
	.st2{fill-rule:evenodd;clip-rule:evenodd;fill:none;stroke:#000000;stroke-width:3;}
]]>
</style>
<g id="Layer_1">
	<g>
		<path class="st0" d="M91.5,210.472c5.814-0.728,8.973-3.9,8.755-8.525c-0.213-4.495-3.73-7.967-8.141-8.036
			c-4.66-0.073-7.838,3.333-8.494,9.105c-22.793-21.032-34.337-63.34-13.892-99.869c13.766-24.595,34.87-39.377,62.932-43.217
			c28.059-3.84,52.002,5.274,72.592,25.204c3.017-5.181,5.851-10.048,8.797-15.108c0.616,1.938,1.218,3.838,1.826,5.736
			c5.032,15.719,9.541,31.577,11.727,47.98c2.397,17.989,1.886,35.812-5.49,52.713c-12.313,28.214-33.651,45.638-64.036,51.095
			c-24.093,4.326-45.988-1.609-65.587-16.175C92.212,211.168,91.977,210.91,91.5,210.472z M203.122,129.615
			c0.228,0.102,0.454,0.204,0.681,0.306c-2.288,4.942-4.22,10.089-6.924,14.793c-13.246,23.042-32.118,39.36-57.702,47.472
			c-9.206,2.918-18.4,5.877-27.594,8.842c-0.858,0.276-1.66,0.732-2.488,1.106c0.896,0.442,1.651,0.495,2.396,0.433
			c2.645-0.224,5.288-0.738,7.925-0.689c9.171,0.167,18.337,0.579,27.508,0.786c5.247,0.119,10.502,0.064,15.751,0.014
			c7.654-0.075,15.203-1.06,22.607-2.988c12.851-3.348,23.614-9.782,30.946-21.225c6.584-10.275,9.085-21.74,9.722-33.695
			c0.471-8.836-0.353-17.634-1.769-26.353c-2.157-13.286-5.698-26.234-9.972-38.985c-0.229-0.68-0.545-1.331-1.009-2.45
			c-0.659,1.001-1.033,1.553-1.393,2.117c-1.391,2.187-2.624,4.495-4.19,6.549c-9.967,13.078-23.119,21.648-38.536,26.958
			c-11.224,3.864-22.988,3.761-34.611,4.575c-7.669,0.537-15.133,1.774-22.247,4.762c-19.771,8.303-31.063,27.516-27.909,47.81
			c1.337,8.608,5.07,15.904,13.008,20.325c1.161,0.647,2.862,0.953,4.143,0.663c10.498-2.387,20.977-4.874,31.422-7.48
			c18.733-4.674,35.22-13.586,49.451-26.635C190.828,148.838,197.933,139.963,203.122,129.615z"/>
		<path class="st1" d="M203.122,129.615c-5.189,10.348-12.294,19.224-20.785,27.01c-14.231,13.049-30.718,21.961-49.451,26.635
			c-10.445,2.607-20.924,5.094-31.422,7.48c-1.28,0.291-2.981-0.016-4.143-0.663c-7.938-4.421-11.671-11.717-13.008-20.325
			c-3.153-20.294,8.138-39.507,27.909-47.81c7.114-2.988,14.578-4.225,22.247-4.762c11.623-0.814,23.388-0.711,34.611-4.575
			c15.417-5.31,28.569-13.88,38.536-26.958c1.566-2.055,2.8-4.363,4.19-6.549c0.359-0.564,0.733-1.116,1.393-2.117
			c0.464,1.12,0.779,1.77,1.009,2.45c4.273,12.751,7.814,25.699,9.972,38.985c1.416,8.719,2.239,17.517,1.769,26.353
			c-0.637,11.955-3.138,23.419-9.722,33.695c-7.332,11.442-18.096,17.877-30.946,21.225c-7.404,1.928-14.953,2.913-22.607,2.988
			c-5.249,0.051-10.504,0.105-15.751-0.014c-9.171-0.208-18.337-0.62-27.508-0.786c-2.637-0.049-5.28,0.465-7.925,0.689
			c-0.744,0.062-1.499,0.009-2.396-0.433c0.828-0.374,1.63-0.83,2.488-1.106c9.193-2.965,18.388-5.923,27.594-8.842
			c25.584-8.111,44.456-24.43,57.702-47.472c2.704-4.704,4.636-9.852,6.924-14.793C203.576,129.818,203.35,129.717,203.122,129.615z
			"/>
	</g>
</g>
<g id="circle">
	<circle class="st2" cx="144" cy="144" r="142.2"/>
</g>
</svg>
