<?xml version="1.0" encoding="utf-8"?>
<!-- Generator: Adobe Illustrator 16.0.0, SVG Export Plug-In . SVG Version: 6.00 Build 0)  -->
<!DOCTYPE svg PUBLIC "-//W3C//DTD SVG 1.1//EN" "http://www.w3.org/Graphics/SVG/1.1/DTD/svg11.dtd">
<svg version="1.1" xmlns="http://www.w3.org/2000/svg" xmlns:xlink="http://www.w3.org/1999/xlink" x="0px" y="0px" width="288px"
	 height="288.333px" viewBox="0 0 288 288.333" style="enable-background:new 0 0 288 288.333;" xml:space="preserve">
<style type="text/css">
<![CDATA[
	.st0{fill-rule:evenodd;clip-rule:evenodd;}
	.st1{fill-rule:evenodd;clip-rule:evenodd;fill:#FFFFFF;}
	.st2{fill-rule:evenodd;clip-rule:evenodd;fill:none;stroke:#000000;stroke-width:3;}
]]>
</style>
<g id="Layer_1">
	<g>
		<path class="st0" d="M63.354,141.494c0-17.667-0.201-35.337,0.075-53c0.167-10.686,5.142-19.009,14.34-24.598
			c4.574-2.78,9.642-4.074,14.986-4.078c35.213-0.022,70.425-0.036,105.638,0c16.437,0.016,29.41,12.938,29.434,29.362
			c0.049,35.213,0.051,70.425,0.003,105.638c-0.021,16.766-12.99,29.626-29.943,29.673c-25.342,0.072-50.687,0.021-76.029,0.021
			c-9.504,0-19.008,0.064-28.512-0.021c-10.378-0.092-18.745-4.252-24.794-12.78c-3.609-5.089-5.164-10.872-5.186-17.032
			c-0.063-17.728-0.022-35.457-0.022-53.185C63.347,141.494,63.351,141.494,63.354,141.494z M126.448,155.006
			c0.459,0.699,0.773,1.403,1.279,1.913c15.924,15.956,31.875,31.885,47.787,47.854c0.982,0.985,1.747,1.25,3.12,0.69
			c9.58-3.914,19.201-7.737,28.828-11.545c1.107-0.437,1.573-0.98,1.572-2.247c-0.018-33.083,0.003-66.165,0.059-99.248
			c0.004-1.376-0.454-2.008-1.731-2.51c-9.478-3.725-18.943-7.487-28.363-11.357c-1.605-0.661-2.531-0.447-3.74,0.767
			c-15.854,15.939-31.765,31.822-47.665,47.717c-0.497,0.499-1.024,0.972-1.569,1.488c-3.091-2.401-6.017-4.676-8.94-6.949
			c-7.395-5.751-14.79-11.5-22.18-17.257c-0.74-0.577-1.361-0.988-2.414-0.426c-3.481,1.854-7.058,3.537-10.541,5.396
			c-0.54,0.289-1.101,1.15-1.103,1.749c-0.054,20.592-0.049,41.186,0.012,61.778c0.003,0.601,0.549,1.452,1.085,1.754
			c2.168,1.223,4.6,2.033,6.622,3.444c3.563,2.49,6.63,2.551,9.494-0.94c0.3-0.366,0.765-0.596,1.147-0.894
			C108.087,169.281,116.966,162.379,126.448,155.006z"/>
		<path class="st1" d="M126.448,155.006c-9.482,7.373-18.361,14.275-27.241,21.177c-0.383,0.297-0.848,0.527-1.147,0.894
			c-2.864,3.492-5.931,3.431-9.494,0.94c-2.022-1.411-4.454-2.221-6.622-3.444c-0.536-0.303-1.082-1.154-1.085-1.754
			c-0.061-20.593-0.065-41.187-0.012-61.778c0.002-0.599,0.563-1.46,1.103-1.749c3.483-1.859,7.06-3.542,10.541-5.396
			c1.053-0.562,1.674-0.151,2.414,0.426c7.39,5.757,14.785,11.506,22.18,17.257c2.924,2.273,5.85,4.548,8.94,6.949
			c0.545-0.517,1.072-0.99,1.569-1.488c15.9-15.895,31.812-31.778,47.665-47.717c1.209-1.214,2.135-1.428,3.74-0.767
			c9.42,3.87,18.886,7.632,28.363,11.357c1.277,0.502,1.735,1.133,1.731,2.51c-0.056,33.083-0.076,66.166-0.059,99.248
			c0.001,1.267-0.465,1.81-1.572,2.247c-9.627,3.808-19.248,7.631-28.828,11.545c-1.373,0.561-2.138,0.295-3.12-0.69
			c-15.912-15.969-31.863-31.898-47.787-47.854C127.222,156.41,126.907,155.705,126.448,155.006z M143.147,141.94
			c11.287,8.781,22.33,17.373,33.639,26.171c0-17.583,0-34.748,0-52.327C165.49,124.567,154.476,133.132,143.147,141.94z
			 M112.116,142.104c-6.09-6.094-12.292-12.297-18.3-18.308c0,11.979,0,24.358,0,36.548
			C99.967,154.216,106.155,148.046,112.116,142.104z"/>
		<path class="st0" d="M143.147,141.94c11.328-8.808,22.343-17.373,33.639-26.155c0,17.579,0,34.744,0,52.327
			C165.478,159.313,154.435,150.721,143.147,141.94z"/>
		<path class="st0" d="M112.116,142.104c-5.961,5.942-12.149,12.111-18.3,18.241c0-12.19,0-24.569,0-36.548
			C99.824,129.807,106.026,136.011,112.116,142.104z"/>
	</g>
</g>
<g id="circle">
	<circle class="st2" cx="144" cy="144.167" r="142.2"/>
</g>
</svg>
