<?xml version="1.0" encoding="utf-8"?>
<!-- Generator: Adobe Illustrator 16.0.0, SVG Export Plug-In . SVG Version: 6.00 Build 0)  -->
<!DOCTYPE svg PUBLIC "-//W3C//DTD SVG 1.1//EN" "http://www.w3.org/Graphics/SVG/1.1/DTD/svg11.dtd">
<svg version="1.1" id="circle" xmlns="http://www.w3.org/2000/svg" xmlns:xlink="http://www.w3.org/1999/xlink" x="0px" y="0px"
	 width="144px" height="144px" viewBox="0 0 144 144" enable-background="new 0 0 144 144" xml:space="preserve">
<circle fill="#6EBE47" stroke="#6EBE47" stroke-width="5" stroke-miterlimit="10" cx="72" cy="72" r="69.347"/>
<g id="Layer_1">
	<path fill="#7392FF" d="M72.001,5.21c-36.891,0-66.81,29.914-66.81,66.809c0,29.516,19.142,54.562,45.689,63.393
		c3.338,0.618,4.417-1.454,4.417-3.212v-12.434c-18.582,4.037-22.455-7.883-22.455-7.883c-3.039-7.721-7.422-9.779-7.422-9.779
		c-6.062-4.146,0.464-4.059,0.464-4.059c6.709,0.465,10.24,6.886,10.24,6.886c5.955,10.212,15.626,7.26,19.439,5.552
		c0.596-4.313,2.328-7.268,4.24-8.932C44.971,99.854,29.37,94.125,29.37,68.533c0-7.301,2.613-13.256,6.883-17.933
		c-0.689-1.687-2.979-8.485,0.65-17.682c0,0,5.612-1.793,18.377,6.848c5.328-1.482,11.041-2.221,16.722-2.248
		c5.675,0.027,11.392,0.766,16.734,2.248c12.753-8.641,18.354-6.848,18.354-6.848c3.635,9.2,1.347,16,0.654,17.682
		c4.294,4.677,6.879,10.638,6.879,17.933c0,25.656-15.627,31.311-30.509,32.96c2.4,2.074,4.586,6.133,4.586,12.378v18.326
		c0,1.781,1.064,3.864,4.458,3.207c26.53-8.846,45.647-33.884,45.647-63.389C138.809,35.124,108.896,5.21,72.001,5.21z"/>
</g>
</svg>
