<?xml version="1.0" encoding="utf-8"?>
<!-- Generator: Adobe Illustrator 16.0.0, SVG Export Plug-In . SVG Version: 6.00 Build 0)  -->
<!DOCTYPE svg PUBLIC "-//W3C//DTD SVG 1.1//EN" "http://www.w3.org/Graphics/SVG/1.1/DTD/svg11.dtd">
<svg version="1.1" xmlns="http://www.w3.org/2000/svg" xmlns:xlink="http://www.w3.org/1999/xlink" x="0px" y="0px"
	 width="154.75px" height="154.75px" viewBox="0 0 154.75 154.75" style="enable-background:new 0 0 154.75 154.75;"
	 xml:space="preserve">
<style type="text/css">
<![CDATA[
	.st0{fill:none;stroke:#FDCF0E;stroke-width:5;stroke-miterlimit:10;}
	.st1{fill:#097AB9;}
]]>
</style>
<g id="Layer_1">
	<path class="st1" d="M56.442,47.539c0,4.118-3.31,7.455-7.395,7.455c-4.086,0-7.396-3.337-7.396-7.455
		c0-4.115,3.311-7.455,7.396-7.455C53.133,40.083,56.442,43.423,56.442,47.539z M56.503,60.957h-14.91v47.71h14.91V60.957z
		 M80.304,60.957H65.49v47.71h14.813V83.623c0-13.926,17.979-15.066,17.979,0v25.044h14.875V78.458
		c0-23.497-26.604-22.643-32.854-11.076V60.957z"/>
</g>
<g id="circle">
	<circle class="st0" cx="77.375" cy="77.375" r="70.2"/>
</g>
</svg>
