<?xml version="1.0" encoding="utf-8"?>
<!-- Generator: Adobe Illustrator 16.0.0, SVG Export Plug-In . SVG Version: 6.00 Build 0)  -->
<!DOCTYPE svg PUBLIC "-//W3C//DTD SVG 1.1//EN" "http://www.w3.org/Graphics/SVG/1.1/DTD/svg11.dtd">
<svg version="1.1" id="circle" xmlns="http://www.w3.org/2000/svg" xmlns:xlink="http://www.w3.org/1999/xlink" x="0px" y="0px"
	 width="154.666px" height="154.667px" viewBox="0 0 154.666 154.667" style="enable-background:new 0 0 154.666 154.667;"
	 xml:space="preserve">
<style type="text/css">
<![CDATA[
	.st0{stroke:#010101;stroke-width:5;stroke-miterlimit:10;}
	.st1{fill:#FFFFFF;stroke:#FFFFFF;stroke-miterlimit:10;}
]]>
</style>
<circle class="st0" cx="77.333" cy="77.333" r="70.2"/>
<g id="Layer_1">
	<path class="st1" d="M77.334,9.722c-37.344,0-67.63,30.281-67.63,67.629c0,29.878,19.376,55.232,46.25,64.171
		c3.38,0.625,4.472-1.472,4.472-3.251v-12.587c-18.811,4.085-22.731-7.979-22.731-7.979c-3.076-7.816-7.513-9.9-7.513-9.9
		c-6.136-4.197,0.469-4.108,0.469-4.108c6.791,0.472,10.366,6.971,10.366,6.971c6.028,10.337,15.818,7.349,19.678,5.62
		c0.603-4.367,2.356-7.355,4.292-9.042c-15.016-1.716-30.809-7.516-30.809-33.422c0-7.391,2.646-13.419,6.968-18.153
		c-0.698-1.708-3.015-8.589,0.658-17.899c0,0,5.681-1.815,18.603,6.932c5.394-1.5,11.177-2.248,16.927-2.275
		c5.744,0.027,11.532,0.776,16.938,2.275c12.911-8.747,18.581-6.932,18.581-6.932c3.679,9.314,1.363,16.196,0.664,17.899
		c4.346,4.734,6.964,10.769,6.964,18.153c0,25.97-15.819,31.695-30.884,33.366c2.43,2.099,4.642,6.208,4.642,12.53v18.552
		c0,1.803,1.078,3.911,4.515,3.247c26.856-8.954,46.208-34.299,46.208-64.167C144.962,40.003,114.682,9.722,77.334,9.722z"/>
</g>
</svg>
