<?xml version="1.0" encoding="utf-8"?>
<!-- Generator: Adobe Illustrator 16.0.0, SVG Export Plug-In . SVG Version: 6.00 Build 0)  -->
<!DOCTYPE svg PUBLIC "-//W3C//DTD SVG 1.1//EN" "http://www.w3.org/Graphics/SVG/1.1/DTD/svg11.dtd">
<svg version="1.1" id="circle" xmlns="http://www.w3.org/2000/svg" xmlns:xlink="http://www.w3.org/1999/xlink" x="0px" y="0px"
	 width="135.715px" height="135.716px" viewBox="4.142 4.141 135.715 135.716" enable-background="new 4.142 4.141 135.715 135.716"
	 xml:space="preserve">
<circle fill="#7392FF" stroke="#CCCCCC" stroke-width="5" stroke-miterlimit="10" cx="72" cy="71.999" r="65.358"/>
<g id="Layer_1">
	<path fill="#F3F3F3" d="M72.001,9.051c-34.769,0-62.966,28.193-62.966,62.965c0,27.818,18.04,51.423,43.061,59.746
		c3.146,0.582,4.163-1.371,4.163-3.027v-11.719c-17.513,3.805-21.163-7.429-21.163-7.429c-2.864-7.276-6.995-9.217-6.995-9.217
		c-5.713-3.907,0.437-3.825,0.437-3.825c6.323,0.439,9.651,6.49,9.651,6.49c5.612,9.625,14.727,6.842,18.321,5.232
		c0.562-4.065,2.194-6.849,3.996-8.418c-13.98-1.599-28.684-6.998-28.684-31.118c0-6.881,2.463-12.493,6.487-16.901
		c-0.65-1.59-2.807-7.997,0.613-16.665c0,0,5.289-1.69,17.32,6.454c5.022-1.397,10.406-2.093,15.76-2.118
		c5.348,0.025,10.736,0.722,15.771,2.118c12.02-8.144,17.299-6.454,17.299-6.454c3.426,8.671,1.27,15.079,0.617,16.665
		c4.047,4.408,6.483,10.026,6.483,16.901c0,24.18-14.728,29.51-28.754,31.064c2.263,1.955,4.322,5.78,4.322,11.666v17.272
		c0,1.679,1.004,3.642,4.202,3.022c25.004-8.337,43.021-31.934,43.021-59.742C134.965,37.244,106.773,9.051,72.001,9.051z"/>
</g>
</svg>
