<?xml version="1.0" encoding="utf-8"?>
<!-- Generator: Adobe Illustrator 16.0.0, SVG Export Plug-In . SVG Version: 6.00 Build 0)  -->
<!DOCTYPE svg PUBLIC "-//W3C//DTD SVG 1.1//EN" "http://www.w3.org/Graphics/SVG/1.1/DTD/svg11.dtd">
<svg version="1.1" id="Layer_1" xmlns="http://www.w3.org/2000/svg" xmlns:xlink="http://www.w3.org/1999/xlink" x="0px" y="0px"
	 width="323.875px" height="323.875px" viewBox="0 0 323.875 323.875" enable-background="new 0 0 323.875 323.875"
	 xml:space="preserve">
<polygon fill="#BE1E2D" points="205.3,106.952 190.845,85.271 133.028,85.271 118.574,106.952 75.211,106.952 75.211,229.812 
	248.661,229.812 248.661,106.952 "/>
<path fill="#BE4E58" d="M234.208,157.541h-29.479c4.197,27.128-16.707,50.589-42.793,50.589c-26.1,0-46.981-23.475-42.791-50.589
	H89.666v-36.137h36.644l14.455-21.68h42.346l14.455,21.681h36.644L234.208,157.541L234.208,157.541z"/>
<path fill="#C5C9C7" d="M161.937,135.859c-16.211,0-28.906,12.502-28.906,28.47c0,16.175,12.966,29.346,28.906,29.346
	c15.943,0,28.908-13.171,28.908-29.346C190.845,148.362,178.147,135.859,161.937,135.859z"/>
<path fill="#FFFFFF" d="M158.79,161.549c-4.574,3.643-10.561,3.614-13.391-0.042c-2.814-3.656-1.403-9.567,3.17-13.202
	c4.566-3.627,10.559-3.606,13.375,0.05C164.774,152.003,163.349,157.915,158.79,161.549z"/>
<g id="circle">
	<circle fill="none" stroke="#CCCCCC" stroke-width="8" stroke-miterlimit="10" cx="161.937" cy="161.937" r="142.2"/>
</g>
<rect x="217.688" y="99.724" fill="#1C75BC" width="17.5" height="7.228"/>
</svg>
