<?xml version="1.0" encoding="utf-8"?>
<!-- Generator: Adobe Illustrator 16.0.0, SVG Export Plug-In . SVG Version: 6.00 Build 0)  -->
<!DOCTYPE svg PUBLIC "-//W3C//DTD SVG 1.1//EN" "http://www.w3.org/Graphics/SVG/1.1/DTD/svg11.dtd">
<svg version="1.1" id="Layer_1" xmlns="http://www.w3.org/2000/svg" xmlns:xlink="http://www.w3.org/1999/xlink" x="0px" y="0px"
	 width="323.875px" height="323.875px" viewBox="0 -36.125 323.875 323.875" enable-background="new 0 -36.125 323.875 323.875"
	 xml:space="preserve">
<path fill="#006838" d="M205.301,70.828l-14.455-21.681H133.03l-14.455,21.681H75.212v122.86h173.45V70.828H205.301z
	 M234.209,121.417h-29.479c4.198,27.128-16.706,50.589-42.792,50.589c-26.1,0-46.982-23.475-42.791-50.589h-29.48V85.28h36.644
	L140.765,63.6h42.347l14.454,21.681h36.644V121.417L234.209,121.417z M161.938,99.735c-16.211,0-28.907,12.502-28.907,28.47
	c0,16.175,12.966,29.346,28.907,29.346c15.943,0,28.908-13.171,28.908-29.346C190.846,112.238,178.149,99.735,161.938,99.735z
	 M158.791,125.425c-4.574,3.642-10.56,3.614-13.39-0.042c-2.815-3.656-1.404-9.567,3.169-13.202
	c4.567-3.627,10.559-3.606,13.375,0.05C164.775,115.879,163.35,121.791,158.791,125.425z"/>
<g id="circle">
	<circle fill="none" stroke="#009444" stroke-width="8" stroke-miterlimit="10" cx="161.938" cy="125.813" r="142.2"/>
</g>
</svg>
