<?xml version="1.0" encoding="utf-8"?>
<!-- Generator: Adobe Illustrator 16.0.0, SVG Export Plug-In . SVG Version: 6.00 Build 0)  -->
<!DOCTYPE svg PUBLIC "-//W3C//DTD SVG 1.1//EN" "http://www.w3.org/Graphics/SVG/1.1/DTD/svg11.dtd">
<svg version="1.1" xmlns="http://www.w3.org/2000/svg" xmlns:xlink="http://www.w3.org/1999/xlink" x="0px" y="0px"
	 width="287.75px" height="287.75px" viewBox="0 -263.75 287.75 287.75" enable-background="new 0 -263.75 287.75 287.75"
	 xml:space="preserve">
<g id="Layer_1">
	<path d="M187.238-174.86l-14.455-21.681h-57.815l-14.455,21.681H57.15V-52h173.45v-122.86H187.238z M216.146-124.271h-29.479
		c4.198,27.129-16.706,50.589-42.792,50.589c-26.1,0-46.982-23.474-42.791-50.589H71.604v-36.136h36.644l14.454-21.681h42.347
		l14.454,21.681h36.643V-124.271z M143.875-145.952c-16.211,0-28.907,12.502-28.907,28.47c0,16.176,12.965,29.346,28.907,29.346
		c15.943,0,28.908-13.17,28.908-29.346C172.783-133.449,160.087-145.952,143.875-145.952z M140.728-120.262
		c-4.573,3.642-10.559,3.614-13.389-0.042c-2.815-3.656-1.404-9.567,3.169-13.202c4.567-3.627,10.559-3.606,13.375,0.05
		C146.713-129.808,145.287-123.897,140.728-120.262z"/>
</g>
<g id="circle">
	<circle fill="none" stroke="#000000" stroke-miterlimit="10" cx="143.875" cy="-119.875" r="142.2"/>
</g>
</svg>
