<?xml version="1.0" encoding="utf-8"?>
<!-- Generator: Adobe Illustrator 16.0.0, SVG Export Plug-In . SVG Version: 6.00 Build 0)  -->
<!DOCTYPE svg PUBLIC "-//W3C//DTD SVG 1.1//EN" "http://www.w3.org/Graphics/SVG/1.1/DTD/svg11.dtd">
<svg version="1.1" id="Layer_1" xmlns="http://www.w3.org/2000/svg" xmlns:xlink="http://www.w3.org/1999/xlink" x="0px" y="0px"
	 width="131.45px" height="131.45px" viewBox="1.5 1.5 131.45 131.45" enable-background="new 1.5 1.5 131.45 131.45"
	 xml:space="preserve">
<polygon fill="#BE1E2D" points="86.504,42.778 80.078,33.138 54.371,33.138 47.945,42.778 28.665,42.778 28.665,97.402 
	105.783,97.402 105.783,42.778 "/>
<path fill="#BE4E58" d="M99.357,65.27H86.25c1.867,12.063-7.428,22.493-19.025,22.493c-11.604,0-20.889-10.438-19.026-22.493H35.092
	V49.203h16.293l6.427-9.639H76.64l6.427,9.64h16.292L99.357,65.27L99.357,65.27z"/>
<path fill="#C5C9C7" d="M67.225,55.629c-7.208,0-12.853,5.559-12.853,12.658c0,7.191,5.765,13.049,12.853,13.049
	s12.854-5.856,12.854-13.049C80.078,61.188,74.432,55.629,67.225,55.629z"/>
<path fill="#FFFFFF" d="M65.826,67.052c-2.035,1.62-4.697,1.606-5.955-0.019c-1.251-1.625-0.624-4.254,1.41-5.871
	c2.03-1.613,4.695-1.604,5.947,0.022C68.486,62.808,67.852,65.436,65.826,67.052z"/>
<g id="circle">
	<circle fill="none" stroke="#CCCCCC" stroke-width="5" stroke-miterlimit="10" cx="67.225" cy="67.224" r="63.225"/>
</g>
<rect x="92.012" y="39.563" fill="#1C75BC" width="7.781" height="3.214"/>
</svg>
