<?xml version="1.0" encoding="utf-8"?>
<!-- Generator: Adobe Illustrator 16.0.0, SVG Export Plug-In . SVG Version: 6.00 Build 0)  -->
<!DOCTYPE svg PUBLIC "-//W3C//DTD SVG 1.1//EN" "http://www.w3.org/Graphics/SVG/1.1/DTD/svg11.dtd">
<svg version="1.1" xmlns="http://www.w3.org/2000/svg" xmlns:xlink="http://www.w3.org/1999/xlink" x="0px" y="0px"
	 width="288.333px" height="287.917px" viewBox="0 0 288.333 287.917" enable-background="new 0 0 288.333 287.917"
	 xml:space="preserve">
<g id="Layer_1">
	<g id="Layer_1_1_">
		<path d="M111.582,129.986c0,6.737-5.481,12.219-12.219,12.219c-6.735,0-12.219-5.482-12.219-12.219
			c0-6.736,5.483-12.219,12.219-12.219C106.101,117.767,111.582,123.25,111.582,129.986z M241.917,180.62
			c0,12.93-4.562,21.106-14.248,25.896c-1.162,0.578-2.41,0.855-3.656,0.855c-1.973,0-3.926-0.709-5.477-2.076l-25.324-22.361
			c-4.547-4.023-8.506-8.178-19.58-8.178h-58.919c-11.079,0-15.045,4.154-19.584,8.178l-25.332,22.361
			c-1.533,1.367-3.495,2.076-5.476,2.076c-1.239,0-2.501-0.277-3.657-0.855c-9.687-4.791-14.248-12.969-14.248-25.889
			c0-16.797,7.698-44.483,21.839-80.292c6.696-16.967,18.671-23.296,30.098-23.296c5.345,0,10.574,1.384,15.096,3.714
			c19.745,10.174,42.114,9.963,61.453,0c4.504-2.33,9.732-3.714,15.077-3.714c11.428,0,23.411,6.33,30.106,23.296
			C234.219,136.136,241.917,163.825,241.917,180.62z M119.729,129.986c0-11.25-9.115-20.364-20.365-20.364
			c-11.249,0-20.365,9.115-20.365,20.364c0,11.249,9.115,20.365,20.364,20.365C110.613,150.351,119.729,141.235,119.729,129.986z
			 M152.313,109.621c0-4.497-3.643-8.146-8.146-8.146c-4.504,0-8.146,3.649-8.146,8.146s3.642,8.146,8.146,8.146
			C148.67,117.767,152.313,114.118,152.313,109.621z M180.822,129.986c0-3.381-2.735-6.109-6.108-6.109s-6.109,2.729-6.109,6.109
			c0,3.38,2.736,6.109,6.109,6.109S180.822,133.367,180.822,129.986z M195.079,144.243c0-3.381-2.738-6.109-6.109-6.109
			c-3.374,0-6.109,2.729-6.109,6.109c0,3.379,2.735,6.108,6.109,6.108C192.34,150.351,195.079,147.622,195.079,144.243z
			 M195.079,115.478c0-3.38-2.738-6.109-6.109-6.109c-3.374,0-6.109,2.729-6.109,6.109c0,3.381,2.735,6.109,6.109,6.109
			C192.34,121.588,195.079,118.85,195.079,115.478z M209.202,129.986c0-3.381-2.736-6.109-6.109-6.109
			c-3.371,0-6.108,2.729-6.108,6.109c0,3.38,2.737,6.109,6.108,6.109C206.465,136.095,209.202,133.367,209.202,129.986z"/>
	</g>
</g>
<g id="circle">
	<circle fill="none" stroke="#000000" stroke-miterlimit="10" cx="144.167" cy="143.958" r="142.2"/>
</g>
</svg>
