<?xml version="1.0" encoding="utf-8"?>
<!-- Generator: Adobe Illustrator 16.0.0, SVG Export Plug-In . SVG Version: 6.00 Build 0)  -->
<!DOCTYPE svg PUBLIC "-//W3C//DTD SVG 1.1//EN" "http://www.w3.org/Graphics/SVG/1.1/DTD/svg11.dtd">
<svg version="1.1" id="Layer_1" xmlns="http://www.w3.org/2000/svg" xmlns:xlink="http://www.w3.org/1999/xlink" x="0px" y="0px"
	 width="324.333px" height="323.867px" viewBox="0 0 324.333 323.867" enable-background="new 0 0 324.333 323.867"
	 xml:space="preserve">
<path fill="#4CA015" d="M259.916,198.596c0,12.931-4.563,21.105-14.248,25.896c-1.162,0.577-2.41,0.854-3.655,0.854
	c-1.974,0-3.927-0.709-5.478-2.076L211.21,200.91c-4.547-4.021-8.506-8.179-19.58-8.179h-58.918c-11.08,0-15.045,4.153-19.584,8.179
	L87.796,223.27c-1.533,1.367-3.496,2.076-5.477,2.076c-1.238,0-2.501-0.276-3.656-0.854c-9.688-4.791-14.248-12.97-14.248-25.891
	c0-16.797,7.697-44.481,21.838-80.292c6.697-16.967,18.672-23.296,30.099-23.296c5.345,0,10.573,1.384,15.097,3.714
	c19.744,10.174,42.113,9.963,61.451,0c4.504-2.33,9.732-3.714,15.078-3.714c11.428,0,23.41,6.33,30.105,23.296
	C252.218,154.111,259.916,181.801,259.916,198.596z"/>
<path fill="#CCCCCC" d="M170.312,127.596c0-4.497-3.643-8.146-8.146-8.146c-4.502,0-8.146,3.649-8.146,8.146
	s3.644,8.146,8.146,8.146C166.669,135.742,170.312,132.094,170.312,127.596z"/>
<path fill="#1549FF" d="M198.82,147.961c0-3.381-2.734-6.109-6.107-6.109s-6.108,2.729-6.108,6.109c0,3.38,2.735,6.109,6.108,6.109
	S198.82,151.343,198.82,147.961z"/>
<path fill="#8DC63F" d="M213.078,162.219c0-3.381-2.738-6.109-6.108-6.109c-3.373,0-6.109,2.729-6.109,6.109
	c0,3.378,2.736,6.108,6.109,6.108C210.339,168.326,213.078,165.598,213.078,162.219z"/>
<path fill="#ECC33D" d="M213.078,133.453c0-3.38-2.738-6.109-6.108-6.109c-3.373,0-6.109,2.729-6.109,6.109
	c0,3.381,2.736,6.109,6.109,6.109C210.339,139.563,213.078,136.825,213.078,133.453z"/>
<path fill="#BE1E2D" d="M227.201,147.961c0-3.381-2.736-6.109-6.109-6.109c-3.37,0-6.106,2.729-6.106,6.109
	c0,3.38,2.736,6.109,6.106,6.109C224.464,154.071,227.201,151.343,227.201,147.961z"/>
<g id="circle">
	<circle fill="none" stroke="#CCCCCC" stroke-width="8" stroke-miterlimit="10" cx="162.166" cy="161.933" r="142.2"/>
</g>
<path fill="#666666" d="M129.582,147.961c0,6.737-5.481,12.219-12.22,12.219c-6.735,0-12.219-5.482-12.219-12.219
	c0-6.736,5.483-12.219,12.219-12.219C124.1,135.742,129.582,141.225,129.582,147.961z"/>
</svg>
