<?xml version="1.0" encoding="utf-8"?>
<!-- Generator: Adobe Illustrator 16.0.0, SVG Export Plug-In . SVG Version: 6.00 Build 0)  -->
<!DOCTYPE svg PUBLIC "-//W3C//DTD SVG 1.1//EN" "http://www.w3.org/Graphics/SVG/1.1/DTD/svg11.dtd">
<svg version="1.1" id="Layer_1" xmlns="http://www.w3.org/2000/svg" xmlns:xlink="http://www.w3.org/1999/xlink" x="0px" y="0px"
	 width="324.333px" height="323.867px" viewBox="0 -35.949 324.333 323.867" enable-background="new 0 -35.949 324.333 323.867"
	 xml:space="preserve">
<g id="Layer_1_2_">
	<path fill="#1549FF" d="M129.582,112.012c0,6.737-5.481,12.219-12.219,12.219c-6.735,0-12.219-5.482-12.219-12.219
		c0-6.736,5.483-12.219,12.219-12.219C124.101,99.793,129.582,105.276,129.582,112.012z M259.917,162.647
		c0,12.93-4.563,21.105-14.248,25.896c-1.162,0.577-2.41,0.854-3.656,0.854c-1.973,0-3.926-0.709-5.477-2.076l-25.324-22.36
		c-4.547-4.022-8.506-8.179-19.58-8.179h-58.919c-11.079,0-15.045,4.154-19.584,8.179l-25.332,22.36
		c-1.533,1.367-3.495,2.076-5.476,2.076c-1.239,0-2.501-0.277-3.657-0.854c-9.687-4.791-14.248-12.97-14.248-25.89
		c0-16.797,7.698-44.482,21.839-80.292c6.696-16.967,18.671-23.296,30.098-23.296c5.345,0,10.574,1.384,15.096,3.714
		c19.745,10.174,42.114,9.963,61.452,0c4.504-2.33,9.732-3.714,15.078-3.714c11.428,0,23.41,6.33,30.105,23.296
		C252.219,118.162,259.917,145.852,259.917,162.647z M137.729,112.012c0-11.25-9.115-20.364-20.365-20.364
		c-11.249,0-20.365,9.115-20.365,20.364s9.115,20.365,20.364,20.365C128.612,132.377,137.729,123.261,137.729,112.012z
		 M170.313,91.647c0-4.497-3.643-8.146-8.146-8.146s-8.146,3.649-8.146,8.146s3.643,8.146,8.146,8.146
		S170.313,96.145,170.313,91.647z M198.821,112.012c0-3.381-2.734-6.109-6.107-6.109s-6.109,2.729-6.109,6.109
		c0,3.38,2.736,6.109,6.109,6.109S198.821,115.394,198.821,112.012z M213.079,126.27c0-3.381-2.738-6.109-6.109-6.109
		c-3.373,0-6.109,2.729-6.109,6.109c0,3.379,2.736,6.108,6.109,6.108C210.34,132.377,213.079,129.649,213.079,126.27z
		 M213.079,97.504c0-3.38-2.738-6.109-6.109-6.109c-3.373,0-6.109,2.729-6.109,6.109c0,3.381,2.736,6.109,6.109,6.109
		C210.34,103.614,213.079,100.876,213.079,97.504z M227.202,112.012c0-3.381-2.736-6.109-6.109-6.109
		c-3.371,0-6.107,2.729-6.107,6.109c0,3.38,2.736,6.109,6.107,6.109C224.465,118.122,227.202,115.394,227.202,112.012z"/>
</g>
<g id="circle">
	<circle fill="none" stroke="#A1B6FF" stroke-width="8" stroke-miterlimit="10" cx="162.167" cy="125.984" r="142.2"/>
</g>
</svg>
