<?xml version="1.0" encoding="utf-8"?>
<!-- Generator: Adobe Illustrator 16.0.0, SVG Export Plug-In . SVG Version: 6.00 Build 0)  -->
<!DOCTYPE svg PUBLIC "-//W3C//DTD SVG 1.1//EN" "http://www.w3.org/Graphics/SVG/1.1/DTD/svg11.dtd">
<svg version="1.1" id="Layer_1" xmlns="http://www.w3.org/2000/svg" xmlns:xlink="http://www.w3.org/1999/xlink" x="0px" y="0px"
	 width="135.859px" height="135.859px" viewBox="4.071 4.071 135.859 135.859" enable-background="new 4.071 4.071 135.859 135.859"
	 xml:space="preserve">
<g id="Layer_1_1_">
	<g>
		<path fill="#E4E4E4" d="M101.886,99.236c-19.809,0.004-39.617,0.006-59.425,0.01c0.031-0.645,0.09-1.291,0.09-1.938
			c0.006-12.269,0.001-24.537,0.014-36.807c0-0.565-0.17-1.164,0.154-1.73c0.665,0.067,1.062,0.546,1.527,0.875
			c8.883,6.247,17.769,12.49,26.616,18.79c0.996,0.709,1.643,0.734,2.655,0.012c8.885-6.338,17.813-12.616,26.74-18.894
			c0.443-0.312,0.805-0.915,1.561-0.696c0,7.903-0.008,15.791,0.003,23.682C101.828,88.104,101.862,93.67,101.886,99.236z"/>
		<path fill="#E84434" d="M101.886,99.236c-0.023-5.566-0.059-11.131-0.065-16.697c-0.011-7.891-0.002-15.78-0.002-23.682
			c-0.756-0.219-1.118,0.385-1.562,0.696c-8.929,6.277-17.855,12.555-26.74,18.894c-1.013,0.723-1.658,0.697-2.655-0.012
			c-8.847-6.299-17.733-12.542-26.616-18.79c-0.466-0.328-0.863-0.807-1.527-0.875c-0.323,0.566-0.153,1.165-0.154,1.73
			c-0.012,12.27-0.008,24.539-0.014,36.807c0,0.646-0.059,1.293-0.09,1.938c-0.972,0-1.944,0.008-2.917-0.004
			c-3.164-0.031-5.153-2-5.157-5.172c-0.013-11.071-0.005-22.142-0.005-33.214c0-3.618-0.012-7.237,0.004-10.855
			c0.015-3.33,2.037-5.26,5.418-5.209c6.85,4.978,13.696,9.959,20.549,14.931c3.923,2.847,7.856,5.681,11.842,8.561
			c3.95-2.881,7.831-5.702,11.7-8.537c6.786-4.973,13.566-9.957,20.348-14.935c3.234-0.106,5.367,1.862,5.37,5.065
			c0.017,14.727,0.015,29.452,0.002,44.177c-0.004,3.169-2,5.154-5.14,5.188C103.611,99.251,102.748,99.238,101.886,99.236z"/>
		<path fill="#E4E4E4" d="M104.242,44.812c-6.781,4.979-13.562,9.962-20.348,14.935c-3.869,2.835-7.749,5.656-11.7,8.537
			c-3.984-2.879-7.918-5.713-11.842-8.561c-6.853-4.972-13.7-9.953-20.549-14.931c14.41-0.014,28.819-0.037,43.229-0.039
			C90.104,44.753,97.174,44.79,104.242,44.812z"/>
	</g>
</g>
<g id="circle">
	<circle fill="none" stroke="#E84434" stroke-width="5" stroke-miterlimit="10" cx="72" cy="72" r="65.429"/>
</g>
</svg>
