<?xml version="1.0" encoding="utf-8"?>
<!-- Generator: Adobe Illustrator 16.0.0, SVG Export Plug-In . SVG Version: 6.00 Build 0)  -->
<!DOCTYPE svg PUBLIC "-//W3C//DTD SVG 1.1//EN" "http://www.w3.org/Graphics/SVG/1.1/DTD/svg11.dtd">
<svg version="1.1" xmlns="http://www.w3.org/2000/svg" xmlns:xlink="http://www.w3.org/1999/xlink" x="0px" y="0px" width="154.5px"
	 height="154.5px" viewBox="0 0 154.5 154.5" style="enable-background:new 0 0 154.5 154.5;" xml:space="preserve">
<style type="text/css">
<![CDATA[
	.st0{fill-rule:evenodd;clip-rule:evenodd;fill:#E4E4E4;}
	.st1{fill-rule:evenodd;clip-rule:evenodd;fill:#E84434;}
	.st2{fill:none;stroke:#E84434;stroke-width:5;stroke-miterlimit:10;}
]]>
</style>
<g id="Layer_1">
	<g>
		<path class="st0" d="M109.315,106.472c-21.253,0.004-42.506,0.007-63.758,0.011c0.033-0.692,0.097-1.386,0.097-2.079
			c0.006-13.163,0.001-26.327,0.015-39.491c0-0.606-0.182-1.249,0.165-1.856c0.713,0.072,1.139,0.586,1.639,0.938
			c9.531,6.703,19.064,13.401,28.557,20.16c1.068,0.76,1.762,0.788,2.848,0.013c9.533-6.801,19.111-13.537,28.69-20.272
			c0.476-0.334,0.864-0.981,1.675-0.747c0,8.479-0.009,16.943,0.003,25.409C109.253,94.529,109.29,100.5,109.315,106.472z"/>
		<path class="st1" d="M109.315,106.472c-0.025-5.972-0.063-11.942-0.07-17.914c-0.012-8.466-0.003-16.931-0.003-25.409
			c-0.811-0.235-1.199,0.413-1.675,0.747c-9.579,6.735-19.157,13.471-28.69,20.272c-1.086,0.775-1.779,0.747-2.848-0.013
			c-9.492-6.759-19.026-13.457-28.557-20.16c-0.5-0.352-0.926-0.866-1.639-0.938c-0.346,0.607-0.164,1.25-0.165,1.856
			c-0.013,13.164-0.008,26.328-0.015,39.491c0,0.693-0.063,1.387-0.097,2.079c-1.043,0-2.086,0.008-3.129-0.004
			c-3.395-0.034-5.529-2.147-5.533-5.549c-0.014-11.879-0.005-23.757-0.005-35.636c0-3.882-0.013-7.765,0.004-11.647
			c0.016-3.573,2.185-5.644,5.813-5.589c7.349,5.341,14.695,10.685,22.048,16.02c4.209,3.055,8.429,6.095,12.705,9.185
			c4.238-3.091,8.401-6.117,12.553-9.159c7.281-5.335,14.555-10.683,21.831-16.024c3.471-0.114,5.758,1.998,5.762,5.435
			c0.018,15.8,0.015,31.599,0.002,47.398c-0.004,3.4-2.146,5.53-5.514,5.566C111.167,106.488,110.24,106.475,109.315,106.472z"/>
		<path class="st0" d="M111.843,48.079c-7.276,5.342-14.55,10.689-21.831,16.024c-4.151,3.042-8.314,6.068-12.553,9.159
			c-4.275-3.089-8.496-6.13-12.705-9.185c-7.353-5.335-14.699-10.679-22.048-16.02c15.461-0.015,30.921-0.04,46.382-0.042
			C96.674,48.016,104.259,48.056,111.843,48.079z"/>
	</g>
</g>
<g id="circle">
	<circle class="st2" cx="77.25" cy="77.25" r="70.2"/>
</g>
</svg>
