<?xml version="1.0" encoding="utf-8"?>
<!-- Generator: Adobe Illustrator 16.0.0, SVG Export Plug-In . SVG Version: 6.00 Build 0)  -->
<!DOCTYPE svg PUBLIC "-//W3C//DTD SVG 1.1//EN" "http://www.w3.org/Graphics/SVG/1.1/DTD/svg11.dtd">
<svg version="1.1" id="Layer_1" xmlns="http://www.w3.org/2000/svg" xmlns:xlink="http://www.w3.org/1999/xlink" x="0px" y="0px"
	 width="124.269px" height="147.773px" viewBox="0 0 124.269 147.773" style="enable-background:new 0 0 124.269 147.773;"
	 xml:space="preserve">
<style type="text/css">
<![CDATA[
	.st0{fill-rule:evenodd;clip-rule:evenodd;fill:#D4B08C;}
	.st1{fill-rule:evenodd;clip-rule:evenodd;fill:#D78C29;}
	.st2{fill-rule:evenodd;clip-rule:evenodd;fill:#A17164;}
	.st3{fill-rule:evenodd;clip-rule:evenodd;fill:#452228;}
	.st4{fill-rule:evenodd;clip-rule:evenodd;fill:#E4C19C;}
	.st5{fill-rule:evenodd;clip-rule:evenodd;fill:#E6A525;}
	.st6{fill-rule:evenodd;clip-rule:evenodd;fill:#B58D7C;}
	.st7{fill-rule:evenodd;clip-rule:evenodd;fill:#EECB9A;}
	.st8{fill-rule:evenodd;clip-rule:evenodd;fill:#F2CEA5;}
	.st9{fill-rule:evenodd;clip-rule:evenodd;fill:#F5EDE5;}
	.st10{fill-rule:evenodd;clip-rule:evenodd;fill:#6D373E;}
]]>
</style>
<path class="st10" d="M30.906,48.29c0,1.718,0,3.435,0,5.151C30.371,52.464,30.371,49.268,30.906,48.29z"/>
<path class="st7" d="M60.846,84.991c1.189-0.535,4.605-0.535,5.795,0C64.709,84.991,62.777,84.991,60.846,84.991z"/>
<path class="st6" d="M59.559,84.991c0.43,0,0.859,0,1.287,0c1.932,0,3.863,0,5.795,0c0.645,0,1.289,0,1.932,0
	C66.314,85.528,61.816,85.528,59.559,84.991z"/>
<path class="st9" d="M33.482,82.739c0.727,1.203,1.053,2.811,1.609,4.184C34.193,85.889,33.76,84.391,33.482,82.739z"/>
<path class="st9" d="M35.092,87.245c0.945,1.416,2.338,2.385,2.576,4.508c0,1.932,0,3.863,0,5.795c0,3.648,0,7.297,0,10.945
	c-1.289,0-1.934,0.643-3.221,0.645c0.623-0.664,1.961-0.615,2.898-0.967C36.83,100.959,38.896,91.167,35.092,87.245z"/>
<path class="st5" d="M99.157,111.711c8.412,2.213,16.447,4.801,25.111,6.762c-1.822,4.412-7.342,7.889-10.947,11.59
	c-12.525,9.357-29.707,17.908-51.509,17.707c-21.453-0.201-38.789-8.127-50.867-18.029C6.994,126.495,1.893,122.708,0,118.473
	c8.646-1.979,16.711-4.537,25.111-6.762C32.598,139.573,91.665,139.559,99.157,111.711z"/>
<path class="st9" d="M86.601,107.848c0.771,0.732,2.479,0.527,3.221,1.289C88.681,108.774,86.903,109.049,86.601,107.848z"/>
<path class="st9" d="M86.601,91.752c1.402-2.893,3.125-5.463,4.186-8.693c-0.951,5.059-4.672,7.348-4.186,13.844
	C86.601,95.186,86.601,93.469,86.601,91.752z"/>
<path class="st10" d="M83.768,9.033c-0.758-1.094-1.739-1.964-2.96-2.595c0.96,1.208,2.047,2.289,3.235,3.269
	C83.943,9.484,83.85,9.259,83.768,9.033z"/>
<path class="st3" d="M86.601,14.487c0.322,0,0.645,0,0.967,0c8.385,1.595,13.34,6.62,13.844,16.097c0,2.039,0,4.078,0,6.117
	c-0.434,5.147-1.096,10.065-2.898,13.843c-1.438,0.602-2.467,1.61-2.896,3.22c-0.609,1.752-1.678,3.044-1.932,5.15
	c-0.699,0.055-0.146-1.142-0.322-1.609c-0.707-12.814,2.582-29.625-9.336-31.228c-1.189-0.535-4.605-0.535-5.795,0
	c-2.277-0.131-3.762,0.531-5.474,0.966C77.337,22.821,82.312,18.997,86.601,14.487z"/>
<path class="st10" d="M28.33,15.453c0.465-1.145,1.305-1.916,2.254-2.576C29.816,13.72,29.396,14.908,28.33,15.453z"/>
<path class="st3" d="M95.616,53.764c0.43-1.609,1.459-2.618,2.896-3.22C97.315,51.386,96.399,52.509,95.616,53.764z"/>
<path class="st2" d="M68.572,84.991c1.893-0.361,3.66-0.848,5.473-1.287c-0.23,3.957-6.199,4.959-10.623,5.795
	c-6.645-0.652-11.564-3.029-13.199-8.693c2.846,1.662,5.313,3.703,9.336,4.186C61.816,85.528,66.314,85.528,68.572,84.991z"/>
<path class="st1" d="M31.871,109.78c4.559,10.252,14.184,15.436,28.01,16.42c0.766,0.533,3.74,0.533,4.508,0
	c13.806-1.002,23.458-6.158,28.007-16.42c2.137,0.762,4.551,1.246,6.762,1.932c-7.492,27.848-66.56,27.861-74.046,0
	C27.322,111.026,29.736,110.542,31.871,109.78z"/>
<path class="st8" d="M30.906,48.29c0.604-14.635,5.805-24.672,19.961-25.755c6.623,2.015,13.596,10.107,21.891,4.508
	c1.712-0.435,3.196-1.097,5.474-0.966c1.932,0,3.863,0,5.795,0c11.918,1.603,8.629,18.413,9.336,31.228
	c-0.539,0.219-0.641,3.787,0.322,2.575c-2.117,6.576-1.377,16.007-2.898,23.179c-1.061,3.23-2.783,5.801-4.186,8.693
	c-7.863,6.266-17.095,16.689-31.87,11.912c-6.404-3.256-11.797-7.521-17.063-11.912c-0.238-2.123-1.631-3.092-2.576-4.508
	c0-0.107,0-0.215,0-0.322c-0.557-1.373-0.883-2.98-1.609-4.184c-1.402-6.861-1.01-15.517-2.576-22.214
	c0.529-0.044,0.529-2.21,0-2.254c0-1.609,0-3.22,0-4.829C30.906,51.725,30.906,50.008,30.906,48.29z M59.559,84.991
	c-4.023-0.482-6.49-2.523-9.336-4.186c1.635,5.664,6.555,8.041,13.199,8.693c4.424-0.836,10.393-1.838,10.623-5.795
	c-1.813,0.439-3.58,0.926-5.473,1.287c-0.643,0-1.287,0-1.932,0c-1.189-0.535-4.605-0.535-5.795,0
	C60.418,84.991,59.988,84.991,59.559,84.991z"/>
<path class="st3" d="M78.231,26.077c1.189-0.535,4.605-0.535,5.795,0C82.095,26.077,80.163,26.077,78.231,26.077z"/>
<path class="st10" d="M85.5,11.983c-0.601-0.661-1.087-1.452-1.457-2.276c-1.188-0.98-2.275-2.061-3.235-3.269
	c-3.539-3.008-8.562-4.531-14.489-5.15h-5.473c-2.471,0.536-7.186,0.536-9.658,0C47.488,1.231,44.35,0.614,41.209,0
	c-0.088,2.663,1.01,4.142,1.287,6.438c-5.137,0.981-8.744,3.49-11.912,6.438c-0.768,0.843-1.188,2.031-2.254,2.576
	c-3.17,3.483-4.5,8.805-5.473,14.487v6.438c0.779,3.357,0.713,7.558,1.54,10.867c0.691,0.746,1.335,1.535,1.937,2.372
	c0.46,0.641,0.847,1.305,1.245,1.984c0.023,0.041,0.049,0.079,0.072,0.119c0.416,0.404,0.749,0.862,1.028,1.369
	c0.3,0.42,0.499,0.906,0.638,1.416c0.008,0.021,0.017,0.041,0.024,0.062c0.195,0.527,0.277,1.037,0.279,1.525
	c0.293,0.968,0.563,1.96,0.965,2.821c0.252-0.07,0.375-0.27,0.322-0.644v-4.829c-0.535-0.978-0.535-4.174,0-5.151
	c0.604-14.635,5.805-24.672,19.961-25.755c6.623,2.015,13.596,10.107,21.891,4.508c4.579-4.222,9.554-8.046,13.843-12.556
	C86.473,13.415,85.835,12.85,85.5,11.983z"/>
<path class="st8" d="M30.906,60.524c-0.27-0.374-0.424-0.863-0.322-1.61c0.252-0.07,0.375-0.27,0.322-0.644
	C31.436,58.314,31.436,60.48,30.906,60.524z"/>
<path class="st8" d="M93.685,59.88c-0.963,1.212-0.861-2.356-0.322-2.575c0.176,0.468-0.377,1.664,0.322,1.609
	C93.685,59.236,93.685,59.559,93.685,59.88z"/>
<path class="st0" d="M37.668,91.752c5.266,4.391,10.658,8.656,17.063,11.912c14.775,4.777,24.007-5.646,31.87-11.912
	c0,1.717,0,3.434,0,5.15c0,0.107,0,0.215,0,0.322c-7.701,5.305-12.694,14.486-24.466,14.486c-11.881,0-16.557-9.012-24.467-14.164
	C37.668,95.616,37.668,93.684,37.668,91.752z"/>
<path class="st4" d="M89.821,109.137c0.787,0.285,1.396,0.75,2.574,0.643c-4.549,10.262-14.201,15.418-28.007,16.42
	c-1.504,0-3.006,0-4.508,0c-13.826-0.984-23.451-6.168-28.01-16.42c1.18,0.107,1.789-0.357,2.576-0.643
	c1.287-0.002,1.932-0.645,3.221-0.645c0-3.648,0-7.297,0-10.945c7.91,5.152,12.586,14.164,24.467,14.164
	c11.771,0,16.765-9.182,24.466-14.486c0,3.541,0,7.082,0,10.623C86.903,109.049,88.681,108.774,89.821,109.137z"/>
<path class="st10" d="M51.188,1.366c3.221,0,6.439,0,9.658,0C58.375,1.902,53.66,1.902,51.188,1.366z"/>
</svg>
