<?xml version="1.0" encoding="utf-8"?>
<!-- Generator: Adobe Illustrator 16.0.0, SVG Export Plug-In . SVG Version: 6.00 Build 0)  -->
<!DOCTYPE svg PUBLIC "-//W3C//DTD SVG 1.1//EN" "http://www.w3.org/Graphics/SVG/1.1/DTD/svg11.dtd">
<svg version="1.1" id="Layer_1" xmlns="http://www.w3.org/2000/svg" xmlns:xlink="http://www.w3.org/1999/xlink" x="0px" y="0px"
	 width="324.067px" height="321.943px" viewBox="0 0 324.067 321.943" enable-background="new 0 0 324.067 321.943"
	 xml:space="preserve">
<g id="Layer_1_2_">
	<g id="Layer_1_1_">
		<path fill="#6D373E" d="M118.919,125.632c0,2.372,0,4.744,0,7.111C118.181,131.397,118.181,126.985,118.919,125.632z"/>
		<path fill="#EECB9A" d="M160.255,176.302c1.641-0.736,6.355-0.736,8,0C165.587,176.302,162.919,176.302,160.255,176.302z"/>
		<path fill="#B58D7C" d="M158.478,176.302c0.592,0,1.184,0,1.775,0c2.668,0,5.334,0,8,0c0.893,0,1.781,0,2.668,0
			C167.804,177.044,161.591,177.044,158.478,176.302z"/>
		<g id="XMLID_1_">
			<g>
				<path fill="#F2CEA5" d="M122.48,173.19c0.993,1.672,1.448,3.881,2.223,5.781C123.458,177.54,122.852,175.468,122.48,173.19z"/>
			</g>
		</g>
		<path fill="#7392FF" d="M213.145,213.19c11.612,3.057,22.705,6.631,34.668,9.338c-2.517,6.088-10.138,10.893-15.112,16
			c-17.293,12.918-41.015,24.723-71.113,24.443c-29.615-0.275-53.551-11.221-70.226-24.895c-5.454-4.479-12.497-9.707-15.11-15.555
			c11.938-2.732,23.07-6.266,34.668-9.338C121.255,251.657,202.802,251.637,213.145,213.19z"/>
		<path fill="#452228" d="M195.81,78.966c0.445,0,0.891,0,1.336,0c11.576,2.201,18.416,9.141,19.113,22.225c0,2.813,0,5.631,0,8.443
			c-0.598,7.107-1.514,13.896-4,19.111c-1.988,0.832-3.408,2.223-4,4.446c-0.842,2.418-2.314,4.202-2.668,7.106
			c-0.965,0.075-0.201-1.575-0.443-2.221c-0.977-17.689,3.564-40.897-12.889-43.112c-1.643-0.737-6.361-0.737-8.002,0
			c-3.143-0.18-5.191,0.733-7.559,1.333C183.02,90.472,189.89,85.191,195.81,78.966z"/>
		<path fill="#6D373E" d="M115.363,80.299c0.641-1.58,1.801-2.645,3.111-3.555C117.414,77.907,116.835,79.546,115.363,80.299z"/>
		<path fill="#452228" d="M208.257,133.191c0.594-2.225,2.012-3.614,3.996-4.446C210.603,129.907,209.337,131.457,208.257,133.191z"
			/>
		<path fill="#A17164" d="M170.919,176.302c2.615-0.496,5.055-1.17,7.557-1.775c-0.316,5.463-8.557,6.846-14.666,8
			c-9.172-0.898-15.964-4.178-18.223-12c3.93,2.295,7.336,5.113,12.891,5.779C161.591,177.044,167.804,177.044,170.919,176.302z"/>
		<path fill="#F2CEA5" d="M118.919,125.632c0.832-20.203,8.015-34.061,27.559-35.557c9.145,2.78,18.77,13.953,30.221,6.224
			c2.365-0.601,4.412-1.514,7.562-1.333c2.668,0,5.336,0,8.002,0c16.452,2.215,11.911,25.422,12.89,43.112
			c-0.742,0.302-0.886,5.229,0.442,3.554c-2.923,9.079-1.899,22.101-4,32.001c-1.466,4.457-3.845,8.012-5.778,12
			c-10.854,8.65-23.604,23.039-43.998,16.445c-8.841-4.496-16.289-10.383-23.561-16.445c-0.325-2.934-2.25-4.27-3.555-6.223
			c0-0.146,0-0.299,0-0.445c-0.77-1.895-1.219-4.111-2.222-5.773c-1.937-9.477-1.396-21.422-3.558-30.668
			c0.729-0.063,0.729-3.052,0-3.111c0-2.223,0-4.446,0-6.667C118.919,130.376,118.919,128.004,118.919,125.632z M158.478,176.302
			c-5.557-0.666-8.961-3.482-12.891-5.777c2.258,7.816,9.05,11.104,18.221,12c6.109-1.152,14.352-2.537,14.668-8
			c-2.502,0.605-4.943,1.277-7.557,1.775c-0.887,0-1.777,0-2.666,0c-1.645-0.738-6.359-0.738-8.002,0
			C159.662,176.302,159.069,176.302,158.478,176.302z"/>
		<path fill="#452228" d="M184.255,94.966c1.641-0.737,6.354-0.737,8.002,0C189.591,94.966,186.921,94.966,184.255,94.966z"/>
		<path fill="#6D373E" d="M194.291,75.51c-0.83-0.912-1.5-2.005-2.013-3.143c-1.64-1.354-3.142-2.845-4.465-4.513
			c-4.888-4.152-11.819-6.257-20.004-7.109h-7.556c-3.414,0.74-9.922,0.74-13.334,0c-5.108-0.079-9.441-0.931-13.777-1.779
			c-0.122,3.679,1.395,5.721,1.777,8.891c-7.092,1.354-12.072,4.816-16.445,8.888c-1.061,1.164-1.639,2.804-3.111,3.556
			c-4.377,4.812-6.213,12.156-7.556,20.001v8.889c1.075,4.635,0.983,10.436,2.126,15.003c0.952,1.029,1.842,2.12,2.672,3.273
			c0.635,0.885,1.169,1.803,1.721,2.739c0.03,0.056,0.065,0.108,0.098,0.164c0.576,0.557,1.035,1.188,1.422,1.889
			c0.412,0.581,0.688,1.252,0.879,1.956c0.013,0.029,0.021,0.059,0.031,0.086c0.271,0.729,0.385,1.435,0.388,2.104
			c0.403,1.338,0.776,2.707,1.332,3.896c0.347-0.097,0.517-0.373,0.442-0.889v-6.667c-0.736-1.353-0.736-5.763,0-7.111
			c0.834-20.203,8.017-34.061,27.561-35.557c9.146,2.78,18.771,13.953,30.223,6.224c6.322-5.827,13.19-11.106,19.113-17.334
			C195.634,77.485,194.751,76.706,194.291,75.51z"/>
		<path fill="#F2CEA5" d="M118.919,142.524c-0.373-0.518-0.586-1.19-0.444-2.225c0.347-0.097,0.517-0.373,0.444-0.889
			C119.652,139.472,119.652,142.463,118.919,142.524z"/>
		<path fill="#F2CEA5" d="M205.591,141.633c-1.33,1.674-1.189-3.252-0.445-3.554c0.242,0.646-0.52,2.296,0.445,2.221
			C205.591,140.745,205.591,141.191,205.591,141.633z"/>
		<path fill="#D4B08C" d="M128.253,185.635c7.271,6.063,14.716,11.951,23.559,16.447c20.396,6.594,33.145-7.795,43.998-16.447
			c0,2.369,0,4.74,0,7.111c0,0.146,0,0.297,0,0.441c-10.631,7.322-17.525,19.998-33.777,19.998c-16.4,0-22.857-12.438-33.779-19.557
			C128.253,190.971,128.253,188.303,128.253,185.635z"/>
		<path fill="#E4C19C" d="M200.257,209.637c1.084,0.395,1.926,1.035,3.553,0.887c-6.279,14.17-19.604,21.285-38.666,22.67
			c-2.076,0-4.15,0-6.223,0c-19.088-1.357-32.375-8.518-38.672-22.67c1.629,0.148,2.472-0.492,3.557-0.887
			c1.777-0.004,2.668-0.893,4.447-0.893c0-5.037,0-10.072,0-15.111c10.92,7.115,17.377,19.557,33.779,19.557
			c16.25,0,23.146-12.678,33.777-19.996c0,4.889,0,9.775,0,14.662C196.228,209.514,198.683,209.137,200.257,209.637z"/>
		<path fill="#6D373E" d="M150.063,67.144c4.308,0,8.61,0,12.918,0C159.675,67.858,153.369,67.858,150.063,67.144z"/>
		<g id="XMLID_2_">
			<g>
				<path fill="#1549FF" d="M203.81,210.52c2.953,1.063,6.281,1.729,9.332,2.682c-10.342,38.434-91.891,38.461-102.219,0
					c3.052-0.953,6.377-1.615,9.334-2.682c6.293,14.166,19.576,21.314,38.67,22.668c1.048,0.746,5.162,0.746,6.211,0
					C184.207,231.807,197.526,224.7,203.81,210.52z"/>
				<path fill="#1549FF" d="M158.927,233.188h6.212C164.091,233.934,159.976,233.934,158.927,233.188z"/>
			</g>
		</g>
	</g>
</g>
<g id="circle">
	<circle fill="none" stroke="#CCCCCC" stroke-width="8" stroke-miterlimit="10" cx="162.033" cy="160.971" r="142.199"/>
</g>
</svg>
