<?xml version="1.0" encoding="utf-8"?>
<!-- Generator: Adobe Illustrator 16.0.0, SVG Export Plug-In . SVG Version: 6.00 Build 0)  -->
<!DOCTYPE svg PUBLIC "-//W3C//DTD SVG 1.1//EN" "http://www.w3.org/Graphics/SVG/1.1/DTD/svg11.dtd">
<svg version="1.1" xmlns="http://www.w3.org/2000/svg" xmlns:xlink="http://www.w3.org/1999/xlink" x="0px" y="0px"
	 width="288.135px" height="287.887px" viewBox="0 0 288.135 287.887" enable-background="new 0 0 288.135 287.887"
	 xml:space="preserve">
<g id="Layer_1">
	<g id="Layer_1_1_">
		<path fill="#6D373E" d="M100.954,108.604c0,2.372,0,4.744,0,7.111C100.216,114.368,100.216,109.956,100.954,108.604z"/>
		<path fill="#EECB9A" d="M142.29,159.274c1.641-0.738,6.358-0.738,8,0C147.622,159.274,144.954,159.274,142.29,159.274z"/>
		<path fill="#B58D7C" d="M140.513,159.274c0.592,0,1.184,0,1.776,0c2.667,0,5.333,0,8,0c0.891,0,1.781,0,2.668,0
			C149.839,160.014,143.627,160.014,140.513,159.274z"/>
		<g id="XMLID_1_">
			<g>
				<path fill="#F2CEA5" d="M104.515,156.162c0.993,1.67,1.448,3.879,2.222,5.783C105.494,160.51,104.887,158.44,104.515,156.162z"
					/>
			</g>
		</g>
		<path fill="#E6A525" d="M195.181,196.162c11.613,3.055,22.705,6.629,34.668,9.336c-2.516,6.088-10.137,10.893-15.113,16
			c-17.293,12.918-41.014,24.723-71.113,24.447c-29.617-0.279-53.551-11.221-70.226-24.895c-5.455-4.479-12.497-9.707-15.11-15.553
			c11.938-2.734,23.07-6.266,34.667-9.338C103.291,234.627,184.837,234.61,195.181,196.162z"/>
		<path fill="#452228" d="M177.845,61.938c0.445,0,0.891,0,1.336,0c11.576,2.201,18.416,9.139,19.113,22.223c0,2.815,0,5.63,0,8.445
			c-0.598,7.107-1.514,13.896-4,19.111c-1.988,0.832-3.408,2.223-4,4.447c-0.842,2.417-2.314,4.202-2.668,7.108
			c-0.965,0.075-0.201-1.576-0.443-2.221c-0.977-17.69,3.564-40.898-12.889-43.112c-1.643-0.739-6.361-0.739-8.002,0
			c-3.143-0.18-5.191,0.733-7.559,1.333C165.056,73.444,171.925,68.163,177.845,61.938z"/>
		<path fill="#6D373E" d="M97.398,63.271c0.64-1.58,1.8-2.645,3.111-3.555C99.449,60.879,98.871,62.518,97.398,63.271z"/>
		<path fill="#452228" d="M190.292,116.163c0.594-2.223,2.012-3.615,3.996-4.447C192.638,112.879,191.372,114.429,190.292,116.163z"
			/>
		<path fill="#A17164" d="M152.954,159.274c2.615-0.498,5.055-1.17,7.557-1.777c-0.316,5.463-8.557,6.846-14.666,8
			c-9.172-0.898-15.964-4.178-18.222-12c3.929,2.295,7.335,5.113,12.89,5.779C143.627,160.014,149.839,160.014,152.954,159.274z"/>
		<path fill="#F2CEA5" d="M100.954,108.604c0.833-20.204,8.015-34.061,27.558-35.557c9.145,2.781,18.769,13.953,30.222,6.224
			c2.365-0.601,4.412-1.514,7.559-1.333c2.668,0,5.336,0,8.002,0c16.453,2.214,11.912,25.421,12.889,43.112
			c-0.744,0.302-0.885,5.228,0.443,3.554c-2.922,9.079-1.9,22.099-4,32.003c-1.465,4.457-3.844,8.008-5.779,12
			c-10.855,8.65-23.602,23.039-43.998,16.445c-8.84-4.496-16.288-10.383-23.558-16.445c-0.327-2.934-2.251-4.27-3.556-6.223
			c0-0.148,0-0.299,0-0.445c-0.769-1.896-1.218-4.115-2.221-5.777c-1.936-9.473-1.395-21.422-3.557-30.668
			c0.73-0.061,0.73-3.051,0-3.112c0-2.222,0-4.446,0-6.667C100.954,113.348,100.954,110.976,100.954,108.604z M140.513,159.274
			c-5.557-0.666-8.961-3.484-12.89-5.779c2.257,7.818,9.049,11.104,18.22,12c6.109-1.152,14.352-2.537,14.668-8
			c-2.502,0.607-4.943,1.279-7.557,1.777c-0.887,0-1.777,0-2.666,0c-1.643-0.74-6.36-0.74-8.001,0
			C141.697,159.274,141.104,159.274,140.513,159.274z"/>
		<path fill="#452228" d="M166.29,77.938c1.641-0.739,6.355-0.739,8.002,0C171.626,77.938,168.956,77.938,166.29,77.938z"/>
		<path fill="#6D373E" d="M176.325,58.482c-0.83-0.913-1.5-2.005-2.012-3.143c-1.639-1.352-3.141-2.844-4.465-4.512
			c-4.887-4.153-11.82-6.256-20.004-7.11h-7.555c-3.414,0.74-9.922,0.74-13.333,0c-5.109-0.079-9.442-0.93-13.778-1.779
			c-0.122,3.677,1.394,5.719,1.777,8.889c-7.091,1.354-12.072,4.818-16.445,8.887c-1.061,1.164-1.639,2.804-3.111,3.556
			c-4.377,4.809-6.213,12.156-7.556,20.001v8.887c1.076,4.634,0.983,10.435,2.126,15.003c0.952,1.03,1.842,2.12,2.672,3.275
			c0.635,0.884,1.169,1.802,1.72,2.739c0.031,0.056,0.066,0.109,0.099,0.164c0.575,0.557,1.035,1.19,1.42,1.889
			c0.414,0.581,0.688,1.252,0.879,1.956c0.013,0.029,0.023,0.057,0.033,0.086c0.27,0.727,0.383,1.433,0.386,2.104
			c0.404,1.338,0.777,2.707,1.332,3.896c0.347-0.097,0.516-0.373,0.444-0.889v-6.667c-0.738-1.351-0.738-5.762,0-7.111
			c0.834-20.204,8.015-34.061,27.559-35.557c9.144,2.781,18.769,13.953,30.22,6.224c6.324-5.828,13.193-11.108,19.115-17.334
			C177.669,60.456,176.786,59.678,176.325,58.482z"/>
		<path fill="#F2CEA5" d="M100.954,125.495c-0.373-0.516-0.585-1.191-0.444-2.223c0.347-0.097,0.516-0.373,0.444-0.889
			C101.687,122.444,101.687,125.435,100.954,125.495z"/>
		<path fill="#F2CEA5" d="M187.626,124.605c-1.33,1.673-1.189-3.252-0.445-3.554c0.242,0.646-0.52,2.296,0.445,2.221
			C187.626,123.717,187.626,124.163,187.626,124.605z"/>
		<path fill="#D4B08C" d="M110.289,168.608c7.27,6.063,14.715,11.951,23.558,16.447c20.396,6.594,33.143-7.795,43.998-16.447
			c0,2.369,0,4.74,0,7.111c0,0.146,0,0.297,0,0.443c-10.631,7.324-17.525,19.998-33.777,19.998
			c-16.401,0-22.859-12.439-33.78-19.555C110.289,173.944,110.289,171.276,110.289,168.608z"/>
		<path fill="#E4C19C" d="M182.292,192.61c1.084,0.393,1.926,1.035,3.553,0.887c-6.279,14.168-19.605,21.285-38.666,22.668
			c-2.076,0-4.151,0-6.223,0c-19.087-1.357-32.375-8.516-38.671-22.668c1.628,0.148,2.471-0.494,3.556-0.887
			c1.778-0.004,2.668-0.893,4.447-0.893c0-5.037,0-10.072,0-15.111c10.921,7.115,17.377,19.557,33.779,19.557
			c16.251,0,23.146-12.678,33.779-19.998c0,4.889,0,9.777,0,14.664C178.263,192.487,180.718,192.11,182.292,192.61z"/>
		<path fill="#6D373E" d="M132.098,50.115c4.308,0,8.612,0,12.918,0C141.71,50.83,135.404,50.83,132.098,50.115z"/>
		<g id="XMLID_2_">
			<g>
				<path fill="#D78C29" d="M185.845,193.492c2.953,1.063,6.281,1.727,9.332,2.68c-10.342,38.434-91.891,38.461-102.218,0
					c3.051-0.953,6.377-1.615,9.333-2.68c6.294,14.166,19.576,21.316,38.67,22.668c1.048,0.746,5.163,0.746,6.211,0
					C166.241,214.78,179.562,207.67,185.845,193.492z"/>
				<path fill="#D78C29" d="M140.962,216.16h6.212C146.126,216.906,142.011,216.906,140.962,216.16z"/>
			</g>
		</g>
	</g>
</g>
<g id="circle">
	<circle fill="none" stroke="#000000" stroke-miterlimit="10" cx="144.067" cy="143.945" r="142.2"/>
</g>
</svg>
