<?xml version="1.0" encoding="utf-8"?>
<!-- Generator: Adobe Illustrator 16.0.0, SVG Export Plug-In . SVG Version: 6.00 Build 0)  -->
<!DOCTYPE svg PUBLIC "-//W3C//DTD SVG 1.1//EN" "http://www.w3.org/Graphics/SVG/1.1/DTD/svg11.dtd">
<svg version="1.1" id="Layer_1" xmlns="http://www.w3.org/2000/svg" xmlns:xlink="http://www.w3.org/1999/xlink" x="0px" y="0px"
	 width="324.067px" height="321.943px" viewBox="0 -34.056 324.067 321.943" enable-background="new 0 -34.056 324.067 321.943"
	 xml:space="preserve">
<g id="Layer_1_2_">
	<g id="Layer_1_1_">
		<path fill="#6D373E" d="M118.92,91.576c0,2.372,0,4.744,0,7.111C118.182,97.341,118.182,92.928,118.92,91.576z"/>
		<path fill="#EECB9A" d="M160.256,142.246c1.641-0.738,6.357-0.738,8,0C165.588,142.246,162.92,142.246,160.256,142.246z"/>
		<path fill="#B58D7C" d="M158.479,142.246c0.592,0,1.184,0,1.776,0c2.667,0,5.333,0,8,0c0.892,0,1.78,0,2.668,0
			C167.805,142.987,161.593,142.987,158.479,142.246z"/>
		<g id="XMLID_1_">
			<g>
				<path fill="#F2CEA5" d="M122.481,139.135c0.993,1.67,1.448,3.879,2.222,5.781C123.46,143.483,122.853,141.412,122.481,139.135z"
					/>
			</g>
		</g>
		<path fill="#E6A525" d="M213.146,179.135c11.613,3.055,22.705,6.629,34.668,9.336c-2.516,6.088-10.137,10.893-15.113,16
			c-17.293,12.918-41.014,24.723-71.112,24.445c-29.617-0.277-53.551-11.221-70.226-24.895c-5.455-4.479-12.497-9.707-15.11-15.553
			c11.938-2.734,23.07-6.266,34.667-9.338C121.257,217.6,202.803,217.582,213.146,179.135z"/>
		<path fill="#452228" d="M195.811,44.91c0.445,0,0.891,0,1.336,0c11.576,2.201,18.416,9.14,19.113,22.224c0,2.814,0,5.63,0,8.444
			c-0.598,7.107-1.514,13.896-4,19.111c-1.988,0.832-3.408,2.223-4,4.447c-0.842,2.417-2.314,4.202-2.668,7.107
			c-0.965,0.075-0.201-1.576-0.443-2.221c-0.977-17.69,3.564-40.898-12.889-43.112c-1.643-0.738-6.361-0.738-8.002,0
			c-3.143-0.18-5.191,0.733-7.559,1.333C183.021,56.416,189.891,51.135,195.811,44.91z"/>
		<path fill="#6D373E" d="M115.364,46.243c0.64-1.58,1.8-2.645,3.111-3.555C117.415,43.851,116.837,45.49,115.364,46.243z"/>
		<path fill="#452228" d="M208.258,99.135c0.594-2.224,2.012-3.615,3.996-4.447C210.604,95.851,209.338,97.401,208.258,99.135z"/>
		<path fill="#A17164" d="M170.92,142.246c2.615-0.498,5.055-1.17,7.557-1.777c-0.316,5.463-8.557,6.846-14.666,8
			c-9.172-0.898-15.964-4.178-18.222-12c3.929,2.295,7.335,5.113,12.89,5.779C161.593,142.987,167.805,142.987,170.92,142.246z"/>
		<path fill="#F2CEA5" d="M118.92,91.576c0.833-20.204,8.015-34.061,27.559-35.557c9.145,2.781,18.769,13.953,30.221,6.224
			c2.365-0.601,4.412-1.514,7.56-1.333c2.668,0,5.336,0,8.002,0c16.453,2.214,11.912,25.421,12.89,43.112
			c-0.744,0.302-0.886,5.228,0.442,3.554c-2.922,9.079-1.899,22.1-4,32.002c-1.465,4.457-3.844,8.01-5.778,12
			c-10.855,8.65-23.603,23.039-43.998,16.445c-8.841-4.496-16.289-10.383-23.559-16.445c-0.327-2.934-2.251-4.27-3.556-6.223
			c0-0.148,0-0.299,0-0.445c-0.769-1.895-1.218-4.113-2.221-5.775c-1.936-9.475-1.395-21.422-3.557-30.668
			c0.73-0.062,0.73-3.052,0-3.112c0-2.222,0-4.446,0-6.667C118.92,96.32,118.92,93.948,118.92,91.576z M158.479,142.246
			c-5.557-0.666-8.961-3.484-12.89-5.779c2.257,7.818,9.049,11.104,18.22,12c6.109-1.152,14.352-2.537,14.668-8
			c-2.502,0.607-4.943,1.279-7.557,1.777c-0.887,0-1.777,0-2.666,0c-1.643-0.74-6.359-0.74-8.001,0
			C159.662,142.246,159.07,142.246,158.479,142.246z"/>
		<path fill="#452228" d="M184.256,60.91c1.641-0.738,6.355-0.738,8.002,0C189.592,60.91,186.922,60.91,184.256,60.91z"/>
		<path fill="#6D373E" d="M194.291,41.454c-0.83-0.913-1.5-2.005-2.012-3.143c-1.64-1.353-3.142-2.844-4.465-4.512
			c-4.888-4.153-11.82-6.257-20.004-7.11h-7.556c-3.414,0.74-9.922,0.74-13.333,0c-5.109-0.079-9.442-0.93-13.778-1.779
			c-0.122,3.678,1.394,5.72,1.777,8.89c-7.091,1.354-12.072,4.817-16.445,8.887c-1.061,1.164-1.639,2.804-3.111,3.556
			c-4.377,4.81-6.213,12.156-7.556,20.001v8.888c1.076,4.634,0.983,10.435,2.126,15.003c0.952,1.029,1.842,2.12,2.672,3.274
			c0.635,0.884,1.169,1.802,1.72,2.739c0.031,0.056,0.066,0.109,0.099,0.164c0.575,0.557,1.035,1.189,1.42,1.889
			c0.414,0.581,0.688,1.252,0.879,1.956c0.013,0.029,0.023,0.058,0.033,0.086c0.27,0.728,0.383,1.434,0.386,2.104
			c0.404,1.338,0.777,2.707,1.332,3.896c0.347-0.097,0.516-0.373,0.444-0.889v-6.667c-0.738-1.352-0.738-5.762,0-7.111
			c0.834-20.204,8.015-34.061,27.559-35.557c9.145,2.781,18.77,13.953,30.221,6.224c6.324-5.828,13.192-11.107,19.115-17.334
			C195.635,43.428,194.752,42.65,194.291,41.454z"/>
		<path fill="#F2CEA5" d="M118.92,108.468c-0.373-0.517-0.585-1.191-0.444-2.224c0.347-0.097,0.516-0.373,0.444-0.889
			C119.653,105.416,119.653,108.407,118.92,108.468z"/>
		<path fill="#F2CEA5" d="M205.592,107.577c-1.33,1.673-1.189-3.252-0.445-3.554c0.242,0.646-0.52,2.296,0.445,2.221
			C205.592,106.689,205.592,107.135,205.592,107.577z"/>
		<path fill="#D4B08C" d="M128.255,151.58c7.27,6.063,14.715,11.951,23.558,16.447c20.396,6.594,33.144-7.795,43.998-16.447
			c0,2.369,0,4.74,0,7.111c0,0.146,0,0.297,0,0.443c-10.631,7.322-17.525,19.998-33.777,19.998c-16.4,0-22.858-12.439-33.779-19.557
			C128.255,156.916,128.255,154.248,128.255,151.58z"/>
		<path fill="#E4C19C" d="M200.258,175.582c1.084,0.393,1.926,1.035,3.553,0.887c-6.279,14.168-19.604,21.285-38.666,22.668
			c-2.076,0-4.15,0-6.223,0c-19.087-1.357-32.375-8.516-38.671-22.668c1.628,0.148,2.471-0.494,3.556-0.887
			c1.778-0.004,2.668-0.893,4.447-0.893c0-5.037,0-10.072,0-15.111c10.921,7.115,17.377,19.557,33.779,19.557
			c16.25,0,23.146-12.678,33.779-19.998c0,4.889,0,9.777,0,14.664C196.229,175.459,198.684,175.082,200.258,175.582z"/>
		<path fill="#6D373E" d="M150.064,33.088c4.308,0,8.611,0,12.918,0C159.676,33.802,153.369,33.802,150.064,33.088z"/>
		<g id="XMLID_2_">
			<g>
				<path fill="#D78C29" d="M203.811,176.465c2.953,1.063,6.281,1.727,9.332,2.68c-10.342,38.434-91.891,38.461-102.218,0
					c3.051-0.953,6.377-1.615,9.333-2.68c6.294,14.166,19.576,21.314,38.67,22.668c1.048,0.746,5.163,0.746,6.211,0
					C184.207,197.752,197.527,190.643,203.811,176.465z"/>
				<path fill="#D78C29" d="M158.928,199.133h6.212C164.092,199.879,159.977,199.879,158.928,199.133z"/>
			</g>
		</g>
	</g>
</g>
<g id="circle">
	<circle fill="none" stroke="#E5B576" stroke-width="8" stroke-miterlimit="10" cx="162.034" cy="126.916" r="142.2"/>
</g>
</svg>
