<?xml version="1.0" encoding="utf-8"?>
<!-- Generator: Adobe Illustrator 16.0.0, SVG Export Plug-In . SVG Version: 6.00 Build 0)  -->
<!DOCTYPE svg PUBLIC "-//W3C//DTD SVG 1.1//EN" "http://www.w3.org/Graphics/SVG/1.1/DTD/svg11.dtd">
<svg version="1.1" id="Layer_1" xmlns="http://www.w3.org/2000/svg" xmlns:xlink="http://www.w3.org/1999/xlink" x="0px" y="0px"
	 width="145.4px" height="145.4px" viewBox="4.8 4.8 145.4 145.4" enable-background="new 4.8 4.8 145.4 145.4"
	 xml:space="preserve">
<g id="Layer_1_1_">
	<g>
		<path d="M107.441,77.498c0,10.777,0.008,21.559-0.004,32.337c-0.002,3.583-2.137,6.38-5.498,7.215
			c-0.629,0.155-1.295,0.232-1.943,0.232c-15.002,0.013-30.004,0.017-45.006,0.007c-4.334-0.003-7.41-3.092-7.412-7.455
			c-0.01-20.458-0.008-40.915-0.002-61.371c0-1.599-0.108-3.221,0.119-4.791c0.484-3.35,3.338-5.773,6.751-5.952
			c0.21-0.011,0.419-0.013,0.63-0.013c14.975,0,29.951-0.003,44.927,0.002c3.233,0.001,5.979,1.823,6.996,4.759
			c0.319,0.918,0.429,1.95,0.431,2.93c0.028,10.7,0.02,21.4,0.02,32.101C107.445,77.498,107.443,77.498,107.441,77.498z
			 M51.529,77.432c0,10.701,0,21.401,0.001,32.1c0,2.67,1.233,3.918,3.87,3.918c14.766,0,29.532,0,44.297,0
			c2.455,0,3.787-1.333,3.787-3.788c0.002-21.375-0.016-42.749,0.033-64.123c0.006-2.103-1.203-4.058-4.008-4.03
			c-8.785,0.089-17.572,0.033-26.356,0.033c-6.032,0.001-12.064-0.006-18.097,0.008c-2.188,0.005-3.495,1.345-3.524,3.545
			c-0.004,0.288-0.003,0.577-0.003,0.865C51.529,56.451,51.529,66.941,51.529,77.432z"/>
		<path fill="#FFFFFF" d="M51.529,77.432c0-10.491,0-20.981,0.001-31.472c0-0.289-0.001-0.578,0.003-0.865
			c0.029-2.2,1.336-3.54,3.524-3.545c6.032-0.015,12.064-0.007,18.097-0.008c8.784,0,17.571,0.057,26.356-0.033
			c2.805-0.028,4.014,1.927,4.008,4.03c-0.049,21.374-0.031,42.748-0.033,64.123c0,2.455-1.332,3.788-3.787,3.788
			c-14.766,0-29.531,0-44.297,0c-2.637,0-3.87-1.248-3.87-3.918C51.529,98.833,51.529,88.133,51.529,77.432z M75.731,75.405
			c-0.064,0.01-0.128,0.019-0.192,0.029c-1.181-3.855-2.361-7.709-3.606-11.771c-1.532,0.491-3.074,0.886-4.53,1.49
			c-0.844,0.349-1.29,1.176-1.35,2.157c-0.137,2.25-0.318,4.496-0.438,6.746c-0.016,0.309,0.143,0.724,0.366,0.935
			c6.247,5.919,16.653,5.927,22.886,0.012c0.255-0.244,0.439-0.716,0.422-1.071c-0.111-2.303-0.286-4.604-0.445-6.904
			c-0.06-0.865-0.545-1.565-1.264-1.869c-1.404-0.591-2.887-0.996-4.423-1.508c-1.255,4.072-2.445,7.937-3.636,11.802
			c-0.168-0.155-0.209-0.279-0.217-0.406c-0.076-1.23-0.24-2.463-0.197-3.688c0.047-1.443-0.24-2.693-1.367-3.667
			c-0.027-0.024-0.016-0.097-0.017-0.118c0.284-0.296,0.556-0.577,0.828-0.86c0.934-0.977,0.646-2.155-0.657-2.574
			c-0.828-0.266-1.22,0.408-1.672,0.898c-0.417,0.452-0.333,0.893,0.066,1.319c0.385,0.411,0.759,0.834,1.205,1.325
			c-1.474,0.947-1.579,2.349-1.566,3.846C75.939,72.818,75.803,74.111,75.731,75.405z M77.511,88.93c2.805,0,5.61,0.002,8.415,0
			c2.805,0,5.61,0.012,8.414-0.012c1.49-0.014,2.282-1.22,1.682-2.518c-0.369-0.795-1.058-0.998-1.883-0.998
			c-7.863,0.011-15.729,0.005-23.594,0.005c-3.276,0-6.553-0.009-9.83,0.006c-1.377,0.005-2.198,1.11-1.811,2.377
			c0.244,0.791,0.844,1.138,2.012,1.14C66.448,88.932,71.979,88.93,77.511,88.93z M77.43,97.146c0.916,0,1.835,0,2.751,0
			c4.692,0,9.385,0.004,14.077-0.004c1.075,0,1.716-0.483,1.898-1.395c0.262-1.296-0.548-2.118-2.097-2.118
			c-9.438-0.001-18.874-0.001-28.312,0c-1.703,0-3.408-0.005-5.111,0.017c-1.052,0.016-1.656,0.508-1.795,1.396
			c-0.192,1.223,0.592,2.098,1.912,2.1C66.313,97.15,71.871,97.146,77.43,97.146z M77.477,105.189c1.546,0,3.095,0.002,4.64,0
			c4.089,0,8.179,0.002,12.269-0.002c0.99-0.002,1.612-0.476,1.778-1.319c0.232-1.188-0.523-2.142-1.754-2.146
			c-3.695-0.015-7.393-0.009-11.088-0.009c-7.497-0.002-14.994-0.006-22.491,0.011c-0.426,0-0.9,0.088-1.266,0.293
			c-0.65,0.362-0.894,1.256-0.666,2.015c0.228,0.757,0.816,1.157,1.749,1.157C66.258,105.193,71.867,105.189,77.477,105.189z
			 M82.852,53.75c0-0.236,0.012-0.472-0.002-0.707c-0.158-2.704-2.197-4.788-4.861-4.975c-3.213-0.225-5.573,1.337-6.068,4.192
			c-0.514,2.959,0.299,5.63,2.32,7.844c1.922,2.104,4.364,2.033,6.266-0.106C82.081,58.226,82.805,56.107,82.852,53.75z"/>
		<path d="M75.731,75.405c0.071-1.293,0.208-2.586,0.196-3.879c-0.013-1.497,0.093-2.899,1.566-3.846
			c-0.446-0.491-0.82-0.914-1.205-1.325c-0.399-0.426-0.483-0.867-0.066-1.319c0.452-0.49,0.844-1.164,1.672-0.898
			c1.303,0.419,1.59,1.598,0.657,2.574c-0.271,0.284-0.544,0.564-0.828,0.86c0.001,0.021-0.011,0.094,0.017,0.118
			c1.127,0.973,1.414,2.223,1.367,3.667c-0.043,1.226,0.121,2.458,0.197,3.688c0.008,0.126,0.049,0.25,0.217,0.406
			c1.189-3.865,2.381-7.73,3.636-11.802c1.536,0.512,3.019,0.917,4.423,1.508c0.719,0.304,1.204,1.004,1.264,1.869
			c0.159,2.301,0.334,4.601,0.445,6.904c0.018,0.354-0.167,0.827-0.422,1.071c-6.232,5.915-16.639,5.908-22.886-0.012
			c-0.224-0.211-0.382-0.625-0.366-0.935c0.119-2.25,0.301-4.497,0.438-6.746c0.06-0.98,0.506-1.808,1.35-2.157
			c1.456-0.604,2.998-0.999,4.53-1.49c1.245,4.062,2.426,7.916,3.606,11.771C75.604,75.423,75.667,75.415,75.731,75.405z"/>
		<path d="M77.511,88.93c-5.531,0-11.063,0.002-16.595,0c-1.168-0.002-1.768-0.349-2.012-1.14c-0.388-1.267,0.434-2.372,1.811-2.377
			c3.277-0.015,6.554-0.006,9.83-0.006c7.865,0,15.729,0.006,23.594-0.005c0.825,0,1.514,0.203,1.883,0.998
			c0.602,1.298-0.19,2.504-1.682,2.518c-2.804,0.023-5.609,0.012-8.414,0.012C83.121,88.932,80.314,88.93,77.511,88.93z"/>
		<path d="M77.43,97.146c-5.559,0-11.116,0.004-16.674-0.004c-1.32-0.002-2.104-0.877-1.912-2.1
			c0.139-0.891,0.743-1.382,1.795-1.396c1.703-0.021,3.408-0.017,5.111-0.017c9.438-0.001,18.874-0.001,28.313,0
			c1.547,0,2.356,0.822,2.096,2.118c-0.184,0.91-0.823,1.395-1.898,1.395c-4.693,0.008-9.385,0.004-14.076,0.004
			C79.266,97.146,78.346,97.146,77.43,97.146z"/>
		<path d="M77.477,105.189c-5.609,0-11.219,0.004-16.829,0c-0.933,0-1.521-0.4-1.749-1.157c-0.228-0.759,0.016-1.651,0.666-2.015
			c0.365-0.205,0.84-0.293,1.266-0.293c7.497-0.017,14.994-0.013,22.491-0.011c3.695,0,7.393-0.006,11.088,0.009
			c1.229,0.004,1.986,0.957,1.754,2.146c-0.166,0.845-0.788,1.317-1.778,1.319c-4.09,0.004-8.18,0.002-12.269,0.002
			C80.57,105.191,79.021,105.189,77.477,105.189z"/>
		<path d="M82.852,53.75c-0.047,2.356-0.771,4.476-2.346,6.248c-1.9,2.139-4.344,2.21-6.266,0.106
			c-2.021-2.214-2.834-4.884-2.32-7.844c0.495-2.855,2.855-4.417,6.068-4.192c2.665,0.188,4.704,2.271,4.86,4.975
			C82.863,53.279,82.852,53.515,82.852,53.75z"/>
	</g>
</g>
<g id="circle">
	<circle fill="none" stroke="#000000" stroke-width="5" cx="77.5" cy="77.5" r="70.2"/>
</g>
</svg>
