<svg version="1.1" id="Layer_1" xmlns="http://www.w3.org/2000/svg" xmlns:xlink="http://www.w3.org/1999/xlink" x="0px" y="0px"
	 viewBox="0 0 24 24" style="enable-background:new 0 0 24 24;" xml:space="preserve">
<path d="M9,6H7V4c0-1.104,0.896-2,2-2h6c1.104,0,2,0.896,2,2v2h-2V4.49C15,4.22,14.779,4,14.51,4H9.49C9.22,4,9,4.22,9,4.49V6z"/>
<rect y="7" width="24" height="6"/>
<path d="M16.661,18.648l1.366-1.419L17.6,16.785c0,0-0.344,0.241-0.623-0.051c-0.306-0.316-0.215-0.787-0.891-1.317
	C15.685,15.104,15.214,15,14.768,15c-0.88,0-1.668,0.403-1.668,0.403c1.427,0.148,1.962,0.735,1.373,1.348l-0.345,0.357l1.113,1.154
	l0.336-0.35c0.179-0.184,0.447-0.391,0.646-0.184c0.221,0.228,0.011,0.475,0.011,0.475L16.661,18.648z"/>
<g>
	<path d="M10.4,17.6c-0.187-0.186-0.28-0.443-0.262-0.705c0.038-0.494-0.132-1.002-0.51-1.381C9.286,15.169,8.837,15,8.388,15
		c-0.169,0-0.338,0.023-0.502,0.072l1.057,1.057c0.115,0.53-0.652,1.307-1.188,1.189l-1.057-1.058
		c-0.049,0.164-0.073,0.333-0.073,0.503c0,0.449,0.17,0.897,0.513,1.24c0.378,0.379,0.887,0.549,1.382,0.51
		c0.261-0.02,0.519,0.075,0.704,0.262L10.449,20h2.352L10.4,17.6z"/>
	<polygon points="21,15 21,20 15.176,20 12.824,20 3,20 3,15 1,15 1,22 23,22 23,15 	"/>
</g>
<g>
	<path d="M15.019,18.494l-1.113-1.155l-3.202,3.455c-0.147,0.152-0.23,0.36-0.23,0.577c0,0.258,0.123,0.479,0.305,0.629h0.964
		c0.023-0.02,0.052-0.028,0.074-0.051L15.019,18.494z"/>
</g>
</svg>
