<?xml version="1.0" encoding="utf-8"?>
<!-- Generator: Adobe Illustrator 16.0.0, SVG Export Plug-In . SVG Version: 6.00 Build 0)  -->
<!DOCTYPE svg PUBLIC "-//W3C//DTD SVG 1.1//EN" "http://www.w3.org/Graphics/SVG/1.1/DTD/svg11.dtd">
<svg version="1.1" id="Layer_1" xmlns="http://www.w3.org/2000/svg" xmlns:xlink="http://www.w3.org/1999/xlink" x="0px" y="0px"
	 width="324.125px" height="324.125px" viewBox="0 0 324.125 324.125" enable-background="new 0 0 324.125 324.125"
	 xml:space="preserve">
<g id="Layer_1_2_">
	<g id="Layer_1_1_">
		<path fill="#A98422" d="M181.509,190.51l-24.417,26.345c-1.118,1.158-1.752,2.744-1.752,4.399c0,1.966,0.938,3.649,2.324,4.795
			h7.353c0.176-0.153,0.396-0.213,0.563-0.391l24.416-26.341L181.509,190.51z"/>
		<path fill="#FE802D" d="M144.101,104.052h-15.25v-15.25c0-8.418,6.832-15.25,15.25-15.25h45.75c8.418,0,15.25,6.832,15.25,15.25
			v15.25h-15.25V92.539c0-2.059-1.687-3.736-3.734-3.736h-38.278c-2.06,0-3.735,1.677-3.735,3.736L144.101,104.052L144.101,104.052z
			"/>
		<rect x="75.476" y="111.677" fill="#22D689" width="183" height="45.75"/>
		<path fill="#999999" d="M202.515,200.493l10.416-10.82l-3.256-3.385c0,0-2.623,1.836-4.75-0.392c-2.334-2.41-1.64-6-6.795-10.041
			c-3.058-2.388-6.648-3.181-10.05-3.181c-6.709,0-12.72,3.073-12.72,3.073c10.883,1.13,14.961,5.604,10.47,10.277l-2.63,2.724
			l8.486,8.801l2.563-2.668c1.365-1.403,3.409-2.981,4.926-1.403c1.686,1.737,0.084,3.621,0.084,3.621L202.515,200.493z"/>
		<path fill="#999999" d="M154.774,192.5c-1.424-1.416-2.135-3.377-1.996-5.375c0.289-3.766-1.006-7.643-3.889-10.527
			c-2.608-2.631-6.033-3.92-9.455-3.92c-1.291,0-2.578,0.176-3.83,0.549l8.061,8.06c0.877,4.045-4.973,9.969-9.059,9.067
			l-8.061-8.065c-0.375,1.248-0.557,2.539-0.557,3.834c0,3.424,1.297,6.842,3.912,9.455c2.884,2.889,6.762,4.188,10.537,3.889
			c1.99-0.15,3.957,0.57,5.371,1.998l0.28,0.281l8.964-8.964L154.774,192.5z"/>
		<polygon fill="#FFF314" points="173.083,210.804 156.745,194.471 147.781,203.435 155.151,210.804 		"/>
		<polygon fill="#22D689" points="235.601,172.678 235.601,210.804 191.192,210.804 173.257,210.804 98.351,210.804 98.351,172.678 
			83.101,172.678 83.101,226.054 250.851,226.054 250.851,172.678 		"/>
	</g>
</g>
<g id="circle">
	<circle fill="none" stroke="#CCCCCC" stroke-width="8" stroke-miterlimit="10" cx="162.063" cy="162.063" r="142.2"/>
</g>
</svg>
