<?xml version="1.0" encoding="utf-8"?>
<!-- Generator: Adobe Illustrator 16.0.0, SVG Export Plug-In . SVG Version: 6.00 Build 0)  -->
<!DOCTYPE svg PUBLIC "-//W3C//DTD SVG 1.1//EN" "http://www.w3.org/Graphics/SVG/1.1/DTD/svg11.dtd">
<svg version="1.1" id="Layer_1" xmlns="http://www.w3.org/2000/svg" xmlns:xlink="http://www.w3.org/1999/xlink" x="0px" y="0px"
	 width="131.352px" height="131.352px" viewBox="1.5 1.5 131.352 131.352" enable-background="new 1.5 1.5 131.352 131.352"
	 xml:space="preserve">
<g id="Layer_1_2_">
	<g id="Layer_1_1_">
		<path fill="#A98422" d="M75.816,79.815L64.968,91.518c-0.497,0.516-0.778,1.221-0.778,1.954c0,0.873,0.417,1.621,1.032,2.132
			h3.268c0.078-0.068,0.176-0.096,0.25-0.175l10.847-11.703L75.816,79.815z"/>
		<path fill="#FE802D" d="M59.196,41.404h-6.775v-6.775c0-3.74,3.035-6.774,6.775-6.774h20.326c3.739,0,6.774,3.034,6.774,6.774
			v6.775h-6.774v-5.115c0-0.915-0.75-1.66-1.659-1.66H60.857c-0.915,0-1.659,0.745-1.659,1.66L59.196,41.404L59.196,41.404z"/>
		<rect x="28.708" y="44.791" fill="#22D689" width="81.302" height="20.325"/>
		<path fill="#999999" d="M85.149,84.25l4.627-4.808l-1.447-1.504c0,0-1.164,0.814-2.109-0.176c-1.037-1.069-0.729-2.665-3.02-4.461
			c-1.358-1.061-2.953-1.412-4.465-1.412c-2.98,0-5.65,1.365-5.65,1.365c4.834,0.502,6.646,2.489,4.65,4.565l-1.168,1.21l3.771,3.91
			l1.138-1.185c0.606-0.623,1.516-1.324,2.188-0.623c0.749,0.771,0.037,1.609,0.037,1.609L85.149,84.25z"/>
		<path fill="#999999" d="M63.938,80.698c-0.633-0.629-0.948-1.5-0.888-2.389c0.128-1.674-0.446-3.396-1.728-4.678
			c-1.159-1.168-2.681-1.74-4.201-1.74c-0.574,0-1.146,0.078-1.702,0.243l3.582,3.581c0.39,1.797-2.209,4.429-4.025,4.028
			l-3.58-3.583c-0.167,0.555-0.248,1.128-0.248,1.703c0,1.521,0.575,3.039,1.737,4.201c1.281,1.282,3.004,1.858,4.683,1.727
			c0.884-0.066,1.758,0.254,2.386,0.889l0.125,0.125l3.981-3.981L63.938,80.698z"/>
		<polygon fill="#FFF314" points="72.072,88.83 64.814,81.574 60.831,85.556 64.105,88.83 		"/>
		<polygon fill="#22D689" points="99.847,71.892 99.847,88.83 80.117,88.83 72.15,88.83 38.871,88.83 38.871,71.892 32.094,71.892 
			32.094,95.606 106.622,95.606 106.622,71.892 		"/>
	</g>
</g>
<g id="circle">
	<circle fill="none" stroke="#CCCCCC" stroke-width="5" stroke-miterlimit="10" cx="67.176" cy="67.176" r="63.176"/>
</g>
</svg>
