<?xml version="1.0" encoding="utf-8"?>
<!-- Generator: Adobe Illustrator 16.0.0, SVG Export Plug-In . SVG Version: 6.00 Build 0)  -->
<!DOCTYPE svg PUBLIC "-//W3C//DTD SVG 1.1//EN" "http://www.w3.org/Graphics/SVG/1.1/DTD/svg11.dtd">
<svg version="1.1" id="Layer_1" xmlns="http://www.w3.org/2000/svg" xmlns:xlink="http://www.w3.org/1999/xlink" x="0px" y="0px"
	 width="324.125px" height="324.125px" viewBox="0 -36.208 324.125 324.125" enable-background="new 0 -36.208 324.125 324.125"
	 xml:space="preserve">
<g id="Layer_1_2_">
	<g id="Layer_1_1_">
		<path fill="#A98422" d="M181.51,154.302l-24.417,26.344c-1.119,1.159-1.752,2.745-1.752,4.4c0,1.966,0.938,3.65,2.324,4.795h7.352
			c0.176-0.153,0.396-0.213,0.563-0.391l24.416-26.341L181.51,154.302z"/>
		<path fill="#FE802D" d="M144.102,67.844h-15.25v-15.25c0-8.418,6.832-15.25,15.25-15.25h45.75c8.418,0,15.25,6.832,15.25,15.25
			v15.25h-15.25V56.331c0-2.059-1.687-3.736-3.735-3.736h-38.278c-2.06,0-3.736,1.677-3.736,3.736L144.102,67.844L144.102,67.844z"
			/>
		<rect x="75.477" y="75.469" fill="#22D689" width="183" height="45.75"/>
		<path fill="#999999" d="M202.516,164.285l10.416-10.82l-3.256-3.385c0,0-2.623,1.836-4.75-0.391
			c-2.334-2.41-1.64-6.001-6.795-10.042c-3.058-2.387-6.648-3.18-10.05-3.18c-6.709,0-12.72,3.073-12.72,3.073
			c10.883,1.13,14.961,5.604,10.47,10.277l-2.63,2.724l8.486,8.801l2.563-2.668c1.365-1.404,3.409-2.982,4.926-1.404
			c1.686,1.738,0.084,3.622,0.084,3.622L202.516,164.285z"/>
		<path fill="#999999" d="M154.775,156.292c-1.424-1.416-2.135-3.377-1.995-5.375c0.288-3.766-1.007-7.642-3.89-10.528
			c-2.608-2.63-6.032-3.919-9.455-3.919c-1.29,0-2.578,0.176-3.83,0.549l8.061,8.059c0.877,4.045-4.972,9.969-9.059,9.068
			l-8.06-8.066c-0.375,1.248-0.557,2.539-0.557,3.834c0,3.424,1.297,6.842,3.912,9.455c2.884,2.889,6.762,4.188,10.538,3.889
			c1.99-0.15,3.956,0.57,5.37,1.998l0.281,0.281l8.964-8.964L154.775,156.292z"/>
		<polygon fill="#FFF314" points="173.084,174.596 156.746,158.262 147.782,167.227 155.152,174.596 		"/>
		<polygon fill="#22D689" points="235.602,136.47 235.602,174.595 191.194,174.595 173.258,174.595 98.352,174.595 98.352,136.47 
			83.102,136.47 83.102,189.845 250.852,189.845 250.852,136.47 		"/>
	</g>
</g>
<g id="circle">
	<circle fill="none" stroke="#C2C2C2" stroke-width="8" stroke-miterlimit="10" cx="162.064" cy="125.855" r="142.2"/>
</g>
</svg>
