<?xml version="1.0" encoding="utf-8"?>
<!-- Generator: Adobe Illustrator 16.0.0, SVG Export Plug-In . SVG Version: 6.00 Build 0)  -->
<!DOCTYPE svg PUBLIC "-//W3C//DTD SVG 1.1//EN" "http://www.w3.org/Graphics/SVG/1.1/DTD/svg11.dtd">
<svg version="1.1" xmlns="http://www.w3.org/2000/svg" xmlns:xlink="http://www.w3.org/1999/xlink" x="0px" y="0px"
	 width="287.917px" height="287.917px" viewBox="0 -22.083 287.917 287.917" enable-background="new 0 -22.083 287.917 287.917"
	 xml:space="preserve">
<g id="Layer_1">
	<g id="Layer_1_1_">
		<path d="M121.083,67.844h-15.25v-15.25c0-8.418,6.832-15.25,15.25-15.25h45.75c8.418,0,15.25,6.832,15.25,15.25v15.25h-15.25
			V56.331c0-2.059-1.686-3.736-3.735-3.736H124.82c-2.06,0-3.736,1.677-3.736,3.736L121.083,67.844L121.083,67.844z"/>
		<rect x="52.458" y="75.469" width="183" height="45.75"/>
		<path d="M179.498,164.285l10.416-10.82l-3.257-3.386c0,0-2.622,1.837-4.75-0.39c-2.334-2.41-1.639-6.001-6.794-10.042
			c-3.058-2.387-6.648-3.18-10.05-3.18c-6.709,0-12.719,3.073-12.719,3.073c10.882,1.13,14.96,5.604,10.469,10.277l-2.63,2.724
			l8.486,8.8l2.563-2.668c1.365-1.404,3.409-2.982,4.926-1.404c1.686,1.739,0.084,3.622,0.084,3.622L179.498,164.285z"/>
		<g>
			<path d="M131.756,156.293c-1.424-1.417-2.134-3.378-1.995-5.375c0.289-3.766-1.007-7.642-3.889-10.529
				c-2.609-2.63-6.032-3.919-9.455-3.919c-1.29,0-2.578,0.176-3.83,0.549l8.061,8.059c0.877,4.044-4.972,9.969-9.059,9.068
				l-8.06-8.067c-0.375,1.249-0.557,2.539-0.557,3.835c0,3.423,1.297,6.841,3.912,9.454c2.884,2.89,6.762,4.188,10.538,3.89
				c1.99-0.151,3.956,0.57,5.37,1.998l9.341,9.34h17.933L131.756,156.293z"/>
			<polygon points="212.583,136.47 212.583,174.595 168.176,174.595 150.24,174.595 75.333,174.595 75.333,136.47 60.083,136.47 
				60.083,189.845 227.833,189.845 227.833,136.47 			"/>
		</g>
		<g>
			<path d="M166.977,163.11l-8.486-8.807l-24.416,26.343c-1.12,1.159-1.752,2.745-1.752,4.4c0,1.966,0.937,3.651,2.324,4.796h7.351
				c0.177-0.154,0.397-0.214,0.563-0.392L166.977,163.11z"/>
		</g>
	</g>
</g>
<g id="circle">
	<circle fill="none" stroke="#000000" stroke-miterlimit="10" cx="143.958" cy="121.875" r="142.2"/>
</g>
</svg>
